%TF.GenerationSoftware,KiCad,Pcbnew,10.0.5*%
%TF.CreationDate,2026-08-20T12:21:45+02:00*%
%TF.ProjectId,fl11,666c3131-2e6b-4696-9361-645f70636258,rev?*%
%TF.SameCoordinates,Original*%
%TF.FileFunction,Copper,L2,Bot*%
%TF.FilePolarity,Positive*%
%FSLAX46Y46*%
G04 Gerber Fmt 4.6, Leading zero omitted, Abs format (unit mm)*
G04 Created by KiCad (PCBNEW 10.0.5) date 2026-08-20 12:21:45*
%MOMM*%
%LPD*%
G01*
G04 APERTURE LIST*
%TA.AperFunction,ComponentPad*%
%ADD10O,2.100000X1.000000*%
%TD*%
%TA.AperFunction,ComponentPad*%
%ADD11O,1.600000X1.000000*%
%TD*%
%TA.AperFunction,ViaPad*%
%ADD12C,0.600000*%
%TD*%
G04 APERTURE END LIST*
D10*
%TO.P,J1,SH*%
%TO.N,GND*%
X2870000Y-14320000D03*
D11*
X7050000Y-14320000D03*
D10*
X2870000Y-5680000D03*
D11*
X7050000Y-5680000D03*
%TD*%
D12*
%TO.N,GND*%
X150733000Y-15020000D03*
X134067000Y-15020000D03*
X100733000Y-15020000D03*
X184067000Y-15020000D03*
X217400000Y-15020000D03*
X234067000Y-15020000D03*
X117400000Y-15020000D03*
X67400000Y-15020000D03*
X167400000Y-15020000D03*
X200733000Y-15020000D03*
X84067000Y-15020000D03*
%TD*%
%TA.AperFunction,Conductor*%
%TO.N,GND*%
G36*
X12664877Y-520185D02*
G01*
X12710632Y-572989D01*
X12720576Y-642147D01*
X12691551Y-705703D01*
X12665036Y-728184D01*
X12665096Y-728266D01*
X12664007Y-729057D01*
X12662625Y-730229D01*
X12661150Y-731132D01*
X12457350Y-879201D01*
X12457345Y-879205D01*
X12279205Y-1057345D01*
X12279201Y-1057350D01*
X12131132Y-1261151D01*
X12016760Y-1485616D01*
X11938910Y-1725214D01*
X11899500Y-1974038D01*
X11899500Y-2225961D01*
X11938910Y-2474785D01*
X12016760Y-2714383D01*
X12131132Y-2938848D01*
X12279201Y-3142649D01*
X12279205Y-3142654D01*
X12457345Y-3320794D01*
X12457350Y-3320798D01*
X12588237Y-3415892D01*
X12661155Y-3468870D01*
X12804184Y-3541747D01*
X12885616Y-3583239D01*
X12885618Y-3583239D01*
X12885621Y-3583241D01*
X13125215Y-3661090D01*
X13374038Y-3700500D01*
X13374039Y-3700500D01*
X13625961Y-3700500D01*
X13625962Y-3700500D01*
X13874785Y-3661090D01*
X14114379Y-3583241D01*
X14338845Y-3468870D01*
X14542656Y-3320793D01*
X14720793Y-3142656D01*
X14868870Y-2938845D01*
X14983241Y-2714379D01*
X15061090Y-2474785D01*
X15100500Y-2225962D01*
X15100500Y-1974038D01*
X15061090Y-1725215D01*
X14983241Y-1485621D01*
X14983239Y-1485618D01*
X14983239Y-1485616D01*
X14941747Y-1404184D01*
X14868870Y-1261155D01*
X14849952Y-1235117D01*
X14720798Y-1057350D01*
X14720794Y-1057345D01*
X14542654Y-879205D01*
X14542649Y-879201D01*
X14338849Y-731132D01*
X14337375Y-730229D01*
X14336932Y-729739D01*
X14334904Y-728266D01*
X14335213Y-727840D01*
X14290498Y-678419D01*
X14279074Y-609490D01*
X14306729Y-545326D01*
X14364683Y-506300D01*
X14402162Y-500500D01*
X37276000Y-500500D01*
X37343039Y-520185D01*
X37388794Y-572989D01*
X37400000Y-624499D01*
X37400000Y-6000000D01*
X50600000Y-6000000D01*
X50600000Y-624500D01*
X50619685Y-557461D01*
X50672489Y-511706D01*
X50724000Y-500500D01*
X248876000Y-500500D01*
X248943039Y-520185D01*
X248988794Y-572989D01*
X249000000Y-624500D01*
X249000000Y-19375500D01*
X248980315Y-19442539D01*
X248927511Y-19488294D01*
X248876000Y-19499500D01*
X14402162Y-19499500D01*
X14335123Y-19479815D01*
X14289368Y-19427011D01*
X14279424Y-19357853D01*
X14308449Y-19294297D01*
X14334963Y-19271815D01*
X14334904Y-19271734D01*
X14335992Y-19270942D01*
X14337375Y-19269771D01*
X14338839Y-19268872D01*
X14338845Y-19268870D01*
X14542656Y-19120793D01*
X14720793Y-18942656D01*
X14868870Y-18738845D01*
X14983241Y-18514379D01*
X15013600Y-18420943D01*
X23899500Y-18420943D01*
X23899500Y-18579056D01*
X23940423Y-18731783D01*
X23940426Y-18731790D01*
X24019475Y-18868709D01*
X24019479Y-18868714D01*
X24019480Y-18868716D01*
X24131284Y-18980520D01*
X24131286Y-18980521D01*
X24131290Y-18980524D01*
X24268209Y-19059573D01*
X24268216Y-19059577D01*
X24420943Y-19100500D01*
X24420945Y-19100500D01*
X24579055Y-19100500D01*
X24579057Y-19100500D01*
X24731784Y-19059577D01*
X24868716Y-18980520D01*
X24980520Y-18868716D01*
X25059577Y-18731784D01*
X25100500Y-18579057D01*
X25100500Y-18420943D01*
X25059577Y-18268216D01*
X25059573Y-18268209D01*
X24980524Y-18131290D01*
X24980518Y-18131282D01*
X24868717Y-18019481D01*
X24868709Y-18019475D01*
X24731790Y-17940426D01*
X24731786Y-17940424D01*
X24731784Y-17940423D01*
X24579057Y-17899500D01*
X24420943Y-17899500D01*
X24268216Y-17940423D01*
X24268209Y-17940426D01*
X24131290Y-18019475D01*
X24131282Y-18019481D01*
X24019481Y-18131282D01*
X24019475Y-18131290D01*
X23940426Y-18268209D01*
X23940423Y-18268216D01*
X23899500Y-18420943D01*
X15013600Y-18420943D01*
X15061090Y-18274785D01*
X15100500Y-18025962D01*
X15100500Y-17774038D01*
X15061090Y-17525215D01*
X14983241Y-17285621D01*
X14983239Y-17285618D01*
X14983239Y-17285616D01*
X14917865Y-17157314D01*
X14868870Y-17061155D01*
X14763331Y-16915892D01*
X14720798Y-16857350D01*
X14720794Y-16857345D01*
X14542654Y-16679205D01*
X14542649Y-16679201D01*
X14462463Y-16620943D01*
X23899500Y-16620943D01*
X23899500Y-16779057D01*
X23900854Y-16784108D01*
X23940423Y-16931783D01*
X23940426Y-16931790D01*
X24019475Y-17068709D01*
X24019479Y-17068714D01*
X24019480Y-17068716D01*
X24131284Y-17180520D01*
X24131286Y-17180521D01*
X24131290Y-17180524D01*
X24252494Y-17250500D01*
X24268216Y-17259577D01*
X24420943Y-17300500D01*
X24420945Y-17300500D01*
X24579055Y-17300500D01*
X24579057Y-17300500D01*
X24731784Y-17259577D01*
X24868716Y-17180520D01*
X24980520Y-17068716D01*
X25059577Y-16931784D01*
X25100500Y-16779057D01*
X25100500Y-16620943D01*
X25059577Y-16468216D01*
X24984923Y-16338910D01*
X24980524Y-16331290D01*
X24980518Y-16331282D01*
X24868717Y-16219481D01*
X24868709Y-16219475D01*
X24731790Y-16140426D01*
X24731786Y-16140424D01*
X24731784Y-16140423D01*
X24579057Y-16099500D01*
X24420943Y-16099500D01*
X24268216Y-16140423D01*
X24268209Y-16140426D01*
X24131290Y-16219475D01*
X24131282Y-16219481D01*
X24019481Y-16331282D01*
X24019475Y-16331290D01*
X23940426Y-16468209D01*
X23940423Y-16468216D01*
X23899500Y-16620943D01*
X14462463Y-16620943D01*
X14338848Y-16531132D01*
X14338847Y-16531131D01*
X14338845Y-16531130D01*
X14268747Y-16495413D01*
X14114383Y-16416760D01*
X13874785Y-16338910D01*
X13625962Y-16299500D01*
X13374038Y-16299500D01*
X13249626Y-16319205D01*
X13125214Y-16338910D01*
X12885616Y-16416760D01*
X12661151Y-16531132D01*
X12457350Y-16679201D01*
X12457345Y-16679205D01*
X12279205Y-16857345D01*
X12279201Y-16857350D01*
X12131132Y-17061151D01*
X12016760Y-17285616D01*
X11995678Y-17350500D01*
X11938910Y-17525215D01*
X11899500Y-17774038D01*
X11899500Y-18025962D01*
X11937868Y-18268209D01*
X11938910Y-18274785D01*
X12016760Y-18514383D01*
X12095413Y-18668747D01*
X12127535Y-18731790D01*
X12131132Y-18738848D01*
X12279201Y-18942649D01*
X12279205Y-18942654D01*
X12457345Y-19120794D01*
X12457350Y-19120798D01*
X12661150Y-19268867D01*
X12662625Y-19269771D01*
X12663067Y-19270260D01*
X12665096Y-19271734D01*
X12664786Y-19272159D01*
X12709502Y-19321581D01*
X12720926Y-19390510D01*
X12693271Y-19454674D01*
X12635317Y-19493700D01*
X12597838Y-19499500D01*
X624500Y-19499500D01*
X557461Y-19479815D01*
X511706Y-19427011D01*
X500500Y-19375500D01*
X500500Y-14119999D01*
X1595088Y-14119999D01*
X1595089Y-14120000D01*
X2095735Y-14120000D01*
X2079940Y-14135795D01*
X2040444Y-14204204D01*
X2020000Y-14280504D01*
X2020000Y-14359496D01*
X2040444Y-14435796D01*
X2079940Y-14504205D01*
X2095735Y-14520000D01*
X1595088Y-14520000D01*
X1598820Y-14538759D01*
X1598822Y-14538767D01*
X1655357Y-14675254D01*
X1655362Y-14675264D01*
X1737436Y-14798096D01*
X1737439Y-14798100D01*
X1841899Y-14902560D01*
X1841903Y-14902563D01*
X1964735Y-14984637D01*
X1964745Y-14984642D01*
X2101232Y-15041177D01*
X2101240Y-15041179D01*
X2246126Y-15069999D01*
X2246129Y-15070000D01*
X2670000Y-15070000D01*
X2670000Y-14620000D01*
X3070000Y-14620000D01*
X3070000Y-15070000D01*
X3493871Y-15070000D01*
X3493873Y-15069999D01*
X3638759Y-15041179D01*
X3638767Y-15041177D01*
X3775254Y-14984642D01*
X3775264Y-14984637D01*
X3898096Y-14902563D01*
X3898100Y-14902560D01*
X4002560Y-14798100D01*
X4002563Y-14798096D01*
X4084637Y-14675264D01*
X4084642Y-14675254D01*
X4141177Y-14538767D01*
X4141179Y-14538759D01*
X4144911Y-14520000D01*
X3644265Y-14520000D01*
X3660060Y-14504205D01*
X3699556Y-14435796D01*
X3720000Y-14359496D01*
X3720000Y-14280504D01*
X3699556Y-14204204D01*
X3660060Y-14135795D01*
X3644265Y-14120000D01*
X4144911Y-14120000D01*
X4144911Y-14119999D01*
X6025088Y-14119999D01*
X6025089Y-14120000D01*
X6525735Y-14120000D01*
X6509940Y-14135795D01*
X6470444Y-14204204D01*
X6450000Y-14280504D01*
X6450000Y-14359496D01*
X6470444Y-14435796D01*
X6509940Y-14504205D01*
X6525735Y-14520000D01*
X6025088Y-14520000D01*
X6028820Y-14538759D01*
X6028822Y-14538767D01*
X6085357Y-14675254D01*
X6085362Y-14675264D01*
X6167436Y-14798096D01*
X6167439Y-14798100D01*
X6271899Y-14902560D01*
X6271903Y-14902563D01*
X6394735Y-14984637D01*
X6394745Y-14984642D01*
X6531232Y-15041177D01*
X6531240Y-15041179D01*
X6676126Y-15069999D01*
X6676129Y-15070000D01*
X6850000Y-15070000D01*
X6850000Y-14620000D01*
X7250000Y-14620000D01*
X7250000Y-15070000D01*
X7423871Y-15070000D01*
X7423873Y-15069999D01*
X7568759Y-15041179D01*
X7568767Y-15041177D01*
X7705254Y-14984642D01*
X7705264Y-14984637D01*
X7828096Y-14902563D01*
X7828100Y-14902560D01*
X7932560Y-14798100D01*
X7932563Y-14798096D01*
X8014637Y-14675264D01*
X8014642Y-14675254D01*
X8071177Y-14538767D01*
X8071179Y-14538759D01*
X8074911Y-14520000D01*
X7574265Y-14520000D01*
X7590060Y-14504205D01*
X7629556Y-14435796D01*
X7650000Y-14359496D01*
X7650000Y-14280504D01*
X7629556Y-14204204D01*
X7590060Y-14135795D01*
X7574265Y-14120000D01*
X8074911Y-14120000D01*
X8074911Y-14119999D01*
X8071179Y-14101240D01*
X8071177Y-14101232D01*
X8014642Y-13964745D01*
X8014637Y-13964735D01*
X7932563Y-13841903D01*
X7932560Y-13841899D01*
X7828100Y-13737439D01*
X7828096Y-13737436D01*
X7705264Y-13655362D01*
X7705254Y-13655357D01*
X7568767Y-13598822D01*
X7568759Y-13598820D01*
X7423872Y-13570000D01*
X7250000Y-13570000D01*
X7250000Y-14020000D01*
X6850000Y-14020000D01*
X6850000Y-13570000D01*
X6676128Y-13570000D01*
X6531240Y-13598820D01*
X6531232Y-13598822D01*
X6394745Y-13655357D01*
X6394735Y-13655362D01*
X6271903Y-13737436D01*
X6271899Y-13737439D01*
X6167439Y-13841899D01*
X6167436Y-13841903D01*
X6085362Y-13964735D01*
X6085357Y-13964745D01*
X6028822Y-14101232D01*
X6028820Y-14101240D01*
X6025088Y-14119999D01*
X4144911Y-14119999D01*
X4141179Y-14101240D01*
X4141177Y-14101232D01*
X4084642Y-13964745D01*
X4084637Y-13964735D01*
X4002563Y-13841903D01*
X4002560Y-13841899D01*
X3898100Y-13737439D01*
X3898096Y-13737436D01*
X3775264Y-13655362D01*
X3775254Y-13655357D01*
X3687380Y-13618958D01*
X3632976Y-13575116D01*
X3610912Y-13508822D01*
X3628192Y-13441123D01*
X3672832Y-13397010D01*
X3753365Y-13350515D01*
X3860515Y-13243365D01*
X3936281Y-13112135D01*
X3975500Y-12965766D01*
X3975500Y-12814234D01*
X3936281Y-12667865D01*
X3860515Y-12536635D01*
X3753365Y-12429485D01*
X3687750Y-12391602D01*
X3622136Y-12353719D01*
X3548950Y-12334109D01*
X3475766Y-12314500D01*
X3324234Y-12314500D01*
X3177863Y-12353719D01*
X3046635Y-12429485D01*
X3046632Y-12429487D01*
X2939487Y-12536632D01*
X2939485Y-12536635D01*
X2863719Y-12667863D01*
X2824500Y-12814234D01*
X2824500Y-12965765D01*
X2863719Y-13112136D01*
X2901602Y-13177750D01*
X2939485Y-13243365D01*
X3046635Y-13350515D01*
X3060646Y-13358604D01*
X3108861Y-13409170D01*
X3122085Y-13477777D01*
X3096117Y-13542642D01*
X3086328Y-13553671D01*
X3070000Y-13569999D01*
X3070000Y-14020000D01*
X2670000Y-14020000D01*
X2670000Y-13570000D01*
X2246128Y-13570000D01*
X2101240Y-13598820D01*
X2101232Y-13598822D01*
X1964745Y-13655357D01*
X1964735Y-13655362D01*
X1841903Y-13737436D01*
X1841899Y-13737439D01*
X1737439Y-13841899D01*
X1737436Y-13841903D01*
X1655362Y-13964735D01*
X1655357Y-13964745D01*
X1598822Y-14101232D01*
X1598820Y-14101240D01*
X1595088Y-14119999D01*
X500500Y-14119999D01*
X500500Y-5479999D01*
X1595088Y-5479999D01*
X1595089Y-5480000D01*
X2095735Y-5480000D01*
X2079940Y-5495795D01*
X2040444Y-5564204D01*
X2020000Y-5640504D01*
X2020000Y-5719496D01*
X2040444Y-5795796D01*
X2079940Y-5864205D01*
X2095735Y-5880000D01*
X1595088Y-5880000D01*
X1598820Y-5898759D01*
X1598822Y-5898767D01*
X1655357Y-6035254D01*
X1655362Y-6035264D01*
X1737436Y-6158096D01*
X1737439Y-6158100D01*
X1841899Y-6262560D01*
X1841903Y-6262563D01*
X1964735Y-6344637D01*
X1964745Y-6344642D01*
X2101232Y-6401177D01*
X2101240Y-6401179D01*
X2246126Y-6429999D01*
X2246129Y-6430000D01*
X2670000Y-6430000D01*
X2670000Y-5980000D01*
X3070000Y-5980000D01*
X3070000Y-6430000D01*
X3086327Y-6446327D01*
X3119812Y-6507650D01*
X3114828Y-6577342D01*
X3072956Y-6633275D01*
X3060649Y-6641393D01*
X3046641Y-6649481D01*
X3046632Y-6649487D01*
X2939487Y-6756632D01*
X2939485Y-6756635D01*
X2863719Y-6887863D01*
X2824500Y-7034234D01*
X2824500Y-7185765D01*
X2863719Y-7332136D01*
X2881890Y-7363608D01*
X2939485Y-7463365D01*
X3046635Y-7570515D01*
X3177865Y-7646281D01*
X3324234Y-7685500D01*
X3324236Y-7685500D01*
X3475764Y-7685500D01*
X3475766Y-7685500D01*
X3622135Y-7646281D01*
X3753365Y-7570515D01*
X3860515Y-7463365D01*
X3936281Y-7332135D01*
X3975500Y-7185766D01*
X3975500Y-7034234D01*
X3936281Y-6887865D01*
X3860515Y-6756635D01*
X3753365Y-6649485D01*
X3672832Y-6602989D01*
X3624617Y-6552421D01*
X3611395Y-6483814D01*
X3637363Y-6418950D01*
X3687381Y-6381041D01*
X3775251Y-6344644D01*
X3775264Y-6344637D01*
X3898096Y-6262563D01*
X3898100Y-6262560D01*
X4002560Y-6158100D01*
X4002563Y-6158096D01*
X4084637Y-6035264D01*
X4084642Y-6035254D01*
X4141177Y-5898767D01*
X4141179Y-5898759D01*
X4144911Y-5880000D01*
X3644265Y-5880000D01*
X3660060Y-5864205D01*
X3699556Y-5795796D01*
X3720000Y-5719496D01*
X3720000Y-5640504D01*
X3699556Y-5564204D01*
X3660060Y-5495795D01*
X3644265Y-5480000D01*
X4144911Y-5480000D01*
X4144911Y-5479999D01*
X6025088Y-5479999D01*
X6025089Y-5480000D01*
X6525735Y-5480000D01*
X6509940Y-5495795D01*
X6470444Y-5564204D01*
X6450000Y-5640504D01*
X6450000Y-5719496D01*
X6470444Y-5795796D01*
X6509940Y-5864205D01*
X6525735Y-5880000D01*
X6025088Y-5880000D01*
X6028820Y-5898759D01*
X6028822Y-5898767D01*
X6085357Y-6035254D01*
X6085362Y-6035264D01*
X6167436Y-6158096D01*
X6167439Y-6158100D01*
X6271899Y-6262560D01*
X6271903Y-6262563D01*
X6394735Y-6344637D01*
X6394745Y-6344642D01*
X6531232Y-6401177D01*
X6531240Y-6401179D01*
X6676126Y-6429999D01*
X6676129Y-6430000D01*
X6850000Y-6430000D01*
X6850000Y-5980000D01*
X7250000Y-5980000D01*
X7250000Y-6430000D01*
X7423871Y-6430000D01*
X7423873Y-6429999D01*
X7568759Y-6401179D01*
X7568767Y-6401177D01*
X7705254Y-6344642D01*
X7705264Y-6344637D01*
X7828096Y-6262563D01*
X7828100Y-6262560D01*
X7932560Y-6158100D01*
X7932563Y-6158096D01*
X8014637Y-6035264D01*
X8014642Y-6035254D01*
X8071177Y-5898767D01*
X8071179Y-5898759D01*
X8074911Y-5880000D01*
X7574265Y-5880000D01*
X7590060Y-5864205D01*
X7629556Y-5795796D01*
X7650000Y-5719496D01*
X7650000Y-5640504D01*
X7629556Y-5564204D01*
X7590060Y-5495795D01*
X7574265Y-5480000D01*
X8074911Y-5480000D01*
X8074911Y-5479999D01*
X8071179Y-5461240D01*
X8071177Y-5461232D01*
X8014642Y-5324745D01*
X8014637Y-5324735D01*
X7932563Y-5201903D01*
X7932560Y-5201899D01*
X7828100Y-5097439D01*
X7828096Y-5097436D01*
X7705264Y-5015362D01*
X7705254Y-5015357D01*
X7568767Y-4958822D01*
X7568759Y-4958820D01*
X7423872Y-4930000D01*
X7250000Y-4930000D01*
X7250000Y-5380000D01*
X6850000Y-5380000D01*
X6850000Y-4930000D01*
X6676128Y-4930000D01*
X6531240Y-4958820D01*
X6531232Y-4958822D01*
X6394745Y-5015357D01*
X6394735Y-5015362D01*
X6271903Y-5097436D01*
X6271899Y-5097439D01*
X6167439Y-5201899D01*
X6167436Y-5201903D01*
X6085362Y-5324735D01*
X6085357Y-5324745D01*
X6028822Y-5461232D01*
X6028820Y-5461240D01*
X6025088Y-5479999D01*
X4144911Y-5479999D01*
X4141179Y-5461240D01*
X4141177Y-5461232D01*
X4084642Y-5324745D01*
X4084637Y-5324735D01*
X4002563Y-5201903D01*
X4002560Y-5201899D01*
X3898100Y-5097439D01*
X3898096Y-5097436D01*
X3775264Y-5015362D01*
X3775254Y-5015357D01*
X3638767Y-4958822D01*
X3638759Y-4958820D01*
X3493872Y-4930000D01*
X3070000Y-4930000D01*
X3070000Y-5380000D01*
X2670000Y-5380000D01*
X2670000Y-4930000D01*
X2246128Y-4930000D01*
X2101240Y-4958820D01*
X2101232Y-4958822D01*
X1964745Y-5015357D01*
X1964735Y-5015362D01*
X1841903Y-5097436D01*
X1841899Y-5097439D01*
X1737439Y-5201899D01*
X1737436Y-5201903D01*
X1655362Y-5324735D01*
X1655357Y-5324745D01*
X1598822Y-5461232D01*
X1598820Y-5461240D01*
X1595088Y-5479999D01*
X500500Y-5479999D01*
X500500Y-624500D01*
X520185Y-557461D01*
X572989Y-511706D01*
X624500Y-500500D01*
X12597838Y-500500D01*
X12664877Y-520185D01*
G37*
%TD.AperFunction*%
%TD*%
M02*
