%TF.GenerationSoftware,KiCad,Pcbnew,10.0.5*%
%TF.CreationDate,2026-08-20T15:23:36+02:00*%
%TF.ProjectId,fl11,666c3131-2e6b-4696-9361-645f70636258,rev?*%
%TF.SameCoordinates,Original*%
%TF.FileFunction,Other,User*%
%FSLAX46Y46*%
G04 Gerber Fmt 4.6, Leading zero omitted, Abs format (unit mm)*
G04 Created by KiCad (PCBNEW 10.0.5) date 2026-08-20 15:23:36*
%MOMM*%
%LPD*%
G01*
G04 APERTURE LIST*
%ADD10C,0.050000*%
G04 APERTURE END LIST*
%TO.C,R3*%
D10*
X87070000Y-34030000D02*
X88930000Y-34030000D01*
X88930000Y-34970000D01*
X87070000Y-34970000D01*
X87070000Y-34030000D01*
%TO.C,R11*%
X87570000Y-27530000D02*
X89430000Y-27530000D01*
X89430000Y-28470000D01*
X87570000Y-28470000D01*
X87570000Y-27530000D01*
%TO.C,C23*%
X157223300Y-14640000D02*
X159043300Y-14640000D01*
X159043300Y-15560000D01*
X157223300Y-15560000D01*
X157223300Y-14640000D01*
%TO.C,U1*%
X91200000Y-29500000D02*
X104800000Y-29500000D01*
X91200000Y-46500000D02*
X91200000Y-29500000D01*
X104800000Y-29500000D02*
X104800000Y-46500000D01*
X104800000Y-46500000D02*
X91200000Y-46500000D01*
%TO.C,F1*%
X90050000Y-21050000D02*
X95950000Y-21050000D01*
X95950000Y-24950000D01*
X90050000Y-24950000D01*
X90050000Y-21050000D01*
%TO.C,TP6*%
X104500000Y-26500000D02*
G75*
G02*
X102500000Y-26500000I-1000000J0D01*
G01*
X102500000Y-26500000D02*
G75*
G02*
X104500000Y-26500000I1000000J0D01*
G01*
%TO.C,TS5*%
X105000000Y-49200000D02*
G75*
G02*
X103000000Y-49200000I-1000000J0D01*
G01*
X103000000Y-49200000D02*
G75*
G02*
X105000000Y-49200000I1000000J0D01*
G01*
%TO.C,C14*%
X57023300Y-14640000D02*
X58843300Y-14640000D01*
X58843300Y-15560000D01*
X57023300Y-15560000D01*
X57023300Y-14640000D01*
%TO.C,R1*%
X83070000Y-36530000D02*
X84930000Y-36530000D01*
X84930000Y-37470000D01*
X83070000Y-37470000D01*
X83070000Y-36530000D01*
%TO.C,C9*%
X112590000Y-29540000D02*
X114410000Y-29540000D01*
X114410000Y-30460000D01*
X112590000Y-30460000D01*
X112590000Y-29540000D01*
%TO.C,R9*%
X92070000Y-26030000D02*
X93930000Y-26030000D01*
X93930000Y-26970000D01*
X92070000Y-26970000D01*
X92070000Y-26030000D01*
%TO.C,TP7*%
X177000000Y-18600000D02*
G75*
G02*
X175000000Y-18600000I-1000000J0D01*
G01*
X175000000Y-18600000D02*
G75*
G02*
X177000000Y-18600000I1000000J0D01*
G01*
%TO.C,R8*%
X103070000Y-21930000D02*
X104930000Y-21930000D01*
X104930000Y-22870000D01*
X103070000Y-22870000D01*
X103070000Y-21930000D01*
%TO.C,Q1*%
X98070000Y-21500000D02*
X99100000Y-21500000D01*
X98070000Y-22610000D02*
X98070000Y-21500000D01*
X98070000Y-23390000D02*
X99100000Y-23390000D01*
X98070000Y-24500000D02*
X98070000Y-23390000D01*
X99100000Y-21300000D02*
X100900000Y-21300000D01*
X99100000Y-21500000D02*
X99100000Y-21300000D01*
X99100000Y-22610000D02*
X98070000Y-22610000D01*
X99100000Y-23390000D02*
X99100000Y-22610000D01*
X99100000Y-24500000D02*
X98070000Y-24500000D01*
X99100000Y-24700000D02*
X99100000Y-24500000D01*
X100900000Y-21300000D02*
X100900000Y-22450000D01*
X100900000Y-22450000D02*
X101930000Y-22450000D01*
X100900000Y-23550000D02*
X100900000Y-24700000D01*
X100900000Y-24700000D02*
X99100000Y-24700000D01*
X101930000Y-22450000D02*
X101930000Y-23550000D01*
X101930000Y-23550000D02*
X100900000Y-23550000D01*
%TO.C,LD14*%
X151983300Y-7550000D02*
X151983300Y-14450000D01*
X151983300Y-14450000D02*
X157483300Y-14450000D01*
X157483300Y-7550000D02*
X151983300Y-7550000D01*
X157483300Y-14450000D02*
X157483300Y-7550000D01*
%TO.C,H2*%
X72950000Y-33500000D02*
G75*
G02*
X67050000Y-33500000I-2950000J0D01*
G01*
X67050000Y-33500000D02*
G75*
G02*
X72950000Y-33500000I2950000J0D01*
G01*
%TO.C,TP2*%
X78000000Y-33000000D02*
G75*
G02*
X76000000Y-33000000I-1000000J0D01*
G01*
X76000000Y-33000000D02*
G75*
G02*
X78000000Y-33000000I1000000J0D01*
G01*
%TO.C,U4*%
X84450000Y-39500000D02*
X85450000Y-39500000D01*
X84450000Y-42500000D02*
X84450000Y-39500000D01*
X85450000Y-39300000D02*
X87550000Y-39300000D01*
X85450000Y-39500000D02*
X85450000Y-39300000D01*
X85450000Y-42500000D02*
X84450000Y-42500000D01*
X85450000Y-42700000D02*
X85450000Y-42500000D01*
X87550000Y-39300000D02*
X87550000Y-39500000D01*
X87550000Y-39500000D02*
X88550000Y-39500000D01*
X87550000Y-42500000D02*
X87550000Y-42700000D01*
X87550000Y-42700000D02*
X85450000Y-42700000D01*
X88550000Y-39500000D02*
X88550000Y-42500000D01*
X88550000Y-42500000D02*
X87550000Y-42500000D01*
%TO.C,SW1*%
X69250000Y-38300000D02*
X74750000Y-38300000D01*
X69250000Y-41700000D02*
X69250000Y-38300000D01*
X70900000Y-41700000D02*
X69250000Y-41700000D01*
X70900000Y-42350000D02*
X70900000Y-41700000D01*
X73100000Y-41700000D02*
X73100000Y-42350000D01*
X73100000Y-42350000D02*
X70900000Y-42350000D01*
X74750000Y-38300000D02*
X74750000Y-41700000D01*
X74750000Y-41700000D02*
X73100000Y-41700000D01*
%TO.C,TS2*%
X116500000Y-20800000D02*
G75*
G02*
X114500000Y-20800000I-1000000J0D01*
G01*
X114500000Y-20800000D02*
G75*
G02*
X116500000Y-20800000I1000000J0D01*
G01*
%TO.C,TP5*%
X70500000Y-20900000D02*
G75*
G02*
X68500000Y-20900000I-1000000J0D01*
G01*
X68500000Y-20900000D02*
G75*
G02*
X70500000Y-20900000I1000000J0D01*
G01*
%TO.C,C2*%
X112800000Y-22020000D02*
X116200000Y-22020000D01*
X116200000Y-23980000D01*
X112800000Y-23980000D01*
X112800000Y-22020000D01*
%TO.C,C8*%
X94590000Y-26040000D02*
X96410000Y-26040000D01*
X96410000Y-26960000D01*
X94590000Y-26960000D01*
X94590000Y-26040000D01*
%TO.C,TP4*%
X78000000Y-39000000D02*
G75*
G02*
X76000000Y-39000000I-1000000J0D01*
G01*
X76000000Y-39000000D02*
G75*
G02*
X78000000Y-39000000I1000000J0D01*
G01*
%TO.C,C10*%
X12490000Y-14640000D02*
X14310000Y-14640000D01*
X14310000Y-15560000D01*
X12490000Y-15560000D01*
X12490000Y-14640000D01*
%TO.C,R7*%
X100070000Y-26030000D02*
X101930000Y-26030000D01*
X101930000Y-26970000D01*
X100070000Y-26970000D01*
X100070000Y-26030000D01*
%TO.C,TP1*%
X135000000Y-18500000D02*
G75*
G02*
X133000000Y-18500000I-1000000J0D01*
G01*
X133000000Y-18500000D02*
G75*
G02*
X135000000Y-18500000I1000000J0D01*
G01*
%TO.C,C13*%
X45890000Y-14640000D02*
X47710000Y-14640000D01*
X47710000Y-15560000D01*
X45890000Y-15560000D01*
X45890000Y-14640000D01*
%TO.C,TP8*%
X109000000Y-37000000D02*
G75*
G02*
X107000000Y-37000000I-1000000J0D01*
G01*
X107000000Y-37000000D02*
G75*
G02*
X109000000Y-37000000I1000000J0D01*
G01*
%TO.C,R6*%
X112070000Y-32530000D02*
X113930000Y-32530000D01*
X113930000Y-33470000D01*
X112070000Y-33470000D01*
X112070000Y-32530000D01*
%TO.C,C7*%
X105590000Y-21940000D02*
X107410000Y-21940000D01*
X107410000Y-22860000D01*
X105590000Y-22860000D01*
X105590000Y-21940000D01*
%TO.C,LD2*%
X18383300Y-7550000D02*
X18383300Y-14450000D01*
X18383300Y-14450000D02*
X23883300Y-14450000D01*
X23883300Y-7550000D02*
X18383300Y-7550000D01*
X23883300Y-14450000D02*
X23883300Y-7550000D01*
%TO.C,LD3*%
X29516700Y-7550000D02*
X29516700Y-14450000D01*
X29516700Y-14450000D02*
X35016700Y-14450000D01*
X35016700Y-7550000D02*
X29516700Y-7550000D01*
X35016700Y-14450000D02*
X35016700Y-7550000D01*
%TO.C,C21*%
X134956600Y-14640000D02*
X136776600Y-14640000D01*
X136776600Y-15560000D01*
X134956600Y-15560000D01*
X134956600Y-14640000D01*
%TO.C,LD8*%
X85183300Y-7550000D02*
X85183300Y-14450000D01*
X85183300Y-14450000D02*
X90683300Y-14450000D01*
X90683300Y-7550000D02*
X85183300Y-7550000D01*
X90683300Y-14450000D02*
X90683300Y-7550000D01*
%TO.C,TS3*%
X100000000Y-49200000D02*
G75*
G02*
X98000000Y-49200000I-1000000J0D01*
G01*
X98000000Y-49200000D02*
G75*
G02*
X100000000Y-49200000I1000000J0D01*
G01*
%TO.C,C12*%
X34756700Y-14640000D02*
X36576700Y-14640000D01*
X36576700Y-15560000D01*
X34756700Y-15560000D01*
X34756700Y-14640000D01*
%TO.C,LD13*%
X140850000Y-7550000D02*
X140850000Y-14450000D01*
X140850000Y-14450000D02*
X146350000Y-14450000D01*
X146350000Y-7550000D02*
X140850000Y-7550000D01*
X146350000Y-14450000D02*
X146350000Y-7550000D01*
%TO.C,H1*%
X72950000Y-46000000D02*
G75*
G02*
X67050000Y-46000000I-2950000J0D01*
G01*
X67050000Y-46000000D02*
G75*
G02*
X72950000Y-46000000I2950000J0D01*
G01*
%TO.C,R4*%
X107070000Y-32530000D02*
X108930000Y-32530000D01*
X108930000Y-33470000D01*
X107070000Y-33470000D01*
X107070000Y-32530000D01*
%TO.C,TP3*%
X78000000Y-36000000D02*
G75*
G02*
X76000000Y-36000000I-1000000J0D01*
G01*
X76000000Y-36000000D02*
G75*
G02*
X78000000Y-36000000I1000000J0D01*
G01*
%TO.C,C17*%
X90423300Y-14640000D02*
X92243300Y-14640000D01*
X92243300Y-15560000D01*
X90423300Y-15560000D01*
X90423300Y-14640000D01*
%TO.C,C1*%
X72750000Y-23000000D02*
X72750000Y-26000000D01*
X72750000Y-26000000D02*
X73600000Y-26000000D01*
X73600000Y-21250000D02*
X73600000Y-23000000D01*
X73600000Y-21250000D02*
X74750000Y-20100000D01*
X73600000Y-23000000D02*
X72750000Y-23000000D01*
X73600000Y-26000000D02*
X73600000Y-27750000D01*
X73600000Y-27750000D02*
X74750000Y-28900000D01*
X74750000Y-20100000D02*
X82400000Y-20100000D01*
X74750000Y-28900000D02*
X82400000Y-28900000D01*
X82400000Y-20100000D02*
X82400000Y-23000000D01*
X82400000Y-23000000D02*
X83250000Y-23000000D01*
X82400000Y-26000000D02*
X82400000Y-28900000D01*
X83250000Y-23000000D02*
X83250000Y-26000000D01*
X83250000Y-26000000D02*
X82400000Y-26000000D01*
%TO.C,TS4*%
X102500000Y-49200000D02*
G75*
G02*
X100500000Y-49200000I-1000000J0D01*
G01*
X100500000Y-49200000D02*
G75*
G02*
X102500000Y-49200000I1000000J0D01*
G01*
%TO.C,LD9*%
X96316600Y-7550000D02*
X96316600Y-14450000D01*
X96316600Y-14450000D02*
X101816600Y-14450000D01*
X101816600Y-7550000D02*
X96316600Y-7550000D01*
X101816600Y-14450000D02*
X101816600Y-7550000D01*
%TO.C,LD10*%
X107450000Y-7550000D02*
X107450000Y-14450000D01*
X107450000Y-14450000D02*
X112950000Y-14450000D01*
X112950000Y-7550000D02*
X107450000Y-7550000D01*
X112950000Y-14450000D02*
X112950000Y-7550000D01*
%TO.C,LD7*%
X74050000Y-7550000D02*
X74050000Y-14450000D01*
X74050000Y-14450000D02*
X79550000Y-14450000D01*
X79550000Y-7550000D02*
X74050000Y-7550000D01*
X79550000Y-14450000D02*
X79550000Y-7550000D01*
%TO.C,C3*%
X112800000Y-25520000D02*
X116200000Y-25520000D01*
X116200000Y-27480000D01*
X112800000Y-27480000D01*
X112800000Y-25520000D01*
%TO.C,R2*%
X85570000Y-36530000D02*
X87430000Y-36530000D01*
X87430000Y-37470000D01*
X85570000Y-37470000D01*
X85570000Y-36530000D01*
%TO.C,U2*%
X85950000Y-30000000D02*
X86950000Y-30000000D01*
X85950000Y-33000000D02*
X85950000Y-30000000D01*
X86950000Y-29800000D02*
X89050000Y-29800000D01*
X86950000Y-30000000D02*
X86950000Y-29800000D01*
X86950000Y-33000000D02*
X85950000Y-33000000D01*
X86950000Y-33200000D02*
X86950000Y-33000000D01*
X89050000Y-29800000D02*
X89050000Y-30000000D01*
X89050000Y-30000000D02*
X90050000Y-30000000D01*
X89050000Y-31110000D02*
X89050000Y-31890000D01*
X89050000Y-31890000D02*
X90050000Y-31890000D01*
X89050000Y-33000000D02*
X89050000Y-33200000D01*
X89050000Y-33200000D02*
X86950000Y-33200000D01*
X90050000Y-30000000D02*
X90050000Y-31110000D01*
X90050000Y-31110000D02*
X89050000Y-31110000D01*
X90050000Y-31890000D02*
X90050000Y-33000000D01*
X90050000Y-33000000D02*
X89050000Y-33000000D01*
%TO.C,R10*%
X97570000Y-26030000D02*
X99430000Y-26030000D01*
X99430000Y-26970000D01*
X97570000Y-26970000D01*
X97570000Y-26030000D01*
%TO.C,C18*%
X101556600Y-14640000D02*
X103376600Y-14640000D01*
X103376600Y-15560000D01*
X101556600Y-15560000D01*
X101556600Y-14640000D01*
%TO.C,C4*%
X108300000Y-29020000D02*
X111700000Y-29020000D01*
X111700000Y-30980000D01*
X108300000Y-30980000D01*
X108300000Y-29020000D01*
%TO.C,LD5*%
X51783300Y-7550000D02*
X51783300Y-14450000D01*
X51783300Y-14450000D02*
X57283300Y-14450000D01*
X57283300Y-7550000D02*
X51783300Y-7550000D01*
X57283300Y-14450000D02*
X57283300Y-7550000D01*
%TO.C,J1*%
X76680000Y-43730000D02*
X76680000Y-53150000D01*
X76680000Y-43730000D02*
X87320000Y-43730000D01*
X76680000Y-53150000D02*
X87320000Y-53150000D01*
X87320000Y-43730000D02*
X87320000Y-53150000D01*
%TO.C,C6*%
X83590000Y-31040000D02*
X85410000Y-31040000D01*
X85410000Y-31960000D01*
X83590000Y-31960000D01*
X83590000Y-31040000D01*
%TO.C,J2*%
X117900000Y-27190000D02*
X118050000Y-27190000D01*
X117900000Y-31600000D02*
X117900000Y-27190000D01*
X118050000Y-22800000D02*
X120500000Y-22800000D01*
X118050000Y-27190000D02*
X118050000Y-22800000D01*
X120400000Y-31400000D02*
X120400000Y-31600000D01*
X120400000Y-31600000D02*
X117900000Y-31600000D01*
X120500000Y-21400000D02*
X124500000Y-21400000D01*
X120500000Y-22800000D02*
X120500000Y-21400000D01*
X124500000Y-21400000D02*
X124500000Y-22800000D01*
X124500000Y-22800000D02*
X126950000Y-22800000D01*
X124600000Y-31400000D02*
X120400000Y-31400000D01*
X124600000Y-31600000D02*
X124600000Y-31400000D01*
X126950000Y-22800000D02*
X126950000Y-27190000D01*
X126950000Y-27190000D02*
X127100000Y-27190000D01*
X127100000Y-27190000D02*
X127100000Y-31600000D01*
X127100000Y-31600000D02*
X124600000Y-31600000D01*
%TO.C,C22*%
X146090000Y-14640000D02*
X147910000Y-14640000D01*
X147910000Y-15560000D01*
X146090000Y-15560000D01*
X146090000Y-14640000D01*
%TO.C,LD12*%
X129716600Y-7550000D02*
X129716600Y-14450000D01*
X129716600Y-14450000D02*
X135216600Y-14450000D01*
X135216600Y-7550000D02*
X129716600Y-7550000D01*
X135216600Y-14450000D02*
X135216600Y-7550000D01*
%TO.C,TS1*%
X119000000Y-20800000D02*
G75*
G02*
X117000000Y-20800000I-1000000J0D01*
G01*
X117000000Y-20800000D02*
G75*
G02*
X119000000Y-20800000I1000000J0D01*
G01*
%TO.C,C20*%
X123823300Y-14640000D02*
X125643300Y-14640000D01*
X125643300Y-15560000D01*
X123823300Y-15560000D01*
X123823300Y-14640000D01*
%TO.C,LD1*%
X7250000Y-7550000D02*
X7250000Y-14450000D01*
X7250000Y-14450000D02*
X12750000Y-14450000D01*
X12750000Y-7550000D02*
X7250000Y-7550000D01*
X12750000Y-14450000D02*
X12750000Y-7550000D01*
%TO.C,TP11*%
X89000000Y-20900000D02*
G75*
G02*
X87000000Y-20900000I-1000000J0D01*
G01*
X87000000Y-20900000D02*
G75*
G02*
X89000000Y-20900000I1000000J0D01*
G01*
%TO.C,C19*%
X112690000Y-14640000D02*
X114510000Y-14640000D01*
X114510000Y-15560000D01*
X112690000Y-15560000D01*
X112690000Y-14640000D01*
%TO.C,LD4*%
X40650000Y-7550000D02*
X40650000Y-14450000D01*
X40650000Y-14450000D02*
X46150000Y-14450000D01*
X46150000Y-7550000D02*
X40650000Y-7550000D01*
X46150000Y-14450000D02*
X46150000Y-7550000D01*
%TO.C,C24*%
X168356600Y-14640000D02*
X170176600Y-14640000D01*
X170176600Y-15560000D01*
X168356600Y-15560000D01*
X168356600Y-14640000D01*
%TO.C,TP9*%
X112000000Y-37000000D02*
G75*
G02*
X110000000Y-37000000I-1000000J0D01*
G01*
X110000000Y-37000000D02*
G75*
G02*
X112000000Y-37000000I1000000J0D01*
G01*
%TO.C,C11*%
X23623300Y-14640000D02*
X25443300Y-14640000D01*
X25443300Y-15560000D01*
X23623300Y-15560000D01*
X23623300Y-14640000D01*
%TO.C,U3*%
X108450000Y-21500000D02*
X109450000Y-21500000D01*
X108450000Y-24500000D02*
X108450000Y-21500000D01*
X109450000Y-21300000D02*
X111550000Y-21300000D01*
X109450000Y-21500000D02*
X109450000Y-21300000D01*
X109450000Y-24500000D02*
X108450000Y-24500000D01*
X109450000Y-24700000D02*
X109450000Y-24500000D01*
X111550000Y-21300000D02*
X111550000Y-21500000D01*
X111550000Y-21500000D02*
X112550000Y-21500000D01*
X111550000Y-22610000D02*
X111550000Y-23390000D01*
X111550000Y-23390000D02*
X112550000Y-23390000D01*
X111550000Y-24500000D02*
X111550000Y-24700000D01*
X111550000Y-24700000D02*
X109450000Y-24700000D01*
X112550000Y-21500000D02*
X112550000Y-22610000D01*
X112550000Y-22610000D02*
X111550000Y-22610000D01*
X112550000Y-23390000D02*
X112550000Y-24500000D01*
X112550000Y-24500000D02*
X111550000Y-24500000D01*
%TO.C,J4*%
X105400000Y-45690000D02*
X105550000Y-45690000D01*
X105400000Y-50100000D02*
X105400000Y-45690000D01*
X105550000Y-41300000D02*
X108000000Y-41300000D01*
X105550000Y-45690000D02*
X105550000Y-41300000D01*
X107910000Y-49900000D02*
X107910000Y-50100000D01*
X107910000Y-50100000D02*
X105400000Y-50100000D01*
X108000000Y-39900000D02*
X114000000Y-39900000D01*
X108000000Y-41300000D02*
X108000000Y-39900000D01*
X114000000Y-39900000D02*
X114000000Y-41300000D01*
X114000000Y-41300000D02*
X116450000Y-41300000D01*
X114090000Y-49900000D02*
X107910000Y-49900000D01*
X114090000Y-50100000D02*
X114090000Y-49900000D01*
X116450000Y-41300000D02*
X116450000Y-45690000D01*
X116450000Y-45690000D02*
X116600000Y-45690000D01*
X116600000Y-45690000D02*
X116600000Y-50100000D01*
X116600000Y-50100000D02*
X114090000Y-50100000D01*
%TO.C,R5*%
X109570000Y-32530000D02*
X111430000Y-32530000D01*
X111430000Y-33470000D01*
X109570000Y-33470000D01*
X109570000Y-32530000D01*
%TO.C,TP10*%
X101000000Y-18500000D02*
G75*
G02*
X99000000Y-18500000I-1000000J0D01*
G01*
X99000000Y-18500000D02*
G75*
G02*
X101000000Y-18500000I1000000J0D01*
G01*
%TO.C,LD6*%
X62916700Y-7550000D02*
X62916700Y-14450000D01*
X62916700Y-14450000D02*
X68416700Y-14450000D01*
X68416700Y-7550000D02*
X62916700Y-7550000D01*
X68416700Y-14450000D02*
X68416700Y-7550000D01*
%TO.C,LD11*%
X118583300Y-7550000D02*
X118583300Y-14450000D01*
X118583300Y-14450000D02*
X124083300Y-14450000D01*
X124083300Y-7550000D02*
X118583300Y-7550000D01*
X124083300Y-14450000D02*
X124083300Y-7550000D01*
%TO.C,C5*%
X81800000Y-33520000D02*
X85200000Y-33520000D01*
X85200000Y-35480000D01*
X81800000Y-35480000D01*
X81800000Y-33520000D01*
%TO.C,LD15*%
X163116600Y-7550000D02*
X163116600Y-14450000D01*
X163116600Y-14450000D02*
X168616600Y-14450000D01*
X168616600Y-7550000D02*
X163116600Y-7550000D01*
X168616600Y-14450000D02*
X168616600Y-7550000D01*
%TO.C,C16*%
X79290000Y-14640000D02*
X81110000Y-14640000D01*
X81110000Y-15560000D01*
X79290000Y-15560000D01*
X79290000Y-14640000D01*
%TO.C,C15*%
X68156700Y-14640000D02*
X69976700Y-14640000D01*
X69976700Y-15560000D01*
X68156700Y-15560000D01*
X68156700Y-14640000D01*
%TD*%
M02*
