%TF.GenerationSoftware,KiCad,Pcbnew,10.0.5*%
%TF.CreationDate,2026-08-20T15:23:36+02:00*%
%TF.ProjectId,fl11,666c3131-2e6b-4696-9361-645f70636258,rev?*%
%TF.SameCoordinates,Original*%
%TF.FileFunction,Copper,L2,Bot*%
%TF.FilePolarity,Positive*%
%FSLAX46Y46*%
G04 Gerber Fmt 4.6, Leading zero omitted, Abs format (unit mm)*
G04 Created by KiCad (PCBNEW 10.0.5) date 2026-08-20 15:23:36*
%MOMM*%
%LPD*%
G01*
G04 APERTURE LIST*
%TA.AperFunction,ComponentPad*%
%ADD10O,1.000000X2.100000*%
%TD*%
%TA.AperFunction,ComponentPad*%
%ADD11O,1.000000X1.600000*%
%TD*%
%TA.AperFunction,SMDPad,CuDef*%
%ADD12C,1.000000*%
%TD*%
%TA.AperFunction,ViaPad*%
%ADD13C,0.600000*%
%TD*%
%TA.AperFunction,Conductor*%
%ADD14C,0.200000*%
%TD*%
%TA.AperFunction,Conductor*%
%ADD15C,0.300000*%
%TD*%
G04 APERTURE END LIST*
D10*
%TO.P,J1,SH*%
%TO.N,GND*%
X77680000Y-45870000D03*
D11*
X77680000Y-50050000D03*
D10*
X86320000Y-45870000D03*
D11*
X86320000Y-50050000D03*
%TD*%
D12*
%TO.P,J3_2,1*%
%TO.N,GND*%
X131500000Y-32000000D03*
%TD*%
%TO.P,J3_1,1*%
%TO.N,TOUCH_SENSE*%
X134500000Y-44000000D03*
%TD*%
D13*
%TO.N,LED_DATA_3V3*%
X88195500Y-31794500D03*
X94228200Y-32382100D03*
%TO.N,GND*%
X166000000Y-6000000D03*
X71000000Y-6000000D03*
X111000000Y-6000000D03*
X91000000Y-2000000D03*
X16000000Y-6000000D03*
X171000000Y-6000000D03*
X87762500Y-33350000D03*
X56000000Y-6000000D03*
X106000000Y-4000000D03*
X102947000Y-15100000D03*
X78000000Y-24000000D03*
X118000000Y-46500000D03*
X82000000Y-27000000D03*
X136000000Y-4000000D03*
X176000000Y-4000000D03*
X171000000Y-4000000D03*
X51000000Y-2000000D03*
X161000000Y-6000000D03*
X166000000Y-2000000D03*
X21000000Y-6000000D03*
X114000000Y-21000000D03*
X31000000Y-4000000D03*
X166000000Y-4000000D03*
X74000000Y-21000000D03*
X121000000Y-2000000D03*
X141000000Y-2000000D03*
X78000000Y-35000000D03*
X147480000Y-15100000D03*
X26000000Y-2000000D03*
X74000000Y-35000000D03*
X82000000Y-24000000D03*
X26000000Y-4000000D03*
X115450000Y-23000000D03*
X81000000Y-2000000D03*
X31000000Y-6000000D03*
X114000000Y-35000000D03*
X126000000Y-2000000D03*
X96000000Y-6000000D03*
X131000000Y-4000000D03*
X126000000Y-6000000D03*
X86262500Y-41000000D03*
X81250000Y-24500000D03*
X113980000Y-28500000D03*
X86000000Y-24000000D03*
X66000000Y-6000000D03*
X111000000Y-4000000D03*
X94000000Y-39000000D03*
X91000000Y-6000000D03*
X106000000Y-2000000D03*
X61000000Y-4000000D03*
X76000000Y-6000000D03*
X51000000Y-6000000D03*
X47280000Y-15100000D03*
X77000000Y-39900000D03*
X78000000Y-43000000D03*
X58413300Y-15100000D03*
X136347000Y-15100000D03*
X116000000Y-2000000D03*
X151000000Y-4000000D03*
X91813300Y-15100000D03*
X76000000Y-2000000D03*
X121000000Y-6000000D03*
X25013300Y-15100000D03*
X46000000Y-2000000D03*
X106000000Y-6000000D03*
X161000000Y-4000000D03*
X146000000Y-4000000D03*
X56000000Y-2000000D03*
X114000000Y-39000000D03*
X61000000Y-6000000D03*
X131500000Y-32000000D03*
X36000000Y-2000000D03*
X115450000Y-26500000D03*
X86000000Y-6000000D03*
X56000000Y-4000000D03*
X133000000Y-48600000D03*
X71000000Y-2000000D03*
X6000000Y-2000000D03*
X133000000Y-32000000D03*
X158613000Y-15100000D03*
X41000000Y-2000000D03*
X156000000Y-6000000D03*
X118000000Y-43000000D03*
X176000000Y-2000000D03*
X125213000Y-15100000D03*
X16000000Y-2000000D03*
X151000000Y-6000000D03*
X101000000Y-6000000D03*
X181000000Y-4000000D03*
X116000000Y-6000000D03*
X141000000Y-4000000D03*
X87010000Y-36100000D03*
X46000000Y-6000000D03*
X70200000Y-40720000D03*
X171000000Y-2000000D03*
X76000000Y-4000000D03*
X51000000Y-4000000D03*
X121000000Y-4000000D03*
X156000000Y-4000000D03*
X181000000Y-2000000D03*
X21000000Y-4000000D03*
X11000000Y-4000000D03*
X95000000Y-39000000D03*
X110000000Y-46500000D03*
X96000000Y-4000000D03*
X136000000Y-2000000D03*
X91000000Y-4000000D03*
X126000000Y-4000000D03*
X84510000Y-37000000D03*
X36000000Y-4000000D03*
X78000000Y-31000000D03*
X74000000Y-31000000D03*
X66000000Y-4000000D03*
X96000000Y-2000000D03*
X169747000Y-15100000D03*
X90000000Y-46500000D03*
X82000000Y-21000000D03*
X151000000Y-2000000D03*
X16000000Y-4000000D03*
X26000000Y-6000000D03*
X74000000Y-27000000D03*
X86000000Y-4000000D03*
X78000000Y-21000000D03*
X131000000Y-2000000D03*
X31000000Y-2000000D03*
X86000000Y-35000000D03*
X176000000Y-6000000D03*
X114080000Y-15100000D03*
X101000000Y-2000000D03*
X11000000Y-2000000D03*
X61000000Y-2000000D03*
X69546600Y-15100000D03*
X86000000Y-27000000D03*
X81000000Y-4000000D03*
X110950000Y-30000000D03*
X131000000Y-6000000D03*
X46000000Y-4000000D03*
X146000000Y-6000000D03*
X86000000Y-2000000D03*
X101000000Y-4000000D03*
X36000000Y-6000000D03*
X156000000Y-2000000D03*
X181000000Y-6000000D03*
X66000000Y-2000000D03*
X6000000Y-6000000D03*
X95980000Y-26500000D03*
X41000000Y-6000000D03*
X71000000Y-4000000D03*
X13880000Y-15100000D03*
X81000000Y-6000000D03*
X111000000Y-2000000D03*
X141000000Y-6000000D03*
X21000000Y-2000000D03*
X161000000Y-2000000D03*
X136000000Y-6000000D03*
X77000000Y-36000000D03*
X110000000Y-43000000D03*
X11000000Y-6000000D03*
X41000000Y-4000000D03*
X88510000Y-34500000D03*
X36146700Y-15100000D03*
X110262500Y-23000000D03*
X74000000Y-43000000D03*
X116000000Y-4000000D03*
X74000000Y-46500000D03*
X146000000Y-2000000D03*
X6000000Y-4000000D03*
X80680000Y-15100000D03*
X149960800Y-7150000D03*
X99010000Y-25600000D03*
%TO.N,+3V3*%
X81116900Y-32814200D03*
X89800400Y-26617200D03*
%TO.N,TOUCH_GPIO*%
X102068800Y-27932700D03*
X102324800Y-33246800D03*
%TO.N,EN*%
X96473800Y-18750000D03*
X105637000Y-30849100D03*
%TO.N,BOOT_N*%
X73443800Y-38127000D03*
X93579400Y-33136100D03*
X96450000Y-31350000D03*
X109099400Y-34281600D03*
%TO.N,UART_RX*%
X108622500Y-35550000D03*
X93673800Y-34962900D03*
%TO.N,UART_TX*%
X105637000Y-39187500D03*
X94539900Y-35037800D03*
%TO.N,VBUS_RAW*%
X93245300Y-21651600D03*
X83658500Y-46687500D03*
X90297400Y-41037500D03*
%TO.N,VBUS_F*%
X84587800Y-21650000D03*
X103264800Y-21050200D03*
%TO.N,TOUCH_SENSE*%
X108596100Y-50568300D03*
X117274300Y-41950000D03*
X111331300Y-27366200D03*
X134500000Y-44000000D03*
%TO.N,+5V*%
X102339400Y-24650300D03*
X105787000Y-41950000D03*
X102365500Y-47500000D03*
%TO.N,USB_DM_CONN*%
X82455100Y-41038000D03*
X80792200Y-42756200D03*
%TO.N,CC2*%
X83941200Y-39704400D03*
X85409900Y-42875300D03*
%TD*%
%TO.N,LED_DATA_3V3*%
D14*
X93640600Y-31794500D02*
X94228200Y-32382100D01*
X88195500Y-31794500D02*
X93640600Y-31794500D01*
%TO.N,GND*%
D15*
X133000000Y-32000000D02*
X133000000Y-48600000D01*
%TO.N,+3V3*%
D14*
X83603400Y-32814200D02*
X89800400Y-26617200D01*
X81116900Y-32814200D02*
X83603400Y-32814200D01*
%TO.N,TOUCH_GPIO*%
X102068800Y-32990800D02*
X102324800Y-33246800D01*
X102068800Y-27932700D02*
X102068800Y-32990800D01*
%TO.N,EN*%
X105637000Y-30849100D02*
X105637000Y-22562900D01*
X105637000Y-22562900D02*
X101824100Y-18750000D01*
X101824100Y-18750000D02*
X96473800Y-18750000D01*
%TO.N,BOOT_N*%
X91931500Y-33136200D02*
X93579400Y-33136200D01*
X96450000Y-31350000D02*
X98948500Y-33848500D01*
X73443800Y-38127000D02*
X86940700Y-38127000D01*
X98948500Y-33848500D02*
X108666300Y-33848500D01*
X86940700Y-38127000D02*
X91931500Y-33136200D01*
X108666300Y-33848500D02*
X109099400Y-34281600D01*
X93579400Y-33136200D02*
X93579400Y-33136100D01*
%TO.N,UART_RX*%
X93673800Y-34962900D02*
X94238700Y-34398000D01*
X94238700Y-34398000D02*
X107470500Y-34398000D01*
X107470500Y-34398000D02*
X108622500Y-35550000D01*
%TO.N,UART_TX*%
X98689600Y-39187500D02*
X94539900Y-35037800D01*
X105637000Y-39187500D02*
X98689600Y-39187500D01*
%TO.N,VBUS_RAW*%
X90297400Y-37369800D02*
X94832900Y-32834300D01*
X89000700Y-41037500D02*
X90297400Y-41037500D01*
X83658500Y-46687500D02*
X83658500Y-46379700D01*
X90297400Y-41037500D02*
X90297400Y-37369800D01*
X83658500Y-46379700D02*
X89000700Y-41037500D01*
X94832900Y-23239200D02*
X93245300Y-21651600D01*
X94832900Y-32834300D02*
X94832900Y-23239200D01*
%TO.N,VBUS_F*%
X103194100Y-20979500D02*
X103264800Y-21050200D01*
X85258300Y-20979500D02*
X103194100Y-20979500D01*
X84587800Y-21650000D02*
X85258300Y-20979500D01*
%TO.N,TOUCH_SENSE*%
X117274300Y-41950000D02*
X117214400Y-41950000D01*
X117274300Y-41950000D02*
X117274300Y-33309200D01*
X117214400Y-41950000D02*
X108596100Y-50568300D01*
X117274300Y-33309200D02*
X111331300Y-27366200D01*
%TO.N,+5V*%
X105491600Y-31556800D02*
X103332700Y-29397900D01*
X105787000Y-45575400D02*
X105787000Y-41950000D01*
X109706400Y-38030600D02*
X109706400Y-34035900D01*
X102365500Y-47500000D02*
X103862400Y-47500000D01*
X103332700Y-29397900D02*
X103332700Y-25643600D01*
X107227300Y-31556800D02*
X105491600Y-31556800D01*
X103332700Y-25643600D02*
X102339400Y-24650300D01*
X105787000Y-41950000D02*
X109706400Y-38030600D01*
X103862400Y-47500000D02*
X105787000Y-45575400D01*
X109706400Y-34035900D02*
X107227300Y-31556800D01*
%TO.N,USB_DM_CONN*%
X80792200Y-42756200D02*
X80792200Y-42700900D01*
X80792200Y-42700900D02*
X82455100Y-41038000D01*
%TO.N,CC2*%
X83941200Y-41406600D02*
X83941200Y-39704400D01*
X85409900Y-42875300D02*
X83941200Y-41406600D01*
%TD*%
%TA.AperFunction,Conductor*%
%TO.N,GND*%
G36*
X103904197Y-21327019D02*
G01*
X103915228Y-21336810D01*
X105250181Y-22671763D01*
X105283666Y-22733086D01*
X105286500Y-22759444D01*
X105286500Y-30369714D01*
X105266815Y-30436753D01*
X105250181Y-30457395D01*
X105196493Y-30511082D01*
X105196486Y-30511091D01*
X105183978Y-30532755D01*
X105133409Y-30580968D01*
X105064801Y-30594188D01*
X104999938Y-30568217D01*
X104988913Y-30558431D01*
X103719519Y-29289037D01*
X103686034Y-29227714D01*
X103683200Y-29201356D01*
X103683200Y-25597458D01*
X103683200Y-25597456D01*
X103659314Y-25508312D01*
X103659311Y-25508306D01*
X103613173Y-25428394D01*
X103613170Y-25428391D01*
X103613169Y-25428388D01*
X103547912Y-25363131D01*
X102926219Y-24741437D01*
X102892734Y-24680114D01*
X102889900Y-24653756D01*
X102889900Y-24577827D01*
X102889900Y-24577825D01*
X102852384Y-24437815D01*
X102779909Y-24312285D01*
X102677415Y-24209791D01*
X102677413Y-24209790D01*
X102677411Y-24209788D01*
X102551888Y-24137317D01*
X102551889Y-24137317D01*
X102540406Y-24134240D01*
X102411875Y-24099800D01*
X102266925Y-24099800D01*
X102138393Y-24134240D01*
X102126911Y-24137317D01*
X102001388Y-24209788D01*
X102001382Y-24209793D01*
X101898893Y-24312282D01*
X101898888Y-24312288D01*
X101826417Y-24437811D01*
X101826416Y-24437815D01*
X101788900Y-24577825D01*
X101788900Y-24722775D01*
X101793901Y-24741437D01*
X101826417Y-24862788D01*
X101898888Y-24988311D01*
X101898890Y-24988313D01*
X101898891Y-24988315D01*
X102001385Y-25090809D01*
X102001386Y-25090810D01*
X102001388Y-25090811D01*
X102126911Y-25163282D01*
X102126912Y-25163282D01*
X102126915Y-25163284D01*
X102266925Y-25200800D01*
X102342856Y-25200800D01*
X102409895Y-25220485D01*
X102430537Y-25237119D01*
X102945881Y-25752462D01*
X102979366Y-25813785D01*
X102982200Y-25840143D01*
X102982200Y-29444043D01*
X103006086Y-29533187D01*
X103006087Y-29533190D01*
X103052227Y-29613108D01*
X103052229Y-29613111D01*
X103052230Y-29613112D01*
X105276388Y-31837270D01*
X105356312Y-31883414D01*
X105445456Y-31907300D01*
X105445457Y-31907300D01*
X105537744Y-31907300D01*
X107030756Y-31907300D01*
X107097795Y-31926985D01*
X107118437Y-31943619D01*
X108461137Y-33286319D01*
X108494622Y-33347642D01*
X108489638Y-33417334D01*
X108447766Y-33473267D01*
X108382302Y-33497684D01*
X108373456Y-33498000D01*
X102989010Y-33498000D01*
X102921971Y-33478315D01*
X102876216Y-33425511D01*
X102866272Y-33356353D01*
X102869236Y-33341905D01*
X102875300Y-33319275D01*
X102875300Y-33174325D01*
X102837784Y-33034315D01*
X102765309Y-32908785D01*
X102662815Y-32806291D01*
X102662813Y-32806290D01*
X102662811Y-32806288D01*
X102537288Y-32733817D01*
X102537281Y-32733814D01*
X102511205Y-32726827D01*
X102451545Y-32690462D01*
X102421017Y-32627614D01*
X102419300Y-32607053D01*
X102419300Y-28412086D01*
X102438985Y-28345047D01*
X102455619Y-28324405D01*
X102509309Y-28270715D01*
X102581784Y-28145185D01*
X102619300Y-28005175D01*
X102619300Y-27860225D01*
X102581784Y-27720215D01*
X102572546Y-27704215D01*
X102509311Y-27594688D01*
X102509306Y-27594682D01*
X102406817Y-27492193D01*
X102406811Y-27492188D01*
X102281288Y-27419717D01*
X102281289Y-27419717D01*
X102269806Y-27416640D01*
X102141275Y-27382200D01*
X101996325Y-27382200D01*
X101867793Y-27416640D01*
X101856311Y-27419717D01*
X101730788Y-27492188D01*
X101730782Y-27492193D01*
X101628293Y-27594682D01*
X101628288Y-27594688D01*
X101555817Y-27720211D01*
X101555816Y-27720215D01*
X101518300Y-27860225D01*
X101518300Y-28005175D01*
X101555816Y-28145185D01*
X101555817Y-28145188D01*
X101628288Y-28270711D01*
X101628293Y-28270717D01*
X101681981Y-28324405D01*
X101715466Y-28385728D01*
X101718300Y-28412086D01*
X101718300Y-33036945D01*
X101739152Y-33114767D01*
X101742185Y-33126086D01*
X101742186Y-33126089D01*
X101750687Y-33140813D01*
X101757270Y-33152215D01*
X101757686Y-33152934D01*
X101774300Y-33214936D01*
X101774300Y-33319276D01*
X101780364Y-33341905D01*
X101778702Y-33411755D01*
X101739541Y-33469618D01*
X101675313Y-33497123D01*
X101660590Y-33498000D01*
X99145044Y-33498000D01*
X99078005Y-33478315D01*
X99057363Y-33461681D01*
X97036819Y-31441137D01*
X97003334Y-31379814D01*
X97000500Y-31353456D01*
X97000500Y-31277527D01*
X97000500Y-31277525D01*
X96962984Y-31137515D01*
X96960845Y-31133811D01*
X96890511Y-31011988D01*
X96890506Y-31011982D01*
X96788017Y-30909493D01*
X96788011Y-30909488D01*
X96662488Y-30837017D01*
X96662489Y-30837017D01*
X96651006Y-30833940D01*
X96522475Y-30799500D01*
X96377525Y-30799500D01*
X96248993Y-30833940D01*
X96237511Y-30837017D01*
X96111988Y-30909488D01*
X96111982Y-30909493D01*
X96009493Y-31011982D01*
X96009488Y-31011988D01*
X95937017Y-31137511D01*
X95937016Y-31137515D01*
X95899500Y-31277525D01*
X95899500Y-31422475D01*
X95924033Y-31514031D01*
X95937017Y-31562488D01*
X96009488Y-31688011D01*
X96009490Y-31688013D01*
X96009491Y-31688015D01*
X96111985Y-31790509D01*
X96111986Y-31790510D01*
X96111988Y-31790511D01*
X96237511Y-31862982D01*
X96237512Y-31862982D01*
X96237515Y-31862984D01*
X96377525Y-31900500D01*
X96453456Y-31900500D01*
X96520495Y-31920185D01*
X96541137Y-31936819D01*
X98440137Y-33835819D01*
X98473622Y-33897142D01*
X98468638Y-33966834D01*
X98426766Y-34022767D01*
X98361302Y-34047184D01*
X98352456Y-34047500D01*
X94414743Y-34047500D01*
X94347704Y-34027815D01*
X94301949Y-33975011D01*
X94292005Y-33905853D01*
X94321030Y-33842297D01*
X94327062Y-33835819D01*
X94586275Y-33576606D01*
X95113370Y-33049512D01*
X95159514Y-32969588D01*
X95162656Y-32957859D01*
X95169426Y-32932599D01*
X95181731Y-32886672D01*
X95183400Y-32880444D01*
X95183400Y-23193056D01*
X95159514Y-23103912D01*
X95113369Y-23023987D01*
X93832119Y-21742737D01*
X93798634Y-21681414D01*
X93795800Y-21655056D01*
X93795800Y-21579127D01*
X93795800Y-21579125D01*
X93770872Y-21486093D01*
X93772535Y-21416243D01*
X93811698Y-21358381D01*
X93875926Y-21330877D01*
X93890647Y-21330000D01*
X102719089Y-21330000D01*
X102786128Y-21349685D01*
X102817828Y-21382928D01*
X102819343Y-21381766D01*
X102824289Y-21388212D01*
X102824291Y-21388215D01*
X102926785Y-21490709D01*
X102926786Y-21490710D01*
X102926788Y-21490711D01*
X103052311Y-21563182D01*
X103052312Y-21563182D01*
X103052315Y-21563184D01*
X103192325Y-21600700D01*
X103192328Y-21600700D01*
X103337272Y-21600700D01*
X103337275Y-21600700D01*
X103477285Y-21563184D01*
X103602815Y-21490709D01*
X103705309Y-21388215D01*
X103720160Y-21362491D01*
X103770725Y-21314276D01*
X103839332Y-21301052D01*
X103904197Y-21327019D01*
G37*
%TD.AperFunction*%
%TA.AperFunction,Conductor*%
G36*
X186442539Y-520185D02*
G01*
X186488294Y-572989D01*
X186499500Y-624500D01*
X186499500Y-19375500D01*
X186479815Y-19442539D01*
X186427011Y-19488294D01*
X186375500Y-19499500D01*
X130065892Y-19499500D01*
X129934108Y-19499500D01*
X129806814Y-19533608D01*
X129806813Y-19533608D01*
X129806811Y-19533609D01*
X129806810Y-19533609D01*
X129720594Y-19583387D01*
X129658594Y-19600000D01*
X129600000Y-19600000D01*
X129600000Y-19658594D01*
X129583387Y-19720594D01*
X129533609Y-19806810D01*
X129533609Y-19806811D01*
X129499500Y-19934108D01*
X129499500Y-21813624D01*
X129479815Y-21880663D01*
X129427011Y-21926418D01*
X129407601Y-21933397D01*
X129406814Y-21933607D01*
X129292686Y-21999500D01*
X129292683Y-21999502D01*
X129199502Y-22092683D01*
X129199500Y-22092686D01*
X129133608Y-22206812D01*
X129099500Y-22334108D01*
X129099500Y-31284108D01*
X129099500Y-31415892D01*
X129110376Y-31456482D01*
X129133608Y-31543187D01*
X129156026Y-31582015D01*
X129199500Y-31657314D01*
X129292686Y-31750500D01*
X129406814Y-31816392D01*
X129508095Y-31843529D01*
X129567753Y-31879892D01*
X129598283Y-31942739D01*
X129600000Y-31963303D01*
X129600000Y-32036696D01*
X129580315Y-32103735D01*
X129527511Y-32149490D01*
X129508097Y-32156469D01*
X129466853Y-32167520D01*
X129406812Y-32183608D01*
X129292686Y-32249500D01*
X129292683Y-32249502D01*
X129199502Y-32342683D01*
X129199500Y-32342686D01*
X129133608Y-32456812D01*
X129099500Y-32584108D01*
X129099500Y-34915891D01*
X129133608Y-35043187D01*
X129162148Y-35092618D01*
X129199500Y-35157314D01*
X129292686Y-35250500D01*
X129406814Y-35316392D01*
X129508095Y-35343529D01*
X129567753Y-35379892D01*
X129598283Y-35442739D01*
X129600000Y-35463303D01*
X129600000Y-35536696D01*
X129580315Y-35603735D01*
X129527511Y-35649490D01*
X129508097Y-35656469D01*
X129466853Y-35667520D01*
X129406812Y-35683608D01*
X129292686Y-35749500D01*
X129292683Y-35749502D01*
X129199502Y-35842683D01*
X129199500Y-35842686D01*
X129133608Y-35956812D01*
X129099500Y-36084108D01*
X129099500Y-51375500D01*
X129079815Y-51442539D01*
X129027011Y-51488294D01*
X128975500Y-51499500D01*
X66624500Y-51499500D01*
X66557461Y-51479815D01*
X66511706Y-51427011D01*
X66500500Y-51375500D01*
X66500500Y-50495825D01*
X108045600Y-50495825D01*
X108045600Y-50640775D01*
X108083116Y-50780785D01*
X108083117Y-50780788D01*
X108155588Y-50906311D01*
X108155590Y-50906313D01*
X108155591Y-50906315D01*
X108258085Y-51008809D01*
X108258086Y-51008810D01*
X108258088Y-51008811D01*
X108383611Y-51081282D01*
X108383612Y-51081282D01*
X108383615Y-51081284D01*
X108523625Y-51118800D01*
X108523628Y-51118800D01*
X108668572Y-51118800D01*
X108668575Y-51118800D01*
X108808585Y-51081284D01*
X108934115Y-51008809D01*
X109036609Y-50906315D01*
X109109084Y-50780785D01*
X109146600Y-50640775D01*
X109146600Y-50564843D01*
X109166285Y-50497804D01*
X109182914Y-50477167D01*
X117123262Y-42536818D01*
X117184585Y-42503334D01*
X117210943Y-42500500D01*
X117346772Y-42500500D01*
X117346775Y-42500500D01*
X117486785Y-42462984D01*
X117612315Y-42390509D01*
X117714809Y-42288015D01*
X117787284Y-42162485D01*
X117824800Y-42022475D01*
X117824800Y-41877525D01*
X117787284Y-41737515D01*
X117720480Y-41621808D01*
X117714811Y-41611988D01*
X117714806Y-41611982D01*
X117661119Y-41558295D01*
X117627634Y-41496972D01*
X117624800Y-41470614D01*
X117624800Y-33263058D01*
X117624800Y-33263056D01*
X117600914Y-33173912D01*
X117595595Y-33164699D01*
X117554770Y-33093988D01*
X111918119Y-27457337D01*
X111884634Y-27396014D01*
X111881800Y-27369656D01*
X111881800Y-27293727D01*
X111881800Y-27293725D01*
X111844284Y-27153715D01*
X111830698Y-27130184D01*
X111771811Y-27028188D01*
X111771806Y-27028182D01*
X111669317Y-26925693D01*
X111669311Y-26925688D01*
X111543788Y-26853217D01*
X111543789Y-26853217D01*
X111532306Y-26850140D01*
X111403775Y-26815700D01*
X111258825Y-26815700D01*
X111130293Y-26850140D01*
X111118811Y-26853217D01*
X110993288Y-26925688D01*
X110993282Y-26925693D01*
X110890793Y-27028182D01*
X110890788Y-27028188D01*
X110818317Y-27153711D01*
X110818316Y-27153715D01*
X110780800Y-27293725D01*
X110780800Y-27438675D01*
X110818316Y-27578685D01*
X110818317Y-27578688D01*
X110890788Y-27704211D01*
X110890790Y-27704213D01*
X110890791Y-27704215D01*
X110993285Y-27806709D01*
X110993286Y-27806710D01*
X110993288Y-27806711D01*
X111118811Y-27879182D01*
X111118812Y-27879182D01*
X111118815Y-27879184D01*
X111258825Y-27916700D01*
X111334756Y-27916700D01*
X111401795Y-27936385D01*
X111422437Y-27953019D01*
X116887481Y-33418063D01*
X116920966Y-33479386D01*
X116923800Y-33505744D01*
X116923800Y-41470614D01*
X116904115Y-41537653D01*
X116887481Y-41558295D01*
X116833793Y-41611982D01*
X116833788Y-41611988D01*
X116761317Y-41737511D01*
X116761316Y-41737515D01*
X116723800Y-41877525D01*
X116723800Y-41877527D01*
X116723800Y-41893556D01*
X116704115Y-41960595D01*
X116687481Y-41981237D01*
X108687237Y-49981481D01*
X108625914Y-50014966D01*
X108599556Y-50017800D01*
X108523625Y-50017800D01*
X108395093Y-50052240D01*
X108383611Y-50055317D01*
X108258088Y-50127788D01*
X108258082Y-50127793D01*
X108155593Y-50230282D01*
X108155588Y-50230288D01*
X108083117Y-50355811D01*
X108083116Y-50355815D01*
X108045600Y-50495825D01*
X66500500Y-50495825D01*
X66500500Y-45874038D01*
X68399500Y-45874038D01*
X68399500Y-46125962D01*
X68407721Y-46177865D01*
X68438910Y-46374785D01*
X68516760Y-46614383D01*
X68631132Y-46838848D01*
X68779201Y-47042649D01*
X68779205Y-47042654D01*
X68957345Y-47220794D01*
X68957350Y-47220798D01*
X69049179Y-47287515D01*
X69161155Y-47368870D01*
X69276272Y-47427525D01*
X69385616Y-47483239D01*
X69385618Y-47483239D01*
X69385621Y-47483241D01*
X69625215Y-47561090D01*
X69874038Y-47600500D01*
X69874039Y-47600500D01*
X70125961Y-47600500D01*
X70125962Y-47600500D01*
X70374785Y-47561090D01*
X70614379Y-47483241D01*
X70838845Y-47368870D01*
X71042656Y-47220793D01*
X71220793Y-47042656D01*
X71368870Y-46838845D01*
X71483241Y-46614379D01*
X71561090Y-46374785D01*
X71569097Y-46324234D01*
X78534500Y-46324234D01*
X78534500Y-46475765D01*
X78573719Y-46622136D01*
X78611602Y-46687750D01*
X78649485Y-46753365D01*
X78756635Y-46860515D01*
X78887865Y-46936281D01*
X79034234Y-46975500D01*
X79034236Y-46975500D01*
X79185764Y-46975500D01*
X79185766Y-46975500D01*
X79332135Y-46936281D01*
X79463365Y-46860515D01*
X79570515Y-46753365D01*
X79646281Y-46622135D01*
X79685500Y-46475766D01*
X79685500Y-46324234D01*
X79646281Y-46177865D01*
X79570515Y-46046635D01*
X79463365Y-45939485D01*
X79397750Y-45901602D01*
X79332136Y-45863719D01*
X79258950Y-45844109D01*
X79185766Y-45824500D01*
X79034234Y-45824500D01*
X78887863Y-45863719D01*
X78756635Y-45939485D01*
X78756632Y-45939487D01*
X78649487Y-46046632D01*
X78649485Y-46046635D01*
X78573719Y-46177863D01*
X78534500Y-46324234D01*
X71569097Y-46324234D01*
X71600500Y-46125962D01*
X71600500Y-45874038D01*
X71561090Y-45625215D01*
X71483241Y-45385621D01*
X71483239Y-45385618D01*
X71483239Y-45385616D01*
X71441747Y-45304184D01*
X71368870Y-45161155D01*
X71349952Y-45135117D01*
X71220798Y-44957350D01*
X71220794Y-44957345D01*
X71042654Y-44779205D01*
X71042649Y-44779201D01*
X70838848Y-44631132D01*
X70838847Y-44631131D01*
X70838845Y-44631130D01*
X70768747Y-44595413D01*
X70614383Y-44516760D01*
X70374785Y-44438910D01*
X70125962Y-44399500D01*
X69874038Y-44399500D01*
X69749626Y-44419205D01*
X69625214Y-44438910D01*
X69385616Y-44516760D01*
X69161151Y-44631132D01*
X68957350Y-44779201D01*
X68957345Y-44779205D01*
X68779205Y-44957345D01*
X68779201Y-44957350D01*
X68631132Y-45161151D01*
X68516760Y-45385616D01*
X68438910Y-45625214D01*
X68422837Y-45726695D01*
X68399500Y-45874038D01*
X66500500Y-45874038D01*
X66500500Y-42683725D01*
X80241700Y-42683725D01*
X80241700Y-42828675D01*
X80273613Y-42947775D01*
X80279217Y-42968688D01*
X80351688Y-43094211D01*
X80351690Y-43094213D01*
X80351691Y-43094215D01*
X80454185Y-43196709D01*
X80454186Y-43196710D01*
X80454188Y-43196711D01*
X80579711Y-43269182D01*
X80579712Y-43269182D01*
X80579715Y-43269184D01*
X80719725Y-43306700D01*
X80719728Y-43306700D01*
X80864672Y-43306700D01*
X80864675Y-43306700D01*
X81004685Y-43269184D01*
X81130215Y-43196709D01*
X81232709Y-43094215D01*
X81305184Y-42968685D01*
X81342700Y-42828675D01*
X81342700Y-42697443D01*
X81362385Y-42630404D01*
X81379019Y-42609762D01*
X82363963Y-41624819D01*
X82425286Y-41591334D01*
X82451644Y-41588500D01*
X82527572Y-41588500D01*
X82527575Y-41588500D01*
X82667585Y-41550984D01*
X82793115Y-41478509D01*
X82895609Y-41376015D01*
X82968084Y-41250485D01*
X83005600Y-41110475D01*
X83005600Y-40965525D01*
X82968084Y-40825515D01*
X82967795Y-40825015D01*
X82895611Y-40699988D01*
X82895606Y-40699982D01*
X82793117Y-40597493D01*
X82793111Y-40597488D01*
X82667588Y-40525017D01*
X82667589Y-40525017D01*
X82656106Y-40521940D01*
X82527575Y-40487500D01*
X82382625Y-40487500D01*
X82254093Y-40521940D01*
X82242611Y-40525017D01*
X82117088Y-40597488D01*
X82117082Y-40597493D01*
X82014593Y-40699982D01*
X82014588Y-40699988D01*
X81942117Y-40825511D01*
X81942116Y-40825515D01*
X81904600Y-40965525D01*
X81904600Y-40965527D01*
X81904600Y-41041456D01*
X81884915Y-41108495D01*
X81868281Y-41129137D01*
X80828037Y-42169381D01*
X80766714Y-42202866D01*
X80740356Y-42205700D01*
X80719725Y-42205700D01*
X80591193Y-42240140D01*
X80579711Y-42243217D01*
X80454188Y-42315688D01*
X80454182Y-42315693D01*
X80351693Y-42418182D01*
X80351688Y-42418188D01*
X80279217Y-42543711D01*
X80279216Y-42543715D01*
X80241700Y-42683725D01*
X66500500Y-42683725D01*
X66500500Y-40820943D01*
X71399500Y-40820943D01*
X71399500Y-40979057D01*
X71434714Y-41110475D01*
X71440423Y-41131783D01*
X71440426Y-41131790D01*
X71519475Y-41268709D01*
X71519479Y-41268714D01*
X71519480Y-41268716D01*
X71631284Y-41380520D01*
X71631286Y-41380521D01*
X71631290Y-41380524D01*
X71756379Y-41452743D01*
X71768216Y-41459577D01*
X71920943Y-41500500D01*
X71920945Y-41500500D01*
X72079055Y-41500500D01*
X72079057Y-41500500D01*
X72231784Y-41459577D01*
X72368716Y-41380520D01*
X72480520Y-41268716D01*
X72559577Y-41131784D01*
X72600500Y-40979057D01*
X72600500Y-40820943D01*
X72559577Y-40668216D01*
X72525664Y-40609476D01*
X72480524Y-40531290D01*
X72480518Y-40531282D01*
X72368717Y-40419481D01*
X72368709Y-40419475D01*
X72231790Y-40340426D01*
X72231786Y-40340424D01*
X72231784Y-40340423D01*
X72079057Y-40299500D01*
X71920943Y-40299500D01*
X71768216Y-40340423D01*
X71768209Y-40340426D01*
X71631290Y-40419475D01*
X71631282Y-40419481D01*
X71519481Y-40531282D01*
X71519475Y-40531290D01*
X71440426Y-40668209D01*
X71440423Y-40668216D01*
X71399500Y-40820943D01*
X66500500Y-40820943D01*
X66500500Y-39020943D01*
X71399500Y-39020943D01*
X71399500Y-39179057D01*
X71422231Y-39263888D01*
X71440423Y-39331783D01*
X71440426Y-39331790D01*
X71519475Y-39468709D01*
X71519479Y-39468714D01*
X71519480Y-39468716D01*
X71631284Y-39580520D01*
X71631286Y-39580521D01*
X71631290Y-39580524D01*
X71720321Y-39631925D01*
X71768216Y-39659577D01*
X71920943Y-39700500D01*
X71920945Y-39700500D01*
X72079055Y-39700500D01*
X72079057Y-39700500D01*
X72231784Y-39659577D01*
X72279679Y-39631925D01*
X83390700Y-39631925D01*
X83390700Y-39776875D01*
X83428216Y-39916885D01*
X83428217Y-39916888D01*
X83500688Y-40042411D01*
X83500693Y-40042417D01*
X83554381Y-40096105D01*
X83587866Y-40157428D01*
X83590700Y-40183786D01*
X83590700Y-41452744D01*
X83613452Y-41537653D01*
X83614586Y-41541887D01*
X83614587Y-41541890D01*
X83660727Y-41621808D01*
X83660731Y-41621813D01*
X84823081Y-42784163D01*
X84856566Y-42845486D01*
X84859400Y-42871844D01*
X84859400Y-42947775D01*
X84865004Y-42968688D01*
X84896917Y-43087788D01*
X84969388Y-43213311D01*
X84969390Y-43213313D01*
X84969391Y-43213315D01*
X85071885Y-43315809D01*
X85071886Y-43315810D01*
X85071888Y-43315811D01*
X85197411Y-43388282D01*
X85197412Y-43388282D01*
X85197415Y-43388284D01*
X85337425Y-43425800D01*
X85337428Y-43425800D01*
X85482372Y-43425800D01*
X85482375Y-43425800D01*
X85622385Y-43388284D01*
X85747915Y-43315809D01*
X85850409Y-43213315D01*
X85922884Y-43087785D01*
X85960400Y-42947775D01*
X85960400Y-42802825D01*
X85922884Y-42662815D01*
X85917815Y-42654036D01*
X85850411Y-42537288D01*
X85850406Y-42537282D01*
X85747917Y-42434793D01*
X85747911Y-42434788D01*
X85622388Y-42362317D01*
X85622389Y-42362317D01*
X85610906Y-42359240D01*
X85482375Y-42324800D01*
X85482372Y-42324800D01*
X85406444Y-42324800D01*
X85339405Y-42305115D01*
X85318763Y-42288481D01*
X84328019Y-41297737D01*
X84294534Y-41236414D01*
X84291700Y-41210056D01*
X84291700Y-40183786D01*
X84311385Y-40116747D01*
X84328019Y-40096105D01*
X84381709Y-40042415D01*
X84454184Y-39916885D01*
X84491700Y-39776875D01*
X84491700Y-39631925D01*
X84454184Y-39491915D01*
X84440360Y-39467972D01*
X84381711Y-39366388D01*
X84381706Y-39366382D01*
X84279217Y-39263893D01*
X84279211Y-39263888D01*
X84153688Y-39191417D01*
X84153689Y-39191417D01*
X84142206Y-39188340D01*
X84013675Y-39153900D01*
X83868725Y-39153900D01*
X83740193Y-39188340D01*
X83728711Y-39191417D01*
X83603188Y-39263888D01*
X83603182Y-39263893D01*
X83500693Y-39366382D01*
X83500688Y-39366388D01*
X83428217Y-39491911D01*
X83428216Y-39491915D01*
X83390700Y-39631925D01*
X72279679Y-39631925D01*
X72368716Y-39580520D01*
X72480520Y-39468716D01*
X72559577Y-39331784D01*
X72600500Y-39179057D01*
X72600500Y-39020943D01*
X72559577Y-38868216D01*
X72559573Y-38868209D01*
X72480524Y-38731290D01*
X72480518Y-38731282D01*
X72368717Y-38619481D01*
X72368709Y-38619475D01*
X72231790Y-38540426D01*
X72231786Y-38540424D01*
X72231784Y-38540423D01*
X72079057Y-38499500D01*
X71920943Y-38499500D01*
X71768216Y-38540423D01*
X71768209Y-38540426D01*
X71631290Y-38619475D01*
X71631282Y-38619481D01*
X71519481Y-38731282D01*
X71519475Y-38731290D01*
X71440426Y-38868209D01*
X71440423Y-38868216D01*
X71399500Y-39020943D01*
X66500500Y-39020943D01*
X66500500Y-38054525D01*
X72893300Y-38054525D01*
X72893300Y-38199475D01*
X72930816Y-38339485D01*
X72930817Y-38339488D01*
X73003288Y-38465011D01*
X73003290Y-38465013D01*
X73003291Y-38465015D01*
X73105785Y-38567509D01*
X73105786Y-38567510D01*
X73105788Y-38567511D01*
X73231311Y-38639982D01*
X73231312Y-38639982D01*
X73231315Y-38639984D01*
X73371325Y-38677500D01*
X73371328Y-38677500D01*
X73516272Y-38677500D01*
X73516275Y-38677500D01*
X73656285Y-38639984D01*
X73781815Y-38567509D01*
X73835505Y-38513819D01*
X73896828Y-38480334D01*
X73923186Y-38477500D01*
X86986842Y-38477500D01*
X86986844Y-38477500D01*
X87075988Y-38453614D01*
X87086612Y-38447480D01*
X87155912Y-38407470D01*
X92040363Y-33523019D01*
X92101686Y-33489534D01*
X92128044Y-33486700D01*
X93100114Y-33486700D01*
X93167153Y-33506385D01*
X93187795Y-33523019D01*
X93241385Y-33576609D01*
X93325561Y-33625208D01*
X93373776Y-33675775D01*
X93386998Y-33744383D01*
X93361030Y-33809247D01*
X93351241Y-33820276D01*
X90016931Y-37154586D01*
X90016927Y-37154591D01*
X89970787Y-37234509D01*
X89970786Y-37234512D01*
X89946900Y-37323656D01*
X89946900Y-40558114D01*
X89927215Y-40625153D01*
X89910581Y-40645795D01*
X89905695Y-40650681D01*
X89844372Y-40684166D01*
X89818014Y-40687000D01*
X88954556Y-40687000D01*
X88865412Y-40710886D01*
X88865409Y-40710887D01*
X88785491Y-40757027D01*
X88785486Y-40757031D01*
X83378032Y-46164485D01*
X83378026Y-46164494D01*
X83350611Y-46211977D01*
X83325546Y-46240560D01*
X83326231Y-46241245D01*
X83217993Y-46349482D01*
X83217988Y-46349488D01*
X83145517Y-46475011D01*
X83145516Y-46475015D01*
X83108000Y-46615025D01*
X83108000Y-46759975D01*
X83134939Y-46860512D01*
X83145517Y-46899988D01*
X83217988Y-47025511D01*
X83217990Y-47025513D01*
X83217991Y-47025515D01*
X83320485Y-47128009D01*
X83320486Y-47128010D01*
X83320488Y-47128011D01*
X83446011Y-47200482D01*
X83446012Y-47200482D01*
X83446015Y-47200484D01*
X83586025Y-47238000D01*
X83586028Y-47238000D01*
X83730972Y-47238000D01*
X83730975Y-47238000D01*
X83870985Y-47200484D01*
X83996515Y-47128009D01*
X84099009Y-47025515D01*
X84171484Y-46899985D01*
X84202620Y-46783781D01*
X84238984Y-46724124D01*
X84301831Y-46693595D01*
X84371206Y-46701890D01*
X84425084Y-46746375D01*
X84429349Y-46753188D01*
X84429483Y-46753362D01*
X84429485Y-46753365D01*
X84536635Y-46860515D01*
X84667865Y-46936281D01*
X84814234Y-46975500D01*
X84814236Y-46975500D01*
X84965764Y-46975500D01*
X84965766Y-46975500D01*
X85112135Y-46936281D01*
X85243365Y-46860515D01*
X85350515Y-46753365D01*
X85426281Y-46622135D01*
X85465500Y-46475766D01*
X85465500Y-46324234D01*
X85426281Y-46177865D01*
X85350515Y-46046635D01*
X85243365Y-45939485D01*
X85177750Y-45901602D01*
X85112136Y-45863719D01*
X84971017Y-45825907D01*
X84911356Y-45789542D01*
X84880827Y-45726695D01*
X84889122Y-45657319D01*
X84915426Y-45618454D01*
X89109563Y-41424319D01*
X89170886Y-41390834D01*
X89197244Y-41388000D01*
X89818014Y-41388000D01*
X89885053Y-41407685D01*
X89905695Y-41424319D01*
X89959385Y-41478009D01*
X89959386Y-41478010D01*
X89959388Y-41478011D01*
X90084911Y-41550482D01*
X90084912Y-41550482D01*
X90084915Y-41550484D01*
X90224925Y-41588000D01*
X90224928Y-41588000D01*
X90369872Y-41588000D01*
X90369875Y-41588000D01*
X90509885Y-41550484D01*
X90635415Y-41478009D01*
X90737909Y-41375515D01*
X90810384Y-41249985D01*
X90847900Y-41109975D01*
X90847900Y-40965025D01*
X90810384Y-40825015D01*
X90771133Y-40757031D01*
X90737911Y-40699488D01*
X90737906Y-40699482D01*
X90684219Y-40645795D01*
X90650734Y-40584472D01*
X90647900Y-40558114D01*
X90647900Y-37566343D01*
X90667585Y-37499304D01*
X90684214Y-37478667D01*
X92983109Y-35179771D01*
X93044430Y-35146288D01*
X93114122Y-35151272D01*
X93170055Y-35193144D01*
X93178174Y-35205453D01*
X93233286Y-35300908D01*
X93233289Y-35300912D01*
X93233291Y-35300915D01*
X93335785Y-35403409D01*
X93335786Y-35403410D01*
X93335788Y-35403411D01*
X93461311Y-35475882D01*
X93461312Y-35475882D01*
X93461315Y-35475884D01*
X93601325Y-35513400D01*
X93601328Y-35513400D01*
X93746272Y-35513400D01*
X93746275Y-35513400D01*
X93886285Y-35475884D01*
X94002429Y-35408827D01*
X94070329Y-35392355D01*
X94136356Y-35415207D01*
X94152110Y-35428534D01*
X94201885Y-35478309D01*
X94201886Y-35478310D01*
X94201888Y-35478311D01*
X94327411Y-35550782D01*
X94327412Y-35550782D01*
X94327415Y-35550784D01*
X94467425Y-35588300D01*
X94543356Y-35588300D01*
X94610395Y-35607985D01*
X94631037Y-35624619D01*
X98474388Y-39467970D01*
X98474389Y-39467971D01*
X98474391Y-39467972D01*
X98493761Y-39479155D01*
X98543685Y-39507978D01*
X98543687Y-39507980D01*
X98550942Y-39512168D01*
X98554312Y-39514114D01*
X98643456Y-39538000D01*
X105157614Y-39538000D01*
X105224653Y-39557685D01*
X105245295Y-39574319D01*
X105298985Y-39628009D01*
X105298986Y-39628010D01*
X105298988Y-39628011D01*
X105424511Y-39700482D01*
X105424512Y-39700482D01*
X105424515Y-39700484D01*
X105564525Y-39738000D01*
X105564528Y-39738000D01*
X105709472Y-39738000D01*
X105709475Y-39738000D01*
X105849485Y-39700484D01*
X105975015Y-39628009D01*
X106077509Y-39525515D01*
X106149984Y-39399985D01*
X106187500Y-39259975D01*
X106187500Y-39115025D01*
X106149984Y-38975015D01*
X106088323Y-38868216D01*
X106077511Y-38849488D01*
X106077506Y-38849482D01*
X105975017Y-38746993D01*
X105975011Y-38746988D01*
X105849488Y-38674517D01*
X105849489Y-38674517D01*
X105838006Y-38671440D01*
X105709475Y-38637000D01*
X105564525Y-38637000D01*
X105435993Y-38671440D01*
X105424511Y-38674517D01*
X105298988Y-38746988D01*
X105298982Y-38746993D01*
X105245295Y-38800681D01*
X105183972Y-38834166D01*
X105157614Y-38837000D01*
X98886144Y-38837000D01*
X98819105Y-38817315D01*
X98798463Y-38800681D01*
X95126719Y-35128937D01*
X95093234Y-35067614D01*
X95090400Y-35041256D01*
X95090400Y-34965327D01*
X95090400Y-34965325D01*
X95074126Y-34904590D01*
X95075789Y-34834744D01*
X95114951Y-34776882D01*
X95179179Y-34749377D01*
X95193901Y-34748500D01*
X107273956Y-34748500D01*
X107340995Y-34768185D01*
X107361637Y-34784819D01*
X108035681Y-35458863D01*
X108069166Y-35520186D01*
X108072000Y-35546544D01*
X108072000Y-35622475D01*
X108105104Y-35746018D01*
X108109517Y-35762488D01*
X108181988Y-35888011D01*
X108181990Y-35888013D01*
X108181991Y-35888015D01*
X108284485Y-35990509D01*
X108284486Y-35990510D01*
X108284488Y-35990511D01*
X108410011Y-36062982D01*
X108410012Y-36062982D01*
X108410015Y-36062984D01*
X108550025Y-36100500D01*
X108550028Y-36100500D01*
X108694972Y-36100500D01*
X108694975Y-36100500D01*
X108834985Y-36062984D01*
X108960515Y-35990509D01*
X109063009Y-35888015D01*
X109124513Y-35781488D01*
X109175080Y-35733272D01*
X109243687Y-35720050D01*
X109308552Y-35746018D01*
X109349080Y-35802932D01*
X109355900Y-35843488D01*
X109355900Y-37834056D01*
X109336215Y-37901095D01*
X109319581Y-37921737D01*
X105878137Y-41363181D01*
X105816814Y-41396666D01*
X105790456Y-41399500D01*
X105714525Y-41399500D01*
X105585993Y-41433940D01*
X105574511Y-41437017D01*
X105448988Y-41509488D01*
X105448982Y-41509493D01*
X105346493Y-41611982D01*
X105346488Y-41611988D01*
X105274017Y-41737511D01*
X105274016Y-41737515D01*
X105236500Y-41877525D01*
X105236500Y-42022475D01*
X105274016Y-42162485D01*
X105274017Y-42162488D01*
X105346488Y-42288011D01*
X105346493Y-42288017D01*
X105400181Y-42341705D01*
X105433666Y-42403028D01*
X105436500Y-42429386D01*
X105436500Y-45378856D01*
X105416815Y-45445895D01*
X105400181Y-45466537D01*
X104811681Y-46055037D01*
X104750358Y-46088522D01*
X104680666Y-46083538D01*
X104624733Y-46041666D01*
X104600316Y-45976202D01*
X104600000Y-45967356D01*
X104600000Y-40900000D01*
X91400000Y-40900000D01*
X91400000Y-46300000D01*
X104267356Y-46300000D01*
X104334395Y-46319685D01*
X104380150Y-46372489D01*
X104390094Y-46441647D01*
X104361069Y-46505203D01*
X104355037Y-46511681D01*
X103753537Y-47113181D01*
X103692214Y-47146666D01*
X103665856Y-47149500D01*
X102844886Y-47149500D01*
X102777847Y-47129815D01*
X102757205Y-47113181D01*
X102703517Y-47059493D01*
X102703511Y-47059488D01*
X102577988Y-46987017D01*
X102577989Y-46987017D01*
X102566506Y-46983940D01*
X102437975Y-46949500D01*
X102293025Y-46949500D01*
X102164493Y-46983940D01*
X102153011Y-46987017D01*
X102027488Y-47059488D01*
X102027482Y-47059493D01*
X101924993Y-47161982D01*
X101924988Y-47161988D01*
X101852517Y-47287511D01*
X101852516Y-47287515D01*
X101815000Y-47427525D01*
X101815000Y-47572475D01*
X101852516Y-47712485D01*
X101852517Y-47712488D01*
X101924988Y-47838011D01*
X101924990Y-47838013D01*
X101924991Y-47838015D01*
X102027485Y-47940509D01*
X102027486Y-47940510D01*
X102027488Y-47940511D01*
X102153011Y-48012982D01*
X102153012Y-48012982D01*
X102153015Y-48012984D01*
X102293025Y-48050500D01*
X102293028Y-48050500D01*
X102437972Y-48050500D01*
X102437975Y-48050500D01*
X102577985Y-48012984D01*
X102703515Y-47940509D01*
X102757205Y-47886819D01*
X102818528Y-47853334D01*
X102844886Y-47850500D01*
X103908542Y-47850500D01*
X103908544Y-47850500D01*
X103997688Y-47826614D01*
X104008312Y-47820480D01*
X104077612Y-47780470D01*
X106067469Y-45790612D01*
X106113614Y-45710688D01*
X106137500Y-45621544D01*
X106137500Y-42429386D01*
X106157185Y-42362347D01*
X106173819Y-42341705D01*
X106199836Y-42315688D01*
X106227509Y-42288015D01*
X106299984Y-42162485D01*
X106337500Y-42022475D01*
X106337500Y-41946544D01*
X106357185Y-41879505D01*
X106373819Y-41858863D01*
X108136577Y-40096105D01*
X109986870Y-38245812D01*
X110033014Y-38165888D01*
X110056900Y-38076743D01*
X110056900Y-37984456D01*
X110056900Y-33989756D01*
X110033014Y-33900612D01*
X110021749Y-33881100D01*
X109986870Y-33820688D01*
X107442512Y-31276330D01*
X107442511Y-31276329D01*
X107442508Y-31276327D01*
X107362590Y-31230187D01*
X107362589Y-31230186D01*
X107362588Y-31230186D01*
X107273444Y-31206300D01*
X107273443Y-31206300D01*
X106272807Y-31206300D01*
X106205768Y-31186615D01*
X106160013Y-31133811D01*
X106150069Y-31064653D01*
X106153028Y-31050222D01*
X106187500Y-30921575D01*
X106187500Y-30776625D01*
X106149984Y-30636615D01*
X106110494Y-30568217D01*
X106077511Y-30511088D01*
X106077506Y-30511082D01*
X106023819Y-30457395D01*
X105990334Y-30396072D01*
X105987500Y-30369714D01*
X105987500Y-22516758D01*
X105987500Y-22516756D01*
X105963614Y-22427612D01*
X105947961Y-22400500D01*
X105917470Y-22347688D01*
X102039312Y-18469530D01*
X102039311Y-18469529D01*
X102039308Y-18469527D01*
X101959390Y-18423387D01*
X101959389Y-18423386D01*
X101959388Y-18423386D01*
X101870244Y-18399500D01*
X101870243Y-18399500D01*
X96953186Y-18399500D01*
X96886147Y-18379815D01*
X96865505Y-18363181D01*
X96811817Y-18309493D01*
X96811811Y-18309488D01*
X96686288Y-18237017D01*
X96686289Y-18237017D01*
X96674806Y-18233940D01*
X96546275Y-18199500D01*
X96401325Y-18199500D01*
X96272793Y-18233940D01*
X96261311Y-18237017D01*
X96135788Y-18309488D01*
X96135782Y-18309493D01*
X96033293Y-18411982D01*
X96033288Y-18411988D01*
X95960817Y-18537511D01*
X95960816Y-18537515D01*
X95923300Y-18677525D01*
X95923300Y-18822475D01*
X95960816Y-18962485D01*
X95960817Y-18962488D01*
X96033288Y-19088011D01*
X96033290Y-19088013D01*
X96033291Y-19088015D01*
X96135785Y-19190509D01*
X96135786Y-19190510D01*
X96135788Y-19190511D01*
X96261311Y-19262982D01*
X96261312Y-19262982D01*
X96261315Y-19262984D01*
X96401325Y-19300500D01*
X96401328Y-19300500D01*
X96546272Y-19300500D01*
X96546275Y-19300500D01*
X96686285Y-19262984D01*
X96811815Y-19190509D01*
X96865505Y-19136819D01*
X96926828Y-19103334D01*
X96953186Y-19100500D01*
X101627556Y-19100500D01*
X101694595Y-19120185D01*
X101715237Y-19136819D01*
X102978189Y-20399771D01*
X103011674Y-20461094D01*
X103006690Y-20530786D01*
X102964818Y-20586719D01*
X102952510Y-20594838D01*
X102922117Y-20612386D01*
X102860115Y-20629000D01*
X85212156Y-20629000D01*
X85123012Y-20652886D01*
X85123009Y-20652887D01*
X85043091Y-20699027D01*
X85043086Y-20699031D01*
X84678937Y-21063181D01*
X84617614Y-21096666D01*
X84591256Y-21099500D01*
X84515325Y-21099500D01*
X84386793Y-21133940D01*
X84375311Y-21137017D01*
X84249788Y-21209488D01*
X84249782Y-21209493D01*
X84147293Y-21311982D01*
X84147288Y-21311988D01*
X84074817Y-21437511D01*
X84074816Y-21437515D01*
X84037300Y-21577525D01*
X84037300Y-21722475D01*
X84059899Y-21806814D01*
X84074817Y-21862488D01*
X84147288Y-21988011D01*
X84147290Y-21988013D01*
X84147291Y-21988015D01*
X84249785Y-22090509D01*
X84249786Y-22090510D01*
X84249788Y-22090511D01*
X84375311Y-22162982D01*
X84375312Y-22162982D01*
X84375315Y-22162984D01*
X84515325Y-22200500D01*
X84515328Y-22200500D01*
X84660272Y-22200500D01*
X84660275Y-22200500D01*
X84800285Y-22162984D01*
X84925815Y-22090509D01*
X85028309Y-21988015D01*
X85100784Y-21862485D01*
X85138300Y-21722475D01*
X85138300Y-21646544D01*
X85157985Y-21579505D01*
X85174619Y-21558863D01*
X85367163Y-21366319D01*
X85428486Y-21332834D01*
X85454844Y-21330000D01*
X92599953Y-21330000D01*
X92666992Y-21349685D01*
X92712747Y-21402489D01*
X92722691Y-21471647D01*
X92719728Y-21486093D01*
X92694800Y-21579125D01*
X92694800Y-21724075D01*
X92718795Y-21813624D01*
X92732317Y-21864088D01*
X92804788Y-21989611D01*
X92804790Y-21989613D01*
X92804791Y-21989615D01*
X92907285Y-22092109D01*
X92907286Y-22092110D01*
X92907288Y-22092111D01*
X93032811Y-22164582D01*
X93032812Y-22164582D01*
X93032815Y-22164584D01*
X93172825Y-22202100D01*
X93248756Y-22202100D01*
X93315795Y-22221785D01*
X93336437Y-22238419D01*
X94446081Y-23348063D01*
X94479566Y-23409386D01*
X94482400Y-23435744D01*
X94482400Y-31718693D01*
X94462715Y-31785732D01*
X94409911Y-31831487D01*
X94340753Y-31841431D01*
X94326308Y-31838468D01*
X94300676Y-31831600D01*
X94300675Y-31831600D01*
X94224744Y-31831600D01*
X94157705Y-31811915D01*
X94137063Y-31795281D01*
X93855813Y-31514031D01*
X93855808Y-31514027D01*
X93775890Y-31467887D01*
X93775889Y-31467886D01*
X93775888Y-31467886D01*
X93686744Y-31444000D01*
X93686743Y-31444000D01*
X88674886Y-31444000D01*
X88607847Y-31424315D01*
X88587205Y-31407681D01*
X88533517Y-31353993D01*
X88533511Y-31353988D01*
X88407988Y-31281517D01*
X88407989Y-31281517D01*
X88393098Y-31277527D01*
X88267975Y-31244000D01*
X88123025Y-31244000D01*
X87997902Y-31277527D01*
X87983011Y-31281517D01*
X87857488Y-31353988D01*
X87857482Y-31353993D01*
X87754993Y-31456482D01*
X87754988Y-31456488D01*
X87682517Y-31582011D01*
X87682516Y-31582015D01*
X87645000Y-31722025D01*
X87645000Y-31866975D01*
X87682516Y-32006985D01*
X87682517Y-32006988D01*
X87754988Y-32132511D01*
X87754990Y-32132513D01*
X87754991Y-32132515D01*
X87857485Y-32235009D01*
X87857486Y-32235010D01*
X87857488Y-32235011D01*
X87983011Y-32307482D01*
X87983012Y-32307482D01*
X87983015Y-32307484D01*
X88123025Y-32345000D01*
X88123028Y-32345000D01*
X88267972Y-32345000D01*
X88267975Y-32345000D01*
X88407985Y-32307484D01*
X88533515Y-32235009D01*
X88587205Y-32181319D01*
X88648528Y-32147834D01*
X88674886Y-32145000D01*
X93444056Y-32145000D01*
X93511095Y-32164685D01*
X93531737Y-32181319D01*
X93641381Y-32290963D01*
X93674866Y-32352286D01*
X93677700Y-32378644D01*
X93677700Y-32461600D01*
X93658015Y-32528639D01*
X93605211Y-32574394D01*
X93553700Y-32585600D01*
X93506925Y-32585600D01*
X93378393Y-32620040D01*
X93366911Y-32623117D01*
X93241388Y-32695588D01*
X93241382Y-32695593D01*
X93187595Y-32749381D01*
X93126272Y-32782866D01*
X93099914Y-32785700D01*
X91885354Y-32785700D01*
X91796597Y-32809481D01*
X91796598Y-32809482D01*
X91796213Y-32809584D01*
X91796211Y-32809586D01*
X91716291Y-32855727D01*
X91716286Y-32855731D01*
X86831837Y-37740181D01*
X86770514Y-37773666D01*
X86744156Y-37776500D01*
X73923186Y-37776500D01*
X73856147Y-37756815D01*
X73835505Y-37740181D01*
X73781817Y-37686493D01*
X73781811Y-37686488D01*
X73656288Y-37614017D01*
X73656289Y-37614017D01*
X73644806Y-37610940D01*
X73516275Y-37576500D01*
X73371325Y-37576500D01*
X73242793Y-37610940D01*
X73231311Y-37614017D01*
X73105788Y-37686488D01*
X73105782Y-37686493D01*
X73003293Y-37788982D01*
X73003288Y-37788988D01*
X72930817Y-37914511D01*
X72930816Y-37914515D01*
X72893300Y-38054525D01*
X66500500Y-38054525D01*
X66500500Y-33374038D01*
X68399500Y-33374038D01*
X68399500Y-33625961D01*
X68438910Y-33874785D01*
X68516760Y-34114383D01*
X68631132Y-34338848D01*
X68779201Y-34542649D01*
X68779205Y-34542654D01*
X68957345Y-34720794D01*
X68957350Y-34720798D01*
X69102532Y-34826278D01*
X69161155Y-34868870D01*
X69280478Y-34929668D01*
X69385616Y-34983239D01*
X69385618Y-34983239D01*
X69385621Y-34983241D01*
X69625215Y-35061090D01*
X69874038Y-35100500D01*
X69874039Y-35100500D01*
X70125961Y-35100500D01*
X70125962Y-35100500D01*
X70374785Y-35061090D01*
X70614379Y-34983241D01*
X70838845Y-34868870D01*
X71042656Y-34720793D01*
X71220793Y-34542656D01*
X71368870Y-34338845D01*
X71483241Y-34114379D01*
X71561090Y-33874785D01*
X71600500Y-33625962D01*
X71600500Y-33374038D01*
X71561090Y-33125215D01*
X71483241Y-32885621D01*
X71483239Y-32885618D01*
X71483239Y-32885616D01*
X71434465Y-32789893D01*
X71409922Y-32741725D01*
X80566400Y-32741725D01*
X80566400Y-32886675D01*
X80603916Y-33026685D01*
X80603917Y-33026688D01*
X80676388Y-33152211D01*
X80676390Y-33152213D01*
X80676391Y-33152215D01*
X80778885Y-33254709D01*
X80778886Y-33254710D01*
X80778888Y-33254711D01*
X80904411Y-33327182D01*
X80904412Y-33327182D01*
X80904415Y-33327184D01*
X81044425Y-33364700D01*
X81044428Y-33364700D01*
X81189372Y-33364700D01*
X81189375Y-33364700D01*
X81329385Y-33327184D01*
X81454915Y-33254709D01*
X81508605Y-33201019D01*
X81569928Y-33167534D01*
X81596286Y-33164700D01*
X83649542Y-33164700D01*
X83649544Y-33164700D01*
X83738688Y-33140814D01*
X83765706Y-33125215D01*
X83818612Y-33094670D01*
X89709263Y-27204019D01*
X89770586Y-27170534D01*
X89796944Y-27167700D01*
X89872872Y-27167700D01*
X89872875Y-27167700D01*
X90012885Y-27130184D01*
X90138415Y-27057709D01*
X90240909Y-26955215D01*
X90313384Y-26829685D01*
X90350900Y-26689675D01*
X90350900Y-26544725D01*
X90313384Y-26404715D01*
X90240909Y-26279185D01*
X90138415Y-26176691D01*
X90138413Y-26176690D01*
X90138411Y-26176688D01*
X90012888Y-26104217D01*
X90012889Y-26104217D01*
X90001406Y-26101140D01*
X89872875Y-26066700D01*
X89727925Y-26066700D01*
X89599393Y-26101140D01*
X89587911Y-26104217D01*
X89462388Y-26176688D01*
X89462382Y-26176693D01*
X89359893Y-26279182D01*
X89359888Y-26279188D01*
X89287417Y-26404711D01*
X89287416Y-26404715D01*
X89249900Y-26544725D01*
X89249900Y-26544727D01*
X89249900Y-26620656D01*
X89230215Y-26687695D01*
X89213581Y-26708337D01*
X83494537Y-32427381D01*
X83433214Y-32460866D01*
X83406856Y-32463700D01*
X81596286Y-32463700D01*
X81529247Y-32444015D01*
X81508605Y-32427381D01*
X81454917Y-32373693D01*
X81454911Y-32373688D01*
X81329388Y-32301217D01*
X81329389Y-32301217D01*
X81317906Y-32298140D01*
X81189375Y-32263700D01*
X81044425Y-32263700D01*
X80915893Y-32298140D01*
X80904411Y-32301217D01*
X80778888Y-32373688D01*
X80778882Y-32373693D01*
X80676393Y-32476182D01*
X80676388Y-32476188D01*
X80603917Y-32601711D01*
X80603916Y-32601715D01*
X80566400Y-32741725D01*
X71409922Y-32741725D01*
X71405893Y-32733817D01*
X71368870Y-32661155D01*
X71327369Y-32604034D01*
X71220798Y-32457350D01*
X71220794Y-32457345D01*
X71042654Y-32279205D01*
X71042649Y-32279201D01*
X70838848Y-32131132D01*
X70838847Y-32131131D01*
X70838845Y-32131130D01*
X70768747Y-32095413D01*
X70614383Y-32016760D01*
X70374785Y-31938910D01*
X70299494Y-31926985D01*
X70125962Y-31899500D01*
X69874038Y-31899500D01*
X69749626Y-31919205D01*
X69625214Y-31938910D01*
X69385616Y-32016760D01*
X69161151Y-32131132D01*
X68957350Y-32279201D01*
X68957345Y-32279205D01*
X68779205Y-32457345D01*
X68779201Y-32457350D01*
X68631132Y-32661151D01*
X68516760Y-32885616D01*
X68438910Y-33125214D01*
X68399500Y-33374038D01*
X66500500Y-33374038D01*
X66500500Y-19934110D01*
X66500500Y-19934108D01*
X66466392Y-19806814D01*
X66416613Y-19720594D01*
X66400000Y-19658594D01*
X66400000Y-19600000D01*
X66341406Y-19600000D01*
X66279406Y-19583387D01*
X66193188Y-19533609D01*
X66193187Y-19533608D01*
X66193186Y-19533608D01*
X66065892Y-19499500D01*
X66065891Y-19499500D01*
X624500Y-19499500D01*
X557461Y-19479815D01*
X511706Y-19427011D01*
X500500Y-19375500D01*
X500500Y-624500D01*
X520185Y-557461D01*
X572989Y-511706D01*
X624500Y-500500D01*
X186375500Y-500500D01*
X186442539Y-520185D01*
G37*
%TD.AperFunction*%
%TD*%
M02*
