%TF.GenerationSoftware,KiCad,Pcbnew,10.0.5*%
%TF.CreationDate,2026-08-20T12:21:45+02:00*%
%TF.ProjectId,fl11,666c3131-2e6b-4696-9361-645f70636258,rev?*%
%TF.SameCoordinates,Original*%
%TF.FileFunction,Soldermask,Top*%
%TF.FilePolarity,Negative*%
%FSLAX46Y46*%
G04 Gerber Fmt 4.6, Leading zero omitted, Abs format (unit mm)*
G04 Created by KiCad (PCBNEW 10.0.5) date 2026-08-20 12:21:45*
%MOMM*%
%LPD*%
G01*
G04 APERTURE LIST*
G04 Aperture macros list*
%AMRoundRect*
0 Rectangle with rounded corners*
0 $1 Rounding radius*
0 $2 $3 $4 $5 $6 $7 $8 $9 X,Y pos of 4 corners*
0 Add a 4 corners polygon primitive as box body*
4,1,4,$2,$3,$4,$5,$6,$7,$8,$9,$2,$3,0*
0 Add four circle primitives for the rounded corners*
1,1,$1+$1,$2,$3*
1,1,$1+$1,$4,$5*
1,1,$1+$1,$6,$7*
1,1,$1+$1,$8,$9*
0 Add four rect primitives between the rounded corners*
20,1,$1+$1,$2,$3,$4,$5,0*
20,1,$1+$1,$4,$5,$6,$7,0*
20,1,$1+$1,$6,$7,$8,$9,0*
20,1,$1+$1,$8,$9,$2,$3,0*%
%AMFreePoly0*
4,1,6,0.725000,-0.725000,-0.725000,-0.725000,-0.725000,0.125000,-0.125000,0.725000,0.725000,0.725000,0.725000,-0.725000,0.725000,-0.725000,$1*%
G04 Aperture macros list end*
%ADD10RoundRect,0.140000X0.170000X-0.140000X0.170000X0.140000X-0.170000X0.140000X-0.170000X-0.140000X0*%
%ADD11C,1.000000*%
%ADD12RoundRect,0.140000X-0.140000X-0.170000X0.140000X-0.170000X0.140000X0.170000X-0.140000X0.170000X0*%
%ADD13RoundRect,0.150000X-0.512500X-0.150000X0.512500X-0.150000X0.512500X0.150000X-0.512500X0.150000X0*%
%ADD14RoundRect,0.250000X-0.312500X-1.450000X0.312500X-1.450000X0.312500X1.450000X-0.312500X1.450000X0*%
%ADD15RoundRect,0.135000X-0.135000X-0.185000X0.135000X-0.185000X0.135000X0.185000X-0.135000X0.185000X0*%
%ADD16RoundRect,0.090000X0.360000X-0.660000X0.360000X0.660000X-0.360000X0.660000X-0.360000X-0.660000X0*%
%ADD17RoundRect,0.250000X-0.250000X-0.475000X0.250000X-0.475000X0.250000X0.475000X-0.250000X0.475000X0*%
%ADD18RoundRect,0.150000X-0.587500X-0.150000X0.587500X-0.150000X0.587500X0.150000X-0.587500X0.150000X0*%
%ADD19C,2.700000*%
%ADD20C,0.650000*%
%ADD21RoundRect,0.150000X0.575000X-0.150000X0.575000X0.150000X-0.575000X0.150000X-0.575000X-0.150000X0*%
%ADD22RoundRect,0.075000X0.650000X-0.075000X0.650000X0.075000X-0.650000X0.075000X-0.650000X-0.075000X0*%
%ADD23O,2.100000X1.000000*%
%ADD24O,1.600000X1.000000*%
%ADD25R,0.800000X0.400000*%
%ADD26R,0.400000X0.800000*%
%ADD27FreePoly0,0.000000*%
%ADD28R,1.450000X1.450000*%
%ADD29R,0.700000X0.700000*%
%ADD30C,0.700000*%
%ADD31RoundRect,0.250000X-0.450000X-0.275000X0.450000X-0.275000X0.450000X0.275000X-0.450000X0.275000X0*%
%ADD32RoundRect,0.250000X1.000000X-1.500000X1.000000X1.500000X-1.000000X1.500000X-1.000000X-1.500000X0*%
G04 APERTURE END LIST*
D10*
%TO.C,C15*%
X150733000Y-15980000D03*
X150733000Y-15020000D03*
%TD*%
D11*
%TO.C,TP11*%
X16000000Y-7500000D03*
%TD*%
D12*
%TO.C,C8*%
X30520000Y-17600000D03*
X31480000Y-17600000D03*
%TD*%
D11*
%TO.C,TP6*%
X58600000Y-3600000D03*
%TD*%
D13*
%TO.C,U3*%
X31862500Y-8050000D03*
X31862500Y-9000000D03*
X31862500Y-9950000D03*
X34137500Y-9950000D03*
X34137500Y-8050000D03*
%TD*%
D10*
%TO.C,C19*%
X217400000Y-15980000D03*
X217400000Y-15020000D03*
%TD*%
D11*
%TO.C,J3_2*%
X254000000Y-11270000D03*
%TD*%
D14*
%TO.C,F1*%
X17862500Y-2600000D03*
X22137500Y-2600000D03*
%TD*%
D15*
%TO.C,R4*%
X40990000Y-18700000D03*
X42010000Y-18700000D03*
%TD*%
D10*
%TO.C,C17*%
X184067000Y-15980000D03*
X184067000Y-15020000D03*
%TD*%
D16*
%TO.C,LD7*%
X162350000Y-13450000D03*
X165650000Y-13450000D03*
X165650000Y-8550000D03*
X162350000Y-8550000D03*
%TD*%
D10*
%TO.C,C13*%
X117400000Y-15980000D03*
X117400000Y-15020000D03*
%TD*%
D17*
%TO.C,C3*%
X32050000Y-5800000D03*
X33950000Y-5800000D03*
%TD*%
D10*
%TO.C,C12*%
X100733000Y-15980000D03*
X100733000Y-15020000D03*
%TD*%
%TO.C,C11*%
X84067000Y-15980000D03*
X84067000Y-15020000D03*
%TD*%
D15*
%TO.C,R11*%
X57990000Y-13500000D03*
X59010000Y-13500000D03*
%TD*%
D12*
%TO.C,C6*%
X51420000Y-13500000D03*
X52380000Y-13500000D03*
%TD*%
D18*
%TO.C,Q1*%
X29562500Y-1850000D03*
X29562500Y-3750000D03*
X31437500Y-2800000D03*
%TD*%
D15*
%TO.C,R5*%
X43490000Y-18700000D03*
X44510000Y-18700000D03*
%TD*%
D16*
%TO.C,LD11*%
X229017000Y-13450000D03*
X232317000Y-13450000D03*
X232317000Y-8550000D03*
X229017000Y-8550000D03*
%TD*%
D13*
%TO.C,U2*%
X54362500Y-12550000D03*
X54362500Y-13500000D03*
X54362500Y-14450000D03*
X56637500Y-14450000D03*
X56637500Y-12550000D03*
%TD*%
D10*
%TO.C,C18*%
X200733000Y-15980000D03*
X200733000Y-15020000D03*
%TD*%
D16*
%TO.C,LD8*%
X179017000Y-13450000D03*
X182317000Y-13450000D03*
X182317000Y-8550000D03*
X179017000Y-8550000D03*
%TD*%
%TO.C,LD4*%
X112350000Y-13450000D03*
X115650000Y-13450000D03*
X115650000Y-8550000D03*
X112350000Y-8550000D03*
%TD*%
D12*
%TO.C,C7*%
X35020000Y-4000000D03*
X35980000Y-4000000D03*
%TD*%
D16*
%TO.C,LD5*%
X129017000Y-13450000D03*
X132317000Y-13450000D03*
X132317000Y-8550000D03*
X129017000Y-8550000D03*
%TD*%
D11*
%TO.C,TP9*%
X35200000Y-15000000D03*
%TD*%
D12*
%TO.C,C9*%
X52020000Y-10200000D03*
X52980000Y-10200000D03*
%TD*%
D11*
%TO.C,J3_1*%
X254000000Y-8730000D03*
%TD*%
%TO.C,TP1*%
X59000000Y-15500000D03*
%TD*%
D15*
%TO.C,R1*%
X2990000Y-18600000D03*
X4010000Y-18600000D03*
%TD*%
D13*
%TO.C,U4*%
X17862500Y-16550000D03*
X17862500Y-17500000D03*
X17862500Y-18450000D03*
X20137500Y-18450000D03*
X20137500Y-17500000D03*
X20137500Y-16550000D03*
%TD*%
D19*
%TO.C,H2*%
X13500000Y-17900000D03*
%TD*%
D11*
%TO.C,TP7*%
X240000000Y-13000000D03*
%TD*%
D10*
%TO.C,C20*%
X234067000Y-15980000D03*
X234067000Y-15020000D03*
%TD*%
D17*
%TO.C,C5*%
X52950000Y-17000000D03*
X54850000Y-17000000D03*
%TD*%
D10*
%TO.C,C10*%
X67400000Y-15980000D03*
X67400000Y-15020000D03*
%TD*%
D20*
%TO.C,J1*%
X3400000Y-12890000D03*
X3400000Y-7110000D03*
D21*
X1955000Y-13250000D03*
X1955000Y-12450000D03*
D22*
X1955000Y-11250000D03*
X1955000Y-10250000D03*
X1955000Y-9750000D03*
X1955000Y-8750000D03*
D21*
X1955000Y-7550000D03*
X1955000Y-6750000D03*
X1955000Y-6750000D03*
X1955000Y-7550000D03*
D22*
X1955000Y-8250000D03*
X1955000Y-9250000D03*
X1955000Y-10750000D03*
X1955000Y-11750000D03*
D21*
X1955000Y-12450000D03*
X1955000Y-13250000D03*
D23*
X2870000Y-14320000D03*
D24*
X7050000Y-14320000D03*
D23*
X2870000Y-5680000D03*
D24*
X7050000Y-5680000D03*
%TD*%
D16*
%TO.C,LD2*%
X79017000Y-13450000D03*
X82317000Y-13450000D03*
X82317000Y-8550000D03*
X79017000Y-8550000D03*
%TD*%
D15*
%TO.C,R6*%
X45990000Y-18700000D03*
X47010000Y-18700000D03*
%TD*%
D17*
%TO.C,C4*%
X52050000Y-8000000D03*
X53950000Y-8000000D03*
%TD*%
D15*
%TO.C,R7*%
X55490000Y-3600000D03*
X56510000Y-3600000D03*
%TD*%
%TO.C,R10*%
X52990000Y-3600000D03*
X54010000Y-3600000D03*
%TD*%
D25*
%TO.C,U1*%
X38100000Y-7600000D03*
X38100000Y-8400000D03*
X38100000Y-9200000D03*
X38100000Y-10000000D03*
X38100000Y-10800000D03*
X38100000Y-11600000D03*
X38100000Y-12400000D03*
X38100000Y-13200000D03*
X38100000Y-14000000D03*
X38100000Y-14800000D03*
X38100000Y-15600000D03*
D26*
X39200000Y-16500000D03*
X40000000Y-16500000D03*
X40800000Y-16500000D03*
X41600000Y-16500000D03*
X42400000Y-16500000D03*
X43200000Y-16500000D03*
X44000000Y-16500000D03*
X44800000Y-16500000D03*
X45600000Y-16500000D03*
X46400000Y-16500000D03*
X47200000Y-16500000D03*
X48000000Y-16500000D03*
X48800000Y-16500000D03*
D25*
X49900000Y-15600000D03*
X49900000Y-14800000D03*
X49900000Y-14000000D03*
X49900000Y-13200000D03*
X49900000Y-12400000D03*
X49900000Y-11600000D03*
X49900000Y-10800000D03*
X49900000Y-10000000D03*
X49900000Y-9200000D03*
X49900000Y-8400000D03*
X49900000Y-7600000D03*
D26*
X48800000Y-6700000D03*
X48000000Y-6700000D03*
X47200000Y-6700000D03*
X46400000Y-6700000D03*
X45600000Y-6700000D03*
X44800000Y-6700000D03*
X44000000Y-6700000D03*
X43200000Y-6700000D03*
X42400000Y-6700000D03*
X41600000Y-6700000D03*
X40800000Y-6700000D03*
X40000000Y-6700000D03*
X39200000Y-6700000D03*
D27*
X42025000Y-9625000D03*
D28*
X42025000Y-11600000D03*
X42025000Y-13575000D03*
X44000000Y-9625000D03*
X44000000Y-11600000D03*
X44000000Y-13575000D03*
X45975000Y-9625000D03*
X45975000Y-11600000D03*
X45975000Y-13575000D03*
D29*
X49950000Y-6650000D03*
X49950000Y-16550000D03*
X38050000Y-16550000D03*
X38050000Y-6650000D03*
%TD*%
D16*
%TO.C,LD10*%
X212350000Y-13450000D03*
X215650000Y-13450000D03*
X215650000Y-8550000D03*
X212350000Y-8550000D03*
%TD*%
D30*
%TO.C,SW1*%
X24500000Y-16700000D03*
X24500000Y-18500000D03*
D31*
X22700000Y-16880000D03*
X26300000Y-16880000D03*
X22700000Y-18320000D03*
X26300000Y-18320000D03*
%TD*%
D11*
%TO.C,J2_1*%
X245000000Y-8730000D03*
%TD*%
%TO.C,TP3*%
X51300000Y-18700000D03*
%TD*%
D15*
%TO.C,R9*%
X28190000Y-17600000D03*
X29210000Y-17600000D03*
%TD*%
D11*
%TO.C,TP10*%
X29500000Y-12500000D03*
%TD*%
%TO.C,TP2*%
X49000000Y-18700000D03*
%TD*%
D16*
%TO.C,LD3*%
X95683000Y-13450000D03*
X98983000Y-13450000D03*
X98983000Y-8550000D03*
X95683000Y-8550000D03*
%TD*%
D11*
%TO.C,J2_2*%
X245000000Y-11270000D03*
%TD*%
%TO.C,TP5*%
X59000000Y-7000000D03*
%TD*%
%TO.C,TP4*%
X246000000Y-17500000D03*
%TD*%
D16*
%TO.C,LD9*%
X195683000Y-13450000D03*
X198983000Y-13450000D03*
X198983000Y-8550000D03*
X195683000Y-8550000D03*
%TD*%
D15*
%TO.C,R3*%
X56990000Y-16800000D03*
X58010000Y-16800000D03*
%TD*%
D17*
%TO.C,C2*%
X32050000Y-12500000D03*
X33950000Y-12500000D03*
%TD*%
D15*
%TO.C,R2*%
X5290000Y-18600000D03*
X6310000Y-18600000D03*
%TD*%
D32*
%TO.C,C1*%
X24000000Y-13450000D03*
X24000000Y-6950000D03*
%TD*%
D15*
%TO.C,R8*%
X34990000Y-2200000D03*
X36010000Y-2200000D03*
%TD*%
D11*
%TO.C,TP8*%
X35800000Y-12500000D03*
%TD*%
D16*
%TO.C,LD6*%
X145683000Y-13450000D03*
X148983000Y-13450000D03*
X148983000Y-8550000D03*
X145683000Y-8550000D03*
%TD*%
D10*
%TO.C,C14*%
X134067000Y-15980000D03*
X134067000Y-15020000D03*
%TD*%
D19*
%TO.C,H1*%
X13500000Y-2100000D03*
%TD*%
D10*
%TO.C,C16*%
X167400000Y-15980000D03*
X167400000Y-15020000D03*
%TD*%
D16*
%TO.C,LD1*%
X62350000Y-13450000D03*
X65650000Y-13450000D03*
X65650000Y-8550000D03*
X62350000Y-8550000D03*
%TD*%
M02*
