%TF.GenerationSoftware,KiCad,Pcbnew,10.0.5*%
%TF.CreationDate,2026-08-20T14:07:53+02:00*%
%TF.ProjectId,fl11,666c3131-2e6b-4696-9361-645f70636258,rev?*%
%TF.SameCoordinates,Original*%
%TF.FileFunction,Soldermask,Top*%
%TF.FilePolarity,Negative*%
%FSLAX46Y46*%
G04 Gerber Fmt 4.6, Leading zero omitted, Abs format (unit mm)*
G04 Created by KiCad (PCBNEW 10.0.5) date 2026-08-20 14:07:53*
%MOMM*%
%LPD*%
G01*
G04 APERTURE LIST*
G04 Aperture macros list*
%AMRoundRect*
0 Rectangle with rounded corners*
0 $1 Rounding radius*
0 $2 $3 $4 $5 $6 $7 $8 $9 X,Y pos of 4 corners*
0 Add a 4 corners polygon primitive as box body*
4,1,4,$2,$3,$4,$5,$6,$7,$8,$9,$2,$3,0*
0 Add four circle primitives for the rounded corners*
1,1,$1+$1,$2,$3*
1,1,$1+$1,$4,$5*
1,1,$1+$1,$6,$7*
1,1,$1+$1,$8,$9*
0 Add four rect primitives between the rounded corners*
20,1,$1+$1,$2,$3,$4,$5,0*
20,1,$1+$1,$4,$5,$6,$7,0*
20,1,$1+$1,$6,$7,$8,$9,0*
20,1,$1+$1,$8,$9,$2,$3,0*%
%AMFreePoly0*
4,1,6,0.725000,-0.725000,-0.725000,-0.725000,-0.725000,0.125000,-0.125000,0.725000,0.725000,0.725000,0.725000,-0.725000,0.725000,-0.725000,$1*%
G04 Aperture macros list end*
%ADD10RoundRect,0.140000X0.170000X-0.140000X0.170000X0.140000X-0.170000X0.140000X-0.170000X-0.140000X0*%
%ADD11RoundRect,0.140000X-0.140000X-0.170000X0.140000X-0.170000X0.140000X0.170000X-0.140000X0.170000X0*%
%ADD12RoundRect,0.135000X-0.135000X-0.185000X0.135000X-0.185000X0.135000X0.185000X-0.135000X0.185000X0*%
%ADD13C,2.700000*%
%ADD14RoundRect,0.250000X-0.250000X-0.475000X0.250000X-0.475000X0.250000X0.475000X-0.250000X0.475000X0*%
%ADD15RoundRect,0.090000X0.360000X-0.660000X0.360000X0.660000X-0.360000X0.660000X-0.360000X-0.660000X0*%
%ADD16C,1.000000*%
%ADD17RoundRect,0.250000X-1.500000X-1.000000X1.500000X-1.000000X1.500000X1.000000X-1.500000X1.000000X0*%
%ADD18RoundRect,0.150000X-0.587500X-0.150000X0.587500X-0.150000X0.587500X0.150000X-0.587500X0.150000X0*%
%ADD19RoundRect,0.150000X-0.512500X-0.150000X0.512500X-0.150000X0.512500X0.150000X-0.512500X0.150000X0*%
%ADD20C,0.650000*%
%ADD21RoundRect,0.150000X-0.150000X-0.575000X0.150000X-0.575000X0.150000X0.575000X-0.150000X0.575000X0*%
%ADD22RoundRect,0.075000X-0.075000X-0.650000X0.075000X-0.650000X0.075000X0.650000X-0.075000X0.650000X0*%
%ADD23O,1.000000X2.100000*%
%ADD24O,1.000000X1.600000*%
%ADD25C,0.700000*%
%ADD26RoundRect,0.250000X-0.450000X-0.275000X0.450000X-0.275000X0.450000X0.275000X-0.450000X0.275000X0*%
%ADD27R,0.800000X0.400000*%
%ADD28R,0.400000X0.800000*%
%ADD29FreePoly0,180.000000*%
%ADD30R,1.450000X1.450000*%
%ADD31R,0.700000X0.700000*%
%ADD32RoundRect,0.250000X-0.312500X-1.450000X0.312500X-1.450000X0.312500X1.450000X-0.312500X1.450000X0*%
G04 APERTURE END LIST*
D10*
%TO.C,C18*%
X146733360Y-15980000D03*
X146733360Y-15020000D03*
%TD*%
D11*
%TO.C,C9*%
X109520000Y-33000000D03*
X110480000Y-33000000D03*
%TD*%
%TO.C,C6*%
X84020000Y-31500000D03*
X84980000Y-31500000D03*
%TD*%
D10*
%TO.C,C20*%
X180066700Y-15980000D03*
X180066700Y-15020000D03*
%TD*%
D12*
%TO.C,R1*%
X86990000Y-45500000D03*
X88010000Y-45500000D03*
%TD*%
D13*
%TO.C,H2*%
X114000000Y-43000000D03*
%TD*%
D14*
%TO.C,C3*%
X109050000Y-25500000D03*
X110950000Y-25500000D03*
%TD*%
D10*
%TO.C,C11*%
X30066670Y-15980000D03*
X30066670Y-15020000D03*
%TD*%
D15*
%TO.C,LD6*%
X91683350Y-13450000D03*
X94983350Y-13450000D03*
X94983350Y-8550000D03*
X91683350Y-8550000D03*
%TD*%
D10*
%TO.C,C19*%
X163400030Y-15980000D03*
X163400030Y-15020000D03*
%TD*%
D12*
%TO.C,R6*%
X113990000Y-36000000D03*
X115010000Y-36000000D03*
%TD*%
%TO.C,R9*%
X94490000Y-27000000D03*
X95510000Y-27000000D03*
%TD*%
D15*
%TO.C,LD4*%
X58350010Y-13450000D03*
X61650010Y-13450000D03*
X61650010Y-8550000D03*
X58350010Y-8550000D03*
%TD*%
D10*
%TO.C,C16*%
X113400020Y-15980000D03*
X113400020Y-15020000D03*
%TD*%
%TO.C,C17*%
X130066690Y-15980000D03*
X130066690Y-15020000D03*
%TD*%
D16*
%TO.C,TP11*%
X93500000Y-21500000D03*
%TD*%
D14*
%TO.C,C4*%
X113550000Y-30500000D03*
X115450000Y-30500000D03*
%TD*%
D16*
%TO.C,TP6*%
X106500000Y-27000000D03*
%TD*%
D11*
%TO.C,C7*%
X112020000Y-22000000D03*
X112980000Y-22000000D03*
%TD*%
D16*
%TO.C,TP10*%
X108500000Y-44500000D03*
%TD*%
D17*
%TO.C,C1*%
X76750000Y-25000000D03*
X83250000Y-25000000D03*
%TD*%
D15*
%TO.C,LD10*%
X158350030Y-13450000D03*
X161650030Y-13450000D03*
X161650030Y-8550000D03*
X158350030Y-8550000D03*
%TD*%
D12*
%TO.C,R4*%
X113990000Y-33500000D03*
X115010000Y-33500000D03*
%TD*%
D16*
%TO.C,J3_2*%
X128000000Y-41000000D03*
%TD*%
D14*
%TO.C,C5*%
X83050000Y-34500000D03*
X84950000Y-34500000D03*
%TD*%
D13*
%TO.C,H1*%
X76500000Y-34000000D03*
%TD*%
D12*
%TO.C,R7*%
X103990000Y-27000000D03*
X105010000Y-27000000D03*
%TD*%
D16*
%TO.C,TP4*%
X122500000Y-44500000D03*
%TD*%
D10*
%TO.C,C12*%
X46733340Y-15980000D03*
X46733340Y-15020000D03*
%TD*%
%TO.C,C13*%
X63400010Y-15980000D03*
X63400010Y-15020000D03*
%TD*%
%TO.C,C10*%
X13400000Y-15980000D03*
X13400000Y-15020000D03*
%TD*%
D12*
%TO.C,R11*%
X87990000Y-35000000D03*
X89010000Y-35000000D03*
%TD*%
D18*
%TO.C,Q1*%
X104062500Y-22050000D03*
X104062500Y-23950000D03*
X105937500Y-23000000D03*
%TD*%
D15*
%TO.C,LD3*%
X41683340Y-13450000D03*
X44983340Y-13450000D03*
X44983340Y-8550000D03*
X41683340Y-8550000D03*
%TD*%
D12*
%TO.C,R2*%
X89990000Y-45500000D03*
X91010000Y-45500000D03*
%TD*%
%TO.C,R10*%
X101490000Y-27000000D03*
X102510000Y-27000000D03*
%TD*%
D15*
%TO.C,LD2*%
X25016670Y-13450000D03*
X28316670Y-13450000D03*
X28316670Y-8550000D03*
X25016670Y-8550000D03*
%TD*%
D16*
%TO.C,TP7*%
X183000000Y-15500000D03*
%TD*%
D11*
%TO.C,C8*%
X97020000Y-27000000D03*
X97980000Y-27000000D03*
%TD*%
D15*
%TO.C,LD8*%
X125016690Y-13450000D03*
X128316690Y-13450000D03*
X128316690Y-8550000D03*
X125016690Y-8550000D03*
%TD*%
D12*
%TO.C,R3*%
X90990000Y-31500000D03*
X92010000Y-31500000D03*
%TD*%
D19*
%TO.C,U4*%
X88062500Y-40550000D03*
X88062500Y-41500000D03*
X88062500Y-42450000D03*
X90337500Y-42450000D03*
X90337500Y-41500000D03*
X90337500Y-40550000D03*
%TD*%
D20*
%TO.C,J1*%
X77110000Y-41200000D03*
X82890000Y-41200000D03*
D21*
X76750000Y-39755000D03*
X77550000Y-39755000D03*
D22*
X78750000Y-39755000D03*
X79750000Y-39755000D03*
X80250000Y-39755000D03*
X81250000Y-39755000D03*
D21*
X82450000Y-39755000D03*
X83250000Y-39755000D03*
X83250000Y-39755000D03*
X82450000Y-39755000D03*
D22*
X81750000Y-39755000D03*
X80750000Y-39755000D03*
X79250000Y-39755000D03*
X78250000Y-39755000D03*
D21*
X77550000Y-39755000D03*
X76750000Y-39755000D03*
D23*
X75680000Y-40670000D03*
D24*
X75680000Y-44850000D03*
D23*
X84320000Y-40670000D03*
D24*
X84320000Y-44850000D03*
%TD*%
D10*
%TO.C,C14*%
X80066680Y-15980000D03*
X80066680Y-15020000D03*
%TD*%
D12*
%TO.C,R8*%
X109490000Y-22000000D03*
X110510000Y-22000000D03*
%TD*%
D10*
%TO.C,C15*%
X96733350Y-15980000D03*
X96733350Y-15020000D03*
%TD*%
D15*
%TO.C,LD11*%
X175016700Y-13450000D03*
X178316700Y-13450000D03*
X178316700Y-8550000D03*
X175016700Y-8550000D03*
%TD*%
%TO.C,LD5*%
X75016680Y-13450000D03*
X78316680Y-13450000D03*
X78316680Y-8550000D03*
X75016680Y-8550000D03*
%TD*%
D16*
%TO.C,J2_1*%
X117500000Y-28000000D03*
%TD*%
D19*
%TO.C,U2*%
X87362500Y-30550000D03*
X87362500Y-31500000D03*
X87362500Y-32450000D03*
X89637500Y-32450000D03*
X89637500Y-30550000D03*
%TD*%
D25*
%TO.C,SW1*%
X90000000Y-23100000D03*
X90000000Y-24900000D03*
D26*
X88200000Y-23280000D03*
X91800000Y-23280000D03*
X88200000Y-24720000D03*
X91800000Y-24720000D03*
%TD*%
D16*
%TO.C,TP5*%
X80000000Y-37000000D03*
%TD*%
D15*
%TO.C,LD1*%
X8350000Y-13450000D03*
X11650000Y-13450000D03*
X11650000Y-8550000D03*
X8350000Y-8550000D03*
%TD*%
%TO.C,LD7*%
X108350020Y-13450000D03*
X111650020Y-13450000D03*
X111650020Y-8550000D03*
X108350020Y-8550000D03*
%TD*%
D16*
%TO.C,J3_1*%
X128000000Y-28000000D03*
%TD*%
D15*
%TO.C,LD9*%
X141683360Y-13450000D03*
X144983360Y-13450000D03*
X144983360Y-8550000D03*
X141683360Y-8550000D03*
%TD*%
D16*
%TO.C,TP1*%
X116000000Y-21000000D03*
%TD*%
D27*
%TO.C,U1*%
X105900000Y-39300000D03*
X105900000Y-38500000D03*
X105900000Y-37700000D03*
X105900000Y-36900000D03*
X105900000Y-36100000D03*
X105900000Y-35300000D03*
X105900000Y-34500000D03*
X105900000Y-33700000D03*
X105900000Y-32900000D03*
X105900000Y-32100000D03*
X105900000Y-31300000D03*
D28*
X104800000Y-30400000D03*
X104000000Y-30400000D03*
X103200000Y-30400000D03*
X102400000Y-30400000D03*
X101600000Y-30400000D03*
X100800000Y-30400000D03*
X100000000Y-30400000D03*
X99200000Y-30400000D03*
X98400000Y-30400000D03*
X97600000Y-30400000D03*
X96800000Y-30400000D03*
X96000000Y-30400000D03*
X95200000Y-30400000D03*
D27*
X94100000Y-31300000D03*
X94100000Y-32100000D03*
X94100000Y-32900000D03*
X94100000Y-33700000D03*
X94100000Y-34500000D03*
X94100000Y-35300000D03*
X94100000Y-36100000D03*
X94100000Y-36900000D03*
X94100000Y-37700000D03*
X94100000Y-38500000D03*
X94100000Y-39300000D03*
D28*
X95200000Y-40200000D03*
X96000000Y-40200000D03*
X96800000Y-40200000D03*
X97600000Y-40200000D03*
X98400000Y-40200000D03*
X99200000Y-40200000D03*
X100000000Y-40200000D03*
X100800000Y-40200000D03*
X101600000Y-40200000D03*
X102400000Y-40200000D03*
X103200000Y-40200000D03*
X104000000Y-40200000D03*
X104800000Y-40200000D03*
D29*
X101975000Y-37275000D03*
D30*
X101975000Y-35300000D03*
X101975000Y-33325000D03*
X100000000Y-37275000D03*
X100000000Y-35300000D03*
X100000000Y-33325000D03*
X98025000Y-37275000D03*
X98025000Y-35300000D03*
X98025000Y-33325000D03*
D31*
X94050000Y-40250000D03*
X94050000Y-30350000D03*
X105950000Y-30350000D03*
X105950000Y-40250000D03*
%TD*%
D32*
%TO.C,F1*%
X95862500Y-23000000D03*
X100137500Y-23000000D03*
%TD*%
D14*
%TO.C,C2*%
X109050000Y-30500000D03*
X110950000Y-30500000D03*
%TD*%
D16*
%TO.C,TP9*%
X108500000Y-42000000D03*
%TD*%
D12*
%TO.C,R5*%
X109490000Y-36000000D03*
X110510000Y-36000000D03*
%TD*%
D16*
%TO.C,J2_2*%
X117500000Y-41000000D03*
%TD*%
%TO.C,TP2*%
X118000000Y-30500000D03*
%TD*%
%TO.C,TP3*%
X118000000Y-33000000D03*
%TD*%
%TO.C,TP8*%
X108500000Y-39500000D03*
%TD*%
D19*
%TO.C,U3*%
X114862500Y-24050000D03*
X114862500Y-25000000D03*
X114862500Y-25950000D03*
X117137500Y-25950000D03*
X117137500Y-24050000D03*
%TD*%
M02*
