M48
; DRILL file KiCad 10.0.5 date 2026-08-20T14:57:33
; FORMAT={-:-/ absolute / metric / decimal}
; #@! TF.CreationDate,2026-08-20T14:57:33+02:00
; #@! TF.GenerationSoftware,Kicad,Pcbnew,10.0.5
; #@! TF.FileFunction,Plated,1,2,PTH
FMAT,2
METRIC
; #@! TA.AperFunction,Plated,PTH,ViaDrill
T1C0.300
; #@! TA.AperFunction,Plated,PTH,ComponentDrill
T2C0.600
%
G90
G05
T1
X6.0Y-2.0
X6.0Y-4.0
X6.0Y-6.0
X11.0Y-2.0
X11.0Y-4.0
X11.0Y-6.0
X13.88Y-15.1
X16.0Y-2.0
X16.0Y-4.0
X16.0Y-6.0
X21.0Y-2.0
X21.0Y-4.0
X21.0Y-6.0
X25.013Y-15.1
X26.0Y-2.0
X26.0Y-4.0
X26.0Y-6.0
X31.0Y-2.0
X31.0Y-4.0
X31.0Y-6.0
X36.0Y-2.0
X36.0Y-4.0
X36.0Y-6.0
X36.147Y-15.1
X41.0Y-2.0
X41.0Y-4.0
X41.0Y-6.0
X46.0Y-2.0
X46.0Y-4.0
X46.0Y-6.0
X47.28Y-15.1
X51.0Y-2.0
X51.0Y-4.0
X51.0Y-6.0
X56.0Y-2.0
X56.0Y-4.0
X56.0Y-6.0
X58.413Y-15.1
X61.0Y-2.0
X61.0Y-4.0
X61.0Y-6.0
X66.0Y-2.0
X66.0Y-4.0
X66.0Y-6.0
X69.547Y-15.1
X71.0Y-2.0
X71.0Y-4.0
X71.0Y-6.0
X72.702Y-6.988
X74.0Y-39.0
X74.0Y-43.0
X74.0Y-46.5
X76.0Y-2.0
X76.0Y-4.0
X76.0Y-6.0
X76.0Y-29.5
X76.0Y-44.0
X76.754Y-38.327
X78.0Y-21.0
X78.0Y-24.0
X78.0Y-31.0
X78.0Y-43.0
X78.0Y-46.5
X79.025Y-38.488
X80.514Y-38.453
X80.68Y-15.1
X80.84Y-41.263
X81.0Y-2.0
X81.0Y-4.0
X81.0Y-6.0
X82.0Y-21.0
X82.0Y-24.0
X82.0Y-27.0
X82.0Y-35.0
X82.0Y-46.5
X82.501Y-38.327
X83.25Y-25.0
X85.354Y-41.218
X85.438Y-43.515
X86.0Y-2.0
X86.0Y-4.0
X86.0Y-6.0
X86.0Y-21.0
X86.0Y-24.0
X86.0Y-27.0
X86.0Y-31.0
X86.0Y-35.0
X86.0Y-46.5
X86.686Y-41.752
X87.362Y-29.65
X87.362Y-32.45
X88.0Y-45.5
X88.01Y-45.5
X88.062Y-41.5
X88.2Y-24.72
X89.591Y-38.66
X90.0Y-21.0
X91.0Y-2.0
X91.0Y-4.0
X91.0Y-6.0
X91.01Y-45.5
X91.813Y-15.1
X93.352Y-23.138
X93.413Y-29.166
X95.794Y-32.506
X96.0Y-2.0
X96.0Y-4.0
X96.0Y-6.0
X96.156Y-28.919
X96.474Y-18.329
X96.474Y-35.341
X96.474Y-38.176
X96.598Y-36.252
X97.243Y-22.901
X97.243Y-24.0
X101.0Y-2.0
X101.0Y-4.0
X101.0Y-6.0
X102.947Y-15.1
X103.41Y-27.9
X104.651Y-31.342
X105.388Y-29.076
X106.0Y-2.0
X106.0Y-4.0
X106.0Y-6.0
X107.387Y-39.423
X108.034Y-35.062
X108.36Y-23.628
X110.481Y-37.292
X110.51Y-20.5
X110.95Y-30.5
X111.0Y-2.0
X111.0Y-4.0
X111.0Y-6.0
X111.0Y-46.427
X111.267Y-40.88
X111.331Y-34.392
X111.331Y-38.176
X112.184Y-26.084
X112.5Y-46.1
X113.17Y-36.08
X113.458Y-23.591
X113.833Y-32.203
X114.0Y-46.5
X114.08Y-15.1
X114.601Y-31.587
X115.532Y-21.959
X116.0Y-2.0
X116.0Y-4.0
X116.0Y-6.0
X116.35Y-30.5
X117.0Y-22.0
X117.0Y-45.5
X117.6Y-36.0
X118.0Y-21.0
X118.0Y-43.0
X118.0Y-46.5
X121.0Y-2.0
X121.0Y-4.0
X121.0Y-6.0
X122.5Y-44.5
X125.213Y-15.1
X126.0Y-2.0
X126.0Y-4.0
X126.0Y-6.0
X131.0Y-2.0
X131.0Y-4.0
X131.0Y-6.0
X136.0Y-2.0
X136.0Y-4.0
X136.0Y-6.0
X136.347Y-15.1
X141.0Y-2.0
X141.0Y-4.0
X141.0Y-6.0
X146.0Y-2.0
X146.0Y-4.0
X146.0Y-6.0
X147.48Y-15.1
X151.0Y-2.0
X151.0Y-4.0
X151.0Y-6.0
X156.0Y-2.0
X156.0Y-4.0
X156.0Y-6.0
X158.613Y-15.1
X161.0Y-2.0
X161.0Y-4.0
X161.0Y-6.0
X166.0Y-2.0
X166.0Y-4.0
X166.0Y-6.0
X169.747Y-15.1
X171.0Y-2.0
X171.0Y-4.0
X171.0Y-6.0
X176.0Y-2.0
X176.0Y-4.0
X176.0Y-6.0
X181.0Y-2.0
X181.0Y-4.0
X181.0Y-6.0
T2
X75.68Y-40.12G85X75.68Y-41.22
G05
X75.68Y-44.55G85X75.68Y-45.15
G05
X84.32Y-40.12G85X84.32Y-41.22
G05
X84.32Y-44.55G85X84.32Y-45.15
G05
M30
