%TF.GenerationSoftware,KiCad,Pcbnew,10.0.5*%
%TF.CreationDate,2026-08-20T12:21:45+02:00*%
%TF.ProjectId,fl11,666c3131-2e6b-4696-9361-645f70636258,rev?*%
%TF.SameCoordinates,Original*%
%TF.FileFunction,Legend,Top*%
%TF.FilePolarity,Positive*%
%FSLAX46Y46*%
G04 Gerber Fmt 4.6, Leading zero omitted, Abs format (unit mm)*
G04 Created by KiCad (PCBNEW 10.0.5) date 2026-08-20 12:21:45*
%MOMM*%
%LPD*%
G01*
G04 APERTURE LIST*
%ADD10C,0.150000*%
%ADD11C,0.120000*%
G04 APERTURE END LIST*
D10*
X149932580Y-16142857D02*
X149980200Y-16190476D01*
X149980200Y-16190476D02*
X150027819Y-16333333D01*
X150027819Y-16333333D02*
X150027819Y-16428571D01*
X150027819Y-16428571D02*
X149980200Y-16571428D01*
X149980200Y-16571428D02*
X149884961Y-16666666D01*
X149884961Y-16666666D02*
X149789723Y-16714285D01*
X149789723Y-16714285D02*
X149599247Y-16761904D01*
X149599247Y-16761904D02*
X149456390Y-16761904D01*
X149456390Y-16761904D02*
X149265914Y-16714285D01*
X149265914Y-16714285D02*
X149170676Y-16666666D01*
X149170676Y-16666666D02*
X149075438Y-16571428D01*
X149075438Y-16571428D02*
X149027819Y-16428571D01*
X149027819Y-16428571D02*
X149027819Y-16333333D01*
X149027819Y-16333333D02*
X149075438Y-16190476D01*
X149075438Y-16190476D02*
X149123057Y-16142857D01*
X150027819Y-15190476D02*
X150027819Y-15761904D01*
X150027819Y-15476190D02*
X149027819Y-15476190D01*
X149027819Y-15476190D02*
X149170676Y-15571428D01*
X149170676Y-15571428D02*
X149265914Y-15666666D01*
X149265914Y-15666666D02*
X149313533Y-15761904D01*
X149027819Y-14285714D02*
X149027819Y-14761904D01*
X149027819Y-14761904D02*
X149504009Y-14809523D01*
X149504009Y-14809523D02*
X149456390Y-14761904D01*
X149456390Y-14761904D02*
X149408771Y-14666666D01*
X149408771Y-14666666D02*
X149408771Y-14428571D01*
X149408771Y-14428571D02*
X149456390Y-14333333D01*
X149456390Y-14333333D02*
X149504009Y-14285714D01*
X149504009Y-14285714D02*
X149599247Y-14238095D01*
X149599247Y-14238095D02*
X149837342Y-14238095D01*
X149837342Y-14238095D02*
X149932580Y-14285714D01*
X149932580Y-14285714D02*
X149980200Y-14333333D01*
X149980200Y-14333333D02*
X150027819Y-14428571D01*
X150027819Y-14428571D02*
X150027819Y-14666666D01*
X150027819Y-14666666D02*
X149980200Y-14761904D01*
X149980200Y-14761904D02*
X149932580Y-14809523D01*
X14261905Y-5506819D02*
X14833333Y-5506819D01*
X14547619Y-6506819D02*
X14547619Y-5506819D01*
X15166667Y-6506819D02*
X15166667Y-5506819D01*
X15166667Y-5506819D02*
X15547619Y-5506819D01*
X15547619Y-5506819D02*
X15642857Y-5554438D01*
X15642857Y-5554438D02*
X15690476Y-5602057D01*
X15690476Y-5602057D02*
X15738095Y-5697295D01*
X15738095Y-5697295D02*
X15738095Y-5840152D01*
X15738095Y-5840152D02*
X15690476Y-5935390D01*
X15690476Y-5935390D02*
X15642857Y-5983009D01*
X15642857Y-5983009D02*
X15547619Y-6030628D01*
X15547619Y-6030628D02*
X15166667Y-6030628D01*
X16690476Y-6506819D02*
X16119048Y-6506819D01*
X16404762Y-6506819D02*
X16404762Y-5506819D01*
X16404762Y-5506819D02*
X16309524Y-5649676D01*
X16309524Y-5649676D02*
X16214286Y-5744914D01*
X16214286Y-5744914D02*
X16119048Y-5792533D01*
X17642857Y-6506819D02*
X17071429Y-6506819D01*
X17357143Y-6506819D02*
X17357143Y-5506819D01*
X17357143Y-5506819D02*
X17261905Y-5649676D01*
X17261905Y-5649676D02*
X17166667Y-5744914D01*
X17166667Y-5744914D02*
X17071429Y-5792533D01*
X30833333Y-16799580D02*
X30785714Y-16847200D01*
X30785714Y-16847200D02*
X30642857Y-16894819D01*
X30642857Y-16894819D02*
X30547619Y-16894819D01*
X30547619Y-16894819D02*
X30404762Y-16847200D01*
X30404762Y-16847200D02*
X30309524Y-16751961D01*
X30309524Y-16751961D02*
X30261905Y-16656723D01*
X30261905Y-16656723D02*
X30214286Y-16466247D01*
X30214286Y-16466247D02*
X30214286Y-16323390D01*
X30214286Y-16323390D02*
X30261905Y-16132914D01*
X30261905Y-16132914D02*
X30309524Y-16037676D01*
X30309524Y-16037676D02*
X30404762Y-15942438D01*
X30404762Y-15942438D02*
X30547619Y-15894819D01*
X30547619Y-15894819D02*
X30642857Y-15894819D01*
X30642857Y-15894819D02*
X30785714Y-15942438D01*
X30785714Y-15942438D02*
X30833333Y-15990057D01*
X31404762Y-16323390D02*
X31309524Y-16275771D01*
X31309524Y-16275771D02*
X31261905Y-16228152D01*
X31261905Y-16228152D02*
X31214286Y-16132914D01*
X31214286Y-16132914D02*
X31214286Y-16085295D01*
X31214286Y-16085295D02*
X31261905Y-15990057D01*
X31261905Y-15990057D02*
X31309524Y-15942438D01*
X31309524Y-15942438D02*
X31404762Y-15894819D01*
X31404762Y-15894819D02*
X31595238Y-15894819D01*
X31595238Y-15894819D02*
X31690476Y-15942438D01*
X31690476Y-15942438D02*
X31738095Y-15990057D01*
X31738095Y-15990057D02*
X31785714Y-16085295D01*
X31785714Y-16085295D02*
X31785714Y-16132914D01*
X31785714Y-16132914D02*
X31738095Y-16228152D01*
X31738095Y-16228152D02*
X31690476Y-16275771D01*
X31690476Y-16275771D02*
X31595238Y-16323390D01*
X31595238Y-16323390D02*
X31404762Y-16323390D01*
X31404762Y-16323390D02*
X31309524Y-16371009D01*
X31309524Y-16371009D02*
X31261905Y-16418628D01*
X31261905Y-16418628D02*
X31214286Y-16513866D01*
X31214286Y-16513866D02*
X31214286Y-16704342D01*
X31214286Y-16704342D02*
X31261905Y-16799580D01*
X31261905Y-16799580D02*
X31309524Y-16847200D01*
X31309524Y-16847200D02*
X31404762Y-16894819D01*
X31404762Y-16894819D02*
X31595238Y-16894819D01*
X31595238Y-16894819D02*
X31690476Y-16847200D01*
X31690476Y-16847200D02*
X31738095Y-16799580D01*
X31738095Y-16799580D02*
X31785714Y-16704342D01*
X31785714Y-16704342D02*
X31785714Y-16513866D01*
X31785714Y-16513866D02*
X31738095Y-16418628D01*
X31738095Y-16418628D02*
X31690476Y-16371009D01*
X31690476Y-16371009D02*
X31595238Y-16323390D01*
X57338095Y-1606819D02*
X57909523Y-1606819D01*
X57623809Y-2606819D02*
X57623809Y-1606819D01*
X58242857Y-2606819D02*
X58242857Y-1606819D01*
X58242857Y-1606819D02*
X58623809Y-1606819D01*
X58623809Y-1606819D02*
X58719047Y-1654438D01*
X58719047Y-1654438D02*
X58766666Y-1702057D01*
X58766666Y-1702057D02*
X58814285Y-1797295D01*
X58814285Y-1797295D02*
X58814285Y-1940152D01*
X58814285Y-1940152D02*
X58766666Y-2035390D01*
X58766666Y-2035390D02*
X58719047Y-2083009D01*
X58719047Y-2083009D02*
X58623809Y-2130628D01*
X58623809Y-2130628D02*
X58242857Y-2130628D01*
X59671428Y-1606819D02*
X59480952Y-1606819D01*
X59480952Y-1606819D02*
X59385714Y-1654438D01*
X59385714Y-1654438D02*
X59338095Y-1702057D01*
X59338095Y-1702057D02*
X59242857Y-1844914D01*
X59242857Y-1844914D02*
X59195238Y-2035390D01*
X59195238Y-2035390D02*
X59195238Y-2416342D01*
X59195238Y-2416342D02*
X59242857Y-2511580D01*
X59242857Y-2511580D02*
X59290476Y-2559200D01*
X59290476Y-2559200D02*
X59385714Y-2606819D01*
X59385714Y-2606819D02*
X59576190Y-2606819D01*
X59576190Y-2606819D02*
X59671428Y-2559200D01*
X59671428Y-2559200D02*
X59719047Y-2511580D01*
X59719047Y-2511580D02*
X59766666Y-2416342D01*
X59766666Y-2416342D02*
X59766666Y-2178247D01*
X59766666Y-2178247D02*
X59719047Y-2083009D01*
X59719047Y-2083009D02*
X59671428Y-2035390D01*
X59671428Y-2035390D02*
X59576190Y-1987771D01*
X59576190Y-1987771D02*
X59385714Y-1987771D01*
X59385714Y-1987771D02*
X59290476Y-2035390D01*
X59290476Y-2035390D02*
X59242857Y-2083009D01*
X59242857Y-2083009D02*
X59195238Y-2178247D01*
X32238095Y-6054819D02*
X32238095Y-6864342D01*
X32238095Y-6864342D02*
X32285714Y-6959580D01*
X32285714Y-6959580D02*
X32333333Y-7007200D01*
X32333333Y-7007200D02*
X32428571Y-7054819D01*
X32428571Y-7054819D02*
X32619047Y-7054819D01*
X32619047Y-7054819D02*
X32714285Y-7007200D01*
X32714285Y-7007200D02*
X32761904Y-6959580D01*
X32761904Y-6959580D02*
X32809523Y-6864342D01*
X32809523Y-6864342D02*
X32809523Y-6054819D01*
X33190476Y-6054819D02*
X33809523Y-6054819D01*
X33809523Y-6054819D02*
X33476190Y-6435771D01*
X33476190Y-6435771D02*
X33619047Y-6435771D01*
X33619047Y-6435771D02*
X33714285Y-6483390D01*
X33714285Y-6483390D02*
X33761904Y-6531009D01*
X33761904Y-6531009D02*
X33809523Y-6626247D01*
X33809523Y-6626247D02*
X33809523Y-6864342D01*
X33809523Y-6864342D02*
X33761904Y-6959580D01*
X33761904Y-6959580D02*
X33714285Y-7007200D01*
X33714285Y-7007200D02*
X33619047Y-7054819D01*
X33619047Y-7054819D02*
X33333333Y-7054819D01*
X33333333Y-7054819D02*
X33238095Y-7007200D01*
X33238095Y-7007200D02*
X33190476Y-6959580D01*
X216599580Y-16142857D02*
X216647200Y-16190476D01*
X216647200Y-16190476D02*
X216694819Y-16333333D01*
X216694819Y-16333333D02*
X216694819Y-16428571D01*
X216694819Y-16428571D02*
X216647200Y-16571428D01*
X216647200Y-16571428D02*
X216551961Y-16666666D01*
X216551961Y-16666666D02*
X216456723Y-16714285D01*
X216456723Y-16714285D02*
X216266247Y-16761904D01*
X216266247Y-16761904D02*
X216123390Y-16761904D01*
X216123390Y-16761904D02*
X215932914Y-16714285D01*
X215932914Y-16714285D02*
X215837676Y-16666666D01*
X215837676Y-16666666D02*
X215742438Y-16571428D01*
X215742438Y-16571428D02*
X215694819Y-16428571D01*
X215694819Y-16428571D02*
X215694819Y-16333333D01*
X215694819Y-16333333D02*
X215742438Y-16190476D01*
X215742438Y-16190476D02*
X215790057Y-16142857D01*
X216694819Y-15190476D02*
X216694819Y-15761904D01*
X216694819Y-15476190D02*
X215694819Y-15476190D01*
X215694819Y-15476190D02*
X215837676Y-15571428D01*
X215837676Y-15571428D02*
X215932914Y-15666666D01*
X215932914Y-15666666D02*
X215980533Y-15761904D01*
X216694819Y-14714285D02*
X216694819Y-14523809D01*
X216694819Y-14523809D02*
X216647200Y-14428571D01*
X216647200Y-14428571D02*
X216599580Y-14380952D01*
X216599580Y-14380952D02*
X216456723Y-14285714D01*
X216456723Y-14285714D02*
X216266247Y-14238095D01*
X216266247Y-14238095D02*
X215885295Y-14238095D01*
X215885295Y-14238095D02*
X215790057Y-14285714D01*
X215790057Y-14285714D02*
X215742438Y-14333333D01*
X215742438Y-14333333D02*
X215694819Y-14428571D01*
X215694819Y-14428571D02*
X215694819Y-14619047D01*
X215694819Y-14619047D02*
X215742438Y-14714285D01*
X215742438Y-14714285D02*
X215790057Y-14761904D01*
X215790057Y-14761904D02*
X215885295Y-14809523D01*
X215885295Y-14809523D02*
X216123390Y-14809523D01*
X216123390Y-14809523D02*
X216218628Y-14761904D01*
X216218628Y-14761904D02*
X216266247Y-14714285D01*
X216266247Y-14714285D02*
X216313866Y-14619047D01*
X216313866Y-14619047D02*
X216313866Y-14428571D01*
X216313866Y-14428571D02*
X216266247Y-14333333D01*
X216266247Y-14333333D02*
X216218628Y-14285714D01*
X216218628Y-14285714D02*
X216123390Y-14238095D01*
X252809523Y-9276819D02*
X252809523Y-9991104D01*
X252809523Y-9991104D02*
X252761904Y-10133961D01*
X252761904Y-10133961D02*
X252666666Y-10229200D01*
X252666666Y-10229200D02*
X252523809Y-10276819D01*
X252523809Y-10276819D02*
X252428571Y-10276819D01*
X253190476Y-9276819D02*
X253809523Y-9276819D01*
X253809523Y-9276819D02*
X253476190Y-9657771D01*
X253476190Y-9657771D02*
X253619047Y-9657771D01*
X253619047Y-9657771D02*
X253714285Y-9705390D01*
X253714285Y-9705390D02*
X253761904Y-9753009D01*
X253761904Y-9753009D02*
X253809523Y-9848247D01*
X253809523Y-9848247D02*
X253809523Y-10086342D01*
X253809523Y-10086342D02*
X253761904Y-10181580D01*
X253761904Y-10181580D02*
X253714285Y-10229200D01*
X253714285Y-10229200D02*
X253619047Y-10276819D01*
X253619047Y-10276819D02*
X253333333Y-10276819D01*
X253333333Y-10276819D02*
X253238095Y-10229200D01*
X253238095Y-10229200D02*
X253190476Y-10181580D01*
X254000000Y-10372057D02*
X254761904Y-10372057D01*
X254952381Y-9372057D02*
X255000000Y-9324438D01*
X255000000Y-9324438D02*
X255095238Y-9276819D01*
X255095238Y-9276819D02*
X255333333Y-9276819D01*
X255333333Y-9276819D02*
X255428571Y-9324438D01*
X255428571Y-9324438D02*
X255476190Y-9372057D01*
X255476190Y-9372057D02*
X255523809Y-9467295D01*
X255523809Y-9467295D02*
X255523809Y-9562533D01*
X255523809Y-9562533D02*
X255476190Y-9705390D01*
X255476190Y-9705390D02*
X254904762Y-10276819D01*
X254904762Y-10276819D02*
X255523809Y-10276819D01*
X19666666Y118990D02*
X19333333Y118990D01*
X19333333Y-404819D02*
X19333333Y595180D01*
X19333333Y595180D02*
X19809523Y595180D01*
X20714285Y-404819D02*
X20142857Y-404819D01*
X20428571Y-404819D02*
X20428571Y595180D01*
X20428571Y595180D02*
X20333333Y452323D01*
X20333333Y452323D02*
X20238095Y357085D01*
X20238095Y357085D02*
X20142857Y309466D01*
X41333333Y-17984819D02*
X41000000Y-17508628D01*
X40761905Y-17984819D02*
X40761905Y-16984819D01*
X40761905Y-16984819D02*
X41142857Y-16984819D01*
X41142857Y-16984819D02*
X41238095Y-17032438D01*
X41238095Y-17032438D02*
X41285714Y-17080057D01*
X41285714Y-17080057D02*
X41333333Y-17175295D01*
X41333333Y-17175295D02*
X41333333Y-17318152D01*
X41333333Y-17318152D02*
X41285714Y-17413390D01*
X41285714Y-17413390D02*
X41238095Y-17461009D01*
X41238095Y-17461009D02*
X41142857Y-17508628D01*
X41142857Y-17508628D02*
X40761905Y-17508628D01*
X42190476Y-17318152D02*
X42190476Y-17984819D01*
X41952381Y-16937200D02*
X41714286Y-17651485D01*
X41714286Y-17651485D02*
X42333333Y-17651485D01*
X183266580Y-16142857D02*
X183314200Y-16190476D01*
X183314200Y-16190476D02*
X183361819Y-16333333D01*
X183361819Y-16333333D02*
X183361819Y-16428571D01*
X183361819Y-16428571D02*
X183314200Y-16571428D01*
X183314200Y-16571428D02*
X183218961Y-16666666D01*
X183218961Y-16666666D02*
X183123723Y-16714285D01*
X183123723Y-16714285D02*
X182933247Y-16761904D01*
X182933247Y-16761904D02*
X182790390Y-16761904D01*
X182790390Y-16761904D02*
X182599914Y-16714285D01*
X182599914Y-16714285D02*
X182504676Y-16666666D01*
X182504676Y-16666666D02*
X182409438Y-16571428D01*
X182409438Y-16571428D02*
X182361819Y-16428571D01*
X182361819Y-16428571D02*
X182361819Y-16333333D01*
X182361819Y-16333333D02*
X182409438Y-16190476D01*
X182409438Y-16190476D02*
X182457057Y-16142857D01*
X183361819Y-15190476D02*
X183361819Y-15761904D01*
X183361819Y-15476190D02*
X182361819Y-15476190D01*
X182361819Y-15476190D02*
X182504676Y-15571428D01*
X182504676Y-15571428D02*
X182599914Y-15666666D01*
X182599914Y-15666666D02*
X182647533Y-15761904D01*
X182361819Y-14857142D02*
X182361819Y-14190476D01*
X182361819Y-14190476D02*
X183361819Y-14619047D01*
X160954819Y-11666666D02*
X160954819Y-12142856D01*
X160954819Y-12142856D02*
X159954819Y-12142856D01*
X160954819Y-11333332D02*
X159954819Y-11333332D01*
X159954819Y-11333332D02*
X159954819Y-11095237D01*
X159954819Y-11095237D02*
X160002438Y-10952380D01*
X160002438Y-10952380D02*
X160097676Y-10857142D01*
X160097676Y-10857142D02*
X160192914Y-10809523D01*
X160192914Y-10809523D02*
X160383390Y-10761904D01*
X160383390Y-10761904D02*
X160526247Y-10761904D01*
X160526247Y-10761904D02*
X160716723Y-10809523D01*
X160716723Y-10809523D02*
X160811961Y-10857142D01*
X160811961Y-10857142D02*
X160907200Y-10952380D01*
X160907200Y-10952380D02*
X160954819Y-11095237D01*
X160954819Y-11095237D02*
X160954819Y-11333332D01*
X159954819Y-10428570D02*
X159954819Y-9761904D01*
X159954819Y-9761904D02*
X160954819Y-10190475D01*
X162762295Y-14771428D02*
X162762295Y-15228571D01*
X162762295Y-14999999D02*
X161962295Y-14999999D01*
X161962295Y-14999999D02*
X162076580Y-15076190D01*
X162076580Y-15076190D02*
X162152771Y-15152380D01*
X162152771Y-15152380D02*
X162190866Y-15228571D01*
X116599580Y-16142857D02*
X116647200Y-16190476D01*
X116647200Y-16190476D02*
X116694819Y-16333333D01*
X116694819Y-16333333D02*
X116694819Y-16428571D01*
X116694819Y-16428571D02*
X116647200Y-16571428D01*
X116647200Y-16571428D02*
X116551961Y-16666666D01*
X116551961Y-16666666D02*
X116456723Y-16714285D01*
X116456723Y-16714285D02*
X116266247Y-16761904D01*
X116266247Y-16761904D02*
X116123390Y-16761904D01*
X116123390Y-16761904D02*
X115932914Y-16714285D01*
X115932914Y-16714285D02*
X115837676Y-16666666D01*
X115837676Y-16666666D02*
X115742438Y-16571428D01*
X115742438Y-16571428D02*
X115694819Y-16428571D01*
X115694819Y-16428571D02*
X115694819Y-16333333D01*
X115694819Y-16333333D02*
X115742438Y-16190476D01*
X115742438Y-16190476D02*
X115790057Y-16142857D01*
X116694819Y-15190476D02*
X116694819Y-15761904D01*
X116694819Y-15476190D02*
X115694819Y-15476190D01*
X115694819Y-15476190D02*
X115837676Y-15571428D01*
X115837676Y-15571428D02*
X115932914Y-15666666D01*
X115932914Y-15666666D02*
X115980533Y-15761904D01*
X115694819Y-14857142D02*
X115694819Y-14238095D01*
X115694819Y-14238095D02*
X116075771Y-14571428D01*
X116075771Y-14571428D02*
X116075771Y-14428571D01*
X116075771Y-14428571D02*
X116123390Y-14333333D01*
X116123390Y-14333333D02*
X116171009Y-14285714D01*
X116171009Y-14285714D02*
X116266247Y-14238095D01*
X116266247Y-14238095D02*
X116504342Y-14238095D01*
X116504342Y-14238095D02*
X116599580Y-14285714D01*
X116599580Y-14285714D02*
X116647200Y-14333333D01*
X116647200Y-14333333D02*
X116694819Y-14428571D01*
X116694819Y-14428571D02*
X116694819Y-14714285D01*
X116694819Y-14714285D02*
X116647200Y-14809523D01*
X116647200Y-14809523D02*
X116599580Y-14857142D01*
X32833333Y-4479580D02*
X32785714Y-4527200D01*
X32785714Y-4527200D02*
X32642857Y-4574819D01*
X32642857Y-4574819D02*
X32547619Y-4574819D01*
X32547619Y-4574819D02*
X32404762Y-4527200D01*
X32404762Y-4527200D02*
X32309524Y-4431961D01*
X32309524Y-4431961D02*
X32261905Y-4336723D01*
X32261905Y-4336723D02*
X32214286Y-4146247D01*
X32214286Y-4146247D02*
X32214286Y-4003390D01*
X32214286Y-4003390D02*
X32261905Y-3812914D01*
X32261905Y-3812914D02*
X32309524Y-3717676D01*
X32309524Y-3717676D02*
X32404762Y-3622438D01*
X32404762Y-3622438D02*
X32547619Y-3574819D01*
X32547619Y-3574819D02*
X32642857Y-3574819D01*
X32642857Y-3574819D02*
X32785714Y-3622438D01*
X32785714Y-3622438D02*
X32833333Y-3670057D01*
X33166667Y-3574819D02*
X33785714Y-3574819D01*
X33785714Y-3574819D02*
X33452381Y-3955771D01*
X33452381Y-3955771D02*
X33595238Y-3955771D01*
X33595238Y-3955771D02*
X33690476Y-4003390D01*
X33690476Y-4003390D02*
X33738095Y-4051009D01*
X33738095Y-4051009D02*
X33785714Y-4146247D01*
X33785714Y-4146247D02*
X33785714Y-4384342D01*
X33785714Y-4384342D02*
X33738095Y-4479580D01*
X33738095Y-4479580D02*
X33690476Y-4527200D01*
X33690476Y-4527200D02*
X33595238Y-4574819D01*
X33595238Y-4574819D02*
X33309524Y-4574819D01*
X33309524Y-4574819D02*
X33214286Y-4527200D01*
X33214286Y-4527200D02*
X33166667Y-4479580D01*
X99932580Y-16142857D02*
X99980200Y-16190476D01*
X99980200Y-16190476D02*
X100027819Y-16333333D01*
X100027819Y-16333333D02*
X100027819Y-16428571D01*
X100027819Y-16428571D02*
X99980200Y-16571428D01*
X99980200Y-16571428D02*
X99884961Y-16666666D01*
X99884961Y-16666666D02*
X99789723Y-16714285D01*
X99789723Y-16714285D02*
X99599247Y-16761904D01*
X99599247Y-16761904D02*
X99456390Y-16761904D01*
X99456390Y-16761904D02*
X99265914Y-16714285D01*
X99265914Y-16714285D02*
X99170676Y-16666666D01*
X99170676Y-16666666D02*
X99075438Y-16571428D01*
X99075438Y-16571428D02*
X99027819Y-16428571D01*
X99027819Y-16428571D02*
X99027819Y-16333333D01*
X99027819Y-16333333D02*
X99075438Y-16190476D01*
X99075438Y-16190476D02*
X99123057Y-16142857D01*
X100027819Y-15190476D02*
X100027819Y-15761904D01*
X100027819Y-15476190D02*
X99027819Y-15476190D01*
X99027819Y-15476190D02*
X99170676Y-15571428D01*
X99170676Y-15571428D02*
X99265914Y-15666666D01*
X99265914Y-15666666D02*
X99313533Y-15761904D01*
X99123057Y-14809523D02*
X99075438Y-14761904D01*
X99075438Y-14761904D02*
X99027819Y-14666666D01*
X99027819Y-14666666D02*
X99027819Y-14428571D01*
X99027819Y-14428571D02*
X99075438Y-14333333D01*
X99075438Y-14333333D02*
X99123057Y-14285714D01*
X99123057Y-14285714D02*
X99218295Y-14238095D01*
X99218295Y-14238095D02*
X99313533Y-14238095D01*
X99313533Y-14238095D02*
X99456390Y-14285714D01*
X99456390Y-14285714D02*
X100027819Y-14857142D01*
X100027819Y-14857142D02*
X100027819Y-14238095D01*
X83266580Y-16142857D02*
X83314200Y-16190476D01*
X83314200Y-16190476D02*
X83361819Y-16333333D01*
X83361819Y-16333333D02*
X83361819Y-16428571D01*
X83361819Y-16428571D02*
X83314200Y-16571428D01*
X83314200Y-16571428D02*
X83218961Y-16666666D01*
X83218961Y-16666666D02*
X83123723Y-16714285D01*
X83123723Y-16714285D02*
X82933247Y-16761904D01*
X82933247Y-16761904D02*
X82790390Y-16761904D01*
X82790390Y-16761904D02*
X82599914Y-16714285D01*
X82599914Y-16714285D02*
X82504676Y-16666666D01*
X82504676Y-16666666D02*
X82409438Y-16571428D01*
X82409438Y-16571428D02*
X82361819Y-16428571D01*
X82361819Y-16428571D02*
X82361819Y-16333333D01*
X82361819Y-16333333D02*
X82409438Y-16190476D01*
X82409438Y-16190476D02*
X82457057Y-16142857D01*
X83361819Y-15190476D02*
X83361819Y-15761904D01*
X83361819Y-15476190D02*
X82361819Y-15476190D01*
X82361819Y-15476190D02*
X82504676Y-15571428D01*
X82504676Y-15571428D02*
X82599914Y-15666666D01*
X82599914Y-15666666D02*
X82647533Y-15761904D01*
X83361819Y-14238095D02*
X83361819Y-14809523D01*
X83361819Y-14523809D02*
X82361819Y-14523809D01*
X82361819Y-14523809D02*
X82504676Y-14619047D01*
X82504676Y-14619047D02*
X82599914Y-14714285D01*
X82599914Y-14714285D02*
X82647533Y-14809523D01*
X57857142Y-12784819D02*
X57523809Y-12308628D01*
X57285714Y-12784819D02*
X57285714Y-11784819D01*
X57285714Y-11784819D02*
X57666666Y-11784819D01*
X57666666Y-11784819D02*
X57761904Y-11832438D01*
X57761904Y-11832438D02*
X57809523Y-11880057D01*
X57809523Y-11880057D02*
X57857142Y-11975295D01*
X57857142Y-11975295D02*
X57857142Y-12118152D01*
X57857142Y-12118152D02*
X57809523Y-12213390D01*
X57809523Y-12213390D02*
X57761904Y-12261009D01*
X57761904Y-12261009D02*
X57666666Y-12308628D01*
X57666666Y-12308628D02*
X57285714Y-12308628D01*
X58809523Y-12784819D02*
X58238095Y-12784819D01*
X58523809Y-12784819D02*
X58523809Y-11784819D01*
X58523809Y-11784819D02*
X58428571Y-11927676D01*
X58428571Y-11927676D02*
X58333333Y-12022914D01*
X58333333Y-12022914D02*
X58238095Y-12070533D01*
X59761904Y-12784819D02*
X59190476Y-12784819D01*
X59476190Y-12784819D02*
X59476190Y-11784819D01*
X59476190Y-11784819D02*
X59380952Y-11927676D01*
X59380952Y-11927676D02*
X59285714Y-12022914D01*
X59285714Y-12022914D02*
X59190476Y-12070533D01*
X51733333Y-12699580D02*
X51685714Y-12747200D01*
X51685714Y-12747200D02*
X51542857Y-12794819D01*
X51542857Y-12794819D02*
X51447619Y-12794819D01*
X51447619Y-12794819D02*
X51304762Y-12747200D01*
X51304762Y-12747200D02*
X51209524Y-12651961D01*
X51209524Y-12651961D02*
X51161905Y-12556723D01*
X51161905Y-12556723D02*
X51114286Y-12366247D01*
X51114286Y-12366247D02*
X51114286Y-12223390D01*
X51114286Y-12223390D02*
X51161905Y-12032914D01*
X51161905Y-12032914D02*
X51209524Y-11937676D01*
X51209524Y-11937676D02*
X51304762Y-11842438D01*
X51304762Y-11842438D02*
X51447619Y-11794819D01*
X51447619Y-11794819D02*
X51542857Y-11794819D01*
X51542857Y-11794819D02*
X51685714Y-11842438D01*
X51685714Y-11842438D02*
X51733333Y-11890057D01*
X52590476Y-11794819D02*
X52400000Y-11794819D01*
X52400000Y-11794819D02*
X52304762Y-11842438D01*
X52304762Y-11842438D02*
X52257143Y-11890057D01*
X52257143Y-11890057D02*
X52161905Y-12032914D01*
X52161905Y-12032914D02*
X52114286Y-12223390D01*
X52114286Y-12223390D02*
X52114286Y-12604342D01*
X52114286Y-12604342D02*
X52161905Y-12699580D01*
X52161905Y-12699580D02*
X52209524Y-12747200D01*
X52209524Y-12747200D02*
X52304762Y-12794819D01*
X52304762Y-12794819D02*
X52495238Y-12794819D01*
X52495238Y-12794819D02*
X52590476Y-12747200D01*
X52590476Y-12747200D02*
X52638095Y-12699580D01*
X52638095Y-12699580D02*
X52685714Y-12604342D01*
X52685714Y-12604342D02*
X52685714Y-12366247D01*
X52685714Y-12366247D02*
X52638095Y-12271009D01*
X52638095Y-12271009D02*
X52590476Y-12223390D01*
X52590476Y-12223390D02*
X52495238Y-12175771D01*
X52495238Y-12175771D02*
X52304762Y-12175771D01*
X52304762Y-12175771D02*
X52209524Y-12223390D01*
X52209524Y-12223390D02*
X52161905Y-12271009D01*
X52161905Y-12271009D02*
X52114286Y-12366247D01*
X30404761Y-950057D02*
X30309523Y-902438D01*
X30309523Y-902438D02*
X30214285Y-807200D01*
X30214285Y-807200D02*
X30071428Y-664342D01*
X30071428Y-664342D02*
X29976190Y-616723D01*
X29976190Y-616723D02*
X29880952Y-616723D01*
X29928571Y-854819D02*
X29833333Y-807200D01*
X29833333Y-807200D02*
X29738095Y-711961D01*
X29738095Y-711961D02*
X29690476Y-521485D01*
X29690476Y-521485D02*
X29690476Y-188152D01*
X29690476Y-188152D02*
X29738095Y2323D01*
X29738095Y2323D02*
X29833333Y97561D01*
X29833333Y97561D02*
X29928571Y145180D01*
X29928571Y145180D02*
X30119047Y145180D01*
X30119047Y145180D02*
X30214285Y97561D01*
X30214285Y97561D02*
X30309523Y2323D01*
X30309523Y2323D02*
X30357142Y-188152D01*
X30357142Y-188152D02*
X30357142Y-521485D01*
X30357142Y-521485D02*
X30309523Y-711961D01*
X30309523Y-711961D02*
X30214285Y-807200D01*
X30214285Y-807200D02*
X30119047Y-854819D01*
X30119047Y-854819D02*
X29928571Y-854819D01*
X31309523Y-854819D02*
X30738095Y-854819D01*
X31023809Y-854819D02*
X31023809Y145180D01*
X31023809Y145180D02*
X30928571Y2323D01*
X30928571Y2323D02*
X30833333Y-92914D01*
X30833333Y-92914D02*
X30738095Y-140533D01*
X43833333Y-17984819D02*
X43500000Y-17508628D01*
X43261905Y-17984819D02*
X43261905Y-16984819D01*
X43261905Y-16984819D02*
X43642857Y-16984819D01*
X43642857Y-16984819D02*
X43738095Y-17032438D01*
X43738095Y-17032438D02*
X43785714Y-17080057D01*
X43785714Y-17080057D02*
X43833333Y-17175295D01*
X43833333Y-17175295D02*
X43833333Y-17318152D01*
X43833333Y-17318152D02*
X43785714Y-17413390D01*
X43785714Y-17413390D02*
X43738095Y-17461009D01*
X43738095Y-17461009D02*
X43642857Y-17508628D01*
X43642857Y-17508628D02*
X43261905Y-17508628D01*
X44738095Y-16984819D02*
X44261905Y-16984819D01*
X44261905Y-16984819D02*
X44214286Y-17461009D01*
X44214286Y-17461009D02*
X44261905Y-17413390D01*
X44261905Y-17413390D02*
X44357143Y-17365771D01*
X44357143Y-17365771D02*
X44595238Y-17365771D01*
X44595238Y-17365771D02*
X44690476Y-17413390D01*
X44690476Y-17413390D02*
X44738095Y-17461009D01*
X44738095Y-17461009D02*
X44785714Y-17556247D01*
X44785714Y-17556247D02*
X44785714Y-17794342D01*
X44785714Y-17794342D02*
X44738095Y-17889580D01*
X44738095Y-17889580D02*
X44690476Y-17937200D01*
X44690476Y-17937200D02*
X44595238Y-17984819D01*
X44595238Y-17984819D02*
X44357143Y-17984819D01*
X44357143Y-17984819D02*
X44261905Y-17937200D01*
X44261905Y-17937200D02*
X44214286Y-17889580D01*
X227621819Y-12142857D02*
X227621819Y-12619047D01*
X227621819Y-12619047D02*
X226621819Y-12619047D01*
X227621819Y-11809523D02*
X226621819Y-11809523D01*
X226621819Y-11809523D02*
X226621819Y-11571428D01*
X226621819Y-11571428D02*
X226669438Y-11428571D01*
X226669438Y-11428571D02*
X226764676Y-11333333D01*
X226764676Y-11333333D02*
X226859914Y-11285714D01*
X226859914Y-11285714D02*
X227050390Y-11238095D01*
X227050390Y-11238095D02*
X227193247Y-11238095D01*
X227193247Y-11238095D02*
X227383723Y-11285714D01*
X227383723Y-11285714D02*
X227478961Y-11333333D01*
X227478961Y-11333333D02*
X227574200Y-11428571D01*
X227574200Y-11428571D02*
X227621819Y-11571428D01*
X227621819Y-11571428D02*
X227621819Y-11809523D01*
X227621819Y-10285714D02*
X227621819Y-10857142D01*
X227621819Y-10571428D02*
X226621819Y-10571428D01*
X226621819Y-10571428D02*
X226764676Y-10666666D01*
X226764676Y-10666666D02*
X226859914Y-10761904D01*
X226859914Y-10761904D02*
X226907533Y-10857142D01*
X227621819Y-9333333D02*
X227621819Y-9904761D01*
X227621819Y-9619047D02*
X226621819Y-9619047D01*
X226621819Y-9619047D02*
X226764676Y-9714285D01*
X226764676Y-9714285D02*
X226859914Y-9809523D01*
X226859914Y-9809523D02*
X226907533Y-9904761D01*
X229429295Y-14771428D02*
X229429295Y-15228571D01*
X229429295Y-14999999D02*
X228629295Y-14999999D01*
X228629295Y-14999999D02*
X228743580Y-15076190D01*
X228743580Y-15076190D02*
X228819771Y-15152380D01*
X228819771Y-15152380D02*
X228857866Y-15228571D01*
X54738095Y-10554819D02*
X54738095Y-11364342D01*
X54738095Y-11364342D02*
X54785714Y-11459580D01*
X54785714Y-11459580D02*
X54833333Y-11507200D01*
X54833333Y-11507200D02*
X54928571Y-11554819D01*
X54928571Y-11554819D02*
X55119047Y-11554819D01*
X55119047Y-11554819D02*
X55214285Y-11507200D01*
X55214285Y-11507200D02*
X55261904Y-11459580D01*
X55261904Y-11459580D02*
X55309523Y-11364342D01*
X55309523Y-11364342D02*
X55309523Y-10554819D01*
X55738095Y-10650057D02*
X55785714Y-10602438D01*
X55785714Y-10602438D02*
X55880952Y-10554819D01*
X55880952Y-10554819D02*
X56119047Y-10554819D01*
X56119047Y-10554819D02*
X56214285Y-10602438D01*
X56214285Y-10602438D02*
X56261904Y-10650057D01*
X56261904Y-10650057D02*
X56309523Y-10745295D01*
X56309523Y-10745295D02*
X56309523Y-10840533D01*
X56309523Y-10840533D02*
X56261904Y-10983390D01*
X56261904Y-10983390D02*
X55690476Y-11554819D01*
X55690476Y-11554819D02*
X56309523Y-11554819D01*
X199932580Y-16142857D02*
X199980200Y-16190476D01*
X199980200Y-16190476D02*
X200027819Y-16333333D01*
X200027819Y-16333333D02*
X200027819Y-16428571D01*
X200027819Y-16428571D02*
X199980200Y-16571428D01*
X199980200Y-16571428D02*
X199884961Y-16666666D01*
X199884961Y-16666666D02*
X199789723Y-16714285D01*
X199789723Y-16714285D02*
X199599247Y-16761904D01*
X199599247Y-16761904D02*
X199456390Y-16761904D01*
X199456390Y-16761904D02*
X199265914Y-16714285D01*
X199265914Y-16714285D02*
X199170676Y-16666666D01*
X199170676Y-16666666D02*
X199075438Y-16571428D01*
X199075438Y-16571428D02*
X199027819Y-16428571D01*
X199027819Y-16428571D02*
X199027819Y-16333333D01*
X199027819Y-16333333D02*
X199075438Y-16190476D01*
X199075438Y-16190476D02*
X199123057Y-16142857D01*
X200027819Y-15190476D02*
X200027819Y-15761904D01*
X200027819Y-15476190D02*
X199027819Y-15476190D01*
X199027819Y-15476190D02*
X199170676Y-15571428D01*
X199170676Y-15571428D02*
X199265914Y-15666666D01*
X199265914Y-15666666D02*
X199313533Y-15761904D01*
X199456390Y-14619047D02*
X199408771Y-14714285D01*
X199408771Y-14714285D02*
X199361152Y-14761904D01*
X199361152Y-14761904D02*
X199265914Y-14809523D01*
X199265914Y-14809523D02*
X199218295Y-14809523D01*
X199218295Y-14809523D02*
X199123057Y-14761904D01*
X199123057Y-14761904D02*
X199075438Y-14714285D01*
X199075438Y-14714285D02*
X199027819Y-14619047D01*
X199027819Y-14619047D02*
X199027819Y-14428571D01*
X199027819Y-14428571D02*
X199075438Y-14333333D01*
X199075438Y-14333333D02*
X199123057Y-14285714D01*
X199123057Y-14285714D02*
X199218295Y-14238095D01*
X199218295Y-14238095D02*
X199265914Y-14238095D01*
X199265914Y-14238095D02*
X199361152Y-14285714D01*
X199361152Y-14285714D02*
X199408771Y-14333333D01*
X199408771Y-14333333D02*
X199456390Y-14428571D01*
X199456390Y-14428571D02*
X199456390Y-14619047D01*
X199456390Y-14619047D02*
X199504009Y-14714285D01*
X199504009Y-14714285D02*
X199551628Y-14761904D01*
X199551628Y-14761904D02*
X199646866Y-14809523D01*
X199646866Y-14809523D02*
X199837342Y-14809523D01*
X199837342Y-14809523D02*
X199932580Y-14761904D01*
X199932580Y-14761904D02*
X199980200Y-14714285D01*
X199980200Y-14714285D02*
X200027819Y-14619047D01*
X200027819Y-14619047D02*
X200027819Y-14428571D01*
X200027819Y-14428571D02*
X199980200Y-14333333D01*
X199980200Y-14333333D02*
X199932580Y-14285714D01*
X199932580Y-14285714D02*
X199837342Y-14238095D01*
X199837342Y-14238095D02*
X199646866Y-14238095D01*
X199646866Y-14238095D02*
X199551628Y-14285714D01*
X199551628Y-14285714D02*
X199504009Y-14333333D01*
X199504009Y-14333333D02*
X199456390Y-14428571D01*
X177621819Y-11666666D02*
X177621819Y-12142856D01*
X177621819Y-12142856D02*
X176621819Y-12142856D01*
X177621819Y-11333332D02*
X176621819Y-11333332D01*
X176621819Y-11333332D02*
X176621819Y-11095237D01*
X176621819Y-11095237D02*
X176669438Y-10952380D01*
X176669438Y-10952380D02*
X176764676Y-10857142D01*
X176764676Y-10857142D02*
X176859914Y-10809523D01*
X176859914Y-10809523D02*
X177050390Y-10761904D01*
X177050390Y-10761904D02*
X177193247Y-10761904D01*
X177193247Y-10761904D02*
X177383723Y-10809523D01*
X177383723Y-10809523D02*
X177478961Y-10857142D01*
X177478961Y-10857142D02*
X177574200Y-10952380D01*
X177574200Y-10952380D02*
X177621819Y-11095237D01*
X177621819Y-11095237D02*
X177621819Y-11333332D01*
X177050390Y-10190475D02*
X177002771Y-10285713D01*
X177002771Y-10285713D02*
X176955152Y-10333332D01*
X176955152Y-10333332D02*
X176859914Y-10380951D01*
X176859914Y-10380951D02*
X176812295Y-10380951D01*
X176812295Y-10380951D02*
X176717057Y-10333332D01*
X176717057Y-10333332D02*
X176669438Y-10285713D01*
X176669438Y-10285713D02*
X176621819Y-10190475D01*
X176621819Y-10190475D02*
X176621819Y-9999999D01*
X176621819Y-9999999D02*
X176669438Y-9904761D01*
X176669438Y-9904761D02*
X176717057Y-9857142D01*
X176717057Y-9857142D02*
X176812295Y-9809523D01*
X176812295Y-9809523D02*
X176859914Y-9809523D01*
X176859914Y-9809523D02*
X176955152Y-9857142D01*
X176955152Y-9857142D02*
X177002771Y-9904761D01*
X177002771Y-9904761D02*
X177050390Y-9999999D01*
X177050390Y-9999999D02*
X177050390Y-10190475D01*
X177050390Y-10190475D02*
X177098009Y-10285713D01*
X177098009Y-10285713D02*
X177145628Y-10333332D01*
X177145628Y-10333332D02*
X177240866Y-10380951D01*
X177240866Y-10380951D02*
X177431342Y-10380951D01*
X177431342Y-10380951D02*
X177526580Y-10333332D01*
X177526580Y-10333332D02*
X177574200Y-10285713D01*
X177574200Y-10285713D02*
X177621819Y-10190475D01*
X177621819Y-10190475D02*
X177621819Y-9999999D01*
X177621819Y-9999999D02*
X177574200Y-9904761D01*
X177574200Y-9904761D02*
X177526580Y-9857142D01*
X177526580Y-9857142D02*
X177431342Y-9809523D01*
X177431342Y-9809523D02*
X177240866Y-9809523D01*
X177240866Y-9809523D02*
X177145628Y-9857142D01*
X177145628Y-9857142D02*
X177098009Y-9904761D01*
X177098009Y-9904761D02*
X177050390Y-9999999D01*
X179429295Y-14771428D02*
X179429295Y-15228571D01*
X179429295Y-14999999D02*
X178629295Y-14999999D01*
X178629295Y-14999999D02*
X178743580Y-15076190D01*
X178743580Y-15076190D02*
X178819771Y-15152380D01*
X178819771Y-15152380D02*
X178857866Y-15228571D01*
X110954819Y-11666666D02*
X110954819Y-12142856D01*
X110954819Y-12142856D02*
X109954819Y-12142856D01*
X110954819Y-11333332D02*
X109954819Y-11333332D01*
X109954819Y-11333332D02*
X109954819Y-11095237D01*
X109954819Y-11095237D02*
X110002438Y-10952380D01*
X110002438Y-10952380D02*
X110097676Y-10857142D01*
X110097676Y-10857142D02*
X110192914Y-10809523D01*
X110192914Y-10809523D02*
X110383390Y-10761904D01*
X110383390Y-10761904D02*
X110526247Y-10761904D01*
X110526247Y-10761904D02*
X110716723Y-10809523D01*
X110716723Y-10809523D02*
X110811961Y-10857142D01*
X110811961Y-10857142D02*
X110907200Y-10952380D01*
X110907200Y-10952380D02*
X110954819Y-11095237D01*
X110954819Y-11095237D02*
X110954819Y-11333332D01*
X110288152Y-9904761D02*
X110954819Y-9904761D01*
X109907200Y-10142856D02*
X110621485Y-10380951D01*
X110621485Y-10380951D02*
X110621485Y-9761904D01*
X112762295Y-14771428D02*
X112762295Y-15228571D01*
X112762295Y-14999999D02*
X111962295Y-14999999D01*
X111962295Y-14999999D02*
X112076580Y-15076190D01*
X112076580Y-15076190D02*
X112152771Y-15152380D01*
X112152771Y-15152380D02*
X112190866Y-15228571D01*
X35333333Y-3199580D02*
X35285714Y-3247200D01*
X35285714Y-3247200D02*
X35142857Y-3294819D01*
X35142857Y-3294819D02*
X35047619Y-3294819D01*
X35047619Y-3294819D02*
X34904762Y-3247200D01*
X34904762Y-3247200D02*
X34809524Y-3151961D01*
X34809524Y-3151961D02*
X34761905Y-3056723D01*
X34761905Y-3056723D02*
X34714286Y-2866247D01*
X34714286Y-2866247D02*
X34714286Y-2723390D01*
X34714286Y-2723390D02*
X34761905Y-2532914D01*
X34761905Y-2532914D02*
X34809524Y-2437676D01*
X34809524Y-2437676D02*
X34904762Y-2342438D01*
X34904762Y-2342438D02*
X35047619Y-2294819D01*
X35047619Y-2294819D02*
X35142857Y-2294819D01*
X35142857Y-2294819D02*
X35285714Y-2342438D01*
X35285714Y-2342438D02*
X35333333Y-2390057D01*
X35666667Y-2294819D02*
X36333333Y-2294819D01*
X36333333Y-2294819D02*
X35904762Y-3294819D01*
X127621819Y-11666666D02*
X127621819Y-12142856D01*
X127621819Y-12142856D02*
X126621819Y-12142856D01*
X127621819Y-11333332D02*
X126621819Y-11333332D01*
X126621819Y-11333332D02*
X126621819Y-11095237D01*
X126621819Y-11095237D02*
X126669438Y-10952380D01*
X126669438Y-10952380D02*
X126764676Y-10857142D01*
X126764676Y-10857142D02*
X126859914Y-10809523D01*
X126859914Y-10809523D02*
X127050390Y-10761904D01*
X127050390Y-10761904D02*
X127193247Y-10761904D01*
X127193247Y-10761904D02*
X127383723Y-10809523D01*
X127383723Y-10809523D02*
X127478961Y-10857142D01*
X127478961Y-10857142D02*
X127574200Y-10952380D01*
X127574200Y-10952380D02*
X127621819Y-11095237D01*
X127621819Y-11095237D02*
X127621819Y-11333332D01*
X126621819Y-9857142D02*
X126621819Y-10333332D01*
X126621819Y-10333332D02*
X127098009Y-10380951D01*
X127098009Y-10380951D02*
X127050390Y-10333332D01*
X127050390Y-10333332D02*
X127002771Y-10238094D01*
X127002771Y-10238094D02*
X127002771Y-9999999D01*
X127002771Y-9999999D02*
X127050390Y-9904761D01*
X127050390Y-9904761D02*
X127098009Y-9857142D01*
X127098009Y-9857142D02*
X127193247Y-9809523D01*
X127193247Y-9809523D02*
X127431342Y-9809523D01*
X127431342Y-9809523D02*
X127526580Y-9857142D01*
X127526580Y-9857142D02*
X127574200Y-9904761D01*
X127574200Y-9904761D02*
X127621819Y-9999999D01*
X127621819Y-9999999D02*
X127621819Y-10238094D01*
X127621819Y-10238094D02*
X127574200Y-10333332D01*
X127574200Y-10333332D02*
X127526580Y-10380951D01*
X129429295Y-14771428D02*
X129429295Y-15228571D01*
X129429295Y-14999999D02*
X128629295Y-14999999D01*
X128629295Y-14999999D02*
X128743580Y-15076190D01*
X128743580Y-15076190D02*
X128819771Y-15152380D01*
X128819771Y-15152380D02*
X128857866Y-15228571D01*
X33938095Y-13006819D02*
X34509523Y-13006819D01*
X34223809Y-14006819D02*
X34223809Y-13006819D01*
X34842857Y-14006819D02*
X34842857Y-13006819D01*
X34842857Y-13006819D02*
X35223809Y-13006819D01*
X35223809Y-13006819D02*
X35319047Y-13054438D01*
X35319047Y-13054438D02*
X35366666Y-13102057D01*
X35366666Y-13102057D02*
X35414285Y-13197295D01*
X35414285Y-13197295D02*
X35414285Y-13340152D01*
X35414285Y-13340152D02*
X35366666Y-13435390D01*
X35366666Y-13435390D02*
X35319047Y-13483009D01*
X35319047Y-13483009D02*
X35223809Y-13530628D01*
X35223809Y-13530628D02*
X34842857Y-13530628D01*
X35890476Y-14006819D02*
X36080952Y-14006819D01*
X36080952Y-14006819D02*
X36176190Y-13959200D01*
X36176190Y-13959200D02*
X36223809Y-13911580D01*
X36223809Y-13911580D02*
X36319047Y-13768723D01*
X36319047Y-13768723D02*
X36366666Y-13578247D01*
X36366666Y-13578247D02*
X36366666Y-13197295D01*
X36366666Y-13197295D02*
X36319047Y-13102057D01*
X36319047Y-13102057D02*
X36271428Y-13054438D01*
X36271428Y-13054438D02*
X36176190Y-13006819D01*
X36176190Y-13006819D02*
X35985714Y-13006819D01*
X35985714Y-13006819D02*
X35890476Y-13054438D01*
X35890476Y-13054438D02*
X35842857Y-13102057D01*
X35842857Y-13102057D02*
X35795238Y-13197295D01*
X35795238Y-13197295D02*
X35795238Y-13435390D01*
X35795238Y-13435390D02*
X35842857Y-13530628D01*
X35842857Y-13530628D02*
X35890476Y-13578247D01*
X35890476Y-13578247D02*
X35985714Y-13625866D01*
X35985714Y-13625866D02*
X36176190Y-13625866D01*
X36176190Y-13625866D02*
X36271428Y-13578247D01*
X36271428Y-13578247D02*
X36319047Y-13530628D01*
X36319047Y-13530628D02*
X36366666Y-13435390D01*
X52333333Y-9399580D02*
X52285714Y-9447200D01*
X52285714Y-9447200D02*
X52142857Y-9494819D01*
X52142857Y-9494819D02*
X52047619Y-9494819D01*
X52047619Y-9494819D02*
X51904762Y-9447200D01*
X51904762Y-9447200D02*
X51809524Y-9351961D01*
X51809524Y-9351961D02*
X51761905Y-9256723D01*
X51761905Y-9256723D02*
X51714286Y-9066247D01*
X51714286Y-9066247D02*
X51714286Y-8923390D01*
X51714286Y-8923390D02*
X51761905Y-8732914D01*
X51761905Y-8732914D02*
X51809524Y-8637676D01*
X51809524Y-8637676D02*
X51904762Y-8542438D01*
X51904762Y-8542438D02*
X52047619Y-8494819D01*
X52047619Y-8494819D02*
X52142857Y-8494819D01*
X52142857Y-8494819D02*
X52285714Y-8542438D01*
X52285714Y-8542438D02*
X52333333Y-8590057D01*
X52809524Y-9494819D02*
X53000000Y-9494819D01*
X53000000Y-9494819D02*
X53095238Y-9447200D01*
X53095238Y-9447200D02*
X53142857Y-9399580D01*
X53142857Y-9399580D02*
X53238095Y-9256723D01*
X53238095Y-9256723D02*
X53285714Y-9066247D01*
X53285714Y-9066247D02*
X53285714Y-8685295D01*
X53285714Y-8685295D02*
X53238095Y-8590057D01*
X53238095Y-8590057D02*
X53190476Y-8542438D01*
X53190476Y-8542438D02*
X53095238Y-8494819D01*
X53095238Y-8494819D02*
X52904762Y-8494819D01*
X52904762Y-8494819D02*
X52809524Y-8542438D01*
X52809524Y-8542438D02*
X52761905Y-8590057D01*
X52761905Y-8590057D02*
X52714286Y-8685295D01*
X52714286Y-8685295D02*
X52714286Y-8923390D01*
X52714286Y-8923390D02*
X52761905Y-9018628D01*
X52761905Y-9018628D02*
X52809524Y-9066247D01*
X52809524Y-9066247D02*
X52904762Y-9113866D01*
X52904762Y-9113866D02*
X53095238Y-9113866D01*
X53095238Y-9113866D02*
X53190476Y-9066247D01*
X53190476Y-9066247D02*
X53238095Y-9018628D01*
X53238095Y-9018628D02*
X53285714Y-8923390D01*
X252809523Y-6736819D02*
X252809523Y-7451104D01*
X252809523Y-7451104D02*
X252761904Y-7593961D01*
X252761904Y-7593961D02*
X252666666Y-7689200D01*
X252666666Y-7689200D02*
X252523809Y-7736819D01*
X252523809Y-7736819D02*
X252428571Y-7736819D01*
X253190476Y-6736819D02*
X253809523Y-6736819D01*
X253809523Y-6736819D02*
X253476190Y-7117771D01*
X253476190Y-7117771D02*
X253619047Y-7117771D01*
X253619047Y-7117771D02*
X253714285Y-7165390D01*
X253714285Y-7165390D02*
X253761904Y-7213009D01*
X253761904Y-7213009D02*
X253809523Y-7308247D01*
X253809523Y-7308247D02*
X253809523Y-7546342D01*
X253809523Y-7546342D02*
X253761904Y-7641580D01*
X253761904Y-7641580D02*
X253714285Y-7689200D01*
X253714285Y-7689200D02*
X253619047Y-7736819D01*
X253619047Y-7736819D02*
X253333333Y-7736819D01*
X253333333Y-7736819D02*
X253238095Y-7689200D01*
X253238095Y-7689200D02*
X253190476Y-7641580D01*
X254000000Y-7832057D02*
X254761904Y-7832057D01*
X255523809Y-7736819D02*
X254952381Y-7736819D01*
X255238095Y-7736819D02*
X255238095Y-6736819D01*
X255238095Y-6736819D02*
X255142857Y-6879676D01*
X255142857Y-6879676D02*
X255047619Y-6974914D01*
X255047619Y-6974914D02*
X254952381Y-7022533D01*
X57738095Y-13506819D02*
X58309523Y-13506819D01*
X58023809Y-14506819D02*
X58023809Y-13506819D01*
X58642857Y-14506819D02*
X58642857Y-13506819D01*
X58642857Y-13506819D02*
X59023809Y-13506819D01*
X59023809Y-13506819D02*
X59119047Y-13554438D01*
X59119047Y-13554438D02*
X59166666Y-13602057D01*
X59166666Y-13602057D02*
X59214285Y-13697295D01*
X59214285Y-13697295D02*
X59214285Y-13840152D01*
X59214285Y-13840152D02*
X59166666Y-13935390D01*
X59166666Y-13935390D02*
X59119047Y-13983009D01*
X59119047Y-13983009D02*
X59023809Y-14030628D01*
X59023809Y-14030628D02*
X58642857Y-14030628D01*
X60166666Y-14506819D02*
X59595238Y-14506819D01*
X59880952Y-14506819D02*
X59880952Y-13506819D01*
X59880952Y-13506819D02*
X59785714Y-13649676D01*
X59785714Y-13649676D02*
X59690476Y-13744914D01*
X59690476Y-13744914D02*
X59595238Y-13792533D01*
X3333333Y-17884819D02*
X3000000Y-17408628D01*
X2761905Y-17884819D02*
X2761905Y-16884819D01*
X2761905Y-16884819D02*
X3142857Y-16884819D01*
X3142857Y-16884819D02*
X3238095Y-16932438D01*
X3238095Y-16932438D02*
X3285714Y-16980057D01*
X3285714Y-16980057D02*
X3333333Y-17075295D01*
X3333333Y-17075295D02*
X3333333Y-17218152D01*
X3333333Y-17218152D02*
X3285714Y-17313390D01*
X3285714Y-17313390D02*
X3238095Y-17361009D01*
X3238095Y-17361009D02*
X3142857Y-17408628D01*
X3142857Y-17408628D02*
X2761905Y-17408628D01*
X4285714Y-17884819D02*
X3714286Y-17884819D01*
X4000000Y-17884819D02*
X4000000Y-16884819D01*
X4000000Y-16884819D02*
X3904762Y-17027676D01*
X3904762Y-17027676D02*
X3809524Y-17122914D01*
X3809524Y-17122914D02*
X3714286Y-17170533D01*
X18238095Y-14554819D02*
X18238095Y-15364342D01*
X18238095Y-15364342D02*
X18285714Y-15459580D01*
X18285714Y-15459580D02*
X18333333Y-15507200D01*
X18333333Y-15507200D02*
X18428571Y-15554819D01*
X18428571Y-15554819D02*
X18619047Y-15554819D01*
X18619047Y-15554819D02*
X18714285Y-15507200D01*
X18714285Y-15507200D02*
X18761904Y-15459580D01*
X18761904Y-15459580D02*
X18809523Y-15364342D01*
X18809523Y-15364342D02*
X18809523Y-14554819D01*
X19714285Y-14888152D02*
X19714285Y-15554819D01*
X19476190Y-14507200D02*
X19238095Y-15221485D01*
X19238095Y-15221485D02*
X19857142Y-15221485D01*
X12738095Y-14704819D02*
X12738095Y-13704819D01*
X12738095Y-14181009D02*
X13309523Y-14181009D01*
X13309523Y-14704819D02*
X13309523Y-13704819D01*
X13738095Y-13800057D02*
X13785714Y-13752438D01*
X13785714Y-13752438D02*
X13880952Y-13704819D01*
X13880952Y-13704819D02*
X14119047Y-13704819D01*
X14119047Y-13704819D02*
X14214285Y-13752438D01*
X14214285Y-13752438D02*
X14261904Y-13800057D01*
X14261904Y-13800057D02*
X14309523Y-13895295D01*
X14309523Y-13895295D02*
X14309523Y-13990533D01*
X14309523Y-13990533D02*
X14261904Y-14133390D01*
X14261904Y-14133390D02*
X13690476Y-14704819D01*
X13690476Y-14704819D02*
X14309523Y-14704819D01*
X238738095Y-11006819D02*
X239309523Y-11006819D01*
X239023809Y-12006819D02*
X239023809Y-11006819D01*
X239642857Y-12006819D02*
X239642857Y-11006819D01*
X239642857Y-11006819D02*
X240023809Y-11006819D01*
X240023809Y-11006819D02*
X240119047Y-11054438D01*
X240119047Y-11054438D02*
X240166666Y-11102057D01*
X240166666Y-11102057D02*
X240214285Y-11197295D01*
X240214285Y-11197295D02*
X240214285Y-11340152D01*
X240214285Y-11340152D02*
X240166666Y-11435390D01*
X240166666Y-11435390D02*
X240119047Y-11483009D01*
X240119047Y-11483009D02*
X240023809Y-11530628D01*
X240023809Y-11530628D02*
X239642857Y-11530628D01*
X240547619Y-11006819D02*
X241214285Y-11006819D01*
X241214285Y-11006819D02*
X240785714Y-12006819D01*
X233266580Y-16142857D02*
X233314200Y-16190476D01*
X233314200Y-16190476D02*
X233361819Y-16333333D01*
X233361819Y-16333333D02*
X233361819Y-16428571D01*
X233361819Y-16428571D02*
X233314200Y-16571428D01*
X233314200Y-16571428D02*
X233218961Y-16666666D01*
X233218961Y-16666666D02*
X233123723Y-16714285D01*
X233123723Y-16714285D02*
X232933247Y-16761904D01*
X232933247Y-16761904D02*
X232790390Y-16761904D01*
X232790390Y-16761904D02*
X232599914Y-16714285D01*
X232599914Y-16714285D02*
X232504676Y-16666666D01*
X232504676Y-16666666D02*
X232409438Y-16571428D01*
X232409438Y-16571428D02*
X232361819Y-16428571D01*
X232361819Y-16428571D02*
X232361819Y-16333333D01*
X232361819Y-16333333D02*
X232409438Y-16190476D01*
X232409438Y-16190476D02*
X232457057Y-16142857D01*
X232457057Y-15761904D02*
X232409438Y-15714285D01*
X232409438Y-15714285D02*
X232361819Y-15619047D01*
X232361819Y-15619047D02*
X232361819Y-15380952D01*
X232361819Y-15380952D02*
X232409438Y-15285714D01*
X232409438Y-15285714D02*
X232457057Y-15238095D01*
X232457057Y-15238095D02*
X232552295Y-15190476D01*
X232552295Y-15190476D02*
X232647533Y-15190476D01*
X232647533Y-15190476D02*
X232790390Y-15238095D01*
X232790390Y-15238095D02*
X233361819Y-15809523D01*
X233361819Y-15809523D02*
X233361819Y-15190476D01*
X232361819Y-14571428D02*
X232361819Y-14476190D01*
X232361819Y-14476190D02*
X232409438Y-14380952D01*
X232409438Y-14380952D02*
X232457057Y-14333333D01*
X232457057Y-14333333D02*
X232552295Y-14285714D01*
X232552295Y-14285714D02*
X232742771Y-14238095D01*
X232742771Y-14238095D02*
X232980866Y-14238095D01*
X232980866Y-14238095D02*
X233171342Y-14285714D01*
X233171342Y-14285714D02*
X233266580Y-14333333D01*
X233266580Y-14333333D02*
X233314200Y-14380952D01*
X233314200Y-14380952D02*
X233361819Y-14476190D01*
X233361819Y-14476190D02*
X233361819Y-14571428D01*
X233361819Y-14571428D02*
X233314200Y-14666666D01*
X233314200Y-14666666D02*
X233266580Y-14714285D01*
X233266580Y-14714285D02*
X233171342Y-14761904D01*
X233171342Y-14761904D02*
X232980866Y-14809523D01*
X232980866Y-14809523D02*
X232742771Y-14809523D01*
X232742771Y-14809523D02*
X232552295Y-14761904D01*
X232552295Y-14761904D02*
X232457057Y-14714285D01*
X232457057Y-14714285D02*
X232409438Y-14666666D01*
X232409438Y-14666666D02*
X232361819Y-14571428D01*
X53733333Y-15679580D02*
X53685714Y-15727200D01*
X53685714Y-15727200D02*
X53542857Y-15774819D01*
X53542857Y-15774819D02*
X53447619Y-15774819D01*
X53447619Y-15774819D02*
X53304762Y-15727200D01*
X53304762Y-15727200D02*
X53209524Y-15631961D01*
X53209524Y-15631961D02*
X53161905Y-15536723D01*
X53161905Y-15536723D02*
X53114286Y-15346247D01*
X53114286Y-15346247D02*
X53114286Y-15203390D01*
X53114286Y-15203390D02*
X53161905Y-15012914D01*
X53161905Y-15012914D02*
X53209524Y-14917676D01*
X53209524Y-14917676D02*
X53304762Y-14822438D01*
X53304762Y-14822438D02*
X53447619Y-14774819D01*
X53447619Y-14774819D02*
X53542857Y-14774819D01*
X53542857Y-14774819D02*
X53685714Y-14822438D01*
X53685714Y-14822438D02*
X53733333Y-14870057D01*
X54638095Y-14774819D02*
X54161905Y-14774819D01*
X54161905Y-14774819D02*
X54114286Y-15251009D01*
X54114286Y-15251009D02*
X54161905Y-15203390D01*
X54161905Y-15203390D02*
X54257143Y-15155771D01*
X54257143Y-15155771D02*
X54495238Y-15155771D01*
X54495238Y-15155771D02*
X54590476Y-15203390D01*
X54590476Y-15203390D02*
X54638095Y-15251009D01*
X54638095Y-15251009D02*
X54685714Y-15346247D01*
X54685714Y-15346247D02*
X54685714Y-15584342D01*
X54685714Y-15584342D02*
X54638095Y-15679580D01*
X54638095Y-15679580D02*
X54590476Y-15727200D01*
X54590476Y-15727200D02*
X54495238Y-15774819D01*
X54495238Y-15774819D02*
X54257143Y-15774819D01*
X54257143Y-15774819D02*
X54161905Y-15727200D01*
X54161905Y-15727200D02*
X54114286Y-15679580D01*
X66599580Y-16142857D02*
X66647200Y-16190476D01*
X66647200Y-16190476D02*
X66694819Y-16333333D01*
X66694819Y-16333333D02*
X66694819Y-16428571D01*
X66694819Y-16428571D02*
X66647200Y-16571428D01*
X66647200Y-16571428D02*
X66551961Y-16666666D01*
X66551961Y-16666666D02*
X66456723Y-16714285D01*
X66456723Y-16714285D02*
X66266247Y-16761904D01*
X66266247Y-16761904D02*
X66123390Y-16761904D01*
X66123390Y-16761904D02*
X65932914Y-16714285D01*
X65932914Y-16714285D02*
X65837676Y-16666666D01*
X65837676Y-16666666D02*
X65742438Y-16571428D01*
X65742438Y-16571428D02*
X65694819Y-16428571D01*
X65694819Y-16428571D02*
X65694819Y-16333333D01*
X65694819Y-16333333D02*
X65742438Y-16190476D01*
X65742438Y-16190476D02*
X65790057Y-16142857D01*
X66694819Y-15190476D02*
X66694819Y-15761904D01*
X66694819Y-15476190D02*
X65694819Y-15476190D01*
X65694819Y-15476190D02*
X65837676Y-15571428D01*
X65837676Y-15571428D02*
X65932914Y-15666666D01*
X65932914Y-15666666D02*
X65980533Y-15761904D01*
X65694819Y-14571428D02*
X65694819Y-14476190D01*
X65694819Y-14476190D02*
X65742438Y-14380952D01*
X65742438Y-14380952D02*
X65790057Y-14333333D01*
X65790057Y-14333333D02*
X65885295Y-14285714D01*
X65885295Y-14285714D02*
X66075771Y-14238095D01*
X66075771Y-14238095D02*
X66313866Y-14238095D01*
X66313866Y-14238095D02*
X66504342Y-14285714D01*
X66504342Y-14285714D02*
X66599580Y-14333333D01*
X66599580Y-14333333D02*
X66647200Y-14380952D01*
X66647200Y-14380952D02*
X66694819Y-14476190D01*
X66694819Y-14476190D02*
X66694819Y-14571428D01*
X66694819Y-14571428D02*
X66647200Y-14666666D01*
X66647200Y-14666666D02*
X66599580Y-14714285D01*
X66599580Y-14714285D02*
X66504342Y-14761904D01*
X66504342Y-14761904D02*
X66313866Y-14809523D01*
X66313866Y-14809523D02*
X66075771Y-14809523D01*
X66075771Y-14809523D02*
X65885295Y-14761904D01*
X65885295Y-14761904D02*
X65790057Y-14714285D01*
X65790057Y-14714285D02*
X65742438Y-14666666D01*
X65742438Y-14666666D02*
X65694819Y-14571428D01*
X-190180Y-10333333D02*
X524104Y-10333333D01*
X524104Y-10333333D02*
X666961Y-10380952D01*
X666961Y-10380952D02*
X762200Y-10476190D01*
X762200Y-10476190D02*
X809819Y-10619047D01*
X809819Y-10619047D02*
X809819Y-10714285D01*
X809819Y-9333333D02*
X809819Y-9904761D01*
X809819Y-9619047D02*
X-190180Y-9619047D01*
X-190180Y-9619047D02*
X-47323Y-9714285D01*
X-47323Y-9714285D02*
X47914Y-9809523D01*
X47914Y-9809523D02*
X95533Y-9904761D01*
X77621819Y-11666666D02*
X77621819Y-12142856D01*
X77621819Y-12142856D02*
X76621819Y-12142856D01*
X77621819Y-11333332D02*
X76621819Y-11333332D01*
X76621819Y-11333332D02*
X76621819Y-11095237D01*
X76621819Y-11095237D02*
X76669438Y-10952380D01*
X76669438Y-10952380D02*
X76764676Y-10857142D01*
X76764676Y-10857142D02*
X76859914Y-10809523D01*
X76859914Y-10809523D02*
X77050390Y-10761904D01*
X77050390Y-10761904D02*
X77193247Y-10761904D01*
X77193247Y-10761904D02*
X77383723Y-10809523D01*
X77383723Y-10809523D02*
X77478961Y-10857142D01*
X77478961Y-10857142D02*
X77574200Y-10952380D01*
X77574200Y-10952380D02*
X77621819Y-11095237D01*
X77621819Y-11095237D02*
X77621819Y-11333332D01*
X76717057Y-10380951D02*
X76669438Y-10333332D01*
X76669438Y-10333332D02*
X76621819Y-10238094D01*
X76621819Y-10238094D02*
X76621819Y-9999999D01*
X76621819Y-9999999D02*
X76669438Y-9904761D01*
X76669438Y-9904761D02*
X76717057Y-9857142D01*
X76717057Y-9857142D02*
X76812295Y-9809523D01*
X76812295Y-9809523D02*
X76907533Y-9809523D01*
X76907533Y-9809523D02*
X77050390Y-9857142D01*
X77050390Y-9857142D02*
X77621819Y-10428570D01*
X77621819Y-10428570D02*
X77621819Y-9809523D01*
X79429295Y-14771428D02*
X79429295Y-15228571D01*
X79429295Y-14999999D02*
X78629295Y-14999999D01*
X78629295Y-14999999D02*
X78743580Y-15076190D01*
X78743580Y-15076190D02*
X78819771Y-15152380D01*
X78819771Y-15152380D02*
X78857866Y-15228571D01*
X46333333Y-17984819D02*
X46000000Y-17508628D01*
X45761905Y-17984819D02*
X45761905Y-16984819D01*
X45761905Y-16984819D02*
X46142857Y-16984819D01*
X46142857Y-16984819D02*
X46238095Y-17032438D01*
X46238095Y-17032438D02*
X46285714Y-17080057D01*
X46285714Y-17080057D02*
X46333333Y-17175295D01*
X46333333Y-17175295D02*
X46333333Y-17318152D01*
X46333333Y-17318152D02*
X46285714Y-17413390D01*
X46285714Y-17413390D02*
X46238095Y-17461009D01*
X46238095Y-17461009D02*
X46142857Y-17508628D01*
X46142857Y-17508628D02*
X45761905Y-17508628D01*
X47190476Y-16984819D02*
X47000000Y-16984819D01*
X47000000Y-16984819D02*
X46904762Y-17032438D01*
X46904762Y-17032438D02*
X46857143Y-17080057D01*
X46857143Y-17080057D02*
X46761905Y-17222914D01*
X46761905Y-17222914D02*
X46714286Y-17413390D01*
X46714286Y-17413390D02*
X46714286Y-17794342D01*
X46714286Y-17794342D02*
X46761905Y-17889580D01*
X46761905Y-17889580D02*
X46809524Y-17937200D01*
X46809524Y-17937200D02*
X46904762Y-17984819D01*
X46904762Y-17984819D02*
X47095238Y-17984819D01*
X47095238Y-17984819D02*
X47190476Y-17937200D01*
X47190476Y-17937200D02*
X47238095Y-17889580D01*
X47238095Y-17889580D02*
X47285714Y-17794342D01*
X47285714Y-17794342D02*
X47285714Y-17556247D01*
X47285714Y-17556247D02*
X47238095Y-17461009D01*
X47238095Y-17461009D02*
X47190476Y-17413390D01*
X47190476Y-17413390D02*
X47095238Y-17365771D01*
X47095238Y-17365771D02*
X46904762Y-17365771D01*
X46904762Y-17365771D02*
X46809524Y-17413390D01*
X46809524Y-17413390D02*
X46761905Y-17461009D01*
X46761905Y-17461009D02*
X46714286Y-17556247D01*
X52833333Y-6679580D02*
X52785714Y-6727200D01*
X52785714Y-6727200D02*
X52642857Y-6774819D01*
X52642857Y-6774819D02*
X52547619Y-6774819D01*
X52547619Y-6774819D02*
X52404762Y-6727200D01*
X52404762Y-6727200D02*
X52309524Y-6631961D01*
X52309524Y-6631961D02*
X52261905Y-6536723D01*
X52261905Y-6536723D02*
X52214286Y-6346247D01*
X52214286Y-6346247D02*
X52214286Y-6203390D01*
X52214286Y-6203390D02*
X52261905Y-6012914D01*
X52261905Y-6012914D02*
X52309524Y-5917676D01*
X52309524Y-5917676D02*
X52404762Y-5822438D01*
X52404762Y-5822438D02*
X52547619Y-5774819D01*
X52547619Y-5774819D02*
X52642857Y-5774819D01*
X52642857Y-5774819D02*
X52785714Y-5822438D01*
X52785714Y-5822438D02*
X52833333Y-5870057D01*
X53690476Y-6108152D02*
X53690476Y-6774819D01*
X53452381Y-5727200D02*
X53214286Y-6441485D01*
X53214286Y-6441485D02*
X53833333Y-6441485D01*
X55833333Y-2884819D02*
X55500000Y-2408628D01*
X55261905Y-2884819D02*
X55261905Y-1884819D01*
X55261905Y-1884819D02*
X55642857Y-1884819D01*
X55642857Y-1884819D02*
X55738095Y-1932438D01*
X55738095Y-1932438D02*
X55785714Y-1980057D01*
X55785714Y-1980057D02*
X55833333Y-2075295D01*
X55833333Y-2075295D02*
X55833333Y-2218152D01*
X55833333Y-2218152D02*
X55785714Y-2313390D01*
X55785714Y-2313390D02*
X55738095Y-2361009D01*
X55738095Y-2361009D02*
X55642857Y-2408628D01*
X55642857Y-2408628D02*
X55261905Y-2408628D01*
X56166667Y-1884819D02*
X56833333Y-1884819D01*
X56833333Y-1884819D02*
X56404762Y-2884819D01*
X52857142Y-2884819D02*
X52523809Y-2408628D01*
X52285714Y-2884819D02*
X52285714Y-1884819D01*
X52285714Y-1884819D02*
X52666666Y-1884819D01*
X52666666Y-1884819D02*
X52761904Y-1932438D01*
X52761904Y-1932438D02*
X52809523Y-1980057D01*
X52809523Y-1980057D02*
X52857142Y-2075295D01*
X52857142Y-2075295D02*
X52857142Y-2218152D01*
X52857142Y-2218152D02*
X52809523Y-2313390D01*
X52809523Y-2313390D02*
X52761904Y-2361009D01*
X52761904Y-2361009D02*
X52666666Y-2408628D01*
X52666666Y-2408628D02*
X52285714Y-2408628D01*
X53809523Y-2884819D02*
X53238095Y-2884819D01*
X53523809Y-2884819D02*
X53523809Y-1884819D01*
X53523809Y-1884819D02*
X53428571Y-2027676D01*
X53428571Y-2027676D02*
X53333333Y-2122914D01*
X53333333Y-2122914D02*
X53238095Y-2170533D01*
X54428571Y-1884819D02*
X54523809Y-1884819D01*
X54523809Y-1884819D02*
X54619047Y-1932438D01*
X54619047Y-1932438D02*
X54666666Y-1980057D01*
X54666666Y-1980057D02*
X54714285Y-2075295D01*
X54714285Y-2075295D02*
X54761904Y-2265771D01*
X54761904Y-2265771D02*
X54761904Y-2503866D01*
X54761904Y-2503866D02*
X54714285Y-2694342D01*
X54714285Y-2694342D02*
X54666666Y-2789580D01*
X54666666Y-2789580D02*
X54619047Y-2837200D01*
X54619047Y-2837200D02*
X54523809Y-2884819D01*
X54523809Y-2884819D02*
X54428571Y-2884819D01*
X54428571Y-2884819D02*
X54333333Y-2837200D01*
X54333333Y-2837200D02*
X54285714Y-2789580D01*
X54285714Y-2789580D02*
X54238095Y-2694342D01*
X54238095Y-2694342D02*
X54190476Y-2503866D01*
X54190476Y-2503866D02*
X54190476Y-2265771D01*
X54190476Y-2265771D02*
X54238095Y-2075295D01*
X54238095Y-2075295D02*
X54285714Y-1980057D01*
X54285714Y-1980057D02*
X54333333Y-1932438D01*
X54333333Y-1932438D02*
X54428571Y-1884819D01*
X43238095Y1145180D02*
X43238095Y335657D01*
X43238095Y335657D02*
X43285714Y240419D01*
X43285714Y240419D02*
X43333333Y192800D01*
X43333333Y192800D02*
X43428571Y145180D01*
X43428571Y145180D02*
X43619047Y145180D01*
X43619047Y145180D02*
X43714285Y192800D01*
X43714285Y192800D02*
X43761904Y240419D01*
X43761904Y240419D02*
X43809523Y335657D01*
X43809523Y335657D02*
X43809523Y1145180D01*
X44809523Y145180D02*
X44238095Y145180D01*
X44523809Y145180D02*
X44523809Y1145180D01*
X44523809Y1145180D02*
X44428571Y1002323D01*
X44428571Y1002323D02*
X44333333Y907085D01*
X44333333Y907085D02*
X44238095Y859466D01*
X39238094Y-3219104D02*
X39714284Y-3219104D01*
X39142856Y-3504819D02*
X39476189Y-2504819D01*
X39476189Y-2504819D02*
X39809522Y-3504819D01*
X40142856Y-2838152D02*
X40142856Y-3504819D01*
X40142856Y-2933390D02*
X40190475Y-2885771D01*
X40190475Y-2885771D02*
X40285713Y-2838152D01*
X40285713Y-2838152D02*
X40428570Y-2838152D01*
X40428570Y-2838152D02*
X40523808Y-2885771D01*
X40523808Y-2885771D02*
X40571427Y-2981009D01*
X40571427Y-2981009D02*
X40571427Y-3504819D01*
X40904761Y-2838152D02*
X41285713Y-2838152D01*
X41047618Y-2504819D02*
X41047618Y-3361961D01*
X41047618Y-3361961D02*
X41095237Y-3457200D01*
X41095237Y-3457200D02*
X41190475Y-3504819D01*
X41190475Y-3504819D02*
X41285713Y-3504819D01*
X41999999Y-3457200D02*
X41904761Y-3504819D01*
X41904761Y-3504819D02*
X41714285Y-3504819D01*
X41714285Y-3504819D02*
X41619047Y-3457200D01*
X41619047Y-3457200D02*
X41571428Y-3361961D01*
X41571428Y-3361961D02*
X41571428Y-2981009D01*
X41571428Y-2981009D02*
X41619047Y-2885771D01*
X41619047Y-2885771D02*
X41714285Y-2838152D01*
X41714285Y-2838152D02*
X41904761Y-2838152D01*
X41904761Y-2838152D02*
X41999999Y-2885771D01*
X41999999Y-2885771D02*
X42047618Y-2981009D01*
X42047618Y-2981009D02*
X42047618Y-3076247D01*
X42047618Y-3076247D02*
X41571428Y-3171485D01*
X42476190Y-2838152D02*
X42476190Y-3504819D01*
X42476190Y-2933390D02*
X42523809Y-2885771D01*
X42523809Y-2885771D02*
X42619047Y-2838152D01*
X42619047Y-2838152D02*
X42761904Y-2838152D01*
X42761904Y-2838152D02*
X42857142Y-2885771D01*
X42857142Y-2885771D02*
X42904761Y-2981009D01*
X42904761Y-2981009D02*
X42904761Y-3504819D01*
X43380952Y-2838152D02*
X43380952Y-3504819D01*
X43380952Y-2933390D02*
X43428571Y-2885771D01*
X43428571Y-2885771D02*
X43523809Y-2838152D01*
X43523809Y-2838152D02*
X43666666Y-2838152D01*
X43666666Y-2838152D02*
X43761904Y-2885771D01*
X43761904Y-2885771D02*
X43809523Y-2981009D01*
X43809523Y-2981009D02*
X43809523Y-3504819D01*
X44714285Y-3504819D02*
X44714285Y-2981009D01*
X44714285Y-2981009D02*
X44666666Y-2885771D01*
X44666666Y-2885771D02*
X44571428Y-2838152D01*
X44571428Y-2838152D02*
X44380952Y-2838152D01*
X44380952Y-2838152D02*
X44285714Y-2885771D01*
X44714285Y-3457200D02*
X44619047Y-3504819D01*
X44619047Y-3504819D02*
X44380952Y-3504819D01*
X44380952Y-3504819D02*
X44285714Y-3457200D01*
X44285714Y-3457200D02*
X44238095Y-3361961D01*
X44238095Y-3361961D02*
X44238095Y-3266723D01*
X44238095Y-3266723D02*
X44285714Y-3171485D01*
X44285714Y-3171485D02*
X44380952Y-3123866D01*
X44380952Y-3123866D02*
X44619047Y-3123866D01*
X44619047Y-3123866D02*
X44714285Y-3076247D01*
X45904762Y-3219104D02*
X46380952Y-3219104D01*
X45809524Y-3504819D02*
X46142857Y-2504819D01*
X46142857Y-2504819D02*
X46476190Y-3504819D01*
X46809524Y-3504819D02*
X46809524Y-2838152D01*
X46809524Y-3028628D02*
X46857143Y-2933390D01*
X46857143Y-2933390D02*
X46904762Y-2885771D01*
X46904762Y-2885771D02*
X47000000Y-2838152D01*
X47000000Y-2838152D02*
X47095238Y-2838152D01*
X47809524Y-3457200D02*
X47714286Y-3504819D01*
X47714286Y-3504819D02*
X47523810Y-3504819D01*
X47523810Y-3504819D02*
X47428572Y-3457200D01*
X47428572Y-3457200D02*
X47380953Y-3361961D01*
X47380953Y-3361961D02*
X47380953Y-2981009D01*
X47380953Y-2981009D02*
X47428572Y-2885771D01*
X47428572Y-2885771D02*
X47523810Y-2838152D01*
X47523810Y-2838152D02*
X47714286Y-2838152D01*
X47714286Y-2838152D02*
X47809524Y-2885771D01*
X47809524Y-2885771D02*
X47857143Y-2981009D01*
X47857143Y-2981009D02*
X47857143Y-3076247D01*
X47857143Y-3076247D02*
X47380953Y-3171485D01*
X48714286Y-3504819D02*
X48714286Y-2981009D01*
X48714286Y-2981009D02*
X48666667Y-2885771D01*
X48666667Y-2885771D02*
X48571429Y-2838152D01*
X48571429Y-2838152D02*
X48380953Y-2838152D01*
X48380953Y-2838152D02*
X48285715Y-2885771D01*
X48714286Y-3457200D02*
X48619048Y-3504819D01*
X48619048Y-3504819D02*
X48380953Y-3504819D01*
X48380953Y-3504819D02*
X48285715Y-3457200D01*
X48285715Y-3457200D02*
X48238096Y-3361961D01*
X48238096Y-3361961D02*
X48238096Y-3266723D01*
X48238096Y-3266723D02*
X48285715Y-3171485D01*
X48285715Y-3171485D02*
X48380953Y-3123866D01*
X48380953Y-3123866D02*
X48619048Y-3123866D01*
X48619048Y-3123866D02*
X48714286Y-3076247D01*
X210954819Y-12142857D02*
X210954819Y-12619047D01*
X210954819Y-12619047D02*
X209954819Y-12619047D01*
X210954819Y-11809523D02*
X209954819Y-11809523D01*
X209954819Y-11809523D02*
X209954819Y-11571428D01*
X209954819Y-11571428D02*
X210002438Y-11428571D01*
X210002438Y-11428571D02*
X210097676Y-11333333D01*
X210097676Y-11333333D02*
X210192914Y-11285714D01*
X210192914Y-11285714D02*
X210383390Y-11238095D01*
X210383390Y-11238095D02*
X210526247Y-11238095D01*
X210526247Y-11238095D02*
X210716723Y-11285714D01*
X210716723Y-11285714D02*
X210811961Y-11333333D01*
X210811961Y-11333333D02*
X210907200Y-11428571D01*
X210907200Y-11428571D02*
X210954819Y-11571428D01*
X210954819Y-11571428D02*
X210954819Y-11809523D01*
X210954819Y-10285714D02*
X210954819Y-10857142D01*
X210954819Y-10571428D02*
X209954819Y-10571428D01*
X209954819Y-10571428D02*
X210097676Y-10666666D01*
X210097676Y-10666666D02*
X210192914Y-10761904D01*
X210192914Y-10761904D02*
X210240533Y-10857142D01*
X209954819Y-9666666D02*
X209954819Y-9571428D01*
X209954819Y-9571428D02*
X210002438Y-9476190D01*
X210002438Y-9476190D02*
X210050057Y-9428571D01*
X210050057Y-9428571D02*
X210145295Y-9380952D01*
X210145295Y-9380952D02*
X210335771Y-9333333D01*
X210335771Y-9333333D02*
X210573866Y-9333333D01*
X210573866Y-9333333D02*
X210764342Y-9380952D01*
X210764342Y-9380952D02*
X210859580Y-9428571D01*
X210859580Y-9428571D02*
X210907200Y-9476190D01*
X210907200Y-9476190D02*
X210954819Y-9571428D01*
X210954819Y-9571428D02*
X210954819Y-9666666D01*
X210954819Y-9666666D02*
X210907200Y-9761904D01*
X210907200Y-9761904D02*
X210859580Y-9809523D01*
X210859580Y-9809523D02*
X210764342Y-9857142D01*
X210764342Y-9857142D02*
X210573866Y-9904761D01*
X210573866Y-9904761D02*
X210335771Y-9904761D01*
X210335771Y-9904761D02*
X210145295Y-9857142D01*
X210145295Y-9857142D02*
X210050057Y-9809523D01*
X210050057Y-9809523D02*
X210002438Y-9761904D01*
X210002438Y-9761904D02*
X209954819Y-9666666D01*
X212762295Y-14771428D02*
X212762295Y-15228571D01*
X212762295Y-14999999D02*
X211962295Y-14999999D01*
X211962295Y-14999999D02*
X212076580Y-15076190D01*
X212076580Y-15076190D02*
X212152771Y-15152380D01*
X212152771Y-15152380D02*
X212190866Y-15228571D01*
X23166667Y-15507200D02*
X23309524Y-15554819D01*
X23309524Y-15554819D02*
X23547619Y-15554819D01*
X23547619Y-15554819D02*
X23642857Y-15507200D01*
X23642857Y-15507200D02*
X23690476Y-15459580D01*
X23690476Y-15459580D02*
X23738095Y-15364342D01*
X23738095Y-15364342D02*
X23738095Y-15269104D01*
X23738095Y-15269104D02*
X23690476Y-15173866D01*
X23690476Y-15173866D02*
X23642857Y-15126247D01*
X23642857Y-15126247D02*
X23547619Y-15078628D01*
X23547619Y-15078628D02*
X23357143Y-15031009D01*
X23357143Y-15031009D02*
X23261905Y-14983390D01*
X23261905Y-14983390D02*
X23214286Y-14935771D01*
X23214286Y-14935771D02*
X23166667Y-14840533D01*
X23166667Y-14840533D02*
X23166667Y-14745295D01*
X23166667Y-14745295D02*
X23214286Y-14650057D01*
X23214286Y-14650057D02*
X23261905Y-14602438D01*
X23261905Y-14602438D02*
X23357143Y-14554819D01*
X23357143Y-14554819D02*
X23595238Y-14554819D01*
X23595238Y-14554819D02*
X23738095Y-14602438D01*
X24071429Y-14554819D02*
X24309524Y-15554819D01*
X24309524Y-15554819D02*
X24500000Y-14840533D01*
X24500000Y-14840533D02*
X24690476Y-15554819D01*
X24690476Y-15554819D02*
X24928572Y-14554819D01*
X25833333Y-15554819D02*
X25261905Y-15554819D01*
X25547619Y-15554819D02*
X25547619Y-14554819D01*
X25547619Y-14554819D02*
X25452381Y-14697676D01*
X25452381Y-14697676D02*
X25357143Y-14792914D01*
X25357143Y-14792914D02*
X25261905Y-14840533D01*
X243809523Y-6736819D02*
X243809523Y-7451104D01*
X243809523Y-7451104D02*
X243761904Y-7593961D01*
X243761904Y-7593961D02*
X243666666Y-7689200D01*
X243666666Y-7689200D02*
X243523809Y-7736819D01*
X243523809Y-7736819D02*
X243428571Y-7736819D01*
X244238095Y-6832057D02*
X244285714Y-6784438D01*
X244285714Y-6784438D02*
X244380952Y-6736819D01*
X244380952Y-6736819D02*
X244619047Y-6736819D01*
X244619047Y-6736819D02*
X244714285Y-6784438D01*
X244714285Y-6784438D02*
X244761904Y-6832057D01*
X244761904Y-6832057D02*
X244809523Y-6927295D01*
X244809523Y-6927295D02*
X244809523Y-7022533D01*
X244809523Y-7022533D02*
X244761904Y-7165390D01*
X244761904Y-7165390D02*
X244190476Y-7736819D01*
X244190476Y-7736819D02*
X244809523Y-7736819D01*
X245000000Y-7832057D02*
X245761904Y-7832057D01*
X246523809Y-7736819D02*
X245952381Y-7736819D01*
X246238095Y-7736819D02*
X246238095Y-6736819D01*
X246238095Y-6736819D02*
X246142857Y-6879676D01*
X246142857Y-6879676D02*
X246047619Y-6974914D01*
X246047619Y-6974914D02*
X245952381Y-7022533D01*
X50038095Y-16706819D02*
X50609523Y-16706819D01*
X50323809Y-17706819D02*
X50323809Y-16706819D01*
X50942857Y-17706819D02*
X50942857Y-16706819D01*
X50942857Y-16706819D02*
X51323809Y-16706819D01*
X51323809Y-16706819D02*
X51419047Y-16754438D01*
X51419047Y-16754438D02*
X51466666Y-16802057D01*
X51466666Y-16802057D02*
X51514285Y-16897295D01*
X51514285Y-16897295D02*
X51514285Y-17040152D01*
X51514285Y-17040152D02*
X51466666Y-17135390D01*
X51466666Y-17135390D02*
X51419047Y-17183009D01*
X51419047Y-17183009D02*
X51323809Y-17230628D01*
X51323809Y-17230628D02*
X50942857Y-17230628D01*
X51847619Y-16706819D02*
X52466666Y-16706819D01*
X52466666Y-16706819D02*
X52133333Y-17087771D01*
X52133333Y-17087771D02*
X52276190Y-17087771D01*
X52276190Y-17087771D02*
X52371428Y-17135390D01*
X52371428Y-17135390D02*
X52419047Y-17183009D01*
X52419047Y-17183009D02*
X52466666Y-17278247D01*
X52466666Y-17278247D02*
X52466666Y-17516342D01*
X52466666Y-17516342D02*
X52419047Y-17611580D01*
X52419047Y-17611580D02*
X52371428Y-17659200D01*
X52371428Y-17659200D02*
X52276190Y-17706819D01*
X52276190Y-17706819D02*
X51990476Y-17706819D01*
X51990476Y-17706819D02*
X51895238Y-17659200D01*
X51895238Y-17659200D02*
X51847619Y-17611580D01*
X28533333Y-16884819D02*
X28200000Y-16408628D01*
X27961905Y-16884819D02*
X27961905Y-15884819D01*
X27961905Y-15884819D02*
X28342857Y-15884819D01*
X28342857Y-15884819D02*
X28438095Y-15932438D01*
X28438095Y-15932438D02*
X28485714Y-15980057D01*
X28485714Y-15980057D02*
X28533333Y-16075295D01*
X28533333Y-16075295D02*
X28533333Y-16218152D01*
X28533333Y-16218152D02*
X28485714Y-16313390D01*
X28485714Y-16313390D02*
X28438095Y-16361009D01*
X28438095Y-16361009D02*
X28342857Y-16408628D01*
X28342857Y-16408628D02*
X27961905Y-16408628D01*
X29009524Y-16884819D02*
X29200000Y-16884819D01*
X29200000Y-16884819D02*
X29295238Y-16837200D01*
X29295238Y-16837200D02*
X29342857Y-16789580D01*
X29342857Y-16789580D02*
X29438095Y-16646723D01*
X29438095Y-16646723D02*
X29485714Y-16456247D01*
X29485714Y-16456247D02*
X29485714Y-16075295D01*
X29485714Y-16075295D02*
X29438095Y-15980057D01*
X29438095Y-15980057D02*
X29390476Y-15932438D01*
X29390476Y-15932438D02*
X29295238Y-15884819D01*
X29295238Y-15884819D02*
X29104762Y-15884819D01*
X29104762Y-15884819D02*
X29009524Y-15932438D01*
X29009524Y-15932438D02*
X28961905Y-15980057D01*
X28961905Y-15980057D02*
X28914286Y-16075295D01*
X28914286Y-16075295D02*
X28914286Y-16313390D01*
X28914286Y-16313390D02*
X28961905Y-16408628D01*
X28961905Y-16408628D02*
X29009524Y-16456247D01*
X29009524Y-16456247D02*
X29104762Y-16503866D01*
X29104762Y-16503866D02*
X29295238Y-16503866D01*
X29295238Y-16503866D02*
X29390476Y-16456247D01*
X29390476Y-16456247D02*
X29438095Y-16408628D01*
X29438095Y-16408628D02*
X29485714Y-16313390D01*
X27761905Y-10506819D02*
X28333333Y-10506819D01*
X28047619Y-11506819D02*
X28047619Y-10506819D01*
X28666667Y-11506819D02*
X28666667Y-10506819D01*
X28666667Y-10506819D02*
X29047619Y-10506819D01*
X29047619Y-10506819D02*
X29142857Y-10554438D01*
X29142857Y-10554438D02*
X29190476Y-10602057D01*
X29190476Y-10602057D02*
X29238095Y-10697295D01*
X29238095Y-10697295D02*
X29238095Y-10840152D01*
X29238095Y-10840152D02*
X29190476Y-10935390D01*
X29190476Y-10935390D02*
X29142857Y-10983009D01*
X29142857Y-10983009D02*
X29047619Y-11030628D01*
X29047619Y-11030628D02*
X28666667Y-11030628D01*
X30190476Y-11506819D02*
X29619048Y-11506819D01*
X29904762Y-11506819D02*
X29904762Y-10506819D01*
X29904762Y-10506819D02*
X29809524Y-10649676D01*
X29809524Y-10649676D02*
X29714286Y-10744914D01*
X29714286Y-10744914D02*
X29619048Y-10792533D01*
X30809524Y-10506819D02*
X30904762Y-10506819D01*
X30904762Y-10506819D02*
X31000000Y-10554438D01*
X31000000Y-10554438D02*
X31047619Y-10602057D01*
X31047619Y-10602057D02*
X31095238Y-10697295D01*
X31095238Y-10697295D02*
X31142857Y-10887771D01*
X31142857Y-10887771D02*
X31142857Y-11125866D01*
X31142857Y-11125866D02*
X31095238Y-11316342D01*
X31095238Y-11316342D02*
X31047619Y-11411580D01*
X31047619Y-11411580D02*
X31000000Y-11459200D01*
X31000000Y-11459200D02*
X30904762Y-11506819D01*
X30904762Y-11506819D02*
X30809524Y-11506819D01*
X30809524Y-11506819D02*
X30714286Y-11459200D01*
X30714286Y-11459200D02*
X30666667Y-11411580D01*
X30666667Y-11411580D02*
X30619048Y-11316342D01*
X30619048Y-11316342D02*
X30571429Y-11125866D01*
X30571429Y-11125866D02*
X30571429Y-10887771D01*
X30571429Y-10887771D02*
X30619048Y-10697295D01*
X30619048Y-10697295D02*
X30666667Y-10602057D01*
X30666667Y-10602057D02*
X30714286Y-10554438D01*
X30714286Y-10554438D02*
X30809524Y-10506819D01*
X47738095Y-16706819D02*
X48309523Y-16706819D01*
X48023809Y-17706819D02*
X48023809Y-16706819D01*
X48642857Y-17706819D02*
X48642857Y-16706819D01*
X48642857Y-16706819D02*
X49023809Y-16706819D01*
X49023809Y-16706819D02*
X49119047Y-16754438D01*
X49119047Y-16754438D02*
X49166666Y-16802057D01*
X49166666Y-16802057D02*
X49214285Y-16897295D01*
X49214285Y-16897295D02*
X49214285Y-17040152D01*
X49214285Y-17040152D02*
X49166666Y-17135390D01*
X49166666Y-17135390D02*
X49119047Y-17183009D01*
X49119047Y-17183009D02*
X49023809Y-17230628D01*
X49023809Y-17230628D02*
X48642857Y-17230628D01*
X49595238Y-16802057D02*
X49642857Y-16754438D01*
X49642857Y-16754438D02*
X49738095Y-16706819D01*
X49738095Y-16706819D02*
X49976190Y-16706819D01*
X49976190Y-16706819D02*
X50071428Y-16754438D01*
X50071428Y-16754438D02*
X50119047Y-16802057D01*
X50119047Y-16802057D02*
X50166666Y-16897295D01*
X50166666Y-16897295D02*
X50166666Y-16992533D01*
X50166666Y-16992533D02*
X50119047Y-17135390D01*
X50119047Y-17135390D02*
X49547619Y-17706819D01*
X49547619Y-17706819D02*
X50166666Y-17706819D01*
X94287819Y-11666666D02*
X94287819Y-12142856D01*
X94287819Y-12142856D02*
X93287819Y-12142856D01*
X94287819Y-11333332D02*
X93287819Y-11333332D01*
X93287819Y-11333332D02*
X93287819Y-11095237D01*
X93287819Y-11095237D02*
X93335438Y-10952380D01*
X93335438Y-10952380D02*
X93430676Y-10857142D01*
X93430676Y-10857142D02*
X93525914Y-10809523D01*
X93525914Y-10809523D02*
X93716390Y-10761904D01*
X93716390Y-10761904D02*
X93859247Y-10761904D01*
X93859247Y-10761904D02*
X94049723Y-10809523D01*
X94049723Y-10809523D02*
X94144961Y-10857142D01*
X94144961Y-10857142D02*
X94240200Y-10952380D01*
X94240200Y-10952380D02*
X94287819Y-11095237D01*
X94287819Y-11095237D02*
X94287819Y-11333332D01*
X93287819Y-10428570D02*
X93287819Y-9809523D01*
X93287819Y-9809523D02*
X93668771Y-10142856D01*
X93668771Y-10142856D02*
X93668771Y-9999999D01*
X93668771Y-9999999D02*
X93716390Y-9904761D01*
X93716390Y-9904761D02*
X93764009Y-9857142D01*
X93764009Y-9857142D02*
X93859247Y-9809523D01*
X93859247Y-9809523D02*
X94097342Y-9809523D01*
X94097342Y-9809523D02*
X94192580Y-9857142D01*
X94192580Y-9857142D02*
X94240200Y-9904761D01*
X94240200Y-9904761D02*
X94287819Y-9999999D01*
X94287819Y-9999999D02*
X94287819Y-10285713D01*
X94287819Y-10285713D02*
X94240200Y-10380951D01*
X94240200Y-10380951D02*
X94192580Y-10428570D01*
X96095295Y-14771428D02*
X96095295Y-15228571D01*
X96095295Y-14999999D02*
X95295295Y-14999999D01*
X95295295Y-14999999D02*
X95409580Y-15076190D01*
X95409580Y-15076190D02*
X95485771Y-15152380D01*
X95485771Y-15152380D02*
X95523866Y-15228571D01*
X243809523Y-9276819D02*
X243809523Y-9991104D01*
X243809523Y-9991104D02*
X243761904Y-10133961D01*
X243761904Y-10133961D02*
X243666666Y-10229200D01*
X243666666Y-10229200D02*
X243523809Y-10276819D01*
X243523809Y-10276819D02*
X243428571Y-10276819D01*
X244238095Y-9372057D02*
X244285714Y-9324438D01*
X244285714Y-9324438D02*
X244380952Y-9276819D01*
X244380952Y-9276819D02*
X244619047Y-9276819D01*
X244619047Y-9276819D02*
X244714285Y-9324438D01*
X244714285Y-9324438D02*
X244761904Y-9372057D01*
X244761904Y-9372057D02*
X244809523Y-9467295D01*
X244809523Y-9467295D02*
X244809523Y-9562533D01*
X244809523Y-9562533D02*
X244761904Y-9705390D01*
X244761904Y-9705390D02*
X244190476Y-10276819D01*
X244190476Y-10276819D02*
X244809523Y-10276819D01*
X245000000Y-10372057D02*
X245761904Y-10372057D01*
X245952381Y-9372057D02*
X246000000Y-9324438D01*
X246000000Y-9324438D02*
X246095238Y-9276819D01*
X246095238Y-9276819D02*
X246333333Y-9276819D01*
X246333333Y-9276819D02*
X246428571Y-9324438D01*
X246428571Y-9324438D02*
X246476190Y-9372057D01*
X246476190Y-9372057D02*
X246523809Y-9467295D01*
X246523809Y-9467295D02*
X246523809Y-9562533D01*
X246523809Y-9562533D02*
X246476190Y-9705390D01*
X246476190Y-9705390D02*
X245904762Y-10276819D01*
X245904762Y-10276819D02*
X246523809Y-10276819D01*
X57738095Y-5006819D02*
X58309523Y-5006819D01*
X58023809Y-6006819D02*
X58023809Y-5006819D01*
X58642857Y-6006819D02*
X58642857Y-5006819D01*
X58642857Y-5006819D02*
X59023809Y-5006819D01*
X59023809Y-5006819D02*
X59119047Y-5054438D01*
X59119047Y-5054438D02*
X59166666Y-5102057D01*
X59166666Y-5102057D02*
X59214285Y-5197295D01*
X59214285Y-5197295D02*
X59214285Y-5340152D01*
X59214285Y-5340152D02*
X59166666Y-5435390D01*
X59166666Y-5435390D02*
X59119047Y-5483009D01*
X59119047Y-5483009D02*
X59023809Y-5530628D01*
X59023809Y-5530628D02*
X58642857Y-5530628D01*
X60119047Y-5006819D02*
X59642857Y-5006819D01*
X59642857Y-5006819D02*
X59595238Y-5483009D01*
X59595238Y-5483009D02*
X59642857Y-5435390D01*
X59642857Y-5435390D02*
X59738095Y-5387771D01*
X59738095Y-5387771D02*
X59976190Y-5387771D01*
X59976190Y-5387771D02*
X60071428Y-5435390D01*
X60071428Y-5435390D02*
X60119047Y-5483009D01*
X60119047Y-5483009D02*
X60166666Y-5578247D01*
X60166666Y-5578247D02*
X60166666Y-5816342D01*
X60166666Y-5816342D02*
X60119047Y-5911580D01*
X60119047Y-5911580D02*
X60071428Y-5959200D01*
X60071428Y-5959200D02*
X59976190Y-6006819D01*
X59976190Y-6006819D02*
X59738095Y-6006819D01*
X59738095Y-6006819D02*
X59642857Y-5959200D01*
X59642857Y-5959200D02*
X59595238Y-5911580D01*
X244738095Y-15506819D02*
X245309523Y-15506819D01*
X245023809Y-16506819D02*
X245023809Y-15506819D01*
X245642857Y-16506819D02*
X245642857Y-15506819D01*
X245642857Y-15506819D02*
X246023809Y-15506819D01*
X246023809Y-15506819D02*
X246119047Y-15554438D01*
X246119047Y-15554438D02*
X246166666Y-15602057D01*
X246166666Y-15602057D02*
X246214285Y-15697295D01*
X246214285Y-15697295D02*
X246214285Y-15840152D01*
X246214285Y-15840152D02*
X246166666Y-15935390D01*
X246166666Y-15935390D02*
X246119047Y-15983009D01*
X246119047Y-15983009D02*
X246023809Y-16030628D01*
X246023809Y-16030628D02*
X245642857Y-16030628D01*
X247071428Y-15840152D02*
X247071428Y-16506819D01*
X246833333Y-15459200D02*
X246595238Y-16173485D01*
X246595238Y-16173485D02*
X247214285Y-16173485D01*
X194287819Y-11666666D02*
X194287819Y-12142856D01*
X194287819Y-12142856D02*
X193287819Y-12142856D01*
X194287819Y-11333332D02*
X193287819Y-11333332D01*
X193287819Y-11333332D02*
X193287819Y-11095237D01*
X193287819Y-11095237D02*
X193335438Y-10952380D01*
X193335438Y-10952380D02*
X193430676Y-10857142D01*
X193430676Y-10857142D02*
X193525914Y-10809523D01*
X193525914Y-10809523D02*
X193716390Y-10761904D01*
X193716390Y-10761904D02*
X193859247Y-10761904D01*
X193859247Y-10761904D02*
X194049723Y-10809523D01*
X194049723Y-10809523D02*
X194144961Y-10857142D01*
X194144961Y-10857142D02*
X194240200Y-10952380D01*
X194240200Y-10952380D02*
X194287819Y-11095237D01*
X194287819Y-11095237D02*
X194287819Y-11333332D01*
X194287819Y-10285713D02*
X194287819Y-10095237D01*
X194287819Y-10095237D02*
X194240200Y-9999999D01*
X194240200Y-9999999D02*
X194192580Y-9952380D01*
X194192580Y-9952380D02*
X194049723Y-9857142D01*
X194049723Y-9857142D02*
X193859247Y-9809523D01*
X193859247Y-9809523D02*
X193478295Y-9809523D01*
X193478295Y-9809523D02*
X193383057Y-9857142D01*
X193383057Y-9857142D02*
X193335438Y-9904761D01*
X193335438Y-9904761D02*
X193287819Y-9999999D01*
X193287819Y-9999999D02*
X193287819Y-10190475D01*
X193287819Y-10190475D02*
X193335438Y-10285713D01*
X193335438Y-10285713D02*
X193383057Y-10333332D01*
X193383057Y-10333332D02*
X193478295Y-10380951D01*
X193478295Y-10380951D02*
X193716390Y-10380951D01*
X193716390Y-10380951D02*
X193811628Y-10333332D01*
X193811628Y-10333332D02*
X193859247Y-10285713D01*
X193859247Y-10285713D02*
X193906866Y-10190475D01*
X193906866Y-10190475D02*
X193906866Y-9999999D01*
X193906866Y-9999999D02*
X193859247Y-9904761D01*
X193859247Y-9904761D02*
X193811628Y-9857142D01*
X193811628Y-9857142D02*
X193716390Y-9809523D01*
X196095295Y-14771428D02*
X196095295Y-15228571D01*
X196095295Y-14999999D02*
X195295295Y-14999999D01*
X195295295Y-14999999D02*
X195409580Y-15076190D01*
X195409580Y-15076190D02*
X195485771Y-15152380D01*
X195485771Y-15152380D02*
X195523866Y-15228571D01*
X57333333Y-16084819D02*
X57000000Y-15608628D01*
X56761905Y-16084819D02*
X56761905Y-15084819D01*
X56761905Y-15084819D02*
X57142857Y-15084819D01*
X57142857Y-15084819D02*
X57238095Y-15132438D01*
X57238095Y-15132438D02*
X57285714Y-15180057D01*
X57285714Y-15180057D02*
X57333333Y-15275295D01*
X57333333Y-15275295D02*
X57333333Y-15418152D01*
X57333333Y-15418152D02*
X57285714Y-15513390D01*
X57285714Y-15513390D02*
X57238095Y-15561009D01*
X57238095Y-15561009D02*
X57142857Y-15608628D01*
X57142857Y-15608628D02*
X56761905Y-15608628D01*
X57666667Y-15084819D02*
X58285714Y-15084819D01*
X58285714Y-15084819D02*
X57952381Y-15465771D01*
X57952381Y-15465771D02*
X58095238Y-15465771D01*
X58095238Y-15465771D02*
X58190476Y-15513390D01*
X58190476Y-15513390D02*
X58238095Y-15561009D01*
X58238095Y-15561009D02*
X58285714Y-15656247D01*
X58285714Y-15656247D02*
X58285714Y-15894342D01*
X58285714Y-15894342D02*
X58238095Y-15989580D01*
X58238095Y-15989580D02*
X58190476Y-16037200D01*
X58190476Y-16037200D02*
X58095238Y-16084819D01*
X58095238Y-16084819D02*
X57809524Y-16084819D01*
X57809524Y-16084819D02*
X57714286Y-16037200D01*
X57714286Y-16037200D02*
X57666667Y-15989580D01*
X32833333Y-11179580D02*
X32785714Y-11227200D01*
X32785714Y-11227200D02*
X32642857Y-11274819D01*
X32642857Y-11274819D02*
X32547619Y-11274819D01*
X32547619Y-11274819D02*
X32404762Y-11227200D01*
X32404762Y-11227200D02*
X32309524Y-11131961D01*
X32309524Y-11131961D02*
X32261905Y-11036723D01*
X32261905Y-11036723D02*
X32214286Y-10846247D01*
X32214286Y-10846247D02*
X32214286Y-10703390D01*
X32214286Y-10703390D02*
X32261905Y-10512914D01*
X32261905Y-10512914D02*
X32309524Y-10417676D01*
X32309524Y-10417676D02*
X32404762Y-10322438D01*
X32404762Y-10322438D02*
X32547619Y-10274819D01*
X32547619Y-10274819D02*
X32642857Y-10274819D01*
X32642857Y-10274819D02*
X32785714Y-10322438D01*
X32785714Y-10322438D02*
X32833333Y-10370057D01*
X33214286Y-10370057D02*
X33261905Y-10322438D01*
X33261905Y-10322438D02*
X33357143Y-10274819D01*
X33357143Y-10274819D02*
X33595238Y-10274819D01*
X33595238Y-10274819D02*
X33690476Y-10322438D01*
X33690476Y-10322438D02*
X33738095Y-10370057D01*
X33738095Y-10370057D02*
X33785714Y-10465295D01*
X33785714Y-10465295D02*
X33785714Y-10560533D01*
X33785714Y-10560533D02*
X33738095Y-10703390D01*
X33738095Y-10703390D02*
X33166667Y-11274819D01*
X33166667Y-11274819D02*
X33785714Y-11274819D01*
X5633333Y-17884819D02*
X5300000Y-17408628D01*
X5061905Y-17884819D02*
X5061905Y-16884819D01*
X5061905Y-16884819D02*
X5442857Y-16884819D01*
X5442857Y-16884819D02*
X5538095Y-16932438D01*
X5538095Y-16932438D02*
X5585714Y-16980057D01*
X5585714Y-16980057D02*
X5633333Y-17075295D01*
X5633333Y-17075295D02*
X5633333Y-17218152D01*
X5633333Y-17218152D02*
X5585714Y-17313390D01*
X5585714Y-17313390D02*
X5538095Y-17361009D01*
X5538095Y-17361009D02*
X5442857Y-17408628D01*
X5442857Y-17408628D02*
X5061905Y-17408628D01*
X6014286Y-16980057D02*
X6061905Y-16932438D01*
X6061905Y-16932438D02*
X6157143Y-16884819D01*
X6157143Y-16884819D02*
X6395238Y-16884819D01*
X6395238Y-16884819D02*
X6490476Y-16932438D01*
X6490476Y-16932438D02*
X6538095Y-16980057D01*
X6538095Y-16980057D02*
X6585714Y-17075295D01*
X6585714Y-17075295D02*
X6585714Y-17170533D01*
X6585714Y-17170533D02*
X6538095Y-17313390D01*
X6538095Y-17313390D02*
X5966667Y-17884819D01*
X5966667Y-17884819D02*
X6585714Y-17884819D01*
X19159580Y-10366666D02*
X19207200Y-10414285D01*
X19207200Y-10414285D02*
X19254819Y-10557142D01*
X19254819Y-10557142D02*
X19254819Y-10652380D01*
X19254819Y-10652380D02*
X19207200Y-10795237D01*
X19207200Y-10795237D02*
X19111961Y-10890475D01*
X19111961Y-10890475D02*
X19016723Y-10938094D01*
X19016723Y-10938094D02*
X18826247Y-10985713D01*
X18826247Y-10985713D02*
X18683390Y-10985713D01*
X18683390Y-10985713D02*
X18492914Y-10938094D01*
X18492914Y-10938094D02*
X18397676Y-10890475D01*
X18397676Y-10890475D02*
X18302438Y-10795237D01*
X18302438Y-10795237D02*
X18254819Y-10652380D01*
X18254819Y-10652380D02*
X18254819Y-10557142D01*
X18254819Y-10557142D02*
X18302438Y-10414285D01*
X18302438Y-10414285D02*
X18350057Y-10366666D01*
X19254819Y-9414285D02*
X19254819Y-9985713D01*
X19254819Y-9699999D02*
X18254819Y-9699999D01*
X18254819Y-9699999D02*
X18397676Y-9795237D01*
X18397676Y-9795237D02*
X18492914Y-9890475D01*
X18492914Y-9890475D02*
X18540533Y-9985713D01*
X35333333Y-1484819D02*
X35000000Y-1008628D01*
X34761905Y-1484819D02*
X34761905Y-484819D01*
X34761905Y-484819D02*
X35142857Y-484819D01*
X35142857Y-484819D02*
X35238095Y-532438D01*
X35238095Y-532438D02*
X35285714Y-580057D01*
X35285714Y-580057D02*
X35333333Y-675295D01*
X35333333Y-675295D02*
X35333333Y-818152D01*
X35333333Y-818152D02*
X35285714Y-913390D01*
X35285714Y-913390D02*
X35238095Y-961009D01*
X35238095Y-961009D02*
X35142857Y-1008628D01*
X35142857Y-1008628D02*
X34761905Y-1008628D01*
X35904762Y-913390D02*
X35809524Y-865771D01*
X35809524Y-865771D02*
X35761905Y-818152D01*
X35761905Y-818152D02*
X35714286Y-722914D01*
X35714286Y-722914D02*
X35714286Y-675295D01*
X35714286Y-675295D02*
X35761905Y-580057D01*
X35761905Y-580057D02*
X35809524Y-532438D01*
X35809524Y-532438D02*
X35904762Y-484819D01*
X35904762Y-484819D02*
X36095238Y-484819D01*
X36095238Y-484819D02*
X36190476Y-532438D01*
X36190476Y-532438D02*
X36238095Y-580057D01*
X36238095Y-580057D02*
X36285714Y-675295D01*
X36285714Y-675295D02*
X36285714Y-722914D01*
X36285714Y-722914D02*
X36238095Y-818152D01*
X36238095Y-818152D02*
X36190476Y-865771D01*
X36190476Y-865771D02*
X36095238Y-913390D01*
X36095238Y-913390D02*
X35904762Y-913390D01*
X35904762Y-913390D02*
X35809524Y-961009D01*
X35809524Y-961009D02*
X35761905Y-1008628D01*
X35761905Y-1008628D02*
X35714286Y-1103866D01*
X35714286Y-1103866D02*
X35714286Y-1294342D01*
X35714286Y-1294342D02*
X35761905Y-1389580D01*
X35761905Y-1389580D02*
X35809524Y-1437200D01*
X35809524Y-1437200D02*
X35904762Y-1484819D01*
X35904762Y-1484819D02*
X36095238Y-1484819D01*
X36095238Y-1484819D02*
X36190476Y-1437200D01*
X36190476Y-1437200D02*
X36238095Y-1389580D01*
X36238095Y-1389580D02*
X36285714Y-1294342D01*
X36285714Y-1294342D02*
X36285714Y-1103866D01*
X36285714Y-1103866D02*
X36238095Y-1008628D01*
X36238095Y-1008628D02*
X36190476Y-961009D01*
X36190476Y-961009D02*
X36095238Y-913390D01*
X34538095Y-10506819D02*
X35109523Y-10506819D01*
X34823809Y-11506819D02*
X34823809Y-10506819D01*
X35442857Y-11506819D02*
X35442857Y-10506819D01*
X35442857Y-10506819D02*
X35823809Y-10506819D01*
X35823809Y-10506819D02*
X35919047Y-10554438D01*
X35919047Y-10554438D02*
X35966666Y-10602057D01*
X35966666Y-10602057D02*
X36014285Y-10697295D01*
X36014285Y-10697295D02*
X36014285Y-10840152D01*
X36014285Y-10840152D02*
X35966666Y-10935390D01*
X35966666Y-10935390D02*
X35919047Y-10983009D01*
X35919047Y-10983009D02*
X35823809Y-11030628D01*
X35823809Y-11030628D02*
X35442857Y-11030628D01*
X36585714Y-10935390D02*
X36490476Y-10887771D01*
X36490476Y-10887771D02*
X36442857Y-10840152D01*
X36442857Y-10840152D02*
X36395238Y-10744914D01*
X36395238Y-10744914D02*
X36395238Y-10697295D01*
X36395238Y-10697295D02*
X36442857Y-10602057D01*
X36442857Y-10602057D02*
X36490476Y-10554438D01*
X36490476Y-10554438D02*
X36585714Y-10506819D01*
X36585714Y-10506819D02*
X36776190Y-10506819D01*
X36776190Y-10506819D02*
X36871428Y-10554438D01*
X36871428Y-10554438D02*
X36919047Y-10602057D01*
X36919047Y-10602057D02*
X36966666Y-10697295D01*
X36966666Y-10697295D02*
X36966666Y-10744914D01*
X36966666Y-10744914D02*
X36919047Y-10840152D01*
X36919047Y-10840152D02*
X36871428Y-10887771D01*
X36871428Y-10887771D02*
X36776190Y-10935390D01*
X36776190Y-10935390D02*
X36585714Y-10935390D01*
X36585714Y-10935390D02*
X36490476Y-10983009D01*
X36490476Y-10983009D02*
X36442857Y-11030628D01*
X36442857Y-11030628D02*
X36395238Y-11125866D01*
X36395238Y-11125866D02*
X36395238Y-11316342D01*
X36395238Y-11316342D02*
X36442857Y-11411580D01*
X36442857Y-11411580D02*
X36490476Y-11459200D01*
X36490476Y-11459200D02*
X36585714Y-11506819D01*
X36585714Y-11506819D02*
X36776190Y-11506819D01*
X36776190Y-11506819D02*
X36871428Y-11459200D01*
X36871428Y-11459200D02*
X36919047Y-11411580D01*
X36919047Y-11411580D02*
X36966666Y-11316342D01*
X36966666Y-11316342D02*
X36966666Y-11125866D01*
X36966666Y-11125866D02*
X36919047Y-11030628D01*
X36919047Y-11030628D02*
X36871428Y-10983009D01*
X36871428Y-10983009D02*
X36776190Y-10935390D01*
X144287819Y-11666666D02*
X144287819Y-12142856D01*
X144287819Y-12142856D02*
X143287819Y-12142856D01*
X144287819Y-11333332D02*
X143287819Y-11333332D01*
X143287819Y-11333332D02*
X143287819Y-11095237D01*
X143287819Y-11095237D02*
X143335438Y-10952380D01*
X143335438Y-10952380D02*
X143430676Y-10857142D01*
X143430676Y-10857142D02*
X143525914Y-10809523D01*
X143525914Y-10809523D02*
X143716390Y-10761904D01*
X143716390Y-10761904D02*
X143859247Y-10761904D01*
X143859247Y-10761904D02*
X144049723Y-10809523D01*
X144049723Y-10809523D02*
X144144961Y-10857142D01*
X144144961Y-10857142D02*
X144240200Y-10952380D01*
X144240200Y-10952380D02*
X144287819Y-11095237D01*
X144287819Y-11095237D02*
X144287819Y-11333332D01*
X143287819Y-9904761D02*
X143287819Y-10095237D01*
X143287819Y-10095237D02*
X143335438Y-10190475D01*
X143335438Y-10190475D02*
X143383057Y-10238094D01*
X143383057Y-10238094D02*
X143525914Y-10333332D01*
X143525914Y-10333332D02*
X143716390Y-10380951D01*
X143716390Y-10380951D02*
X144097342Y-10380951D01*
X144097342Y-10380951D02*
X144192580Y-10333332D01*
X144192580Y-10333332D02*
X144240200Y-10285713D01*
X144240200Y-10285713D02*
X144287819Y-10190475D01*
X144287819Y-10190475D02*
X144287819Y-9999999D01*
X144287819Y-9999999D02*
X144240200Y-9904761D01*
X144240200Y-9904761D02*
X144192580Y-9857142D01*
X144192580Y-9857142D02*
X144097342Y-9809523D01*
X144097342Y-9809523D02*
X143859247Y-9809523D01*
X143859247Y-9809523D02*
X143764009Y-9857142D01*
X143764009Y-9857142D02*
X143716390Y-9904761D01*
X143716390Y-9904761D02*
X143668771Y-9999999D01*
X143668771Y-9999999D02*
X143668771Y-10190475D01*
X143668771Y-10190475D02*
X143716390Y-10285713D01*
X143716390Y-10285713D02*
X143764009Y-10333332D01*
X143764009Y-10333332D02*
X143859247Y-10380951D01*
X146095295Y-14771428D02*
X146095295Y-15228571D01*
X146095295Y-14999999D02*
X145295295Y-14999999D01*
X145295295Y-14999999D02*
X145409580Y-15076190D01*
X145409580Y-15076190D02*
X145485771Y-15152380D01*
X145485771Y-15152380D02*
X145523866Y-15228571D01*
X133266580Y-16142857D02*
X133314200Y-16190476D01*
X133314200Y-16190476D02*
X133361819Y-16333333D01*
X133361819Y-16333333D02*
X133361819Y-16428571D01*
X133361819Y-16428571D02*
X133314200Y-16571428D01*
X133314200Y-16571428D02*
X133218961Y-16666666D01*
X133218961Y-16666666D02*
X133123723Y-16714285D01*
X133123723Y-16714285D02*
X132933247Y-16761904D01*
X132933247Y-16761904D02*
X132790390Y-16761904D01*
X132790390Y-16761904D02*
X132599914Y-16714285D01*
X132599914Y-16714285D02*
X132504676Y-16666666D01*
X132504676Y-16666666D02*
X132409438Y-16571428D01*
X132409438Y-16571428D02*
X132361819Y-16428571D01*
X132361819Y-16428571D02*
X132361819Y-16333333D01*
X132361819Y-16333333D02*
X132409438Y-16190476D01*
X132409438Y-16190476D02*
X132457057Y-16142857D01*
X133361819Y-15190476D02*
X133361819Y-15761904D01*
X133361819Y-15476190D02*
X132361819Y-15476190D01*
X132361819Y-15476190D02*
X132504676Y-15571428D01*
X132504676Y-15571428D02*
X132599914Y-15666666D01*
X132599914Y-15666666D02*
X132647533Y-15761904D01*
X132695152Y-14333333D02*
X133361819Y-14333333D01*
X132314200Y-14571428D02*
X133028485Y-14809523D01*
X133028485Y-14809523D02*
X133028485Y-14190476D01*
X12738095Y1095180D02*
X12738095Y2095180D01*
X12738095Y1618990D02*
X13309523Y1618990D01*
X13309523Y1095180D02*
X13309523Y2095180D01*
X14309523Y1095180D02*
X13738095Y1095180D01*
X14023809Y1095180D02*
X14023809Y2095180D01*
X14023809Y2095180D02*
X13928571Y1952323D01*
X13928571Y1952323D02*
X13833333Y1857085D01*
X13833333Y1857085D02*
X13738095Y1809466D01*
X166599580Y-16142857D02*
X166647200Y-16190476D01*
X166647200Y-16190476D02*
X166694819Y-16333333D01*
X166694819Y-16333333D02*
X166694819Y-16428571D01*
X166694819Y-16428571D02*
X166647200Y-16571428D01*
X166647200Y-16571428D02*
X166551961Y-16666666D01*
X166551961Y-16666666D02*
X166456723Y-16714285D01*
X166456723Y-16714285D02*
X166266247Y-16761904D01*
X166266247Y-16761904D02*
X166123390Y-16761904D01*
X166123390Y-16761904D02*
X165932914Y-16714285D01*
X165932914Y-16714285D02*
X165837676Y-16666666D01*
X165837676Y-16666666D02*
X165742438Y-16571428D01*
X165742438Y-16571428D02*
X165694819Y-16428571D01*
X165694819Y-16428571D02*
X165694819Y-16333333D01*
X165694819Y-16333333D02*
X165742438Y-16190476D01*
X165742438Y-16190476D02*
X165790057Y-16142857D01*
X166694819Y-15190476D02*
X166694819Y-15761904D01*
X166694819Y-15476190D02*
X165694819Y-15476190D01*
X165694819Y-15476190D02*
X165837676Y-15571428D01*
X165837676Y-15571428D02*
X165932914Y-15666666D01*
X165932914Y-15666666D02*
X165980533Y-15761904D01*
X165694819Y-14333333D02*
X165694819Y-14523809D01*
X165694819Y-14523809D02*
X165742438Y-14619047D01*
X165742438Y-14619047D02*
X165790057Y-14666666D01*
X165790057Y-14666666D02*
X165932914Y-14761904D01*
X165932914Y-14761904D02*
X166123390Y-14809523D01*
X166123390Y-14809523D02*
X166504342Y-14809523D01*
X166504342Y-14809523D02*
X166599580Y-14761904D01*
X166599580Y-14761904D02*
X166647200Y-14714285D01*
X166647200Y-14714285D02*
X166694819Y-14619047D01*
X166694819Y-14619047D02*
X166694819Y-14428571D01*
X166694819Y-14428571D02*
X166647200Y-14333333D01*
X166647200Y-14333333D02*
X166599580Y-14285714D01*
X166599580Y-14285714D02*
X166504342Y-14238095D01*
X166504342Y-14238095D02*
X166266247Y-14238095D01*
X166266247Y-14238095D02*
X166171009Y-14285714D01*
X166171009Y-14285714D02*
X166123390Y-14333333D01*
X166123390Y-14333333D02*
X166075771Y-14428571D01*
X166075771Y-14428571D02*
X166075771Y-14619047D01*
X166075771Y-14619047D02*
X166123390Y-14714285D01*
X166123390Y-14714285D02*
X166171009Y-14761904D01*
X166171009Y-14761904D02*
X166266247Y-14809523D01*
X60954819Y-11666666D02*
X60954819Y-12142856D01*
X60954819Y-12142856D02*
X59954819Y-12142856D01*
X60954819Y-11333332D02*
X59954819Y-11333332D01*
X59954819Y-11333332D02*
X59954819Y-11095237D01*
X59954819Y-11095237D02*
X60002438Y-10952380D01*
X60002438Y-10952380D02*
X60097676Y-10857142D01*
X60097676Y-10857142D02*
X60192914Y-10809523D01*
X60192914Y-10809523D02*
X60383390Y-10761904D01*
X60383390Y-10761904D02*
X60526247Y-10761904D01*
X60526247Y-10761904D02*
X60716723Y-10809523D01*
X60716723Y-10809523D02*
X60811961Y-10857142D01*
X60811961Y-10857142D02*
X60907200Y-10952380D01*
X60907200Y-10952380D02*
X60954819Y-11095237D01*
X60954819Y-11095237D02*
X60954819Y-11333332D01*
X60954819Y-9809523D02*
X60954819Y-10380951D01*
X60954819Y-10095237D02*
X59954819Y-10095237D01*
X59954819Y-10095237D02*
X60097676Y-10190475D01*
X60097676Y-10190475D02*
X60192914Y-10285713D01*
X60192914Y-10285713D02*
X60240533Y-10380951D01*
X62762295Y-14771428D02*
X62762295Y-15228571D01*
X62762295Y-14999999D02*
X61962295Y-14999999D01*
X61962295Y-14999999D02*
X62076580Y-15076190D01*
X62076580Y-15076190D02*
X62152771Y-15152380D01*
X62152771Y-15152380D02*
X62190866Y-15228571D01*
%TO.C,C15*%
D11*
X150373000Y-15607836D02*
X150373000Y-15392164D01*
X151093000Y-15607836D02*
X151093000Y-15392164D01*
%TO.C,TP11*%
X16700000Y-7500000D02*
G75*
G02*
X15300000Y-7500000I-700000J0D01*
G01*
X15300000Y-7500000D02*
G75*
G02*
X16700000Y-7500000I700000J0D01*
G01*
%TO.C,C8*%
X30892164Y-17240000D02*
X31107836Y-17240000D01*
X30892164Y-17960000D02*
X31107836Y-17960000D01*
%TO.C,TP6*%
X59300000Y-3600000D02*
G75*
G02*
X57900000Y-3600000I-700000J0D01*
G01*
X57900000Y-3600000D02*
G75*
G02*
X59300000Y-3600000I700000J0D01*
G01*
%TO.C,U3*%
X32090000Y-7440000D02*
X33910000Y-7440000D01*
X32090000Y-7490000D02*
X32090000Y-7440000D01*
X32090000Y-10560000D02*
X32090000Y-10510000D01*
X33910000Y-7440000D02*
X33910000Y-7490000D01*
X33910000Y-8610000D02*
X33910000Y-9390000D01*
X33910000Y-10510000D02*
X33910000Y-10560000D01*
X33910000Y-10560000D02*
X32090000Y-10560000D01*
X31550000Y-7490000D02*
X31310000Y-7160000D01*
X31790000Y-7160000D01*
X31550000Y-7490000D01*
G36*
X31550000Y-7490000D02*
G01*
X31310000Y-7160000D01*
X31790000Y-7160000D01*
X31550000Y-7490000D01*
G37*
%TO.C,C19*%
X217040000Y-15607836D02*
X217040000Y-15392164D01*
X217760000Y-15607836D02*
X217760000Y-15392164D01*
%TO.C,J3_2*%
X254700000Y-11270000D02*
G75*
G02*
X253300000Y-11270000I-700000J0D01*
G01*
X253300000Y-11270000D02*
G75*
G02*
X254700000Y-11270000I700000J0D01*
G01*
%TO.C,F1*%
X18613748Y-890000D02*
X21386252Y-890000D01*
X18613748Y-4310000D02*
X21386252Y-4310000D01*
%TO.C,R4*%
X41346359Y-18320000D02*
X41653641Y-18320000D01*
X41346359Y-19080000D02*
X41653641Y-19080000D01*
%TO.C,C17*%
X183707000Y-15607836D02*
X183707000Y-15392164D01*
X184427000Y-15607836D02*
X184427000Y-15392164D01*
%TO.C,LD7*%
X161250000Y-14500000D02*
X161250000Y-7500000D01*
X161250000Y-14500000D02*
X166750000Y-14500000D01*
X164900000Y-8300000D02*
X163100000Y-8300000D01*
X164900000Y-13700000D02*
X163100000Y-13700000D01*
X166300000Y-7500000D02*
X161250000Y-7500000D01*
X166750000Y-7950000D02*
X166300000Y-7500000D01*
X166750000Y-14500000D02*
X166750000Y-7950000D01*
%TO.C,C13*%
X117040000Y-15607836D02*
X117040000Y-15392164D01*
X117760000Y-15607836D02*
X117760000Y-15392164D01*
%TO.C,C3*%
X32738748Y-5065000D02*
X33261252Y-5065000D01*
X32738748Y-6535000D02*
X33261252Y-6535000D01*
%TO.C,C12*%
X100373000Y-15607836D02*
X100373000Y-15392164D01*
X101093000Y-15607836D02*
X101093000Y-15392164D01*
%TO.C,C11*%
X83707000Y-15607836D02*
X83707000Y-15392164D01*
X84427000Y-15607836D02*
X84427000Y-15392164D01*
%TO.C,R11*%
X58346359Y-13120000D02*
X58653641Y-13120000D01*
X58346359Y-13880000D02*
X58653641Y-13880000D01*
%TO.C,C6*%
X51792164Y-13140000D02*
X52007836Y-13140000D01*
X51792164Y-13860000D02*
X52007836Y-13860000D01*
%TO.C,Q1*%
X29740000Y-1240000D02*
X31260000Y-1240000D01*
X29740000Y-1290000D02*
X29740000Y-1240000D01*
X29740000Y-3190000D02*
X29740000Y-2410000D01*
X29740000Y-4360000D02*
X29740000Y-4310000D01*
X31260000Y-1240000D02*
X31260000Y-2240000D01*
X31260000Y-3360000D02*
X31260000Y-4360000D01*
X31260000Y-4360000D02*
X29740000Y-4360000D01*
X29200000Y-2420000D02*
X29440000Y-2750000D01*
X28960000Y-2750000D01*
X29200000Y-2420000D01*
G36*
X29440000Y-2750000D02*
G01*
X28960000Y-2750000D01*
X29200000Y-2420000D01*
X29440000Y-2750000D01*
G37*
%TO.C,R5*%
X43846359Y-18320000D02*
X44153641Y-18320000D01*
X43846359Y-19080000D02*
X44153641Y-19080000D01*
%TO.C,LD11*%
X227917000Y-14500000D02*
X227917000Y-7500000D01*
X227917000Y-14500000D02*
X233417000Y-14500000D01*
X231567000Y-8300000D02*
X229767000Y-8300000D01*
X231567000Y-13700000D02*
X229767000Y-13700000D01*
X232967000Y-7500000D02*
X227917000Y-7500000D01*
X233417000Y-7950000D02*
X232967000Y-7500000D01*
X233417000Y-14500000D02*
X233417000Y-7950000D01*
%TO.C,U2*%
X54590000Y-11940000D02*
X56410000Y-11940000D01*
X54590000Y-11990000D02*
X54590000Y-11940000D01*
X54590000Y-15060000D02*
X54590000Y-15010000D01*
X56410000Y-11940000D02*
X56410000Y-11990000D01*
X56410000Y-13110000D02*
X56410000Y-13890000D01*
X56410000Y-15010000D02*
X56410000Y-15060000D01*
X56410000Y-15060000D02*
X54590000Y-15060000D01*
X54050000Y-11990000D02*
X53810000Y-11660000D01*
X54290000Y-11660000D01*
X54050000Y-11990000D01*
G36*
X54050000Y-11990000D02*
G01*
X53810000Y-11660000D01*
X54290000Y-11660000D01*
X54050000Y-11990000D01*
G37*
%TO.C,C18*%
X200373000Y-15607836D02*
X200373000Y-15392164D01*
X201093000Y-15607836D02*
X201093000Y-15392164D01*
%TO.C,LD8*%
X177917000Y-14500000D02*
X177917000Y-7500000D01*
X177917000Y-14500000D02*
X183417000Y-14500000D01*
X181567000Y-8300000D02*
X179767000Y-8300000D01*
X181567000Y-13700000D02*
X179767000Y-13700000D01*
X182967000Y-7500000D02*
X177917000Y-7500000D01*
X183417000Y-7950000D02*
X182967000Y-7500000D01*
X183417000Y-14500000D02*
X183417000Y-7950000D01*
%TO.C,LD4*%
X111250000Y-14500000D02*
X111250000Y-7500000D01*
X111250000Y-14500000D02*
X116750000Y-14500000D01*
X114900000Y-8300000D02*
X113100000Y-8300000D01*
X114900000Y-13700000D02*
X113100000Y-13700000D01*
X116300000Y-7500000D02*
X111250000Y-7500000D01*
X116750000Y-7950000D02*
X116300000Y-7500000D01*
X116750000Y-14500000D02*
X116750000Y-7950000D01*
%TO.C,C7*%
X35392164Y-3640000D02*
X35607836Y-3640000D01*
X35392164Y-4360000D02*
X35607836Y-4360000D01*
%TO.C,LD5*%
X127917000Y-14500000D02*
X127917000Y-7500000D01*
X127917000Y-14500000D02*
X133417000Y-14500000D01*
X131567000Y-8300000D02*
X129767000Y-8300000D01*
X131567000Y-13700000D02*
X129767000Y-13700000D01*
X132967000Y-7500000D02*
X127917000Y-7500000D01*
X133417000Y-7950000D02*
X132967000Y-7500000D01*
X133417000Y-14500000D02*
X133417000Y-7950000D01*
%TO.C,TP9*%
X35900000Y-15000000D02*
G75*
G02*
X34500000Y-15000000I-700000J0D01*
G01*
X34500000Y-15000000D02*
G75*
G02*
X35900000Y-15000000I700000J0D01*
G01*
%TO.C,C9*%
X52392164Y-9840000D02*
X52607836Y-9840000D01*
X52392164Y-10560000D02*
X52607836Y-10560000D01*
%TO.C,J3_1*%
X254700000Y-8730000D02*
G75*
G02*
X253300000Y-8730000I-700000J0D01*
G01*
X253300000Y-8730000D02*
G75*
G02*
X254700000Y-8730000I700000J0D01*
G01*
%TO.C,TP1*%
X59700000Y-15500000D02*
G75*
G02*
X58300000Y-15500000I-700000J0D01*
G01*
X58300000Y-15500000D02*
G75*
G02*
X59700000Y-15500000I700000J0D01*
G01*
%TO.C,R1*%
X3346359Y-18220000D02*
X3653641Y-18220000D01*
X3346359Y-18980000D02*
X3653641Y-18980000D01*
%TO.C,U4*%
X18090000Y-15940000D02*
X19910000Y-15940000D01*
X18090000Y-15990000D02*
X18090000Y-15940000D01*
X18090000Y-19060000D02*
X18090000Y-19010000D01*
X19910000Y-15940000D02*
X19910000Y-15990000D01*
X19910000Y-19010000D02*
X19910000Y-19060000D01*
X19910000Y-19060000D02*
X18090000Y-19060000D01*
X17550000Y-15990000D02*
X17310000Y-15660000D01*
X17790000Y-15660000D01*
X17550000Y-15990000D01*
G36*
X17550000Y-15990000D02*
G01*
X17310000Y-15660000D01*
X17790000Y-15660000D01*
X17550000Y-15990000D01*
G37*
%TO.C,TP7*%
X240700000Y-13000000D02*
G75*
G02*
X239300000Y-13000000I-700000J0D01*
G01*
X239300000Y-13000000D02*
G75*
G02*
X240700000Y-13000000I700000J0D01*
G01*
%TO.C,C20*%
X233707000Y-15607836D02*
X233707000Y-15392164D01*
X234427000Y-15607836D02*
X234427000Y-15392164D01*
%TO.C,C5*%
X53638748Y-16265000D02*
X54161252Y-16265000D01*
X53638748Y-17735000D02*
X54161252Y-17735000D01*
%TO.C,C10*%
X67040000Y-15607836D02*
X67040000Y-15392164D01*
X67760000Y-15607836D02*
X67760000Y-15392164D01*
%TO.C,J1*%
X4100000Y-5300000D02*
X6100000Y-5300000D01*
X4100000Y-14700000D02*
X6100000Y-14700000D01*
X8000000Y-5300000D02*
X9900000Y-5300000D01*
X8000000Y-14700000D02*
X9900000Y-14700000D01*
X9900000Y-14700000D02*
X9900000Y-5300000D01*
%TO.C,LD2*%
X77917000Y-14500000D02*
X77917000Y-7500000D01*
X77917000Y-14500000D02*
X83417000Y-14500000D01*
X81567000Y-8300000D02*
X79767000Y-8300000D01*
X81567000Y-13700000D02*
X79767000Y-13700000D01*
X82967000Y-7500000D02*
X77917000Y-7500000D01*
X83417000Y-7950000D02*
X82967000Y-7500000D01*
X83417000Y-14500000D02*
X83417000Y-7950000D01*
%TO.C,R6*%
X46346359Y-18320000D02*
X46653641Y-18320000D01*
X46346359Y-19080000D02*
X46653641Y-19080000D01*
%TO.C,C4*%
X52738748Y-7265000D02*
X53261252Y-7265000D01*
X52738748Y-8735000D02*
X53261252Y-8735000D01*
%TO.C,R7*%
X55846359Y-3220000D02*
X56153641Y-3220000D01*
X55846359Y-3980000D02*
X56153641Y-3980000D01*
%TO.C,R10*%
X53346359Y-3220000D02*
X53653641Y-3220000D01*
X53346359Y-3980000D02*
X53653641Y-3980000D01*
%TO.C,U1*%
X37200000Y-16600000D02*
X37200000Y-17400000D01*
X37200000Y-17400000D02*
X38000000Y-17400000D01*
X37400000Y-600000D02*
X50600000Y-600000D01*
X37400000Y-6000000D02*
X50600000Y-6000000D01*
X37400000Y-17200000D02*
X37400000Y-600000D01*
X38075000Y-400000D02*
X37225000Y-400000D01*
X50050000Y-400000D02*
X50800000Y-400000D01*
X50600000Y-600000D02*
X50600000Y-17200000D01*
X50600000Y-17200000D02*
X37400000Y-17200000D01*
X50800000Y-400000D02*
X50800000Y-1000000D01*
X50800000Y-16600000D02*
X50800000Y-17400000D01*
X50800000Y-17400000D02*
X50000000Y-17400000D01*
%TO.C,LD10*%
X211250000Y-14500000D02*
X211250000Y-7500000D01*
X211250000Y-14500000D02*
X216750000Y-14500000D01*
X214900000Y-8300000D02*
X213100000Y-8300000D01*
X214900000Y-13700000D02*
X213100000Y-13700000D01*
X216300000Y-7500000D02*
X211250000Y-7500000D01*
X216750000Y-7950000D02*
X216300000Y-7500000D01*
X216750000Y-14500000D02*
X216750000Y-7950000D01*
%TO.C,SW1*%
X21950000Y-16090000D02*
X22750000Y-16090000D01*
X22750000Y-16050000D02*
X22750000Y-16090000D01*
X22750000Y-16050000D02*
X26250000Y-16050000D01*
%TO.C,J2_1*%
X245700000Y-8730000D02*
G75*
G02*
X244300000Y-8730000I-700000J0D01*
G01*
X244300000Y-8730000D02*
G75*
G02*
X245700000Y-8730000I700000J0D01*
G01*
%TO.C,TP3*%
X52000000Y-18700000D02*
G75*
G02*
X50600000Y-18700000I-700000J0D01*
G01*
X50600000Y-18700000D02*
G75*
G02*
X52000000Y-18700000I700000J0D01*
G01*
%TO.C,R9*%
X28546359Y-17220000D02*
X28853641Y-17220000D01*
X28546359Y-17980000D02*
X28853641Y-17980000D01*
%TO.C,TP10*%
X30200000Y-12500000D02*
G75*
G02*
X28800000Y-12500000I-700000J0D01*
G01*
X28800000Y-12500000D02*
G75*
G02*
X30200000Y-12500000I700000J0D01*
G01*
%TO.C,TP2*%
X49700000Y-18700000D02*
G75*
G02*
X48300000Y-18700000I-700000J0D01*
G01*
X48300000Y-18700000D02*
G75*
G02*
X49700000Y-18700000I700000J0D01*
G01*
%TO.C,LD3*%
X94583000Y-14500000D02*
X94583000Y-7500000D01*
X94583000Y-14500000D02*
X100083000Y-14500000D01*
X98233000Y-8300000D02*
X96433000Y-8300000D01*
X98233000Y-13700000D02*
X96433000Y-13700000D01*
X99633000Y-7500000D02*
X94583000Y-7500000D01*
X100083000Y-7950000D02*
X99633000Y-7500000D01*
X100083000Y-14500000D02*
X100083000Y-7950000D01*
%TO.C,J2_2*%
X245700000Y-11270000D02*
G75*
G02*
X244300000Y-11270000I-700000J0D01*
G01*
X244300000Y-11270000D02*
G75*
G02*
X245700000Y-11270000I700000J0D01*
G01*
%TO.C,TP5*%
X59700000Y-7000000D02*
G75*
G02*
X58300000Y-7000000I-700000J0D01*
G01*
X58300000Y-7000000D02*
G75*
G02*
X59700000Y-7000000I700000J0D01*
G01*
%TO.C,TP4*%
X246700000Y-17500000D02*
G75*
G02*
X245300000Y-17500000I-700000J0D01*
G01*
X245300000Y-17500000D02*
G75*
G02*
X246700000Y-17500000I700000J0D01*
G01*
%TO.C,LD9*%
X194583000Y-14500000D02*
X194583000Y-7500000D01*
X194583000Y-14500000D02*
X200083000Y-14500000D01*
X198233000Y-8300000D02*
X196433000Y-8300000D01*
X198233000Y-13700000D02*
X196433000Y-13700000D01*
X199633000Y-7500000D02*
X194583000Y-7500000D01*
X200083000Y-7950000D02*
X199633000Y-7500000D01*
X200083000Y-14500000D02*
X200083000Y-7950000D01*
%TO.C,R3*%
X57346359Y-16420000D02*
X57653641Y-16420000D01*
X57346359Y-17180000D02*
X57653641Y-17180000D01*
%TO.C,C2*%
X32738748Y-11765000D02*
X33261252Y-11765000D01*
X32738748Y-13235000D02*
X33261252Y-13235000D01*
%TO.C,R2*%
X5646359Y-18220000D02*
X5953641Y-18220000D01*
X5646359Y-18980000D02*
X5953641Y-18980000D01*
%TO.C,C1*%
X19740000Y-5940000D02*
X22490000Y-5940000D01*
X19740000Y-13395563D02*
X19740000Y-5940000D01*
X20804437Y-14460000D02*
X19740000Y-13395563D01*
X20804437Y-14460000D02*
X22490000Y-14460000D01*
X20990000Y-15200000D02*
X21990000Y-15200000D01*
X21490000Y-15700000D02*
X21490000Y-14700000D01*
X27195563Y-14460000D02*
X25510000Y-14460000D01*
X27195563Y-14460000D02*
X28260000Y-13395563D01*
X28260000Y-5940000D02*
X25510000Y-5940000D01*
X28260000Y-13395563D02*
X28260000Y-5940000D01*
%TO.C,R8*%
X35346359Y-1820000D02*
X35653641Y-1820000D01*
X35346359Y-2580000D02*
X35653641Y-2580000D01*
%TO.C,TP8*%
X36500000Y-12500000D02*
G75*
G02*
X35100000Y-12500000I-700000J0D01*
G01*
X35100000Y-12500000D02*
G75*
G02*
X36500000Y-12500000I700000J0D01*
G01*
%TO.C,LD6*%
X144583000Y-14500000D02*
X144583000Y-7500000D01*
X144583000Y-14500000D02*
X150083000Y-14500000D01*
X148233000Y-8300000D02*
X146433000Y-8300000D01*
X148233000Y-13700000D02*
X146433000Y-13700000D01*
X149633000Y-7500000D02*
X144583000Y-7500000D01*
X150083000Y-7950000D02*
X149633000Y-7500000D01*
X150083000Y-14500000D02*
X150083000Y-7950000D01*
%TO.C,C14*%
X133707000Y-15607836D02*
X133707000Y-15392164D01*
X134427000Y-15607836D02*
X134427000Y-15392164D01*
%TO.C,C16*%
X167040000Y-15607836D02*
X167040000Y-15392164D01*
X167760000Y-15607836D02*
X167760000Y-15392164D01*
%TO.C,LD1*%
X61250000Y-14500000D02*
X61250000Y-7500000D01*
X61250000Y-14500000D02*
X66750000Y-14500000D01*
X64900000Y-8300000D02*
X63100000Y-8300000D01*
X64900000Y-13700000D02*
X63100000Y-13700000D01*
X66300000Y-7500000D02*
X61250000Y-7500000D01*
X66750000Y-7950000D02*
X66300000Y-7500000D01*
X66750000Y-14500000D02*
X66750000Y-7950000D01*
%TD*%
M02*
