%TF.GenerationSoftware,KiCad,Pcbnew,10.0.5*%
%TF.CreationDate,2026-08-20T14:07:53+02:00*%
%TF.ProjectId,fl11,666c3131-2e6b-4696-9361-645f70636258,rev?*%
%TF.SameCoordinates,Original*%
%TF.FileFunction,Legend,Top*%
%TF.FilePolarity,Positive*%
%FSLAX46Y46*%
G04 Gerber Fmt 4.6, Leading zero omitted, Abs format (unit mm)*
G04 Created by KiCad (PCBNEW 10.0.5) date 2026-08-20 14:07:53*
%MOMM*%
%LPD*%
G01*
G04 APERTURE LIST*
%ADD10C,0.150000*%
%ADD11C,0.120000*%
G04 APERTURE END LIST*
D10*
X145932940Y-16142857D02*
X145980560Y-16190476D01*
X145980560Y-16190476D02*
X146028179Y-16333333D01*
X146028179Y-16333333D02*
X146028179Y-16428571D01*
X146028179Y-16428571D02*
X145980560Y-16571428D01*
X145980560Y-16571428D02*
X145885321Y-16666666D01*
X145885321Y-16666666D02*
X145790083Y-16714285D01*
X145790083Y-16714285D02*
X145599607Y-16761904D01*
X145599607Y-16761904D02*
X145456750Y-16761904D01*
X145456750Y-16761904D02*
X145266274Y-16714285D01*
X145266274Y-16714285D02*
X145171036Y-16666666D01*
X145171036Y-16666666D02*
X145075798Y-16571428D01*
X145075798Y-16571428D02*
X145028179Y-16428571D01*
X145028179Y-16428571D02*
X145028179Y-16333333D01*
X145028179Y-16333333D02*
X145075798Y-16190476D01*
X145075798Y-16190476D02*
X145123417Y-16142857D01*
X146028179Y-15190476D02*
X146028179Y-15761904D01*
X146028179Y-15476190D02*
X145028179Y-15476190D01*
X145028179Y-15476190D02*
X145171036Y-15571428D01*
X145171036Y-15571428D02*
X145266274Y-15666666D01*
X145266274Y-15666666D02*
X145313893Y-15761904D01*
X145456750Y-14619047D02*
X145409131Y-14714285D01*
X145409131Y-14714285D02*
X145361512Y-14761904D01*
X145361512Y-14761904D02*
X145266274Y-14809523D01*
X145266274Y-14809523D02*
X145218655Y-14809523D01*
X145218655Y-14809523D02*
X145123417Y-14761904D01*
X145123417Y-14761904D02*
X145075798Y-14714285D01*
X145075798Y-14714285D02*
X145028179Y-14619047D01*
X145028179Y-14619047D02*
X145028179Y-14428571D01*
X145028179Y-14428571D02*
X145075798Y-14333333D01*
X145075798Y-14333333D02*
X145123417Y-14285714D01*
X145123417Y-14285714D02*
X145218655Y-14238095D01*
X145218655Y-14238095D02*
X145266274Y-14238095D01*
X145266274Y-14238095D02*
X145361512Y-14285714D01*
X145361512Y-14285714D02*
X145409131Y-14333333D01*
X145409131Y-14333333D02*
X145456750Y-14428571D01*
X145456750Y-14428571D02*
X145456750Y-14619047D01*
X145456750Y-14619047D02*
X145504369Y-14714285D01*
X145504369Y-14714285D02*
X145551988Y-14761904D01*
X145551988Y-14761904D02*
X145647226Y-14809523D01*
X145647226Y-14809523D02*
X145837702Y-14809523D01*
X145837702Y-14809523D02*
X145932940Y-14761904D01*
X145932940Y-14761904D02*
X145980560Y-14714285D01*
X145980560Y-14714285D02*
X146028179Y-14619047D01*
X146028179Y-14619047D02*
X146028179Y-14428571D01*
X146028179Y-14428571D02*
X145980560Y-14333333D01*
X145980560Y-14333333D02*
X145932940Y-14285714D01*
X145932940Y-14285714D02*
X145837702Y-14238095D01*
X145837702Y-14238095D02*
X145647226Y-14238095D01*
X145647226Y-14238095D02*
X145551988Y-14285714D01*
X145551988Y-14285714D02*
X145504369Y-14333333D01*
X145504369Y-14333333D02*
X145456750Y-14428571D01*
X109833333Y-32199580D02*
X109785714Y-32247200D01*
X109785714Y-32247200D02*
X109642857Y-32294819D01*
X109642857Y-32294819D02*
X109547619Y-32294819D01*
X109547619Y-32294819D02*
X109404762Y-32247200D01*
X109404762Y-32247200D02*
X109309524Y-32151961D01*
X109309524Y-32151961D02*
X109261905Y-32056723D01*
X109261905Y-32056723D02*
X109214286Y-31866247D01*
X109214286Y-31866247D02*
X109214286Y-31723390D01*
X109214286Y-31723390D02*
X109261905Y-31532914D01*
X109261905Y-31532914D02*
X109309524Y-31437676D01*
X109309524Y-31437676D02*
X109404762Y-31342438D01*
X109404762Y-31342438D02*
X109547619Y-31294819D01*
X109547619Y-31294819D02*
X109642857Y-31294819D01*
X109642857Y-31294819D02*
X109785714Y-31342438D01*
X109785714Y-31342438D02*
X109833333Y-31390057D01*
X110309524Y-32294819D02*
X110500000Y-32294819D01*
X110500000Y-32294819D02*
X110595238Y-32247200D01*
X110595238Y-32247200D02*
X110642857Y-32199580D01*
X110642857Y-32199580D02*
X110738095Y-32056723D01*
X110738095Y-32056723D02*
X110785714Y-31866247D01*
X110785714Y-31866247D02*
X110785714Y-31485295D01*
X110785714Y-31485295D02*
X110738095Y-31390057D01*
X110738095Y-31390057D02*
X110690476Y-31342438D01*
X110690476Y-31342438D02*
X110595238Y-31294819D01*
X110595238Y-31294819D02*
X110404762Y-31294819D01*
X110404762Y-31294819D02*
X110309524Y-31342438D01*
X110309524Y-31342438D02*
X110261905Y-31390057D01*
X110261905Y-31390057D02*
X110214286Y-31485295D01*
X110214286Y-31485295D02*
X110214286Y-31723390D01*
X110214286Y-31723390D02*
X110261905Y-31818628D01*
X110261905Y-31818628D02*
X110309524Y-31866247D01*
X110309524Y-31866247D02*
X110404762Y-31913866D01*
X110404762Y-31913866D02*
X110595238Y-31913866D01*
X110595238Y-31913866D02*
X110690476Y-31866247D01*
X110690476Y-31866247D02*
X110738095Y-31818628D01*
X110738095Y-31818628D02*
X110785714Y-31723390D01*
X84333333Y-30699580D02*
X84285714Y-30747200D01*
X84285714Y-30747200D02*
X84142857Y-30794819D01*
X84142857Y-30794819D02*
X84047619Y-30794819D01*
X84047619Y-30794819D02*
X83904762Y-30747200D01*
X83904762Y-30747200D02*
X83809524Y-30651961D01*
X83809524Y-30651961D02*
X83761905Y-30556723D01*
X83761905Y-30556723D02*
X83714286Y-30366247D01*
X83714286Y-30366247D02*
X83714286Y-30223390D01*
X83714286Y-30223390D02*
X83761905Y-30032914D01*
X83761905Y-30032914D02*
X83809524Y-29937676D01*
X83809524Y-29937676D02*
X83904762Y-29842438D01*
X83904762Y-29842438D02*
X84047619Y-29794819D01*
X84047619Y-29794819D02*
X84142857Y-29794819D01*
X84142857Y-29794819D02*
X84285714Y-29842438D01*
X84285714Y-29842438D02*
X84333333Y-29890057D01*
X85190476Y-29794819D02*
X85000000Y-29794819D01*
X85000000Y-29794819D02*
X84904762Y-29842438D01*
X84904762Y-29842438D02*
X84857143Y-29890057D01*
X84857143Y-29890057D02*
X84761905Y-30032914D01*
X84761905Y-30032914D02*
X84714286Y-30223390D01*
X84714286Y-30223390D02*
X84714286Y-30604342D01*
X84714286Y-30604342D02*
X84761905Y-30699580D01*
X84761905Y-30699580D02*
X84809524Y-30747200D01*
X84809524Y-30747200D02*
X84904762Y-30794819D01*
X84904762Y-30794819D02*
X85095238Y-30794819D01*
X85095238Y-30794819D02*
X85190476Y-30747200D01*
X85190476Y-30747200D02*
X85238095Y-30699580D01*
X85238095Y-30699580D02*
X85285714Y-30604342D01*
X85285714Y-30604342D02*
X85285714Y-30366247D01*
X85285714Y-30366247D02*
X85238095Y-30271009D01*
X85238095Y-30271009D02*
X85190476Y-30223390D01*
X85190476Y-30223390D02*
X85095238Y-30175771D01*
X85095238Y-30175771D02*
X84904762Y-30175771D01*
X84904762Y-30175771D02*
X84809524Y-30223390D01*
X84809524Y-30223390D02*
X84761905Y-30271009D01*
X84761905Y-30271009D02*
X84714286Y-30366247D01*
X179266280Y-16142857D02*
X179313900Y-16190476D01*
X179313900Y-16190476D02*
X179361519Y-16333333D01*
X179361519Y-16333333D02*
X179361519Y-16428571D01*
X179361519Y-16428571D02*
X179313900Y-16571428D01*
X179313900Y-16571428D02*
X179218661Y-16666666D01*
X179218661Y-16666666D02*
X179123423Y-16714285D01*
X179123423Y-16714285D02*
X178932947Y-16761904D01*
X178932947Y-16761904D02*
X178790090Y-16761904D01*
X178790090Y-16761904D02*
X178599614Y-16714285D01*
X178599614Y-16714285D02*
X178504376Y-16666666D01*
X178504376Y-16666666D02*
X178409138Y-16571428D01*
X178409138Y-16571428D02*
X178361519Y-16428571D01*
X178361519Y-16428571D02*
X178361519Y-16333333D01*
X178361519Y-16333333D02*
X178409138Y-16190476D01*
X178409138Y-16190476D02*
X178456757Y-16142857D01*
X178456757Y-15761904D02*
X178409138Y-15714285D01*
X178409138Y-15714285D02*
X178361519Y-15619047D01*
X178361519Y-15619047D02*
X178361519Y-15380952D01*
X178361519Y-15380952D02*
X178409138Y-15285714D01*
X178409138Y-15285714D02*
X178456757Y-15238095D01*
X178456757Y-15238095D02*
X178551995Y-15190476D01*
X178551995Y-15190476D02*
X178647233Y-15190476D01*
X178647233Y-15190476D02*
X178790090Y-15238095D01*
X178790090Y-15238095D02*
X179361519Y-15809523D01*
X179361519Y-15809523D02*
X179361519Y-15190476D01*
X178361519Y-14571428D02*
X178361519Y-14476190D01*
X178361519Y-14476190D02*
X178409138Y-14380952D01*
X178409138Y-14380952D02*
X178456757Y-14333333D01*
X178456757Y-14333333D02*
X178551995Y-14285714D01*
X178551995Y-14285714D02*
X178742471Y-14238095D01*
X178742471Y-14238095D02*
X178980566Y-14238095D01*
X178980566Y-14238095D02*
X179171042Y-14285714D01*
X179171042Y-14285714D02*
X179266280Y-14333333D01*
X179266280Y-14333333D02*
X179313900Y-14380952D01*
X179313900Y-14380952D02*
X179361519Y-14476190D01*
X179361519Y-14476190D02*
X179361519Y-14571428D01*
X179361519Y-14571428D02*
X179313900Y-14666666D01*
X179313900Y-14666666D02*
X179266280Y-14714285D01*
X179266280Y-14714285D02*
X179171042Y-14761904D01*
X179171042Y-14761904D02*
X178980566Y-14809523D01*
X178980566Y-14809523D02*
X178742471Y-14809523D01*
X178742471Y-14809523D02*
X178551995Y-14761904D01*
X178551995Y-14761904D02*
X178456757Y-14714285D01*
X178456757Y-14714285D02*
X178409138Y-14666666D01*
X178409138Y-14666666D02*
X178361519Y-14571428D01*
X87333333Y-44784819D02*
X87000000Y-44308628D01*
X86761905Y-44784819D02*
X86761905Y-43784819D01*
X86761905Y-43784819D02*
X87142857Y-43784819D01*
X87142857Y-43784819D02*
X87238095Y-43832438D01*
X87238095Y-43832438D02*
X87285714Y-43880057D01*
X87285714Y-43880057D02*
X87333333Y-43975295D01*
X87333333Y-43975295D02*
X87333333Y-44118152D01*
X87333333Y-44118152D02*
X87285714Y-44213390D01*
X87285714Y-44213390D02*
X87238095Y-44261009D01*
X87238095Y-44261009D02*
X87142857Y-44308628D01*
X87142857Y-44308628D02*
X86761905Y-44308628D01*
X88285714Y-44784819D02*
X87714286Y-44784819D01*
X88000000Y-44784819D02*
X88000000Y-43784819D01*
X88000000Y-43784819D02*
X87904762Y-43927676D01*
X87904762Y-43927676D02*
X87809524Y-44022914D01*
X87809524Y-44022914D02*
X87714286Y-44070533D01*
X113238095Y-39804819D02*
X113238095Y-38804819D01*
X113238095Y-39281009D02*
X113809523Y-39281009D01*
X113809523Y-39804819D02*
X113809523Y-38804819D01*
X114238095Y-38900057D02*
X114285714Y-38852438D01*
X114285714Y-38852438D02*
X114380952Y-38804819D01*
X114380952Y-38804819D02*
X114619047Y-38804819D01*
X114619047Y-38804819D02*
X114714285Y-38852438D01*
X114714285Y-38852438D02*
X114761904Y-38900057D01*
X114761904Y-38900057D02*
X114809523Y-38995295D01*
X114809523Y-38995295D02*
X114809523Y-39090533D01*
X114809523Y-39090533D02*
X114761904Y-39233390D01*
X114761904Y-39233390D02*
X114190476Y-39804819D01*
X114190476Y-39804819D02*
X114809523Y-39804819D01*
X109833333Y-24179580D02*
X109785714Y-24227200D01*
X109785714Y-24227200D02*
X109642857Y-24274819D01*
X109642857Y-24274819D02*
X109547619Y-24274819D01*
X109547619Y-24274819D02*
X109404762Y-24227200D01*
X109404762Y-24227200D02*
X109309524Y-24131961D01*
X109309524Y-24131961D02*
X109261905Y-24036723D01*
X109261905Y-24036723D02*
X109214286Y-23846247D01*
X109214286Y-23846247D02*
X109214286Y-23703390D01*
X109214286Y-23703390D02*
X109261905Y-23512914D01*
X109261905Y-23512914D02*
X109309524Y-23417676D01*
X109309524Y-23417676D02*
X109404762Y-23322438D01*
X109404762Y-23322438D02*
X109547619Y-23274819D01*
X109547619Y-23274819D02*
X109642857Y-23274819D01*
X109642857Y-23274819D02*
X109785714Y-23322438D01*
X109785714Y-23322438D02*
X109833333Y-23370057D01*
X110166667Y-23274819D02*
X110785714Y-23274819D01*
X110785714Y-23274819D02*
X110452381Y-23655771D01*
X110452381Y-23655771D02*
X110595238Y-23655771D01*
X110595238Y-23655771D02*
X110690476Y-23703390D01*
X110690476Y-23703390D02*
X110738095Y-23751009D01*
X110738095Y-23751009D02*
X110785714Y-23846247D01*
X110785714Y-23846247D02*
X110785714Y-24084342D01*
X110785714Y-24084342D02*
X110738095Y-24179580D01*
X110738095Y-24179580D02*
X110690476Y-24227200D01*
X110690476Y-24227200D02*
X110595238Y-24274819D01*
X110595238Y-24274819D02*
X110309524Y-24274819D01*
X110309524Y-24274819D02*
X110214286Y-24227200D01*
X110214286Y-24227200D02*
X110166667Y-24179580D01*
X29266250Y-16142857D02*
X29313870Y-16190476D01*
X29313870Y-16190476D02*
X29361489Y-16333333D01*
X29361489Y-16333333D02*
X29361489Y-16428571D01*
X29361489Y-16428571D02*
X29313870Y-16571428D01*
X29313870Y-16571428D02*
X29218631Y-16666666D01*
X29218631Y-16666666D02*
X29123393Y-16714285D01*
X29123393Y-16714285D02*
X28932917Y-16761904D01*
X28932917Y-16761904D02*
X28790060Y-16761904D01*
X28790060Y-16761904D02*
X28599584Y-16714285D01*
X28599584Y-16714285D02*
X28504346Y-16666666D01*
X28504346Y-16666666D02*
X28409108Y-16571428D01*
X28409108Y-16571428D02*
X28361489Y-16428571D01*
X28361489Y-16428571D02*
X28361489Y-16333333D01*
X28361489Y-16333333D02*
X28409108Y-16190476D01*
X28409108Y-16190476D02*
X28456727Y-16142857D01*
X29361489Y-15190476D02*
X29361489Y-15761904D01*
X29361489Y-15476190D02*
X28361489Y-15476190D01*
X28361489Y-15476190D02*
X28504346Y-15571428D01*
X28504346Y-15571428D02*
X28599584Y-15666666D01*
X28599584Y-15666666D02*
X28647203Y-15761904D01*
X29361489Y-14238095D02*
X29361489Y-14809523D01*
X29361489Y-14523809D02*
X28361489Y-14523809D01*
X28361489Y-14523809D02*
X28504346Y-14619047D01*
X28504346Y-14619047D02*
X28599584Y-14714285D01*
X28599584Y-14714285D02*
X28647203Y-14809523D01*
X90288169Y-11666666D02*
X90288169Y-12142856D01*
X90288169Y-12142856D02*
X89288169Y-12142856D01*
X90288169Y-11333332D02*
X89288169Y-11333332D01*
X89288169Y-11333332D02*
X89288169Y-11095237D01*
X89288169Y-11095237D02*
X89335788Y-10952380D01*
X89335788Y-10952380D02*
X89431026Y-10857142D01*
X89431026Y-10857142D02*
X89526264Y-10809523D01*
X89526264Y-10809523D02*
X89716740Y-10761904D01*
X89716740Y-10761904D02*
X89859597Y-10761904D01*
X89859597Y-10761904D02*
X90050073Y-10809523D01*
X90050073Y-10809523D02*
X90145311Y-10857142D01*
X90145311Y-10857142D02*
X90240550Y-10952380D01*
X90240550Y-10952380D02*
X90288169Y-11095237D01*
X90288169Y-11095237D02*
X90288169Y-11333332D01*
X89288169Y-9904761D02*
X89288169Y-10095237D01*
X89288169Y-10095237D02*
X89335788Y-10190475D01*
X89335788Y-10190475D02*
X89383407Y-10238094D01*
X89383407Y-10238094D02*
X89526264Y-10333332D01*
X89526264Y-10333332D02*
X89716740Y-10380951D01*
X89716740Y-10380951D02*
X90097692Y-10380951D01*
X90097692Y-10380951D02*
X90192930Y-10333332D01*
X90192930Y-10333332D02*
X90240550Y-10285713D01*
X90240550Y-10285713D02*
X90288169Y-10190475D01*
X90288169Y-10190475D02*
X90288169Y-9999999D01*
X90288169Y-9999999D02*
X90240550Y-9904761D01*
X90240550Y-9904761D02*
X90192930Y-9857142D01*
X90192930Y-9857142D02*
X90097692Y-9809523D01*
X90097692Y-9809523D02*
X89859597Y-9809523D01*
X89859597Y-9809523D02*
X89764359Y-9857142D01*
X89764359Y-9857142D02*
X89716740Y-9904761D01*
X89716740Y-9904761D02*
X89669121Y-9999999D01*
X89669121Y-9999999D02*
X89669121Y-10190475D01*
X89669121Y-10190475D02*
X89716740Y-10285713D01*
X89716740Y-10285713D02*
X89764359Y-10333332D01*
X89764359Y-10333332D02*
X89859597Y-10380951D01*
X92095645Y-14771428D02*
X92095645Y-15228571D01*
X92095645Y-14999999D02*
X91295645Y-14999999D01*
X91295645Y-14999999D02*
X91409930Y-15076190D01*
X91409930Y-15076190D02*
X91486121Y-15152380D01*
X91486121Y-15152380D02*
X91524216Y-15228571D01*
X162599610Y-16142857D02*
X162647230Y-16190476D01*
X162647230Y-16190476D02*
X162694849Y-16333333D01*
X162694849Y-16333333D02*
X162694849Y-16428571D01*
X162694849Y-16428571D02*
X162647230Y-16571428D01*
X162647230Y-16571428D02*
X162551991Y-16666666D01*
X162551991Y-16666666D02*
X162456753Y-16714285D01*
X162456753Y-16714285D02*
X162266277Y-16761904D01*
X162266277Y-16761904D02*
X162123420Y-16761904D01*
X162123420Y-16761904D02*
X161932944Y-16714285D01*
X161932944Y-16714285D02*
X161837706Y-16666666D01*
X161837706Y-16666666D02*
X161742468Y-16571428D01*
X161742468Y-16571428D02*
X161694849Y-16428571D01*
X161694849Y-16428571D02*
X161694849Y-16333333D01*
X161694849Y-16333333D02*
X161742468Y-16190476D01*
X161742468Y-16190476D02*
X161790087Y-16142857D01*
X162694849Y-15190476D02*
X162694849Y-15761904D01*
X162694849Y-15476190D02*
X161694849Y-15476190D01*
X161694849Y-15476190D02*
X161837706Y-15571428D01*
X161837706Y-15571428D02*
X161932944Y-15666666D01*
X161932944Y-15666666D02*
X161980563Y-15761904D01*
X162694849Y-14714285D02*
X162694849Y-14523809D01*
X162694849Y-14523809D02*
X162647230Y-14428571D01*
X162647230Y-14428571D02*
X162599610Y-14380952D01*
X162599610Y-14380952D02*
X162456753Y-14285714D01*
X162456753Y-14285714D02*
X162266277Y-14238095D01*
X162266277Y-14238095D02*
X161885325Y-14238095D01*
X161885325Y-14238095D02*
X161790087Y-14285714D01*
X161790087Y-14285714D02*
X161742468Y-14333333D01*
X161742468Y-14333333D02*
X161694849Y-14428571D01*
X161694849Y-14428571D02*
X161694849Y-14619047D01*
X161694849Y-14619047D02*
X161742468Y-14714285D01*
X161742468Y-14714285D02*
X161790087Y-14761904D01*
X161790087Y-14761904D02*
X161885325Y-14809523D01*
X161885325Y-14809523D02*
X162123420Y-14809523D01*
X162123420Y-14809523D02*
X162218658Y-14761904D01*
X162218658Y-14761904D02*
X162266277Y-14714285D01*
X162266277Y-14714285D02*
X162313896Y-14619047D01*
X162313896Y-14619047D02*
X162313896Y-14428571D01*
X162313896Y-14428571D02*
X162266277Y-14333333D01*
X162266277Y-14333333D02*
X162218658Y-14285714D01*
X162218658Y-14285714D02*
X162123420Y-14238095D01*
X114333333Y-35284819D02*
X114000000Y-34808628D01*
X113761905Y-35284819D02*
X113761905Y-34284819D01*
X113761905Y-34284819D02*
X114142857Y-34284819D01*
X114142857Y-34284819D02*
X114238095Y-34332438D01*
X114238095Y-34332438D02*
X114285714Y-34380057D01*
X114285714Y-34380057D02*
X114333333Y-34475295D01*
X114333333Y-34475295D02*
X114333333Y-34618152D01*
X114333333Y-34618152D02*
X114285714Y-34713390D01*
X114285714Y-34713390D02*
X114238095Y-34761009D01*
X114238095Y-34761009D02*
X114142857Y-34808628D01*
X114142857Y-34808628D02*
X113761905Y-34808628D01*
X115190476Y-34284819D02*
X115000000Y-34284819D01*
X115000000Y-34284819D02*
X114904762Y-34332438D01*
X114904762Y-34332438D02*
X114857143Y-34380057D01*
X114857143Y-34380057D02*
X114761905Y-34522914D01*
X114761905Y-34522914D02*
X114714286Y-34713390D01*
X114714286Y-34713390D02*
X114714286Y-35094342D01*
X114714286Y-35094342D02*
X114761905Y-35189580D01*
X114761905Y-35189580D02*
X114809524Y-35237200D01*
X114809524Y-35237200D02*
X114904762Y-35284819D01*
X114904762Y-35284819D02*
X115095238Y-35284819D01*
X115095238Y-35284819D02*
X115190476Y-35237200D01*
X115190476Y-35237200D02*
X115238095Y-35189580D01*
X115238095Y-35189580D02*
X115285714Y-35094342D01*
X115285714Y-35094342D02*
X115285714Y-34856247D01*
X115285714Y-34856247D02*
X115238095Y-34761009D01*
X115238095Y-34761009D02*
X115190476Y-34713390D01*
X115190476Y-34713390D02*
X115095238Y-34665771D01*
X115095238Y-34665771D02*
X114904762Y-34665771D01*
X114904762Y-34665771D02*
X114809524Y-34713390D01*
X114809524Y-34713390D02*
X114761905Y-34761009D01*
X114761905Y-34761009D02*
X114714286Y-34856247D01*
X94833333Y-26284819D02*
X94500000Y-25808628D01*
X94261905Y-26284819D02*
X94261905Y-25284819D01*
X94261905Y-25284819D02*
X94642857Y-25284819D01*
X94642857Y-25284819D02*
X94738095Y-25332438D01*
X94738095Y-25332438D02*
X94785714Y-25380057D01*
X94785714Y-25380057D02*
X94833333Y-25475295D01*
X94833333Y-25475295D02*
X94833333Y-25618152D01*
X94833333Y-25618152D02*
X94785714Y-25713390D01*
X94785714Y-25713390D02*
X94738095Y-25761009D01*
X94738095Y-25761009D02*
X94642857Y-25808628D01*
X94642857Y-25808628D02*
X94261905Y-25808628D01*
X95309524Y-26284819D02*
X95500000Y-26284819D01*
X95500000Y-26284819D02*
X95595238Y-26237200D01*
X95595238Y-26237200D02*
X95642857Y-26189580D01*
X95642857Y-26189580D02*
X95738095Y-26046723D01*
X95738095Y-26046723D02*
X95785714Y-25856247D01*
X95785714Y-25856247D02*
X95785714Y-25475295D01*
X95785714Y-25475295D02*
X95738095Y-25380057D01*
X95738095Y-25380057D02*
X95690476Y-25332438D01*
X95690476Y-25332438D02*
X95595238Y-25284819D01*
X95595238Y-25284819D02*
X95404762Y-25284819D01*
X95404762Y-25284819D02*
X95309524Y-25332438D01*
X95309524Y-25332438D02*
X95261905Y-25380057D01*
X95261905Y-25380057D02*
X95214286Y-25475295D01*
X95214286Y-25475295D02*
X95214286Y-25713390D01*
X95214286Y-25713390D02*
X95261905Y-25808628D01*
X95261905Y-25808628D02*
X95309524Y-25856247D01*
X95309524Y-25856247D02*
X95404762Y-25903866D01*
X95404762Y-25903866D02*
X95595238Y-25903866D01*
X95595238Y-25903866D02*
X95690476Y-25856247D01*
X95690476Y-25856247D02*
X95738095Y-25808628D01*
X95738095Y-25808628D02*
X95785714Y-25713390D01*
X56954829Y-11666666D02*
X56954829Y-12142856D01*
X56954829Y-12142856D02*
X55954829Y-12142856D01*
X56954829Y-11333332D02*
X55954829Y-11333332D01*
X55954829Y-11333332D02*
X55954829Y-11095237D01*
X55954829Y-11095237D02*
X56002448Y-10952380D01*
X56002448Y-10952380D02*
X56097686Y-10857142D01*
X56097686Y-10857142D02*
X56192924Y-10809523D01*
X56192924Y-10809523D02*
X56383400Y-10761904D01*
X56383400Y-10761904D02*
X56526257Y-10761904D01*
X56526257Y-10761904D02*
X56716733Y-10809523D01*
X56716733Y-10809523D02*
X56811971Y-10857142D01*
X56811971Y-10857142D02*
X56907210Y-10952380D01*
X56907210Y-10952380D02*
X56954829Y-11095237D01*
X56954829Y-11095237D02*
X56954829Y-11333332D01*
X56288162Y-9904761D02*
X56954829Y-9904761D01*
X55907210Y-10142856D02*
X56621495Y-10380951D01*
X56621495Y-10380951D02*
X56621495Y-9761904D01*
X58762305Y-14771428D02*
X58762305Y-15228571D01*
X58762305Y-14999999D02*
X57962305Y-14999999D01*
X57962305Y-14999999D02*
X58076590Y-15076190D01*
X58076590Y-15076190D02*
X58152781Y-15152380D01*
X58152781Y-15152380D02*
X58190876Y-15228571D01*
X112599600Y-16142857D02*
X112647220Y-16190476D01*
X112647220Y-16190476D02*
X112694839Y-16333333D01*
X112694839Y-16333333D02*
X112694839Y-16428571D01*
X112694839Y-16428571D02*
X112647220Y-16571428D01*
X112647220Y-16571428D02*
X112551981Y-16666666D01*
X112551981Y-16666666D02*
X112456743Y-16714285D01*
X112456743Y-16714285D02*
X112266267Y-16761904D01*
X112266267Y-16761904D02*
X112123410Y-16761904D01*
X112123410Y-16761904D02*
X111932934Y-16714285D01*
X111932934Y-16714285D02*
X111837696Y-16666666D01*
X111837696Y-16666666D02*
X111742458Y-16571428D01*
X111742458Y-16571428D02*
X111694839Y-16428571D01*
X111694839Y-16428571D02*
X111694839Y-16333333D01*
X111694839Y-16333333D02*
X111742458Y-16190476D01*
X111742458Y-16190476D02*
X111790077Y-16142857D01*
X112694839Y-15190476D02*
X112694839Y-15761904D01*
X112694839Y-15476190D02*
X111694839Y-15476190D01*
X111694839Y-15476190D02*
X111837696Y-15571428D01*
X111837696Y-15571428D02*
X111932934Y-15666666D01*
X111932934Y-15666666D02*
X111980553Y-15761904D01*
X111694839Y-14333333D02*
X111694839Y-14523809D01*
X111694839Y-14523809D02*
X111742458Y-14619047D01*
X111742458Y-14619047D02*
X111790077Y-14666666D01*
X111790077Y-14666666D02*
X111932934Y-14761904D01*
X111932934Y-14761904D02*
X112123410Y-14809523D01*
X112123410Y-14809523D02*
X112504362Y-14809523D01*
X112504362Y-14809523D02*
X112599600Y-14761904D01*
X112599600Y-14761904D02*
X112647220Y-14714285D01*
X112647220Y-14714285D02*
X112694839Y-14619047D01*
X112694839Y-14619047D02*
X112694839Y-14428571D01*
X112694839Y-14428571D02*
X112647220Y-14333333D01*
X112647220Y-14333333D02*
X112599600Y-14285714D01*
X112599600Y-14285714D02*
X112504362Y-14238095D01*
X112504362Y-14238095D02*
X112266267Y-14238095D01*
X112266267Y-14238095D02*
X112171029Y-14285714D01*
X112171029Y-14285714D02*
X112123410Y-14333333D01*
X112123410Y-14333333D02*
X112075791Y-14428571D01*
X112075791Y-14428571D02*
X112075791Y-14619047D01*
X112075791Y-14619047D02*
X112123410Y-14714285D01*
X112123410Y-14714285D02*
X112171029Y-14761904D01*
X112171029Y-14761904D02*
X112266267Y-14809523D01*
X129266270Y-16142857D02*
X129313890Y-16190476D01*
X129313890Y-16190476D02*
X129361509Y-16333333D01*
X129361509Y-16333333D02*
X129361509Y-16428571D01*
X129361509Y-16428571D02*
X129313890Y-16571428D01*
X129313890Y-16571428D02*
X129218651Y-16666666D01*
X129218651Y-16666666D02*
X129123413Y-16714285D01*
X129123413Y-16714285D02*
X128932937Y-16761904D01*
X128932937Y-16761904D02*
X128790080Y-16761904D01*
X128790080Y-16761904D02*
X128599604Y-16714285D01*
X128599604Y-16714285D02*
X128504366Y-16666666D01*
X128504366Y-16666666D02*
X128409128Y-16571428D01*
X128409128Y-16571428D02*
X128361509Y-16428571D01*
X128361509Y-16428571D02*
X128361509Y-16333333D01*
X128361509Y-16333333D02*
X128409128Y-16190476D01*
X128409128Y-16190476D02*
X128456747Y-16142857D01*
X129361509Y-15190476D02*
X129361509Y-15761904D01*
X129361509Y-15476190D02*
X128361509Y-15476190D01*
X128361509Y-15476190D02*
X128504366Y-15571428D01*
X128504366Y-15571428D02*
X128599604Y-15666666D01*
X128599604Y-15666666D02*
X128647223Y-15761904D01*
X128361509Y-14857142D02*
X128361509Y-14190476D01*
X128361509Y-14190476D02*
X129361509Y-14619047D01*
X91761905Y-19506819D02*
X92333333Y-19506819D01*
X92047619Y-20506819D02*
X92047619Y-19506819D01*
X92666667Y-20506819D02*
X92666667Y-19506819D01*
X92666667Y-19506819D02*
X93047619Y-19506819D01*
X93047619Y-19506819D02*
X93142857Y-19554438D01*
X93142857Y-19554438D02*
X93190476Y-19602057D01*
X93190476Y-19602057D02*
X93238095Y-19697295D01*
X93238095Y-19697295D02*
X93238095Y-19840152D01*
X93238095Y-19840152D02*
X93190476Y-19935390D01*
X93190476Y-19935390D02*
X93142857Y-19983009D01*
X93142857Y-19983009D02*
X93047619Y-20030628D01*
X93047619Y-20030628D02*
X92666667Y-20030628D01*
X94190476Y-20506819D02*
X93619048Y-20506819D01*
X93904762Y-20506819D02*
X93904762Y-19506819D01*
X93904762Y-19506819D02*
X93809524Y-19649676D01*
X93809524Y-19649676D02*
X93714286Y-19744914D01*
X93714286Y-19744914D02*
X93619048Y-19792533D01*
X95142857Y-20506819D02*
X94571429Y-20506819D01*
X94857143Y-20506819D02*
X94857143Y-19506819D01*
X94857143Y-19506819D02*
X94761905Y-19649676D01*
X94761905Y-19649676D02*
X94666667Y-19744914D01*
X94666667Y-19744914D02*
X94571429Y-19792533D01*
X114333333Y-29179580D02*
X114285714Y-29227200D01*
X114285714Y-29227200D02*
X114142857Y-29274819D01*
X114142857Y-29274819D02*
X114047619Y-29274819D01*
X114047619Y-29274819D02*
X113904762Y-29227200D01*
X113904762Y-29227200D02*
X113809524Y-29131961D01*
X113809524Y-29131961D02*
X113761905Y-29036723D01*
X113761905Y-29036723D02*
X113714286Y-28846247D01*
X113714286Y-28846247D02*
X113714286Y-28703390D01*
X113714286Y-28703390D02*
X113761905Y-28512914D01*
X113761905Y-28512914D02*
X113809524Y-28417676D01*
X113809524Y-28417676D02*
X113904762Y-28322438D01*
X113904762Y-28322438D02*
X114047619Y-28274819D01*
X114047619Y-28274819D02*
X114142857Y-28274819D01*
X114142857Y-28274819D02*
X114285714Y-28322438D01*
X114285714Y-28322438D02*
X114333333Y-28370057D01*
X115190476Y-28608152D02*
X115190476Y-29274819D01*
X114952381Y-28227200D02*
X114714286Y-28941485D01*
X114714286Y-28941485D02*
X115333333Y-28941485D01*
X105238095Y-25006819D02*
X105809523Y-25006819D01*
X105523809Y-26006819D02*
X105523809Y-25006819D01*
X106142857Y-26006819D02*
X106142857Y-25006819D01*
X106142857Y-25006819D02*
X106523809Y-25006819D01*
X106523809Y-25006819D02*
X106619047Y-25054438D01*
X106619047Y-25054438D02*
X106666666Y-25102057D01*
X106666666Y-25102057D02*
X106714285Y-25197295D01*
X106714285Y-25197295D02*
X106714285Y-25340152D01*
X106714285Y-25340152D02*
X106666666Y-25435390D01*
X106666666Y-25435390D02*
X106619047Y-25483009D01*
X106619047Y-25483009D02*
X106523809Y-25530628D01*
X106523809Y-25530628D02*
X106142857Y-25530628D01*
X107571428Y-25006819D02*
X107380952Y-25006819D01*
X107380952Y-25006819D02*
X107285714Y-25054438D01*
X107285714Y-25054438D02*
X107238095Y-25102057D01*
X107238095Y-25102057D02*
X107142857Y-25244914D01*
X107142857Y-25244914D02*
X107095238Y-25435390D01*
X107095238Y-25435390D02*
X107095238Y-25816342D01*
X107095238Y-25816342D02*
X107142857Y-25911580D01*
X107142857Y-25911580D02*
X107190476Y-25959200D01*
X107190476Y-25959200D02*
X107285714Y-26006819D01*
X107285714Y-26006819D02*
X107476190Y-26006819D01*
X107476190Y-26006819D02*
X107571428Y-25959200D01*
X107571428Y-25959200D02*
X107619047Y-25911580D01*
X107619047Y-25911580D02*
X107666666Y-25816342D01*
X107666666Y-25816342D02*
X107666666Y-25578247D01*
X107666666Y-25578247D02*
X107619047Y-25483009D01*
X107619047Y-25483009D02*
X107571428Y-25435390D01*
X107571428Y-25435390D02*
X107476190Y-25387771D01*
X107476190Y-25387771D02*
X107285714Y-25387771D01*
X107285714Y-25387771D02*
X107190476Y-25435390D01*
X107190476Y-25435390D02*
X107142857Y-25483009D01*
X107142857Y-25483009D02*
X107095238Y-25578247D01*
X112333333Y-21199580D02*
X112285714Y-21247200D01*
X112285714Y-21247200D02*
X112142857Y-21294819D01*
X112142857Y-21294819D02*
X112047619Y-21294819D01*
X112047619Y-21294819D02*
X111904762Y-21247200D01*
X111904762Y-21247200D02*
X111809524Y-21151961D01*
X111809524Y-21151961D02*
X111761905Y-21056723D01*
X111761905Y-21056723D02*
X111714286Y-20866247D01*
X111714286Y-20866247D02*
X111714286Y-20723390D01*
X111714286Y-20723390D02*
X111761905Y-20532914D01*
X111761905Y-20532914D02*
X111809524Y-20437676D01*
X111809524Y-20437676D02*
X111904762Y-20342438D01*
X111904762Y-20342438D02*
X112047619Y-20294819D01*
X112047619Y-20294819D02*
X112142857Y-20294819D01*
X112142857Y-20294819D02*
X112285714Y-20342438D01*
X112285714Y-20342438D02*
X112333333Y-20390057D01*
X112666667Y-20294819D02*
X113333333Y-20294819D01*
X113333333Y-20294819D02*
X112904762Y-21294819D01*
X106761905Y-42506819D02*
X107333333Y-42506819D01*
X107047619Y-43506819D02*
X107047619Y-42506819D01*
X107666667Y-43506819D02*
X107666667Y-42506819D01*
X107666667Y-42506819D02*
X108047619Y-42506819D01*
X108047619Y-42506819D02*
X108142857Y-42554438D01*
X108142857Y-42554438D02*
X108190476Y-42602057D01*
X108190476Y-42602057D02*
X108238095Y-42697295D01*
X108238095Y-42697295D02*
X108238095Y-42840152D01*
X108238095Y-42840152D02*
X108190476Y-42935390D01*
X108190476Y-42935390D02*
X108142857Y-42983009D01*
X108142857Y-42983009D02*
X108047619Y-43030628D01*
X108047619Y-43030628D02*
X107666667Y-43030628D01*
X109190476Y-43506819D02*
X108619048Y-43506819D01*
X108904762Y-43506819D02*
X108904762Y-42506819D01*
X108904762Y-42506819D02*
X108809524Y-42649676D01*
X108809524Y-42649676D02*
X108714286Y-42744914D01*
X108714286Y-42744914D02*
X108619048Y-42792533D01*
X109809524Y-42506819D02*
X109904762Y-42506819D01*
X109904762Y-42506819D02*
X110000000Y-42554438D01*
X110000000Y-42554438D02*
X110047619Y-42602057D01*
X110047619Y-42602057D02*
X110095238Y-42697295D01*
X110095238Y-42697295D02*
X110142857Y-42887771D01*
X110142857Y-42887771D02*
X110142857Y-43125866D01*
X110142857Y-43125866D02*
X110095238Y-43316342D01*
X110095238Y-43316342D02*
X110047619Y-43411580D01*
X110047619Y-43411580D02*
X110000000Y-43459200D01*
X110000000Y-43459200D02*
X109904762Y-43506819D01*
X109904762Y-43506819D02*
X109809524Y-43506819D01*
X109809524Y-43506819D02*
X109714286Y-43459200D01*
X109714286Y-43459200D02*
X109666667Y-43411580D01*
X109666667Y-43411580D02*
X109619048Y-43316342D01*
X109619048Y-43316342D02*
X109571429Y-43125866D01*
X109571429Y-43125866D02*
X109571429Y-42887771D01*
X109571429Y-42887771D02*
X109619048Y-42697295D01*
X109619048Y-42697295D02*
X109666667Y-42602057D01*
X109666667Y-42602057D02*
X109714286Y-42554438D01*
X109714286Y-42554438D02*
X109809524Y-42506819D01*
X79833333Y-20159580D02*
X79785714Y-20207200D01*
X79785714Y-20207200D02*
X79642857Y-20254819D01*
X79642857Y-20254819D02*
X79547619Y-20254819D01*
X79547619Y-20254819D02*
X79404762Y-20207200D01*
X79404762Y-20207200D02*
X79309524Y-20111961D01*
X79309524Y-20111961D02*
X79261905Y-20016723D01*
X79261905Y-20016723D02*
X79214286Y-19826247D01*
X79214286Y-19826247D02*
X79214286Y-19683390D01*
X79214286Y-19683390D02*
X79261905Y-19492914D01*
X79261905Y-19492914D02*
X79309524Y-19397676D01*
X79309524Y-19397676D02*
X79404762Y-19302438D01*
X79404762Y-19302438D02*
X79547619Y-19254819D01*
X79547619Y-19254819D02*
X79642857Y-19254819D01*
X79642857Y-19254819D02*
X79785714Y-19302438D01*
X79785714Y-19302438D02*
X79833333Y-19350057D01*
X80785714Y-20254819D02*
X80214286Y-20254819D01*
X80500000Y-20254819D02*
X80500000Y-19254819D01*
X80500000Y-19254819D02*
X80404762Y-19397676D01*
X80404762Y-19397676D02*
X80309524Y-19492914D01*
X80309524Y-19492914D02*
X80214286Y-19540533D01*
X156954849Y-12142857D02*
X156954849Y-12619047D01*
X156954849Y-12619047D02*
X155954849Y-12619047D01*
X156954849Y-11809523D02*
X155954849Y-11809523D01*
X155954849Y-11809523D02*
X155954849Y-11571428D01*
X155954849Y-11571428D02*
X156002468Y-11428571D01*
X156002468Y-11428571D02*
X156097706Y-11333333D01*
X156097706Y-11333333D02*
X156192944Y-11285714D01*
X156192944Y-11285714D02*
X156383420Y-11238095D01*
X156383420Y-11238095D02*
X156526277Y-11238095D01*
X156526277Y-11238095D02*
X156716753Y-11285714D01*
X156716753Y-11285714D02*
X156811991Y-11333333D01*
X156811991Y-11333333D02*
X156907230Y-11428571D01*
X156907230Y-11428571D02*
X156954849Y-11571428D01*
X156954849Y-11571428D02*
X156954849Y-11809523D01*
X156954849Y-10285714D02*
X156954849Y-10857142D01*
X156954849Y-10571428D02*
X155954849Y-10571428D01*
X155954849Y-10571428D02*
X156097706Y-10666666D01*
X156097706Y-10666666D02*
X156192944Y-10761904D01*
X156192944Y-10761904D02*
X156240563Y-10857142D01*
X155954849Y-9666666D02*
X155954849Y-9571428D01*
X155954849Y-9571428D02*
X156002468Y-9476190D01*
X156002468Y-9476190D02*
X156050087Y-9428571D01*
X156050087Y-9428571D02*
X156145325Y-9380952D01*
X156145325Y-9380952D02*
X156335801Y-9333333D01*
X156335801Y-9333333D02*
X156573896Y-9333333D01*
X156573896Y-9333333D02*
X156764372Y-9380952D01*
X156764372Y-9380952D02*
X156859610Y-9428571D01*
X156859610Y-9428571D02*
X156907230Y-9476190D01*
X156907230Y-9476190D02*
X156954849Y-9571428D01*
X156954849Y-9571428D02*
X156954849Y-9666666D01*
X156954849Y-9666666D02*
X156907230Y-9761904D01*
X156907230Y-9761904D02*
X156859610Y-9809523D01*
X156859610Y-9809523D02*
X156764372Y-9857142D01*
X156764372Y-9857142D02*
X156573896Y-9904761D01*
X156573896Y-9904761D02*
X156335801Y-9904761D01*
X156335801Y-9904761D02*
X156145325Y-9857142D01*
X156145325Y-9857142D02*
X156050087Y-9809523D01*
X156050087Y-9809523D02*
X156002468Y-9761904D01*
X156002468Y-9761904D02*
X155954849Y-9666666D01*
X158762325Y-14771428D02*
X158762325Y-15228571D01*
X158762325Y-14999999D02*
X157962325Y-14999999D01*
X157962325Y-14999999D02*
X158076610Y-15076190D01*
X158076610Y-15076190D02*
X158152801Y-15152380D01*
X158152801Y-15152380D02*
X158190896Y-15228571D01*
X114333333Y-32784819D02*
X114000000Y-32308628D01*
X113761905Y-32784819D02*
X113761905Y-31784819D01*
X113761905Y-31784819D02*
X114142857Y-31784819D01*
X114142857Y-31784819D02*
X114238095Y-31832438D01*
X114238095Y-31832438D02*
X114285714Y-31880057D01*
X114285714Y-31880057D02*
X114333333Y-31975295D01*
X114333333Y-31975295D02*
X114333333Y-32118152D01*
X114333333Y-32118152D02*
X114285714Y-32213390D01*
X114285714Y-32213390D02*
X114238095Y-32261009D01*
X114238095Y-32261009D02*
X114142857Y-32308628D01*
X114142857Y-32308628D02*
X113761905Y-32308628D01*
X115190476Y-32118152D02*
X115190476Y-32784819D01*
X114952381Y-31737200D02*
X114714286Y-32451485D01*
X114714286Y-32451485D02*
X115333333Y-32451485D01*
X126809523Y-39006819D02*
X126809523Y-39721104D01*
X126809523Y-39721104D02*
X126761904Y-39863961D01*
X126761904Y-39863961D02*
X126666666Y-39959200D01*
X126666666Y-39959200D02*
X126523809Y-40006819D01*
X126523809Y-40006819D02*
X126428571Y-40006819D01*
X127190476Y-39006819D02*
X127809523Y-39006819D01*
X127809523Y-39006819D02*
X127476190Y-39387771D01*
X127476190Y-39387771D02*
X127619047Y-39387771D01*
X127619047Y-39387771D02*
X127714285Y-39435390D01*
X127714285Y-39435390D02*
X127761904Y-39483009D01*
X127761904Y-39483009D02*
X127809523Y-39578247D01*
X127809523Y-39578247D02*
X127809523Y-39816342D01*
X127809523Y-39816342D02*
X127761904Y-39911580D01*
X127761904Y-39911580D02*
X127714285Y-39959200D01*
X127714285Y-39959200D02*
X127619047Y-40006819D01*
X127619047Y-40006819D02*
X127333333Y-40006819D01*
X127333333Y-40006819D02*
X127238095Y-39959200D01*
X127238095Y-39959200D02*
X127190476Y-39911580D01*
X128000000Y-40102057D02*
X128761904Y-40102057D01*
X128952381Y-39102057D02*
X129000000Y-39054438D01*
X129000000Y-39054438D02*
X129095238Y-39006819D01*
X129095238Y-39006819D02*
X129333333Y-39006819D01*
X129333333Y-39006819D02*
X129428571Y-39054438D01*
X129428571Y-39054438D02*
X129476190Y-39102057D01*
X129476190Y-39102057D02*
X129523809Y-39197295D01*
X129523809Y-39197295D02*
X129523809Y-39292533D01*
X129523809Y-39292533D02*
X129476190Y-39435390D01*
X129476190Y-39435390D02*
X128904762Y-40006819D01*
X128904762Y-40006819D02*
X129523809Y-40006819D01*
X83833333Y-33179580D02*
X83785714Y-33227200D01*
X83785714Y-33227200D02*
X83642857Y-33274819D01*
X83642857Y-33274819D02*
X83547619Y-33274819D01*
X83547619Y-33274819D02*
X83404762Y-33227200D01*
X83404762Y-33227200D02*
X83309524Y-33131961D01*
X83309524Y-33131961D02*
X83261905Y-33036723D01*
X83261905Y-33036723D02*
X83214286Y-32846247D01*
X83214286Y-32846247D02*
X83214286Y-32703390D01*
X83214286Y-32703390D02*
X83261905Y-32512914D01*
X83261905Y-32512914D02*
X83309524Y-32417676D01*
X83309524Y-32417676D02*
X83404762Y-32322438D01*
X83404762Y-32322438D02*
X83547619Y-32274819D01*
X83547619Y-32274819D02*
X83642857Y-32274819D01*
X83642857Y-32274819D02*
X83785714Y-32322438D01*
X83785714Y-32322438D02*
X83833333Y-32370057D01*
X84738095Y-32274819D02*
X84261905Y-32274819D01*
X84261905Y-32274819D02*
X84214286Y-32751009D01*
X84214286Y-32751009D02*
X84261905Y-32703390D01*
X84261905Y-32703390D02*
X84357143Y-32655771D01*
X84357143Y-32655771D02*
X84595238Y-32655771D01*
X84595238Y-32655771D02*
X84690476Y-32703390D01*
X84690476Y-32703390D02*
X84738095Y-32751009D01*
X84738095Y-32751009D02*
X84785714Y-32846247D01*
X84785714Y-32846247D02*
X84785714Y-33084342D01*
X84785714Y-33084342D02*
X84738095Y-33179580D01*
X84738095Y-33179580D02*
X84690476Y-33227200D01*
X84690476Y-33227200D02*
X84595238Y-33274819D01*
X84595238Y-33274819D02*
X84357143Y-33274819D01*
X84357143Y-33274819D02*
X84261905Y-33227200D01*
X84261905Y-33227200D02*
X84214286Y-33179580D01*
X75738095Y-30804819D02*
X75738095Y-29804819D01*
X75738095Y-30281009D02*
X76309523Y-30281009D01*
X76309523Y-30804819D02*
X76309523Y-29804819D01*
X77309523Y-30804819D02*
X76738095Y-30804819D01*
X77023809Y-30804819D02*
X77023809Y-29804819D01*
X77023809Y-29804819D02*
X76928571Y-29947676D01*
X76928571Y-29947676D02*
X76833333Y-30042914D01*
X76833333Y-30042914D02*
X76738095Y-30090533D01*
X104333333Y-26284819D02*
X104000000Y-25808628D01*
X103761905Y-26284819D02*
X103761905Y-25284819D01*
X103761905Y-25284819D02*
X104142857Y-25284819D01*
X104142857Y-25284819D02*
X104238095Y-25332438D01*
X104238095Y-25332438D02*
X104285714Y-25380057D01*
X104285714Y-25380057D02*
X104333333Y-25475295D01*
X104333333Y-25475295D02*
X104333333Y-25618152D01*
X104333333Y-25618152D02*
X104285714Y-25713390D01*
X104285714Y-25713390D02*
X104238095Y-25761009D01*
X104238095Y-25761009D02*
X104142857Y-25808628D01*
X104142857Y-25808628D02*
X103761905Y-25808628D01*
X104666667Y-25284819D02*
X105333333Y-25284819D01*
X105333333Y-25284819D02*
X104904762Y-26284819D01*
X121238095Y-42506819D02*
X121809523Y-42506819D01*
X121523809Y-43506819D02*
X121523809Y-42506819D01*
X122142857Y-43506819D02*
X122142857Y-42506819D01*
X122142857Y-42506819D02*
X122523809Y-42506819D01*
X122523809Y-42506819D02*
X122619047Y-42554438D01*
X122619047Y-42554438D02*
X122666666Y-42602057D01*
X122666666Y-42602057D02*
X122714285Y-42697295D01*
X122714285Y-42697295D02*
X122714285Y-42840152D01*
X122714285Y-42840152D02*
X122666666Y-42935390D01*
X122666666Y-42935390D02*
X122619047Y-42983009D01*
X122619047Y-42983009D02*
X122523809Y-43030628D01*
X122523809Y-43030628D02*
X122142857Y-43030628D01*
X123571428Y-42840152D02*
X123571428Y-43506819D01*
X123333333Y-42459200D02*
X123095238Y-43173485D01*
X123095238Y-43173485D02*
X123714285Y-43173485D01*
X45932920Y-16142857D02*
X45980540Y-16190476D01*
X45980540Y-16190476D02*
X46028159Y-16333333D01*
X46028159Y-16333333D02*
X46028159Y-16428571D01*
X46028159Y-16428571D02*
X45980540Y-16571428D01*
X45980540Y-16571428D02*
X45885301Y-16666666D01*
X45885301Y-16666666D02*
X45790063Y-16714285D01*
X45790063Y-16714285D02*
X45599587Y-16761904D01*
X45599587Y-16761904D02*
X45456730Y-16761904D01*
X45456730Y-16761904D02*
X45266254Y-16714285D01*
X45266254Y-16714285D02*
X45171016Y-16666666D01*
X45171016Y-16666666D02*
X45075778Y-16571428D01*
X45075778Y-16571428D02*
X45028159Y-16428571D01*
X45028159Y-16428571D02*
X45028159Y-16333333D01*
X45028159Y-16333333D02*
X45075778Y-16190476D01*
X45075778Y-16190476D02*
X45123397Y-16142857D01*
X46028159Y-15190476D02*
X46028159Y-15761904D01*
X46028159Y-15476190D02*
X45028159Y-15476190D01*
X45028159Y-15476190D02*
X45171016Y-15571428D01*
X45171016Y-15571428D02*
X45266254Y-15666666D01*
X45266254Y-15666666D02*
X45313873Y-15761904D01*
X45123397Y-14809523D02*
X45075778Y-14761904D01*
X45075778Y-14761904D02*
X45028159Y-14666666D01*
X45028159Y-14666666D02*
X45028159Y-14428571D01*
X45028159Y-14428571D02*
X45075778Y-14333333D01*
X45075778Y-14333333D02*
X45123397Y-14285714D01*
X45123397Y-14285714D02*
X45218635Y-14238095D01*
X45218635Y-14238095D02*
X45313873Y-14238095D01*
X45313873Y-14238095D02*
X45456730Y-14285714D01*
X45456730Y-14285714D02*
X46028159Y-14857142D01*
X46028159Y-14857142D02*
X46028159Y-14238095D01*
X62599590Y-16142857D02*
X62647210Y-16190476D01*
X62647210Y-16190476D02*
X62694829Y-16333333D01*
X62694829Y-16333333D02*
X62694829Y-16428571D01*
X62694829Y-16428571D02*
X62647210Y-16571428D01*
X62647210Y-16571428D02*
X62551971Y-16666666D01*
X62551971Y-16666666D02*
X62456733Y-16714285D01*
X62456733Y-16714285D02*
X62266257Y-16761904D01*
X62266257Y-16761904D02*
X62123400Y-16761904D01*
X62123400Y-16761904D02*
X61932924Y-16714285D01*
X61932924Y-16714285D02*
X61837686Y-16666666D01*
X61837686Y-16666666D02*
X61742448Y-16571428D01*
X61742448Y-16571428D02*
X61694829Y-16428571D01*
X61694829Y-16428571D02*
X61694829Y-16333333D01*
X61694829Y-16333333D02*
X61742448Y-16190476D01*
X61742448Y-16190476D02*
X61790067Y-16142857D01*
X62694829Y-15190476D02*
X62694829Y-15761904D01*
X62694829Y-15476190D02*
X61694829Y-15476190D01*
X61694829Y-15476190D02*
X61837686Y-15571428D01*
X61837686Y-15571428D02*
X61932924Y-15666666D01*
X61932924Y-15666666D02*
X61980543Y-15761904D01*
X61694829Y-14857142D02*
X61694829Y-14238095D01*
X61694829Y-14238095D02*
X62075781Y-14571428D01*
X62075781Y-14571428D02*
X62075781Y-14428571D01*
X62075781Y-14428571D02*
X62123400Y-14333333D01*
X62123400Y-14333333D02*
X62171019Y-14285714D01*
X62171019Y-14285714D02*
X62266257Y-14238095D01*
X62266257Y-14238095D02*
X62504352Y-14238095D01*
X62504352Y-14238095D02*
X62599590Y-14285714D01*
X62599590Y-14285714D02*
X62647210Y-14333333D01*
X62647210Y-14333333D02*
X62694829Y-14428571D01*
X62694829Y-14428571D02*
X62694829Y-14714285D01*
X62694829Y-14714285D02*
X62647210Y-14809523D01*
X62647210Y-14809523D02*
X62599590Y-14857142D01*
X12599580Y-16142857D02*
X12647200Y-16190476D01*
X12647200Y-16190476D02*
X12694819Y-16333333D01*
X12694819Y-16333333D02*
X12694819Y-16428571D01*
X12694819Y-16428571D02*
X12647200Y-16571428D01*
X12647200Y-16571428D02*
X12551961Y-16666666D01*
X12551961Y-16666666D02*
X12456723Y-16714285D01*
X12456723Y-16714285D02*
X12266247Y-16761904D01*
X12266247Y-16761904D02*
X12123390Y-16761904D01*
X12123390Y-16761904D02*
X11932914Y-16714285D01*
X11932914Y-16714285D02*
X11837676Y-16666666D01*
X11837676Y-16666666D02*
X11742438Y-16571428D01*
X11742438Y-16571428D02*
X11694819Y-16428571D01*
X11694819Y-16428571D02*
X11694819Y-16333333D01*
X11694819Y-16333333D02*
X11742438Y-16190476D01*
X11742438Y-16190476D02*
X11790057Y-16142857D01*
X12694819Y-15190476D02*
X12694819Y-15761904D01*
X12694819Y-15476190D02*
X11694819Y-15476190D01*
X11694819Y-15476190D02*
X11837676Y-15571428D01*
X11837676Y-15571428D02*
X11932914Y-15666666D01*
X11932914Y-15666666D02*
X11980533Y-15761904D01*
X11694819Y-14571428D02*
X11694819Y-14476190D01*
X11694819Y-14476190D02*
X11742438Y-14380952D01*
X11742438Y-14380952D02*
X11790057Y-14333333D01*
X11790057Y-14333333D02*
X11885295Y-14285714D01*
X11885295Y-14285714D02*
X12075771Y-14238095D01*
X12075771Y-14238095D02*
X12313866Y-14238095D01*
X12313866Y-14238095D02*
X12504342Y-14285714D01*
X12504342Y-14285714D02*
X12599580Y-14333333D01*
X12599580Y-14333333D02*
X12647200Y-14380952D01*
X12647200Y-14380952D02*
X12694819Y-14476190D01*
X12694819Y-14476190D02*
X12694819Y-14571428D01*
X12694819Y-14571428D02*
X12647200Y-14666666D01*
X12647200Y-14666666D02*
X12599580Y-14714285D01*
X12599580Y-14714285D02*
X12504342Y-14761904D01*
X12504342Y-14761904D02*
X12313866Y-14809523D01*
X12313866Y-14809523D02*
X12075771Y-14809523D01*
X12075771Y-14809523D02*
X11885295Y-14761904D01*
X11885295Y-14761904D02*
X11790057Y-14714285D01*
X11790057Y-14714285D02*
X11742438Y-14666666D01*
X11742438Y-14666666D02*
X11694819Y-14571428D01*
X87857142Y-34284819D02*
X87523809Y-33808628D01*
X87285714Y-34284819D02*
X87285714Y-33284819D01*
X87285714Y-33284819D02*
X87666666Y-33284819D01*
X87666666Y-33284819D02*
X87761904Y-33332438D01*
X87761904Y-33332438D02*
X87809523Y-33380057D01*
X87809523Y-33380057D02*
X87857142Y-33475295D01*
X87857142Y-33475295D02*
X87857142Y-33618152D01*
X87857142Y-33618152D02*
X87809523Y-33713390D01*
X87809523Y-33713390D02*
X87761904Y-33761009D01*
X87761904Y-33761009D02*
X87666666Y-33808628D01*
X87666666Y-33808628D02*
X87285714Y-33808628D01*
X88809523Y-34284819D02*
X88238095Y-34284819D01*
X88523809Y-34284819D02*
X88523809Y-33284819D01*
X88523809Y-33284819D02*
X88428571Y-33427676D01*
X88428571Y-33427676D02*
X88333333Y-33522914D01*
X88333333Y-33522914D02*
X88238095Y-33570533D01*
X89761904Y-34284819D02*
X89190476Y-34284819D01*
X89476190Y-34284819D02*
X89476190Y-33284819D01*
X89476190Y-33284819D02*
X89380952Y-33427676D01*
X89380952Y-33427676D02*
X89285714Y-33522914D01*
X89285714Y-33522914D02*
X89190476Y-33570533D01*
X104904761Y-21150057D02*
X104809523Y-21102438D01*
X104809523Y-21102438D02*
X104714285Y-21007200D01*
X104714285Y-21007200D02*
X104571428Y-20864342D01*
X104571428Y-20864342D02*
X104476190Y-20816723D01*
X104476190Y-20816723D02*
X104380952Y-20816723D01*
X104428571Y-21054819D02*
X104333333Y-21007200D01*
X104333333Y-21007200D02*
X104238095Y-20911961D01*
X104238095Y-20911961D02*
X104190476Y-20721485D01*
X104190476Y-20721485D02*
X104190476Y-20388152D01*
X104190476Y-20388152D02*
X104238095Y-20197676D01*
X104238095Y-20197676D02*
X104333333Y-20102438D01*
X104333333Y-20102438D02*
X104428571Y-20054819D01*
X104428571Y-20054819D02*
X104619047Y-20054819D01*
X104619047Y-20054819D02*
X104714285Y-20102438D01*
X104714285Y-20102438D02*
X104809523Y-20197676D01*
X104809523Y-20197676D02*
X104857142Y-20388152D01*
X104857142Y-20388152D02*
X104857142Y-20721485D01*
X104857142Y-20721485D02*
X104809523Y-20911961D01*
X104809523Y-20911961D02*
X104714285Y-21007200D01*
X104714285Y-21007200D02*
X104619047Y-21054819D01*
X104619047Y-21054819D02*
X104428571Y-21054819D01*
X105809523Y-21054819D02*
X105238095Y-21054819D01*
X105523809Y-21054819D02*
X105523809Y-20054819D01*
X105523809Y-20054819D02*
X105428571Y-20197676D01*
X105428571Y-20197676D02*
X105333333Y-20292914D01*
X105333333Y-20292914D02*
X105238095Y-20340533D01*
X40288159Y-11666666D02*
X40288159Y-12142856D01*
X40288159Y-12142856D02*
X39288159Y-12142856D01*
X40288159Y-11333332D02*
X39288159Y-11333332D01*
X39288159Y-11333332D02*
X39288159Y-11095237D01*
X39288159Y-11095237D02*
X39335778Y-10952380D01*
X39335778Y-10952380D02*
X39431016Y-10857142D01*
X39431016Y-10857142D02*
X39526254Y-10809523D01*
X39526254Y-10809523D02*
X39716730Y-10761904D01*
X39716730Y-10761904D02*
X39859587Y-10761904D01*
X39859587Y-10761904D02*
X40050063Y-10809523D01*
X40050063Y-10809523D02*
X40145301Y-10857142D01*
X40145301Y-10857142D02*
X40240540Y-10952380D01*
X40240540Y-10952380D02*
X40288159Y-11095237D01*
X40288159Y-11095237D02*
X40288159Y-11333332D01*
X39288159Y-10428570D02*
X39288159Y-9809523D01*
X39288159Y-9809523D02*
X39669111Y-10142856D01*
X39669111Y-10142856D02*
X39669111Y-9999999D01*
X39669111Y-9999999D02*
X39716730Y-9904761D01*
X39716730Y-9904761D02*
X39764349Y-9857142D01*
X39764349Y-9857142D02*
X39859587Y-9809523D01*
X39859587Y-9809523D02*
X40097682Y-9809523D01*
X40097682Y-9809523D02*
X40192920Y-9857142D01*
X40192920Y-9857142D02*
X40240540Y-9904761D01*
X40240540Y-9904761D02*
X40288159Y-9999999D01*
X40288159Y-9999999D02*
X40288159Y-10285713D01*
X40288159Y-10285713D02*
X40240540Y-10380951D01*
X40240540Y-10380951D02*
X40192920Y-10428570D01*
X42095635Y-14771428D02*
X42095635Y-15228571D01*
X42095635Y-14999999D02*
X41295635Y-14999999D01*
X41295635Y-14999999D02*
X41409920Y-15076190D01*
X41409920Y-15076190D02*
X41486111Y-15152380D01*
X41486111Y-15152380D02*
X41524206Y-15228571D01*
X90333333Y-44784819D02*
X90000000Y-44308628D01*
X89761905Y-44784819D02*
X89761905Y-43784819D01*
X89761905Y-43784819D02*
X90142857Y-43784819D01*
X90142857Y-43784819D02*
X90238095Y-43832438D01*
X90238095Y-43832438D02*
X90285714Y-43880057D01*
X90285714Y-43880057D02*
X90333333Y-43975295D01*
X90333333Y-43975295D02*
X90333333Y-44118152D01*
X90333333Y-44118152D02*
X90285714Y-44213390D01*
X90285714Y-44213390D02*
X90238095Y-44261009D01*
X90238095Y-44261009D02*
X90142857Y-44308628D01*
X90142857Y-44308628D02*
X89761905Y-44308628D01*
X90714286Y-43880057D02*
X90761905Y-43832438D01*
X90761905Y-43832438D02*
X90857143Y-43784819D01*
X90857143Y-43784819D02*
X91095238Y-43784819D01*
X91095238Y-43784819D02*
X91190476Y-43832438D01*
X91190476Y-43832438D02*
X91238095Y-43880057D01*
X91238095Y-43880057D02*
X91285714Y-43975295D01*
X91285714Y-43975295D02*
X91285714Y-44070533D01*
X91285714Y-44070533D02*
X91238095Y-44213390D01*
X91238095Y-44213390D02*
X90666667Y-44784819D01*
X90666667Y-44784819D02*
X91285714Y-44784819D01*
X101357142Y-26284819D02*
X101023809Y-25808628D01*
X100785714Y-26284819D02*
X100785714Y-25284819D01*
X100785714Y-25284819D02*
X101166666Y-25284819D01*
X101166666Y-25284819D02*
X101261904Y-25332438D01*
X101261904Y-25332438D02*
X101309523Y-25380057D01*
X101309523Y-25380057D02*
X101357142Y-25475295D01*
X101357142Y-25475295D02*
X101357142Y-25618152D01*
X101357142Y-25618152D02*
X101309523Y-25713390D01*
X101309523Y-25713390D02*
X101261904Y-25761009D01*
X101261904Y-25761009D02*
X101166666Y-25808628D01*
X101166666Y-25808628D02*
X100785714Y-25808628D01*
X102309523Y-26284819D02*
X101738095Y-26284819D01*
X102023809Y-26284819D02*
X102023809Y-25284819D01*
X102023809Y-25284819D02*
X101928571Y-25427676D01*
X101928571Y-25427676D02*
X101833333Y-25522914D01*
X101833333Y-25522914D02*
X101738095Y-25570533D01*
X102928571Y-25284819D02*
X103023809Y-25284819D01*
X103023809Y-25284819D02*
X103119047Y-25332438D01*
X103119047Y-25332438D02*
X103166666Y-25380057D01*
X103166666Y-25380057D02*
X103214285Y-25475295D01*
X103214285Y-25475295D02*
X103261904Y-25665771D01*
X103261904Y-25665771D02*
X103261904Y-25903866D01*
X103261904Y-25903866D02*
X103214285Y-26094342D01*
X103214285Y-26094342D02*
X103166666Y-26189580D01*
X103166666Y-26189580D02*
X103119047Y-26237200D01*
X103119047Y-26237200D02*
X103023809Y-26284819D01*
X103023809Y-26284819D02*
X102928571Y-26284819D01*
X102928571Y-26284819D02*
X102833333Y-26237200D01*
X102833333Y-26237200D02*
X102785714Y-26189580D01*
X102785714Y-26189580D02*
X102738095Y-26094342D01*
X102738095Y-26094342D02*
X102690476Y-25903866D01*
X102690476Y-25903866D02*
X102690476Y-25665771D01*
X102690476Y-25665771D02*
X102738095Y-25475295D01*
X102738095Y-25475295D02*
X102785714Y-25380057D01*
X102785714Y-25380057D02*
X102833333Y-25332438D01*
X102833333Y-25332438D02*
X102928571Y-25284819D01*
X23621489Y-11666666D02*
X23621489Y-12142856D01*
X23621489Y-12142856D02*
X22621489Y-12142856D01*
X23621489Y-11333332D02*
X22621489Y-11333332D01*
X22621489Y-11333332D02*
X22621489Y-11095237D01*
X22621489Y-11095237D02*
X22669108Y-10952380D01*
X22669108Y-10952380D02*
X22764346Y-10857142D01*
X22764346Y-10857142D02*
X22859584Y-10809523D01*
X22859584Y-10809523D02*
X23050060Y-10761904D01*
X23050060Y-10761904D02*
X23192917Y-10761904D01*
X23192917Y-10761904D02*
X23383393Y-10809523D01*
X23383393Y-10809523D02*
X23478631Y-10857142D01*
X23478631Y-10857142D02*
X23573870Y-10952380D01*
X23573870Y-10952380D02*
X23621489Y-11095237D01*
X23621489Y-11095237D02*
X23621489Y-11333332D01*
X22716727Y-10380951D02*
X22669108Y-10333332D01*
X22669108Y-10333332D02*
X22621489Y-10238094D01*
X22621489Y-10238094D02*
X22621489Y-9999999D01*
X22621489Y-9999999D02*
X22669108Y-9904761D01*
X22669108Y-9904761D02*
X22716727Y-9857142D01*
X22716727Y-9857142D02*
X22811965Y-9809523D01*
X22811965Y-9809523D02*
X22907203Y-9809523D01*
X22907203Y-9809523D02*
X23050060Y-9857142D01*
X23050060Y-9857142D02*
X23621489Y-10428570D01*
X23621489Y-10428570D02*
X23621489Y-9809523D01*
X25428965Y-14771428D02*
X25428965Y-15228571D01*
X25428965Y-14999999D02*
X24628965Y-14999999D01*
X24628965Y-14999999D02*
X24743250Y-15076190D01*
X24743250Y-15076190D02*
X24819441Y-15152380D01*
X24819441Y-15152380D02*
X24857536Y-15228571D01*
X181738095Y-13506819D02*
X182309523Y-13506819D01*
X182023809Y-14506819D02*
X182023809Y-13506819D01*
X182642857Y-14506819D02*
X182642857Y-13506819D01*
X182642857Y-13506819D02*
X183023809Y-13506819D01*
X183023809Y-13506819D02*
X183119047Y-13554438D01*
X183119047Y-13554438D02*
X183166666Y-13602057D01*
X183166666Y-13602057D02*
X183214285Y-13697295D01*
X183214285Y-13697295D02*
X183214285Y-13840152D01*
X183214285Y-13840152D02*
X183166666Y-13935390D01*
X183166666Y-13935390D02*
X183119047Y-13983009D01*
X183119047Y-13983009D02*
X183023809Y-14030628D01*
X183023809Y-14030628D02*
X182642857Y-14030628D01*
X183547619Y-13506819D02*
X184214285Y-13506819D01*
X184214285Y-13506819D02*
X183785714Y-14506819D01*
X97333333Y-26199580D02*
X97285714Y-26247200D01*
X97285714Y-26247200D02*
X97142857Y-26294819D01*
X97142857Y-26294819D02*
X97047619Y-26294819D01*
X97047619Y-26294819D02*
X96904762Y-26247200D01*
X96904762Y-26247200D02*
X96809524Y-26151961D01*
X96809524Y-26151961D02*
X96761905Y-26056723D01*
X96761905Y-26056723D02*
X96714286Y-25866247D01*
X96714286Y-25866247D02*
X96714286Y-25723390D01*
X96714286Y-25723390D02*
X96761905Y-25532914D01*
X96761905Y-25532914D02*
X96809524Y-25437676D01*
X96809524Y-25437676D02*
X96904762Y-25342438D01*
X96904762Y-25342438D02*
X97047619Y-25294819D01*
X97047619Y-25294819D02*
X97142857Y-25294819D01*
X97142857Y-25294819D02*
X97285714Y-25342438D01*
X97285714Y-25342438D02*
X97333333Y-25390057D01*
X97904762Y-25723390D02*
X97809524Y-25675771D01*
X97809524Y-25675771D02*
X97761905Y-25628152D01*
X97761905Y-25628152D02*
X97714286Y-25532914D01*
X97714286Y-25532914D02*
X97714286Y-25485295D01*
X97714286Y-25485295D02*
X97761905Y-25390057D01*
X97761905Y-25390057D02*
X97809524Y-25342438D01*
X97809524Y-25342438D02*
X97904762Y-25294819D01*
X97904762Y-25294819D02*
X98095238Y-25294819D01*
X98095238Y-25294819D02*
X98190476Y-25342438D01*
X98190476Y-25342438D02*
X98238095Y-25390057D01*
X98238095Y-25390057D02*
X98285714Y-25485295D01*
X98285714Y-25485295D02*
X98285714Y-25532914D01*
X98285714Y-25532914D02*
X98238095Y-25628152D01*
X98238095Y-25628152D02*
X98190476Y-25675771D01*
X98190476Y-25675771D02*
X98095238Y-25723390D01*
X98095238Y-25723390D02*
X97904762Y-25723390D01*
X97904762Y-25723390D02*
X97809524Y-25771009D01*
X97809524Y-25771009D02*
X97761905Y-25818628D01*
X97761905Y-25818628D02*
X97714286Y-25913866D01*
X97714286Y-25913866D02*
X97714286Y-26104342D01*
X97714286Y-26104342D02*
X97761905Y-26199580D01*
X97761905Y-26199580D02*
X97809524Y-26247200D01*
X97809524Y-26247200D02*
X97904762Y-26294819D01*
X97904762Y-26294819D02*
X98095238Y-26294819D01*
X98095238Y-26294819D02*
X98190476Y-26247200D01*
X98190476Y-26247200D02*
X98238095Y-26199580D01*
X98238095Y-26199580D02*
X98285714Y-26104342D01*
X98285714Y-26104342D02*
X98285714Y-25913866D01*
X98285714Y-25913866D02*
X98238095Y-25818628D01*
X98238095Y-25818628D02*
X98190476Y-25771009D01*
X98190476Y-25771009D02*
X98095238Y-25723390D01*
X123621509Y-11666666D02*
X123621509Y-12142856D01*
X123621509Y-12142856D02*
X122621509Y-12142856D01*
X123621509Y-11333332D02*
X122621509Y-11333332D01*
X122621509Y-11333332D02*
X122621509Y-11095237D01*
X122621509Y-11095237D02*
X122669128Y-10952380D01*
X122669128Y-10952380D02*
X122764366Y-10857142D01*
X122764366Y-10857142D02*
X122859604Y-10809523D01*
X122859604Y-10809523D02*
X123050080Y-10761904D01*
X123050080Y-10761904D02*
X123192937Y-10761904D01*
X123192937Y-10761904D02*
X123383413Y-10809523D01*
X123383413Y-10809523D02*
X123478651Y-10857142D01*
X123478651Y-10857142D02*
X123573890Y-10952380D01*
X123573890Y-10952380D02*
X123621509Y-11095237D01*
X123621509Y-11095237D02*
X123621509Y-11333332D01*
X123050080Y-10190475D02*
X123002461Y-10285713D01*
X123002461Y-10285713D02*
X122954842Y-10333332D01*
X122954842Y-10333332D02*
X122859604Y-10380951D01*
X122859604Y-10380951D02*
X122811985Y-10380951D01*
X122811985Y-10380951D02*
X122716747Y-10333332D01*
X122716747Y-10333332D02*
X122669128Y-10285713D01*
X122669128Y-10285713D02*
X122621509Y-10190475D01*
X122621509Y-10190475D02*
X122621509Y-9999999D01*
X122621509Y-9999999D02*
X122669128Y-9904761D01*
X122669128Y-9904761D02*
X122716747Y-9857142D01*
X122716747Y-9857142D02*
X122811985Y-9809523D01*
X122811985Y-9809523D02*
X122859604Y-9809523D01*
X122859604Y-9809523D02*
X122954842Y-9857142D01*
X122954842Y-9857142D02*
X123002461Y-9904761D01*
X123002461Y-9904761D02*
X123050080Y-9999999D01*
X123050080Y-9999999D02*
X123050080Y-10190475D01*
X123050080Y-10190475D02*
X123097699Y-10285713D01*
X123097699Y-10285713D02*
X123145318Y-10333332D01*
X123145318Y-10333332D02*
X123240556Y-10380951D01*
X123240556Y-10380951D02*
X123431032Y-10380951D01*
X123431032Y-10380951D02*
X123526270Y-10333332D01*
X123526270Y-10333332D02*
X123573890Y-10285713D01*
X123573890Y-10285713D02*
X123621509Y-10190475D01*
X123621509Y-10190475D02*
X123621509Y-9999999D01*
X123621509Y-9999999D02*
X123573890Y-9904761D01*
X123573890Y-9904761D02*
X123526270Y-9857142D01*
X123526270Y-9857142D02*
X123431032Y-9809523D01*
X123431032Y-9809523D02*
X123240556Y-9809523D01*
X123240556Y-9809523D02*
X123145318Y-9857142D01*
X123145318Y-9857142D02*
X123097699Y-9904761D01*
X123097699Y-9904761D02*
X123050080Y-9999999D01*
X125428985Y-14771428D02*
X125428985Y-15228571D01*
X125428985Y-14999999D02*
X124628985Y-14999999D01*
X124628985Y-14999999D02*
X124743270Y-15076190D01*
X124743270Y-15076190D02*
X124819461Y-15152380D01*
X124819461Y-15152380D02*
X124857556Y-15228571D01*
X91333333Y-30784819D02*
X91000000Y-30308628D01*
X90761905Y-30784819D02*
X90761905Y-29784819D01*
X90761905Y-29784819D02*
X91142857Y-29784819D01*
X91142857Y-29784819D02*
X91238095Y-29832438D01*
X91238095Y-29832438D02*
X91285714Y-29880057D01*
X91285714Y-29880057D02*
X91333333Y-29975295D01*
X91333333Y-29975295D02*
X91333333Y-30118152D01*
X91333333Y-30118152D02*
X91285714Y-30213390D01*
X91285714Y-30213390D02*
X91238095Y-30261009D01*
X91238095Y-30261009D02*
X91142857Y-30308628D01*
X91142857Y-30308628D02*
X90761905Y-30308628D01*
X91666667Y-29784819D02*
X92285714Y-29784819D01*
X92285714Y-29784819D02*
X91952381Y-30165771D01*
X91952381Y-30165771D02*
X92095238Y-30165771D01*
X92095238Y-30165771D02*
X92190476Y-30213390D01*
X92190476Y-30213390D02*
X92238095Y-30261009D01*
X92238095Y-30261009D02*
X92285714Y-30356247D01*
X92285714Y-30356247D02*
X92285714Y-30594342D01*
X92285714Y-30594342D02*
X92238095Y-30689580D01*
X92238095Y-30689580D02*
X92190476Y-30737200D01*
X92190476Y-30737200D02*
X92095238Y-30784819D01*
X92095238Y-30784819D02*
X91809524Y-30784819D01*
X91809524Y-30784819D02*
X91714286Y-30737200D01*
X91714286Y-30737200D02*
X91666667Y-30689580D01*
X88438095Y-38554819D02*
X88438095Y-39364342D01*
X88438095Y-39364342D02*
X88485714Y-39459580D01*
X88485714Y-39459580D02*
X88533333Y-39507200D01*
X88533333Y-39507200D02*
X88628571Y-39554819D01*
X88628571Y-39554819D02*
X88819047Y-39554819D01*
X88819047Y-39554819D02*
X88914285Y-39507200D01*
X88914285Y-39507200D02*
X88961904Y-39459580D01*
X88961904Y-39459580D02*
X89009523Y-39364342D01*
X89009523Y-39364342D02*
X89009523Y-38554819D01*
X89914285Y-38888152D02*
X89914285Y-39554819D01*
X89676190Y-38507200D02*
X89438095Y-39221485D01*
X89438095Y-39221485D02*
X90057142Y-39221485D01*
X79666666Y-37609819D02*
X79666666Y-38324104D01*
X79666666Y-38324104D02*
X79619047Y-38466961D01*
X79619047Y-38466961D02*
X79523809Y-38562200D01*
X79523809Y-38562200D02*
X79380952Y-38609819D01*
X79380952Y-38609819D02*
X79285714Y-38609819D01*
X80666666Y-38609819D02*
X80095238Y-38609819D01*
X80380952Y-38609819D02*
X80380952Y-37609819D01*
X80380952Y-37609819D02*
X80285714Y-37752676D01*
X80285714Y-37752676D02*
X80190476Y-37847914D01*
X80190476Y-37847914D02*
X80095238Y-37895533D01*
X79266260Y-16142857D02*
X79313880Y-16190476D01*
X79313880Y-16190476D02*
X79361499Y-16333333D01*
X79361499Y-16333333D02*
X79361499Y-16428571D01*
X79361499Y-16428571D02*
X79313880Y-16571428D01*
X79313880Y-16571428D02*
X79218641Y-16666666D01*
X79218641Y-16666666D02*
X79123403Y-16714285D01*
X79123403Y-16714285D02*
X78932927Y-16761904D01*
X78932927Y-16761904D02*
X78790070Y-16761904D01*
X78790070Y-16761904D02*
X78599594Y-16714285D01*
X78599594Y-16714285D02*
X78504356Y-16666666D01*
X78504356Y-16666666D02*
X78409118Y-16571428D01*
X78409118Y-16571428D02*
X78361499Y-16428571D01*
X78361499Y-16428571D02*
X78361499Y-16333333D01*
X78361499Y-16333333D02*
X78409118Y-16190476D01*
X78409118Y-16190476D02*
X78456737Y-16142857D01*
X79361499Y-15190476D02*
X79361499Y-15761904D01*
X79361499Y-15476190D02*
X78361499Y-15476190D01*
X78361499Y-15476190D02*
X78504356Y-15571428D01*
X78504356Y-15571428D02*
X78599594Y-15666666D01*
X78599594Y-15666666D02*
X78647213Y-15761904D01*
X78694832Y-14333333D02*
X79361499Y-14333333D01*
X78313880Y-14571428D02*
X79028165Y-14809523D01*
X79028165Y-14809523D02*
X79028165Y-14190476D01*
X109833333Y-21284819D02*
X109500000Y-20808628D01*
X109261905Y-21284819D02*
X109261905Y-20284819D01*
X109261905Y-20284819D02*
X109642857Y-20284819D01*
X109642857Y-20284819D02*
X109738095Y-20332438D01*
X109738095Y-20332438D02*
X109785714Y-20380057D01*
X109785714Y-20380057D02*
X109833333Y-20475295D01*
X109833333Y-20475295D02*
X109833333Y-20618152D01*
X109833333Y-20618152D02*
X109785714Y-20713390D01*
X109785714Y-20713390D02*
X109738095Y-20761009D01*
X109738095Y-20761009D02*
X109642857Y-20808628D01*
X109642857Y-20808628D02*
X109261905Y-20808628D01*
X110404762Y-20713390D02*
X110309524Y-20665771D01*
X110309524Y-20665771D02*
X110261905Y-20618152D01*
X110261905Y-20618152D02*
X110214286Y-20522914D01*
X110214286Y-20522914D02*
X110214286Y-20475295D01*
X110214286Y-20475295D02*
X110261905Y-20380057D01*
X110261905Y-20380057D02*
X110309524Y-20332438D01*
X110309524Y-20332438D02*
X110404762Y-20284819D01*
X110404762Y-20284819D02*
X110595238Y-20284819D01*
X110595238Y-20284819D02*
X110690476Y-20332438D01*
X110690476Y-20332438D02*
X110738095Y-20380057D01*
X110738095Y-20380057D02*
X110785714Y-20475295D01*
X110785714Y-20475295D02*
X110785714Y-20522914D01*
X110785714Y-20522914D02*
X110738095Y-20618152D01*
X110738095Y-20618152D02*
X110690476Y-20665771D01*
X110690476Y-20665771D02*
X110595238Y-20713390D01*
X110595238Y-20713390D02*
X110404762Y-20713390D01*
X110404762Y-20713390D02*
X110309524Y-20761009D01*
X110309524Y-20761009D02*
X110261905Y-20808628D01*
X110261905Y-20808628D02*
X110214286Y-20903866D01*
X110214286Y-20903866D02*
X110214286Y-21094342D01*
X110214286Y-21094342D02*
X110261905Y-21189580D01*
X110261905Y-21189580D02*
X110309524Y-21237200D01*
X110309524Y-21237200D02*
X110404762Y-21284819D01*
X110404762Y-21284819D02*
X110595238Y-21284819D01*
X110595238Y-21284819D02*
X110690476Y-21237200D01*
X110690476Y-21237200D02*
X110738095Y-21189580D01*
X110738095Y-21189580D02*
X110785714Y-21094342D01*
X110785714Y-21094342D02*
X110785714Y-20903866D01*
X110785714Y-20903866D02*
X110738095Y-20808628D01*
X110738095Y-20808628D02*
X110690476Y-20761009D01*
X110690476Y-20761009D02*
X110595238Y-20713390D01*
X95932930Y-16142857D02*
X95980550Y-16190476D01*
X95980550Y-16190476D02*
X96028169Y-16333333D01*
X96028169Y-16333333D02*
X96028169Y-16428571D01*
X96028169Y-16428571D02*
X95980550Y-16571428D01*
X95980550Y-16571428D02*
X95885311Y-16666666D01*
X95885311Y-16666666D02*
X95790073Y-16714285D01*
X95790073Y-16714285D02*
X95599597Y-16761904D01*
X95599597Y-16761904D02*
X95456740Y-16761904D01*
X95456740Y-16761904D02*
X95266264Y-16714285D01*
X95266264Y-16714285D02*
X95171026Y-16666666D01*
X95171026Y-16666666D02*
X95075788Y-16571428D01*
X95075788Y-16571428D02*
X95028169Y-16428571D01*
X95028169Y-16428571D02*
X95028169Y-16333333D01*
X95028169Y-16333333D02*
X95075788Y-16190476D01*
X95075788Y-16190476D02*
X95123407Y-16142857D01*
X96028169Y-15190476D02*
X96028169Y-15761904D01*
X96028169Y-15476190D02*
X95028169Y-15476190D01*
X95028169Y-15476190D02*
X95171026Y-15571428D01*
X95171026Y-15571428D02*
X95266264Y-15666666D01*
X95266264Y-15666666D02*
X95313883Y-15761904D01*
X95028169Y-14285714D02*
X95028169Y-14761904D01*
X95028169Y-14761904D02*
X95504359Y-14809523D01*
X95504359Y-14809523D02*
X95456740Y-14761904D01*
X95456740Y-14761904D02*
X95409121Y-14666666D01*
X95409121Y-14666666D02*
X95409121Y-14428571D01*
X95409121Y-14428571D02*
X95456740Y-14333333D01*
X95456740Y-14333333D02*
X95504359Y-14285714D01*
X95504359Y-14285714D02*
X95599597Y-14238095D01*
X95599597Y-14238095D02*
X95837692Y-14238095D01*
X95837692Y-14238095D02*
X95932930Y-14285714D01*
X95932930Y-14285714D02*
X95980550Y-14333333D01*
X95980550Y-14333333D02*
X96028169Y-14428571D01*
X96028169Y-14428571D02*
X96028169Y-14666666D01*
X96028169Y-14666666D02*
X95980550Y-14761904D01*
X95980550Y-14761904D02*
X95932930Y-14809523D01*
X173621519Y-12142857D02*
X173621519Y-12619047D01*
X173621519Y-12619047D02*
X172621519Y-12619047D01*
X173621519Y-11809523D02*
X172621519Y-11809523D01*
X172621519Y-11809523D02*
X172621519Y-11571428D01*
X172621519Y-11571428D02*
X172669138Y-11428571D01*
X172669138Y-11428571D02*
X172764376Y-11333333D01*
X172764376Y-11333333D02*
X172859614Y-11285714D01*
X172859614Y-11285714D02*
X173050090Y-11238095D01*
X173050090Y-11238095D02*
X173192947Y-11238095D01*
X173192947Y-11238095D02*
X173383423Y-11285714D01*
X173383423Y-11285714D02*
X173478661Y-11333333D01*
X173478661Y-11333333D02*
X173573900Y-11428571D01*
X173573900Y-11428571D02*
X173621519Y-11571428D01*
X173621519Y-11571428D02*
X173621519Y-11809523D01*
X173621519Y-10285714D02*
X173621519Y-10857142D01*
X173621519Y-10571428D02*
X172621519Y-10571428D01*
X172621519Y-10571428D02*
X172764376Y-10666666D01*
X172764376Y-10666666D02*
X172859614Y-10761904D01*
X172859614Y-10761904D02*
X172907233Y-10857142D01*
X173621519Y-9333333D02*
X173621519Y-9904761D01*
X173621519Y-9619047D02*
X172621519Y-9619047D01*
X172621519Y-9619047D02*
X172764376Y-9714285D01*
X172764376Y-9714285D02*
X172859614Y-9809523D01*
X172859614Y-9809523D02*
X172907233Y-9904761D01*
X175428995Y-14771428D02*
X175428995Y-15228571D01*
X175428995Y-14999999D02*
X174628995Y-14999999D01*
X174628995Y-14999999D02*
X174743280Y-15076190D01*
X174743280Y-15076190D02*
X174819471Y-15152380D01*
X174819471Y-15152380D02*
X174857566Y-15228571D01*
X73621499Y-11666666D02*
X73621499Y-12142856D01*
X73621499Y-12142856D02*
X72621499Y-12142856D01*
X73621499Y-11333332D02*
X72621499Y-11333332D01*
X72621499Y-11333332D02*
X72621499Y-11095237D01*
X72621499Y-11095237D02*
X72669118Y-10952380D01*
X72669118Y-10952380D02*
X72764356Y-10857142D01*
X72764356Y-10857142D02*
X72859594Y-10809523D01*
X72859594Y-10809523D02*
X73050070Y-10761904D01*
X73050070Y-10761904D02*
X73192927Y-10761904D01*
X73192927Y-10761904D02*
X73383403Y-10809523D01*
X73383403Y-10809523D02*
X73478641Y-10857142D01*
X73478641Y-10857142D02*
X73573880Y-10952380D01*
X73573880Y-10952380D02*
X73621499Y-11095237D01*
X73621499Y-11095237D02*
X73621499Y-11333332D01*
X72621499Y-9857142D02*
X72621499Y-10333332D01*
X72621499Y-10333332D02*
X73097689Y-10380951D01*
X73097689Y-10380951D02*
X73050070Y-10333332D01*
X73050070Y-10333332D02*
X73002451Y-10238094D01*
X73002451Y-10238094D02*
X73002451Y-9999999D01*
X73002451Y-9999999D02*
X73050070Y-9904761D01*
X73050070Y-9904761D02*
X73097689Y-9857142D01*
X73097689Y-9857142D02*
X73192927Y-9809523D01*
X73192927Y-9809523D02*
X73431022Y-9809523D01*
X73431022Y-9809523D02*
X73526260Y-9857142D01*
X73526260Y-9857142D02*
X73573880Y-9904761D01*
X73573880Y-9904761D02*
X73621499Y-9999999D01*
X73621499Y-9999999D02*
X73621499Y-10238094D01*
X73621499Y-10238094D02*
X73573880Y-10333332D01*
X73573880Y-10333332D02*
X73526260Y-10380951D01*
X75428975Y-14771428D02*
X75428975Y-15228571D01*
X75428975Y-14999999D02*
X74628975Y-14999999D01*
X74628975Y-14999999D02*
X74743260Y-15076190D01*
X74743260Y-15076190D02*
X74819451Y-15152380D01*
X74819451Y-15152380D02*
X74857546Y-15228571D01*
X116309523Y-26006819D02*
X116309523Y-26721104D01*
X116309523Y-26721104D02*
X116261904Y-26863961D01*
X116261904Y-26863961D02*
X116166666Y-26959200D01*
X116166666Y-26959200D02*
X116023809Y-27006819D01*
X116023809Y-27006819D02*
X115928571Y-27006819D01*
X116738095Y-26102057D02*
X116785714Y-26054438D01*
X116785714Y-26054438D02*
X116880952Y-26006819D01*
X116880952Y-26006819D02*
X117119047Y-26006819D01*
X117119047Y-26006819D02*
X117214285Y-26054438D01*
X117214285Y-26054438D02*
X117261904Y-26102057D01*
X117261904Y-26102057D02*
X117309523Y-26197295D01*
X117309523Y-26197295D02*
X117309523Y-26292533D01*
X117309523Y-26292533D02*
X117261904Y-26435390D01*
X117261904Y-26435390D02*
X116690476Y-27006819D01*
X116690476Y-27006819D02*
X117309523Y-27006819D01*
X117500000Y-27102057D02*
X118261904Y-27102057D01*
X119023809Y-27006819D02*
X118452381Y-27006819D01*
X118738095Y-27006819D02*
X118738095Y-26006819D01*
X118738095Y-26006819D02*
X118642857Y-26149676D01*
X118642857Y-26149676D02*
X118547619Y-26244914D01*
X118547619Y-26244914D02*
X118452381Y-26292533D01*
X87738095Y-28554819D02*
X87738095Y-29364342D01*
X87738095Y-29364342D02*
X87785714Y-29459580D01*
X87785714Y-29459580D02*
X87833333Y-29507200D01*
X87833333Y-29507200D02*
X87928571Y-29554819D01*
X87928571Y-29554819D02*
X88119047Y-29554819D01*
X88119047Y-29554819D02*
X88214285Y-29507200D01*
X88214285Y-29507200D02*
X88261904Y-29459580D01*
X88261904Y-29459580D02*
X88309523Y-29364342D01*
X88309523Y-29364342D02*
X88309523Y-28554819D01*
X88738095Y-28650057D02*
X88785714Y-28602438D01*
X88785714Y-28602438D02*
X88880952Y-28554819D01*
X88880952Y-28554819D02*
X89119047Y-28554819D01*
X89119047Y-28554819D02*
X89214285Y-28602438D01*
X89214285Y-28602438D02*
X89261904Y-28650057D01*
X89261904Y-28650057D02*
X89309523Y-28745295D01*
X89309523Y-28745295D02*
X89309523Y-28840533D01*
X89309523Y-28840533D02*
X89261904Y-28983390D01*
X89261904Y-28983390D02*
X88690476Y-29554819D01*
X88690476Y-29554819D02*
X89309523Y-29554819D01*
X88666667Y-21907200D02*
X88809524Y-21954819D01*
X88809524Y-21954819D02*
X89047619Y-21954819D01*
X89047619Y-21954819D02*
X89142857Y-21907200D01*
X89142857Y-21907200D02*
X89190476Y-21859580D01*
X89190476Y-21859580D02*
X89238095Y-21764342D01*
X89238095Y-21764342D02*
X89238095Y-21669104D01*
X89238095Y-21669104D02*
X89190476Y-21573866D01*
X89190476Y-21573866D02*
X89142857Y-21526247D01*
X89142857Y-21526247D02*
X89047619Y-21478628D01*
X89047619Y-21478628D02*
X88857143Y-21431009D01*
X88857143Y-21431009D02*
X88761905Y-21383390D01*
X88761905Y-21383390D02*
X88714286Y-21335771D01*
X88714286Y-21335771D02*
X88666667Y-21240533D01*
X88666667Y-21240533D02*
X88666667Y-21145295D01*
X88666667Y-21145295D02*
X88714286Y-21050057D01*
X88714286Y-21050057D02*
X88761905Y-21002438D01*
X88761905Y-21002438D02*
X88857143Y-20954819D01*
X88857143Y-20954819D02*
X89095238Y-20954819D01*
X89095238Y-20954819D02*
X89238095Y-21002438D01*
X89571429Y-20954819D02*
X89809524Y-21954819D01*
X89809524Y-21954819D02*
X90000000Y-21240533D01*
X90000000Y-21240533D02*
X90190476Y-21954819D01*
X90190476Y-21954819D02*
X90428572Y-20954819D01*
X91333333Y-21954819D02*
X90761905Y-21954819D01*
X91047619Y-21954819D02*
X91047619Y-20954819D01*
X91047619Y-20954819D02*
X90952381Y-21097676D01*
X90952381Y-21097676D02*
X90857143Y-21192914D01*
X90857143Y-21192914D02*
X90761905Y-21240533D01*
X78738095Y-35006819D02*
X79309523Y-35006819D01*
X79023809Y-36006819D02*
X79023809Y-35006819D01*
X79642857Y-36006819D02*
X79642857Y-35006819D01*
X79642857Y-35006819D02*
X80023809Y-35006819D01*
X80023809Y-35006819D02*
X80119047Y-35054438D01*
X80119047Y-35054438D02*
X80166666Y-35102057D01*
X80166666Y-35102057D02*
X80214285Y-35197295D01*
X80214285Y-35197295D02*
X80214285Y-35340152D01*
X80214285Y-35340152D02*
X80166666Y-35435390D01*
X80166666Y-35435390D02*
X80119047Y-35483009D01*
X80119047Y-35483009D02*
X80023809Y-35530628D01*
X80023809Y-35530628D02*
X79642857Y-35530628D01*
X81119047Y-35006819D02*
X80642857Y-35006819D01*
X80642857Y-35006819D02*
X80595238Y-35483009D01*
X80595238Y-35483009D02*
X80642857Y-35435390D01*
X80642857Y-35435390D02*
X80738095Y-35387771D01*
X80738095Y-35387771D02*
X80976190Y-35387771D01*
X80976190Y-35387771D02*
X81071428Y-35435390D01*
X81071428Y-35435390D02*
X81119047Y-35483009D01*
X81119047Y-35483009D02*
X81166666Y-35578247D01*
X81166666Y-35578247D02*
X81166666Y-35816342D01*
X81166666Y-35816342D02*
X81119047Y-35911580D01*
X81119047Y-35911580D02*
X81071428Y-35959200D01*
X81071428Y-35959200D02*
X80976190Y-36006819D01*
X80976190Y-36006819D02*
X80738095Y-36006819D01*
X80738095Y-36006819D02*
X80642857Y-35959200D01*
X80642857Y-35959200D02*
X80595238Y-35911580D01*
X6954819Y-11666666D02*
X6954819Y-12142856D01*
X6954819Y-12142856D02*
X5954819Y-12142856D01*
X6954819Y-11333332D02*
X5954819Y-11333332D01*
X5954819Y-11333332D02*
X5954819Y-11095237D01*
X5954819Y-11095237D02*
X6002438Y-10952380D01*
X6002438Y-10952380D02*
X6097676Y-10857142D01*
X6097676Y-10857142D02*
X6192914Y-10809523D01*
X6192914Y-10809523D02*
X6383390Y-10761904D01*
X6383390Y-10761904D02*
X6526247Y-10761904D01*
X6526247Y-10761904D02*
X6716723Y-10809523D01*
X6716723Y-10809523D02*
X6811961Y-10857142D01*
X6811961Y-10857142D02*
X6907200Y-10952380D01*
X6907200Y-10952380D02*
X6954819Y-11095237D01*
X6954819Y-11095237D02*
X6954819Y-11333332D01*
X6954819Y-9809523D02*
X6954819Y-10380951D01*
X6954819Y-10095237D02*
X5954819Y-10095237D01*
X5954819Y-10095237D02*
X6097676Y-10190475D01*
X6097676Y-10190475D02*
X6192914Y-10285713D01*
X6192914Y-10285713D02*
X6240533Y-10380951D01*
X8762295Y-14771428D02*
X8762295Y-15228571D01*
X8762295Y-14999999D02*
X7962295Y-14999999D01*
X7962295Y-14999999D02*
X8076580Y-15076190D01*
X8076580Y-15076190D02*
X8152771Y-15152380D01*
X8152771Y-15152380D02*
X8190866Y-15228571D01*
X106954839Y-11666666D02*
X106954839Y-12142856D01*
X106954839Y-12142856D02*
X105954839Y-12142856D01*
X106954839Y-11333332D02*
X105954839Y-11333332D01*
X105954839Y-11333332D02*
X105954839Y-11095237D01*
X105954839Y-11095237D02*
X106002458Y-10952380D01*
X106002458Y-10952380D02*
X106097696Y-10857142D01*
X106097696Y-10857142D02*
X106192934Y-10809523D01*
X106192934Y-10809523D02*
X106383410Y-10761904D01*
X106383410Y-10761904D02*
X106526267Y-10761904D01*
X106526267Y-10761904D02*
X106716743Y-10809523D01*
X106716743Y-10809523D02*
X106811981Y-10857142D01*
X106811981Y-10857142D02*
X106907220Y-10952380D01*
X106907220Y-10952380D02*
X106954839Y-11095237D01*
X106954839Y-11095237D02*
X106954839Y-11333332D01*
X105954839Y-10428570D02*
X105954839Y-9761904D01*
X105954839Y-9761904D02*
X106954839Y-10190475D01*
X108762315Y-14771428D02*
X108762315Y-15228571D01*
X108762315Y-14999999D02*
X107962315Y-14999999D01*
X107962315Y-14999999D02*
X108076600Y-15076190D01*
X108076600Y-15076190D02*
X108152791Y-15152380D01*
X108152791Y-15152380D02*
X108190886Y-15228571D01*
X126809523Y-26006819D02*
X126809523Y-26721104D01*
X126809523Y-26721104D02*
X126761904Y-26863961D01*
X126761904Y-26863961D02*
X126666666Y-26959200D01*
X126666666Y-26959200D02*
X126523809Y-27006819D01*
X126523809Y-27006819D02*
X126428571Y-27006819D01*
X127190476Y-26006819D02*
X127809523Y-26006819D01*
X127809523Y-26006819D02*
X127476190Y-26387771D01*
X127476190Y-26387771D02*
X127619047Y-26387771D01*
X127619047Y-26387771D02*
X127714285Y-26435390D01*
X127714285Y-26435390D02*
X127761904Y-26483009D01*
X127761904Y-26483009D02*
X127809523Y-26578247D01*
X127809523Y-26578247D02*
X127809523Y-26816342D01*
X127809523Y-26816342D02*
X127761904Y-26911580D01*
X127761904Y-26911580D02*
X127714285Y-26959200D01*
X127714285Y-26959200D02*
X127619047Y-27006819D01*
X127619047Y-27006819D02*
X127333333Y-27006819D01*
X127333333Y-27006819D02*
X127238095Y-26959200D01*
X127238095Y-26959200D02*
X127190476Y-26911580D01*
X128000000Y-27102057D02*
X128761904Y-27102057D01*
X129523809Y-27006819D02*
X128952381Y-27006819D01*
X129238095Y-27006819D02*
X129238095Y-26006819D01*
X129238095Y-26006819D02*
X129142857Y-26149676D01*
X129142857Y-26149676D02*
X129047619Y-26244914D01*
X129047619Y-26244914D02*
X128952381Y-26292533D01*
X140288179Y-11666666D02*
X140288179Y-12142856D01*
X140288179Y-12142856D02*
X139288179Y-12142856D01*
X140288179Y-11333332D02*
X139288179Y-11333332D01*
X139288179Y-11333332D02*
X139288179Y-11095237D01*
X139288179Y-11095237D02*
X139335798Y-10952380D01*
X139335798Y-10952380D02*
X139431036Y-10857142D01*
X139431036Y-10857142D02*
X139526274Y-10809523D01*
X139526274Y-10809523D02*
X139716750Y-10761904D01*
X139716750Y-10761904D02*
X139859607Y-10761904D01*
X139859607Y-10761904D02*
X140050083Y-10809523D01*
X140050083Y-10809523D02*
X140145321Y-10857142D01*
X140145321Y-10857142D02*
X140240560Y-10952380D01*
X140240560Y-10952380D02*
X140288179Y-11095237D01*
X140288179Y-11095237D02*
X140288179Y-11333332D01*
X140288179Y-10285713D02*
X140288179Y-10095237D01*
X140288179Y-10095237D02*
X140240560Y-9999999D01*
X140240560Y-9999999D02*
X140192940Y-9952380D01*
X140192940Y-9952380D02*
X140050083Y-9857142D01*
X140050083Y-9857142D02*
X139859607Y-9809523D01*
X139859607Y-9809523D02*
X139478655Y-9809523D01*
X139478655Y-9809523D02*
X139383417Y-9857142D01*
X139383417Y-9857142D02*
X139335798Y-9904761D01*
X139335798Y-9904761D02*
X139288179Y-9999999D01*
X139288179Y-9999999D02*
X139288179Y-10190475D01*
X139288179Y-10190475D02*
X139335798Y-10285713D01*
X139335798Y-10285713D02*
X139383417Y-10333332D01*
X139383417Y-10333332D02*
X139478655Y-10380951D01*
X139478655Y-10380951D02*
X139716750Y-10380951D01*
X139716750Y-10380951D02*
X139811988Y-10333332D01*
X139811988Y-10333332D02*
X139859607Y-10285713D01*
X139859607Y-10285713D02*
X139907226Y-10190475D01*
X139907226Y-10190475D02*
X139907226Y-9999999D01*
X139907226Y-9999999D02*
X139859607Y-9904761D01*
X139859607Y-9904761D02*
X139811988Y-9857142D01*
X139811988Y-9857142D02*
X139716750Y-9809523D01*
X142095655Y-14771428D02*
X142095655Y-15228571D01*
X142095655Y-14999999D02*
X141295655Y-14999999D01*
X141295655Y-14999999D02*
X141409940Y-15076190D01*
X141409940Y-15076190D02*
X141486131Y-15152380D01*
X141486131Y-15152380D02*
X141524226Y-15228571D01*
X114738095Y-19006819D02*
X115309523Y-19006819D01*
X115023809Y-20006819D02*
X115023809Y-19006819D01*
X115642857Y-20006819D02*
X115642857Y-19006819D01*
X115642857Y-19006819D02*
X116023809Y-19006819D01*
X116023809Y-19006819D02*
X116119047Y-19054438D01*
X116119047Y-19054438D02*
X116166666Y-19102057D01*
X116166666Y-19102057D02*
X116214285Y-19197295D01*
X116214285Y-19197295D02*
X116214285Y-19340152D01*
X116214285Y-19340152D02*
X116166666Y-19435390D01*
X116166666Y-19435390D02*
X116119047Y-19483009D01*
X116119047Y-19483009D02*
X116023809Y-19530628D01*
X116023809Y-19530628D02*
X115642857Y-19530628D01*
X117166666Y-20006819D02*
X116595238Y-20006819D01*
X116880952Y-20006819D02*
X116880952Y-19006819D01*
X116880952Y-19006819D02*
X116785714Y-19149676D01*
X116785714Y-19149676D02*
X116690476Y-19244914D01*
X116690476Y-19244914D02*
X116595238Y-19292533D01*
X99238095Y-46954819D02*
X99238095Y-47764342D01*
X99238095Y-47764342D02*
X99285714Y-47859580D01*
X99285714Y-47859580D02*
X99333333Y-47907200D01*
X99333333Y-47907200D02*
X99428571Y-47954819D01*
X99428571Y-47954819D02*
X99619047Y-47954819D01*
X99619047Y-47954819D02*
X99714285Y-47907200D01*
X99714285Y-47907200D02*
X99761904Y-47859580D01*
X99761904Y-47859580D02*
X99809523Y-47764342D01*
X99809523Y-47764342D02*
X99809523Y-46954819D01*
X100809523Y-47954819D02*
X100238095Y-47954819D01*
X100523809Y-47954819D02*
X100523809Y-46954819D01*
X100523809Y-46954819D02*
X100428571Y-47097676D01*
X100428571Y-47097676D02*
X100333333Y-47192914D01*
X100333333Y-47192914D02*
X100238095Y-47240533D01*
X95238094Y-44019104D02*
X95714284Y-44019104D01*
X95142856Y-44304819D02*
X95476189Y-43304819D01*
X95476189Y-43304819D02*
X95809522Y-44304819D01*
X96142856Y-43638152D02*
X96142856Y-44304819D01*
X96142856Y-43733390D02*
X96190475Y-43685771D01*
X96190475Y-43685771D02*
X96285713Y-43638152D01*
X96285713Y-43638152D02*
X96428570Y-43638152D01*
X96428570Y-43638152D02*
X96523808Y-43685771D01*
X96523808Y-43685771D02*
X96571427Y-43781009D01*
X96571427Y-43781009D02*
X96571427Y-44304819D01*
X96904761Y-43638152D02*
X97285713Y-43638152D01*
X97047618Y-43304819D02*
X97047618Y-44161961D01*
X97047618Y-44161961D02*
X97095237Y-44257200D01*
X97095237Y-44257200D02*
X97190475Y-44304819D01*
X97190475Y-44304819D02*
X97285713Y-44304819D01*
X97999999Y-44257200D02*
X97904761Y-44304819D01*
X97904761Y-44304819D02*
X97714285Y-44304819D01*
X97714285Y-44304819D02*
X97619047Y-44257200D01*
X97619047Y-44257200D02*
X97571428Y-44161961D01*
X97571428Y-44161961D02*
X97571428Y-43781009D01*
X97571428Y-43781009D02*
X97619047Y-43685771D01*
X97619047Y-43685771D02*
X97714285Y-43638152D01*
X97714285Y-43638152D02*
X97904761Y-43638152D01*
X97904761Y-43638152D02*
X97999999Y-43685771D01*
X97999999Y-43685771D02*
X98047618Y-43781009D01*
X98047618Y-43781009D02*
X98047618Y-43876247D01*
X98047618Y-43876247D02*
X97571428Y-43971485D01*
X98476190Y-43638152D02*
X98476190Y-44304819D01*
X98476190Y-43733390D02*
X98523809Y-43685771D01*
X98523809Y-43685771D02*
X98619047Y-43638152D01*
X98619047Y-43638152D02*
X98761904Y-43638152D01*
X98761904Y-43638152D02*
X98857142Y-43685771D01*
X98857142Y-43685771D02*
X98904761Y-43781009D01*
X98904761Y-43781009D02*
X98904761Y-44304819D01*
X99380952Y-43638152D02*
X99380952Y-44304819D01*
X99380952Y-43733390D02*
X99428571Y-43685771D01*
X99428571Y-43685771D02*
X99523809Y-43638152D01*
X99523809Y-43638152D02*
X99666666Y-43638152D01*
X99666666Y-43638152D02*
X99761904Y-43685771D01*
X99761904Y-43685771D02*
X99809523Y-43781009D01*
X99809523Y-43781009D02*
X99809523Y-44304819D01*
X100714285Y-44304819D02*
X100714285Y-43781009D01*
X100714285Y-43781009D02*
X100666666Y-43685771D01*
X100666666Y-43685771D02*
X100571428Y-43638152D01*
X100571428Y-43638152D02*
X100380952Y-43638152D01*
X100380952Y-43638152D02*
X100285714Y-43685771D01*
X100714285Y-44257200D02*
X100619047Y-44304819D01*
X100619047Y-44304819D02*
X100380952Y-44304819D01*
X100380952Y-44304819D02*
X100285714Y-44257200D01*
X100285714Y-44257200D02*
X100238095Y-44161961D01*
X100238095Y-44161961D02*
X100238095Y-44066723D01*
X100238095Y-44066723D02*
X100285714Y-43971485D01*
X100285714Y-43971485D02*
X100380952Y-43923866D01*
X100380952Y-43923866D02*
X100619047Y-43923866D01*
X100619047Y-43923866D02*
X100714285Y-43876247D01*
X101904762Y-44019104D02*
X102380952Y-44019104D01*
X101809524Y-44304819D02*
X102142857Y-43304819D01*
X102142857Y-43304819D02*
X102476190Y-44304819D01*
X102809524Y-44304819D02*
X102809524Y-43638152D01*
X102809524Y-43828628D02*
X102857143Y-43733390D01*
X102857143Y-43733390D02*
X102904762Y-43685771D01*
X102904762Y-43685771D02*
X103000000Y-43638152D01*
X103000000Y-43638152D02*
X103095238Y-43638152D01*
X103809524Y-44257200D02*
X103714286Y-44304819D01*
X103714286Y-44304819D02*
X103523810Y-44304819D01*
X103523810Y-44304819D02*
X103428572Y-44257200D01*
X103428572Y-44257200D02*
X103380953Y-44161961D01*
X103380953Y-44161961D02*
X103380953Y-43781009D01*
X103380953Y-43781009D02*
X103428572Y-43685771D01*
X103428572Y-43685771D02*
X103523810Y-43638152D01*
X103523810Y-43638152D02*
X103714286Y-43638152D01*
X103714286Y-43638152D02*
X103809524Y-43685771D01*
X103809524Y-43685771D02*
X103857143Y-43781009D01*
X103857143Y-43781009D02*
X103857143Y-43876247D01*
X103857143Y-43876247D02*
X103380953Y-43971485D01*
X104714286Y-44304819D02*
X104714286Y-43781009D01*
X104714286Y-43781009D02*
X104666667Y-43685771D01*
X104666667Y-43685771D02*
X104571429Y-43638152D01*
X104571429Y-43638152D02*
X104380953Y-43638152D01*
X104380953Y-43638152D02*
X104285715Y-43685771D01*
X104714286Y-44257200D02*
X104619048Y-44304819D01*
X104619048Y-44304819D02*
X104380953Y-44304819D01*
X104380953Y-44304819D02*
X104285715Y-44257200D01*
X104285715Y-44257200D02*
X104238096Y-44161961D01*
X104238096Y-44161961D02*
X104238096Y-44066723D01*
X104238096Y-44066723D02*
X104285715Y-43971485D01*
X104285715Y-43971485D02*
X104380953Y-43923866D01*
X104380953Y-43923866D02*
X104619048Y-43923866D01*
X104619048Y-43923866D02*
X104714286Y-43876247D01*
X97666666Y-20281009D02*
X97333333Y-20281009D01*
X97333333Y-20804819D02*
X97333333Y-19804819D01*
X97333333Y-19804819D02*
X97809523Y-19804819D01*
X98714285Y-20804819D02*
X98142857Y-20804819D01*
X98428571Y-20804819D02*
X98428571Y-19804819D01*
X98428571Y-19804819D02*
X98333333Y-19947676D01*
X98333333Y-19947676D02*
X98238095Y-20042914D01*
X98238095Y-20042914D02*
X98142857Y-20090533D01*
X109833333Y-29179580D02*
X109785714Y-29227200D01*
X109785714Y-29227200D02*
X109642857Y-29274819D01*
X109642857Y-29274819D02*
X109547619Y-29274819D01*
X109547619Y-29274819D02*
X109404762Y-29227200D01*
X109404762Y-29227200D02*
X109309524Y-29131961D01*
X109309524Y-29131961D02*
X109261905Y-29036723D01*
X109261905Y-29036723D02*
X109214286Y-28846247D01*
X109214286Y-28846247D02*
X109214286Y-28703390D01*
X109214286Y-28703390D02*
X109261905Y-28512914D01*
X109261905Y-28512914D02*
X109309524Y-28417676D01*
X109309524Y-28417676D02*
X109404762Y-28322438D01*
X109404762Y-28322438D02*
X109547619Y-28274819D01*
X109547619Y-28274819D02*
X109642857Y-28274819D01*
X109642857Y-28274819D02*
X109785714Y-28322438D01*
X109785714Y-28322438D02*
X109833333Y-28370057D01*
X110214286Y-28370057D02*
X110261905Y-28322438D01*
X110261905Y-28322438D02*
X110357143Y-28274819D01*
X110357143Y-28274819D02*
X110595238Y-28274819D01*
X110595238Y-28274819D02*
X110690476Y-28322438D01*
X110690476Y-28322438D02*
X110738095Y-28370057D01*
X110738095Y-28370057D02*
X110785714Y-28465295D01*
X110785714Y-28465295D02*
X110785714Y-28560533D01*
X110785714Y-28560533D02*
X110738095Y-28703390D01*
X110738095Y-28703390D02*
X110166667Y-29274819D01*
X110166667Y-29274819D02*
X110785714Y-29274819D01*
X107238095Y-40006819D02*
X107809523Y-40006819D01*
X107523809Y-41006819D02*
X107523809Y-40006819D01*
X108142857Y-41006819D02*
X108142857Y-40006819D01*
X108142857Y-40006819D02*
X108523809Y-40006819D01*
X108523809Y-40006819D02*
X108619047Y-40054438D01*
X108619047Y-40054438D02*
X108666666Y-40102057D01*
X108666666Y-40102057D02*
X108714285Y-40197295D01*
X108714285Y-40197295D02*
X108714285Y-40340152D01*
X108714285Y-40340152D02*
X108666666Y-40435390D01*
X108666666Y-40435390D02*
X108619047Y-40483009D01*
X108619047Y-40483009D02*
X108523809Y-40530628D01*
X108523809Y-40530628D02*
X108142857Y-40530628D01*
X109190476Y-41006819D02*
X109380952Y-41006819D01*
X109380952Y-41006819D02*
X109476190Y-40959200D01*
X109476190Y-40959200D02*
X109523809Y-40911580D01*
X109523809Y-40911580D02*
X109619047Y-40768723D01*
X109619047Y-40768723D02*
X109666666Y-40578247D01*
X109666666Y-40578247D02*
X109666666Y-40197295D01*
X109666666Y-40197295D02*
X109619047Y-40102057D01*
X109619047Y-40102057D02*
X109571428Y-40054438D01*
X109571428Y-40054438D02*
X109476190Y-40006819D01*
X109476190Y-40006819D02*
X109285714Y-40006819D01*
X109285714Y-40006819D02*
X109190476Y-40054438D01*
X109190476Y-40054438D02*
X109142857Y-40102057D01*
X109142857Y-40102057D02*
X109095238Y-40197295D01*
X109095238Y-40197295D02*
X109095238Y-40435390D01*
X109095238Y-40435390D02*
X109142857Y-40530628D01*
X109142857Y-40530628D02*
X109190476Y-40578247D01*
X109190476Y-40578247D02*
X109285714Y-40625866D01*
X109285714Y-40625866D02*
X109476190Y-40625866D01*
X109476190Y-40625866D02*
X109571428Y-40578247D01*
X109571428Y-40578247D02*
X109619047Y-40530628D01*
X109619047Y-40530628D02*
X109666666Y-40435390D01*
X109833333Y-35284819D02*
X109500000Y-34808628D01*
X109261905Y-35284819D02*
X109261905Y-34284819D01*
X109261905Y-34284819D02*
X109642857Y-34284819D01*
X109642857Y-34284819D02*
X109738095Y-34332438D01*
X109738095Y-34332438D02*
X109785714Y-34380057D01*
X109785714Y-34380057D02*
X109833333Y-34475295D01*
X109833333Y-34475295D02*
X109833333Y-34618152D01*
X109833333Y-34618152D02*
X109785714Y-34713390D01*
X109785714Y-34713390D02*
X109738095Y-34761009D01*
X109738095Y-34761009D02*
X109642857Y-34808628D01*
X109642857Y-34808628D02*
X109261905Y-34808628D01*
X110738095Y-34284819D02*
X110261905Y-34284819D01*
X110261905Y-34284819D02*
X110214286Y-34761009D01*
X110214286Y-34761009D02*
X110261905Y-34713390D01*
X110261905Y-34713390D02*
X110357143Y-34665771D01*
X110357143Y-34665771D02*
X110595238Y-34665771D01*
X110595238Y-34665771D02*
X110690476Y-34713390D01*
X110690476Y-34713390D02*
X110738095Y-34761009D01*
X110738095Y-34761009D02*
X110785714Y-34856247D01*
X110785714Y-34856247D02*
X110785714Y-35094342D01*
X110785714Y-35094342D02*
X110738095Y-35189580D01*
X110738095Y-35189580D02*
X110690476Y-35237200D01*
X110690476Y-35237200D02*
X110595238Y-35284819D01*
X110595238Y-35284819D02*
X110357143Y-35284819D01*
X110357143Y-35284819D02*
X110261905Y-35237200D01*
X110261905Y-35237200D02*
X110214286Y-35189580D01*
X116309523Y-39006819D02*
X116309523Y-39721104D01*
X116309523Y-39721104D02*
X116261904Y-39863961D01*
X116261904Y-39863961D02*
X116166666Y-39959200D01*
X116166666Y-39959200D02*
X116023809Y-40006819D01*
X116023809Y-40006819D02*
X115928571Y-40006819D01*
X116738095Y-39102057D02*
X116785714Y-39054438D01*
X116785714Y-39054438D02*
X116880952Y-39006819D01*
X116880952Y-39006819D02*
X117119047Y-39006819D01*
X117119047Y-39006819D02*
X117214285Y-39054438D01*
X117214285Y-39054438D02*
X117261904Y-39102057D01*
X117261904Y-39102057D02*
X117309523Y-39197295D01*
X117309523Y-39197295D02*
X117309523Y-39292533D01*
X117309523Y-39292533D02*
X117261904Y-39435390D01*
X117261904Y-39435390D02*
X116690476Y-40006819D01*
X116690476Y-40006819D02*
X117309523Y-40006819D01*
X117500000Y-40102057D02*
X118261904Y-40102057D01*
X118452381Y-39102057D02*
X118500000Y-39054438D01*
X118500000Y-39054438D02*
X118595238Y-39006819D01*
X118595238Y-39006819D02*
X118833333Y-39006819D01*
X118833333Y-39006819D02*
X118928571Y-39054438D01*
X118928571Y-39054438D02*
X118976190Y-39102057D01*
X118976190Y-39102057D02*
X119023809Y-39197295D01*
X119023809Y-39197295D02*
X119023809Y-39292533D01*
X119023809Y-39292533D02*
X118976190Y-39435390D01*
X118976190Y-39435390D02*
X118404762Y-40006819D01*
X118404762Y-40006819D02*
X119023809Y-40006819D01*
X116738095Y-28506819D02*
X117309523Y-28506819D01*
X117023809Y-29506819D02*
X117023809Y-28506819D01*
X117642857Y-29506819D02*
X117642857Y-28506819D01*
X117642857Y-28506819D02*
X118023809Y-28506819D01*
X118023809Y-28506819D02*
X118119047Y-28554438D01*
X118119047Y-28554438D02*
X118166666Y-28602057D01*
X118166666Y-28602057D02*
X118214285Y-28697295D01*
X118214285Y-28697295D02*
X118214285Y-28840152D01*
X118214285Y-28840152D02*
X118166666Y-28935390D01*
X118166666Y-28935390D02*
X118119047Y-28983009D01*
X118119047Y-28983009D02*
X118023809Y-29030628D01*
X118023809Y-29030628D02*
X117642857Y-29030628D01*
X118595238Y-28602057D02*
X118642857Y-28554438D01*
X118642857Y-28554438D02*
X118738095Y-28506819D01*
X118738095Y-28506819D02*
X118976190Y-28506819D01*
X118976190Y-28506819D02*
X119071428Y-28554438D01*
X119071428Y-28554438D02*
X119119047Y-28602057D01*
X119119047Y-28602057D02*
X119166666Y-28697295D01*
X119166666Y-28697295D02*
X119166666Y-28792533D01*
X119166666Y-28792533D02*
X119119047Y-28935390D01*
X119119047Y-28935390D02*
X118547619Y-29506819D01*
X118547619Y-29506819D02*
X119166666Y-29506819D01*
X116738095Y-31006819D02*
X117309523Y-31006819D01*
X117023809Y-32006819D02*
X117023809Y-31006819D01*
X117642857Y-32006819D02*
X117642857Y-31006819D01*
X117642857Y-31006819D02*
X118023809Y-31006819D01*
X118023809Y-31006819D02*
X118119047Y-31054438D01*
X118119047Y-31054438D02*
X118166666Y-31102057D01*
X118166666Y-31102057D02*
X118214285Y-31197295D01*
X118214285Y-31197295D02*
X118214285Y-31340152D01*
X118214285Y-31340152D02*
X118166666Y-31435390D01*
X118166666Y-31435390D02*
X118119047Y-31483009D01*
X118119047Y-31483009D02*
X118023809Y-31530628D01*
X118023809Y-31530628D02*
X117642857Y-31530628D01*
X118547619Y-31006819D02*
X119166666Y-31006819D01*
X119166666Y-31006819D02*
X118833333Y-31387771D01*
X118833333Y-31387771D02*
X118976190Y-31387771D01*
X118976190Y-31387771D02*
X119071428Y-31435390D01*
X119071428Y-31435390D02*
X119119047Y-31483009D01*
X119119047Y-31483009D02*
X119166666Y-31578247D01*
X119166666Y-31578247D02*
X119166666Y-31816342D01*
X119166666Y-31816342D02*
X119119047Y-31911580D01*
X119119047Y-31911580D02*
X119071428Y-31959200D01*
X119071428Y-31959200D02*
X118976190Y-32006819D01*
X118976190Y-32006819D02*
X118690476Y-32006819D01*
X118690476Y-32006819D02*
X118595238Y-31959200D01*
X118595238Y-31959200D02*
X118547619Y-31911580D01*
X107238095Y-37506819D02*
X107809523Y-37506819D01*
X107523809Y-38506819D02*
X107523809Y-37506819D01*
X108142857Y-38506819D02*
X108142857Y-37506819D01*
X108142857Y-37506819D02*
X108523809Y-37506819D01*
X108523809Y-37506819D02*
X108619047Y-37554438D01*
X108619047Y-37554438D02*
X108666666Y-37602057D01*
X108666666Y-37602057D02*
X108714285Y-37697295D01*
X108714285Y-37697295D02*
X108714285Y-37840152D01*
X108714285Y-37840152D02*
X108666666Y-37935390D01*
X108666666Y-37935390D02*
X108619047Y-37983009D01*
X108619047Y-37983009D02*
X108523809Y-38030628D01*
X108523809Y-38030628D02*
X108142857Y-38030628D01*
X109285714Y-37935390D02*
X109190476Y-37887771D01*
X109190476Y-37887771D02*
X109142857Y-37840152D01*
X109142857Y-37840152D02*
X109095238Y-37744914D01*
X109095238Y-37744914D02*
X109095238Y-37697295D01*
X109095238Y-37697295D02*
X109142857Y-37602057D01*
X109142857Y-37602057D02*
X109190476Y-37554438D01*
X109190476Y-37554438D02*
X109285714Y-37506819D01*
X109285714Y-37506819D02*
X109476190Y-37506819D01*
X109476190Y-37506819D02*
X109571428Y-37554438D01*
X109571428Y-37554438D02*
X109619047Y-37602057D01*
X109619047Y-37602057D02*
X109666666Y-37697295D01*
X109666666Y-37697295D02*
X109666666Y-37744914D01*
X109666666Y-37744914D02*
X109619047Y-37840152D01*
X109619047Y-37840152D02*
X109571428Y-37887771D01*
X109571428Y-37887771D02*
X109476190Y-37935390D01*
X109476190Y-37935390D02*
X109285714Y-37935390D01*
X109285714Y-37935390D02*
X109190476Y-37983009D01*
X109190476Y-37983009D02*
X109142857Y-38030628D01*
X109142857Y-38030628D02*
X109095238Y-38125866D01*
X109095238Y-38125866D02*
X109095238Y-38316342D01*
X109095238Y-38316342D02*
X109142857Y-38411580D01*
X109142857Y-38411580D02*
X109190476Y-38459200D01*
X109190476Y-38459200D02*
X109285714Y-38506819D01*
X109285714Y-38506819D02*
X109476190Y-38506819D01*
X109476190Y-38506819D02*
X109571428Y-38459200D01*
X109571428Y-38459200D02*
X109619047Y-38411580D01*
X109619047Y-38411580D02*
X109666666Y-38316342D01*
X109666666Y-38316342D02*
X109666666Y-38125866D01*
X109666666Y-38125866D02*
X109619047Y-38030628D01*
X109619047Y-38030628D02*
X109571428Y-37983009D01*
X109571428Y-37983009D02*
X109476190Y-37935390D01*
X115238095Y-22054819D02*
X115238095Y-22864342D01*
X115238095Y-22864342D02*
X115285714Y-22959580D01*
X115285714Y-22959580D02*
X115333333Y-23007200D01*
X115333333Y-23007200D02*
X115428571Y-23054819D01*
X115428571Y-23054819D02*
X115619047Y-23054819D01*
X115619047Y-23054819D02*
X115714285Y-23007200D01*
X115714285Y-23007200D02*
X115761904Y-22959580D01*
X115761904Y-22959580D02*
X115809523Y-22864342D01*
X115809523Y-22864342D02*
X115809523Y-22054819D01*
X116190476Y-22054819D02*
X116809523Y-22054819D01*
X116809523Y-22054819D02*
X116476190Y-22435771D01*
X116476190Y-22435771D02*
X116619047Y-22435771D01*
X116619047Y-22435771D02*
X116714285Y-22483390D01*
X116714285Y-22483390D02*
X116761904Y-22531009D01*
X116761904Y-22531009D02*
X116809523Y-22626247D01*
X116809523Y-22626247D02*
X116809523Y-22864342D01*
X116809523Y-22864342D02*
X116761904Y-22959580D01*
X116761904Y-22959580D02*
X116714285Y-23007200D01*
X116714285Y-23007200D02*
X116619047Y-23054819D01*
X116619047Y-23054819D02*
X116333333Y-23054819D01*
X116333333Y-23054819D02*
X116238095Y-23007200D01*
X116238095Y-23007200D02*
X116190476Y-22959580D01*
%TO.C,C18*%
D11*
X146373360Y-15607836D02*
X146373360Y-15392164D01*
X147093360Y-15607836D02*
X147093360Y-15392164D01*
%TO.C,C9*%
X109892164Y-32640000D02*
X110107836Y-32640000D01*
X109892164Y-33360000D02*
X110107836Y-33360000D01*
%TO.C,C6*%
X84392164Y-31140000D02*
X84607836Y-31140000D01*
X84392164Y-31860000D02*
X84607836Y-31860000D01*
%TO.C,C20*%
X179706700Y-15607836D02*
X179706700Y-15392164D01*
X180426700Y-15607836D02*
X180426700Y-15392164D01*
%TO.C,R1*%
X87346359Y-45120000D02*
X87653641Y-45120000D01*
X87346359Y-45880000D02*
X87653641Y-45880000D01*
%TO.C,C3*%
X109738748Y-24765000D02*
X110261252Y-24765000D01*
X109738748Y-26235000D02*
X110261252Y-26235000D01*
%TO.C,C11*%
X29706670Y-15607836D02*
X29706670Y-15392164D01*
X30426670Y-15607836D02*
X30426670Y-15392164D01*
%TO.C,LD6*%
X90583350Y-14500000D02*
X90583350Y-7500000D01*
X90583350Y-14500000D02*
X96083350Y-14500000D01*
X94233350Y-8300000D02*
X92433350Y-8300000D01*
X94233350Y-13700000D02*
X92433350Y-13700000D01*
X95633350Y-7500000D02*
X90583350Y-7500000D01*
X96083350Y-7950000D02*
X95633350Y-7500000D01*
X96083350Y-14500000D02*
X96083350Y-7950000D01*
%TO.C,C19*%
X163040030Y-15607836D02*
X163040030Y-15392164D01*
X163760030Y-15607836D02*
X163760030Y-15392164D01*
%TO.C,R6*%
X114346359Y-35620000D02*
X114653641Y-35620000D01*
X114346359Y-36380000D02*
X114653641Y-36380000D01*
%TO.C,R9*%
X94846359Y-26620000D02*
X95153641Y-26620000D01*
X94846359Y-27380000D02*
X95153641Y-27380000D01*
%TO.C,LD4*%
X57250010Y-14500000D02*
X57250010Y-7500000D01*
X57250010Y-14500000D02*
X62750010Y-14500000D01*
X60900010Y-8300000D02*
X59100010Y-8300000D01*
X60900010Y-13700000D02*
X59100010Y-13700000D01*
X62300010Y-7500000D02*
X57250010Y-7500000D01*
X62750010Y-7950000D02*
X62300010Y-7500000D01*
X62750010Y-14500000D02*
X62750010Y-7950000D01*
%TO.C,C16*%
X113040020Y-15607836D02*
X113040020Y-15392164D01*
X113760020Y-15607836D02*
X113760020Y-15392164D01*
%TO.C,C17*%
X129706690Y-15607836D02*
X129706690Y-15392164D01*
X130426690Y-15607836D02*
X130426690Y-15392164D01*
%TO.C,TP11*%
X94200000Y-21500000D02*
G75*
G02*
X92800000Y-21500000I-700000J0D01*
G01*
X92800000Y-21500000D02*
G75*
G02*
X94200000Y-21500000I700000J0D01*
G01*
%TO.C,C4*%
X114238748Y-29765000D02*
X114761252Y-29765000D01*
X114238748Y-31235000D02*
X114761252Y-31235000D01*
%TO.C,TP6*%
X107200000Y-27000000D02*
G75*
G02*
X105800000Y-27000000I-700000J0D01*
G01*
X105800000Y-27000000D02*
G75*
G02*
X107200000Y-27000000I700000J0D01*
G01*
%TO.C,C7*%
X112392164Y-21640000D02*
X112607836Y-21640000D01*
X112392164Y-22360000D02*
X112607836Y-22360000D01*
%TO.C,TP10*%
X109200000Y-44500000D02*
G75*
G02*
X107800000Y-44500000I-700000J0D01*
G01*
X107800000Y-44500000D02*
G75*
G02*
X109200000Y-44500000I700000J0D01*
G01*
%TO.C,C1*%
X74500000Y-22490000D02*
X75500000Y-22490000D01*
X75000000Y-21990000D02*
X75000000Y-22990000D01*
X75740000Y-21804437D02*
X75740000Y-23490000D01*
X75740000Y-21804437D02*
X76804437Y-20740000D01*
X75740000Y-28195563D02*
X75740000Y-26510000D01*
X75740000Y-28195563D02*
X76804437Y-29260000D01*
X76804437Y-20740000D02*
X84260000Y-20740000D01*
X76804437Y-29260000D02*
X84260000Y-29260000D01*
X84260000Y-20740000D02*
X84260000Y-23490000D01*
X84260000Y-29260000D02*
X84260000Y-26510000D01*
%TO.C,LD10*%
X157250030Y-14500000D02*
X157250030Y-7500000D01*
X157250030Y-14500000D02*
X162750030Y-14500000D01*
X160900030Y-8300000D02*
X159100030Y-8300000D01*
X160900030Y-13700000D02*
X159100030Y-13700000D01*
X162300030Y-7500000D02*
X157250030Y-7500000D01*
X162750030Y-7950000D02*
X162300030Y-7500000D01*
X162750030Y-14500000D02*
X162750030Y-7950000D01*
%TO.C,R4*%
X114346359Y-33120000D02*
X114653641Y-33120000D01*
X114346359Y-33880000D02*
X114653641Y-33880000D01*
%TO.C,J3_2*%
X128700000Y-41000000D02*
G75*
G02*
X127300000Y-41000000I-700000J0D01*
G01*
X127300000Y-41000000D02*
G75*
G02*
X128700000Y-41000000I700000J0D01*
G01*
%TO.C,C5*%
X83738748Y-33765000D02*
X84261252Y-33765000D01*
X83738748Y-35235000D02*
X84261252Y-35235000D01*
%TO.C,R7*%
X104346359Y-26620000D02*
X104653641Y-26620000D01*
X104346359Y-27380000D02*
X104653641Y-27380000D01*
%TO.C,TP4*%
X123200000Y-44500000D02*
G75*
G02*
X121800000Y-44500000I-700000J0D01*
G01*
X121800000Y-44500000D02*
G75*
G02*
X123200000Y-44500000I700000J0D01*
G01*
%TO.C,C12*%
X46373340Y-15607836D02*
X46373340Y-15392164D01*
X47093340Y-15607836D02*
X47093340Y-15392164D01*
%TO.C,C13*%
X63040010Y-15607836D02*
X63040010Y-15392164D01*
X63760010Y-15607836D02*
X63760010Y-15392164D01*
%TO.C,C10*%
X13040000Y-15607836D02*
X13040000Y-15392164D01*
X13760000Y-15607836D02*
X13760000Y-15392164D01*
%TO.C,R11*%
X88346359Y-34620000D02*
X88653641Y-34620000D01*
X88346359Y-35380000D02*
X88653641Y-35380000D01*
%TO.C,Q1*%
X104240000Y-21440000D02*
X105760000Y-21440000D01*
X104240000Y-21490000D02*
X104240000Y-21440000D01*
X104240000Y-23390000D02*
X104240000Y-22610000D01*
X104240000Y-24560000D02*
X104240000Y-24510000D01*
X105760000Y-21440000D02*
X105760000Y-22440000D01*
X105760000Y-23560000D02*
X105760000Y-24560000D01*
X105760000Y-24560000D02*
X104240000Y-24560000D01*
X103700000Y-22620000D02*
X103940000Y-22950000D01*
X103460000Y-22950000D01*
X103700000Y-22620000D01*
G36*
X103940000Y-22950000D02*
G01*
X103460000Y-22950000D01*
X103700000Y-22620000D01*
X103940000Y-22950000D01*
G37*
%TO.C,LD3*%
X40583340Y-14500000D02*
X40583340Y-7500000D01*
X40583340Y-14500000D02*
X46083340Y-14500000D01*
X44233340Y-8300000D02*
X42433340Y-8300000D01*
X44233340Y-13700000D02*
X42433340Y-13700000D01*
X45633340Y-7500000D02*
X40583340Y-7500000D01*
X46083340Y-7950000D02*
X45633340Y-7500000D01*
X46083340Y-14500000D02*
X46083340Y-7950000D01*
%TO.C,R2*%
X90346359Y-45120000D02*
X90653641Y-45120000D01*
X90346359Y-45880000D02*
X90653641Y-45880000D01*
%TO.C,R10*%
X101846359Y-26620000D02*
X102153641Y-26620000D01*
X101846359Y-27380000D02*
X102153641Y-27380000D01*
%TO.C,LD2*%
X23916670Y-14500000D02*
X23916670Y-7500000D01*
X23916670Y-14500000D02*
X29416670Y-14500000D01*
X27566670Y-8300000D02*
X25766670Y-8300000D01*
X27566670Y-13700000D02*
X25766670Y-13700000D01*
X28966670Y-7500000D02*
X23916670Y-7500000D01*
X29416670Y-7950000D02*
X28966670Y-7500000D01*
X29416670Y-14500000D02*
X29416670Y-7950000D01*
%TO.C,TP7*%
X183700000Y-15500000D02*
G75*
G02*
X182300000Y-15500000I-700000J0D01*
G01*
X182300000Y-15500000D02*
G75*
G02*
X183700000Y-15500000I700000J0D01*
G01*
%TO.C,C8*%
X97392164Y-26640000D02*
X97607836Y-26640000D01*
X97392164Y-27360000D02*
X97607836Y-27360000D01*
%TO.C,LD8*%
X123916690Y-14500000D02*
X123916690Y-7500000D01*
X123916690Y-14500000D02*
X129416690Y-14500000D01*
X127566690Y-8300000D02*
X125766690Y-8300000D01*
X127566690Y-13700000D02*
X125766690Y-13700000D01*
X128966690Y-7500000D02*
X123916690Y-7500000D01*
X129416690Y-7950000D02*
X128966690Y-7500000D01*
X129416690Y-14500000D02*
X129416690Y-7950000D01*
%TO.C,R3*%
X91346359Y-31120000D02*
X91653641Y-31120000D01*
X91346359Y-31880000D02*
X91653641Y-31880000D01*
%TO.C,U4*%
X88290000Y-39940000D02*
X90110000Y-39940000D01*
X88290000Y-39990000D02*
X88290000Y-39940000D01*
X88290000Y-43060000D02*
X88290000Y-43010000D01*
X90110000Y-39940000D02*
X90110000Y-39990000D01*
X90110000Y-43010000D02*
X90110000Y-43060000D01*
X90110000Y-43060000D02*
X88290000Y-43060000D01*
X87750000Y-39990000D02*
X87510000Y-39660000D01*
X87990000Y-39660000D01*
X87750000Y-39990000D01*
G36*
X87750000Y-39990000D02*
G01*
X87510000Y-39660000D01*
X87990000Y-39660000D01*
X87750000Y-39990000D01*
G37*
%TO.C,J1*%
X75300000Y-41900000D02*
X75300000Y-43900000D01*
X75300000Y-45800000D02*
X75300000Y-47700000D01*
X75300000Y-47700000D02*
X84700000Y-47700000D01*
X84700000Y-41900000D02*
X84700000Y-43900000D01*
X84700000Y-45800000D02*
X84700000Y-47700000D01*
%TO.C,C14*%
X79706680Y-15607836D02*
X79706680Y-15392164D01*
X80426680Y-15607836D02*
X80426680Y-15392164D01*
%TO.C,R8*%
X109846359Y-21620000D02*
X110153641Y-21620000D01*
X109846359Y-22380000D02*
X110153641Y-22380000D01*
%TO.C,C15*%
X96373350Y-15607836D02*
X96373350Y-15392164D01*
X97093350Y-15607836D02*
X97093350Y-15392164D01*
%TO.C,LD11*%
X173916700Y-14500000D02*
X173916700Y-7500000D01*
X173916700Y-14500000D02*
X179416700Y-14500000D01*
X177566700Y-8300000D02*
X175766700Y-8300000D01*
X177566700Y-13700000D02*
X175766700Y-13700000D01*
X178966700Y-7500000D02*
X173916700Y-7500000D01*
X179416700Y-7950000D02*
X178966700Y-7500000D01*
X179416700Y-14500000D02*
X179416700Y-7950000D01*
%TO.C,LD5*%
X73916680Y-14500000D02*
X73916680Y-7500000D01*
X73916680Y-14500000D02*
X79416680Y-14500000D01*
X77566680Y-8300000D02*
X75766680Y-8300000D01*
X77566680Y-13700000D02*
X75766680Y-13700000D01*
X78966680Y-7500000D02*
X73916680Y-7500000D01*
X79416680Y-7950000D02*
X78966680Y-7500000D01*
X79416680Y-14500000D02*
X79416680Y-7950000D01*
%TO.C,J2_1*%
X118200000Y-28000000D02*
G75*
G02*
X116800000Y-28000000I-700000J0D01*
G01*
X116800000Y-28000000D02*
G75*
G02*
X118200000Y-28000000I700000J0D01*
G01*
%TO.C,U2*%
X87590000Y-29940000D02*
X89410000Y-29940000D01*
X87590000Y-29990000D02*
X87590000Y-29940000D01*
X87590000Y-33060000D02*
X87590000Y-33010000D01*
X89410000Y-29940000D02*
X89410000Y-29990000D01*
X89410000Y-31110000D02*
X89410000Y-31890000D01*
X89410000Y-33010000D02*
X89410000Y-33060000D01*
X89410000Y-33060000D02*
X87590000Y-33060000D01*
X87050000Y-29990000D02*
X86810000Y-29660000D01*
X87290000Y-29660000D01*
X87050000Y-29990000D01*
G36*
X87050000Y-29990000D02*
G01*
X86810000Y-29660000D01*
X87290000Y-29660000D01*
X87050000Y-29990000D01*
G37*
%TO.C,SW1*%
X87450000Y-22490000D02*
X88250000Y-22490000D01*
X88250000Y-22450000D02*
X88250000Y-22490000D01*
X88250000Y-22450000D02*
X91750000Y-22450000D01*
%TO.C,TP5*%
X80700000Y-37000000D02*
G75*
G02*
X79300000Y-37000000I-700000J0D01*
G01*
X79300000Y-37000000D02*
G75*
G02*
X80700000Y-37000000I700000J0D01*
G01*
%TO.C,LD1*%
X7250000Y-14500000D02*
X7250000Y-7500000D01*
X7250000Y-14500000D02*
X12750000Y-14500000D01*
X10900000Y-8300000D02*
X9100000Y-8300000D01*
X10900000Y-13700000D02*
X9100000Y-13700000D01*
X12300000Y-7500000D02*
X7250000Y-7500000D01*
X12750000Y-7950000D02*
X12300000Y-7500000D01*
X12750000Y-14500000D02*
X12750000Y-7950000D01*
%TO.C,LD7*%
X107250020Y-14500000D02*
X107250020Y-7500000D01*
X107250020Y-14500000D02*
X112750020Y-14500000D01*
X110900020Y-8300000D02*
X109100020Y-8300000D01*
X110900020Y-13700000D02*
X109100020Y-13700000D01*
X112300020Y-7500000D02*
X107250020Y-7500000D01*
X112750020Y-7950000D02*
X112300020Y-7500000D01*
X112750020Y-14500000D02*
X112750020Y-7950000D01*
%TO.C,J3_1*%
X128700000Y-28000000D02*
G75*
G02*
X127300000Y-28000000I-700000J0D01*
G01*
X127300000Y-28000000D02*
G75*
G02*
X128700000Y-28000000I700000J0D01*
G01*
%TO.C,LD9*%
X140583360Y-14500000D02*
X140583360Y-7500000D01*
X140583360Y-14500000D02*
X146083360Y-14500000D01*
X144233360Y-8300000D02*
X142433360Y-8300000D01*
X144233360Y-13700000D02*
X142433360Y-13700000D01*
X145633360Y-7500000D02*
X140583360Y-7500000D01*
X146083360Y-7950000D02*
X145633360Y-7500000D01*
X146083360Y-14500000D02*
X146083360Y-7950000D01*
%TO.C,TP1*%
X116700000Y-21000000D02*
G75*
G02*
X115300000Y-21000000I-700000J0D01*
G01*
X115300000Y-21000000D02*
G75*
G02*
X116700000Y-21000000I700000J0D01*
G01*
%TO.C,U1*%
X93200000Y-29500000D02*
X94000000Y-29500000D01*
X93200000Y-30300000D02*
X93200000Y-29500000D01*
X93200000Y-46500000D02*
X93200000Y-45900000D01*
X93400000Y-29700000D02*
X106600000Y-29700000D01*
X93400000Y-46300000D02*
X93400000Y-29700000D01*
X93950000Y-46500000D02*
X93200000Y-46500000D01*
X105925000Y-46500000D02*
X106775000Y-46500000D01*
X106600000Y-29700000D02*
X106600000Y-46300000D01*
X106600000Y-40900000D02*
X93400000Y-40900000D01*
X106600000Y-46300000D02*
X93400000Y-46300000D01*
X106800000Y-29500000D02*
X106000000Y-29500000D01*
X106800000Y-30300000D02*
X106800000Y-29500000D01*
%TO.C,F1*%
X96613748Y-21290000D02*
X99386252Y-21290000D01*
X96613748Y-24710000D02*
X99386252Y-24710000D01*
%TO.C,C2*%
X109738748Y-29765000D02*
X110261252Y-29765000D01*
X109738748Y-31235000D02*
X110261252Y-31235000D01*
%TO.C,TP9*%
X109200000Y-42000000D02*
G75*
G02*
X107800000Y-42000000I-700000J0D01*
G01*
X107800000Y-42000000D02*
G75*
G02*
X109200000Y-42000000I700000J0D01*
G01*
%TO.C,R5*%
X109846359Y-35620000D02*
X110153641Y-35620000D01*
X109846359Y-36380000D02*
X110153641Y-36380000D01*
%TO.C,J2_2*%
X118200000Y-41000000D02*
G75*
G02*
X116800000Y-41000000I-700000J0D01*
G01*
X116800000Y-41000000D02*
G75*
G02*
X118200000Y-41000000I700000J0D01*
G01*
%TO.C,TP2*%
X118700000Y-30500000D02*
G75*
G02*
X117300000Y-30500000I-700000J0D01*
G01*
X117300000Y-30500000D02*
G75*
G02*
X118700000Y-30500000I700000J0D01*
G01*
%TO.C,TP3*%
X118700000Y-33000000D02*
G75*
G02*
X117300000Y-33000000I-700000J0D01*
G01*
X117300000Y-33000000D02*
G75*
G02*
X118700000Y-33000000I700000J0D01*
G01*
%TO.C,TP8*%
X109200000Y-39500000D02*
G75*
G02*
X107800000Y-39500000I-700000J0D01*
G01*
X107800000Y-39500000D02*
G75*
G02*
X109200000Y-39500000I700000J0D01*
G01*
%TO.C,U3*%
X115090000Y-23440000D02*
X116910000Y-23440000D01*
X115090000Y-23490000D02*
X115090000Y-23440000D01*
X115090000Y-26560000D02*
X115090000Y-26510000D01*
X116910000Y-23440000D02*
X116910000Y-23490000D01*
X116910000Y-24610000D02*
X116910000Y-25390000D01*
X116910000Y-26510000D02*
X116910000Y-26560000D01*
X116910000Y-26560000D02*
X115090000Y-26560000D01*
X114550000Y-23490000D02*
X114310000Y-23160000D01*
X114790000Y-23160000D01*
X114550000Y-23490000D01*
G36*
X114550000Y-23490000D02*
G01*
X114310000Y-23160000D01*
X114790000Y-23160000D01*
X114550000Y-23490000D01*
G37*
%TD*%
M02*
