M48
; DRILL file KiCad 10.0.5 date 2026-08-20T14:07:54
; FORMAT={-:-/ absolute / metric / decimal}
; #@! TF.CreationDate,2026-08-20T14:07:54+02:00
; #@! TF.GenerationSoftware,Kicad,Pcbnew,10.0.5
; #@! TF.FileFunction,Plated,1,2,PTH
FMAT,2
METRIC
; #@! TA.AperFunction,Plated,PTH,ViaDrill
T1C0.300
; #@! TA.AperFunction,Plated,PTH,ComponentDrill
T2C0.600
%
G90
G05
T1
X13.4Y-15.02
X30.067Y-15.02
X46.733Y-15.02
X63.4Y-15.02
X76.0Y-29.5
X76.0Y-44.0
X80.067Y-15.02
X88.0Y-45.5
X96.733Y-15.02
X113.4Y-15.02
X117.0Y-22.0
X117.0Y-45.5
X130.067Y-15.02
X146.733Y-15.02
X163.4Y-15.02
X180.067Y-15.02
T2
X75.68Y-40.12G85X75.68Y-41.22
G05
X75.68Y-44.55G85X75.68Y-45.15
G05
X84.32Y-40.12G85X84.32Y-41.22
G05
X84.32Y-44.55G85X84.32Y-45.15
G05
M30
