%TF.GenerationSoftware,KiCad,Pcbnew,10.0.5*%
%TF.CreationDate,2026-08-20T14:32:24+02:00*%
%TF.ProjectId,fl11,666c3131-2e6b-4696-9361-645f70636258,rev?*%
%TF.SameCoordinates,Original*%
%TF.FileFunction,Copper,L2,Bot*%
%TF.FilePolarity,Positive*%
%FSLAX46Y46*%
G04 Gerber Fmt 4.6, Leading zero omitted, Abs format (unit mm)*
G04 Created by KiCad (PCBNEW 10.0.5) date 2026-08-20 14:32:24*
%MOMM*%
%LPD*%
G01*
G04 APERTURE LIST*
%TA.AperFunction,ComponentPad*%
%ADD10O,1.000000X2.100000*%
%TD*%
%TA.AperFunction,ComponentPad*%
%ADD11O,1.000000X1.600000*%
%TD*%
%TA.AperFunction,ViaPad*%
%ADD12C,0.600000*%
%TD*%
G04 APERTURE END LIST*
D10*
%TO.P,J1,SH*%
%TO.N,GND*%
X75680000Y-40670000D03*
D11*
X75680000Y-44850000D03*
D10*
X84320000Y-40670000D03*
D11*
X84320000Y-44850000D03*
%TD*%
D12*
%TO.N,GND*%
X76000000Y-44000000D03*
X63879980Y-15100000D03*
X117000000Y-45500000D03*
X88879970Y-15100000D03*
X38879989Y-15100000D03*
X22213330Y-15100000D03*
X130546619Y-15100000D03*
X138879950Y-15100000D03*
X163879940Y-15100000D03*
X55546650Y-15100000D03*
X47213320Y-15100000D03*
X88000000Y-45500000D03*
X72213310Y-15100000D03*
X13880000Y-15100000D03*
X30546660Y-15100000D03*
X117000000Y-22000000D03*
X155546610Y-15100000D03*
X172213270Y-15100000D03*
X80546640Y-15100000D03*
X76000000Y-29500000D03*
X105546630Y-15100000D03*
X113879960Y-15100000D03*
X97213300Y-15100000D03*
X122213290Y-15100000D03*
X147213280Y-15100000D03*
%TD*%
%TA.AperFunction,Conductor*%
%TO.N,GND*%
G36*
X186442539Y-520185D02*
G01*
X186488294Y-572989D01*
X186499500Y-624500D01*
X186499500Y-19375500D01*
X186479815Y-19442539D01*
X186427011Y-19488294D01*
X186375500Y-19499500D01*
X120065892Y-19499500D01*
X119934108Y-19499500D01*
X119806814Y-19533608D01*
X119806813Y-19533608D01*
X119806811Y-19533609D01*
X119806810Y-19533609D01*
X119720594Y-19583387D01*
X119658594Y-19600000D01*
X119600000Y-19600000D01*
X119600000Y-19658594D01*
X119583387Y-19720594D01*
X119533609Y-19806810D01*
X119533609Y-19806811D01*
X119499500Y-19934108D01*
X119499500Y-21813624D01*
X119479815Y-21880663D01*
X119427011Y-21926418D01*
X119407601Y-21933397D01*
X119406814Y-21933607D01*
X119292686Y-21999500D01*
X119292683Y-21999502D01*
X119199502Y-22092683D01*
X119199500Y-22092686D01*
X119133608Y-22206812D01*
X119099500Y-22334108D01*
X119099500Y-27415891D01*
X119133608Y-27543187D01*
X119166554Y-27600250D01*
X119199500Y-27657314D01*
X119292686Y-27750500D01*
X119406814Y-27816392D01*
X119508095Y-27843529D01*
X119567753Y-27879892D01*
X119598283Y-27942739D01*
X119600000Y-27963303D01*
X119600000Y-28036696D01*
X119580315Y-28103735D01*
X119527511Y-28149490D01*
X119508097Y-28156469D01*
X119466853Y-28167520D01*
X119406812Y-28183608D01*
X119292686Y-28249500D01*
X119292683Y-28249502D01*
X119199502Y-28342683D01*
X119199500Y-28342686D01*
X119133608Y-28456812D01*
X119099500Y-28584108D01*
X119099500Y-45415891D01*
X119133608Y-45543187D01*
X119166554Y-45600250D01*
X119199500Y-45657314D01*
X119292686Y-45750500D01*
X119406814Y-45816392D01*
X119508095Y-45843529D01*
X119567753Y-45879892D01*
X119598283Y-45942739D01*
X119600000Y-45963303D01*
X119600000Y-46036696D01*
X119580315Y-46103735D01*
X119527511Y-46149490D01*
X119508097Y-46156469D01*
X119466853Y-46167520D01*
X119406812Y-46183608D01*
X119292686Y-46249500D01*
X119292683Y-46249502D01*
X119199502Y-46342683D01*
X119199500Y-46342686D01*
X119133608Y-46456812D01*
X119099500Y-46584108D01*
X119099500Y-47375500D01*
X119079815Y-47442539D01*
X119027011Y-47488294D01*
X118975500Y-47499500D01*
X72624500Y-47499500D01*
X72557461Y-47479815D01*
X72511706Y-47427011D01*
X72500500Y-47375500D01*
X72500500Y-46300000D01*
X93400000Y-46300000D01*
X106600000Y-46300000D01*
X106600000Y-42874038D01*
X112399500Y-42874038D01*
X112399500Y-43125961D01*
X112438910Y-43374785D01*
X112516760Y-43614383D01*
X112631132Y-43838848D01*
X112779201Y-44042649D01*
X112779205Y-44042654D01*
X112957345Y-44220794D01*
X112957350Y-44220798D01*
X113135117Y-44349952D01*
X113161155Y-44368870D01*
X113304184Y-44441747D01*
X113385616Y-44483239D01*
X113385618Y-44483239D01*
X113385621Y-44483241D01*
X113625215Y-44561090D01*
X113874038Y-44600500D01*
X113874039Y-44600500D01*
X114125961Y-44600500D01*
X114125962Y-44600500D01*
X114374785Y-44561090D01*
X114614379Y-44483241D01*
X114838845Y-44368870D01*
X115042656Y-44220793D01*
X115220793Y-44042656D01*
X115368870Y-43838845D01*
X115483241Y-43614379D01*
X115561090Y-43374785D01*
X115600500Y-43125962D01*
X115600500Y-42874038D01*
X115561090Y-42625215D01*
X115483241Y-42385621D01*
X115483239Y-42385618D01*
X115483239Y-42385616D01*
X115441747Y-42304184D01*
X115368870Y-42161155D01*
X115349952Y-42135117D01*
X115220798Y-41957350D01*
X115220794Y-41957345D01*
X115042654Y-41779205D01*
X115042649Y-41779201D01*
X114838848Y-41631132D01*
X114838847Y-41631131D01*
X114838845Y-41631130D01*
X114768747Y-41595413D01*
X114614383Y-41516760D01*
X114374785Y-41438910D01*
X114268879Y-41422136D01*
X114125962Y-41399500D01*
X113874038Y-41399500D01*
X113749626Y-41419205D01*
X113625214Y-41438910D01*
X113385616Y-41516760D01*
X113161151Y-41631132D01*
X112957350Y-41779201D01*
X112957345Y-41779205D01*
X112779205Y-41957345D01*
X112779201Y-41957350D01*
X112631132Y-42161151D01*
X112516760Y-42385616D01*
X112438910Y-42625214D01*
X112399500Y-42874038D01*
X106600000Y-42874038D01*
X106600000Y-40900000D01*
X93400000Y-40900000D01*
X93400000Y-46300000D01*
X72500500Y-46300000D01*
X72500500Y-41124234D01*
X76534500Y-41124234D01*
X76534500Y-41275765D01*
X76573719Y-41422136D01*
X76583404Y-41438910D01*
X76649485Y-41553365D01*
X76756635Y-41660515D01*
X76887865Y-41736281D01*
X77034234Y-41775500D01*
X77034236Y-41775500D01*
X77185764Y-41775500D01*
X77185766Y-41775500D01*
X77332135Y-41736281D01*
X77463365Y-41660515D01*
X77570515Y-41553365D01*
X77646281Y-41422135D01*
X77685500Y-41275766D01*
X77685500Y-41124234D01*
X82314500Y-41124234D01*
X82314500Y-41275765D01*
X82353719Y-41422136D01*
X82363404Y-41438910D01*
X82429485Y-41553365D01*
X82536635Y-41660515D01*
X82667865Y-41736281D01*
X82814234Y-41775500D01*
X82814236Y-41775500D01*
X82965764Y-41775500D01*
X82965766Y-41775500D01*
X83112135Y-41736281D01*
X83243365Y-41660515D01*
X83350515Y-41553365D01*
X83426281Y-41422135D01*
X83465500Y-41275766D01*
X83465500Y-41124234D01*
X83426281Y-40977865D01*
X83426279Y-40977861D01*
X83387469Y-40910640D01*
X83387468Y-40910639D01*
X83381325Y-40900000D01*
X83350515Y-40846635D01*
X83243365Y-40739485D01*
X83177750Y-40701602D01*
X83112136Y-40663719D01*
X83038950Y-40644109D01*
X82965766Y-40624500D01*
X82814234Y-40624500D01*
X82667863Y-40663719D01*
X82536635Y-40739485D01*
X82536632Y-40739487D01*
X82429487Y-40846632D01*
X82429485Y-40846635D01*
X82353719Y-40977863D01*
X82314500Y-41124234D01*
X77685500Y-41124234D01*
X77646281Y-40977865D01*
X77570515Y-40846635D01*
X77463365Y-40739485D01*
X77397750Y-40701602D01*
X77332136Y-40663719D01*
X77258950Y-40644109D01*
X77185766Y-40624500D01*
X77034234Y-40624500D01*
X76887863Y-40663719D01*
X76756635Y-40739485D01*
X76756632Y-40739487D01*
X76649487Y-40846632D01*
X76649485Y-40846635D01*
X76573719Y-40977863D01*
X76534500Y-41124234D01*
X72500500Y-41124234D01*
X72500500Y-33874038D01*
X74899500Y-33874038D01*
X74899500Y-34125961D01*
X74938910Y-34374785D01*
X75016760Y-34614383D01*
X75131132Y-34838848D01*
X75279201Y-35042649D01*
X75279205Y-35042654D01*
X75457345Y-35220794D01*
X75457350Y-35220798D01*
X75635117Y-35349952D01*
X75661155Y-35368870D01*
X75804184Y-35441747D01*
X75885616Y-35483239D01*
X75885618Y-35483239D01*
X75885621Y-35483241D01*
X76125215Y-35561090D01*
X76374038Y-35600500D01*
X76374039Y-35600500D01*
X76625961Y-35600500D01*
X76625962Y-35600500D01*
X76874785Y-35561090D01*
X77114379Y-35483241D01*
X77338845Y-35368870D01*
X77542656Y-35220793D01*
X77720793Y-35042656D01*
X77868870Y-34838845D01*
X77983241Y-34614379D01*
X78061090Y-34374785D01*
X78100500Y-34125962D01*
X78100500Y-33874038D01*
X78061090Y-33625215D01*
X77983241Y-33385621D01*
X77983239Y-33385618D01*
X77983239Y-33385616D01*
X77941747Y-33304184D01*
X77868870Y-33161155D01*
X77849952Y-33135117D01*
X77720798Y-32957350D01*
X77720794Y-32957345D01*
X77542654Y-32779205D01*
X77542649Y-32779201D01*
X77338848Y-32631132D01*
X77338847Y-32631131D01*
X77338845Y-32631130D01*
X77268747Y-32595413D01*
X77114383Y-32516760D01*
X76874785Y-32438910D01*
X76625962Y-32399500D01*
X76374038Y-32399500D01*
X76249626Y-32419205D01*
X76125214Y-32438910D01*
X75885616Y-32516760D01*
X75661151Y-32631132D01*
X75457350Y-32779201D01*
X75457345Y-32779205D01*
X75279205Y-32957345D01*
X75279201Y-32957350D01*
X75131132Y-33161151D01*
X75016760Y-33385616D01*
X74938910Y-33625214D01*
X74899500Y-33874038D01*
X72500500Y-33874038D01*
X72500500Y-24820943D01*
X89399500Y-24820943D01*
X89399500Y-24979056D01*
X89440423Y-25131783D01*
X89440426Y-25131790D01*
X89519475Y-25268709D01*
X89519479Y-25268714D01*
X89519480Y-25268716D01*
X89631284Y-25380520D01*
X89631286Y-25380521D01*
X89631290Y-25380524D01*
X89768209Y-25459573D01*
X89768216Y-25459577D01*
X89920943Y-25500500D01*
X89920945Y-25500500D01*
X90079055Y-25500500D01*
X90079057Y-25500500D01*
X90231784Y-25459577D01*
X90368716Y-25380520D01*
X90480520Y-25268716D01*
X90559577Y-25131784D01*
X90600500Y-24979057D01*
X90600500Y-24820943D01*
X90559577Y-24668216D01*
X90559573Y-24668209D01*
X90480524Y-24531290D01*
X90480518Y-24531282D01*
X90368717Y-24419481D01*
X90368709Y-24419475D01*
X90231790Y-24340426D01*
X90231786Y-24340424D01*
X90231784Y-24340423D01*
X90079057Y-24299500D01*
X89920943Y-24299500D01*
X89768216Y-24340423D01*
X89768209Y-24340426D01*
X89631290Y-24419475D01*
X89631282Y-24419481D01*
X89519481Y-24531282D01*
X89519475Y-24531290D01*
X89440426Y-24668209D01*
X89440423Y-24668216D01*
X89399500Y-24820943D01*
X72500500Y-24820943D01*
X72500500Y-23020943D01*
X89399500Y-23020943D01*
X89399500Y-23179056D01*
X89440423Y-23331783D01*
X89440426Y-23331790D01*
X89519475Y-23468709D01*
X89519479Y-23468714D01*
X89519480Y-23468716D01*
X89631284Y-23580520D01*
X89631286Y-23580521D01*
X89631290Y-23580524D01*
X89768209Y-23659573D01*
X89768216Y-23659577D01*
X89920943Y-23700500D01*
X89920945Y-23700500D01*
X90079055Y-23700500D01*
X90079057Y-23700500D01*
X90231784Y-23659577D01*
X90368716Y-23580520D01*
X90480520Y-23468716D01*
X90559577Y-23331784D01*
X90600500Y-23179057D01*
X90600500Y-23020943D01*
X90559577Y-22868216D01*
X90559573Y-22868209D01*
X90480524Y-22731290D01*
X90480518Y-22731282D01*
X90368717Y-22619481D01*
X90368709Y-22619475D01*
X90231790Y-22540426D01*
X90231786Y-22540424D01*
X90231784Y-22540423D01*
X90079057Y-22499500D01*
X89920943Y-22499500D01*
X89768216Y-22540423D01*
X89768209Y-22540426D01*
X89631290Y-22619475D01*
X89631282Y-22619481D01*
X89519481Y-22731282D01*
X89519475Y-22731290D01*
X89440426Y-22868209D01*
X89440423Y-22868216D01*
X89399500Y-23020943D01*
X72500500Y-23020943D01*
X72500500Y-19934110D01*
X72500500Y-19934108D01*
X72466392Y-19806814D01*
X72416613Y-19720594D01*
X72400000Y-19658594D01*
X72400000Y-19600000D01*
X72341406Y-19600000D01*
X72279406Y-19583387D01*
X72193188Y-19533609D01*
X72193187Y-19533608D01*
X72193186Y-19533608D01*
X72065892Y-19499500D01*
X72065891Y-19499500D01*
X624500Y-19499500D01*
X557461Y-19479815D01*
X511706Y-19427011D01*
X500500Y-19375500D01*
X500500Y-624500D01*
X520185Y-557461D01*
X572989Y-511706D01*
X624500Y-500500D01*
X186375500Y-500500D01*
X186442539Y-520185D01*
G37*
%TD.AperFunction*%
%TD*%
M02*
