M48
; DRILL file KiCad 10.0.5 date 2026-08-20T15:34:11
; FORMAT={-:-/ absolute / metric / decimal}
; #@! TF.CreationDate,2026-08-20T15:34:11+02:00
; #@! TF.GenerationSoftware,Kicad,Pcbnew,10.0.5
; #@! TF.FileFunction,Plated,1,2,PTH
FMAT,2
METRIC
; #@! TA.AperFunction,Plated,PTH,ViaDrill
T1C0.300
; #@! TA.AperFunction,Plated,PTH,ComponentDrill
T2C0.600
%
G90
G05
T1
X6.0Y-2.0
X11.0Y-2.0
X11.0Y-4.0
X11.0Y-6.0
X16.0Y-2.0
X16.0Y-4.0
X16.0Y-6.0
X19.447Y-15.1
X21.0Y-2.0
X21.0Y-4.0
X21.0Y-6.0
X26.0Y-2.0
X26.0Y-4.0
X26.0Y-6.0
X30.58Y-15.1
X31.0Y-2.0
X31.0Y-4.0
X31.0Y-6.0
X36.0Y-2.0
X36.0Y-4.0
X36.0Y-6.0
X41.0Y-2.0
X41.0Y-4.0
X41.0Y-6.0
X41.713Y-15.1
X46.0Y-2.0
X46.0Y-4.0
X46.0Y-6.0
X51.0Y-2.0
X51.0Y-4.0
X51.0Y-6.0
X52.847Y-15.1
X56.0Y-2.0
X56.0Y-4.0
X56.0Y-6.0
X61.0Y-2.0
X61.0Y-4.0
X61.0Y-6.0
X63.98Y-15.1
X66.0Y-2.0
X66.0Y-4.0
X66.0Y-6.0
X66.759Y-15.85
X67.155Y-24.55
X71.0Y-2.0
X71.0Y-4.0
X71.0Y-6.0
X73.862Y-32.85
X74.0Y-21.0
X74.0Y-24.0
X74.0Y-39.0
X74.0Y-43.0
X74.0Y-46.5
X74.2Y-38.6
X75.113Y-15.1
X75.51Y-35.4
X76.0Y-2.0
X76.0Y-4.0
X76.0Y-6.0
X76.25Y-24.5
X78.0Y-46.5
X78.923Y-40.977
X81.0Y-2.0
X81.0Y-4.0
X81.0Y-6.0
X81.458Y-31.258
X81.616Y-6.7
X82.0Y-27.0
X82.0Y-46.5
X82.2Y-24.22
X84.95Y-31.0
X85.763Y-42.0
X86.0Y-2.0
X86.0Y-4.0
X86.0Y-6.0
X86.247Y-15.1
X87.096Y-27.25
X87.699Y-45.302
X87.98Y-30.1
X88.473Y-41.892
X88.659Y-40.954
X89.51Y-45.6
X90.531Y-45.031
X90.538Y-42.727
X90.732Y-25.124
X90.96Y-27.366
X91.0Y-2.0
X91.0Y-4.0
X91.0Y-6.0
X92.369Y-29.526
X94.397Y-48.124
X94.403Y-43.18
X95.426Y-34.377
X96.0Y-2.0
X96.0Y-4.0
X96.0Y-6.0
X96.579Y-29.199
X97.274Y-46.939
X97.38Y-15.1
X98.0Y-39.0
X98.078Y-32.587
X98.132Y-33.633
X98.978Y-18.323
X99.582Y-46.21
X101.0Y-2.0
X101.0Y-4.0
X101.0Y-6.0
X102.0Y-39.0
X102.0Y-43.0
X102.322Y-32.932
X105.097Y-32.321
X105.493Y-33.543
X105.5Y-39.0
X106.0Y-2.0
X106.0Y-4.0
X106.0Y-6.0
X106.0Y-39.0
X106.0Y-43.0
X106.0Y-46.5
X107.543Y-35.418
X108.513Y-15.1
X110.406Y-31.513
X110.5Y-21.237
X111.0Y-2.0
X111.0Y-4.0
X111.0Y-6.0
X111.804Y-29.454
X114.0Y-35.0
X114.0Y-39.0
X115.95Y-23.0
X116.0Y-2.0
X116.0Y-4.0
X116.0Y-6.0
X116.0Y-27.9
X118.0Y-39.0
X119.647Y-15.1
X119.687Y-33.414
X119.73Y-35.041
X121.0Y-2.0
X121.0Y-4.0
X121.0Y-6.0
X126.0Y-2.0
X126.0Y-4.0
X126.0Y-6.0
X130.78Y-15.1
X131.0Y-2.0
X131.0Y-4.0
X131.0Y-6.0
X136.0Y-2.0
X136.0Y-4.0
X136.0Y-6.0
X141.0Y-2.0
X141.0Y-4.0
X141.0Y-6.0
X141.913Y-15.1
X146.0Y-2.0
X146.0Y-4.0
X146.0Y-6.0
X151.0Y-2.0
X151.0Y-4.0
X151.0Y-6.0
X153.047Y-15.1
X156.0Y-2.0
X156.0Y-4.0
X156.0Y-6.0
X161.0Y-2.0
X161.0Y-4.0
X161.0Y-6.0
X164.18Y-15.1
X166.0Y-2.0
X166.0Y-4.0
X166.0Y-6.0
X171.0Y-2.0
X171.0Y-4.0
X171.0Y-6.0
X175.313Y-15.1
X176.0Y-2.0
X176.0Y-4.0
X176.0Y-6.0
X181.0Y-2.0
T2
X93.68Y-45.32G85X93.68Y-46.42
G05
X93.68Y-49.75G85X93.68Y-50.35
G05
X102.32Y-45.32G85X102.32Y-46.42
G05
X102.32Y-49.75G85X102.32Y-50.35
G05
M30
