M48
; DRILL file KiCad 10.0.5 date 2026-08-20T14:32:25
; FORMAT={-:-/ absolute / metric / decimal}
; #@! TF.CreationDate,2026-08-20T14:32:25+02:00
; #@! TF.GenerationSoftware,Kicad,Pcbnew,10.0.5
; #@! TF.FileFunction,Plated,1,2,PTH
FMAT,2
METRIC
; #@! TA.AperFunction,Plated,PTH,ViaDrill
T1C0.300
; #@! TA.AperFunction,Plated,PTH,ComponentDrill
T2C0.600
%
G90
G05
T1
X13.88Y-15.1
X22.213Y-15.1
X30.547Y-15.1
X38.88Y-15.1
X47.213Y-15.1
X55.547Y-15.1
X63.88Y-15.1
X72.213Y-15.1
X76.0Y-29.5
X76.0Y-44.0
X80.547Y-15.1
X88.0Y-45.5
X88.88Y-15.1
X97.213Y-15.1
X105.547Y-15.1
X113.88Y-15.1
X117.0Y-22.0
X117.0Y-45.5
X122.213Y-15.1
X130.547Y-15.1
X138.88Y-15.1
X147.213Y-15.1
X155.547Y-15.1
X163.88Y-15.1
X172.213Y-15.1
T2
X75.68Y-40.12G85X75.68Y-41.22
G05
X75.68Y-44.55G85X75.68Y-45.15
G05
X84.32Y-40.12G85X84.32Y-41.22
G05
X84.32Y-44.55G85X84.32Y-45.15
G05
M30
