%TF.GenerationSoftware,KiCad,Pcbnew,10.0.5*%
%TF.CreationDate,2026-08-20T13:46:31+02:00*%
%TF.ProjectId,fl11,666c3131-2e6b-4696-9361-645f70636258,rev?*%
%TF.SameCoordinates,Original*%
%TF.FileFunction,AssemblyDrawing,Bot*%
%FSLAX46Y46*%
G04 Gerber Fmt 4.6, Leading zero omitted, Abs format (unit mm)*
G04 Created by KiCad (PCBNEW 10.0.5) date 2026-08-20 13:46:31*
%MOMM*%
%LPD*%
G01*
G04 APERTURE LIST*
%ADD10C,0.150000*%
%ADD11C,0.100000*%
G04 APERTURE END LIST*
D10*
X84214285Y-49554819D02*
X84214285Y-50364342D01*
X84214285Y-50364342D02*
X84166666Y-50459580D01*
X84166666Y-50459580D02*
X84119047Y-50507200D01*
X84119047Y-50507200D02*
X84023809Y-50554819D01*
X84023809Y-50554819D02*
X83833333Y-50554819D01*
X83833333Y-50554819D02*
X83738095Y-50507200D01*
X83738095Y-50507200D02*
X83690476Y-50459580D01*
X83690476Y-50459580D02*
X83642857Y-50364342D01*
X83642857Y-50364342D02*
X83642857Y-49554819D01*
X83214285Y-50507200D02*
X83071428Y-50554819D01*
X83071428Y-50554819D02*
X82833333Y-50554819D01*
X82833333Y-50554819D02*
X82738095Y-50507200D01*
X82738095Y-50507200D02*
X82690476Y-50459580D01*
X82690476Y-50459580D02*
X82642857Y-50364342D01*
X82642857Y-50364342D02*
X82642857Y-50269104D01*
X82642857Y-50269104D02*
X82690476Y-50173866D01*
X82690476Y-50173866D02*
X82738095Y-50126247D01*
X82738095Y-50126247D02*
X82833333Y-50078628D01*
X82833333Y-50078628D02*
X83023809Y-50031009D01*
X83023809Y-50031009D02*
X83119047Y-49983390D01*
X83119047Y-49983390D02*
X83166666Y-49935771D01*
X83166666Y-49935771D02*
X83214285Y-49840533D01*
X83214285Y-49840533D02*
X83214285Y-49745295D01*
X83214285Y-49745295D02*
X83166666Y-49650057D01*
X83166666Y-49650057D02*
X83119047Y-49602438D01*
X83119047Y-49602438D02*
X83023809Y-49554819D01*
X83023809Y-49554819D02*
X82785714Y-49554819D01*
X82785714Y-49554819D02*
X82642857Y-49602438D01*
X81880952Y-50031009D02*
X81738095Y-50078628D01*
X81738095Y-50078628D02*
X81690476Y-50126247D01*
X81690476Y-50126247D02*
X81642857Y-50221485D01*
X81642857Y-50221485D02*
X81642857Y-50364342D01*
X81642857Y-50364342D02*
X81690476Y-50459580D01*
X81690476Y-50459580D02*
X81738095Y-50507200D01*
X81738095Y-50507200D02*
X81833333Y-50554819D01*
X81833333Y-50554819D02*
X82214285Y-50554819D01*
X82214285Y-50554819D02*
X82214285Y-49554819D01*
X82214285Y-49554819D02*
X81880952Y-49554819D01*
X81880952Y-49554819D02*
X81785714Y-49602438D01*
X81785714Y-49602438D02*
X81738095Y-49650057D01*
X81738095Y-49650057D02*
X81690476Y-49745295D01*
X81690476Y-49745295D02*
X81690476Y-49840533D01*
X81690476Y-49840533D02*
X81738095Y-49935771D01*
X81738095Y-49935771D02*
X81785714Y-49983390D01*
X81785714Y-49983390D02*
X81880952Y-50031009D01*
X81880952Y-50031009D02*
X82214285Y-50031009D01*
X81214285Y-50173866D02*
X80452381Y-50173866D01*
X79404762Y-50459580D02*
X79452381Y-50507200D01*
X79452381Y-50507200D02*
X79595238Y-50554819D01*
X79595238Y-50554819D02*
X79690476Y-50554819D01*
X79690476Y-50554819D02*
X79833333Y-50507200D01*
X79833333Y-50507200D02*
X79928571Y-50411961D01*
X79928571Y-50411961D02*
X79976190Y-50316723D01*
X79976190Y-50316723D02*
X80023809Y-50126247D01*
X80023809Y-50126247D02*
X80023809Y-49983390D01*
X80023809Y-49983390D02*
X79976190Y-49792914D01*
X79976190Y-49792914D02*
X79928571Y-49697676D01*
X79928571Y-49697676D02*
X79833333Y-49602438D01*
X79833333Y-49602438D02*
X79690476Y-49554819D01*
X79690476Y-49554819D02*
X79595238Y-49554819D01*
X79595238Y-49554819D02*
X79452381Y-49602438D01*
X79452381Y-49602438D02*
X79404762Y-49650057D01*
X77690476Y-50554819D02*
X78261904Y-50554819D01*
X77976190Y-50554819D02*
X77976190Y-49554819D01*
X77976190Y-49554819D02*
X78071428Y-49697676D01*
X78071428Y-49697676D02*
X78166666Y-49792914D01*
X78166666Y-49792914D02*
X78261904Y-49840533D01*
X76833333Y-49554819D02*
X77023809Y-49554819D01*
X77023809Y-49554819D02*
X77119047Y-49602438D01*
X77119047Y-49602438D02*
X77166666Y-49650057D01*
X77166666Y-49650057D02*
X77261904Y-49792914D01*
X77261904Y-49792914D02*
X77309523Y-49983390D01*
X77309523Y-49983390D02*
X77309523Y-50364342D01*
X77309523Y-50364342D02*
X77261904Y-50459580D01*
X77261904Y-50459580D02*
X77214285Y-50507200D01*
X77214285Y-50507200D02*
X77119047Y-50554819D01*
X77119047Y-50554819D02*
X76928571Y-50554819D01*
X76928571Y-50554819D02*
X76833333Y-50507200D01*
X76833333Y-50507200D02*
X76785714Y-50459580D01*
X76785714Y-50459580D02*
X76738095Y-50364342D01*
X76738095Y-50364342D02*
X76738095Y-50126247D01*
X76738095Y-50126247D02*
X76785714Y-50031009D01*
X76785714Y-50031009D02*
X76833333Y-49983390D01*
X76833333Y-49983390D02*
X76928571Y-49935771D01*
X76928571Y-49935771D02*
X77119047Y-49935771D01*
X77119047Y-49935771D02*
X77214285Y-49983390D01*
X77214285Y-49983390D02*
X77261904Y-50031009D01*
X77261904Y-50031009D02*
X77309523Y-50126247D01*
X76309523Y-50554819D02*
X76309523Y-49554819D01*
X76309523Y-49554819D02*
X75928571Y-49554819D01*
X75928571Y-49554819D02*
X75833333Y-49602438D01*
X75833333Y-49602438D02*
X75785714Y-49650057D01*
X75785714Y-49650057D02*
X75738095Y-49745295D01*
X75738095Y-49745295D02*
X75738095Y-49888152D01*
X75738095Y-49888152D02*
X75785714Y-49983390D01*
X75785714Y-49983390D02*
X75833333Y-50031009D01*
X75833333Y-50031009D02*
X75928571Y-50078628D01*
X75928571Y-50078628D02*
X76309523Y-50078628D01*
X80333333Y-44454819D02*
X80333333Y-45169104D01*
X80333333Y-45169104D02*
X80380952Y-45311961D01*
X80380952Y-45311961D02*
X80476190Y-45407200D01*
X80476190Y-45407200D02*
X80619047Y-45454819D01*
X80619047Y-45454819D02*
X80714285Y-45454819D01*
X79333333Y-45454819D02*
X79904761Y-45454819D01*
X79619047Y-45454819D02*
X79619047Y-44454819D01*
X79619047Y-44454819D02*
X79714285Y-44597676D01*
X79714285Y-44597676D02*
X79809523Y-44692914D01*
X79809523Y-44692914D02*
X79904761Y-44740533D01*
%TO.C,J1*%
D11*
X75530000Y-41350000D02*
X75530000Y-48650000D01*
X84470000Y-41350000D02*
X75530000Y-41350000D01*
X84470000Y-41350000D02*
X84470000Y-48650000D01*
X84470000Y-48650000D02*
X75530000Y-48650000D01*
%TD*%
M02*
