%TF.GenerationSoftware,KiCad,Pcbnew,10.0.5*%
%TF.CreationDate,2026-08-20T14:57:32+02:00*%
%TF.ProjectId,fl11,666c3131-2e6b-4696-9361-645f70636258,rev?*%
%TF.SameCoordinates,Original*%
%TF.FileFunction,Copper,L2,Bot*%
%TF.FilePolarity,Positive*%
%FSLAX46Y46*%
G04 Gerber Fmt 4.6, Leading zero omitted, Abs format (unit mm)*
G04 Created by KiCad (PCBNEW 10.0.5) date 2026-08-20 14:57:32*
%MOMM*%
%LPD*%
G01*
G04 APERTURE LIST*
%TA.AperFunction,ComponentPad*%
%ADD10O,1.000000X2.100000*%
%TD*%
%TA.AperFunction,ComponentPad*%
%ADD11O,1.000000X1.600000*%
%TD*%
%TA.AperFunction,ViaPad*%
%ADD12C,0.600000*%
%TD*%
%TA.AperFunction,Conductor*%
%ADD13C,0.200000*%
%TD*%
G04 APERTURE END LIST*
D10*
%TO.P,J1,SH*%
%TO.N,GND*%
X75680000Y-40670000D03*
D11*
X75680000Y-44850000D03*
D10*
X84320000Y-40670000D03*
D11*
X84320000Y-44850000D03*
%TD*%
D12*
%TO.N,UART_RX*%
X107387000Y-39422800D03*
X96598100Y-36251500D03*
%TO.N,GND*%
X21000000Y-4000000D03*
X46000000Y-6000000D03*
X131000000Y-6000000D03*
X146000000Y-4000000D03*
X46000000Y-4000000D03*
X171000000Y-2000000D03*
X66000000Y-6000000D03*
X141000000Y-6000000D03*
X82000000Y-46500000D03*
X61000000Y-6000000D03*
X46000000Y-2000000D03*
X41000000Y-4000000D03*
X106000000Y-4000000D03*
X91010000Y-45500000D03*
X61000000Y-2000000D03*
X111000000Y-6000000D03*
X136000000Y-6000000D03*
X16000000Y-6000000D03*
X96000000Y-6000000D03*
X126000000Y-6000000D03*
X131000000Y-2000000D03*
X21000000Y-6000000D03*
X74000000Y-43000000D03*
X102947000Y-15100000D03*
X101000000Y-4000000D03*
X51000000Y-6000000D03*
X146000000Y-6000000D03*
X88200000Y-24720000D03*
X86000000Y-24000000D03*
X71000000Y-4000000D03*
X122500000Y-44500000D03*
X81000000Y-6000000D03*
X74000000Y-46500000D03*
X88010000Y-45500000D03*
X72701800Y-6988100D03*
X161000000Y-2000000D03*
X36000000Y-2000000D03*
X118000000Y-21000000D03*
X36146700Y-15100000D03*
X106000000Y-2000000D03*
X80680000Y-15100000D03*
X76000000Y-2000000D03*
X118000000Y-46500000D03*
X76000000Y-44000000D03*
X78000000Y-21000000D03*
X81000000Y-4000000D03*
X78000000Y-43000000D03*
X6000000Y-6000000D03*
X58413300Y-15100000D03*
X86000000Y-46500000D03*
X11000000Y-6000000D03*
X176000000Y-4000000D03*
X82000000Y-27000000D03*
X96000000Y-4000000D03*
X87362500Y-29650000D03*
X86000000Y-31000000D03*
X36000000Y-4000000D03*
X116350000Y-30500000D03*
X61000000Y-4000000D03*
X110950000Y-30500000D03*
X156000000Y-6000000D03*
X156000000Y-4000000D03*
X11000000Y-2000000D03*
X31000000Y-6000000D03*
X111000000Y-4000000D03*
X16000000Y-4000000D03*
X181000000Y-6000000D03*
X181000000Y-4000000D03*
X76000000Y-6000000D03*
X136347000Y-15100000D03*
X171000000Y-4000000D03*
X87362500Y-32450000D03*
X41000000Y-2000000D03*
X56000000Y-6000000D03*
X158613000Y-15100000D03*
X126000000Y-4000000D03*
X25013300Y-15100000D03*
X36000000Y-6000000D03*
X118000000Y-43000000D03*
X76000000Y-29500000D03*
X166000000Y-2000000D03*
X136000000Y-2000000D03*
X125213000Y-15100000D03*
X116000000Y-2000000D03*
X6000000Y-4000000D03*
X90000000Y-21000000D03*
X161000000Y-4000000D03*
X156000000Y-2000000D03*
X41000000Y-6000000D03*
X82000000Y-35000000D03*
X31000000Y-4000000D03*
X6000000Y-2000000D03*
X151000000Y-4000000D03*
X114080000Y-15100000D03*
X141000000Y-4000000D03*
X126000000Y-2000000D03*
X86000000Y-4000000D03*
X86000000Y-35000000D03*
X121000000Y-4000000D03*
X117000000Y-22000000D03*
X176000000Y-2000000D03*
X13880000Y-15100000D03*
X112500000Y-46100000D03*
X96000000Y-2000000D03*
X66000000Y-2000000D03*
X26000000Y-4000000D03*
X81000000Y-2000000D03*
X83250000Y-25000000D03*
X56000000Y-2000000D03*
X141000000Y-2000000D03*
X161000000Y-6000000D03*
X131000000Y-4000000D03*
X171000000Y-6000000D03*
X51000000Y-4000000D03*
X116000000Y-6000000D03*
X26000000Y-2000000D03*
X88062500Y-41500000D03*
X91813300Y-15100000D03*
X166000000Y-6000000D03*
X101000000Y-6000000D03*
X169747000Y-15100000D03*
X26000000Y-6000000D03*
X91000000Y-2000000D03*
X111000000Y-2000000D03*
X69546600Y-15100000D03*
X76000000Y-4000000D03*
X146000000Y-2000000D03*
X181000000Y-2000000D03*
X151000000Y-6000000D03*
X91000000Y-4000000D03*
X110510000Y-20500000D03*
X117000000Y-45500000D03*
X166000000Y-4000000D03*
X71000000Y-6000000D03*
X116000000Y-4000000D03*
X86000000Y-27000000D03*
X86000000Y-6000000D03*
X151000000Y-2000000D03*
X106000000Y-6000000D03*
X147480000Y-15100000D03*
X21000000Y-2000000D03*
X47280000Y-15100000D03*
X31000000Y-2000000D03*
X86000000Y-2000000D03*
X16000000Y-2000000D03*
X136000000Y-4000000D03*
X78000000Y-31000000D03*
X176000000Y-6000000D03*
X121000000Y-6000000D03*
X88000000Y-45500000D03*
X86000000Y-21000000D03*
X82000000Y-21000000D03*
X91000000Y-6000000D03*
X11000000Y-4000000D03*
X51000000Y-2000000D03*
X114000000Y-46500000D03*
X121000000Y-2000000D03*
X74000000Y-39000000D03*
X101000000Y-2000000D03*
X71000000Y-2000000D03*
X82000000Y-24000000D03*
X103410000Y-27900000D03*
X117600000Y-36000000D03*
X66000000Y-4000000D03*
X56000000Y-4000000D03*
X78000000Y-46500000D03*
%TO.N,LED_5V*%
X78000000Y-24000000D03*
%TO.N,+3V3*%
X113833000Y-32202700D03*
X111331300Y-38176400D03*
X111000000Y-46427300D03*
X113458200Y-23590800D03*
%TO.N,BOOT_N*%
X108034300Y-35061600D03*
X95794000Y-32505800D03*
%TO.N,USB_DM_CONN*%
X85354400Y-41217900D03*
X79025200Y-38487700D03*
%TO.N,USB_DP_CONN*%
X86686500Y-41751800D03*
X80514000Y-38453300D03*
%TO.N,VBUS_RAW*%
X82501400Y-38327200D03*
X89591300Y-38659500D03*
X76754200Y-38327200D03*
X93351900Y-23138000D03*
%TO.N,STRAP2*%
X110481400Y-37291800D03*
X111331300Y-34392500D03*
%TO.N,EN*%
X96473800Y-18329300D03*
X97242800Y-23999900D03*
X104651300Y-31342500D03*
%TO.N,LED_DATA_3V3*%
X93412700Y-29166000D03*
X96156100Y-28919500D03*
%TO.N,STRAP8*%
X96473800Y-35341100D03*
X113169800Y-36079600D03*
%TO.N,UART_TX*%
X111266600Y-40880400D03*
X96473800Y-38176400D03*
%TO.N,+5V*%
X112184000Y-26083800D03*
X108359800Y-23628100D03*
X105388300Y-29076400D03*
X114601000Y-31587200D03*
%TO.N,VBUS_F*%
X97242800Y-22901500D03*
X115531800Y-21959300D03*
%TO.N,CC1*%
X80840300Y-41263400D03*
X85438500Y-43514700D03*
%TD*%
%TO.N,UART_RX*%
D13*
X107387000Y-39422800D02*
X99769400Y-39422800D01*
X99769400Y-39422800D02*
X96598100Y-36251500D01*
%TO.N,+3V3*%
X113144900Y-35189100D02*
X113795400Y-35839700D01*
X113144800Y-34655700D02*
X113144800Y-35189100D01*
X113458200Y-23590800D02*
X113458200Y-31827900D01*
X113458200Y-31827900D02*
X113833000Y-32202700D01*
X111331300Y-37002700D02*
X111331300Y-38176400D01*
X112099800Y-39402800D02*
X112099800Y-41480600D01*
X111000000Y-42580400D02*
X111000000Y-46427300D01*
X112099800Y-41480600D02*
X111000000Y-42580400D01*
X113144800Y-35189100D02*
X113144900Y-35189100D01*
X113833000Y-33967500D02*
X113144800Y-34655700D01*
X113795400Y-35839700D02*
X113795400Y-37707200D01*
X113144900Y-35189100D02*
X111331300Y-37002700D01*
X113795400Y-37707200D02*
X112099800Y-39402800D01*
X113833000Y-32202700D02*
X113833000Y-33967500D01*
%TO.N,BOOT_N*%
X108034300Y-35061600D02*
X105478500Y-32505800D01*
X105478500Y-32505800D02*
X95794000Y-32505800D01*
%TO.N,USB_DM_CONN*%
X85354400Y-41217900D02*
X85354400Y-41344400D01*
X84621500Y-42077300D02*
X82484800Y-42077300D01*
X82484800Y-42077300D02*
X82012100Y-41604600D01*
X82012100Y-41604600D02*
X82012100Y-41474600D01*
X85354400Y-41344400D02*
X84621500Y-42077300D01*
X82012100Y-41474600D02*
X79025200Y-38487700D01*
%TO.N,USB_DP_CONN*%
X86686500Y-41751800D02*
X86686500Y-41340900D01*
X86686500Y-41340900D02*
X84434000Y-39088400D01*
X84434000Y-39088400D02*
X81149100Y-39088400D01*
X81149100Y-39088400D02*
X80514000Y-38453300D01*
%TO.N,VBUS_RAW*%
X89259000Y-27230900D02*
X89259000Y-38327200D01*
X77235700Y-37845700D02*
X82019900Y-37845700D01*
X89259000Y-38327200D02*
X89591300Y-38659500D01*
X82019900Y-37845700D02*
X82501400Y-38327200D01*
X82501400Y-38327200D02*
X89259000Y-38327200D01*
X76754200Y-38327200D02*
X77235700Y-37845700D01*
X93351900Y-23138000D02*
X89259000Y-27230900D01*
%TO.N,STRAP2*%
X110481400Y-37291800D02*
X110481400Y-35242400D01*
X110481400Y-35242400D02*
X111331300Y-34392500D01*
%TO.N,EN*%
X104651300Y-31342500D02*
X97308700Y-23999900D01*
X97308700Y-23999900D02*
X97242800Y-23999900D01*
X97242800Y-23999900D02*
X96473800Y-23230900D01*
X96473800Y-23230900D02*
X96473800Y-18329300D01*
%TO.N,LED_DATA_3V3*%
X93412700Y-29166000D02*
X93659200Y-28919500D01*
X93659200Y-28919500D02*
X96156100Y-28919500D01*
%TO.N,STRAP8*%
X113169800Y-37202800D02*
X113169800Y-36079600D01*
X111580100Y-38792500D02*
X113169800Y-37202800D01*
X110633900Y-38792500D02*
X111580100Y-38792500D01*
X96473800Y-35341100D02*
X107182500Y-35341100D01*
X107182500Y-35341100D02*
X110633900Y-38792500D01*
%TO.N,UART_TX*%
X110822700Y-40436500D02*
X111266600Y-40880400D01*
X98733900Y-40436500D02*
X110822700Y-40436500D01*
X96473800Y-38176400D02*
X98733900Y-40436500D01*
%TO.N,+5V*%
X108359800Y-26083800D02*
X108359800Y-26104900D01*
X112184000Y-23911500D02*
X113136100Y-22959400D01*
X112184000Y-26083800D02*
X108359800Y-26083800D01*
X108359800Y-26104900D02*
X105388300Y-29076400D01*
X114601000Y-23860600D02*
X114601000Y-31587200D01*
X113136100Y-22959400D02*
X113699800Y-22959400D01*
X112184000Y-26083800D02*
X112184000Y-23911500D01*
X108359800Y-23628100D02*
X108359800Y-26083800D01*
X113699800Y-22959400D02*
X114601000Y-23860600D01*
%TO.N,VBUS_F*%
X98185000Y-21959300D02*
X115531800Y-21959300D01*
X97242800Y-22901500D02*
X98185000Y-21959300D01*
%TO.N,CC1*%
X84796600Y-42481100D02*
X85438500Y-43123000D01*
X82058000Y-42481100D02*
X84796600Y-42481100D01*
X85438500Y-43123000D02*
X85438500Y-43514700D01*
X80840300Y-41263400D02*
X82058000Y-42481100D01*
%TD*%
%TA.AperFunction,Conductor*%
%TO.N,GND*%
G36*
X80335907Y-38975499D02*
G01*
X80441525Y-39003800D01*
X80517456Y-39003800D01*
X80584495Y-39023485D01*
X80605137Y-39040119D01*
X80933888Y-39368870D01*
X81013812Y-39415014D01*
X81102956Y-39438900D01*
X84237456Y-39438900D01*
X84304495Y-39458585D01*
X84325137Y-39475219D01*
X85315705Y-40465787D01*
X85349190Y-40527110D01*
X85344206Y-40596802D01*
X85302334Y-40652735D01*
X85260119Y-40673243D01*
X85141910Y-40704917D01*
X85016388Y-40777388D01*
X85016382Y-40777393D01*
X84913893Y-40879882D01*
X84913888Y-40879888D01*
X84841417Y-41005411D01*
X84841416Y-41005415D01*
X84803900Y-41145425D01*
X84803900Y-41290375D01*
X84808372Y-41307064D01*
X84806709Y-41376914D01*
X84776278Y-41426838D01*
X84512635Y-41690482D01*
X84451315Y-41723966D01*
X84424956Y-41726800D01*
X83465157Y-41726800D01*
X83398118Y-41707115D01*
X83352363Y-41654311D01*
X83342419Y-41585153D01*
X83357770Y-41540800D01*
X83420538Y-41432082D01*
X83426281Y-41422135D01*
X83465500Y-41275766D01*
X83465500Y-41124234D01*
X83426281Y-40977865D01*
X83350515Y-40846635D01*
X83243365Y-40739485D01*
X83175848Y-40700504D01*
X83112136Y-40663719D01*
X83013492Y-40637288D01*
X82965766Y-40624500D01*
X82814234Y-40624500D01*
X82667863Y-40663719D01*
X82536635Y-40739485D01*
X82536632Y-40739487D01*
X82429487Y-40846632D01*
X82429485Y-40846635D01*
X82353719Y-40977863D01*
X82336892Y-41040666D01*
X82300527Y-41100327D01*
X82237680Y-41130856D01*
X82168305Y-41122561D01*
X82129436Y-41096254D01*
X80216138Y-39182956D01*
X80182653Y-39121633D01*
X80187637Y-39051941D01*
X80229509Y-38996008D01*
X80294973Y-38971591D01*
X80335907Y-38975499D01*
G37*
%TD.AperFunction*%
%TA.AperFunction,Conductor*%
G36*
X186442539Y-520185D02*
G01*
X186488294Y-572989D01*
X186499500Y-624500D01*
X186499500Y-19375500D01*
X186479815Y-19442539D01*
X186427011Y-19488294D01*
X186375500Y-19499500D01*
X120065892Y-19499500D01*
X119934108Y-19499500D01*
X119806814Y-19533608D01*
X119806813Y-19533608D01*
X119806811Y-19533609D01*
X119806810Y-19533609D01*
X119720594Y-19583387D01*
X119658594Y-19600000D01*
X119600000Y-19600000D01*
X119600000Y-19658594D01*
X119583387Y-19720594D01*
X119533609Y-19806810D01*
X119533609Y-19806811D01*
X119499500Y-19934108D01*
X119499500Y-21813624D01*
X119479815Y-21880663D01*
X119427011Y-21926418D01*
X119407601Y-21933397D01*
X119406814Y-21933607D01*
X119292686Y-21999500D01*
X119292683Y-21999502D01*
X119199502Y-22092683D01*
X119199500Y-22092686D01*
X119133608Y-22206812D01*
X119109358Y-22297317D01*
X119099500Y-22334108D01*
X119099500Y-27284108D01*
X119099500Y-27415892D01*
X119116554Y-27479539D01*
X119133608Y-27543187D01*
X119166554Y-27600250D01*
X119199500Y-27657314D01*
X119292686Y-27750500D01*
X119406814Y-27816392D01*
X119508095Y-27843529D01*
X119567753Y-27879892D01*
X119598283Y-27942739D01*
X119600000Y-27963303D01*
X119600000Y-28036696D01*
X119580315Y-28103735D01*
X119527511Y-28149490D01*
X119508097Y-28156469D01*
X119466853Y-28167520D01*
X119406812Y-28183608D01*
X119292686Y-28249500D01*
X119292683Y-28249502D01*
X119199502Y-28342683D01*
X119199500Y-28342686D01*
X119133608Y-28456812D01*
X119099500Y-28584108D01*
X119099500Y-45415891D01*
X119133608Y-45543187D01*
X119166554Y-45600250D01*
X119199500Y-45657314D01*
X119292686Y-45750500D01*
X119406814Y-45816392D01*
X119508095Y-45843529D01*
X119567753Y-45879892D01*
X119598283Y-45942739D01*
X119600000Y-45963303D01*
X119600000Y-46036696D01*
X119580315Y-46103735D01*
X119527511Y-46149490D01*
X119508097Y-46156469D01*
X119466853Y-46167520D01*
X119406812Y-46183608D01*
X119292686Y-46249500D01*
X119292683Y-46249502D01*
X119199502Y-46342683D01*
X119199500Y-46342686D01*
X119133608Y-46456812D01*
X119099500Y-46584108D01*
X119099500Y-47375500D01*
X119079815Y-47442539D01*
X119027011Y-47488294D01*
X118975500Y-47499500D01*
X72624500Y-47499500D01*
X72557461Y-47479815D01*
X72511706Y-47427011D01*
X72500500Y-47375500D01*
X72500500Y-41124234D01*
X76534500Y-41124234D01*
X76534500Y-41275766D01*
X76547364Y-41323776D01*
X76573719Y-41422136D01*
X76595244Y-41459418D01*
X76649485Y-41553365D01*
X76756635Y-41660515D01*
X76887865Y-41736281D01*
X77034234Y-41775500D01*
X77034236Y-41775500D01*
X77185764Y-41775500D01*
X77185766Y-41775500D01*
X77332135Y-41736281D01*
X77463365Y-41660515D01*
X77570515Y-41553365D01*
X77646281Y-41422135D01*
X77685500Y-41275766D01*
X77685500Y-41124234D01*
X77646281Y-40977865D01*
X77570515Y-40846635D01*
X77463365Y-40739485D01*
X77395848Y-40700504D01*
X77332136Y-40663719D01*
X77233492Y-40637288D01*
X77185766Y-40624500D01*
X77034234Y-40624500D01*
X76887863Y-40663719D01*
X76756635Y-40739485D01*
X76756632Y-40739487D01*
X76649487Y-40846632D01*
X76649485Y-40846635D01*
X76573719Y-40977863D01*
X76542900Y-41092885D01*
X76534500Y-41124234D01*
X72500500Y-41124234D01*
X72500500Y-38254725D01*
X76203700Y-38254725D01*
X76203700Y-38399675D01*
X76237488Y-38525772D01*
X76241217Y-38539688D01*
X76313688Y-38665211D01*
X76313690Y-38665213D01*
X76313691Y-38665215D01*
X76416185Y-38767709D01*
X76416186Y-38767710D01*
X76416188Y-38767711D01*
X76541711Y-38840182D01*
X76541712Y-38840182D01*
X76541715Y-38840184D01*
X76681725Y-38877700D01*
X76681728Y-38877700D01*
X76826672Y-38877700D01*
X76826675Y-38877700D01*
X76966685Y-38840184D01*
X77092215Y-38767709D01*
X77194709Y-38665215D01*
X77267184Y-38539685D01*
X77304700Y-38399675D01*
X77304700Y-38323744D01*
X77324385Y-38256705D01*
X77341019Y-38236063D01*
X77344563Y-38232519D01*
X77405886Y-38199034D01*
X77432244Y-38196200D01*
X78371788Y-38196200D01*
X78438827Y-38215885D01*
X78484582Y-38268689D01*
X78494526Y-38337847D01*
X78491564Y-38352286D01*
X78474700Y-38415225D01*
X78474700Y-38560175D01*
X78509322Y-38689384D01*
X78512217Y-38700188D01*
X78584688Y-38825711D01*
X78584690Y-38825713D01*
X78584691Y-38825715D01*
X78687185Y-38928209D01*
X78687186Y-38928210D01*
X78687188Y-38928211D01*
X78812711Y-39000682D01*
X78812712Y-39000682D01*
X78812715Y-39000684D01*
X78952725Y-39038200D01*
X79028656Y-39038200D01*
X79095695Y-39057885D01*
X79116337Y-39074519D01*
X80617783Y-40575965D01*
X80651268Y-40637288D01*
X80646284Y-40706980D01*
X80604412Y-40762913D01*
X80592104Y-40771032D01*
X80502288Y-40822889D01*
X80502282Y-40822893D01*
X80399793Y-40925382D01*
X80399788Y-40925388D01*
X80327317Y-41050911D01*
X80327316Y-41050915D01*
X80289800Y-41190925D01*
X80289800Y-41335875D01*
X80318136Y-41441625D01*
X80327317Y-41475888D01*
X80399788Y-41601411D01*
X80399790Y-41601413D01*
X80399791Y-41601415D01*
X80502285Y-41703909D01*
X80502286Y-41703910D01*
X80502288Y-41703911D01*
X80627811Y-41776382D01*
X80627812Y-41776382D01*
X80627815Y-41776384D01*
X80767825Y-41813900D01*
X80843756Y-41813900D01*
X80910795Y-41833585D01*
X80931437Y-41850219D01*
X81842788Y-42761570D01*
X81842789Y-42761571D01*
X81842791Y-42761572D01*
X81882750Y-42784642D01*
X81922712Y-42807714D01*
X82011856Y-42831600D01*
X84600056Y-42831600D01*
X84667095Y-42851285D01*
X84687737Y-42867919D01*
X84930165Y-43110347D01*
X84963650Y-43171670D01*
X84958666Y-43241362D01*
X84949873Y-43260025D01*
X84925517Y-43302212D01*
X84925516Y-43302213D01*
X84906758Y-43372220D01*
X84888000Y-43442225D01*
X84888000Y-43587175D01*
X84925516Y-43727185D01*
X84925517Y-43727188D01*
X84997988Y-43852711D01*
X84997990Y-43852713D01*
X84997991Y-43852715D01*
X85100485Y-43955209D01*
X85100486Y-43955210D01*
X85100488Y-43955211D01*
X85226011Y-44027682D01*
X85226012Y-44027682D01*
X85226015Y-44027684D01*
X85366025Y-44065200D01*
X85366028Y-44065200D01*
X85510972Y-44065200D01*
X85510975Y-44065200D01*
X85650985Y-44027684D01*
X85776515Y-43955209D01*
X85879009Y-43852715D01*
X85951484Y-43727185D01*
X85989000Y-43587175D01*
X85989000Y-43442225D01*
X85951484Y-43302215D01*
X85916350Y-43241362D01*
X85879011Y-43176688D01*
X85879006Y-43176682D01*
X85816088Y-43113764D01*
X85783995Y-43058178D01*
X85765114Y-42987712D01*
X85751540Y-42964201D01*
X85751540Y-42964200D01*
X85718974Y-42907794D01*
X85718968Y-42907786D01*
X85090513Y-42279330D01*
X85057028Y-42218007D01*
X85062012Y-42148315D01*
X85090513Y-42103968D01*
X85104670Y-42089811D01*
X85402299Y-41792182D01*
X85457882Y-41760091D01*
X85566885Y-41730884D01*
X85692415Y-41658409D01*
X85794909Y-41555915D01*
X85867384Y-41430385D01*
X85899057Y-41312177D01*
X85935421Y-41252521D01*
X85998268Y-41221992D01*
X86067644Y-41230287D01*
X86106512Y-41256594D01*
X86185193Y-41335275D01*
X86218678Y-41396598D01*
X86213694Y-41466290D01*
X86204900Y-41484955D01*
X86173517Y-41539312D01*
X86173516Y-41539314D01*
X86173516Y-41539315D01*
X86136000Y-41679325D01*
X86136000Y-41824275D01*
X86171658Y-41957350D01*
X86173517Y-41964288D01*
X86245988Y-42089811D01*
X86245990Y-42089813D01*
X86245991Y-42089815D01*
X86348485Y-42192309D01*
X86348486Y-42192310D01*
X86348488Y-42192311D01*
X86474011Y-42264782D01*
X86474012Y-42264782D01*
X86474015Y-42264784D01*
X86614025Y-42302300D01*
X86614028Y-42302300D01*
X86758972Y-42302300D01*
X86758975Y-42302300D01*
X86898985Y-42264784D01*
X87024515Y-42192309D01*
X87127009Y-42089815D01*
X87199484Y-41964285D01*
X87237000Y-41824275D01*
X87237000Y-41679325D01*
X87199484Y-41539315D01*
X87186461Y-41516759D01*
X87127011Y-41413788D01*
X87127006Y-41413782D01*
X87071116Y-41357892D01*
X87039022Y-41302304D01*
X87035825Y-41290374D01*
X87013114Y-41205612D01*
X86993567Y-41171756D01*
X86993567Y-41171755D01*
X86966972Y-41125691D01*
X86966968Y-41125686D01*
X86741282Y-40900000D01*
X93400000Y-40900000D01*
X93400000Y-46300000D01*
X106600000Y-46300000D01*
X106600000Y-40911000D01*
X106619685Y-40843961D01*
X106672489Y-40798206D01*
X106724000Y-40787000D01*
X110592100Y-40787000D01*
X110659139Y-40806685D01*
X110704894Y-40859489D01*
X110716100Y-40911000D01*
X110716100Y-40952875D01*
X110739624Y-41040666D01*
X110753617Y-41092888D01*
X110826088Y-41218411D01*
X110826090Y-41218413D01*
X110826091Y-41218415D01*
X110928585Y-41320909D01*
X110928586Y-41320910D01*
X110928588Y-41320911D01*
X111054111Y-41393382D01*
X111054112Y-41393382D01*
X111054115Y-41393384D01*
X111194125Y-41430900D01*
X111194128Y-41430900D01*
X111339069Y-41430900D01*
X111339075Y-41430900D01*
X111339080Y-41430898D01*
X111339365Y-41430861D01*
X111339615Y-41430900D01*
X111347202Y-41430900D01*
X111347202Y-41432082D01*
X111408401Y-41441625D01*
X111460658Y-41488003D01*
X111479546Y-41555271D01*
X111459068Y-41622072D01*
X111443236Y-41641481D01*
X110719531Y-42365186D01*
X110719527Y-42365191D01*
X110697172Y-42403913D01*
X110697172Y-42403914D01*
X110673386Y-42445110D01*
X110649500Y-42534256D01*
X110649500Y-45947914D01*
X110629815Y-46014953D01*
X110613181Y-46035595D01*
X110559493Y-46089282D01*
X110559488Y-46089288D01*
X110487017Y-46214811D01*
X110487016Y-46214815D01*
X110449500Y-46354825D01*
X110449500Y-46499775D01*
X110487016Y-46639785D01*
X110487017Y-46639788D01*
X110559488Y-46765311D01*
X110559490Y-46765313D01*
X110559491Y-46765315D01*
X110661985Y-46867809D01*
X110661986Y-46867810D01*
X110661988Y-46867811D01*
X110787511Y-46940282D01*
X110787512Y-46940282D01*
X110787515Y-46940284D01*
X110927525Y-46977800D01*
X110927528Y-46977800D01*
X111072472Y-46977800D01*
X111072475Y-46977800D01*
X111212485Y-46940284D01*
X111338015Y-46867809D01*
X111440509Y-46765315D01*
X111512984Y-46639785D01*
X111550500Y-46499775D01*
X111550500Y-46354825D01*
X111512984Y-46214815D01*
X111475274Y-46149500D01*
X111440511Y-46089288D01*
X111440506Y-46089282D01*
X111386819Y-46035595D01*
X111353334Y-45974272D01*
X111350500Y-45947914D01*
X111350500Y-42874038D01*
X112399500Y-42874038D01*
X112399500Y-43125962D01*
X112427416Y-43302213D01*
X112438910Y-43374785D01*
X112516760Y-43614383D01*
X112631132Y-43838848D01*
X112779201Y-44042649D01*
X112779205Y-44042654D01*
X112957345Y-44220794D01*
X112957350Y-44220798D01*
X113135117Y-44349952D01*
X113161155Y-44368870D01*
X113304184Y-44441747D01*
X113385616Y-44483239D01*
X113385618Y-44483239D01*
X113385621Y-44483241D01*
X113625215Y-44561090D01*
X113874038Y-44600500D01*
X113874039Y-44600500D01*
X114125961Y-44600500D01*
X114125962Y-44600500D01*
X114374785Y-44561090D01*
X114614379Y-44483241D01*
X114838845Y-44368870D01*
X115042656Y-44220793D01*
X115220793Y-44042656D01*
X115368870Y-43838845D01*
X115483241Y-43614379D01*
X115561090Y-43374785D01*
X115600500Y-43125962D01*
X115600500Y-42874038D01*
X115561090Y-42625215D01*
X115483241Y-42385621D01*
X115483239Y-42385618D01*
X115483239Y-42385616D01*
X115429083Y-42279330D01*
X115368870Y-42161155D01*
X115317036Y-42089811D01*
X115220798Y-41957350D01*
X115220794Y-41957345D01*
X115042654Y-41779205D01*
X115042649Y-41779201D01*
X114838848Y-41631132D01*
X114838847Y-41631131D01*
X114838845Y-41631130D01*
X114748610Y-41585153D01*
X114614383Y-41516760D01*
X114374785Y-41438910D01*
X114323966Y-41430861D01*
X114125962Y-41399500D01*
X113874038Y-41399500D01*
X113783866Y-41413782D01*
X113625214Y-41438910D01*
X113385616Y-41516760D01*
X113161151Y-41631132D01*
X112957350Y-41779201D01*
X112957345Y-41779205D01*
X112779205Y-41957345D01*
X112779201Y-41957350D01*
X112631132Y-42161151D01*
X112516760Y-42385616D01*
X112497429Y-42445112D01*
X112438910Y-42625215D01*
X112399500Y-42874038D01*
X111350500Y-42874038D01*
X111350500Y-42776944D01*
X111370185Y-42709905D01*
X111386819Y-42689263D01*
X111882026Y-42194056D01*
X112380270Y-41695812D01*
X112426414Y-41615888D01*
X112434990Y-41583880D01*
X112450300Y-41526744D01*
X112450300Y-39599344D01*
X112469985Y-39532305D01*
X112486619Y-39511663D01*
X113280067Y-38718215D01*
X114075870Y-37922412D01*
X114122014Y-37842488D01*
X114125352Y-37830028D01*
X114132544Y-37803192D01*
X114144916Y-37757015D01*
X114145900Y-37753344D01*
X114145900Y-35833135D01*
X114145903Y-35793584D01*
X114145902Y-35793583D01*
X114145903Y-35793572D01*
X114145902Y-35793566D01*
X114145900Y-35793558D01*
X114145900Y-35793556D01*
X114133691Y-35747991D01*
X114123316Y-35709257D01*
X114122322Y-35704828D01*
X114122271Y-35704702D01*
X114120577Y-35701923D01*
X114100826Y-35667713D01*
X114100827Y-35667712D01*
X114100821Y-35667706D01*
X114076553Y-35625666D01*
X114075938Y-35624570D01*
X114075895Y-35624514D01*
X114043637Y-35592256D01*
X113531612Y-35080150D01*
X113498132Y-35018825D01*
X113495300Y-34992476D01*
X113495300Y-34852244D01*
X113514985Y-34785205D01*
X113531619Y-34764563D01*
X113821401Y-34474781D01*
X114113470Y-34182712D01*
X114159614Y-34102788D01*
X114183500Y-34013644D01*
X114183500Y-33921356D01*
X114183500Y-32682086D01*
X114203185Y-32615047D01*
X114219819Y-32594405D01*
X114235952Y-32578272D01*
X114273509Y-32540715D01*
X114345984Y-32415185D01*
X114383500Y-32275175D01*
X114383500Y-32260001D01*
X114403185Y-32192962D01*
X114455989Y-32147207D01*
X114523694Y-32137063D01*
X114528520Y-32137698D01*
X114528525Y-32137700D01*
X114528530Y-32137700D01*
X114673472Y-32137700D01*
X114673475Y-32137700D01*
X114813485Y-32100184D01*
X114939015Y-32027709D01*
X115041509Y-31925215D01*
X115113984Y-31799685D01*
X115151500Y-31659675D01*
X115151500Y-31514725D01*
X115113984Y-31374715D01*
X115093389Y-31339044D01*
X115041511Y-31249188D01*
X115041506Y-31249182D01*
X114987819Y-31195495D01*
X114954334Y-31134172D01*
X114951500Y-31107814D01*
X114951500Y-23814458D01*
X114951500Y-23814456D01*
X114927614Y-23725312D01*
X114927611Y-23725306D01*
X114881473Y-23645394D01*
X114881470Y-23645391D01*
X114881469Y-23645388D01*
X114816212Y-23580131D01*
X113915012Y-22678930D01*
X113915011Y-22678929D01*
X113915008Y-22678927D01*
X113835090Y-22632787D01*
X113835089Y-22632786D01*
X113835088Y-22632786D01*
X113745944Y-22608900D01*
X113089956Y-22608900D01*
X113089954Y-22608900D01*
X113050471Y-22619479D01*
X113050471Y-22619480D01*
X113000812Y-22632786D01*
X113000811Y-22632786D01*
X113000809Y-22632787D01*
X112920891Y-22678927D01*
X112920886Y-22678931D01*
X111903529Y-23696288D01*
X111875184Y-23745386D01*
X111875182Y-23745389D01*
X111857386Y-23776209D01*
X111833500Y-23865356D01*
X111833500Y-25604414D01*
X111813815Y-25671453D01*
X111797181Y-25692095D01*
X111792295Y-25696981D01*
X111730972Y-25730466D01*
X111704614Y-25733300D01*
X108834300Y-25733300D01*
X108767261Y-25713615D01*
X108721506Y-25660811D01*
X108710300Y-25609300D01*
X108710300Y-24107486D01*
X108729985Y-24040447D01*
X108746619Y-24019805D01*
X108770965Y-23995459D01*
X108800309Y-23966115D01*
X108872784Y-23840585D01*
X108910300Y-23700575D01*
X108910300Y-23555625D01*
X108872784Y-23415615D01*
X108848786Y-23374050D01*
X108800311Y-23290088D01*
X108800306Y-23290082D01*
X108697817Y-23187593D01*
X108697811Y-23187588D01*
X108572288Y-23115117D01*
X108572289Y-23115117D01*
X108560806Y-23112040D01*
X108432275Y-23077600D01*
X108287325Y-23077600D01*
X108158793Y-23112040D01*
X108147311Y-23115117D01*
X108021788Y-23187588D01*
X108021782Y-23187593D01*
X107919293Y-23290082D01*
X107919288Y-23290088D01*
X107846817Y-23415611D01*
X107846816Y-23415615D01*
X107809300Y-23555625D01*
X107809300Y-23700575D01*
X107840715Y-23817816D01*
X107846817Y-23840588D01*
X107919288Y-23966111D01*
X107919293Y-23966117D01*
X107972981Y-24019805D01*
X108006466Y-24081128D01*
X108009300Y-24107486D01*
X108009300Y-25908356D01*
X107989615Y-25975395D01*
X107972981Y-25996037D01*
X105479437Y-28489581D01*
X105418114Y-28523066D01*
X105391756Y-28525900D01*
X105315825Y-28525900D01*
X105187293Y-28560340D01*
X105175811Y-28563417D01*
X105050288Y-28635888D01*
X105050282Y-28635893D01*
X104947793Y-28738382D01*
X104947788Y-28738388D01*
X104875317Y-28863911D01*
X104875316Y-28863915D01*
X104837800Y-29003925D01*
X104837800Y-29148875D01*
X104866911Y-29257517D01*
X104875317Y-29288888D01*
X104947788Y-29414411D01*
X104947790Y-29414413D01*
X104947791Y-29414415D01*
X105050285Y-29516909D01*
X105050286Y-29516910D01*
X105050288Y-29516911D01*
X105175811Y-29589382D01*
X105175812Y-29589382D01*
X105175815Y-29589384D01*
X105315825Y-29626900D01*
X105315828Y-29626900D01*
X105460772Y-29626900D01*
X105460775Y-29626900D01*
X105600785Y-29589384D01*
X105726315Y-29516909D01*
X105828809Y-29414415D01*
X105901284Y-29288885D01*
X105938800Y-29148875D01*
X105938800Y-29072944D01*
X105958485Y-29005905D01*
X105975119Y-28985263D01*
X108489763Y-26470619D01*
X108551086Y-26437134D01*
X108577444Y-26434300D01*
X111704614Y-26434300D01*
X111771653Y-26453985D01*
X111792295Y-26470619D01*
X111845985Y-26524309D01*
X111845986Y-26524310D01*
X111845988Y-26524311D01*
X111971511Y-26596782D01*
X111971512Y-26596782D01*
X111971515Y-26596784D01*
X112111525Y-26634300D01*
X112111528Y-26634300D01*
X112256472Y-26634300D01*
X112256475Y-26634300D01*
X112396485Y-26596784D01*
X112522015Y-26524309D01*
X112624509Y-26421815D01*
X112696984Y-26296285D01*
X112734500Y-26156275D01*
X112734500Y-26011325D01*
X112696984Y-25871315D01*
X112624509Y-25745785D01*
X112570819Y-25692095D01*
X112537334Y-25630772D01*
X112534500Y-25604414D01*
X112534500Y-24108043D01*
X112554185Y-24041004D01*
X112570815Y-24020366D01*
X112773367Y-23817814D01*
X112834687Y-23784331D01*
X112904378Y-23789315D01*
X112960312Y-23831186D01*
X112968431Y-23843494D01*
X113017691Y-23928815D01*
X113017693Y-23928817D01*
X113071381Y-23982505D01*
X113104866Y-24043828D01*
X113107700Y-24070186D01*
X113107700Y-31874043D01*
X113129871Y-31956788D01*
X113129871Y-31956789D01*
X113131585Y-31963186D01*
X113131586Y-31963188D01*
X113177730Y-32043112D01*
X113225878Y-32091260D01*
X113246181Y-32111562D01*
X113279666Y-32172885D01*
X113282500Y-32199244D01*
X113282500Y-32275175D01*
X113287360Y-32293311D01*
X113320017Y-32415188D01*
X113392488Y-32540711D01*
X113392493Y-32540717D01*
X113446181Y-32594405D01*
X113479666Y-32655728D01*
X113482500Y-32682086D01*
X113482500Y-33770956D01*
X113462815Y-33837995D01*
X113446181Y-33858637D01*
X112864332Y-34440485D01*
X112864330Y-34440488D01*
X112823561Y-34511102D01*
X112818187Y-34520408D01*
X112818186Y-34520412D01*
X112794300Y-34609556D01*
X112794300Y-34609558D01*
X112794300Y-34992656D01*
X112774615Y-35059695D01*
X112757981Y-35080337D01*
X111045083Y-36793235D01*
X111043047Y-36791199D01*
X110997835Y-36824205D01*
X110928089Y-36828352D01*
X110867172Y-36794133D01*
X110834426Y-36732412D01*
X110831900Y-36707511D01*
X110831900Y-35438944D01*
X110851585Y-35371905D01*
X110868219Y-35351263D01*
X111240163Y-34979319D01*
X111301486Y-34945834D01*
X111327844Y-34943000D01*
X111403772Y-34943000D01*
X111403775Y-34943000D01*
X111543785Y-34905484D01*
X111669315Y-34833009D01*
X111771809Y-34730515D01*
X111844284Y-34604985D01*
X111881800Y-34464975D01*
X111881800Y-34320025D01*
X111844284Y-34180015D01*
X111813076Y-34125962D01*
X111771811Y-34054488D01*
X111771806Y-34054482D01*
X111669317Y-33951993D01*
X111669311Y-33951988D01*
X111543788Y-33879517D01*
X111543789Y-33879517D01*
X111523341Y-33874038D01*
X111403775Y-33842000D01*
X111258825Y-33842000D01*
X111139259Y-33874038D01*
X111118811Y-33879517D01*
X110993288Y-33951988D01*
X110993282Y-33951993D01*
X110890793Y-34054482D01*
X110890788Y-34054488D01*
X110818317Y-34180011D01*
X110818316Y-34180015D01*
X110780800Y-34320025D01*
X110780800Y-34320027D01*
X110780800Y-34395956D01*
X110761115Y-34462995D01*
X110744481Y-34483637D01*
X110200931Y-35027186D01*
X110200929Y-35027188D01*
X110191320Y-35043833D01*
X110182163Y-35059695D01*
X110181623Y-35060630D01*
X110181621Y-35060632D01*
X110154788Y-35107106D01*
X110154787Y-35107109D01*
X110154786Y-35107111D01*
X110154786Y-35107112D01*
X110149024Y-35128615D01*
X110130900Y-35196256D01*
X110130900Y-36812414D01*
X110111215Y-36879453D01*
X110094581Y-36900095D01*
X110040893Y-36953782D01*
X110040888Y-36953788D01*
X109968417Y-37079311D01*
X109968416Y-37079315D01*
X109930900Y-37219325D01*
X109930900Y-37219327D01*
X109930900Y-37294456D01*
X109911215Y-37361495D01*
X109858411Y-37407250D01*
X109789253Y-37417194D01*
X109725697Y-37388169D01*
X109719219Y-37382137D01*
X108134353Y-35797271D01*
X108100868Y-35735948D01*
X108105852Y-35666256D01*
X108147724Y-35610323D01*
X108189936Y-35589816D01*
X108246785Y-35574584D01*
X108372315Y-35502109D01*
X108474809Y-35399615D01*
X108547284Y-35274085D01*
X108584800Y-35134075D01*
X108584800Y-34989125D01*
X108547284Y-34849115D01*
X108541356Y-34838848D01*
X108474811Y-34723588D01*
X108474806Y-34723582D01*
X108372317Y-34621093D01*
X108372311Y-34621088D01*
X108246788Y-34548617D01*
X108246789Y-34548617D01*
X108235306Y-34545540D01*
X108106775Y-34511100D01*
X108106772Y-34511100D01*
X108030844Y-34511100D01*
X107963805Y-34491415D01*
X107943163Y-34474781D01*
X105693713Y-32225331D01*
X105693708Y-32225327D01*
X105613790Y-32179187D01*
X105613789Y-32179186D01*
X105613788Y-32179186D01*
X105524644Y-32155300D01*
X105524643Y-32155300D01*
X96273386Y-32155300D01*
X96206347Y-32135615D01*
X96185705Y-32118981D01*
X96132017Y-32065293D01*
X96132011Y-32065288D01*
X96006488Y-31992817D01*
X96006489Y-31992817D01*
X95995006Y-31989740D01*
X95866475Y-31955300D01*
X95721525Y-31955300D01*
X95592993Y-31989740D01*
X95581511Y-31992817D01*
X95455988Y-32065288D01*
X95455982Y-32065293D01*
X95353493Y-32167782D01*
X95353488Y-32167788D01*
X95281017Y-32293311D01*
X95281016Y-32293315D01*
X95243500Y-32433325D01*
X95243500Y-32578275D01*
X95281016Y-32718285D01*
X95281017Y-32718288D01*
X95353488Y-32843811D01*
X95353490Y-32843813D01*
X95353491Y-32843815D01*
X95455985Y-32946309D01*
X95455986Y-32946310D01*
X95455988Y-32946311D01*
X95581511Y-33018782D01*
X95581512Y-33018782D01*
X95581515Y-33018784D01*
X95721525Y-33056300D01*
X95721528Y-33056300D01*
X95866472Y-33056300D01*
X95866475Y-33056300D01*
X96006485Y-33018784D01*
X96132015Y-32946309D01*
X96185705Y-32892619D01*
X96247028Y-32859134D01*
X96273386Y-32856300D01*
X105281956Y-32856300D01*
X105348995Y-32875985D01*
X105369637Y-32892619D01*
X107255937Y-34778919D01*
X107289422Y-34840242D01*
X107284438Y-34909934D01*
X107242566Y-34965867D01*
X107177102Y-34990284D01*
X107168256Y-34990600D01*
X96953186Y-34990600D01*
X96886147Y-34970915D01*
X96865505Y-34954281D01*
X96811817Y-34900593D01*
X96811811Y-34900588D01*
X96686288Y-34828117D01*
X96686289Y-34828117D01*
X96674806Y-34825040D01*
X96546275Y-34790600D01*
X96401325Y-34790600D01*
X96272793Y-34825040D01*
X96261311Y-34828117D01*
X96135788Y-34900588D01*
X96135782Y-34900593D01*
X96033293Y-35003082D01*
X96033288Y-35003088D01*
X95960817Y-35128611D01*
X95960816Y-35128615D01*
X95923300Y-35268625D01*
X95923300Y-35413575D01*
X95960816Y-35553585D01*
X95960817Y-35553588D01*
X96033288Y-35679111D01*
X96033293Y-35679117D01*
X96130599Y-35776423D01*
X96164084Y-35837746D01*
X96159100Y-35907438D01*
X96150305Y-35926104D01*
X96085117Y-36039011D01*
X96085116Y-36039015D01*
X96047600Y-36179025D01*
X96047600Y-36323975D01*
X96072691Y-36417614D01*
X96085117Y-36463988D01*
X96157588Y-36589511D01*
X96157590Y-36589513D01*
X96157591Y-36589515D01*
X96260085Y-36692009D01*
X96260086Y-36692010D01*
X96260088Y-36692011D01*
X96385611Y-36764482D01*
X96385612Y-36764482D01*
X96385615Y-36764484D01*
X96525625Y-36802000D01*
X96601556Y-36802000D01*
X96668595Y-36821685D01*
X96689237Y-36838319D01*
X99554187Y-39703269D01*
X99623486Y-39743279D01*
X99623488Y-39743281D01*
X99631864Y-39748116D01*
X99634112Y-39749414D01*
X99723256Y-39773300D01*
X106907614Y-39773300D01*
X106974653Y-39792985D01*
X106995295Y-39809619D01*
X107048985Y-39863309D01*
X107048987Y-39863310D01*
X107049396Y-39863624D01*
X107049655Y-39863979D01*
X107054732Y-39869056D01*
X107053940Y-39869847D01*
X107090599Y-39920051D01*
X107094754Y-39989797D01*
X107060542Y-40050718D01*
X106998825Y-40083471D01*
X106973910Y-40086000D01*
X98930444Y-40086000D01*
X98863405Y-40066315D01*
X98842763Y-40049681D01*
X97060619Y-38267537D01*
X97027134Y-38206214D01*
X97024300Y-38179856D01*
X97024300Y-38103927D01*
X97024300Y-38103925D01*
X96986784Y-37963915D01*
X96982800Y-37957015D01*
X96914311Y-37838388D01*
X96914306Y-37838382D01*
X96811817Y-37735893D01*
X96811811Y-37735888D01*
X96686288Y-37663417D01*
X96686289Y-37663417D01*
X96674806Y-37660340D01*
X96546275Y-37625900D01*
X96401325Y-37625900D01*
X96272793Y-37660340D01*
X96261311Y-37663417D01*
X96135788Y-37735888D01*
X96135782Y-37735893D01*
X96033293Y-37838382D01*
X96033288Y-37838388D01*
X95960817Y-37963911D01*
X95960816Y-37963915D01*
X95923300Y-38103925D01*
X95923300Y-38248875D01*
X95958657Y-38380827D01*
X95960817Y-38388888D01*
X96033288Y-38514411D01*
X96033290Y-38514413D01*
X96033291Y-38514415D01*
X96135785Y-38616909D01*
X96135786Y-38616910D01*
X96135788Y-38616911D01*
X96261311Y-38689382D01*
X96261312Y-38689382D01*
X96261315Y-38689384D01*
X96401325Y-38726900D01*
X96477256Y-38726900D01*
X96544295Y-38746585D01*
X96564937Y-38763219D01*
X98490037Y-40688319D01*
X98523522Y-40749642D01*
X98518538Y-40819334D01*
X98476666Y-40875267D01*
X98411202Y-40899684D01*
X98402356Y-40900000D01*
X93400000Y-40900000D01*
X86741282Y-40900000D01*
X84730663Y-38889381D01*
X84697178Y-38828058D01*
X84702162Y-38758366D01*
X84744034Y-38702433D01*
X84809498Y-38678016D01*
X84818344Y-38677700D01*
X88931109Y-38677700D01*
X88998148Y-38697385D01*
X89043903Y-38750189D01*
X89050881Y-38769598D01*
X89069795Y-38840184D01*
X89078317Y-38871988D01*
X89150788Y-38997511D01*
X89150790Y-38997513D01*
X89150791Y-38997515D01*
X89253285Y-39100009D01*
X89253286Y-39100010D01*
X89253288Y-39100011D01*
X89378811Y-39172482D01*
X89378812Y-39172482D01*
X89378815Y-39172484D01*
X89518825Y-39210000D01*
X89518828Y-39210000D01*
X89663772Y-39210000D01*
X89663775Y-39210000D01*
X89803785Y-39172484D01*
X89929315Y-39100009D01*
X90031809Y-38997515D01*
X90104284Y-38871985D01*
X90141800Y-38731975D01*
X90141800Y-38587025D01*
X90104284Y-38447015D01*
X90076950Y-38399672D01*
X90031811Y-38321488D01*
X90031806Y-38321482D01*
X89929317Y-38218993D01*
X89929311Y-38218988D01*
X89803788Y-38146517D01*
X89803783Y-38146515D01*
X89701405Y-38119082D01*
X89641745Y-38082717D01*
X89611217Y-38019870D01*
X89609500Y-37999308D01*
X89609500Y-29093525D01*
X92862200Y-29093525D01*
X92862200Y-29238475D01*
X92899716Y-29378485D01*
X92899717Y-29378488D01*
X92972188Y-29504011D01*
X92972190Y-29504013D01*
X92972191Y-29504015D01*
X93074685Y-29606509D01*
X93074686Y-29606510D01*
X93074688Y-29606511D01*
X93200211Y-29678982D01*
X93200212Y-29678982D01*
X93200215Y-29678984D01*
X93340225Y-29716500D01*
X93340228Y-29716500D01*
X93485172Y-29716500D01*
X93485175Y-29716500D01*
X93625185Y-29678984D01*
X93750715Y-29606509D01*
X93853209Y-29504015D01*
X93925684Y-29378485D01*
X93930127Y-29361905D01*
X93966492Y-29302245D01*
X94029339Y-29271717D01*
X94049901Y-29270000D01*
X95676714Y-29270000D01*
X95743753Y-29289685D01*
X95764395Y-29306319D01*
X95818085Y-29360009D01*
X95818086Y-29360010D01*
X95818088Y-29360011D01*
X95943611Y-29432482D01*
X95943612Y-29432482D01*
X95943615Y-29432484D01*
X96083625Y-29470000D01*
X96083628Y-29470000D01*
X96228572Y-29470000D01*
X96228575Y-29470000D01*
X96368585Y-29432484D01*
X96494115Y-29360009D01*
X96596609Y-29257515D01*
X96669084Y-29131985D01*
X96706600Y-28991975D01*
X96706600Y-28847025D01*
X96669084Y-28707015D01*
X96628020Y-28635891D01*
X96596611Y-28581488D01*
X96596606Y-28581482D01*
X96494117Y-28478993D01*
X96494111Y-28478988D01*
X96368588Y-28406517D01*
X96368589Y-28406517D01*
X96357106Y-28403440D01*
X96228575Y-28369000D01*
X96083625Y-28369000D01*
X95955093Y-28403440D01*
X95943611Y-28406517D01*
X95818088Y-28478988D01*
X95818082Y-28478993D01*
X95764395Y-28532681D01*
X95703072Y-28566166D01*
X95676714Y-28569000D01*
X93613056Y-28569000D01*
X93556672Y-28584107D01*
X93556672Y-28584108D01*
X93545752Y-28587034D01*
X93523910Y-28592886D01*
X93523909Y-28592887D01*
X93513518Y-28598887D01*
X93451518Y-28615500D01*
X93340225Y-28615500D01*
X93211693Y-28649940D01*
X93200211Y-28653017D01*
X93074688Y-28725488D01*
X93074682Y-28725493D01*
X92972193Y-28827982D01*
X92972188Y-28827988D01*
X92899717Y-28953511D01*
X92899716Y-28953515D01*
X92862200Y-29093525D01*
X89609500Y-29093525D01*
X89609500Y-27427444D01*
X89629185Y-27360405D01*
X89645819Y-27339763D01*
X93260763Y-23724819D01*
X93322086Y-23691334D01*
X93348444Y-23688500D01*
X93424372Y-23688500D01*
X93424375Y-23688500D01*
X93564385Y-23650984D01*
X93689915Y-23578509D01*
X93792409Y-23476015D01*
X93864884Y-23350485D01*
X93902400Y-23210475D01*
X93902400Y-23065525D01*
X93864884Y-22925515D01*
X93831802Y-22868216D01*
X93792411Y-22799988D01*
X93792406Y-22799982D01*
X93689917Y-22697493D01*
X93689911Y-22697488D01*
X93564388Y-22625017D01*
X93564389Y-22625017D01*
X93552906Y-22621940D01*
X93424375Y-22587500D01*
X93279425Y-22587500D01*
X93150893Y-22621940D01*
X93139411Y-22625017D01*
X93013888Y-22697488D01*
X93013882Y-22697493D01*
X92911393Y-22799982D01*
X92911388Y-22799988D01*
X92838917Y-22925511D01*
X92838916Y-22925515D01*
X92801400Y-23065525D01*
X92801400Y-23065527D01*
X92801400Y-23141456D01*
X92781715Y-23208495D01*
X92765081Y-23229137D01*
X90775953Y-25218264D01*
X90714630Y-25251749D01*
X90644938Y-25246765D01*
X90589005Y-25204893D01*
X90564588Y-25139429D01*
X90568496Y-25098496D01*
X90600500Y-24979057D01*
X90600500Y-24820943D01*
X90559577Y-24668216D01*
X90502922Y-24570085D01*
X90480524Y-24531290D01*
X90480518Y-24531282D01*
X90368717Y-24419481D01*
X90368709Y-24419475D01*
X90231790Y-24340426D01*
X90231786Y-24340424D01*
X90231784Y-24340423D01*
X90079057Y-24299500D01*
X89920943Y-24299500D01*
X89768216Y-24340423D01*
X89768209Y-24340426D01*
X89631290Y-24419475D01*
X89631282Y-24419481D01*
X89519481Y-24531282D01*
X89519475Y-24531290D01*
X89440426Y-24668209D01*
X89440423Y-24668216D01*
X89399500Y-24820943D01*
X89399500Y-24979056D01*
X89440423Y-25131783D01*
X89440426Y-25131790D01*
X89519475Y-25268709D01*
X89519479Y-25268714D01*
X89519480Y-25268716D01*
X89631284Y-25380520D01*
X89631286Y-25380521D01*
X89631290Y-25380524D01*
X89768209Y-25459573D01*
X89768216Y-25459577D01*
X89920943Y-25500500D01*
X89920945Y-25500500D01*
X90079054Y-25500500D01*
X90079057Y-25500500D01*
X90198493Y-25468497D01*
X90268339Y-25470160D01*
X90326201Y-25509322D01*
X90353706Y-25573550D01*
X90342120Y-25642453D01*
X90318264Y-25675953D01*
X88978531Y-27015686D01*
X88978527Y-27015691D01*
X88962944Y-27042684D01*
X88962943Y-27042686D01*
X88947664Y-27069149D01*
X88932386Y-27095611D01*
X88908500Y-27184756D01*
X88908500Y-37852700D01*
X88888815Y-37919739D01*
X88836011Y-37965494D01*
X88784500Y-37976700D01*
X82980786Y-37976700D01*
X82913747Y-37957015D01*
X82893105Y-37940381D01*
X82839417Y-37886693D01*
X82839411Y-37886688D01*
X82713888Y-37814217D01*
X82713889Y-37814217D01*
X82702406Y-37811140D01*
X82573875Y-37776700D01*
X82573872Y-37776700D01*
X82497944Y-37776700D01*
X82430905Y-37757015D01*
X82410263Y-37740381D01*
X82235113Y-37565231D01*
X82235108Y-37565227D01*
X82155190Y-37519087D01*
X82155189Y-37519086D01*
X82155188Y-37519086D01*
X82066044Y-37495200D01*
X77281844Y-37495200D01*
X77189556Y-37495200D01*
X77100412Y-37519086D01*
X77100409Y-37519087D01*
X77020491Y-37565227D01*
X77020486Y-37565231D01*
X76845337Y-37740381D01*
X76784014Y-37773866D01*
X76757656Y-37776700D01*
X76681725Y-37776700D01*
X76553193Y-37811140D01*
X76541711Y-37814217D01*
X76416188Y-37886688D01*
X76416182Y-37886693D01*
X76313693Y-37989182D01*
X76313688Y-37989188D01*
X76241217Y-38114711D01*
X76241216Y-38114715D01*
X76203700Y-38254725D01*
X72500500Y-38254725D01*
X72500500Y-33874038D01*
X74899500Y-33874038D01*
X74899500Y-34125962D01*
X74908489Y-34182713D01*
X74938910Y-34374785D01*
X75016760Y-34614383D01*
X75075931Y-34730511D01*
X75128157Y-34833011D01*
X75131132Y-34838848D01*
X75279201Y-35042649D01*
X75279205Y-35042654D01*
X75457345Y-35220794D01*
X75457350Y-35220798D01*
X75530694Y-35274085D01*
X75661155Y-35368870D01*
X75748888Y-35413572D01*
X75885616Y-35483239D01*
X75885618Y-35483239D01*
X75885621Y-35483241D01*
X76125215Y-35561090D01*
X76374038Y-35600500D01*
X76374039Y-35600500D01*
X76625961Y-35600500D01*
X76625962Y-35600500D01*
X76874785Y-35561090D01*
X77114379Y-35483241D01*
X77338845Y-35368870D01*
X77542656Y-35220793D01*
X77720793Y-35042656D01*
X77868870Y-34838845D01*
X77983241Y-34614379D01*
X78061090Y-34374785D01*
X78100500Y-34125962D01*
X78100500Y-33874038D01*
X78061090Y-33625215D01*
X77983241Y-33385621D01*
X77983239Y-33385618D01*
X77983239Y-33385616D01*
X77941747Y-33304184D01*
X77868870Y-33161155D01*
X77765432Y-33018784D01*
X77720798Y-32957350D01*
X77720794Y-32957345D01*
X77542654Y-32779205D01*
X77542649Y-32779201D01*
X77338848Y-32631132D01*
X77338847Y-32631131D01*
X77338845Y-32631130D01*
X77266768Y-32594405D01*
X77114383Y-32516760D01*
X76874785Y-32438910D01*
X76625962Y-32399500D01*
X76374038Y-32399500D01*
X76275008Y-32415185D01*
X76125214Y-32438910D01*
X75885616Y-32516760D01*
X75661151Y-32631132D01*
X75457350Y-32779201D01*
X75457345Y-32779205D01*
X75279205Y-32957345D01*
X75279201Y-32957350D01*
X75131132Y-33161151D01*
X75016760Y-33385616D01*
X74938910Y-33625214D01*
X74938910Y-33625215D01*
X74899500Y-33874038D01*
X72500500Y-33874038D01*
X72500500Y-23927525D01*
X77449500Y-23927525D01*
X77449500Y-24072475D01*
X77459031Y-24108043D01*
X77487017Y-24212488D01*
X77559488Y-24338011D01*
X77559490Y-24338013D01*
X77559491Y-24338015D01*
X77661985Y-24440509D01*
X77661986Y-24440510D01*
X77661988Y-24440511D01*
X77787511Y-24512982D01*
X77787512Y-24512982D01*
X77787515Y-24512984D01*
X77927525Y-24550500D01*
X77927528Y-24550500D01*
X78072472Y-24550500D01*
X78072475Y-24550500D01*
X78212485Y-24512984D01*
X78338015Y-24440509D01*
X78440509Y-24338015D01*
X78512984Y-24212485D01*
X78550500Y-24072475D01*
X78550500Y-23927525D01*
X78512984Y-23787515D01*
X78512926Y-23787415D01*
X78440511Y-23661988D01*
X78440506Y-23661982D01*
X78338017Y-23559493D01*
X78338011Y-23559488D01*
X78212488Y-23487017D01*
X78212489Y-23487017D01*
X78201006Y-23483940D01*
X78072475Y-23449500D01*
X77927525Y-23449500D01*
X77798993Y-23483940D01*
X77787511Y-23487017D01*
X77661988Y-23559488D01*
X77661982Y-23559493D01*
X77559493Y-23661982D01*
X77559488Y-23661988D01*
X77487017Y-23787511D01*
X77487016Y-23787515D01*
X77449500Y-23927525D01*
X72500500Y-23927525D01*
X72500500Y-23020943D01*
X89399500Y-23020943D01*
X89399500Y-23179057D01*
X89425756Y-23277044D01*
X89440423Y-23331783D01*
X89440426Y-23331790D01*
X89519475Y-23468709D01*
X89519479Y-23468714D01*
X89519480Y-23468716D01*
X89631284Y-23580520D01*
X89631286Y-23580521D01*
X89631290Y-23580524D01*
X89743650Y-23645394D01*
X89768216Y-23659577D01*
X89920943Y-23700500D01*
X89920945Y-23700500D01*
X90079055Y-23700500D01*
X90079057Y-23700500D01*
X90231784Y-23659577D01*
X90368716Y-23580520D01*
X90480520Y-23468716D01*
X90559577Y-23331784D01*
X90600500Y-23179057D01*
X90600500Y-23020943D01*
X90559577Y-22868216D01*
X90559573Y-22868209D01*
X90480524Y-22731290D01*
X90480518Y-22731282D01*
X90368716Y-22619480D01*
X90368709Y-22619475D01*
X90231790Y-22540426D01*
X90231786Y-22540424D01*
X90231784Y-22540423D01*
X90079057Y-22499500D01*
X89920943Y-22499500D01*
X89768216Y-22540423D01*
X89768209Y-22540426D01*
X89631290Y-22619475D01*
X89631284Y-22619480D01*
X89519481Y-22731282D01*
X89519475Y-22731290D01*
X89440426Y-22868209D01*
X89440423Y-22868216D01*
X89399500Y-23020943D01*
X72500500Y-23020943D01*
X72500500Y-19934110D01*
X72500500Y-19934108D01*
X72466392Y-19806814D01*
X72416613Y-19720594D01*
X72400000Y-19658594D01*
X72400000Y-19600000D01*
X72341406Y-19600000D01*
X72279406Y-19583387D01*
X72193188Y-19533609D01*
X72193187Y-19533608D01*
X72193186Y-19533608D01*
X72065892Y-19499500D01*
X72065891Y-19499500D01*
X624500Y-19499500D01*
X557461Y-19479815D01*
X511706Y-19427011D01*
X500500Y-19375500D01*
X500500Y-18256825D01*
X95923300Y-18256825D01*
X95923300Y-18401775D01*
X95960816Y-18541785D01*
X95960817Y-18541788D01*
X96033288Y-18667311D01*
X96033293Y-18667317D01*
X96086981Y-18721005D01*
X96120466Y-18782328D01*
X96123300Y-18808686D01*
X96123300Y-23277045D01*
X96143708Y-23353210D01*
X96147185Y-23366186D01*
X96147187Y-23366191D01*
X96193327Y-23446108D01*
X96193329Y-23446111D01*
X96193330Y-23446112D01*
X96438552Y-23691334D01*
X96655981Y-23908762D01*
X96689466Y-23970085D01*
X96692300Y-23996443D01*
X96692300Y-24072375D01*
X96729816Y-24212385D01*
X96729817Y-24212388D01*
X96802288Y-24337911D01*
X96802290Y-24337913D01*
X96802291Y-24337915D01*
X96904785Y-24440409D01*
X96904786Y-24440410D01*
X96904788Y-24440411D01*
X97030311Y-24512882D01*
X97030312Y-24512882D01*
X97030315Y-24512884D01*
X97170325Y-24550400D01*
X97170328Y-24550400D01*
X97312156Y-24550400D01*
X97379195Y-24570085D01*
X97399837Y-24586719D01*
X104064481Y-31251363D01*
X104097966Y-31312686D01*
X104100800Y-31339044D01*
X104100800Y-31414975D01*
X104127529Y-31514727D01*
X104138317Y-31554988D01*
X104210788Y-31680511D01*
X104210790Y-31680513D01*
X104210791Y-31680515D01*
X104313285Y-31783009D01*
X104313286Y-31783010D01*
X104313288Y-31783011D01*
X104438811Y-31855482D01*
X104438812Y-31855482D01*
X104438815Y-31855484D01*
X104578825Y-31893000D01*
X104578828Y-31893000D01*
X104723772Y-31893000D01*
X104723775Y-31893000D01*
X104863785Y-31855484D01*
X104989315Y-31783009D01*
X105091809Y-31680515D01*
X105164284Y-31554985D01*
X105201800Y-31414975D01*
X105201800Y-31270025D01*
X105164284Y-31130015D01*
X105151466Y-31107814D01*
X105091811Y-31004488D01*
X105091806Y-31004482D01*
X104989317Y-30901993D01*
X104989311Y-30901988D01*
X104863788Y-30829517D01*
X104863789Y-30829517D01*
X104852306Y-30826440D01*
X104723775Y-30792000D01*
X104723772Y-30792000D01*
X104647844Y-30792000D01*
X104580805Y-30772315D01*
X104560163Y-30755681D01*
X97829619Y-24025137D01*
X97796134Y-23963814D01*
X97793300Y-23937456D01*
X97793300Y-23927427D01*
X97793300Y-23927425D01*
X97755784Y-23787415D01*
X97754003Y-23784331D01*
X97683311Y-23661888D01*
X97683306Y-23661882D01*
X97580817Y-23559393D01*
X97580815Y-23559391D01*
X97578557Y-23558087D01*
X97577035Y-23556491D01*
X97574366Y-23554443D01*
X97574685Y-23554026D01*
X97530341Y-23507522D01*
X97517117Y-23438915D01*
X97543084Y-23374050D01*
X97578558Y-23343312D01*
X97580815Y-23342009D01*
X97683309Y-23239515D01*
X97755784Y-23113985D01*
X97793300Y-22973975D01*
X97793300Y-22898044D01*
X97812985Y-22831005D01*
X97829619Y-22810363D01*
X98293863Y-22346119D01*
X98355186Y-22312634D01*
X98381544Y-22309800D01*
X115052414Y-22309800D01*
X115119453Y-22329485D01*
X115140095Y-22346119D01*
X115193785Y-22399809D01*
X115193786Y-22399810D01*
X115193788Y-22399811D01*
X115319311Y-22472282D01*
X115319312Y-22472282D01*
X115319315Y-22472284D01*
X115459325Y-22509800D01*
X115459328Y-22509800D01*
X115604272Y-22509800D01*
X115604275Y-22509800D01*
X115744285Y-22472284D01*
X115869815Y-22399809D01*
X115972309Y-22297315D01*
X116044784Y-22171785D01*
X116082300Y-22031775D01*
X116082300Y-21886825D01*
X116044784Y-21746815D01*
X116005533Y-21678831D01*
X115972311Y-21621288D01*
X115972306Y-21621282D01*
X115869817Y-21518793D01*
X115869811Y-21518788D01*
X115744288Y-21446317D01*
X115744289Y-21446317D01*
X115732806Y-21443240D01*
X115604275Y-21408800D01*
X115459325Y-21408800D01*
X115330793Y-21443240D01*
X115319311Y-21446317D01*
X115193788Y-21518788D01*
X115193782Y-21518793D01*
X115140095Y-21572481D01*
X115078772Y-21605966D01*
X115052414Y-21608800D01*
X98138856Y-21608800D01*
X98049712Y-21632686D01*
X98049709Y-21632687D01*
X97969791Y-21678827D01*
X97969786Y-21678831D01*
X97333937Y-22314681D01*
X97272614Y-22348166D01*
X97246256Y-22351000D01*
X97170325Y-22351000D01*
X97041793Y-22385440D01*
X97030311Y-22388517D01*
X97010300Y-22400071D01*
X96942400Y-22416544D01*
X96876373Y-22393691D01*
X96833182Y-22338770D01*
X96824300Y-22292684D01*
X96824300Y-18808686D01*
X96843985Y-18741647D01*
X96860619Y-18721005D01*
X96914309Y-18667315D01*
X96986784Y-18541785D01*
X97024300Y-18401775D01*
X97024300Y-18256825D01*
X96986784Y-18116815D01*
X96914309Y-17991285D01*
X96811815Y-17888791D01*
X96811813Y-17888790D01*
X96811811Y-17888788D01*
X96686288Y-17816317D01*
X96686289Y-17816317D01*
X96674806Y-17813240D01*
X96546275Y-17778800D01*
X96401325Y-17778800D01*
X96272793Y-17813240D01*
X96261311Y-17816317D01*
X96135788Y-17888788D01*
X96135782Y-17888793D01*
X96033293Y-17991282D01*
X96033288Y-17991288D01*
X95960817Y-18116811D01*
X95960816Y-18116815D01*
X95923300Y-18256825D01*
X500500Y-18256825D01*
X500500Y-624500D01*
X520185Y-557461D01*
X572989Y-511706D01*
X624500Y-500500D01*
X186375500Y-500500D01*
X186442539Y-520185D01*
G37*
%TD.AperFunction*%
%TD*%
M02*
