%TF.GenerationSoftware,KiCad,Pcbnew,10.0.5*%
%TF.CreationDate,2026-08-20T14:07:53+02:00*%
%TF.ProjectId,fl11,666c3131-2e6b-4696-9361-645f70636258,rev?*%
%TF.SameCoordinates,Original*%
%TF.FileFunction,Other,User*%
%FSLAX46Y46*%
G04 Gerber Fmt 4.6, Leading zero omitted, Abs format (unit mm)*
G04 Created by KiCad (PCBNEW 10.0.5) date 2026-08-20 14:07:53*
%MOMM*%
%LPD*%
G01*
G04 APERTURE LIST*
%ADD10C,0.050000*%
G04 APERTURE END LIST*
%TO.C,C18*%
D10*
X146273360Y-14590000D02*
X147193360Y-14590000D01*
X147193360Y-16410000D01*
X146273360Y-16410000D01*
X146273360Y-14590000D01*
%TO.C,C9*%
X109090000Y-32540000D02*
X110910000Y-32540000D01*
X110910000Y-33460000D01*
X109090000Y-33460000D01*
X109090000Y-32540000D01*
%TO.C,C6*%
X83590000Y-31040000D02*
X85410000Y-31040000D01*
X85410000Y-31960000D01*
X83590000Y-31960000D01*
X83590000Y-31040000D01*
%TO.C,C20*%
X179606700Y-14590000D02*
X180526700Y-14590000D01*
X180526700Y-16410000D01*
X179606700Y-16410000D01*
X179606700Y-14590000D01*
%TO.C,R1*%
X86570000Y-45030000D02*
X88430000Y-45030000D01*
X88430000Y-45970000D01*
X86570000Y-45970000D01*
X86570000Y-45030000D01*
%TO.C,H2*%
X116950000Y-43000000D02*
G75*
G02*
X111050000Y-43000000I-2950000J0D01*
G01*
X111050000Y-43000000D02*
G75*
G02*
X116950000Y-43000000I2950000J0D01*
G01*
%TO.C,C3*%
X108300000Y-24520000D02*
X111700000Y-24520000D01*
X111700000Y-26480000D01*
X108300000Y-26480000D01*
X108300000Y-24520000D01*
%TO.C,C11*%
X29606670Y-14590000D02*
X30526670Y-14590000D01*
X30526670Y-16410000D01*
X29606670Y-16410000D01*
X29606670Y-14590000D01*
%TO.C,LD6*%
X90583350Y-7550000D02*
X90583350Y-14450000D01*
X90583350Y-14450000D02*
X96083350Y-14450000D01*
X96083350Y-7550000D02*
X90583350Y-7550000D01*
X96083350Y-14450000D02*
X96083350Y-7550000D01*
%TO.C,C19*%
X162940030Y-14590000D02*
X163860030Y-14590000D01*
X163860030Y-16410000D01*
X162940030Y-16410000D01*
X162940030Y-14590000D01*
%TO.C,R6*%
X113570000Y-35530000D02*
X115430000Y-35530000D01*
X115430000Y-36470000D01*
X113570000Y-36470000D01*
X113570000Y-35530000D01*
%TO.C,R9*%
X94070000Y-26530000D02*
X95930000Y-26530000D01*
X95930000Y-27470000D01*
X94070000Y-27470000D01*
X94070000Y-26530000D01*
%TO.C,LD4*%
X57250010Y-7550000D02*
X57250010Y-14450000D01*
X57250010Y-14450000D02*
X62750010Y-14450000D01*
X62750010Y-7550000D02*
X57250010Y-7550000D01*
X62750010Y-14450000D02*
X62750010Y-7550000D01*
%TO.C,C16*%
X112940020Y-14590000D02*
X113860020Y-14590000D01*
X113860020Y-16410000D01*
X112940020Y-16410000D01*
X112940020Y-14590000D01*
%TO.C,C17*%
X129606690Y-14590000D02*
X130526690Y-14590000D01*
X130526690Y-16410000D01*
X129606690Y-16410000D01*
X129606690Y-14590000D01*
%TO.C,TP11*%
X94500000Y-21500000D02*
G75*
G02*
X92500000Y-21500000I-1000000J0D01*
G01*
X92500000Y-21500000D02*
G75*
G02*
X94500000Y-21500000I1000000J0D01*
G01*
%TO.C,C4*%
X112800000Y-29520000D02*
X116200000Y-29520000D01*
X116200000Y-31480000D01*
X112800000Y-31480000D01*
X112800000Y-29520000D01*
%TO.C,TP6*%
X107500000Y-27000000D02*
G75*
G02*
X105500000Y-27000000I-1000000J0D01*
G01*
X105500000Y-27000000D02*
G75*
G02*
X107500000Y-27000000I1000000J0D01*
G01*
%TO.C,C7*%
X111590000Y-21540000D02*
X113410000Y-21540000D01*
X113410000Y-22460000D01*
X111590000Y-22460000D01*
X111590000Y-21540000D01*
%TO.C,TP10*%
X109500000Y-44500000D02*
G75*
G02*
X107500000Y-44500000I-1000000J0D01*
G01*
X107500000Y-44500000D02*
G75*
G02*
X109500000Y-44500000I1000000J0D01*
G01*
%TO.C,C1*%
X74750000Y-23500000D02*
X74750000Y-26500000D01*
X74750000Y-26500000D02*
X75600000Y-26500000D01*
X75600000Y-21750000D02*
X75600000Y-23500000D01*
X75600000Y-21750000D02*
X76750000Y-20600000D01*
X75600000Y-23500000D02*
X74750000Y-23500000D01*
X75600000Y-26500000D02*
X75600000Y-28250000D01*
X75600000Y-28250000D02*
X76750000Y-29400000D01*
X76750000Y-20600000D02*
X84400000Y-20600000D01*
X76750000Y-29400000D02*
X84400000Y-29400000D01*
X84400000Y-20600000D02*
X84400000Y-23500000D01*
X84400000Y-23500000D02*
X85250000Y-23500000D01*
X84400000Y-26500000D02*
X84400000Y-29400000D01*
X85250000Y-23500000D02*
X85250000Y-26500000D01*
X85250000Y-26500000D02*
X84400000Y-26500000D01*
%TO.C,LD10*%
X157250030Y-7550000D02*
X157250030Y-14450000D01*
X157250030Y-14450000D02*
X162750030Y-14450000D01*
X162750030Y-7550000D02*
X157250030Y-7550000D01*
X162750030Y-14450000D02*
X162750030Y-7550000D01*
%TO.C,R4*%
X113570000Y-33030000D02*
X115430000Y-33030000D01*
X115430000Y-33970000D01*
X113570000Y-33970000D01*
X113570000Y-33030000D01*
%TO.C,J3_2*%
X129000000Y-41000000D02*
G75*
G02*
X127000000Y-41000000I-1000000J0D01*
G01*
X127000000Y-41000000D02*
G75*
G02*
X129000000Y-41000000I1000000J0D01*
G01*
%TO.C,C5*%
X82300000Y-33520000D02*
X85700000Y-33520000D01*
X85700000Y-35480000D01*
X82300000Y-35480000D01*
X82300000Y-33520000D01*
%TO.C,H1*%
X79450000Y-34000000D02*
G75*
G02*
X73550000Y-34000000I-2950000J0D01*
G01*
X73550000Y-34000000D02*
G75*
G02*
X79450000Y-34000000I2950000J0D01*
G01*
%TO.C,R7*%
X103570000Y-26530000D02*
X105430000Y-26530000D01*
X105430000Y-27470000D01*
X103570000Y-27470000D01*
X103570000Y-26530000D01*
%TO.C,TP4*%
X123500000Y-44500000D02*
G75*
G02*
X121500000Y-44500000I-1000000J0D01*
G01*
X121500000Y-44500000D02*
G75*
G02*
X123500000Y-44500000I1000000J0D01*
G01*
%TO.C,C12*%
X46273340Y-14590000D02*
X47193340Y-14590000D01*
X47193340Y-16410000D01*
X46273340Y-16410000D01*
X46273340Y-14590000D01*
%TO.C,C13*%
X62940010Y-14590000D02*
X63860010Y-14590000D01*
X63860010Y-16410000D01*
X62940010Y-16410000D01*
X62940010Y-14590000D01*
%TO.C,C10*%
X12940000Y-14590000D02*
X13860000Y-14590000D01*
X13860000Y-16410000D01*
X12940000Y-16410000D01*
X12940000Y-14590000D01*
%TO.C,R11*%
X87570000Y-34530000D02*
X89430000Y-34530000D01*
X89430000Y-35470000D01*
X87570000Y-35470000D01*
X87570000Y-34530000D01*
%TO.C,Q1*%
X103070000Y-21500000D02*
X104100000Y-21500000D01*
X103070000Y-22610000D02*
X103070000Y-21500000D01*
X103070000Y-23390000D02*
X104100000Y-23390000D01*
X103070000Y-24500000D02*
X103070000Y-23390000D01*
X104100000Y-21300000D02*
X105900000Y-21300000D01*
X104100000Y-21500000D02*
X104100000Y-21300000D01*
X104100000Y-22610000D02*
X103070000Y-22610000D01*
X104100000Y-23390000D02*
X104100000Y-22610000D01*
X104100000Y-24500000D02*
X103070000Y-24500000D01*
X104100000Y-24700000D02*
X104100000Y-24500000D01*
X105900000Y-21300000D02*
X105900000Y-22450000D01*
X105900000Y-22450000D02*
X106930000Y-22450000D01*
X105900000Y-23550000D02*
X105900000Y-24700000D01*
X105900000Y-24700000D02*
X104100000Y-24700000D01*
X106930000Y-22450000D02*
X106930000Y-23550000D01*
X106930000Y-23550000D02*
X105900000Y-23550000D01*
%TO.C,LD3*%
X40583340Y-7550000D02*
X40583340Y-14450000D01*
X40583340Y-14450000D02*
X46083340Y-14450000D01*
X46083340Y-7550000D02*
X40583340Y-7550000D01*
X46083340Y-14450000D02*
X46083340Y-7550000D01*
%TO.C,R2*%
X89570000Y-45030000D02*
X91430000Y-45030000D01*
X91430000Y-45970000D01*
X89570000Y-45970000D01*
X89570000Y-45030000D01*
%TO.C,R10*%
X101070000Y-26530000D02*
X102930000Y-26530000D01*
X102930000Y-27470000D01*
X101070000Y-27470000D01*
X101070000Y-26530000D01*
%TO.C,LD2*%
X23916670Y-7550000D02*
X23916670Y-14450000D01*
X23916670Y-14450000D02*
X29416670Y-14450000D01*
X29416670Y-7550000D02*
X23916670Y-7550000D01*
X29416670Y-14450000D02*
X29416670Y-7550000D01*
%TO.C,TP7*%
X184000000Y-15500000D02*
G75*
G02*
X182000000Y-15500000I-1000000J0D01*
G01*
X182000000Y-15500000D02*
G75*
G02*
X184000000Y-15500000I1000000J0D01*
G01*
%TO.C,C8*%
X96590000Y-26540000D02*
X98410000Y-26540000D01*
X98410000Y-27460000D01*
X96590000Y-27460000D01*
X96590000Y-26540000D01*
%TO.C,LD8*%
X123916690Y-7550000D02*
X123916690Y-14450000D01*
X123916690Y-14450000D02*
X129416690Y-14450000D01*
X129416690Y-7550000D02*
X123916690Y-7550000D01*
X129416690Y-14450000D02*
X129416690Y-7550000D01*
%TO.C,R3*%
X90570000Y-31030000D02*
X92430000Y-31030000D01*
X92430000Y-31970000D01*
X90570000Y-31970000D01*
X90570000Y-31030000D01*
%TO.C,U4*%
X87150000Y-40000000D02*
X88150000Y-40000000D01*
X87150000Y-43000000D02*
X87150000Y-40000000D01*
X88150000Y-39800000D02*
X90250000Y-39800000D01*
X88150000Y-40000000D02*
X88150000Y-39800000D01*
X88150000Y-43000000D02*
X87150000Y-43000000D01*
X88150000Y-43200000D02*
X88150000Y-43000000D01*
X90250000Y-39800000D02*
X90250000Y-40000000D01*
X90250000Y-40000000D02*
X91250000Y-40000000D01*
X90250000Y-43000000D02*
X90250000Y-43200000D01*
X90250000Y-43200000D02*
X88150000Y-43200000D01*
X91250000Y-40000000D02*
X91250000Y-43000000D01*
X91250000Y-43000000D02*
X90250000Y-43000000D01*
%TO.C,J1*%
X74680000Y-38530000D02*
X74680000Y-47950000D01*
X74680000Y-38530000D02*
X85320000Y-38530000D01*
X74680000Y-47950000D02*
X85320000Y-47950000D01*
X85320000Y-38530000D02*
X85320000Y-47950000D01*
%TO.C,C14*%
X79606680Y-14590000D02*
X80526680Y-14590000D01*
X80526680Y-16410000D01*
X79606680Y-16410000D01*
X79606680Y-14590000D01*
%TO.C,R8*%
X109070000Y-21530000D02*
X110930000Y-21530000D01*
X110930000Y-22470000D01*
X109070000Y-22470000D01*
X109070000Y-21530000D01*
%TO.C,C15*%
X96273350Y-14590000D02*
X97193350Y-14590000D01*
X97193350Y-16410000D01*
X96273350Y-16410000D01*
X96273350Y-14590000D01*
%TO.C,LD11*%
X173916700Y-7550000D02*
X173916700Y-14450000D01*
X173916700Y-14450000D02*
X179416700Y-14450000D01*
X179416700Y-7550000D02*
X173916700Y-7550000D01*
X179416700Y-14450000D02*
X179416700Y-7550000D01*
%TO.C,LD5*%
X73916680Y-7550000D02*
X73916680Y-14450000D01*
X73916680Y-14450000D02*
X79416680Y-14450000D01*
X79416680Y-7550000D02*
X73916680Y-7550000D01*
X79416680Y-14450000D02*
X79416680Y-7550000D01*
%TO.C,J2_1*%
X118500000Y-28000000D02*
G75*
G02*
X116500000Y-28000000I-1000000J0D01*
G01*
X116500000Y-28000000D02*
G75*
G02*
X118500000Y-28000000I1000000J0D01*
G01*
%TO.C,U2*%
X86450000Y-30000000D02*
X87450000Y-30000000D01*
X86450000Y-33000000D02*
X86450000Y-30000000D01*
X87450000Y-29800000D02*
X89550000Y-29800000D01*
X87450000Y-30000000D02*
X87450000Y-29800000D01*
X87450000Y-33000000D02*
X86450000Y-33000000D01*
X87450000Y-33200000D02*
X87450000Y-33000000D01*
X89550000Y-29800000D02*
X89550000Y-30000000D01*
X89550000Y-30000000D02*
X90550000Y-30000000D01*
X89550000Y-31110000D02*
X89550000Y-31890000D01*
X89550000Y-31890000D02*
X90550000Y-31890000D01*
X89550000Y-33000000D02*
X89550000Y-33200000D01*
X89550000Y-33200000D02*
X87450000Y-33200000D01*
X90550000Y-30000000D02*
X90550000Y-31110000D01*
X90550000Y-31110000D02*
X89550000Y-31110000D01*
X90550000Y-31890000D02*
X90550000Y-33000000D01*
X90550000Y-33000000D02*
X89550000Y-33000000D01*
%TO.C,SW1*%
X87250000Y-22300000D02*
X92750000Y-22300000D01*
X87250000Y-25700000D02*
X87250000Y-22300000D01*
X88900000Y-25700000D02*
X87250000Y-25700000D01*
X88900000Y-26350000D02*
X88900000Y-25700000D01*
X91100000Y-25700000D02*
X91100000Y-26350000D01*
X91100000Y-26350000D02*
X88900000Y-26350000D01*
X92750000Y-22300000D02*
X92750000Y-25700000D01*
X92750000Y-25700000D02*
X91100000Y-25700000D01*
%TO.C,TP5*%
X81000000Y-37000000D02*
G75*
G02*
X79000000Y-37000000I-1000000J0D01*
G01*
X79000000Y-37000000D02*
G75*
G02*
X81000000Y-37000000I1000000J0D01*
G01*
%TO.C,LD1*%
X7250000Y-7550000D02*
X7250000Y-14450000D01*
X7250000Y-14450000D02*
X12750000Y-14450000D01*
X12750000Y-7550000D02*
X7250000Y-7550000D01*
X12750000Y-14450000D02*
X12750000Y-7550000D01*
%TO.C,LD7*%
X107250020Y-7550000D02*
X107250020Y-14450000D01*
X107250020Y-14450000D02*
X112750020Y-14450000D01*
X112750020Y-7550000D02*
X107250020Y-7550000D01*
X112750020Y-14450000D02*
X112750020Y-7550000D01*
%TO.C,J3_1*%
X129000000Y-28000000D02*
G75*
G02*
X127000000Y-28000000I-1000000J0D01*
G01*
X127000000Y-28000000D02*
G75*
G02*
X129000000Y-28000000I1000000J0D01*
G01*
%TO.C,LD9*%
X140583360Y-7550000D02*
X140583360Y-14450000D01*
X140583360Y-14450000D02*
X146083360Y-14450000D01*
X146083360Y-7550000D02*
X140583360Y-7550000D01*
X146083360Y-14450000D02*
X146083360Y-7550000D01*
%TO.C,TP1*%
X117000000Y-21000000D02*
G75*
G02*
X115000000Y-21000000I-1000000J0D01*
G01*
X115000000Y-21000000D02*
G75*
G02*
X117000000Y-21000000I1000000J0D01*
G01*
%TO.C,U1*%
X93200000Y-29500000D02*
X106800000Y-29500000D01*
X93200000Y-46500000D02*
X93200000Y-29500000D01*
X106800000Y-29500000D02*
X106800000Y-46500000D01*
X106800000Y-46500000D02*
X93200000Y-46500000D01*
%TO.C,F1*%
X95050000Y-21050000D02*
X100950000Y-21050000D01*
X100950000Y-24950000D01*
X95050000Y-24950000D01*
X95050000Y-21050000D01*
%TO.C,C2*%
X108300000Y-29520000D02*
X111700000Y-29520000D01*
X111700000Y-31480000D01*
X108300000Y-31480000D01*
X108300000Y-29520000D01*
%TO.C,TP9*%
X109500000Y-42000000D02*
G75*
G02*
X107500000Y-42000000I-1000000J0D01*
G01*
X107500000Y-42000000D02*
G75*
G02*
X109500000Y-42000000I1000000J0D01*
G01*
%TO.C,R5*%
X109070000Y-35530000D02*
X110930000Y-35530000D01*
X110930000Y-36470000D01*
X109070000Y-36470000D01*
X109070000Y-35530000D01*
%TO.C,J2_2*%
X118500000Y-41000000D02*
G75*
G02*
X116500000Y-41000000I-1000000J0D01*
G01*
X116500000Y-41000000D02*
G75*
G02*
X118500000Y-41000000I1000000J0D01*
G01*
%TO.C,TP2*%
X119000000Y-30500000D02*
G75*
G02*
X117000000Y-30500000I-1000000J0D01*
G01*
X117000000Y-30500000D02*
G75*
G02*
X119000000Y-30500000I1000000J0D01*
G01*
%TO.C,TP3*%
X119000000Y-33000000D02*
G75*
G02*
X117000000Y-33000000I-1000000J0D01*
G01*
X117000000Y-33000000D02*
G75*
G02*
X119000000Y-33000000I1000000J0D01*
G01*
%TO.C,TP8*%
X109500000Y-39500000D02*
G75*
G02*
X107500000Y-39500000I-1000000J0D01*
G01*
X107500000Y-39500000D02*
G75*
G02*
X109500000Y-39500000I1000000J0D01*
G01*
%TO.C,U3*%
X113950000Y-23500000D02*
X114950000Y-23500000D01*
X113950000Y-26500000D02*
X113950000Y-23500000D01*
X114950000Y-23300000D02*
X117050000Y-23300000D01*
X114950000Y-23500000D02*
X114950000Y-23300000D01*
X114950000Y-26500000D02*
X113950000Y-26500000D01*
X114950000Y-26700000D02*
X114950000Y-26500000D01*
X117050000Y-23300000D02*
X117050000Y-23500000D01*
X117050000Y-23500000D02*
X118050000Y-23500000D01*
X117050000Y-24610000D02*
X117050000Y-25390000D01*
X117050000Y-25390000D02*
X118050000Y-25390000D01*
X117050000Y-26500000D02*
X117050000Y-26700000D01*
X117050000Y-26700000D02*
X114950000Y-26700000D01*
X118050000Y-23500000D02*
X118050000Y-24610000D01*
X118050000Y-24610000D02*
X117050000Y-24610000D01*
X118050000Y-25390000D02*
X118050000Y-26500000D01*
X118050000Y-26500000D02*
X117050000Y-26500000D01*
%TD*%
M02*
