%TF.GenerationSoftware,KiCad,Pcbnew,10.0.5*%
%TF.CreationDate,2026-08-20T12:21:45+02:00*%
%TF.ProjectId,fl11,666c3131-2e6b-4696-9361-645f70636258,rev?*%
%TF.SameCoordinates,Original*%
%TF.FileFunction,Profile,NP*%
%FSLAX46Y46*%
G04 Gerber Fmt 4.6, Leading zero omitted, Abs format (unit mm)*
G04 Created by KiCad (PCBNEW 10.0.5) date 2026-08-20 12:21:45*
%MOMM*%
%LPD*%
G01*
G04 APERTURE LIST*
%TA.AperFunction,Profile*%
%ADD10C,0.100000*%
%TD*%
G04 APERTURE END LIST*
D10*
X0Y0D02*
X282000000Y0D01*
X0Y-20000000D02*
X0Y0D01*
X249600000Y-350000D02*
X249600000Y-2650000D01*
X249600000Y-350000D02*
X250400000Y-350000D01*
X249600000Y-2650000D02*
X250400000Y-2650000D01*
X249600000Y-3350000D02*
X249600000Y-7830000D01*
X249600000Y-3350000D02*
X250400000Y-3350000D01*
X249600000Y-7830000D02*
X250400000Y-7830000D01*
X249600000Y-9630000D02*
X249600000Y-10370000D01*
X249600000Y-9630000D02*
X250400000Y-9630000D01*
X249600000Y-10370000D02*
X250400000Y-10370000D01*
X249600000Y-12170000D02*
X249600000Y-16149999D01*
X249600000Y-12170000D02*
X250400000Y-12170000D01*
X249600000Y-16149999D02*
X250400000Y-16149999D01*
X249600000Y-16850000D02*
X249600000Y-19650000D01*
X249600000Y-16850000D02*
X250400000Y-16850000D01*
X249600000Y-19650000D02*
X250400000Y-19650000D01*
X250400000Y-350000D02*
X250400000Y-2650000D01*
X250400000Y-3350000D02*
X250400000Y-7830000D01*
X250400000Y-9630000D02*
X250400000Y-10370000D01*
X250400000Y-12170000D02*
X250400000Y-16149999D01*
X250400000Y-16850000D02*
X250400000Y-19650000D01*
X282000000Y0D02*
X282000000Y-20000000D01*
X282000000Y-20000000D02*
X0Y-20000000D01*
M02*
