M48
; DRILL file KiCad 10.0.5 date 2026-08-20T15:23:36
; FORMAT={-:-/ absolute / metric / decimal}
; #@! TF.CreationDate,2026-08-20T15:23:36+02:00
; #@! TF.GenerationSoftware,Kicad,Pcbnew,10.0.5
; #@! TF.FileFunction,Plated,1,2,PTH
FMAT,2
METRIC
; #@! TA.AperFunction,Plated,PTH,ViaDrill
T1C0.300
; #@! TA.AperFunction,Plated,PTH,ComponentDrill
T2C0.600
%
G90
G05
T1
X6.0Y-2.0
X6.0Y-4.0
X6.0Y-6.0
X11.0Y-2.0
X11.0Y-4.0
X11.0Y-6.0
X13.88Y-15.1
X16.0Y-2.0
X16.0Y-4.0
X16.0Y-6.0
X21.0Y-2.0
X21.0Y-4.0
X21.0Y-6.0
X25.013Y-15.1
X26.0Y-2.0
X26.0Y-4.0
X26.0Y-6.0
X31.0Y-2.0
X31.0Y-4.0
X31.0Y-6.0
X36.0Y-2.0
X36.0Y-4.0
X36.0Y-6.0
X36.147Y-15.1
X41.0Y-2.0
X41.0Y-4.0
X41.0Y-6.0
X46.0Y-2.0
X46.0Y-4.0
X46.0Y-6.0
X47.28Y-15.1
X51.0Y-2.0
X51.0Y-4.0
X51.0Y-6.0
X56.0Y-2.0
X56.0Y-4.0
X56.0Y-6.0
X58.413Y-15.1
X61.0Y-2.0
X61.0Y-4.0
X61.0Y-6.0
X66.0Y-2.0
X66.0Y-4.0
X66.0Y-6.0
X69.547Y-15.1
X70.2Y-40.72
X71.0Y-2.0
X71.0Y-4.0
X71.0Y-6.0
X73.444Y-38.127
X74.0Y-21.0
X74.0Y-27.0
X74.0Y-31.0
X74.0Y-35.0
X74.0Y-43.0
X74.0Y-46.5
X76.0Y-2.0
X76.0Y-4.0
X76.0Y-6.0
X77.0Y-36.0
X77.0Y-39.9
X78.0Y-21.0
X78.0Y-24.0
X78.0Y-31.0
X78.0Y-35.0
X78.0Y-43.0
X80.68Y-15.1
X80.792Y-42.756
X81.0Y-2.0
X81.0Y-4.0
X81.0Y-6.0
X81.117Y-32.814
X81.25Y-24.5
X82.0Y-21.0
X82.0Y-24.0
X82.0Y-27.0
X82.455Y-41.038
X83.658Y-46.688
X83.941Y-39.704
X84.51Y-37.0
X84.588Y-21.65
X85.41Y-42.875
X86.0Y-2.0
X86.0Y-4.0
X86.0Y-6.0
X86.0Y-24.0
X86.0Y-27.0
X86.0Y-35.0
X86.263Y-41.0
X87.01Y-36.1
X87.763Y-33.35
X88.195Y-31.794
X88.51Y-34.5
X89.8Y-26.617
X90.0Y-46.5
X90.297Y-41.038
X91.0Y-2.0
X91.0Y-4.0
X91.0Y-6.0
X91.813Y-15.1
X93.245Y-21.652
X93.579Y-33.136
X93.674Y-34.963
X94.0Y-39.0
X94.228Y-32.382
X94.54Y-35.038
X95.0Y-39.0
X95.98Y-26.5
X96.0Y-2.0
X96.0Y-4.0
X96.0Y-6.0
X96.45Y-31.35
X96.474Y-18.75
X99.01Y-25.6
X101.0Y-2.0
X101.0Y-4.0
X101.0Y-6.0
X102.069Y-27.933
X102.325Y-33.247
X102.339Y-24.65
X102.365Y-47.5
X102.947Y-15.1
X103.265Y-21.05
X105.637Y-30.849
X105.637Y-39.188
X105.787Y-41.95
X106.0Y-2.0
X106.0Y-4.0
X106.0Y-6.0
X108.596Y-50.568
X108.622Y-35.55
X109.099Y-34.282
X110.0Y-43.0
X110.0Y-46.5
X110.262Y-23.0
X110.95Y-30.0
X111.0Y-2.0
X111.0Y-4.0
X111.0Y-6.0
X111.331Y-27.366
X113.98Y-28.5
X114.0Y-21.0
X114.0Y-35.0
X114.0Y-39.0
X114.08Y-15.1
X115.45Y-23.0
X115.45Y-26.5
X116.0Y-2.0
X116.0Y-4.0
X116.0Y-6.0
X117.274Y-41.95
X118.0Y-43.0
X118.0Y-46.5
X121.0Y-2.0
X121.0Y-4.0
X121.0Y-6.0
X125.213Y-15.1
X126.0Y-2.0
X126.0Y-4.0
X126.0Y-6.0
X131.0Y-2.0
X131.0Y-4.0
X131.0Y-6.0
X131.5Y-32.0
X133.0Y-32.0
X133.0Y-48.6
X134.5Y-44.0
X136.0Y-2.0
X136.0Y-4.0
X136.0Y-6.0
X136.347Y-15.1
X141.0Y-2.0
X141.0Y-4.0
X141.0Y-6.0
X146.0Y-2.0
X146.0Y-4.0
X146.0Y-6.0
X147.48Y-15.1
X149.961Y-7.15
X151.0Y-2.0
X151.0Y-4.0
X151.0Y-6.0
X156.0Y-2.0
X156.0Y-4.0
X156.0Y-6.0
X158.613Y-15.1
X161.0Y-2.0
X161.0Y-4.0
X161.0Y-6.0
X166.0Y-2.0
X166.0Y-4.0
X166.0Y-6.0
X169.747Y-15.1
X171.0Y-2.0
X171.0Y-4.0
X171.0Y-6.0
X176.0Y-2.0
X176.0Y-4.0
X176.0Y-6.0
X181.0Y-2.0
X181.0Y-4.0
X181.0Y-6.0
T2
X77.68Y-45.32G85X77.68Y-46.42
G05
X77.68Y-49.75G85X77.68Y-50.35
G05
X86.32Y-45.32G85X86.32Y-46.42
G05
X86.32Y-49.75G85X86.32Y-50.35
G05
M30
