%TF.GenerationSoftware,KiCad,Pcbnew,10.0.5*%
%TF.CreationDate,2026-08-20T12:21:45+02:00*%
%TF.ProjectId,fl11,666c3131-2e6b-4696-9361-645f70636258,rev?*%
%TF.SameCoordinates,Original*%
%TF.FileFunction,Copper,L1,Top*%
%TF.FilePolarity,Positive*%
%FSLAX46Y46*%
G04 Gerber Fmt 4.6, Leading zero omitted, Abs format (unit mm)*
G04 Created by KiCad (PCBNEW 10.0.5) date 2026-08-20 12:21:45*
%MOMM*%
%LPD*%
G01*
G04 APERTURE LIST*
G04 Aperture macros list*
%AMRoundRect*
0 Rectangle with rounded corners*
0 $1 Rounding radius*
0 $2 $3 $4 $5 $6 $7 $8 $9 X,Y pos of 4 corners*
0 Add a 4 corners polygon primitive as box body*
4,1,4,$2,$3,$4,$5,$6,$7,$8,$9,$2,$3,0*
0 Add four circle primitives for the rounded corners*
1,1,$1+$1,$2,$3*
1,1,$1+$1,$4,$5*
1,1,$1+$1,$6,$7*
1,1,$1+$1,$8,$9*
0 Add four rect primitives between the rounded corners*
20,1,$1+$1,$2,$3,$4,$5,0*
20,1,$1+$1,$4,$5,$6,$7,0*
20,1,$1+$1,$6,$7,$8,$9,0*
20,1,$1+$1,$8,$9,$2,$3,0*%
%AMFreePoly0*
4,1,6,0.725000,-0.725000,-0.725000,-0.725000,-0.725000,0.125000,-0.125000,0.725000,0.725000,0.725000,0.725000,-0.725000,0.725000,-0.725000,$1*%
G04 Aperture macros list end*
%TA.AperFunction,SMDPad,CuDef*%
%ADD10RoundRect,0.140000X0.170000X-0.140000X0.170000X0.140000X-0.170000X0.140000X-0.170000X-0.140000X0*%
%TD*%
%TA.AperFunction,SMDPad,CuDef*%
%ADD11C,1.000000*%
%TD*%
%TA.AperFunction,SMDPad,CuDef*%
%ADD12RoundRect,0.140000X-0.140000X-0.170000X0.140000X-0.170000X0.140000X0.170000X-0.140000X0.170000X0*%
%TD*%
%TA.AperFunction,SMDPad,CuDef*%
%ADD13RoundRect,0.150000X-0.512500X-0.150000X0.512500X-0.150000X0.512500X0.150000X-0.512500X0.150000X0*%
%TD*%
%TA.AperFunction,SMDPad,CuDef*%
%ADD14RoundRect,0.250000X-0.312500X-1.450000X0.312500X-1.450000X0.312500X1.450000X-0.312500X1.450000X0*%
%TD*%
%TA.AperFunction,SMDPad,CuDef*%
%ADD15RoundRect,0.135000X-0.135000X-0.185000X0.135000X-0.185000X0.135000X0.185000X-0.135000X0.185000X0*%
%TD*%
%TA.AperFunction,SMDPad,CuDef*%
%ADD16RoundRect,0.090000X0.360000X-0.660000X0.360000X0.660000X-0.360000X0.660000X-0.360000X-0.660000X0*%
%TD*%
%TA.AperFunction,SMDPad,CuDef*%
%ADD17RoundRect,0.250000X-0.250000X-0.475000X0.250000X-0.475000X0.250000X0.475000X-0.250000X0.475000X0*%
%TD*%
%TA.AperFunction,SMDPad,CuDef*%
%ADD18RoundRect,0.150000X-0.587500X-0.150000X0.587500X-0.150000X0.587500X0.150000X-0.587500X0.150000X0*%
%TD*%
%TA.AperFunction,SMDPad,CuDef*%
%ADD19RoundRect,0.150000X0.575000X-0.150000X0.575000X0.150000X-0.575000X0.150000X-0.575000X-0.150000X0*%
%TD*%
%TA.AperFunction,SMDPad,CuDef*%
%ADD20RoundRect,0.075000X0.650000X-0.075000X0.650000X0.075000X-0.650000X0.075000X-0.650000X-0.075000X0*%
%TD*%
%TA.AperFunction,ComponentPad*%
%ADD21O,2.100000X1.000000*%
%TD*%
%TA.AperFunction,ComponentPad*%
%ADD22O,1.600000X1.000000*%
%TD*%
%TA.AperFunction,SMDPad,CuDef*%
%ADD23R,0.800000X0.400000*%
%TD*%
%TA.AperFunction,SMDPad,CuDef*%
%ADD24R,0.400000X0.800000*%
%TD*%
%TA.AperFunction,SMDPad,CuDef*%
%ADD25FreePoly0,0.000000*%
%TD*%
%TA.AperFunction,SMDPad,CuDef*%
%ADD26R,1.450000X1.450000*%
%TD*%
%TA.AperFunction,SMDPad,CuDef*%
%ADD27R,0.700000X0.700000*%
%TD*%
%TA.AperFunction,SMDPad,CuDef*%
%ADD28RoundRect,0.250000X-0.450000X-0.275000X0.450000X-0.275000X0.450000X0.275000X-0.450000X0.275000X0*%
%TD*%
%TA.AperFunction,SMDPad,CuDef*%
%ADD29RoundRect,0.250000X1.000000X-1.500000X1.000000X1.500000X-1.000000X1.500000X-1.000000X-1.500000X0*%
%TD*%
%TA.AperFunction,ViaPad*%
%ADD30C,0.600000*%
%TD*%
%TA.AperFunction,Conductor*%
%ADD31C,0.500000*%
%TD*%
%TA.AperFunction,Conductor*%
%ADD32C,0.300000*%
%TD*%
%TA.AperFunction,Conductor*%
%ADD33C,0.250000*%
%TD*%
G04 APERTURE END LIST*
D10*
%TO.P,C15,1*%
%TO.N,LED_5V*%
X150733000Y-15980000D03*
%TO.P,C15,2*%
%TO.N,GND*%
X150733000Y-15020000D03*
%TD*%
D11*
%TO.P,TP11,1*%
%TO.N,VBUS_F*%
X16000000Y-7500000D03*
%TD*%
D12*
%TO.P,C8,1*%
%TO.N,EN*%
X30520000Y-17600000D03*
%TO.P,C8,2*%
%TO.N,GND*%
X31480000Y-17600000D03*
%TD*%
D11*
%TO.P,TP6,1*%
%TO.N,TOUCH_SENSE*%
X58600000Y-3600000D03*
%TD*%
D13*
%TO.P,U3,1*%
%TO.N,+5V*%
X31862500Y-8050000D03*
%TO.P,U3,2*%
%TO.N,GND*%
X31862500Y-9000000D03*
%TO.P,U3,3*%
%TO.N,+5V*%
X31862500Y-9950000D03*
%TO.P,U3,4*%
%TO.N,N/C*%
X34137500Y-9950000D03*
%TO.P,U3,5*%
%TO.N,+3V3*%
X34137500Y-8050000D03*
%TD*%
D10*
%TO.P,C19,1*%
%TO.N,LED_5V*%
X217400000Y-15980000D03*
%TO.P,C19,2*%
%TO.N,GND*%
X217400000Y-15020000D03*
%TD*%
D11*
%TO.P,J3_2,1*%
%TO.N,GND*%
X254000000Y-11270000D03*
%TD*%
D14*
%TO.P,F1,1*%
%TO.N,VBUS_RAW*%
X17862500Y-2600000D03*
%TO.P,F1,2*%
%TO.N,VBUS_F*%
X22137500Y-2600000D03*
%TD*%
D15*
%TO.P,R4,1*%
%TO.N,+3V3*%
X40990000Y-18700000D03*
%TO.P,R4,2*%
%TO.N,STRAP2*%
X42010000Y-18700000D03*
%TD*%
D10*
%TO.P,C17,1*%
%TO.N,LED_5V*%
X184067000Y-15980000D03*
%TO.P,C17,2*%
%TO.N,GND*%
X184067000Y-15020000D03*
%TD*%
D16*
%TO.P,LD7,1*%
%TO.N,LED_5V*%
X162350000Y-13450000D03*
%TO.P,LD7,2*%
%TO.N,D_7_8*%
X165650000Y-13450000D03*
%TO.P,LD7,3*%
%TO.N,GND*%
X165650000Y-8550000D03*
%TO.P,LD7,4*%
%TO.N,D_6_7*%
X162350000Y-8550000D03*
%TD*%
D10*
%TO.P,C13,1*%
%TO.N,LED_5V*%
X117400000Y-15980000D03*
%TO.P,C13,2*%
%TO.N,GND*%
X117400000Y-15020000D03*
%TD*%
D17*
%TO.P,C3,1*%
%TO.N,+3V3*%
X32050000Y-5800000D03*
%TO.P,C3,2*%
%TO.N,GND*%
X33950000Y-5800000D03*
%TD*%
D10*
%TO.P,C12,1*%
%TO.N,LED_5V*%
X100733000Y-15980000D03*
%TO.P,C12,2*%
%TO.N,GND*%
X100733000Y-15020000D03*
%TD*%
%TO.P,C11,1*%
%TO.N,LED_5V*%
X84067000Y-15980000D03*
%TO.P,C11,2*%
%TO.N,GND*%
X84067000Y-15020000D03*
%TD*%
D15*
%TO.P,R11,1*%
%TO.N,LED_DATA_5V*%
X57990000Y-13500000D03*
%TO.P,R11,2*%
%TO.N,LED_DIN1*%
X59010000Y-13500000D03*
%TD*%
D12*
%TO.P,C6,1*%
%TO.N,LED_5V*%
X51420000Y-13500000D03*
%TO.P,C6,2*%
%TO.N,GND*%
X52380000Y-13500000D03*
%TD*%
D18*
%TO.P,Q1,1*%
%TO.N,GATE*%
X29562500Y-1850000D03*
%TO.P,Q1,2*%
%TO.N,VBUS_F*%
X29562500Y-3750000D03*
%TO.P,Q1,3*%
%TO.N,+5V*%
X31437500Y-2800000D03*
%TD*%
D15*
%TO.P,R5,1*%
%TO.N,+3V3*%
X43490000Y-18700000D03*
%TO.P,R5,2*%
%TO.N,STRAP8*%
X44510000Y-18700000D03*
%TD*%
D16*
%TO.P,LD11,1*%
%TO.N,LED_5V*%
X229017000Y-13450000D03*
%TO.P,LD11,2*%
%TO.N,LD11_DOUT*%
X232317000Y-13450000D03*
%TO.P,LD11,3*%
%TO.N,GND*%
X232317000Y-8550000D03*
%TO.P,LD11,4*%
%TO.N,D_10_11*%
X229017000Y-8550000D03*
%TD*%
D13*
%TO.P,U2,1*%
%TO.N,GND*%
X54362500Y-12550000D03*
%TO.P,U2,2*%
%TO.N,LED_DATA_3V3*%
X54362500Y-13500000D03*
%TO.P,U2,3*%
%TO.N,GND*%
X54362500Y-14450000D03*
%TO.P,U2,4*%
%TO.N,LED_DATA_5V*%
X56637500Y-14450000D03*
%TO.P,U2,5*%
%TO.N,LED_5V*%
X56637500Y-12550000D03*
%TD*%
D10*
%TO.P,C18,1*%
%TO.N,LED_5V*%
X200733000Y-15980000D03*
%TO.P,C18,2*%
%TO.N,GND*%
X200733000Y-15020000D03*
%TD*%
D16*
%TO.P,LD8,1*%
%TO.N,LED_5V*%
X179017000Y-13450000D03*
%TO.P,LD8,2*%
%TO.N,D_8_9*%
X182317000Y-13450000D03*
%TO.P,LD8,3*%
%TO.N,GND*%
X182317000Y-8550000D03*
%TO.P,LD8,4*%
%TO.N,D_7_8*%
X179017000Y-8550000D03*
%TD*%
%TO.P,LD4,1*%
%TO.N,LED_5V*%
X112350000Y-13450000D03*
%TO.P,LD4,2*%
%TO.N,D_4_5*%
X115650000Y-13450000D03*
%TO.P,LD4,3*%
%TO.N,GND*%
X115650000Y-8550000D03*
%TO.P,LD4,4*%
%TO.N,D_3_4*%
X112350000Y-8550000D03*
%TD*%
D12*
%TO.P,C7,1*%
%TO.N,GATE*%
X35020000Y-4000000D03*
%TO.P,C7,2*%
%TO.N,VBUS_F*%
X35980000Y-4000000D03*
%TD*%
D16*
%TO.P,LD5,1*%
%TO.N,LED_5V*%
X129017000Y-13450000D03*
%TO.P,LD5,2*%
%TO.N,D_5_6*%
X132317000Y-13450000D03*
%TO.P,LD5,3*%
%TO.N,GND*%
X132317000Y-8550000D03*
%TO.P,LD5,4*%
%TO.N,D_4_5*%
X129017000Y-8550000D03*
%TD*%
D11*
%TO.P,TP9,1*%
%TO.N,UART_RX*%
X35200000Y-15000000D03*
%TD*%
D12*
%TO.P,C9,1*%
%TO.N,+3V3*%
X52020000Y-10200000D03*
%TO.P,C9,2*%
%TO.N,GND*%
X52980000Y-10200000D03*
%TD*%
D11*
%TO.P,J3_1,1*%
%TO.N,TOUCH_SENSE*%
X254000000Y-8730000D03*
%TD*%
%TO.P,TP1,1*%
%TO.N,LED_5V*%
X59000000Y-15500000D03*
%TD*%
D15*
%TO.P,R1,1*%
%TO.N,CC1*%
X2990000Y-18600000D03*
%TO.P,R1,2*%
%TO.N,GND*%
X4010000Y-18600000D03*
%TD*%
D13*
%TO.P,U4,1*%
%TO.N,USB_DM_CONN*%
X17862500Y-16550000D03*
%TO.P,U4,2*%
%TO.N,GND*%
X17862500Y-17500000D03*
%TO.P,U4,3*%
%TO.N,USB_DP_CONN*%
X17862500Y-18450000D03*
%TO.P,U4,4*%
%TO.N,USB_DP*%
X20137500Y-18450000D03*
%TO.P,U4,5*%
%TO.N,VBUS_RAW*%
X20137500Y-17500000D03*
%TO.P,U4,6*%
%TO.N,USB_DM*%
X20137500Y-16550000D03*
%TD*%
D11*
%TO.P,TP7,1*%
%TO.N,LD11_DOUT*%
X240000000Y-13000000D03*
%TD*%
D10*
%TO.P,C20,1*%
%TO.N,LED_5V*%
X234067000Y-15980000D03*
%TO.P,C20,2*%
%TO.N,GND*%
X234067000Y-15020000D03*
%TD*%
D17*
%TO.P,C5,1*%
%TO.N,LED_5V*%
X52950000Y-17000000D03*
%TO.P,C5,2*%
%TO.N,GND*%
X54850000Y-17000000D03*
%TD*%
D10*
%TO.P,C10,1*%
%TO.N,LED_5V*%
X67400000Y-15980000D03*
%TO.P,C10,2*%
%TO.N,GND*%
X67400000Y-15020000D03*
%TD*%
D19*
%TO.P,J1,A1*%
%TO.N,GND*%
X1955000Y-13250000D03*
%TO.P,J1,A4*%
%TO.N,VBUS_RAW*%
X1955000Y-12450000D03*
D20*
%TO.P,J1,A5*%
%TO.N,CC1*%
X1955000Y-11250000D03*
%TO.P,J1,A6*%
%TO.N,USB_DP_CONN*%
X1955000Y-10250000D03*
%TO.P,J1,A7*%
%TO.N,USB_DM_CONN*%
X1955000Y-9750000D03*
%TO.P,J1,A8*%
%TO.N,N/C*%
X1955000Y-8750000D03*
D19*
%TO.P,J1,A9*%
%TO.N,VBUS_RAW*%
X1955000Y-7550000D03*
%TO.P,J1,A12*%
%TO.N,GND*%
X1955000Y-6750000D03*
%TO.P,J1,B1*%
X1955000Y-6750000D03*
%TO.P,J1,B4*%
%TO.N,VBUS_RAW*%
X1955000Y-7550000D03*
D20*
%TO.P,J1,B5*%
%TO.N,CC2*%
X1955000Y-8250000D03*
%TO.P,J1,B6*%
%TO.N,USB_DP_CONN*%
X1955000Y-9250000D03*
%TO.P,J1,B7*%
%TO.N,USB_DM_CONN*%
X1955000Y-10750000D03*
%TO.P,J1,B8*%
%TO.N,N/C*%
X1955000Y-11750000D03*
D19*
%TO.P,J1,B9*%
%TO.N,VBUS_RAW*%
X1955000Y-12450000D03*
%TO.P,J1,B12*%
%TO.N,GND*%
X1955000Y-13250000D03*
D21*
%TO.P,J1,SH*%
X2870000Y-14320000D03*
D22*
X7050000Y-14320000D03*
D21*
X2870000Y-5680000D03*
D22*
X7050000Y-5680000D03*
%TD*%
D16*
%TO.P,LD2,1*%
%TO.N,LED_5V*%
X79017000Y-13450000D03*
%TO.P,LD2,2*%
%TO.N,D_2_3*%
X82317000Y-13450000D03*
%TO.P,LD2,3*%
%TO.N,GND*%
X82317000Y-8550000D03*
%TO.P,LD2,4*%
%TO.N,D_1_2*%
X79017000Y-8550000D03*
%TD*%
D15*
%TO.P,R6,1*%
%TO.N,+3V3*%
X45990000Y-18700000D03*
%TO.P,R6,2*%
%TO.N,BOOT_N*%
X47010000Y-18700000D03*
%TD*%
D17*
%TO.P,C4,1*%
%TO.N,+3V3*%
X52050000Y-8000000D03*
%TO.P,C4,2*%
%TO.N,GND*%
X53950000Y-8000000D03*
%TD*%
D15*
%TO.P,R7,1*%
%TO.N,TOUCH_GPIO*%
X55490000Y-3600000D03*
%TO.P,R7,2*%
%TO.N,TOUCH_SENSE*%
X56510000Y-3600000D03*
%TD*%
%TO.P,R10,1*%
%TO.N,TOUCH_GPIO*%
X52990000Y-3600000D03*
%TO.P,R10,2*%
%TO.N,GND*%
X54010000Y-3600000D03*
%TD*%
D23*
%TO.P,U1,1*%
%TO.N,GND*%
X38100000Y-7600000D03*
%TO.P,U1,2*%
X38100000Y-8400000D03*
%TO.P,U1,3*%
%TO.N,+3V3*%
X38100000Y-9200000D03*
%TO.P,U1,4*%
%TO.N,N/C*%
X38100000Y-10000000D03*
%TO.P,U1,5*%
%TO.N,STRAP2*%
X38100000Y-10800000D03*
%TO.P,U1,6*%
%TO.N,TOUCH_GPIO*%
X38100000Y-11600000D03*
%TO.P,U1,7*%
%TO.N,N/C*%
X38100000Y-12400000D03*
%TO.P,U1,8*%
%TO.N,EN*%
X38100000Y-13200000D03*
%TO.P,U1,9*%
%TO.N,N/C*%
X38100000Y-14000000D03*
%TO.P,U1,10*%
X38100000Y-14800000D03*
%TO.P,U1,11*%
%TO.N,GND*%
X38100000Y-15600000D03*
D24*
%TO.P,U1,12*%
%TO.N,N/C*%
X39200000Y-16500000D03*
%TO.P,U1,13*%
X40000000Y-16500000D03*
%TO.P,U1,14*%
%TO.N,GND*%
X40800000Y-16500000D03*
%TO.P,U1,15*%
%TO.N,N/C*%
X41600000Y-16500000D03*
%TO.P,U1,16*%
X42400000Y-16500000D03*
%TO.P,U1,17*%
X43200000Y-16500000D03*
%TO.P,U1,18*%
X44000000Y-16500000D03*
%TO.P,U1,19*%
%TO.N,LED_DATA_3V3*%
X44800000Y-16500000D03*
%TO.P,U1,20*%
%TO.N,N/C*%
X45600000Y-16500000D03*
%TO.P,U1,21*%
X46400000Y-16500000D03*
%TO.P,U1,22*%
%TO.N,STRAP8*%
X47200000Y-16500000D03*
%TO.P,U1,23*%
%TO.N,BOOT_N*%
X48000000Y-16500000D03*
%TO.P,U1,24*%
%TO.N,N/C*%
X48800000Y-16500000D03*
D23*
%TO.P,U1,25*%
X49900000Y-15600000D03*
%TO.P,U1,26*%
%TO.N,USB_DM*%
X49900000Y-14800000D03*
%TO.P,U1,27*%
%TO.N,USB_DP*%
X49900000Y-14000000D03*
%TO.P,U1,28*%
%TO.N,N/C*%
X49900000Y-13200000D03*
%TO.P,U1,29*%
X49900000Y-12400000D03*
%TO.P,U1,30*%
%TO.N,UART_RX*%
X49900000Y-11600000D03*
%TO.P,U1,31*%
%TO.N,UART_TX*%
X49900000Y-10800000D03*
%TO.P,U1,32*%
%TO.N,N/C*%
X49900000Y-10000000D03*
%TO.P,U1,33*%
X49900000Y-9200000D03*
%TO.P,U1,34*%
X49900000Y-8400000D03*
%TO.P,U1,35*%
X49900000Y-7600000D03*
D24*
%TO.P,U1,36*%
%TO.N,GND*%
X48800000Y-6700000D03*
%TO.P,U1,37*%
X48000000Y-6700000D03*
%TO.P,U1,38*%
X47200000Y-6700000D03*
%TO.P,U1,39*%
X46400000Y-6700000D03*
%TO.P,U1,40*%
X45600000Y-6700000D03*
%TO.P,U1,41*%
X44800000Y-6700000D03*
%TO.P,U1,42*%
X44000000Y-6700000D03*
%TO.P,U1,43*%
X43200000Y-6700000D03*
%TO.P,U1,44*%
X42400000Y-6700000D03*
%TO.P,U1,45*%
X41600000Y-6700000D03*
%TO.P,U1,46*%
X40800000Y-6700000D03*
%TO.P,U1,47*%
X40000000Y-6700000D03*
%TO.P,U1,48*%
X39200000Y-6700000D03*
D25*
%TO.P,U1,49*%
X42025000Y-9625000D03*
D26*
X42025000Y-11600000D03*
X42025000Y-13575000D03*
X44000000Y-9625000D03*
X44000000Y-11600000D03*
X44000000Y-13575000D03*
X45975000Y-9625000D03*
X45975000Y-11600000D03*
X45975000Y-13575000D03*
D27*
%TO.P,U1,50*%
X49950000Y-6650000D03*
%TO.P,U1,51*%
X49950000Y-16550000D03*
%TO.P,U1,52*%
X38050000Y-16550000D03*
%TO.P,U1,53*%
X38050000Y-6650000D03*
%TD*%
D16*
%TO.P,LD10,1*%
%TO.N,LED_5V*%
X212350000Y-13450000D03*
%TO.P,LD10,2*%
%TO.N,D_10_11*%
X215650000Y-13450000D03*
%TO.P,LD10,3*%
%TO.N,GND*%
X215650000Y-8550000D03*
%TO.P,LD10,4*%
%TO.N,D_9_10*%
X212350000Y-8550000D03*
%TD*%
D28*
%TO.P,SW1,1*%
%TO.N,BOOT_N*%
X22700000Y-16880000D03*
X26300000Y-16880000D03*
%TO.P,SW1,2*%
%TO.N,GND*%
X22700000Y-18320000D03*
X26300000Y-18320000D03*
%TD*%
D11*
%TO.P,J2_1,1*%
%TO.N,TOUCH_SENSE*%
X245000000Y-8730000D03*
%TD*%
%TO.P,TP3,1*%
%TO.N,GND*%
X51300000Y-18700000D03*
%TD*%
D15*
%TO.P,R9,1*%
%TO.N,+3V3*%
X28190000Y-17600000D03*
%TO.P,R9,2*%
%TO.N,EN*%
X29210000Y-17600000D03*
%TD*%
D11*
%TO.P,TP10,1*%
%TO.N,EN*%
X29500000Y-12500000D03*
%TD*%
%TO.P,TP2,1*%
%TO.N,+3V3*%
X49000000Y-18700000D03*
%TD*%
D16*
%TO.P,LD3,1*%
%TO.N,LED_5V*%
X95683000Y-13450000D03*
%TO.P,LD3,2*%
%TO.N,D_3_4*%
X98983000Y-13450000D03*
%TO.P,LD3,3*%
%TO.N,GND*%
X98983000Y-8550000D03*
%TO.P,LD3,4*%
%TO.N,D_2_3*%
X95683000Y-8550000D03*
%TD*%
D11*
%TO.P,J2_2,1*%
%TO.N,GND*%
X245000000Y-11270000D03*
%TD*%
%TO.P,TP5,1*%
%TO.N,LED_DIN1*%
X59000000Y-7000000D03*
%TD*%
%TO.P,TP4,1*%
%TO.N,GND*%
X246000000Y-17500000D03*
%TD*%
D16*
%TO.P,LD9,1*%
%TO.N,LED_5V*%
X195683000Y-13450000D03*
%TO.P,LD9,2*%
%TO.N,D_9_10*%
X198983000Y-13450000D03*
%TO.P,LD9,3*%
%TO.N,GND*%
X198983000Y-8550000D03*
%TO.P,LD9,4*%
%TO.N,D_8_9*%
X195683000Y-8550000D03*
%TD*%
D15*
%TO.P,R3,1*%
%TO.N,LED_DATA_3V3*%
X56990000Y-16800000D03*
%TO.P,R3,2*%
%TO.N,GND*%
X58010000Y-16800000D03*
%TD*%
D17*
%TO.P,C2,1*%
%TO.N,+5V*%
X32050000Y-12500000D03*
%TO.P,C2,2*%
%TO.N,GND*%
X33950000Y-12500000D03*
%TD*%
D15*
%TO.P,R2,1*%
%TO.N,CC2*%
X5290000Y-18600000D03*
%TO.P,R2,2*%
%TO.N,GND*%
X6310000Y-18600000D03*
%TD*%
D29*
%TO.P,C1,1*%
%TO.N,LED_5V*%
X24000000Y-13450000D03*
%TO.P,C1,2*%
%TO.N,GND*%
X24000000Y-6950000D03*
%TD*%
D15*
%TO.P,R8,1*%
%TO.N,GATE*%
X34990000Y-2200000D03*
%TO.P,R8,2*%
%TO.N,GND*%
X36010000Y-2200000D03*
%TD*%
D11*
%TO.P,TP8,1*%
%TO.N,UART_TX*%
X35800000Y-12500000D03*
%TD*%
D16*
%TO.P,LD6,1*%
%TO.N,LED_5V*%
X145683000Y-13450000D03*
%TO.P,LD6,2*%
%TO.N,D_6_7*%
X148983000Y-13450000D03*
%TO.P,LD6,3*%
%TO.N,GND*%
X148983000Y-8550000D03*
%TO.P,LD6,4*%
%TO.N,D_5_6*%
X145683000Y-8550000D03*
%TD*%
D10*
%TO.P,C14,1*%
%TO.N,LED_5V*%
X134067000Y-15980000D03*
%TO.P,C14,2*%
%TO.N,GND*%
X134067000Y-15020000D03*
%TD*%
%TO.P,C16,1*%
%TO.N,LED_5V*%
X167400000Y-15980000D03*
%TO.P,C16,2*%
%TO.N,GND*%
X167400000Y-15020000D03*
%TD*%
D16*
%TO.P,LD1,1*%
%TO.N,LED_5V*%
X62350000Y-13450000D03*
%TO.P,LD1,2*%
%TO.N,D_1_2*%
X65650000Y-13450000D03*
%TO.P,LD1,3*%
%TO.N,GND*%
X65650000Y-8550000D03*
%TO.P,LD1,4*%
%TO.N,LED_DIN1*%
X62350000Y-8550000D03*
%TD*%
D30*
%TO.N,GND*%
X150733000Y-15020000D03*
X134067000Y-15020000D03*
X100733000Y-15020000D03*
X184067000Y-15020000D03*
X217400000Y-15020000D03*
X234067000Y-15020000D03*
X117400000Y-15020000D03*
X67400000Y-15020000D03*
X167400000Y-15020000D03*
X200733000Y-15020000D03*
X84067000Y-15020000D03*
%TD*%
%TO.N,GND*%
D31*
X245000000Y-11270000D02*
X256000000Y-11270000D01*
%TO.N,TOUCH_SENSE*%
D32*
X56510000Y-1400000D02*
X243000000Y-1400000D01*
X243000000Y-1400000D02*
X243000000Y-8730000D01*
X56510000Y-3600000D02*
X56510000Y-1400000D01*
X245000000Y-8730000D02*
X256000000Y-8730000D01*
X243000000Y-8730000D02*
X245000000Y-8730000D01*
X58600000Y-3600000D02*
X58600000Y-1400000D01*
%TO.N,D_7_8*%
D33*
X165650000Y-11000000D02*
X179017000Y-11000000D01*
X179017000Y-11000000D02*
X179017000Y-8550000D01*
X165650000Y-13450000D02*
X165650000Y-11000000D01*
%TO.N,D_6_7*%
X162350000Y-11000000D02*
X162350000Y-8550000D01*
X148983000Y-13450000D02*
X148983000Y-11000000D01*
X148983000Y-11000000D02*
X162350000Y-11000000D01*
%TO.N,LED_DATA_5V*%
X56637500Y-14450000D02*
X57990000Y-13500000D01*
%TO.N,LED_DIN1*%
X59010000Y-13500000D02*
X59010000Y-11000000D01*
X62350000Y-11000000D02*
X62350000Y-8550000D01*
X59010000Y-11000000D02*
X62350000Y-11000000D01*
%TO.N,LD11_DOUT*%
X232317000Y-11000000D02*
X240000000Y-11000000D01*
X232317000Y-13450000D02*
X232317000Y-11000000D01*
X240000000Y-11000000D02*
X240000000Y-13000000D01*
%TO.N,D_10_11*%
X215650000Y-11000000D02*
X229017000Y-11000000D01*
X229017000Y-11000000D02*
X229017000Y-8550000D01*
X215650000Y-13450000D02*
X215650000Y-11000000D01*
%TO.N,D_8_9*%
X195683000Y-11000000D02*
X195683000Y-8550000D01*
X182317000Y-11000000D02*
X195683000Y-11000000D01*
X182317000Y-13450000D02*
X182317000Y-11000000D01*
%TO.N,D_4_5*%
X129017000Y-11000000D02*
X129017000Y-8550000D01*
X115650000Y-13450000D02*
X115650000Y-11000000D01*
X115650000Y-11000000D02*
X129017000Y-11000000D01*
%TO.N,D_3_4*%
X98983000Y-11000000D02*
X112350000Y-11000000D01*
X112350000Y-11000000D02*
X112350000Y-8550000D01*
X98983000Y-13450000D02*
X98983000Y-11000000D01*
%TO.N,D_5_6*%
X132317000Y-13450000D02*
X132317000Y-11000000D01*
X132317000Y-11000000D02*
X145683000Y-11000000D01*
X145683000Y-11000000D02*
X145683000Y-8550000D01*
%TO.N,D_2_3*%
X82317000Y-11000000D02*
X95683000Y-11000000D01*
X82317000Y-13450000D02*
X82317000Y-11000000D01*
X95683000Y-11000000D02*
X95683000Y-8550000D01*
%TO.N,D_1_2*%
X65650000Y-11000000D02*
X79017000Y-11000000D01*
X79017000Y-11000000D02*
X79017000Y-8550000D01*
X65650000Y-13450000D02*
X65650000Y-11000000D01*
%TO.N,D_9_10*%
X198983000Y-11000000D02*
X212350000Y-11000000D01*
X212350000Y-11000000D02*
X212350000Y-8550000D01*
X198983000Y-13450000D02*
X198983000Y-11000000D01*
%TD*%
%TA.AperFunction,Conductor*%
%TO.N,GND*%
G36*
X58142539Y-1919685D02*
G01*
X58188294Y-1972489D01*
X58199500Y-2024000D01*
X58199500Y-2276000D01*
X58179815Y-2343039D01*
X58127011Y-2388794D01*
X58075500Y-2400000D01*
X57034500Y-2400000D01*
X56967461Y-2380315D01*
X56921706Y-2327511D01*
X56910500Y-2276000D01*
X56910500Y-2024000D01*
X56930185Y-1956961D01*
X56982989Y-1911206D01*
X57034500Y-1900000D01*
X58075500Y-1900000D01*
X58142539Y-1919685D01*
G37*
%TD.AperFunction*%
%TA.AperFunction,Conductor*%
G36*
X242542539Y-1919685D02*
G01*
X242588294Y-1972489D01*
X242599500Y-2024000D01*
X242599500Y-2276000D01*
X242579815Y-2343039D01*
X242527011Y-2388794D01*
X242475500Y-2400000D01*
X59124500Y-2400000D01*
X59057461Y-2380315D01*
X59011706Y-2327511D01*
X59000500Y-2276000D01*
X59000500Y-2024000D01*
X59020185Y-1956961D01*
X59072989Y-1911206D01*
X59124500Y-1900000D01*
X242475500Y-1900000D01*
X242542539Y-1919685D01*
G37*
%TD.AperFunction*%
%TA.AperFunction,Conductor*%
G36*
X248943039Y-1919685D02*
G01*
X248988794Y-1972489D01*
X249000000Y-2024000D01*
X249000000Y-2276000D01*
X248980315Y-2343039D01*
X248927511Y-2388794D01*
X248876000Y-2400000D01*
X243524500Y-2400000D01*
X243457461Y-2380315D01*
X243411706Y-2327511D01*
X243400500Y-2276000D01*
X243400500Y-2024000D01*
X243420185Y-1956961D01*
X243472989Y-1911206D01*
X243524500Y-1900000D01*
X248876000Y-1900000D01*
X248943039Y-1919685D01*
G37*
%TD.AperFunction*%
%TD*%
%TA.AperFunction,Conductor*%
%TO.N,GND*%
G36*
X248943039Y-520185D02*
G01*
X248988794Y-572989D01*
X249000000Y-624500D01*
X249000000Y-776000D01*
X248980315Y-843039D01*
X248927511Y-888794D01*
X248876000Y-900000D01*
X56124000Y-900000D01*
X56056961Y-880315D01*
X56011206Y-827511D01*
X56000000Y-776000D01*
X56000000Y-624500D01*
X56019685Y-557461D01*
X56072489Y-511706D01*
X56124000Y-500500D01*
X248876000Y-500500D01*
X248943039Y-520185D01*
G37*
%TD.AperFunction*%
%TD*%
%TA.AperFunction,Conductor*%
%TO.N,GND*%
G36*
X58142539Y-2719685D02*
G01*
X58188294Y-2772489D01*
X58199500Y-2824000D01*
X58199500Y-2898707D01*
X58179815Y-2965746D01*
X58144392Y-3001808D01*
X58121586Y-3017046D01*
X58121580Y-3017051D01*
X58017051Y-3121580D01*
X58017048Y-3121584D01*
X57934919Y-3244498D01*
X57934912Y-3244511D01*
X57878343Y-3381082D01*
X57878340Y-3381092D01*
X57849500Y-3526079D01*
X57849500Y-3526082D01*
X57849500Y-3673918D01*
X57849500Y-3673920D01*
X57849499Y-3673920D01*
X57878340Y-3818907D01*
X57878343Y-3818917D01*
X57934912Y-3955488D01*
X57934919Y-3955501D01*
X58017048Y-4078415D01*
X58017051Y-4078419D01*
X58121580Y-4182948D01*
X58121584Y-4182951D01*
X58244498Y-4265080D01*
X58244511Y-4265087D01*
X58381082Y-4321656D01*
X58381087Y-4321658D01*
X58381091Y-4321658D01*
X58381092Y-4321659D01*
X58526079Y-4350500D01*
X58526082Y-4350500D01*
X58673920Y-4350500D01*
X58771462Y-4331096D01*
X58818913Y-4321658D01*
X58955495Y-4265084D01*
X59078416Y-4182951D01*
X59182951Y-4078416D01*
X59265084Y-3955495D01*
X59321658Y-3818913D01*
X59350500Y-3673918D01*
X59350500Y-3526082D01*
X59350500Y-3526079D01*
X59321659Y-3381092D01*
X59321658Y-3381091D01*
X59321658Y-3381087D01*
X59320555Y-3378423D01*
X59265087Y-3244511D01*
X59265080Y-3244498D01*
X59182951Y-3121584D01*
X59182948Y-3121580D01*
X59078419Y-3017051D01*
X59078413Y-3017046D01*
X59055608Y-3001808D01*
X59010804Y-2948196D01*
X59000500Y-2898707D01*
X59000500Y-2824000D01*
X59020185Y-2756961D01*
X59072989Y-2711206D01*
X59124500Y-2700000D01*
X242475500Y-2700000D01*
X242542539Y-2719685D01*
X242588294Y-2772489D01*
X242599500Y-2824000D01*
X242599500Y-8677273D01*
X242599500Y-8782727D01*
X242626793Y-8884587D01*
X242679520Y-8975913D01*
X242754087Y-9050480D01*
X242785495Y-9068613D01*
X242833711Y-9119180D01*
X242846933Y-9187787D01*
X242820965Y-9252652D01*
X242764051Y-9293180D01*
X242723495Y-9300000D01*
X233141000Y-9300000D01*
X233073961Y-9280315D01*
X233028206Y-9227511D01*
X233017000Y-9176000D01*
X233017000Y-8750000D01*
X231617000Y-8750000D01*
X231617000Y-9176000D01*
X231597315Y-9243039D01*
X231544511Y-9288794D01*
X231493000Y-9300000D01*
X229841500Y-9300000D01*
X229774461Y-9280315D01*
X229728706Y-9227511D01*
X229717500Y-9176000D01*
X229717499Y-7850166D01*
X231617000Y-7850166D01*
X231617000Y-8350000D01*
X232117000Y-8350000D01*
X232517000Y-8350000D01*
X233017000Y-8350000D01*
X233017000Y-7850166D01*
X233016998Y-7850149D01*
X233010481Y-7800645D01*
X232959807Y-7691975D01*
X232875024Y-7607192D01*
X232766353Y-7556518D01*
X232766354Y-7556518D01*
X232716850Y-7550001D01*
X232716833Y-7550000D01*
X232517000Y-7550000D01*
X232517000Y-8350000D01*
X232117000Y-8350000D01*
X232117000Y-7550000D01*
X231917167Y-7550000D01*
X231917149Y-7550001D01*
X231867645Y-7556518D01*
X231758975Y-7607192D01*
X231674192Y-7691975D01*
X231623518Y-7800645D01*
X231617001Y-7850149D01*
X231617000Y-7850166D01*
X229717499Y-7850166D01*
X229717499Y-7850105D01*
X229717499Y-7850100D01*
X229710972Y-7800513D01*
X229660224Y-7691684D01*
X229575316Y-7606776D01*
X229466487Y-7556028D01*
X229466485Y-7556027D01*
X229466486Y-7556027D01*
X229416901Y-7549500D01*
X228617105Y-7549500D01*
X228601386Y-7551569D01*
X228567513Y-7556028D01*
X228567511Y-7556029D01*
X228567509Y-7556029D01*
X228458683Y-7606776D01*
X228373776Y-7691683D01*
X228323027Y-7800514D01*
X228316500Y-7850098D01*
X228316501Y-9176000D01*
X228296816Y-9243039D01*
X228244013Y-9288794D01*
X228192501Y-9300000D01*
X216474000Y-9300000D01*
X216406961Y-9280315D01*
X216361206Y-9227511D01*
X216350000Y-9176000D01*
X216350000Y-8750000D01*
X214950000Y-8750000D01*
X214950000Y-9176000D01*
X214930315Y-9243039D01*
X214877511Y-9288794D01*
X214826000Y-9300000D01*
X213174500Y-9300000D01*
X213107461Y-9280315D01*
X213061706Y-9227511D01*
X213050500Y-9176000D01*
X213050499Y-7850166D01*
X214950000Y-7850166D01*
X214950000Y-8350000D01*
X215450000Y-8350000D01*
X215850000Y-8350000D01*
X216350000Y-8350000D01*
X216350000Y-7850166D01*
X216349998Y-7850149D01*
X216343481Y-7800645D01*
X216292807Y-7691975D01*
X216208024Y-7607192D01*
X216099353Y-7556518D01*
X216099354Y-7556518D01*
X216049850Y-7550001D01*
X216049833Y-7550000D01*
X215850000Y-7550000D01*
X215850000Y-8350000D01*
X215450000Y-8350000D01*
X215450000Y-7550000D01*
X215250167Y-7550000D01*
X215250149Y-7550001D01*
X215200645Y-7556518D01*
X215091975Y-7607192D01*
X215007192Y-7691975D01*
X214956518Y-7800645D01*
X214950001Y-7850149D01*
X214950000Y-7850166D01*
X213050499Y-7850166D01*
X213050499Y-7850105D01*
X213050499Y-7850100D01*
X213043972Y-7800513D01*
X212993224Y-7691684D01*
X212908316Y-7606776D01*
X212799487Y-7556028D01*
X212799485Y-7556027D01*
X212799486Y-7556027D01*
X212749901Y-7549500D01*
X211950105Y-7549500D01*
X211934386Y-7551569D01*
X211900513Y-7556028D01*
X211900511Y-7556029D01*
X211900509Y-7556029D01*
X211791683Y-7606776D01*
X211706776Y-7691683D01*
X211656027Y-7800514D01*
X211649500Y-7850098D01*
X211649501Y-9176000D01*
X211629816Y-9243039D01*
X211577013Y-9288794D01*
X211525501Y-9300000D01*
X199807000Y-9300000D01*
X199739961Y-9280315D01*
X199694206Y-9227511D01*
X199683000Y-9176000D01*
X199683000Y-8750000D01*
X198283000Y-8750000D01*
X198283000Y-9176000D01*
X198263315Y-9243039D01*
X198210511Y-9288794D01*
X198159000Y-9300000D01*
X196507500Y-9300000D01*
X196440461Y-9280315D01*
X196394706Y-9227511D01*
X196383500Y-9176000D01*
X196383499Y-7850166D01*
X198283000Y-7850166D01*
X198283000Y-8350000D01*
X198783000Y-8350000D01*
X199183000Y-8350000D01*
X199683000Y-8350000D01*
X199683000Y-7850166D01*
X199682998Y-7850149D01*
X199676481Y-7800645D01*
X199625807Y-7691975D01*
X199541024Y-7607192D01*
X199432353Y-7556518D01*
X199432354Y-7556518D01*
X199382850Y-7550001D01*
X199382833Y-7550000D01*
X199183000Y-7550000D01*
X199183000Y-8350000D01*
X198783000Y-8350000D01*
X198783000Y-7550000D01*
X198583167Y-7550000D01*
X198583149Y-7550001D01*
X198533645Y-7556518D01*
X198424975Y-7607192D01*
X198340192Y-7691975D01*
X198289518Y-7800645D01*
X198283001Y-7850149D01*
X198283000Y-7850166D01*
X196383499Y-7850166D01*
X196383499Y-7850105D01*
X196383499Y-7850100D01*
X196376972Y-7800513D01*
X196326224Y-7691684D01*
X196241316Y-7606776D01*
X196132487Y-7556028D01*
X196132485Y-7556027D01*
X196132486Y-7556027D01*
X196082901Y-7549500D01*
X195283105Y-7549500D01*
X195267386Y-7551569D01*
X195233513Y-7556028D01*
X195233511Y-7556029D01*
X195233509Y-7556029D01*
X195124683Y-7606776D01*
X195039776Y-7691683D01*
X194989027Y-7800514D01*
X194982500Y-7850098D01*
X194982501Y-9176000D01*
X194962816Y-9243039D01*
X194910013Y-9288794D01*
X194858501Y-9300000D01*
X183141000Y-9300000D01*
X183073961Y-9280315D01*
X183028206Y-9227511D01*
X183017000Y-9176000D01*
X183017000Y-8750000D01*
X181617000Y-8750000D01*
X181617000Y-9176000D01*
X181597315Y-9243039D01*
X181544511Y-9288794D01*
X181493000Y-9300000D01*
X179841500Y-9300000D01*
X179774461Y-9280315D01*
X179728706Y-9227511D01*
X179717500Y-9176000D01*
X179717499Y-7850166D01*
X181617000Y-7850166D01*
X181617000Y-8350000D01*
X182117000Y-8350000D01*
X182517000Y-8350000D01*
X183017000Y-8350000D01*
X183017000Y-7850166D01*
X183016998Y-7850149D01*
X183010481Y-7800645D01*
X182959807Y-7691975D01*
X182875024Y-7607192D01*
X182766353Y-7556518D01*
X182766354Y-7556518D01*
X182716850Y-7550001D01*
X182716833Y-7550000D01*
X182517000Y-7550000D01*
X182517000Y-8350000D01*
X182117000Y-8350000D01*
X182117000Y-7550000D01*
X181917167Y-7550000D01*
X181917149Y-7550001D01*
X181867645Y-7556518D01*
X181758975Y-7607192D01*
X181674192Y-7691975D01*
X181623518Y-7800645D01*
X181617001Y-7850149D01*
X181617000Y-7850166D01*
X179717499Y-7850166D01*
X179717499Y-7850105D01*
X179717499Y-7850100D01*
X179710972Y-7800513D01*
X179660224Y-7691684D01*
X179575316Y-7606776D01*
X179466487Y-7556028D01*
X179466485Y-7556027D01*
X179466486Y-7556027D01*
X179416901Y-7549500D01*
X178617105Y-7549500D01*
X178601386Y-7551569D01*
X178567513Y-7556028D01*
X178567511Y-7556029D01*
X178567509Y-7556029D01*
X178458683Y-7606776D01*
X178373776Y-7691683D01*
X178323027Y-7800514D01*
X178316500Y-7850098D01*
X178316501Y-9176000D01*
X178296816Y-9243039D01*
X178244013Y-9288794D01*
X178192501Y-9300000D01*
X166474000Y-9300000D01*
X166406961Y-9280315D01*
X166361206Y-9227511D01*
X166350000Y-9176000D01*
X166350000Y-8750000D01*
X164950000Y-8750000D01*
X164950000Y-9176000D01*
X164930315Y-9243039D01*
X164877511Y-9288794D01*
X164826000Y-9300000D01*
X163174500Y-9300000D01*
X163107461Y-9280315D01*
X163061706Y-9227511D01*
X163050500Y-9176000D01*
X163050499Y-7850166D01*
X164950000Y-7850166D01*
X164950000Y-8350000D01*
X165450000Y-8350000D01*
X165850000Y-8350000D01*
X166350000Y-8350000D01*
X166350000Y-7850166D01*
X166349998Y-7850149D01*
X166343481Y-7800645D01*
X166292807Y-7691975D01*
X166208024Y-7607192D01*
X166099353Y-7556518D01*
X166099354Y-7556518D01*
X166049850Y-7550001D01*
X166049833Y-7550000D01*
X165850000Y-7550000D01*
X165850000Y-8350000D01*
X165450000Y-8350000D01*
X165450000Y-7550000D01*
X165250167Y-7550000D01*
X165250149Y-7550001D01*
X165200645Y-7556518D01*
X165091975Y-7607192D01*
X165007192Y-7691975D01*
X164956518Y-7800645D01*
X164950001Y-7850149D01*
X164950000Y-7850166D01*
X163050499Y-7850166D01*
X163050499Y-7850105D01*
X163050499Y-7850100D01*
X163043972Y-7800513D01*
X162993224Y-7691684D01*
X162908316Y-7606776D01*
X162799487Y-7556028D01*
X162799485Y-7556027D01*
X162799486Y-7556027D01*
X162749901Y-7549500D01*
X161950105Y-7549500D01*
X161934386Y-7551569D01*
X161900513Y-7556028D01*
X161900511Y-7556029D01*
X161900509Y-7556029D01*
X161791683Y-7606776D01*
X161706776Y-7691683D01*
X161656027Y-7800514D01*
X161649500Y-7850098D01*
X161649501Y-9176000D01*
X161629816Y-9243039D01*
X161577013Y-9288794D01*
X161525501Y-9300000D01*
X149807000Y-9300000D01*
X149739961Y-9280315D01*
X149694206Y-9227511D01*
X149683000Y-9176000D01*
X149683000Y-8750000D01*
X148283000Y-8750000D01*
X148283000Y-9176000D01*
X148263315Y-9243039D01*
X148210511Y-9288794D01*
X148159000Y-9300000D01*
X146507500Y-9300000D01*
X146440461Y-9280315D01*
X146394706Y-9227511D01*
X146383500Y-9176000D01*
X146383499Y-7850166D01*
X148283000Y-7850166D01*
X148283000Y-8350000D01*
X148783000Y-8350000D01*
X149183000Y-8350000D01*
X149683000Y-8350000D01*
X149683000Y-7850166D01*
X149682998Y-7850149D01*
X149676481Y-7800645D01*
X149625807Y-7691975D01*
X149541024Y-7607192D01*
X149432353Y-7556518D01*
X149432354Y-7556518D01*
X149382850Y-7550001D01*
X149382833Y-7550000D01*
X149183000Y-7550000D01*
X149183000Y-8350000D01*
X148783000Y-8350000D01*
X148783000Y-7550000D01*
X148583167Y-7550000D01*
X148583149Y-7550001D01*
X148533645Y-7556518D01*
X148424975Y-7607192D01*
X148340192Y-7691975D01*
X148289518Y-7800645D01*
X148283001Y-7850149D01*
X148283000Y-7850166D01*
X146383499Y-7850166D01*
X146383499Y-7850105D01*
X146383499Y-7850100D01*
X146376972Y-7800513D01*
X146326224Y-7691684D01*
X146241316Y-7606776D01*
X146132487Y-7556028D01*
X146132485Y-7556027D01*
X146132486Y-7556027D01*
X146082901Y-7549500D01*
X145283105Y-7549500D01*
X145267386Y-7551569D01*
X145233513Y-7556028D01*
X145233511Y-7556029D01*
X145233509Y-7556029D01*
X145124683Y-7606776D01*
X145039776Y-7691683D01*
X144989027Y-7800514D01*
X144982500Y-7850098D01*
X144982501Y-9176000D01*
X144962816Y-9243039D01*
X144910013Y-9288794D01*
X144858501Y-9300000D01*
X133141000Y-9300000D01*
X133073961Y-9280315D01*
X133028206Y-9227511D01*
X133017000Y-9176000D01*
X133017000Y-8750000D01*
X131617000Y-8750000D01*
X131617000Y-9176000D01*
X131597315Y-9243039D01*
X131544511Y-9288794D01*
X131493000Y-9300000D01*
X129841500Y-9300000D01*
X129774461Y-9280315D01*
X129728706Y-9227511D01*
X129717500Y-9176000D01*
X129717499Y-7850166D01*
X131617000Y-7850166D01*
X131617000Y-8350000D01*
X132117000Y-8350000D01*
X132517000Y-8350000D01*
X133017000Y-8350000D01*
X133017000Y-7850166D01*
X133016998Y-7850149D01*
X133010481Y-7800645D01*
X132959807Y-7691975D01*
X132875024Y-7607192D01*
X132766353Y-7556518D01*
X132766354Y-7556518D01*
X132716850Y-7550001D01*
X132716833Y-7550000D01*
X132517000Y-7550000D01*
X132517000Y-8350000D01*
X132117000Y-8350000D01*
X132117000Y-7550000D01*
X131917167Y-7550000D01*
X131917149Y-7550001D01*
X131867645Y-7556518D01*
X131758975Y-7607192D01*
X131674192Y-7691975D01*
X131623518Y-7800645D01*
X131617001Y-7850149D01*
X131617000Y-7850166D01*
X129717499Y-7850166D01*
X129717499Y-7850105D01*
X129717499Y-7850100D01*
X129710972Y-7800513D01*
X129660224Y-7691684D01*
X129575316Y-7606776D01*
X129466487Y-7556028D01*
X129466485Y-7556027D01*
X129466486Y-7556027D01*
X129416901Y-7549500D01*
X128617105Y-7549500D01*
X128601386Y-7551569D01*
X128567513Y-7556028D01*
X128567511Y-7556029D01*
X128567509Y-7556029D01*
X128458683Y-7606776D01*
X128373776Y-7691683D01*
X128323027Y-7800514D01*
X128316500Y-7850098D01*
X128316501Y-9176000D01*
X128296816Y-9243039D01*
X128244013Y-9288794D01*
X128192501Y-9300000D01*
X116474000Y-9300000D01*
X116406961Y-9280315D01*
X116361206Y-9227511D01*
X116350000Y-9176000D01*
X116350000Y-8750000D01*
X114950000Y-8750000D01*
X114950000Y-9176000D01*
X114930315Y-9243039D01*
X114877511Y-9288794D01*
X114826000Y-9300000D01*
X113174500Y-9300000D01*
X113107461Y-9280315D01*
X113061706Y-9227511D01*
X113050500Y-9176000D01*
X113050499Y-7850166D01*
X114950000Y-7850166D01*
X114950000Y-8350000D01*
X115450000Y-8350000D01*
X115850000Y-8350000D01*
X116350000Y-8350000D01*
X116350000Y-7850166D01*
X116349998Y-7850149D01*
X116343481Y-7800645D01*
X116292807Y-7691975D01*
X116208024Y-7607192D01*
X116099353Y-7556518D01*
X116099354Y-7556518D01*
X116049850Y-7550001D01*
X116049833Y-7550000D01*
X115850000Y-7550000D01*
X115850000Y-8350000D01*
X115450000Y-8350000D01*
X115450000Y-7550000D01*
X115250167Y-7550000D01*
X115250149Y-7550001D01*
X115200645Y-7556518D01*
X115091975Y-7607192D01*
X115007192Y-7691975D01*
X114956518Y-7800645D01*
X114950001Y-7850149D01*
X114950000Y-7850166D01*
X113050499Y-7850166D01*
X113050499Y-7850105D01*
X113050499Y-7850100D01*
X113043972Y-7800513D01*
X112993224Y-7691684D01*
X112908316Y-7606776D01*
X112799487Y-7556028D01*
X112799485Y-7556027D01*
X112799486Y-7556027D01*
X112749901Y-7549500D01*
X111950105Y-7549500D01*
X111934386Y-7551569D01*
X111900513Y-7556028D01*
X111900511Y-7556029D01*
X111900509Y-7556029D01*
X111791683Y-7606776D01*
X111706776Y-7691683D01*
X111656027Y-7800514D01*
X111649500Y-7850098D01*
X111649501Y-9176000D01*
X111629816Y-9243039D01*
X111577013Y-9288794D01*
X111525501Y-9300000D01*
X99807000Y-9300000D01*
X99739961Y-9280315D01*
X99694206Y-9227511D01*
X99683000Y-9176000D01*
X99683000Y-8750000D01*
X98283000Y-8750000D01*
X98283000Y-9176000D01*
X98263315Y-9243039D01*
X98210511Y-9288794D01*
X98159000Y-9300000D01*
X96507500Y-9300000D01*
X96440461Y-9280315D01*
X96394706Y-9227511D01*
X96383500Y-9176000D01*
X96383499Y-7850166D01*
X98283000Y-7850166D01*
X98283000Y-8350000D01*
X98783000Y-8350000D01*
X99183000Y-8350000D01*
X99683000Y-8350000D01*
X99683000Y-7850166D01*
X99682998Y-7850149D01*
X99676481Y-7800645D01*
X99625807Y-7691975D01*
X99541024Y-7607192D01*
X99432353Y-7556518D01*
X99432354Y-7556518D01*
X99382850Y-7550001D01*
X99382833Y-7550000D01*
X99183000Y-7550000D01*
X99183000Y-8350000D01*
X98783000Y-8350000D01*
X98783000Y-7550000D01*
X98583167Y-7550000D01*
X98583149Y-7550001D01*
X98533645Y-7556518D01*
X98424975Y-7607192D01*
X98340192Y-7691975D01*
X98289518Y-7800645D01*
X98283001Y-7850149D01*
X98283000Y-7850166D01*
X96383499Y-7850166D01*
X96383499Y-7850105D01*
X96383499Y-7850100D01*
X96376972Y-7800513D01*
X96326224Y-7691684D01*
X96241316Y-7606776D01*
X96132487Y-7556028D01*
X96132485Y-7556027D01*
X96132486Y-7556027D01*
X96082901Y-7549500D01*
X95283105Y-7549500D01*
X95267386Y-7551569D01*
X95233513Y-7556028D01*
X95233511Y-7556029D01*
X95233509Y-7556029D01*
X95124683Y-7606776D01*
X95039776Y-7691683D01*
X94989027Y-7800514D01*
X94982500Y-7850098D01*
X94982501Y-9176000D01*
X94962816Y-9243039D01*
X94910013Y-9288794D01*
X94858501Y-9300000D01*
X83141000Y-9300000D01*
X83073961Y-9280315D01*
X83028206Y-9227511D01*
X83017000Y-9176000D01*
X83017000Y-8750000D01*
X81617000Y-8750000D01*
X81617000Y-9176000D01*
X81597315Y-9243039D01*
X81544511Y-9288794D01*
X81493000Y-9300000D01*
X79841500Y-9300000D01*
X79774461Y-9280315D01*
X79728706Y-9227511D01*
X79717500Y-9176000D01*
X79717499Y-7850166D01*
X81617000Y-7850166D01*
X81617000Y-8350000D01*
X82117000Y-8350000D01*
X82517000Y-8350000D01*
X83017000Y-8350000D01*
X83017000Y-7850166D01*
X83016998Y-7850149D01*
X83010481Y-7800645D01*
X82959807Y-7691975D01*
X82875024Y-7607192D01*
X82766353Y-7556518D01*
X82766354Y-7556518D01*
X82716850Y-7550001D01*
X82716833Y-7550000D01*
X82517000Y-7550000D01*
X82517000Y-8350000D01*
X82117000Y-8350000D01*
X82117000Y-7550000D01*
X81917167Y-7550000D01*
X81917149Y-7550001D01*
X81867645Y-7556518D01*
X81758975Y-7607192D01*
X81674192Y-7691975D01*
X81623518Y-7800645D01*
X81617001Y-7850149D01*
X81617000Y-7850166D01*
X79717499Y-7850166D01*
X79717499Y-7850105D01*
X79717499Y-7850100D01*
X79710972Y-7800513D01*
X79660224Y-7691684D01*
X79575316Y-7606776D01*
X79466487Y-7556028D01*
X79466485Y-7556027D01*
X79466486Y-7556027D01*
X79416901Y-7549500D01*
X78617105Y-7549500D01*
X78601386Y-7551569D01*
X78567513Y-7556028D01*
X78567511Y-7556029D01*
X78567509Y-7556029D01*
X78458683Y-7606776D01*
X78373776Y-7691683D01*
X78323027Y-7800514D01*
X78316500Y-7850098D01*
X78316501Y-9176000D01*
X78296816Y-9243039D01*
X78244013Y-9288794D01*
X78192501Y-9300000D01*
X66474000Y-9300000D01*
X66406961Y-9280315D01*
X66361206Y-9227511D01*
X66350000Y-9176000D01*
X66350000Y-8750000D01*
X64950000Y-8750000D01*
X64950000Y-9176000D01*
X64930315Y-9243039D01*
X64877511Y-9288794D01*
X64826000Y-9300000D01*
X63174500Y-9300000D01*
X63107461Y-9280315D01*
X63061706Y-9227511D01*
X63050500Y-9176000D01*
X63050499Y-7850166D01*
X64950000Y-7850166D01*
X64950000Y-8350000D01*
X65450000Y-8350000D01*
X65850000Y-8350000D01*
X66350000Y-8350000D01*
X66350000Y-7850166D01*
X66349998Y-7850149D01*
X66343481Y-7800645D01*
X66292807Y-7691975D01*
X66208024Y-7607192D01*
X66099353Y-7556518D01*
X66099354Y-7556518D01*
X66049850Y-7550001D01*
X66049833Y-7550000D01*
X65850000Y-7550000D01*
X65850000Y-8350000D01*
X65450000Y-8350000D01*
X65450000Y-7550000D01*
X65250167Y-7550000D01*
X65250149Y-7550001D01*
X65200645Y-7556518D01*
X65091975Y-7607192D01*
X65007192Y-7691975D01*
X64956518Y-7800645D01*
X64950001Y-7850149D01*
X64950000Y-7850166D01*
X63050499Y-7850166D01*
X63050499Y-7850105D01*
X63050499Y-7850100D01*
X63043972Y-7800513D01*
X62993224Y-7691684D01*
X62908316Y-7606776D01*
X62799487Y-7556028D01*
X62799485Y-7556027D01*
X62799486Y-7556027D01*
X62749901Y-7549500D01*
X61950105Y-7549500D01*
X61934386Y-7551569D01*
X61900513Y-7556028D01*
X61900511Y-7556029D01*
X61900509Y-7556029D01*
X61791683Y-7606776D01*
X61706776Y-7691683D01*
X61656027Y-7800514D01*
X61649500Y-7850098D01*
X61649501Y-9176000D01*
X61629816Y-9243039D01*
X61577013Y-9288794D01*
X61525501Y-9300000D01*
X56124000Y-9300000D01*
X56056961Y-9280315D01*
X56011206Y-9227511D01*
X56000000Y-9176000D01*
X56000000Y-7073920D01*
X58249499Y-7073920D01*
X58278340Y-7218907D01*
X58278343Y-7218917D01*
X58334912Y-7355488D01*
X58334919Y-7355501D01*
X58417048Y-7478415D01*
X58417051Y-7478419D01*
X58521580Y-7582948D01*
X58521584Y-7582951D01*
X58644498Y-7665080D01*
X58644511Y-7665087D01*
X58781082Y-7721656D01*
X58781087Y-7721658D01*
X58781091Y-7721658D01*
X58781092Y-7721659D01*
X58926079Y-7750500D01*
X58926082Y-7750500D01*
X59073920Y-7750500D01*
X59171462Y-7731096D01*
X59218913Y-7721658D01*
X59355495Y-7665084D01*
X59478416Y-7582951D01*
X59582951Y-7478416D01*
X59665084Y-7355495D01*
X59721658Y-7218913D01*
X59750500Y-7073918D01*
X59750500Y-6926082D01*
X59750500Y-6926079D01*
X59721659Y-6781092D01*
X59721658Y-6781091D01*
X59721658Y-6781087D01*
X59721656Y-6781082D01*
X59665087Y-6644511D01*
X59665080Y-6644498D01*
X59582951Y-6521584D01*
X59582948Y-6521580D01*
X59478419Y-6417051D01*
X59478415Y-6417048D01*
X59355501Y-6334919D01*
X59355488Y-6334912D01*
X59218917Y-6278343D01*
X59218907Y-6278340D01*
X59073920Y-6249500D01*
X59073918Y-6249500D01*
X58926082Y-6249500D01*
X58926080Y-6249500D01*
X58781092Y-6278340D01*
X58781082Y-6278343D01*
X58644511Y-6334912D01*
X58644498Y-6334919D01*
X58521584Y-6417048D01*
X58521580Y-6417051D01*
X58417051Y-6521580D01*
X58417048Y-6521584D01*
X58334919Y-6644498D01*
X58334912Y-6644511D01*
X58278343Y-6781082D01*
X58278340Y-6781092D01*
X58249500Y-6926079D01*
X58249500Y-6926082D01*
X58249500Y-7073918D01*
X58249500Y-7073920D01*
X58249499Y-7073920D01*
X56000000Y-7073920D01*
X56000000Y-4229418D01*
X56019685Y-4162379D01*
X56072489Y-4116624D01*
X56141647Y-4106680D01*
X56178460Y-4118018D01*
X56259976Y-4157868D01*
X56263482Y-4159582D01*
X56338418Y-4170500D01*
X56338423Y-4170500D01*
X56681577Y-4170500D01*
X56681582Y-4170500D01*
X56756518Y-4159582D01*
X56841538Y-4118018D01*
X56872099Y-4103078D01*
X56872102Y-4103076D01*
X56963076Y-4012102D01*
X56963078Y-4012099D01*
X56991329Y-3954310D01*
X57019582Y-3896518D01*
X57030500Y-3821582D01*
X57030500Y-3378418D01*
X57019582Y-3303482D01*
X56990750Y-3244505D01*
X56963078Y-3187900D01*
X56963076Y-3187897D01*
X56946819Y-3171640D01*
X56913334Y-3110317D01*
X56910500Y-3083959D01*
X56910500Y-2824000D01*
X56930185Y-2756961D01*
X56982989Y-2711206D01*
X57034500Y-2700000D01*
X58075500Y-2700000D01*
X58142539Y-2719685D01*
G37*
%TD.AperFunction*%
%TD*%
%TA.AperFunction,Conductor*%
%TO.N,LED_5V*%
G36*
X58577539Y-12419685D02*
G01*
X58623294Y-12472489D01*
X58634500Y-12524000D01*
X58634500Y-12958959D01*
X58614815Y-13025998D01*
X58598181Y-13046640D01*
X58587681Y-13057140D01*
X58526358Y-13090625D01*
X58456666Y-13085641D01*
X58412319Y-13057140D01*
X58352102Y-12996923D01*
X58352099Y-12996921D01*
X58236521Y-12940419D01*
X58236519Y-12940418D01*
X58236518Y-12940418D01*
X58161582Y-12929500D01*
X57818418Y-12929500D01*
X57764892Y-12937298D01*
X57743480Y-12940418D01*
X57712130Y-12955745D01*
X57643257Y-12967503D01*
X57578960Y-12940160D01*
X57539653Y-12882395D01*
X57535197Y-12824946D01*
X57547067Y-12750000D01*
X56837500Y-12750000D01*
X56837500Y-13099999D01*
X57181479Y-13099999D01*
X57275149Y-13085164D01*
X57301942Y-13071512D01*
X57370611Y-13058615D01*
X57435352Y-13084890D01*
X57475610Y-13141995D01*
X57480944Y-13199873D01*
X57480418Y-13203481D01*
X57480418Y-13203482D01*
X57469500Y-13278418D01*
X57469500Y-13278422D01*
X57469500Y-13342291D01*
X57449815Y-13409330D01*
X57416773Y-13443761D01*
X56800020Y-13876970D01*
X56733847Y-13899395D01*
X56728747Y-13899500D01*
X56093482Y-13899500D01*
X56013935Y-13912099D01*
X55999696Y-13914354D01*
X55886658Y-13971950D01*
X55886657Y-13971951D01*
X55886652Y-13971954D01*
X55796954Y-14061652D01*
X55796951Y-14061657D01*
X55796950Y-14061658D01*
X55780966Y-14093029D01*
X55739352Y-14174698D01*
X55724500Y-14268475D01*
X55724500Y-14631517D01*
X55727049Y-14647608D01*
X55739354Y-14725304D01*
X55796950Y-14838342D01*
X55796952Y-14838344D01*
X55796954Y-14838347D01*
X55886652Y-14928045D01*
X55886654Y-14928046D01*
X55886658Y-14928050D01*
X55999694Y-14985645D01*
X55999698Y-14985647D01*
X56093475Y-15000499D01*
X56093481Y-15000500D01*
X57181518Y-15000499D01*
X57275304Y-14985646D01*
X57388342Y-14928050D01*
X57470404Y-14845988D01*
X58628831Y-14845988D01*
X58628831Y-14845989D01*
X59000000Y-15217158D01*
X59000001Y-15217158D01*
X59367892Y-14849264D01*
X66839500Y-14849264D01*
X66839500Y-15190739D01*
X66853981Y-15282170D01*
X66853981Y-15282171D01*
X66853982Y-15282174D01*
X66853983Y-15282175D01*
X66910141Y-15392391D01*
X66930422Y-15412672D01*
X66963907Y-15473993D01*
X66958924Y-15543684D01*
X66930424Y-15588033D01*
X66910551Y-15607906D01*
X66854463Y-15717983D01*
X66844642Y-15780000D01*
X67955357Y-15780000D01*
X67955356Y-15779999D01*
X67945534Y-15717982D01*
X67889447Y-15607906D01*
X67889444Y-15607901D01*
X67869577Y-15588034D01*
X67836092Y-15526711D01*
X67841076Y-15457019D01*
X67869578Y-15412671D01*
X67889859Y-15392391D01*
X67946017Y-15282175D01*
X67946017Y-15282173D01*
X67946018Y-15282172D01*
X67946018Y-15282171D01*
X67949901Y-15257650D01*
X67960500Y-15190735D01*
X67960499Y-14849266D01*
X67960499Y-14849264D01*
X83506500Y-14849264D01*
X83506500Y-15190739D01*
X83520981Y-15282170D01*
X83520981Y-15282171D01*
X83520982Y-15282174D01*
X83520983Y-15282175D01*
X83577141Y-15392391D01*
X83597422Y-15412672D01*
X83630907Y-15473993D01*
X83625924Y-15543684D01*
X83597424Y-15588033D01*
X83577551Y-15607906D01*
X83521463Y-15717983D01*
X83511642Y-15780000D01*
X84622357Y-15780000D01*
X84622356Y-15779999D01*
X84612534Y-15717982D01*
X84556447Y-15607906D01*
X84556444Y-15607901D01*
X84536577Y-15588034D01*
X84503092Y-15526711D01*
X84508076Y-15457019D01*
X84536578Y-15412671D01*
X84556859Y-15392391D01*
X84613017Y-15282175D01*
X84613017Y-15282173D01*
X84613018Y-15282172D01*
X84613018Y-15282171D01*
X84616901Y-15257650D01*
X84627500Y-15190735D01*
X84627499Y-14849266D01*
X84627499Y-14849264D01*
X100172500Y-14849264D01*
X100172500Y-15190739D01*
X100186981Y-15282170D01*
X100186981Y-15282171D01*
X100186982Y-15282174D01*
X100186983Y-15282175D01*
X100243141Y-15392391D01*
X100263422Y-15412672D01*
X100296907Y-15473993D01*
X100291924Y-15543684D01*
X100263424Y-15588033D01*
X100243551Y-15607906D01*
X100187463Y-15717983D01*
X100177642Y-15780000D01*
X101288357Y-15780000D01*
X101288356Y-15779999D01*
X101278534Y-15717982D01*
X101222447Y-15607906D01*
X101222444Y-15607901D01*
X101202577Y-15588034D01*
X101169092Y-15526711D01*
X101174076Y-15457019D01*
X101202578Y-15412671D01*
X101222859Y-15392391D01*
X101279017Y-15282175D01*
X101279017Y-15282173D01*
X101279018Y-15282172D01*
X101279018Y-15282171D01*
X101282901Y-15257650D01*
X101293500Y-15190735D01*
X101293499Y-14849266D01*
X101293499Y-14849264D01*
X116839500Y-14849264D01*
X116839500Y-15190739D01*
X116853981Y-15282170D01*
X116853981Y-15282171D01*
X116853982Y-15282174D01*
X116853983Y-15282175D01*
X116910141Y-15392391D01*
X116930422Y-15412672D01*
X116963907Y-15473993D01*
X116958924Y-15543684D01*
X116930424Y-15588033D01*
X116910551Y-15607906D01*
X116854463Y-15717983D01*
X116844642Y-15780000D01*
X117955357Y-15780000D01*
X117955356Y-15779999D01*
X117945534Y-15717982D01*
X117889447Y-15607906D01*
X117889444Y-15607901D01*
X117869577Y-15588034D01*
X117836092Y-15526711D01*
X117841076Y-15457019D01*
X117869578Y-15412671D01*
X117889859Y-15392391D01*
X117946017Y-15282175D01*
X117946017Y-15282173D01*
X117946018Y-15282172D01*
X117946018Y-15282171D01*
X117949901Y-15257650D01*
X117960500Y-15190735D01*
X117960499Y-14849266D01*
X117960499Y-14849264D01*
X133506500Y-14849264D01*
X133506500Y-15190739D01*
X133520981Y-15282170D01*
X133520981Y-15282171D01*
X133520982Y-15282174D01*
X133520983Y-15282175D01*
X133577141Y-15392391D01*
X133597422Y-15412672D01*
X133630907Y-15473993D01*
X133625924Y-15543684D01*
X133597424Y-15588033D01*
X133577551Y-15607906D01*
X133521463Y-15717983D01*
X133511642Y-15780000D01*
X134622357Y-15780000D01*
X134622356Y-15779999D01*
X134612534Y-15717982D01*
X134556447Y-15607906D01*
X134556444Y-15607901D01*
X134536577Y-15588034D01*
X134503092Y-15526711D01*
X134508076Y-15457019D01*
X134536578Y-15412671D01*
X134556859Y-15392391D01*
X134613017Y-15282175D01*
X134613017Y-15282173D01*
X134613018Y-15282172D01*
X134613018Y-15282171D01*
X134616901Y-15257650D01*
X134627500Y-15190735D01*
X134627499Y-14849266D01*
X134627499Y-14849264D01*
X150172500Y-14849264D01*
X150172500Y-15190739D01*
X150186981Y-15282170D01*
X150186981Y-15282171D01*
X150186982Y-15282174D01*
X150186983Y-15282175D01*
X150243141Y-15392391D01*
X150263422Y-15412672D01*
X150296907Y-15473993D01*
X150291924Y-15543684D01*
X150263424Y-15588033D01*
X150243551Y-15607906D01*
X150187463Y-15717983D01*
X150177642Y-15780000D01*
X151288357Y-15780000D01*
X151288356Y-15779999D01*
X151278534Y-15717982D01*
X151222447Y-15607906D01*
X151222444Y-15607901D01*
X151202577Y-15588034D01*
X151169092Y-15526711D01*
X151174076Y-15457019D01*
X151202578Y-15412671D01*
X151222859Y-15392391D01*
X151279017Y-15282175D01*
X151279017Y-15282173D01*
X151279018Y-15282172D01*
X151279018Y-15282171D01*
X151282901Y-15257650D01*
X151293500Y-15190735D01*
X151293499Y-14849266D01*
X151293499Y-14849264D01*
X166839500Y-14849264D01*
X166839500Y-15190739D01*
X166853981Y-15282170D01*
X166853981Y-15282171D01*
X166853982Y-15282174D01*
X166853983Y-15282175D01*
X166910141Y-15392391D01*
X166930422Y-15412672D01*
X166963907Y-15473993D01*
X166958924Y-15543684D01*
X166930424Y-15588033D01*
X166910551Y-15607906D01*
X166854463Y-15717983D01*
X166844642Y-15780000D01*
X167955357Y-15780000D01*
X167955356Y-15779999D01*
X167945534Y-15717982D01*
X167889447Y-15607906D01*
X167889444Y-15607901D01*
X167869577Y-15588034D01*
X167836092Y-15526711D01*
X167841076Y-15457019D01*
X167869578Y-15412671D01*
X167889859Y-15392391D01*
X167946017Y-15282175D01*
X167946017Y-15282173D01*
X167946018Y-15282172D01*
X167946018Y-15282171D01*
X167949901Y-15257650D01*
X167960500Y-15190735D01*
X167960499Y-14849266D01*
X167960499Y-14849264D01*
X183506500Y-14849264D01*
X183506500Y-15190739D01*
X183520981Y-15282170D01*
X183520981Y-15282171D01*
X183520982Y-15282174D01*
X183520983Y-15282175D01*
X183577141Y-15392391D01*
X183597422Y-15412672D01*
X183630907Y-15473993D01*
X183625924Y-15543684D01*
X183597424Y-15588033D01*
X183577551Y-15607906D01*
X183521463Y-15717983D01*
X183511642Y-15780000D01*
X184622357Y-15780000D01*
X184622356Y-15779999D01*
X184612534Y-15717982D01*
X184556447Y-15607906D01*
X184556444Y-15607901D01*
X184536577Y-15588034D01*
X184503092Y-15526711D01*
X184508076Y-15457019D01*
X184536578Y-15412671D01*
X184556859Y-15392391D01*
X184613017Y-15282175D01*
X184613017Y-15282173D01*
X184613018Y-15282172D01*
X184613018Y-15282171D01*
X184616901Y-15257650D01*
X184627500Y-15190735D01*
X184627499Y-14849266D01*
X184627499Y-14849264D01*
X200172500Y-14849264D01*
X200172500Y-15190739D01*
X200186981Y-15282170D01*
X200186981Y-15282171D01*
X200186982Y-15282174D01*
X200186983Y-15282175D01*
X200243141Y-15392391D01*
X200263422Y-15412672D01*
X200296907Y-15473993D01*
X200291924Y-15543684D01*
X200263424Y-15588033D01*
X200243551Y-15607906D01*
X200187463Y-15717983D01*
X200177642Y-15780000D01*
X201288357Y-15780000D01*
X201288356Y-15779999D01*
X201278534Y-15717982D01*
X201222447Y-15607906D01*
X201222444Y-15607901D01*
X201202577Y-15588034D01*
X201169092Y-15526711D01*
X201174076Y-15457019D01*
X201202578Y-15412671D01*
X201222859Y-15392391D01*
X201279017Y-15282175D01*
X201279017Y-15282173D01*
X201279018Y-15282172D01*
X201279018Y-15282171D01*
X201282901Y-15257650D01*
X201293500Y-15190735D01*
X201293499Y-14849266D01*
X201293499Y-14849264D01*
X216839500Y-14849264D01*
X216839500Y-15190739D01*
X216853981Y-15282170D01*
X216853981Y-15282171D01*
X216853982Y-15282174D01*
X216853983Y-15282175D01*
X216910141Y-15392391D01*
X216930422Y-15412672D01*
X216963907Y-15473993D01*
X216958924Y-15543684D01*
X216930424Y-15588033D01*
X216910551Y-15607906D01*
X216854463Y-15717983D01*
X216844642Y-15780000D01*
X217955357Y-15780000D01*
X217955356Y-15779999D01*
X217945534Y-15717982D01*
X217889447Y-15607906D01*
X217889444Y-15607901D01*
X217869577Y-15588034D01*
X217836092Y-15526711D01*
X217841076Y-15457019D01*
X217869578Y-15412671D01*
X217889859Y-15392391D01*
X217946017Y-15282175D01*
X217946017Y-15282173D01*
X217946018Y-15282172D01*
X217946018Y-15282171D01*
X217949901Y-15257650D01*
X217960500Y-15190735D01*
X217960499Y-14849266D01*
X217960499Y-14849264D01*
X233506500Y-14849264D01*
X233506500Y-15190739D01*
X233520981Y-15282170D01*
X233520981Y-15282171D01*
X233520982Y-15282174D01*
X233520983Y-15282175D01*
X233577141Y-15392391D01*
X233597422Y-15412672D01*
X233630907Y-15473993D01*
X233625924Y-15543684D01*
X233597424Y-15588033D01*
X233577551Y-15607906D01*
X233521463Y-15717983D01*
X233511642Y-15780000D01*
X234622357Y-15780000D01*
X234622356Y-15779999D01*
X234612534Y-15717982D01*
X234556447Y-15607906D01*
X234556444Y-15607901D01*
X234536577Y-15588034D01*
X234503092Y-15526711D01*
X234508076Y-15457019D01*
X234536578Y-15412671D01*
X234556859Y-15392391D01*
X234613017Y-15282175D01*
X234613017Y-15282173D01*
X234613018Y-15282172D01*
X234613018Y-15282171D01*
X234616901Y-15257650D01*
X234627500Y-15190735D01*
X234627499Y-14849266D01*
X234627499Y-14849264D01*
X234627499Y-14849260D01*
X234613018Y-14757829D01*
X234613018Y-14757828D01*
X234613017Y-14757826D01*
X234613017Y-14757825D01*
X234556859Y-14647609D01*
X234556857Y-14647607D01*
X234556854Y-14647603D01*
X234469396Y-14560145D01*
X234469393Y-14560143D01*
X234469391Y-14560141D01*
X234359175Y-14503983D01*
X234359174Y-14503982D01*
X234359171Y-14503981D01*
X234267735Y-14489500D01*
X234230441Y-14489500D01*
X234198348Y-14485275D01*
X234174105Y-14478779D01*
X234139475Y-14469500D01*
X233994525Y-14469500D01*
X233994521Y-14469500D01*
X233935647Y-14485275D01*
X233903559Y-14489500D01*
X233866271Y-14489500D01*
X233814342Y-14497724D01*
X233774825Y-14503983D01*
X233668580Y-14558117D01*
X233664607Y-14560142D01*
X233664603Y-14560145D01*
X233577145Y-14647603D01*
X233577142Y-14647608D01*
X233520981Y-14757827D01*
X233520981Y-14757828D01*
X233506500Y-14849264D01*
X217960499Y-14849264D01*
X217960499Y-14849260D01*
X217946018Y-14757829D01*
X217946018Y-14757828D01*
X217946017Y-14757826D01*
X217946017Y-14757825D01*
X217889859Y-14647609D01*
X217889857Y-14647607D01*
X217889854Y-14647603D01*
X217802396Y-14560145D01*
X217802393Y-14560143D01*
X217802391Y-14560141D01*
X217692175Y-14503983D01*
X217692174Y-14503982D01*
X217692171Y-14503981D01*
X217600735Y-14489500D01*
X217563441Y-14489500D01*
X217531348Y-14485275D01*
X217507105Y-14478779D01*
X217472475Y-14469500D01*
X217327525Y-14469500D01*
X217327521Y-14469500D01*
X217268647Y-14485275D01*
X217236559Y-14489500D01*
X217199271Y-14489500D01*
X217147342Y-14497724D01*
X217107825Y-14503983D01*
X217001580Y-14558117D01*
X216997607Y-14560142D01*
X216997603Y-14560145D01*
X216910145Y-14647603D01*
X216910142Y-14647608D01*
X216853981Y-14757827D01*
X216853981Y-14757828D01*
X216839500Y-14849264D01*
X201293499Y-14849264D01*
X201293499Y-14849260D01*
X201279018Y-14757829D01*
X201279018Y-14757828D01*
X201279017Y-14757826D01*
X201279017Y-14757825D01*
X201222859Y-14647609D01*
X201222857Y-14647607D01*
X201222854Y-14647603D01*
X201135396Y-14560145D01*
X201135393Y-14560143D01*
X201135391Y-14560141D01*
X201025175Y-14503983D01*
X201025174Y-14503982D01*
X201025171Y-14503981D01*
X200933735Y-14489500D01*
X200896441Y-14489500D01*
X200864348Y-14485275D01*
X200840105Y-14478779D01*
X200805475Y-14469500D01*
X200660525Y-14469500D01*
X200660521Y-14469500D01*
X200601647Y-14485275D01*
X200569559Y-14489500D01*
X200532271Y-14489500D01*
X200480342Y-14497724D01*
X200440825Y-14503983D01*
X200334580Y-14558117D01*
X200330607Y-14560142D01*
X200330603Y-14560145D01*
X200243145Y-14647603D01*
X200243142Y-14647608D01*
X200186981Y-14757827D01*
X200186981Y-14757828D01*
X200172500Y-14849264D01*
X184627499Y-14849264D01*
X184627499Y-14849260D01*
X184613018Y-14757829D01*
X184613018Y-14757828D01*
X184613017Y-14757826D01*
X184613017Y-14757825D01*
X184556859Y-14647609D01*
X184556857Y-14647607D01*
X184556854Y-14647603D01*
X184469396Y-14560145D01*
X184469393Y-14560143D01*
X184469391Y-14560141D01*
X184359175Y-14503983D01*
X184359174Y-14503982D01*
X184359171Y-14503981D01*
X184267735Y-14489500D01*
X184230441Y-14489500D01*
X184198348Y-14485275D01*
X184174105Y-14478779D01*
X184139475Y-14469500D01*
X183994525Y-14469500D01*
X183994521Y-14469500D01*
X183935647Y-14485275D01*
X183903559Y-14489500D01*
X183866271Y-14489500D01*
X183814342Y-14497724D01*
X183774825Y-14503983D01*
X183668580Y-14558117D01*
X183664607Y-14560142D01*
X183664603Y-14560145D01*
X183577145Y-14647603D01*
X183577142Y-14647608D01*
X183520981Y-14757827D01*
X183520981Y-14757828D01*
X183506500Y-14849264D01*
X167960499Y-14849264D01*
X167960499Y-14849260D01*
X167946018Y-14757829D01*
X167946018Y-14757828D01*
X167946017Y-14757826D01*
X167946017Y-14757825D01*
X167889859Y-14647609D01*
X167889857Y-14647607D01*
X167889854Y-14647603D01*
X167802396Y-14560145D01*
X167802393Y-14560143D01*
X167802391Y-14560141D01*
X167692175Y-14503983D01*
X167692174Y-14503982D01*
X167692171Y-14503981D01*
X167600735Y-14489500D01*
X167563441Y-14489500D01*
X167531348Y-14485275D01*
X167507105Y-14478779D01*
X167472475Y-14469500D01*
X167327525Y-14469500D01*
X167327521Y-14469500D01*
X167268647Y-14485275D01*
X167236559Y-14489500D01*
X167199271Y-14489500D01*
X167147342Y-14497724D01*
X167107825Y-14503983D01*
X167001580Y-14558117D01*
X166997607Y-14560142D01*
X166997603Y-14560145D01*
X166910145Y-14647603D01*
X166910142Y-14647608D01*
X166853981Y-14757827D01*
X166853981Y-14757828D01*
X166839500Y-14849264D01*
X151293499Y-14849264D01*
X151293499Y-14849260D01*
X151279018Y-14757829D01*
X151279018Y-14757828D01*
X151279017Y-14757826D01*
X151279017Y-14757825D01*
X151222859Y-14647609D01*
X151222857Y-14647607D01*
X151222854Y-14647603D01*
X151135396Y-14560145D01*
X151135393Y-14560143D01*
X151135391Y-14560141D01*
X151025175Y-14503983D01*
X151025174Y-14503982D01*
X151025171Y-14503981D01*
X150933735Y-14489500D01*
X150896441Y-14489500D01*
X150864348Y-14485275D01*
X150840105Y-14478779D01*
X150805475Y-14469500D01*
X150660525Y-14469500D01*
X150660521Y-14469500D01*
X150601647Y-14485275D01*
X150569559Y-14489500D01*
X150532271Y-14489500D01*
X150480342Y-14497724D01*
X150440825Y-14503983D01*
X150334580Y-14558117D01*
X150330607Y-14560142D01*
X150330603Y-14560145D01*
X150243145Y-14647603D01*
X150243142Y-14647608D01*
X150186981Y-14757827D01*
X150186981Y-14757828D01*
X150172500Y-14849264D01*
X134627499Y-14849264D01*
X134627499Y-14849260D01*
X134613018Y-14757829D01*
X134613018Y-14757828D01*
X134613017Y-14757826D01*
X134613017Y-14757825D01*
X134556859Y-14647609D01*
X134556857Y-14647607D01*
X134556854Y-14647603D01*
X134469396Y-14560145D01*
X134469393Y-14560143D01*
X134469391Y-14560141D01*
X134359175Y-14503983D01*
X134359174Y-14503982D01*
X134359171Y-14503981D01*
X134267735Y-14489500D01*
X134230441Y-14489500D01*
X134198348Y-14485275D01*
X134174105Y-14478779D01*
X134139475Y-14469500D01*
X133994525Y-14469500D01*
X133994521Y-14469500D01*
X133935647Y-14485275D01*
X133903559Y-14489500D01*
X133866271Y-14489500D01*
X133814342Y-14497724D01*
X133774825Y-14503983D01*
X133668580Y-14558117D01*
X133664607Y-14560142D01*
X133664603Y-14560145D01*
X133577145Y-14647603D01*
X133577142Y-14647608D01*
X133520981Y-14757827D01*
X133520981Y-14757828D01*
X133506500Y-14849264D01*
X117960499Y-14849264D01*
X117960499Y-14849260D01*
X117946018Y-14757829D01*
X117946018Y-14757828D01*
X117946017Y-14757826D01*
X117946017Y-14757825D01*
X117889859Y-14647609D01*
X117889857Y-14647607D01*
X117889854Y-14647603D01*
X117802396Y-14560145D01*
X117802393Y-14560143D01*
X117802391Y-14560141D01*
X117692175Y-14503983D01*
X117692174Y-14503982D01*
X117692171Y-14503981D01*
X117600735Y-14489500D01*
X117563441Y-14489500D01*
X117531348Y-14485275D01*
X117507105Y-14478779D01*
X117472475Y-14469500D01*
X117327525Y-14469500D01*
X117327521Y-14469500D01*
X117268647Y-14485275D01*
X117236559Y-14489500D01*
X117199271Y-14489500D01*
X117147342Y-14497724D01*
X117107825Y-14503983D01*
X117001580Y-14558117D01*
X116997607Y-14560142D01*
X116997603Y-14560145D01*
X116910145Y-14647603D01*
X116910142Y-14647608D01*
X116853981Y-14757827D01*
X116853981Y-14757828D01*
X116839500Y-14849264D01*
X101293499Y-14849264D01*
X101293499Y-14849260D01*
X101279018Y-14757829D01*
X101279018Y-14757828D01*
X101279017Y-14757826D01*
X101279017Y-14757825D01*
X101222859Y-14647609D01*
X101222857Y-14647607D01*
X101222854Y-14647603D01*
X101135396Y-14560145D01*
X101135393Y-14560143D01*
X101135391Y-14560141D01*
X101025175Y-14503983D01*
X101025174Y-14503982D01*
X101025171Y-14503981D01*
X100933735Y-14489500D01*
X100896441Y-14489500D01*
X100864348Y-14485275D01*
X100840105Y-14478779D01*
X100805475Y-14469500D01*
X100660525Y-14469500D01*
X100660521Y-14469500D01*
X100601647Y-14485275D01*
X100569559Y-14489500D01*
X100532271Y-14489500D01*
X100480342Y-14497724D01*
X100440825Y-14503983D01*
X100334580Y-14558117D01*
X100330607Y-14560142D01*
X100330603Y-14560145D01*
X100243145Y-14647603D01*
X100243142Y-14647608D01*
X100186981Y-14757827D01*
X100186981Y-14757828D01*
X100172500Y-14849264D01*
X84627499Y-14849264D01*
X84627499Y-14849260D01*
X84613018Y-14757829D01*
X84613018Y-14757828D01*
X84613017Y-14757826D01*
X84613017Y-14757825D01*
X84556859Y-14647609D01*
X84556857Y-14647607D01*
X84556854Y-14647603D01*
X84469396Y-14560145D01*
X84469393Y-14560143D01*
X84469391Y-14560141D01*
X84359175Y-14503983D01*
X84359174Y-14503982D01*
X84359171Y-14503981D01*
X84267735Y-14489500D01*
X84230441Y-14489500D01*
X84198348Y-14485275D01*
X84174105Y-14478779D01*
X84139475Y-14469500D01*
X83994525Y-14469500D01*
X83994521Y-14469500D01*
X83935647Y-14485275D01*
X83903559Y-14489500D01*
X83866271Y-14489500D01*
X83814342Y-14497724D01*
X83774825Y-14503983D01*
X83668580Y-14558117D01*
X83664607Y-14560142D01*
X83664603Y-14560145D01*
X83577145Y-14647603D01*
X83577142Y-14647608D01*
X83520981Y-14757827D01*
X83520981Y-14757828D01*
X83506500Y-14849264D01*
X67960499Y-14849264D01*
X67960499Y-14849260D01*
X67946018Y-14757829D01*
X67946018Y-14757828D01*
X67946017Y-14757826D01*
X67946017Y-14757825D01*
X67889859Y-14647609D01*
X67889857Y-14647607D01*
X67889854Y-14647603D01*
X67802396Y-14560145D01*
X67802393Y-14560143D01*
X67802391Y-14560141D01*
X67692175Y-14503983D01*
X67692174Y-14503982D01*
X67692171Y-14503981D01*
X67600735Y-14489500D01*
X67563441Y-14489500D01*
X67531348Y-14485275D01*
X67507105Y-14478779D01*
X67472475Y-14469500D01*
X67327525Y-14469500D01*
X67327521Y-14469500D01*
X67268647Y-14485275D01*
X67236559Y-14489500D01*
X67199271Y-14489500D01*
X67147342Y-14497724D01*
X67107825Y-14503983D01*
X67001580Y-14558117D01*
X66997607Y-14560142D01*
X66997603Y-14560145D01*
X66910145Y-14647603D01*
X66910142Y-14647608D01*
X66853981Y-14757827D01*
X66853981Y-14757828D01*
X66839500Y-14849264D01*
X59367892Y-14849264D01*
X59371167Y-14845989D01*
X59371167Y-14845988D01*
X59355258Y-14835359D01*
X59218767Y-14778822D01*
X59218759Y-14778820D01*
X59073872Y-14750000D01*
X58926128Y-14750000D01*
X58781240Y-14778820D01*
X58781232Y-14778822D01*
X58644740Y-14835360D01*
X58644735Y-14835362D01*
X58628831Y-14845988D01*
X57470404Y-14845988D01*
X57478050Y-14838342D01*
X57535646Y-14725304D01*
X57535646Y-14725302D01*
X57535647Y-14725301D01*
X57547952Y-14647607D01*
X57550500Y-14631519D01*
X57550499Y-14332013D01*
X57570183Y-14264975D01*
X57603223Y-14230547D01*
X57718134Y-14149833D01*
X61650000Y-14149833D01*
X61650001Y-14149850D01*
X61656518Y-14199354D01*
X61707192Y-14308024D01*
X61791975Y-14392807D01*
X61900646Y-14443481D01*
X61900645Y-14443481D01*
X61950149Y-14449998D01*
X61950167Y-14450000D01*
X62150000Y-14450000D01*
X62550000Y-14450000D01*
X62749833Y-14450000D01*
X62749850Y-14449998D01*
X62799354Y-14443481D01*
X62908024Y-14392807D01*
X62992807Y-14308024D01*
X63043481Y-14199354D01*
X63049998Y-14149850D01*
X63050000Y-14149833D01*
X63050000Y-13650000D01*
X62550000Y-13650000D01*
X62550000Y-14450000D01*
X62150000Y-14450000D01*
X62150000Y-13650000D01*
X61650000Y-13650000D01*
X61650000Y-14149833D01*
X57718134Y-14149833D01*
X57799007Y-14093028D01*
X57865179Y-14070605D01*
X57870278Y-14070500D01*
X58161577Y-14070500D01*
X58161582Y-14070500D01*
X58236518Y-14059582D01*
X58294310Y-14031329D01*
X58352099Y-14003078D01*
X58352102Y-14003076D01*
X58412319Y-13942860D01*
X58473642Y-13909375D01*
X58543334Y-13914359D01*
X58587681Y-13942860D01*
X58647897Y-14003076D01*
X58647900Y-14003078D01*
X58749556Y-14052774D01*
X58763482Y-14059582D01*
X58838418Y-14070500D01*
X58838423Y-14070500D01*
X59181577Y-14070500D01*
X59181582Y-14070500D01*
X59256518Y-14059582D01*
X59314310Y-14031329D01*
X59372099Y-14003078D01*
X59372102Y-14003076D01*
X59463076Y-13912102D01*
X59463078Y-13912099D01*
X59491329Y-13854310D01*
X59519582Y-13796518D01*
X59530500Y-13721582D01*
X59530500Y-13278418D01*
X59519582Y-13203482D01*
X59474692Y-13111658D01*
X59463078Y-13087900D01*
X59463076Y-13087897D01*
X59421819Y-13046640D01*
X59388334Y-12985317D01*
X59385500Y-12958959D01*
X59385500Y-12524000D01*
X59405185Y-12456961D01*
X59457989Y-12411206D01*
X59509500Y-12400000D01*
X61603414Y-12400000D01*
X61670453Y-12419685D01*
X61716208Y-12472489D01*
X61726152Y-12541647D01*
X61710381Y-12581493D01*
X61711777Y-12582144D01*
X61656518Y-12700645D01*
X61650001Y-12750149D01*
X61650000Y-12750166D01*
X61650000Y-13250000D01*
X63050000Y-13250000D01*
X63050000Y-12750166D01*
X63049998Y-12750149D01*
X63043481Y-12700645D01*
X62988223Y-12582144D01*
X62990307Y-12581172D01*
X62972684Y-12528925D01*
X62989690Y-12461156D01*
X63040635Y-12413340D01*
X63096586Y-12400000D01*
X64902793Y-12400000D01*
X64969832Y-12419685D01*
X65015587Y-12472489D01*
X65025531Y-12541647D01*
X65009891Y-12581166D01*
X65011361Y-12581852D01*
X64956027Y-12700514D01*
X64949500Y-12750098D01*
X64949500Y-14149894D01*
X64949501Y-14149900D01*
X64956028Y-14199487D01*
X64956029Y-14199489D01*
X64956029Y-14199490D01*
X64988201Y-14268482D01*
X65006776Y-14308316D01*
X65091684Y-14393224D01*
X65200513Y-14443972D01*
X65250099Y-14450500D01*
X66049900Y-14450499D01*
X66099487Y-14443972D01*
X66208316Y-14393224D01*
X66293224Y-14308316D01*
X66343972Y-14199487D01*
X66350500Y-14149901D01*
X66350500Y-14149833D01*
X78317000Y-14149833D01*
X78317001Y-14149850D01*
X78323518Y-14199354D01*
X78374192Y-14308024D01*
X78458975Y-14392807D01*
X78567646Y-14443481D01*
X78567645Y-14443481D01*
X78617149Y-14449998D01*
X78617167Y-14450000D01*
X78817000Y-14450000D01*
X79217000Y-14450000D01*
X79416833Y-14450000D01*
X79416850Y-14449998D01*
X79466354Y-14443481D01*
X79575024Y-14392807D01*
X79659807Y-14308024D01*
X79710481Y-14199354D01*
X79716998Y-14149850D01*
X79717000Y-14149833D01*
X79717000Y-13650000D01*
X79217000Y-13650000D01*
X79217000Y-14450000D01*
X78817000Y-14450000D01*
X78817000Y-13650000D01*
X78317000Y-13650000D01*
X78317000Y-14149833D01*
X66350500Y-14149833D01*
X66350499Y-13443761D01*
X66350499Y-12750105D01*
X66350499Y-12750100D01*
X66343972Y-12700513D01*
X66293224Y-12591684D01*
X66293223Y-12591683D01*
X66288639Y-12581852D01*
X66290814Y-12580837D01*
X66273305Y-12528917D01*
X66290315Y-12461150D01*
X66341263Y-12413337D01*
X66397207Y-12400000D01*
X78270414Y-12400000D01*
X78337453Y-12419685D01*
X78383208Y-12472489D01*
X78393152Y-12541647D01*
X78377381Y-12581493D01*
X78378777Y-12582144D01*
X78323518Y-12700645D01*
X78317001Y-12750149D01*
X78317000Y-12750166D01*
X78317000Y-13250000D01*
X79717000Y-13250000D01*
X79717000Y-12750166D01*
X79716998Y-12750149D01*
X79710481Y-12700645D01*
X79655223Y-12582144D01*
X79657307Y-12581172D01*
X79639684Y-12528925D01*
X79656690Y-12461156D01*
X79707635Y-12413340D01*
X79763586Y-12400000D01*
X81569793Y-12400000D01*
X81636832Y-12419685D01*
X81682587Y-12472489D01*
X81692531Y-12541647D01*
X81676891Y-12581166D01*
X81678361Y-12581852D01*
X81623027Y-12700514D01*
X81616500Y-12750098D01*
X81616500Y-14149894D01*
X81616501Y-14149900D01*
X81623028Y-14199487D01*
X81623029Y-14199489D01*
X81623029Y-14199490D01*
X81655201Y-14268482D01*
X81673776Y-14308316D01*
X81758684Y-14393224D01*
X81867513Y-14443972D01*
X81917099Y-14450500D01*
X82716900Y-14450499D01*
X82766487Y-14443972D01*
X82875316Y-14393224D01*
X82960224Y-14308316D01*
X83010972Y-14199487D01*
X83017500Y-14149901D01*
X83017500Y-14149833D01*
X94983000Y-14149833D01*
X94983001Y-14149850D01*
X94989518Y-14199354D01*
X95040192Y-14308024D01*
X95124975Y-14392807D01*
X95233646Y-14443481D01*
X95233645Y-14443481D01*
X95283149Y-14449998D01*
X95283167Y-14450000D01*
X95483000Y-14450000D01*
X95883000Y-14450000D01*
X96082833Y-14450000D01*
X96082850Y-14449998D01*
X96132354Y-14443481D01*
X96241024Y-14392807D01*
X96325807Y-14308024D01*
X96376481Y-14199354D01*
X96382998Y-14149850D01*
X96383000Y-14149833D01*
X96383000Y-13650000D01*
X95883000Y-13650000D01*
X95883000Y-14450000D01*
X95483000Y-14450000D01*
X95483000Y-13650000D01*
X94983000Y-13650000D01*
X94983000Y-14149833D01*
X83017500Y-14149833D01*
X83017499Y-13443761D01*
X83017499Y-12750105D01*
X83017499Y-12750100D01*
X83010972Y-12700513D01*
X82960224Y-12591684D01*
X82960223Y-12591683D01*
X82955639Y-12581852D01*
X82957814Y-12580837D01*
X82940305Y-12528917D01*
X82957315Y-12461150D01*
X83008263Y-12413337D01*
X83064207Y-12400000D01*
X94936414Y-12400000D01*
X95003453Y-12419685D01*
X95049208Y-12472489D01*
X95059152Y-12541647D01*
X95043381Y-12581493D01*
X95044777Y-12582144D01*
X94989518Y-12700645D01*
X94983001Y-12750149D01*
X94983000Y-12750166D01*
X94983000Y-13250000D01*
X96383000Y-13250000D01*
X96383000Y-12750166D01*
X96382998Y-12750149D01*
X96376481Y-12700645D01*
X96321223Y-12582144D01*
X96323307Y-12581172D01*
X96305684Y-12528925D01*
X96322690Y-12461156D01*
X96373635Y-12413340D01*
X96429586Y-12400000D01*
X98235793Y-12400000D01*
X98302832Y-12419685D01*
X98348587Y-12472489D01*
X98358531Y-12541647D01*
X98342891Y-12581166D01*
X98344361Y-12581852D01*
X98289027Y-12700514D01*
X98282500Y-12750098D01*
X98282500Y-14149894D01*
X98282501Y-14149900D01*
X98289028Y-14199487D01*
X98289029Y-14199489D01*
X98289029Y-14199490D01*
X98321201Y-14268482D01*
X98339776Y-14308316D01*
X98424684Y-14393224D01*
X98533513Y-14443972D01*
X98583099Y-14450500D01*
X99382900Y-14450499D01*
X99432487Y-14443972D01*
X99541316Y-14393224D01*
X99626224Y-14308316D01*
X99676972Y-14199487D01*
X99683500Y-14149901D01*
X99683500Y-14149833D01*
X111650000Y-14149833D01*
X111650001Y-14149850D01*
X111656518Y-14199354D01*
X111707192Y-14308024D01*
X111791975Y-14392807D01*
X111900646Y-14443481D01*
X111900645Y-14443481D01*
X111950149Y-14449998D01*
X111950167Y-14450000D01*
X112150000Y-14450000D01*
X112550000Y-14450000D01*
X112749833Y-14450000D01*
X112749850Y-14449998D01*
X112799354Y-14443481D01*
X112908024Y-14392807D01*
X112992807Y-14308024D01*
X113043481Y-14199354D01*
X113049998Y-14149850D01*
X113050000Y-14149833D01*
X113050000Y-13650000D01*
X112550000Y-13650000D01*
X112550000Y-14450000D01*
X112150000Y-14450000D01*
X112150000Y-13650000D01*
X111650000Y-13650000D01*
X111650000Y-14149833D01*
X99683500Y-14149833D01*
X99683499Y-13443761D01*
X99683499Y-12750105D01*
X99683499Y-12750100D01*
X99676972Y-12700513D01*
X99626224Y-12591684D01*
X99626223Y-12591683D01*
X99621639Y-12581852D01*
X99623814Y-12580837D01*
X99606305Y-12528917D01*
X99623315Y-12461150D01*
X99674263Y-12413337D01*
X99730207Y-12400000D01*
X111603414Y-12400000D01*
X111670453Y-12419685D01*
X111716208Y-12472489D01*
X111726152Y-12541647D01*
X111710381Y-12581493D01*
X111711777Y-12582144D01*
X111656518Y-12700645D01*
X111650001Y-12750149D01*
X111650000Y-12750166D01*
X111650000Y-13250000D01*
X113050000Y-13250000D01*
X113050000Y-12750166D01*
X113049998Y-12750149D01*
X113043481Y-12700645D01*
X112988223Y-12582144D01*
X112990307Y-12581172D01*
X112972684Y-12528925D01*
X112989690Y-12461156D01*
X113040635Y-12413340D01*
X113096586Y-12400000D01*
X114902793Y-12400000D01*
X114969832Y-12419685D01*
X115015587Y-12472489D01*
X115025531Y-12541647D01*
X115009891Y-12581166D01*
X115011361Y-12581852D01*
X114956027Y-12700514D01*
X114949500Y-12750098D01*
X114949500Y-14149894D01*
X114949501Y-14149900D01*
X114956028Y-14199487D01*
X114956029Y-14199489D01*
X114956029Y-14199490D01*
X114988201Y-14268482D01*
X115006776Y-14308316D01*
X115091684Y-14393224D01*
X115200513Y-14443972D01*
X115250099Y-14450500D01*
X116049900Y-14450499D01*
X116099487Y-14443972D01*
X116208316Y-14393224D01*
X116293224Y-14308316D01*
X116343972Y-14199487D01*
X116350500Y-14149901D01*
X116350500Y-14149833D01*
X128317000Y-14149833D01*
X128317001Y-14149850D01*
X128323518Y-14199354D01*
X128374192Y-14308024D01*
X128458975Y-14392807D01*
X128567646Y-14443481D01*
X128567645Y-14443481D01*
X128617149Y-14449998D01*
X128617167Y-14450000D01*
X128817000Y-14450000D01*
X129217000Y-14450000D01*
X129416833Y-14450000D01*
X129416850Y-14449998D01*
X129466354Y-14443481D01*
X129575024Y-14392807D01*
X129659807Y-14308024D01*
X129710481Y-14199354D01*
X129716998Y-14149850D01*
X129717000Y-14149833D01*
X129717000Y-13650000D01*
X129217000Y-13650000D01*
X129217000Y-14450000D01*
X128817000Y-14450000D01*
X128817000Y-13650000D01*
X128317000Y-13650000D01*
X128317000Y-14149833D01*
X116350500Y-14149833D01*
X116350499Y-13443761D01*
X116350499Y-12750105D01*
X116350499Y-12750100D01*
X116343972Y-12700513D01*
X116293224Y-12591684D01*
X116293223Y-12591683D01*
X116288639Y-12581852D01*
X116290814Y-12580837D01*
X116273305Y-12528917D01*
X116290315Y-12461150D01*
X116341263Y-12413337D01*
X116397207Y-12400000D01*
X128270414Y-12400000D01*
X128337453Y-12419685D01*
X128383208Y-12472489D01*
X128393152Y-12541647D01*
X128377381Y-12581493D01*
X128378777Y-12582144D01*
X128323518Y-12700645D01*
X128317001Y-12750149D01*
X128317000Y-12750166D01*
X128317000Y-13250000D01*
X129717000Y-13250000D01*
X129717000Y-12750166D01*
X129716998Y-12750149D01*
X129710481Y-12700645D01*
X129655223Y-12582144D01*
X129657307Y-12581172D01*
X129639684Y-12528925D01*
X129656690Y-12461156D01*
X129707635Y-12413340D01*
X129763586Y-12400000D01*
X131569793Y-12400000D01*
X131636832Y-12419685D01*
X131682587Y-12472489D01*
X131692531Y-12541647D01*
X131676891Y-12581166D01*
X131678361Y-12581852D01*
X131623027Y-12700514D01*
X131616500Y-12750098D01*
X131616500Y-14149894D01*
X131616501Y-14149900D01*
X131623028Y-14199487D01*
X131623029Y-14199489D01*
X131623029Y-14199490D01*
X131655201Y-14268482D01*
X131673776Y-14308316D01*
X131758684Y-14393224D01*
X131867513Y-14443972D01*
X131917099Y-14450500D01*
X132716900Y-14450499D01*
X132766487Y-14443972D01*
X132875316Y-14393224D01*
X132960224Y-14308316D01*
X133010972Y-14199487D01*
X133017500Y-14149901D01*
X133017500Y-14149833D01*
X144983000Y-14149833D01*
X144983001Y-14149850D01*
X144989518Y-14199354D01*
X145040192Y-14308024D01*
X145124975Y-14392807D01*
X145233646Y-14443481D01*
X145233645Y-14443481D01*
X145283149Y-14449998D01*
X145283167Y-14450000D01*
X145483000Y-14450000D01*
X145883000Y-14450000D01*
X146082833Y-14450000D01*
X146082850Y-14449998D01*
X146132354Y-14443481D01*
X146241024Y-14392807D01*
X146325807Y-14308024D01*
X146376481Y-14199354D01*
X146382998Y-14149850D01*
X146383000Y-14149833D01*
X146383000Y-13650000D01*
X145883000Y-13650000D01*
X145883000Y-14450000D01*
X145483000Y-14450000D01*
X145483000Y-13650000D01*
X144983000Y-13650000D01*
X144983000Y-14149833D01*
X133017500Y-14149833D01*
X133017499Y-13443761D01*
X133017499Y-12750105D01*
X133017499Y-12750100D01*
X133010972Y-12700513D01*
X132960224Y-12591684D01*
X132960223Y-12591683D01*
X132955639Y-12581852D01*
X132957814Y-12580837D01*
X132940305Y-12528917D01*
X132957315Y-12461150D01*
X133008263Y-12413337D01*
X133064207Y-12400000D01*
X144936414Y-12400000D01*
X145003453Y-12419685D01*
X145049208Y-12472489D01*
X145059152Y-12541647D01*
X145043381Y-12581493D01*
X145044777Y-12582144D01*
X144989518Y-12700645D01*
X144983001Y-12750149D01*
X144983000Y-12750166D01*
X144983000Y-13250000D01*
X146383000Y-13250000D01*
X146383000Y-12750166D01*
X146382998Y-12750149D01*
X146376481Y-12700645D01*
X146321223Y-12582144D01*
X146323307Y-12581172D01*
X146305684Y-12528925D01*
X146322690Y-12461156D01*
X146373635Y-12413340D01*
X146429586Y-12400000D01*
X148235793Y-12400000D01*
X148302832Y-12419685D01*
X148348587Y-12472489D01*
X148358531Y-12541647D01*
X148342891Y-12581166D01*
X148344361Y-12581852D01*
X148289027Y-12700514D01*
X148282500Y-12750098D01*
X148282500Y-14149894D01*
X148282501Y-14149900D01*
X148289028Y-14199487D01*
X148289029Y-14199489D01*
X148289029Y-14199490D01*
X148321201Y-14268482D01*
X148339776Y-14308316D01*
X148424684Y-14393224D01*
X148533513Y-14443972D01*
X148583099Y-14450500D01*
X149382900Y-14450499D01*
X149432487Y-14443972D01*
X149541316Y-14393224D01*
X149626224Y-14308316D01*
X149676972Y-14199487D01*
X149683500Y-14149901D01*
X149683500Y-14149833D01*
X161650000Y-14149833D01*
X161650001Y-14149850D01*
X161656518Y-14199354D01*
X161707192Y-14308024D01*
X161791975Y-14392807D01*
X161900646Y-14443481D01*
X161900645Y-14443481D01*
X161950149Y-14449998D01*
X161950167Y-14450000D01*
X162150000Y-14450000D01*
X162550000Y-14450000D01*
X162749833Y-14450000D01*
X162749850Y-14449998D01*
X162799354Y-14443481D01*
X162908024Y-14392807D01*
X162992807Y-14308024D01*
X163043481Y-14199354D01*
X163049998Y-14149850D01*
X163050000Y-14149833D01*
X163050000Y-13650000D01*
X162550000Y-13650000D01*
X162550000Y-14450000D01*
X162150000Y-14450000D01*
X162150000Y-13650000D01*
X161650000Y-13650000D01*
X161650000Y-14149833D01*
X149683500Y-14149833D01*
X149683499Y-13443761D01*
X149683499Y-12750105D01*
X149683499Y-12750100D01*
X149676972Y-12700513D01*
X149626224Y-12591684D01*
X149626223Y-12591683D01*
X149621639Y-12581852D01*
X149623814Y-12580837D01*
X149606305Y-12528917D01*
X149623315Y-12461150D01*
X149674263Y-12413337D01*
X149730207Y-12400000D01*
X161603414Y-12400000D01*
X161670453Y-12419685D01*
X161716208Y-12472489D01*
X161726152Y-12541647D01*
X161710381Y-12581493D01*
X161711777Y-12582144D01*
X161656518Y-12700645D01*
X161650001Y-12750149D01*
X161650000Y-12750166D01*
X161650000Y-13250000D01*
X163050000Y-13250000D01*
X163050000Y-12750166D01*
X163049998Y-12750149D01*
X163043481Y-12700645D01*
X162988223Y-12582144D01*
X162990307Y-12581172D01*
X162972684Y-12528925D01*
X162989690Y-12461156D01*
X163040635Y-12413340D01*
X163096586Y-12400000D01*
X164902793Y-12400000D01*
X164969832Y-12419685D01*
X165015587Y-12472489D01*
X165025531Y-12541647D01*
X165009891Y-12581166D01*
X165011361Y-12581852D01*
X164956027Y-12700514D01*
X164949500Y-12750098D01*
X164949500Y-14149894D01*
X164949501Y-14149900D01*
X164956028Y-14199487D01*
X164956029Y-14199489D01*
X164956029Y-14199490D01*
X164988201Y-14268482D01*
X165006776Y-14308316D01*
X165091684Y-14393224D01*
X165200513Y-14443972D01*
X165250099Y-14450500D01*
X166049900Y-14450499D01*
X166099487Y-14443972D01*
X166208316Y-14393224D01*
X166293224Y-14308316D01*
X166343972Y-14199487D01*
X166350500Y-14149901D01*
X166350500Y-14149833D01*
X178317000Y-14149833D01*
X178317001Y-14149850D01*
X178323518Y-14199354D01*
X178374192Y-14308024D01*
X178458975Y-14392807D01*
X178567646Y-14443481D01*
X178567645Y-14443481D01*
X178617149Y-14449998D01*
X178617167Y-14450000D01*
X178817000Y-14450000D01*
X179217000Y-14450000D01*
X179416833Y-14450000D01*
X179416850Y-14449998D01*
X179466354Y-14443481D01*
X179575024Y-14392807D01*
X179659807Y-14308024D01*
X179710481Y-14199354D01*
X179716998Y-14149850D01*
X179717000Y-14149833D01*
X179717000Y-13650000D01*
X179217000Y-13650000D01*
X179217000Y-14450000D01*
X178817000Y-14450000D01*
X178817000Y-13650000D01*
X178317000Y-13650000D01*
X178317000Y-14149833D01*
X166350500Y-14149833D01*
X166350499Y-13443761D01*
X166350499Y-12750105D01*
X166350499Y-12750100D01*
X166343972Y-12700513D01*
X166293224Y-12591684D01*
X166293223Y-12591683D01*
X166288639Y-12581852D01*
X166290814Y-12580837D01*
X166273305Y-12528917D01*
X166290315Y-12461150D01*
X166341263Y-12413337D01*
X166397207Y-12400000D01*
X178270414Y-12400000D01*
X178337453Y-12419685D01*
X178383208Y-12472489D01*
X178393152Y-12541647D01*
X178377381Y-12581493D01*
X178378777Y-12582144D01*
X178323518Y-12700645D01*
X178317001Y-12750149D01*
X178317000Y-12750166D01*
X178317000Y-13250000D01*
X179717000Y-13250000D01*
X179717000Y-12750166D01*
X179716998Y-12750149D01*
X179710481Y-12700645D01*
X179655223Y-12582144D01*
X179657307Y-12581172D01*
X179639684Y-12528925D01*
X179656690Y-12461156D01*
X179707635Y-12413340D01*
X179763586Y-12400000D01*
X181569793Y-12400000D01*
X181636832Y-12419685D01*
X181682587Y-12472489D01*
X181692531Y-12541647D01*
X181676891Y-12581166D01*
X181678361Y-12581852D01*
X181623027Y-12700514D01*
X181616500Y-12750098D01*
X181616500Y-14149894D01*
X181616501Y-14149900D01*
X181623028Y-14199487D01*
X181623029Y-14199489D01*
X181623029Y-14199490D01*
X181655201Y-14268482D01*
X181673776Y-14308316D01*
X181758684Y-14393224D01*
X181867513Y-14443972D01*
X181917099Y-14450500D01*
X182716900Y-14450499D01*
X182766487Y-14443972D01*
X182875316Y-14393224D01*
X182960224Y-14308316D01*
X183010972Y-14199487D01*
X183017500Y-14149901D01*
X183017500Y-14149833D01*
X194983000Y-14149833D01*
X194983001Y-14149850D01*
X194989518Y-14199354D01*
X195040192Y-14308024D01*
X195124975Y-14392807D01*
X195233646Y-14443481D01*
X195233645Y-14443481D01*
X195283149Y-14449998D01*
X195283167Y-14450000D01*
X195483000Y-14450000D01*
X195883000Y-14450000D01*
X196082833Y-14450000D01*
X196082850Y-14449998D01*
X196132354Y-14443481D01*
X196241024Y-14392807D01*
X196325807Y-14308024D01*
X196376481Y-14199354D01*
X196382998Y-14149850D01*
X196383000Y-14149833D01*
X196383000Y-13650000D01*
X195883000Y-13650000D01*
X195883000Y-14450000D01*
X195483000Y-14450000D01*
X195483000Y-13650000D01*
X194983000Y-13650000D01*
X194983000Y-14149833D01*
X183017500Y-14149833D01*
X183017499Y-13443761D01*
X183017499Y-12750105D01*
X183017499Y-12750100D01*
X183010972Y-12700513D01*
X182960224Y-12591684D01*
X182960223Y-12591683D01*
X182955639Y-12581852D01*
X182957814Y-12580837D01*
X182940305Y-12528917D01*
X182957315Y-12461150D01*
X183008263Y-12413337D01*
X183064207Y-12400000D01*
X194936414Y-12400000D01*
X195003453Y-12419685D01*
X195049208Y-12472489D01*
X195059152Y-12541647D01*
X195043381Y-12581493D01*
X195044777Y-12582144D01*
X194989518Y-12700645D01*
X194983001Y-12750149D01*
X194983000Y-12750166D01*
X194983000Y-13250000D01*
X196383000Y-13250000D01*
X196383000Y-12750166D01*
X196382998Y-12750149D01*
X196376481Y-12700645D01*
X196321223Y-12582144D01*
X196323307Y-12581172D01*
X196305684Y-12528925D01*
X196322690Y-12461156D01*
X196373635Y-12413340D01*
X196429586Y-12400000D01*
X198235793Y-12400000D01*
X198302832Y-12419685D01*
X198348587Y-12472489D01*
X198358531Y-12541647D01*
X198342891Y-12581166D01*
X198344361Y-12581852D01*
X198289027Y-12700514D01*
X198282500Y-12750098D01*
X198282500Y-14149894D01*
X198282501Y-14149900D01*
X198289028Y-14199487D01*
X198289029Y-14199489D01*
X198289029Y-14199490D01*
X198321201Y-14268482D01*
X198339776Y-14308316D01*
X198424684Y-14393224D01*
X198533513Y-14443972D01*
X198583099Y-14450500D01*
X199382900Y-14450499D01*
X199432487Y-14443972D01*
X199541316Y-14393224D01*
X199626224Y-14308316D01*
X199676972Y-14199487D01*
X199683500Y-14149901D01*
X199683500Y-14149833D01*
X211650000Y-14149833D01*
X211650001Y-14149850D01*
X211656518Y-14199354D01*
X211707192Y-14308024D01*
X211791975Y-14392807D01*
X211900646Y-14443481D01*
X211900645Y-14443481D01*
X211950149Y-14449998D01*
X211950167Y-14450000D01*
X212150000Y-14450000D01*
X212550000Y-14450000D01*
X212749833Y-14450000D01*
X212749850Y-14449998D01*
X212799354Y-14443481D01*
X212908024Y-14392807D01*
X212992807Y-14308024D01*
X213043481Y-14199354D01*
X213049998Y-14149850D01*
X213050000Y-14149833D01*
X213050000Y-13650000D01*
X212550000Y-13650000D01*
X212550000Y-14450000D01*
X212150000Y-14450000D01*
X212150000Y-13650000D01*
X211650000Y-13650000D01*
X211650000Y-14149833D01*
X199683500Y-14149833D01*
X199683499Y-13443761D01*
X199683499Y-12750105D01*
X199683499Y-12750100D01*
X199676972Y-12700513D01*
X199626224Y-12591684D01*
X199626223Y-12591683D01*
X199621639Y-12581852D01*
X199623814Y-12580837D01*
X199606305Y-12528917D01*
X199623315Y-12461150D01*
X199674263Y-12413337D01*
X199730207Y-12400000D01*
X211603414Y-12400000D01*
X211670453Y-12419685D01*
X211716208Y-12472489D01*
X211726152Y-12541647D01*
X211710381Y-12581493D01*
X211711777Y-12582144D01*
X211656518Y-12700645D01*
X211650001Y-12750149D01*
X211650000Y-12750166D01*
X211650000Y-13250000D01*
X213050000Y-13250000D01*
X213050000Y-12750166D01*
X213049998Y-12750149D01*
X213043481Y-12700645D01*
X212988223Y-12582144D01*
X212990307Y-12581172D01*
X212972684Y-12528925D01*
X212989690Y-12461156D01*
X213040635Y-12413340D01*
X213096586Y-12400000D01*
X214902793Y-12400000D01*
X214969832Y-12419685D01*
X215015587Y-12472489D01*
X215025531Y-12541647D01*
X215009891Y-12581166D01*
X215011361Y-12581852D01*
X214956027Y-12700514D01*
X214949500Y-12750098D01*
X214949500Y-14149894D01*
X214949501Y-14149900D01*
X214956028Y-14199487D01*
X214956029Y-14199489D01*
X214956029Y-14199490D01*
X214988201Y-14268482D01*
X215006776Y-14308316D01*
X215091684Y-14393224D01*
X215200513Y-14443972D01*
X215250099Y-14450500D01*
X216049900Y-14450499D01*
X216099487Y-14443972D01*
X216208316Y-14393224D01*
X216293224Y-14308316D01*
X216343972Y-14199487D01*
X216350500Y-14149901D01*
X216350500Y-14149833D01*
X228317000Y-14149833D01*
X228317001Y-14149850D01*
X228323518Y-14199354D01*
X228374192Y-14308024D01*
X228458975Y-14392807D01*
X228567646Y-14443481D01*
X228567645Y-14443481D01*
X228617149Y-14449998D01*
X228617167Y-14450000D01*
X228817000Y-14450000D01*
X229217000Y-14450000D01*
X229416833Y-14450000D01*
X229416850Y-14449998D01*
X229466354Y-14443481D01*
X229575024Y-14392807D01*
X229659807Y-14308024D01*
X229710481Y-14199354D01*
X229716998Y-14149850D01*
X229717000Y-14149833D01*
X229717000Y-13650000D01*
X229217000Y-13650000D01*
X229217000Y-14450000D01*
X228817000Y-14450000D01*
X228817000Y-13650000D01*
X228317000Y-13650000D01*
X228317000Y-14149833D01*
X216350500Y-14149833D01*
X216350499Y-13443761D01*
X216350499Y-12750105D01*
X216350499Y-12750100D01*
X216343972Y-12700513D01*
X216293224Y-12591684D01*
X216293223Y-12591683D01*
X216288639Y-12581852D01*
X216290814Y-12580837D01*
X216273305Y-12528917D01*
X216290315Y-12461150D01*
X216341263Y-12413337D01*
X216397207Y-12400000D01*
X228270414Y-12400000D01*
X228337453Y-12419685D01*
X228383208Y-12472489D01*
X228393152Y-12541647D01*
X228377381Y-12581493D01*
X228378777Y-12582144D01*
X228323518Y-12700645D01*
X228317001Y-12750149D01*
X228317000Y-12750166D01*
X228317000Y-13250000D01*
X229717000Y-13250000D01*
X229717000Y-12750166D01*
X229716998Y-12750149D01*
X229710481Y-12700645D01*
X229655223Y-12582144D01*
X229657307Y-12581172D01*
X229639684Y-12528925D01*
X229656690Y-12461156D01*
X229707635Y-12413340D01*
X229763586Y-12400000D01*
X231569793Y-12400000D01*
X231636832Y-12419685D01*
X231682587Y-12472489D01*
X231692531Y-12541647D01*
X231676891Y-12581166D01*
X231678361Y-12581852D01*
X231623027Y-12700514D01*
X231616500Y-12750098D01*
X231616500Y-14149894D01*
X231616501Y-14149900D01*
X231623028Y-14199487D01*
X231623029Y-14199489D01*
X231623029Y-14199490D01*
X231655201Y-14268482D01*
X231673776Y-14308316D01*
X231758684Y-14393224D01*
X231867513Y-14443972D01*
X231917099Y-14450500D01*
X232716900Y-14450499D01*
X232766487Y-14443972D01*
X232875316Y-14393224D01*
X232960224Y-14308316D01*
X233010972Y-14199487D01*
X233017500Y-14149901D01*
X233017499Y-12750100D01*
X233010972Y-12700513D01*
X232960224Y-12591684D01*
X232960223Y-12591683D01*
X232955639Y-12581852D01*
X232957814Y-12580837D01*
X232940305Y-12528917D01*
X232957315Y-12461150D01*
X233008263Y-12413337D01*
X233064207Y-12400000D01*
X239266301Y-12400000D01*
X239333340Y-12419685D01*
X239379095Y-12472489D01*
X239389039Y-12541647D01*
X239369403Y-12592891D01*
X239334919Y-12644498D01*
X239334912Y-12644511D01*
X239278343Y-12781082D01*
X239278340Y-12781092D01*
X239249500Y-12926079D01*
X239249500Y-12926082D01*
X239249500Y-13073918D01*
X239249500Y-13073920D01*
X239249499Y-13073920D01*
X239278340Y-13218907D01*
X239278343Y-13218917D01*
X239334912Y-13355488D01*
X239334919Y-13355501D01*
X239417048Y-13478415D01*
X239417051Y-13478419D01*
X239521580Y-13582948D01*
X239521584Y-13582951D01*
X239644498Y-13665080D01*
X239644511Y-13665087D01*
X239781082Y-13721656D01*
X239781087Y-13721658D01*
X239781091Y-13721658D01*
X239781092Y-13721659D01*
X239926079Y-13750500D01*
X239926082Y-13750500D01*
X240073920Y-13750500D01*
X240171462Y-13731096D01*
X240218913Y-13721658D01*
X240355495Y-13665084D01*
X240478416Y-13582951D01*
X240582951Y-13478416D01*
X240665084Y-13355495D01*
X240721658Y-13218913D01*
X240745312Y-13099999D01*
X240750500Y-13073920D01*
X240750500Y-12926079D01*
X240721659Y-12781092D01*
X240721658Y-12781091D01*
X240721658Y-12781087D01*
X240708823Y-12750100D01*
X240665087Y-12644511D01*
X240665080Y-12644498D01*
X240630597Y-12592891D01*
X240609719Y-12526214D01*
X240628203Y-12458834D01*
X240680182Y-12412143D01*
X240733699Y-12400000D01*
X248876000Y-12400000D01*
X248943039Y-12419685D01*
X248988794Y-12472489D01*
X249000000Y-12524000D01*
X249000000Y-16876000D01*
X248980315Y-16943039D01*
X248927511Y-16988794D01*
X248876000Y-17000000D01*
X246612729Y-17000000D01*
X246545690Y-16980315D01*
X246525047Y-16963680D01*
X246478419Y-16917051D01*
X246478415Y-16917048D01*
X246355501Y-16834919D01*
X246355488Y-16834912D01*
X246218917Y-16778343D01*
X246218907Y-16778340D01*
X246073920Y-16749500D01*
X246073918Y-16749500D01*
X245926082Y-16749500D01*
X245926080Y-16749500D01*
X245781092Y-16778340D01*
X245781082Y-16778343D01*
X245644511Y-16834912D01*
X245644498Y-16834919D01*
X245521584Y-16917048D01*
X245521580Y-16917051D01*
X245474953Y-16963680D01*
X245413630Y-16997166D01*
X245387271Y-17000000D01*
X58654500Y-17000000D01*
X58587461Y-16980315D01*
X58541706Y-16927511D01*
X58530500Y-16876000D01*
X58530500Y-16578423D01*
X58530500Y-16578418D01*
X58519582Y-16503482D01*
X58506696Y-16477123D01*
X58463078Y-16387900D01*
X58463076Y-16387897D01*
X58372102Y-16296923D01*
X58372099Y-16296921D01*
X58256521Y-16240419D01*
X58256519Y-16240418D01*
X58256518Y-16240418D01*
X58181582Y-16229500D01*
X57838418Y-16229500D01*
X57763482Y-16240418D01*
X57763480Y-16240418D01*
X57763478Y-16240419D01*
X57647900Y-16296921D01*
X57647897Y-16296923D01*
X57587681Y-16357140D01*
X57526358Y-16390625D01*
X57456666Y-16385641D01*
X57412319Y-16357140D01*
X57352102Y-16296923D01*
X57352099Y-16296921D01*
X57236521Y-16240419D01*
X57236519Y-16240418D01*
X57236518Y-16240418D01*
X57161582Y-16229500D01*
X56818418Y-16229500D01*
X56743482Y-16240418D01*
X56743480Y-16240418D01*
X56743478Y-16240419D01*
X56627900Y-16296921D01*
X56627897Y-16296923D01*
X56536923Y-16387897D01*
X56536921Y-16387900D01*
X56480419Y-16503478D01*
X56480418Y-16503480D01*
X56480418Y-16503482D01*
X56469500Y-16578418D01*
X56469500Y-16578423D01*
X56469500Y-16876000D01*
X56449815Y-16943039D01*
X56397011Y-16988794D01*
X56345500Y-17000000D01*
X55724499Y-17000000D01*
X55657460Y-16980315D01*
X55611705Y-16927511D01*
X55600499Y-16876000D01*
X55600499Y-16477129D01*
X55600498Y-16477123D01*
X55596448Y-16439448D01*
X55594091Y-16417517D01*
X55583043Y-16387897D01*
X55543797Y-16282671D01*
X55543793Y-16282664D01*
X55457547Y-16167455D01*
X55457544Y-16167452D01*
X55439587Y-16154009D01*
X58628830Y-16154009D01*
X58644744Y-16164642D01*
X58781232Y-16221177D01*
X58781240Y-16221179D01*
X58926126Y-16249999D01*
X58926129Y-16250000D01*
X59073871Y-16250000D01*
X59073873Y-16249999D01*
X59218759Y-16221179D01*
X59218767Y-16221177D01*
X59318176Y-16180000D01*
X66844643Y-16180000D01*
X66854465Y-16242017D01*
X66910552Y-16352093D01*
X66910555Y-16352098D01*
X66997901Y-16439444D01*
X66997906Y-16439448D01*
X67107984Y-16495536D01*
X67199303Y-16509999D01*
X67600000Y-16509999D01*
X67600689Y-16509999D01*
X67692017Y-16495534D01*
X67802093Y-16439447D01*
X67802098Y-16439444D01*
X67889444Y-16352098D01*
X67889448Y-16352093D01*
X67945536Y-16242016D01*
X67955358Y-16180000D01*
X83511643Y-16180000D01*
X83521465Y-16242017D01*
X83577552Y-16352093D01*
X83577555Y-16352098D01*
X83664901Y-16439444D01*
X83664906Y-16439448D01*
X83774984Y-16495536D01*
X83866303Y-16509999D01*
X84267000Y-16509999D01*
X84267689Y-16509999D01*
X84359017Y-16495534D01*
X84469093Y-16439447D01*
X84469098Y-16439444D01*
X84556444Y-16352098D01*
X84556448Y-16352093D01*
X84612536Y-16242016D01*
X84622358Y-16180000D01*
X100177643Y-16180000D01*
X100187465Y-16242017D01*
X100243552Y-16352093D01*
X100243555Y-16352098D01*
X100330901Y-16439444D01*
X100330906Y-16439448D01*
X100440984Y-16495536D01*
X100532303Y-16509999D01*
X100933000Y-16509999D01*
X100933689Y-16509999D01*
X101025017Y-16495534D01*
X101135093Y-16439447D01*
X101135098Y-16439444D01*
X101222444Y-16352098D01*
X101222448Y-16352093D01*
X101278536Y-16242016D01*
X101288358Y-16180000D01*
X116844643Y-16180000D01*
X116854465Y-16242017D01*
X116910552Y-16352093D01*
X116910555Y-16352098D01*
X116997901Y-16439444D01*
X116997906Y-16439448D01*
X117107984Y-16495536D01*
X117199303Y-16509999D01*
X117600000Y-16509999D01*
X117600689Y-16509999D01*
X117692017Y-16495534D01*
X117802093Y-16439447D01*
X117802098Y-16439444D01*
X117889444Y-16352098D01*
X117889448Y-16352093D01*
X117945536Y-16242016D01*
X117955358Y-16180000D01*
X133511643Y-16180000D01*
X133521465Y-16242017D01*
X133577552Y-16352093D01*
X133577555Y-16352098D01*
X133664901Y-16439444D01*
X133664906Y-16439448D01*
X133774984Y-16495536D01*
X133866303Y-16509999D01*
X134267000Y-16509999D01*
X134267689Y-16509999D01*
X134359017Y-16495534D01*
X134469093Y-16439447D01*
X134469098Y-16439444D01*
X134556444Y-16352098D01*
X134556448Y-16352093D01*
X134612536Y-16242016D01*
X134622358Y-16180000D01*
X150177643Y-16180000D01*
X150187465Y-16242017D01*
X150243552Y-16352093D01*
X150243555Y-16352098D01*
X150330901Y-16439444D01*
X150330906Y-16439448D01*
X150440984Y-16495536D01*
X150532303Y-16509999D01*
X150933000Y-16509999D01*
X150933689Y-16509999D01*
X151025017Y-16495534D01*
X151135093Y-16439447D01*
X151135098Y-16439444D01*
X151222444Y-16352098D01*
X151222448Y-16352093D01*
X151278536Y-16242016D01*
X151288358Y-16180000D01*
X166844643Y-16180000D01*
X166854465Y-16242017D01*
X166910552Y-16352093D01*
X166910555Y-16352098D01*
X166997901Y-16439444D01*
X166997906Y-16439448D01*
X167107984Y-16495536D01*
X167199303Y-16509999D01*
X167600000Y-16509999D01*
X167600689Y-16509999D01*
X167692017Y-16495534D01*
X167802093Y-16439447D01*
X167802098Y-16439444D01*
X167889444Y-16352098D01*
X167889448Y-16352093D01*
X167945536Y-16242016D01*
X167955358Y-16180000D01*
X183511643Y-16180000D01*
X183521465Y-16242017D01*
X183577552Y-16352093D01*
X183577555Y-16352098D01*
X183664901Y-16439444D01*
X183664906Y-16439448D01*
X183774984Y-16495536D01*
X183866303Y-16509999D01*
X184267000Y-16509999D01*
X184267689Y-16509999D01*
X184359017Y-16495534D01*
X184469093Y-16439447D01*
X184469098Y-16439444D01*
X184556444Y-16352098D01*
X184556448Y-16352093D01*
X184612536Y-16242016D01*
X184622358Y-16180000D01*
X200177643Y-16180000D01*
X200187465Y-16242017D01*
X200243552Y-16352093D01*
X200243555Y-16352098D01*
X200330901Y-16439444D01*
X200330906Y-16439448D01*
X200440984Y-16495536D01*
X200532303Y-16509999D01*
X200933000Y-16509999D01*
X200933689Y-16509999D01*
X201025017Y-16495534D01*
X201135093Y-16439447D01*
X201135098Y-16439444D01*
X201222444Y-16352098D01*
X201222448Y-16352093D01*
X201278536Y-16242016D01*
X201288358Y-16180000D01*
X216844643Y-16180000D01*
X216854465Y-16242017D01*
X216910552Y-16352093D01*
X216910555Y-16352098D01*
X216997901Y-16439444D01*
X216997906Y-16439448D01*
X217107984Y-16495536D01*
X217199303Y-16509999D01*
X217600000Y-16509999D01*
X217600689Y-16509999D01*
X217692017Y-16495534D01*
X217802093Y-16439447D01*
X217802098Y-16439444D01*
X217889444Y-16352098D01*
X217889448Y-16352093D01*
X217945536Y-16242016D01*
X217955358Y-16180000D01*
X233511643Y-16180000D01*
X233521465Y-16242017D01*
X233577552Y-16352093D01*
X233577555Y-16352098D01*
X233664901Y-16439444D01*
X233664906Y-16439448D01*
X233774984Y-16495536D01*
X233866303Y-16509999D01*
X234267000Y-16509999D01*
X234267689Y-16509999D01*
X234359017Y-16495534D01*
X234469093Y-16439447D01*
X234469098Y-16439444D01*
X234556444Y-16352098D01*
X234556448Y-16352093D01*
X234612536Y-16242016D01*
X234622358Y-16180000D01*
X234267000Y-16180000D01*
X234267000Y-16509999D01*
X233866303Y-16509999D01*
X233866999Y-16509998D01*
X233867000Y-16509998D01*
X233867000Y-16180000D01*
X233511643Y-16180000D01*
X217955358Y-16180000D01*
X217600000Y-16180000D01*
X217600000Y-16509999D01*
X217199303Y-16509999D01*
X217199999Y-16509998D01*
X217200000Y-16509998D01*
X217200000Y-16180000D01*
X216844643Y-16180000D01*
X201288358Y-16180000D01*
X200933000Y-16180000D01*
X200933000Y-16509999D01*
X200532303Y-16509999D01*
X200532999Y-16509998D01*
X200533000Y-16509998D01*
X200533000Y-16180000D01*
X200177643Y-16180000D01*
X184622358Y-16180000D01*
X184267000Y-16180000D01*
X184267000Y-16509999D01*
X183866303Y-16509999D01*
X183866999Y-16509998D01*
X183867000Y-16509998D01*
X183867000Y-16180000D01*
X183511643Y-16180000D01*
X167955358Y-16180000D01*
X167600000Y-16180000D01*
X167600000Y-16509999D01*
X167199303Y-16509999D01*
X167199999Y-16509998D01*
X167200000Y-16509998D01*
X167200000Y-16180000D01*
X166844643Y-16180000D01*
X151288358Y-16180000D01*
X150933000Y-16180000D01*
X150933000Y-16509999D01*
X150532303Y-16509999D01*
X150532999Y-16509998D01*
X150533000Y-16509998D01*
X150533000Y-16180000D01*
X150177643Y-16180000D01*
X134622358Y-16180000D01*
X134267000Y-16180000D01*
X134267000Y-16509999D01*
X133866303Y-16509999D01*
X133866999Y-16509998D01*
X133867000Y-16509998D01*
X133867000Y-16180000D01*
X133511643Y-16180000D01*
X117955358Y-16180000D01*
X117600000Y-16180000D01*
X117600000Y-16509999D01*
X117199303Y-16509999D01*
X117199999Y-16509998D01*
X117200000Y-16509998D01*
X117200000Y-16180000D01*
X116844643Y-16180000D01*
X101288358Y-16180000D01*
X100933000Y-16180000D01*
X100933000Y-16509999D01*
X100532303Y-16509999D01*
X100532999Y-16509998D01*
X100533000Y-16509998D01*
X100533000Y-16180000D01*
X100177643Y-16180000D01*
X84622358Y-16180000D01*
X84267000Y-16180000D01*
X84267000Y-16509999D01*
X83866303Y-16509999D01*
X83866999Y-16509998D01*
X83867000Y-16509998D01*
X83867000Y-16180000D01*
X83511643Y-16180000D01*
X67955358Y-16180000D01*
X67600000Y-16180000D01*
X67600000Y-16509999D01*
X67199303Y-16509999D01*
X67199999Y-16509998D01*
X67200000Y-16509998D01*
X67200000Y-16180000D01*
X66844643Y-16180000D01*
X59318176Y-16180000D01*
X59355256Y-16164641D01*
X59355262Y-16164638D01*
X59371168Y-16154010D01*
X59000001Y-15782842D01*
X59000000Y-15782842D01*
X58628830Y-16154009D01*
X55439587Y-16154009D01*
X55342335Y-16081206D01*
X55342328Y-16081202D01*
X55207486Y-16030910D01*
X55207485Y-16030909D01*
X55207483Y-16030909D01*
X55147873Y-16024500D01*
X55147863Y-16024500D01*
X54552129Y-16024500D01*
X54552123Y-16024501D01*
X54492516Y-16030908D01*
X54357671Y-16081202D01*
X54357664Y-16081206D01*
X54242455Y-16167452D01*
X54223266Y-16193086D01*
X54167332Y-16234956D01*
X54097640Y-16239940D01*
X54036318Y-16206454D01*
X54002833Y-16145131D01*
X54000000Y-16118774D01*
X54000000Y-15426126D01*
X58250000Y-15426126D01*
X58250000Y-15573873D01*
X58278820Y-15718759D01*
X58278822Y-15718767D01*
X58335359Y-15855258D01*
X58345989Y-15871167D01*
X58717158Y-15500000D01*
X58717157Y-15499999D01*
X59282842Y-15499999D01*
X59282842Y-15500000D01*
X59654009Y-15871168D01*
X59654010Y-15871168D01*
X59664638Y-15855262D01*
X59664641Y-15855256D01*
X59700118Y-15769610D01*
X59721177Y-15718767D01*
X59721179Y-15718759D01*
X59749999Y-15573873D01*
X59750000Y-15573871D01*
X59750000Y-15426128D01*
X59749999Y-15426126D01*
X59721179Y-15281240D01*
X59721177Y-15281232D01*
X59664642Y-15144744D01*
X59654009Y-15128830D01*
X59282842Y-15499999D01*
X58717157Y-15499999D01*
X58345989Y-15128831D01*
X58345988Y-15128831D01*
X58335362Y-15144735D01*
X58335360Y-15144740D01*
X58278822Y-15281232D01*
X58278820Y-15281240D01*
X58250000Y-15426126D01*
X54000000Y-15426126D01*
X54000000Y-15124499D01*
X54019685Y-15057460D01*
X54072489Y-15011705D01*
X54123996Y-15000499D01*
X54906518Y-15000499D01*
X55000304Y-14985646D01*
X55113342Y-14928050D01*
X55203050Y-14838342D01*
X55260646Y-14725304D01*
X55260646Y-14725302D01*
X55260647Y-14725301D01*
X55272952Y-14647607D01*
X55275500Y-14631519D01*
X55275499Y-14268482D01*
X55260646Y-14174696D01*
X55203050Y-14061658D01*
X55203044Y-14061652D01*
X55197311Y-14053759D01*
X55198665Y-14052774D01*
X55170590Y-14001368D01*
X55175569Y-13931676D01*
X55198013Y-13896751D01*
X55197311Y-13896241D01*
X55203042Y-13888349D01*
X55203050Y-13888342D01*
X55260646Y-13775304D01*
X55260646Y-13775302D01*
X55260647Y-13775301D01*
X55275499Y-13681524D01*
X55275500Y-13681519D01*
X55275499Y-13318482D01*
X55260646Y-13224696D01*
X55203050Y-13111658D01*
X55203045Y-13111653D01*
X55197311Y-13103759D01*
X55198665Y-13102774D01*
X55170590Y-13051368D01*
X55175569Y-12981676D01*
X55198013Y-12946751D01*
X55197311Y-12946241D01*
X55203042Y-12938349D01*
X55203050Y-12938342D01*
X55260646Y-12825304D01*
X55260646Y-12825302D01*
X55260647Y-12825301D01*
X55272574Y-12750000D01*
X55727935Y-12750000D01*
X55739835Y-12825149D01*
X55739837Y-12825155D01*
X55797356Y-12938041D01*
X55797363Y-12938050D01*
X55886949Y-13027636D01*
X55886953Y-13027639D01*
X55999855Y-13085166D01*
X56093514Y-13099999D01*
X56437499Y-13099999D01*
X56437500Y-13099998D01*
X56437500Y-12750000D01*
X55727935Y-12750000D01*
X55272574Y-12750000D01*
X55275500Y-12731524D01*
X55275500Y-12712936D01*
X55275500Y-12636392D01*
X55275499Y-12523999D01*
X55295183Y-12456961D01*
X55347987Y-12411206D01*
X55399499Y-12400000D01*
X55595000Y-12400000D01*
X57680000Y-12400000D01*
X58510500Y-12400000D01*
X58577539Y-12419685D01*
G37*
%TD.AperFunction*%
%TD*%
%TA.AperFunction,Conductor*%
%TO.N,TOUCH_SENSE*%
G36*
X278943039Y-1219685D02*
G01*
X278988794Y-1272489D01*
X279000000Y-1324000D01*
X279000000Y-9076000D01*
X278980315Y-9143039D01*
X278927511Y-9188794D01*
X278876000Y-9200000D01*
X254124000Y-9200000D01*
X254056961Y-9180315D01*
X254011206Y-9127511D01*
X254000000Y-9076000D01*
X254000000Y-1324000D01*
X254019685Y-1256961D01*
X254072489Y-1211206D01*
X254124000Y-1200000D01*
X278876000Y-1200000D01*
X278943039Y-1219685D01*
G37*
%TD.AperFunction*%
%TD*%
%TA.AperFunction,Conductor*%
%TO.N,GND*%
G36*
X278943039Y-10619685D02*
G01*
X278988794Y-10672489D01*
X279000000Y-10724000D01*
X279000000Y-18476000D01*
X278980315Y-18543039D01*
X278927511Y-18588794D01*
X278876000Y-18600000D01*
X254124000Y-18600000D01*
X254056961Y-18580315D01*
X254011206Y-18527511D01*
X254000000Y-18476000D01*
X254000000Y-12136457D01*
X254019685Y-12069418D01*
X254072489Y-12023663D01*
X254099809Y-12014839D01*
X254218768Y-11991177D01*
X254355256Y-11934641D01*
X254355262Y-11934638D01*
X254371168Y-11924010D01*
X254000000Y-11552842D01*
X254000000Y-11269999D01*
X254282842Y-11269999D01*
X254282842Y-11270000D01*
X254654010Y-11641168D01*
X254664638Y-11625262D01*
X254664641Y-11625256D01*
X254721177Y-11488767D01*
X254721179Y-11488759D01*
X254749999Y-11343873D01*
X254750000Y-11343871D01*
X254750000Y-11196128D01*
X254749999Y-11196126D01*
X254721179Y-11051240D01*
X254721177Y-11051232D01*
X254664642Y-10914744D01*
X254654009Y-10898830D01*
X254282842Y-11269999D01*
X254000000Y-11269999D01*
X254000000Y-10987156D01*
X254369715Y-10617441D01*
X254369719Y-10617438D01*
X254387158Y-10600000D01*
X254574508Y-10600000D01*
X278876000Y-10600000D01*
X278943039Y-10619685D01*
G37*
%TD.AperFunction*%
%TD*%
M02*
