%TF.GenerationSoftware,KiCad,Pcbnew,10.0.5*%
%TF.CreationDate,2026-08-20T15:34:11+02:00*%
%TF.ProjectId,fl11,666c3131-2e6b-4696-9361-645f70636258,rev?*%
%TF.SameCoordinates,Original*%
%TF.FileFunction,Other,User*%
%FSLAX46Y46*%
G04 Gerber Fmt 4.6, Leading zero omitted, Abs format (unit mm)*
G04 Created by KiCad (PCBNEW 10.0.5) date 2026-08-20 15:34:11*
%MOMM*%
%LPD*%
G01*
G04 APERTURE LIST*
%ADD10C,0.050000*%
G04 APERTURE END LIST*
%TO.C,C14*%
D10*
X62590000Y-14640000D02*
X64410000Y-14640000D01*
X64410000Y-15560000D01*
X62590000Y-15560000D01*
X62590000Y-14640000D01*
%TO.C,R2*%
X90070000Y-46030000D02*
X91930000Y-46030000D01*
X91930000Y-46970000D01*
X90070000Y-46970000D01*
X90070000Y-46030000D01*
%TO.C,LD6*%
X68483300Y-7550000D02*
X68483300Y-14450000D01*
X68483300Y-14450000D02*
X73983300Y-14450000D01*
X73983300Y-7550000D02*
X68483300Y-7550000D01*
X73983300Y-14450000D02*
X73983300Y-7550000D01*
%TO.C,TP2*%
X123000000Y-27000000D02*
G75*
G02*
X121000000Y-27000000I-1000000J0D01*
G01*
X121000000Y-27000000D02*
G75*
G02*
X123000000Y-27000000I1000000J0D01*
G01*
%TO.C,U2*%
X72950000Y-29500000D02*
X73950000Y-29500000D01*
X72950000Y-32500000D02*
X72950000Y-29500000D01*
X73950000Y-29300000D02*
X76050000Y-29300000D01*
X73950000Y-29500000D02*
X73950000Y-29300000D01*
X73950000Y-32500000D02*
X72950000Y-32500000D01*
X73950000Y-32700000D02*
X73950000Y-32500000D01*
X76050000Y-29300000D02*
X76050000Y-29500000D01*
X76050000Y-29500000D02*
X77050000Y-29500000D01*
X76050000Y-30610000D02*
X76050000Y-31390000D01*
X76050000Y-31390000D02*
X77050000Y-31390000D01*
X76050000Y-32500000D02*
X76050000Y-32700000D01*
X76050000Y-32700000D02*
X73950000Y-32700000D01*
X77050000Y-29500000D02*
X77050000Y-30610000D01*
X77050000Y-30610000D02*
X76050000Y-30610000D01*
X77050000Y-31390000D02*
X77050000Y-32500000D01*
X77050000Y-32500000D02*
X76050000Y-32500000D01*
%TO.C,C18*%
X107123300Y-14640000D02*
X108943300Y-14640000D01*
X108943300Y-15560000D01*
X107123300Y-15560000D01*
X107123300Y-14640000D01*
%TO.C,LD13*%
X146416700Y-7550000D02*
X146416700Y-14450000D01*
X146416700Y-14450000D02*
X151916700Y-14450000D01*
X151916700Y-7550000D02*
X146416700Y-7550000D01*
X151916700Y-14450000D02*
X151916700Y-7550000D01*
%TO.C,LD8*%
X90750000Y-7550000D02*
X90750000Y-14450000D01*
X90750000Y-14450000D02*
X96250000Y-14450000D01*
X96250000Y-7550000D02*
X90750000Y-7550000D01*
X96250000Y-14450000D02*
X96250000Y-7550000D01*
%TO.C,LD5*%
X57350000Y-7550000D02*
X57350000Y-14450000D01*
X57350000Y-14450000D02*
X62850000Y-14450000D01*
X62850000Y-7550000D02*
X57350000Y-7550000D01*
X62850000Y-14450000D02*
X62850000Y-7550000D01*
%TO.C,C24*%
X173923300Y-14640000D02*
X175743300Y-14640000D01*
X175743300Y-15560000D01*
X173923300Y-15560000D01*
X173923300Y-14640000D01*
%TO.C,R11*%
X77570000Y-30530000D02*
X79430000Y-30530000D01*
X79430000Y-31470000D01*
X77570000Y-31470000D01*
X77570000Y-30530000D01*
%TO.C,LD7*%
X79616700Y-7550000D02*
X79616700Y-14450000D01*
X79616700Y-14450000D02*
X85116700Y-14450000D01*
X85116700Y-7550000D02*
X79616700Y-7550000D01*
X85116700Y-14450000D02*
X85116700Y-7550000D01*
%TO.C,R9*%
X88070000Y-26030000D02*
X89930000Y-26030000D01*
X89930000Y-26970000D01*
X88070000Y-26970000D01*
X88070000Y-26030000D01*
%TO.C,TS3*%
X100000000Y-35500000D02*
G75*
G02*
X98000000Y-35500000I-1000000J0D01*
G01*
X98000000Y-35500000D02*
G75*
G02*
X100000000Y-35500000I1000000J0D01*
G01*
%TO.C,C19*%
X118256700Y-14640000D02*
X120076700Y-14640000D01*
X120076700Y-15560000D01*
X118256700Y-15560000D01*
X118256700Y-14640000D01*
%TO.C,C10*%
X18056700Y-14640000D02*
X19876700Y-14640000D01*
X19876700Y-15560000D01*
X18056700Y-15560000D01*
X18056700Y-14640000D01*
%TO.C,C6*%
X70090000Y-30540000D02*
X71910000Y-30540000D01*
X71910000Y-31460000D01*
X70090000Y-31460000D01*
X70090000Y-30540000D01*
%TO.C,TP5*%
X80500000Y-20900000D02*
G75*
G02*
X78500000Y-20900000I-1000000J0D01*
G01*
X78500000Y-20900000D02*
G75*
G02*
X80500000Y-20900000I1000000J0D01*
G01*
%TO.C,R3*%
X74070000Y-34030000D02*
X75930000Y-34030000D01*
X75930000Y-34970000D01*
X74070000Y-34970000D01*
X74070000Y-34030000D01*
%TO.C,J4*%
X72400000Y-46690000D02*
X72550000Y-46690000D01*
X72400000Y-51100000D02*
X72400000Y-46690000D01*
X72550000Y-42300000D02*
X75000000Y-42300000D01*
X72550000Y-46690000D02*
X72550000Y-42300000D01*
X74910000Y-50900000D02*
X74910000Y-51100000D01*
X74910000Y-51100000D02*
X72400000Y-51100000D01*
X75000000Y-40900000D02*
X81000000Y-40900000D01*
X75000000Y-42300000D02*
X75000000Y-40900000D01*
X81000000Y-40900000D02*
X81000000Y-42300000D01*
X81000000Y-42300000D02*
X83450000Y-42300000D01*
X81090000Y-50900000D02*
X74910000Y-50900000D01*
X81090000Y-51100000D02*
X81090000Y-50900000D01*
X83450000Y-42300000D02*
X83450000Y-46690000D01*
X83450000Y-46690000D02*
X83600000Y-46690000D01*
X83600000Y-46690000D02*
X83600000Y-51100000D01*
X83600000Y-51100000D02*
X81090000Y-51100000D01*
%TO.C,C17*%
X95990000Y-14640000D02*
X97810000Y-14640000D01*
X97810000Y-15560000D01*
X95990000Y-15560000D01*
X95990000Y-14640000D01*
%TO.C,TS4*%
X103000000Y-35500000D02*
G75*
G02*
X101000000Y-35500000I-1000000J0D01*
G01*
X101000000Y-35500000D02*
G75*
G02*
X103000000Y-35500000I1000000J0D01*
G01*
%TO.C,C7*%
X105090000Y-21940000D02*
X106910000Y-21940000D01*
X106910000Y-22860000D01*
X105090000Y-22860000D01*
X105090000Y-21940000D01*
%TO.C,LD1*%
X12816700Y-7550000D02*
X12816700Y-14450000D01*
X12816700Y-14450000D02*
X18316700Y-14450000D01*
X18316700Y-7550000D02*
X12816700Y-7550000D01*
X18316700Y-14450000D02*
X18316700Y-7550000D01*
%TO.C,TS5*%
X106000000Y-35500000D02*
G75*
G02*
X104000000Y-35500000I-1000000J0D01*
G01*
X104000000Y-35500000D02*
G75*
G02*
X106000000Y-35500000I1000000J0D01*
G01*
%TO.C,C23*%
X162790000Y-14640000D02*
X164610000Y-14640000D01*
X164610000Y-15560000D01*
X162790000Y-15560000D01*
X162790000Y-14640000D01*
%TO.C,C9*%
X86590000Y-30540000D02*
X88410000Y-30540000D01*
X88410000Y-31460000D01*
X86590000Y-31460000D01*
X86590000Y-30540000D01*
%TO.C,SW1*%
X81250000Y-21800000D02*
X86750000Y-21800000D01*
X81250000Y-25200000D02*
X81250000Y-21800000D01*
X82900000Y-25200000D02*
X81250000Y-25200000D01*
X82900000Y-25850000D02*
X82900000Y-25200000D01*
X85100000Y-25200000D02*
X85100000Y-25850000D01*
X85100000Y-25850000D02*
X82900000Y-25850000D01*
X86750000Y-21800000D02*
X86750000Y-25200000D01*
X86750000Y-25200000D02*
X85100000Y-25200000D01*
%TO.C,LD14*%
X157550000Y-7550000D02*
X157550000Y-14450000D01*
X157550000Y-14450000D02*
X163050000Y-14450000D01*
X163050000Y-7550000D02*
X157550000Y-7550000D01*
X163050000Y-14450000D02*
X163050000Y-7550000D01*
%TO.C,TP7*%
X179000000Y-18600000D02*
G75*
G02*
X177000000Y-18600000I-1000000J0D01*
G01*
X177000000Y-18600000D02*
G75*
G02*
X179000000Y-18600000I1000000J0D01*
G01*
%TO.C,TP11*%
X88500000Y-18800000D02*
G75*
G02*
X86500000Y-18800000I-1000000J0D01*
G01*
X86500000Y-18800000D02*
G75*
G02*
X88500000Y-18800000I1000000J0D01*
G01*
%TO.C,TP8*%
X105000000Y-31000000D02*
G75*
G02*
X103000000Y-31000000I-1000000J0D01*
G01*
X103000000Y-31000000D02*
G75*
G02*
X105000000Y-31000000I1000000J0D01*
G01*
%TO.C,R10*%
X93070000Y-26030000D02*
X94930000Y-26030000D01*
X94930000Y-26970000D01*
X93070000Y-26970000D01*
X93070000Y-26030000D01*
%TO.C,C15*%
X73723300Y-14640000D02*
X75543300Y-14640000D01*
X75543300Y-15560000D01*
X73723300Y-15560000D01*
X73723300Y-14640000D01*
%TO.C,U4*%
X83950000Y-40500000D02*
X84950000Y-40500000D01*
X83950000Y-43500000D02*
X83950000Y-40500000D01*
X84950000Y-40300000D02*
X87050000Y-40300000D01*
X84950000Y-40500000D02*
X84950000Y-40300000D01*
X84950000Y-43500000D02*
X83950000Y-43500000D01*
X84950000Y-43700000D02*
X84950000Y-43500000D01*
X87050000Y-40300000D02*
X87050000Y-40500000D01*
X87050000Y-40500000D02*
X88050000Y-40500000D01*
X87050000Y-43500000D02*
X87050000Y-43700000D01*
X87050000Y-43700000D02*
X84950000Y-43700000D01*
X88050000Y-40500000D02*
X88050000Y-43500000D01*
X88050000Y-43500000D02*
X87050000Y-43500000D01*
%TO.C,Q1*%
X97070000Y-21500000D02*
X98100000Y-21500000D01*
X97070000Y-22610000D02*
X97070000Y-21500000D01*
X97070000Y-23390000D02*
X98100000Y-23390000D01*
X97070000Y-24500000D02*
X97070000Y-23390000D01*
X98100000Y-21300000D02*
X99900000Y-21300000D01*
X98100000Y-21500000D02*
X98100000Y-21300000D01*
X98100000Y-22610000D02*
X97070000Y-22610000D01*
X98100000Y-23390000D02*
X98100000Y-22610000D01*
X98100000Y-24500000D02*
X97070000Y-24500000D01*
X98100000Y-24700000D02*
X98100000Y-24500000D01*
X99900000Y-21300000D02*
X99900000Y-22450000D01*
X99900000Y-22450000D02*
X100930000Y-22450000D01*
X99900000Y-23550000D02*
X99900000Y-24700000D01*
X99900000Y-24700000D02*
X98100000Y-24700000D01*
X100930000Y-22450000D02*
X100930000Y-23550000D01*
X100930000Y-23550000D02*
X99900000Y-23550000D01*
%TO.C,R8*%
X102570000Y-21930000D02*
X104430000Y-21930000D01*
X104430000Y-22870000D01*
X102570000Y-22870000D01*
X102570000Y-21930000D01*
%TO.C,C5*%
X68800000Y-33520000D02*
X72200000Y-33520000D01*
X72200000Y-35480000D01*
X68800000Y-35480000D01*
X68800000Y-33520000D01*
%TO.C,C4*%
X82300000Y-30020000D02*
X85700000Y-30020000D01*
X85700000Y-31980000D01*
X82300000Y-31980000D01*
X82300000Y-30020000D01*
%TO.C,R5*%
X91570000Y-30530000D02*
X93430000Y-30530000D01*
X93430000Y-31470000D01*
X91570000Y-31470000D01*
X91570000Y-30530000D01*
%TO.C,H4*%
X183950000Y-4500000D02*
G75*
G02*
X178050000Y-4500000I-2950000J0D01*
G01*
X178050000Y-4500000D02*
G75*
G02*
X183950000Y-4500000I2950000J0D01*
G01*
%TO.C,TP3*%
X120000000Y-27000000D02*
G75*
G02*
X118000000Y-27000000I-1000000J0D01*
G01*
X118000000Y-27000000D02*
G75*
G02*
X120000000Y-27000000I1000000J0D01*
G01*
%TO.C,C22*%
X151656700Y-14640000D02*
X153476700Y-14640000D01*
X153476700Y-15560000D01*
X151656700Y-15560000D01*
X151656700Y-14640000D01*
%TO.C,LD2*%
X23950000Y-7550000D02*
X23950000Y-14450000D01*
X23950000Y-14450000D02*
X29450000Y-14450000D01*
X29450000Y-7550000D02*
X23950000Y-7550000D01*
X29450000Y-14450000D02*
X29450000Y-7550000D01*
%TO.C,H3*%
X8950000Y-4500000D02*
G75*
G02*
X3050000Y-4500000I-2950000J0D01*
G01*
X3050000Y-4500000D02*
G75*
G02*
X8950000Y-4500000I2950000J0D01*
G01*
%TO.C,LD3*%
X35083300Y-7550000D02*
X35083300Y-14450000D01*
X35083300Y-14450000D02*
X40583300Y-14450000D01*
X40583300Y-7550000D02*
X35083300Y-7550000D01*
X40583300Y-14450000D02*
X40583300Y-7550000D01*
%TO.C,C12*%
X40323300Y-14640000D02*
X42143300Y-14640000D01*
X42143300Y-15560000D01*
X40323300Y-15560000D01*
X40323300Y-14640000D01*
%TO.C,R4*%
X89070000Y-30530000D02*
X90930000Y-30530000D01*
X90930000Y-31470000D01*
X89070000Y-31470000D01*
X89070000Y-30530000D01*
%TO.C,R7*%
X95570000Y-26030000D02*
X97430000Y-26030000D01*
X97430000Y-26970000D01*
X95570000Y-26970000D01*
X95570000Y-26030000D01*
%TO.C,R6*%
X94070000Y-30530000D02*
X95930000Y-30530000D01*
X95930000Y-31470000D01*
X94070000Y-31470000D01*
X94070000Y-30530000D01*
%TO.C,LD4*%
X46216700Y-7550000D02*
X46216700Y-14450000D01*
X46216700Y-14450000D02*
X51716700Y-14450000D01*
X51716700Y-7550000D02*
X46216700Y-7550000D01*
X51716700Y-14450000D02*
X51716700Y-7550000D01*
%TO.C,H1*%
X128950000Y-48000000D02*
G75*
G02*
X123050000Y-48000000I-2950000J0D01*
G01*
X123050000Y-48000000D02*
G75*
G02*
X128950000Y-48000000I2950000J0D01*
G01*
%TO.C,C1*%
X67750000Y-23000000D02*
X67750000Y-26000000D01*
X67750000Y-26000000D02*
X68600000Y-26000000D01*
X68600000Y-21250000D02*
X68600000Y-23000000D01*
X68600000Y-21250000D02*
X69750000Y-20100000D01*
X68600000Y-23000000D02*
X67750000Y-23000000D01*
X68600000Y-26000000D02*
X68600000Y-27750000D01*
X68600000Y-27750000D02*
X69750000Y-28900000D01*
X69750000Y-20100000D02*
X77400000Y-20100000D01*
X69750000Y-28900000D02*
X77400000Y-28900000D01*
X77400000Y-20100000D02*
X77400000Y-23000000D01*
X77400000Y-23000000D02*
X78250000Y-23000000D01*
X77400000Y-26000000D02*
X77400000Y-28900000D01*
X78250000Y-23000000D02*
X78250000Y-26000000D01*
X78250000Y-26000000D02*
X77400000Y-26000000D01*
%TO.C,TP4*%
X117000000Y-27000000D02*
G75*
G02*
X115000000Y-27000000I-1000000J0D01*
G01*
X115000000Y-27000000D02*
G75*
G02*
X117000000Y-27000000I1000000J0D01*
G01*
%TO.C,TP1*%
X128000000Y-21000000D02*
G75*
G02*
X126000000Y-21000000I-1000000J0D01*
G01*
X126000000Y-21000000D02*
G75*
G02*
X128000000Y-21000000I1000000J0D01*
G01*
%TO.C,C21*%
X140523300Y-14640000D02*
X142343300Y-14640000D01*
X142343300Y-15560000D01*
X140523300Y-15560000D01*
X140523300Y-14640000D01*
%TO.C,TP10*%
X101000000Y-18500000D02*
G75*
G02*
X99000000Y-18500000I-1000000J0D01*
G01*
X99000000Y-18500000D02*
G75*
G02*
X101000000Y-18500000I1000000J0D01*
G01*
%TO.C,C13*%
X51456700Y-14640000D02*
X53276700Y-14640000D01*
X53276700Y-15560000D01*
X51456700Y-15560000D01*
X51456700Y-14640000D01*
%TO.C,C16*%
X84856700Y-14640000D02*
X86676700Y-14640000D01*
X86676700Y-15560000D01*
X84856700Y-15560000D01*
X84856700Y-14640000D01*
%TO.C,C3*%
X117800000Y-22020000D02*
X121200000Y-22020000D01*
X121200000Y-23980000D01*
X117800000Y-23980000D01*
X117800000Y-22020000D01*
%TO.C,U3*%
X108450000Y-21500000D02*
X109450000Y-21500000D01*
X108450000Y-24500000D02*
X108450000Y-21500000D01*
X109450000Y-21300000D02*
X111550000Y-21300000D01*
X109450000Y-21500000D02*
X109450000Y-21300000D01*
X109450000Y-24500000D02*
X108450000Y-24500000D01*
X109450000Y-24700000D02*
X109450000Y-24500000D01*
X111550000Y-21300000D02*
X111550000Y-21500000D01*
X111550000Y-21500000D02*
X112550000Y-21500000D01*
X111550000Y-22610000D02*
X111550000Y-23390000D01*
X111550000Y-23390000D02*
X112550000Y-23390000D01*
X111550000Y-24500000D02*
X111550000Y-24700000D01*
X111550000Y-24700000D02*
X109450000Y-24700000D01*
X112550000Y-21500000D02*
X112550000Y-22610000D01*
X112550000Y-22610000D02*
X111550000Y-22610000D01*
X112550000Y-23390000D02*
X112550000Y-24500000D01*
X112550000Y-24500000D02*
X111550000Y-24500000D01*
%TO.C,C2*%
X113300000Y-22020000D02*
X116700000Y-22020000D01*
X116700000Y-23980000D01*
X113300000Y-23980000D01*
X113300000Y-22020000D01*
%TO.C,TP9*%
X102000000Y-31000000D02*
G75*
G02*
X100000000Y-31000000I-1000000J0D01*
G01*
X100000000Y-31000000D02*
G75*
G02*
X102000000Y-31000000I1000000J0D01*
G01*
%TO.C,LD15*%
X168683300Y-7550000D02*
X168683300Y-14450000D01*
X168683300Y-14450000D02*
X174183300Y-14450000D01*
X174183300Y-7550000D02*
X168683300Y-7550000D01*
X174183300Y-14450000D02*
X174183300Y-7550000D01*
%TO.C,C20*%
X129390000Y-14640000D02*
X131210000Y-14640000D01*
X131210000Y-15560000D01*
X129390000Y-15560000D01*
X129390000Y-14640000D01*
%TO.C,H2*%
X128950000Y-26500000D02*
G75*
G02*
X123050000Y-26500000I-2950000J0D01*
G01*
X123050000Y-26500000D02*
G75*
G02*
X128950000Y-26500000I2950000J0D01*
G01*
%TO.C,R1*%
X88070000Y-46030000D02*
X89930000Y-46030000D01*
X89930000Y-46970000D01*
X88070000Y-46970000D01*
X88070000Y-46030000D01*
%TO.C,LD11*%
X124150000Y-7550000D02*
X124150000Y-14450000D01*
X124150000Y-14450000D02*
X129650000Y-14450000D01*
X129650000Y-7550000D02*
X124150000Y-7550000D01*
X129650000Y-14450000D02*
X129650000Y-7550000D01*
%TO.C,LD10*%
X113016700Y-7550000D02*
X113016700Y-14450000D01*
X113016700Y-14450000D02*
X118516700Y-14450000D01*
X118516700Y-7550000D02*
X113016700Y-7550000D01*
X118516700Y-14450000D02*
X118516700Y-7550000D01*
%TO.C,LD12*%
X135283300Y-7550000D02*
X135283300Y-14450000D01*
X135283300Y-14450000D02*
X140783300Y-14450000D01*
X140783300Y-7550000D02*
X135283300Y-7550000D01*
X140783300Y-14450000D02*
X140783300Y-7550000D01*
%TO.C,C8*%
X90590000Y-26040000D02*
X92410000Y-26040000D01*
X92410000Y-26960000D01*
X90590000Y-26960000D01*
X90590000Y-26040000D01*
%TO.C,U1*%
X108200000Y-29500000D02*
X121800000Y-29500000D01*
X108200000Y-46500000D02*
X108200000Y-29500000D01*
X121800000Y-29500000D02*
X121800000Y-46500000D01*
X121800000Y-46500000D02*
X108200000Y-46500000D01*
%TO.C,C11*%
X29190000Y-14640000D02*
X31010000Y-14640000D01*
X31010000Y-15560000D01*
X29190000Y-15560000D01*
X29190000Y-14640000D01*
%TO.C,F1*%
X89050000Y-21050000D02*
X94950000Y-21050000D01*
X94950000Y-24950000D01*
X89050000Y-24950000D01*
X89050000Y-21050000D01*
%TO.C,LD9*%
X101883300Y-7550000D02*
X101883300Y-14450000D01*
X101883300Y-14450000D02*
X107383300Y-14450000D01*
X107383300Y-7550000D02*
X101883300Y-7550000D01*
X107383300Y-14450000D02*
X107383300Y-7550000D01*
%TO.C,J1*%
X92680000Y-43730000D02*
X92680000Y-53150000D01*
X92680000Y-43730000D02*
X103320000Y-43730000D01*
X92680000Y-53150000D02*
X103320000Y-53150000D01*
X103320000Y-43730000D02*
X103320000Y-53150000D01*
%TO.C,TP6*%
X100500000Y-26500000D02*
G75*
G02*
X98500000Y-26500000I-1000000J0D01*
G01*
X98500000Y-26500000D02*
G75*
G02*
X100500000Y-26500000I1000000J0D01*
G01*
%TD*%
M02*
