%TF.GenerationSoftware,KiCad,Pcbnew,10.0.5*%
%TF.CreationDate,2026-08-20T15:23:36+02:00*%
%TF.ProjectId,fl11,666c3131-2e6b-4696-9361-645f70636258,rev?*%
%TF.SameCoordinates,Original*%
%TF.FileFunction,AssemblyDrawing,Top*%
%FSLAX46Y46*%
G04 Gerber Fmt 4.6, Leading zero omitted, Abs format (unit mm)*
G04 Created by KiCad (PCBNEW 10.0.5) date 2026-08-20 15:23:36*
%MOMM*%
%LPD*%
G01*
G04 APERTURE LIST*
%ADD10C,0.040000*%
%ADD11C,0.150000*%
%ADD12C,0.110000*%
%ADD13C,0.080000*%
%ADD14C,0.100000*%
G04 APERTURE END LIST*
D10*
X87956667Y-34618200D02*
X87870000Y-34494391D01*
X87808095Y-34618200D02*
X87808095Y-34358200D01*
X87808095Y-34358200D02*
X87907143Y-34358200D01*
X87907143Y-34358200D02*
X87931905Y-34370581D01*
X87931905Y-34370581D02*
X87944286Y-34382962D01*
X87944286Y-34382962D02*
X87956667Y-34407724D01*
X87956667Y-34407724D02*
X87956667Y-34444867D01*
X87956667Y-34444867D02*
X87944286Y-34469629D01*
X87944286Y-34469629D02*
X87931905Y-34482010D01*
X87931905Y-34482010D02*
X87907143Y-34494391D01*
X87907143Y-34494391D02*
X87808095Y-34494391D01*
X88043333Y-34358200D02*
X88204286Y-34358200D01*
X88204286Y-34358200D02*
X88117619Y-34457248D01*
X88117619Y-34457248D02*
X88154762Y-34457248D01*
X88154762Y-34457248D02*
X88179524Y-34469629D01*
X88179524Y-34469629D02*
X88191905Y-34482010D01*
X88191905Y-34482010D02*
X88204286Y-34506772D01*
X88204286Y-34506772D02*
X88204286Y-34568677D01*
X88204286Y-34568677D02*
X88191905Y-34593439D01*
X88191905Y-34593439D02*
X88179524Y-34605820D01*
X88179524Y-34605820D02*
X88154762Y-34618200D01*
X88154762Y-34618200D02*
X88080476Y-34618200D01*
X88080476Y-34618200D02*
X88055714Y-34605820D01*
X88055714Y-34605820D02*
X88043333Y-34593439D01*
X88332857Y-28118200D02*
X88246190Y-27994391D01*
X88184285Y-28118200D02*
X88184285Y-27858200D01*
X88184285Y-27858200D02*
X88283333Y-27858200D01*
X88283333Y-27858200D02*
X88308095Y-27870581D01*
X88308095Y-27870581D02*
X88320476Y-27882962D01*
X88320476Y-27882962D02*
X88332857Y-27907724D01*
X88332857Y-27907724D02*
X88332857Y-27944867D01*
X88332857Y-27944867D02*
X88320476Y-27969629D01*
X88320476Y-27969629D02*
X88308095Y-27982010D01*
X88308095Y-27982010D02*
X88283333Y-27994391D01*
X88283333Y-27994391D02*
X88184285Y-27994391D01*
X88580476Y-28118200D02*
X88431904Y-28118200D01*
X88506190Y-28118200D02*
X88506190Y-27858200D01*
X88506190Y-27858200D02*
X88481428Y-27895343D01*
X88481428Y-27895343D02*
X88456666Y-27920105D01*
X88456666Y-27920105D02*
X88431904Y-27932486D01*
X88828095Y-28118200D02*
X88679523Y-28118200D01*
X88753809Y-28118200D02*
X88753809Y-27858200D01*
X88753809Y-27858200D02*
X88729047Y-27895343D01*
X88729047Y-27895343D02*
X88704285Y-27920105D01*
X88704285Y-27920105D02*
X88679523Y-27932486D01*
X157972585Y-15189765D02*
X157960681Y-15201670D01*
X157960681Y-15201670D02*
X157924966Y-15213574D01*
X157924966Y-15213574D02*
X157901157Y-15213574D01*
X157901157Y-15213574D02*
X157865443Y-15201670D01*
X157865443Y-15201670D02*
X157841633Y-15177860D01*
X157841633Y-15177860D02*
X157829728Y-15154050D01*
X157829728Y-15154050D02*
X157817824Y-15106431D01*
X157817824Y-15106431D02*
X157817824Y-15070717D01*
X157817824Y-15070717D02*
X157829728Y-15023098D01*
X157829728Y-15023098D02*
X157841633Y-14999289D01*
X157841633Y-14999289D02*
X157865443Y-14975479D01*
X157865443Y-14975479D02*
X157901157Y-14963574D01*
X157901157Y-14963574D02*
X157924966Y-14963574D01*
X157924966Y-14963574D02*
X157960681Y-14975479D01*
X157960681Y-14975479D02*
X157972585Y-14987384D01*
X158067824Y-14987384D02*
X158079728Y-14975479D01*
X158079728Y-14975479D02*
X158103538Y-14963574D01*
X158103538Y-14963574D02*
X158163062Y-14963574D01*
X158163062Y-14963574D02*
X158186871Y-14975479D01*
X158186871Y-14975479D02*
X158198776Y-14987384D01*
X158198776Y-14987384D02*
X158210681Y-15011193D01*
X158210681Y-15011193D02*
X158210681Y-15035003D01*
X158210681Y-15035003D02*
X158198776Y-15070717D01*
X158198776Y-15070717D02*
X158055919Y-15213574D01*
X158055919Y-15213574D02*
X158210681Y-15213574D01*
X158294014Y-14963574D02*
X158448776Y-14963574D01*
X158448776Y-14963574D02*
X158365442Y-15058812D01*
X158365442Y-15058812D02*
X158401157Y-15058812D01*
X158401157Y-15058812D02*
X158424966Y-15070717D01*
X158424966Y-15070717D02*
X158436871Y-15082622D01*
X158436871Y-15082622D02*
X158448776Y-15106431D01*
X158448776Y-15106431D02*
X158448776Y-15165955D01*
X158448776Y-15165955D02*
X158436871Y-15189765D01*
X158436871Y-15189765D02*
X158424966Y-15201670D01*
X158424966Y-15201670D02*
X158401157Y-15213574D01*
X158401157Y-15213574D02*
X158329728Y-15213574D01*
X158329728Y-15213574D02*
X158305919Y-15201670D01*
X158305919Y-15201670D02*
X158294014Y-15189765D01*
D11*
X97238095Y-34754819D02*
X97238095Y-35564342D01*
X97238095Y-35564342D02*
X97285714Y-35659580D01*
X97285714Y-35659580D02*
X97333333Y-35707200D01*
X97333333Y-35707200D02*
X97428571Y-35754819D01*
X97428571Y-35754819D02*
X97619047Y-35754819D01*
X97619047Y-35754819D02*
X97714285Y-35707200D01*
X97714285Y-35707200D02*
X97761904Y-35659580D01*
X97761904Y-35659580D02*
X97809523Y-35564342D01*
X97809523Y-35564342D02*
X97809523Y-34754819D01*
X98809523Y-35754819D02*
X98238095Y-35754819D01*
X98523809Y-35754819D02*
X98523809Y-34754819D01*
X98523809Y-34754819D02*
X98428571Y-34897676D01*
X98428571Y-34897676D02*
X98333333Y-34992914D01*
X98333333Y-34992914D02*
X98238095Y-35040533D01*
X92666666Y-22931009D02*
X92333333Y-22931009D01*
X92333333Y-23454819D02*
X92333333Y-22454819D01*
X92333333Y-22454819D02*
X92809523Y-22454819D01*
X93714285Y-23454819D02*
X93142857Y-23454819D01*
X93428571Y-23454819D02*
X93428571Y-22454819D01*
X93428571Y-22454819D02*
X93333333Y-22597676D01*
X93333333Y-22597676D02*
X93238095Y-22692914D01*
X93238095Y-22692914D02*
X93142857Y-22740533D01*
X102238095Y-24504819D02*
X102809523Y-24504819D01*
X102523809Y-25504819D02*
X102523809Y-24504819D01*
X103142857Y-25504819D02*
X103142857Y-24504819D01*
X103142857Y-24504819D02*
X103523809Y-24504819D01*
X103523809Y-24504819D02*
X103619047Y-24552438D01*
X103619047Y-24552438D02*
X103666666Y-24600057D01*
X103666666Y-24600057D02*
X103714285Y-24695295D01*
X103714285Y-24695295D02*
X103714285Y-24838152D01*
X103714285Y-24838152D02*
X103666666Y-24933390D01*
X103666666Y-24933390D02*
X103619047Y-24981009D01*
X103619047Y-24981009D02*
X103523809Y-25028628D01*
X103523809Y-25028628D02*
X103142857Y-25028628D01*
X104571428Y-24504819D02*
X104380952Y-24504819D01*
X104380952Y-24504819D02*
X104285714Y-24552438D01*
X104285714Y-24552438D02*
X104238095Y-24600057D01*
X104238095Y-24600057D02*
X104142857Y-24742914D01*
X104142857Y-24742914D02*
X104095238Y-24933390D01*
X104095238Y-24933390D02*
X104095238Y-25314342D01*
X104095238Y-25314342D02*
X104142857Y-25409580D01*
X104142857Y-25409580D02*
X104190476Y-25457200D01*
X104190476Y-25457200D02*
X104285714Y-25504819D01*
X104285714Y-25504819D02*
X104476190Y-25504819D01*
X104476190Y-25504819D02*
X104571428Y-25457200D01*
X104571428Y-25457200D02*
X104619047Y-25409580D01*
X104619047Y-25409580D02*
X104666666Y-25314342D01*
X104666666Y-25314342D02*
X104666666Y-25076247D01*
X104666666Y-25076247D02*
X104619047Y-24981009D01*
X104619047Y-24981009D02*
X104571428Y-24933390D01*
X104571428Y-24933390D02*
X104476190Y-24885771D01*
X104476190Y-24885771D02*
X104285714Y-24885771D01*
X104285714Y-24885771D02*
X104190476Y-24933390D01*
X104190476Y-24933390D02*
X104142857Y-24981009D01*
X104142857Y-24981009D02*
X104095238Y-25076247D01*
X102761905Y-47204819D02*
X103333333Y-47204819D01*
X103047619Y-48204819D02*
X103047619Y-47204819D01*
X103619048Y-48157200D02*
X103761905Y-48204819D01*
X103761905Y-48204819D02*
X104000000Y-48204819D01*
X104000000Y-48204819D02*
X104095238Y-48157200D01*
X104095238Y-48157200D02*
X104142857Y-48109580D01*
X104142857Y-48109580D02*
X104190476Y-48014342D01*
X104190476Y-48014342D02*
X104190476Y-47919104D01*
X104190476Y-47919104D02*
X104142857Y-47823866D01*
X104142857Y-47823866D02*
X104095238Y-47776247D01*
X104095238Y-47776247D02*
X104000000Y-47728628D01*
X104000000Y-47728628D02*
X103809524Y-47681009D01*
X103809524Y-47681009D02*
X103714286Y-47633390D01*
X103714286Y-47633390D02*
X103666667Y-47585771D01*
X103666667Y-47585771D02*
X103619048Y-47490533D01*
X103619048Y-47490533D02*
X103619048Y-47395295D01*
X103619048Y-47395295D02*
X103666667Y-47300057D01*
X103666667Y-47300057D02*
X103714286Y-47252438D01*
X103714286Y-47252438D02*
X103809524Y-47204819D01*
X103809524Y-47204819D02*
X104047619Y-47204819D01*
X104047619Y-47204819D02*
X104190476Y-47252438D01*
X105095238Y-47204819D02*
X104619048Y-47204819D01*
X104619048Y-47204819D02*
X104571429Y-47681009D01*
X104571429Y-47681009D02*
X104619048Y-47633390D01*
X104619048Y-47633390D02*
X104714286Y-47585771D01*
X104714286Y-47585771D02*
X104952381Y-47585771D01*
X104952381Y-47585771D02*
X105047619Y-47633390D01*
X105047619Y-47633390D02*
X105095238Y-47681009D01*
X105095238Y-47681009D02*
X105142857Y-47776247D01*
X105142857Y-47776247D02*
X105142857Y-48014342D01*
X105142857Y-48014342D02*
X105095238Y-48109580D01*
X105095238Y-48109580D02*
X105047619Y-48157200D01*
X105047619Y-48157200D02*
X104952381Y-48204819D01*
X104952381Y-48204819D02*
X104714286Y-48204819D01*
X104714286Y-48204819D02*
X104619048Y-48157200D01*
X104619048Y-48157200D02*
X104571429Y-48109580D01*
D10*
X57772585Y-15189765D02*
X57760681Y-15201670D01*
X57760681Y-15201670D02*
X57724966Y-15213574D01*
X57724966Y-15213574D02*
X57701157Y-15213574D01*
X57701157Y-15213574D02*
X57665443Y-15201670D01*
X57665443Y-15201670D02*
X57641633Y-15177860D01*
X57641633Y-15177860D02*
X57629728Y-15154050D01*
X57629728Y-15154050D02*
X57617824Y-15106431D01*
X57617824Y-15106431D02*
X57617824Y-15070717D01*
X57617824Y-15070717D02*
X57629728Y-15023098D01*
X57629728Y-15023098D02*
X57641633Y-14999289D01*
X57641633Y-14999289D02*
X57665443Y-14975479D01*
X57665443Y-14975479D02*
X57701157Y-14963574D01*
X57701157Y-14963574D02*
X57724966Y-14963574D01*
X57724966Y-14963574D02*
X57760681Y-14975479D01*
X57760681Y-14975479D02*
X57772585Y-14987384D01*
X58010681Y-15213574D02*
X57867824Y-15213574D01*
X57939252Y-15213574D02*
X57939252Y-14963574D01*
X57939252Y-14963574D02*
X57915443Y-14999289D01*
X57915443Y-14999289D02*
X57891633Y-15023098D01*
X57891633Y-15023098D02*
X57867824Y-15035003D01*
X58224966Y-15046908D02*
X58224966Y-15213574D01*
X58165442Y-14951670D02*
X58105919Y-15130241D01*
X58105919Y-15130241D02*
X58260680Y-15130241D01*
X83956667Y-37118200D02*
X83870000Y-36994391D01*
X83808095Y-37118200D02*
X83808095Y-36858200D01*
X83808095Y-36858200D02*
X83907143Y-36858200D01*
X83907143Y-36858200D02*
X83931905Y-36870581D01*
X83931905Y-36870581D02*
X83944286Y-36882962D01*
X83944286Y-36882962D02*
X83956667Y-36907724D01*
X83956667Y-36907724D02*
X83956667Y-36944867D01*
X83956667Y-36944867D02*
X83944286Y-36969629D01*
X83944286Y-36969629D02*
X83931905Y-36982010D01*
X83931905Y-36982010D02*
X83907143Y-36994391D01*
X83907143Y-36994391D02*
X83808095Y-36994391D01*
X84204286Y-37118200D02*
X84055714Y-37118200D01*
X84130000Y-37118200D02*
X84130000Y-36858200D01*
X84130000Y-36858200D02*
X84105238Y-36895343D01*
X84105238Y-36895343D02*
X84080476Y-36920105D01*
X84080476Y-36920105D02*
X84055714Y-36932486D01*
X113458333Y-30089765D02*
X113446429Y-30101670D01*
X113446429Y-30101670D02*
X113410714Y-30113574D01*
X113410714Y-30113574D02*
X113386905Y-30113574D01*
X113386905Y-30113574D02*
X113351191Y-30101670D01*
X113351191Y-30101670D02*
X113327381Y-30077860D01*
X113327381Y-30077860D02*
X113315476Y-30054050D01*
X113315476Y-30054050D02*
X113303572Y-30006431D01*
X113303572Y-30006431D02*
X113303572Y-29970717D01*
X113303572Y-29970717D02*
X113315476Y-29923098D01*
X113315476Y-29923098D02*
X113327381Y-29899289D01*
X113327381Y-29899289D02*
X113351191Y-29875479D01*
X113351191Y-29875479D02*
X113386905Y-29863574D01*
X113386905Y-29863574D02*
X113410714Y-29863574D01*
X113410714Y-29863574D02*
X113446429Y-29875479D01*
X113446429Y-29875479D02*
X113458333Y-29887384D01*
X113577381Y-30113574D02*
X113625000Y-30113574D01*
X113625000Y-30113574D02*
X113648810Y-30101670D01*
X113648810Y-30101670D02*
X113660714Y-30089765D01*
X113660714Y-30089765D02*
X113684524Y-30054050D01*
X113684524Y-30054050D02*
X113696429Y-30006431D01*
X113696429Y-30006431D02*
X113696429Y-29911193D01*
X113696429Y-29911193D02*
X113684524Y-29887384D01*
X113684524Y-29887384D02*
X113672619Y-29875479D01*
X113672619Y-29875479D02*
X113648810Y-29863574D01*
X113648810Y-29863574D02*
X113601191Y-29863574D01*
X113601191Y-29863574D02*
X113577381Y-29875479D01*
X113577381Y-29875479D02*
X113565476Y-29887384D01*
X113565476Y-29887384D02*
X113553572Y-29911193D01*
X113553572Y-29911193D02*
X113553572Y-29970717D01*
X113553572Y-29970717D02*
X113565476Y-29994527D01*
X113565476Y-29994527D02*
X113577381Y-30006431D01*
X113577381Y-30006431D02*
X113601191Y-30018336D01*
X113601191Y-30018336D02*
X113648810Y-30018336D01*
X113648810Y-30018336D02*
X113672619Y-30006431D01*
X113672619Y-30006431D02*
X113684524Y-29994527D01*
X113684524Y-29994527D02*
X113696429Y-29970717D01*
X92956667Y-26618200D02*
X92870000Y-26494391D01*
X92808095Y-26618200D02*
X92808095Y-26358200D01*
X92808095Y-26358200D02*
X92907143Y-26358200D01*
X92907143Y-26358200D02*
X92931905Y-26370581D01*
X92931905Y-26370581D02*
X92944286Y-26382962D01*
X92944286Y-26382962D02*
X92956667Y-26407724D01*
X92956667Y-26407724D02*
X92956667Y-26444867D01*
X92956667Y-26444867D02*
X92944286Y-26469629D01*
X92944286Y-26469629D02*
X92931905Y-26482010D01*
X92931905Y-26482010D02*
X92907143Y-26494391D01*
X92907143Y-26494391D02*
X92808095Y-26494391D01*
X93080476Y-26618200D02*
X93130000Y-26618200D01*
X93130000Y-26618200D02*
X93154762Y-26605820D01*
X93154762Y-26605820D02*
X93167143Y-26593439D01*
X93167143Y-26593439D02*
X93191905Y-26556296D01*
X93191905Y-26556296D02*
X93204286Y-26506772D01*
X93204286Y-26506772D02*
X93204286Y-26407724D01*
X93204286Y-26407724D02*
X93191905Y-26382962D01*
X93191905Y-26382962D02*
X93179524Y-26370581D01*
X93179524Y-26370581D02*
X93154762Y-26358200D01*
X93154762Y-26358200D02*
X93105238Y-26358200D01*
X93105238Y-26358200D02*
X93080476Y-26370581D01*
X93080476Y-26370581D02*
X93068095Y-26382962D01*
X93068095Y-26382962D02*
X93055714Y-26407724D01*
X93055714Y-26407724D02*
X93055714Y-26469629D01*
X93055714Y-26469629D02*
X93068095Y-26494391D01*
X93068095Y-26494391D02*
X93080476Y-26506772D01*
X93080476Y-26506772D02*
X93105238Y-26519153D01*
X93105238Y-26519153D02*
X93154762Y-26519153D01*
X93154762Y-26519153D02*
X93179524Y-26506772D01*
X93179524Y-26506772D02*
X93191905Y-26494391D01*
X93191905Y-26494391D02*
X93204286Y-26469629D01*
D11*
X174738095Y-16604819D02*
X175309523Y-16604819D01*
X175023809Y-17604819D02*
X175023809Y-16604819D01*
X175642857Y-17604819D02*
X175642857Y-16604819D01*
X175642857Y-16604819D02*
X176023809Y-16604819D01*
X176023809Y-16604819D02*
X176119047Y-16652438D01*
X176119047Y-16652438D02*
X176166666Y-16700057D01*
X176166666Y-16700057D02*
X176214285Y-16795295D01*
X176214285Y-16795295D02*
X176214285Y-16938152D01*
X176214285Y-16938152D02*
X176166666Y-17033390D01*
X176166666Y-17033390D02*
X176119047Y-17081009D01*
X176119047Y-17081009D02*
X176023809Y-17128628D01*
X176023809Y-17128628D02*
X175642857Y-17128628D01*
X176547619Y-16604819D02*
X177214285Y-16604819D01*
X177214285Y-16604819D02*
X176785714Y-17604819D01*
D10*
X103956667Y-22518200D02*
X103870000Y-22394391D01*
X103808095Y-22518200D02*
X103808095Y-22258200D01*
X103808095Y-22258200D02*
X103907143Y-22258200D01*
X103907143Y-22258200D02*
X103931905Y-22270581D01*
X103931905Y-22270581D02*
X103944286Y-22282962D01*
X103944286Y-22282962D02*
X103956667Y-22307724D01*
X103956667Y-22307724D02*
X103956667Y-22344867D01*
X103956667Y-22344867D02*
X103944286Y-22369629D01*
X103944286Y-22369629D02*
X103931905Y-22382010D01*
X103931905Y-22382010D02*
X103907143Y-22394391D01*
X103907143Y-22394391D02*
X103808095Y-22394391D01*
X104105238Y-22369629D02*
X104080476Y-22357248D01*
X104080476Y-22357248D02*
X104068095Y-22344867D01*
X104068095Y-22344867D02*
X104055714Y-22320105D01*
X104055714Y-22320105D02*
X104055714Y-22307724D01*
X104055714Y-22307724D02*
X104068095Y-22282962D01*
X104068095Y-22282962D02*
X104080476Y-22270581D01*
X104080476Y-22270581D02*
X104105238Y-22258200D01*
X104105238Y-22258200D02*
X104154762Y-22258200D01*
X104154762Y-22258200D02*
X104179524Y-22270581D01*
X104179524Y-22270581D02*
X104191905Y-22282962D01*
X104191905Y-22282962D02*
X104204286Y-22307724D01*
X104204286Y-22307724D02*
X104204286Y-22320105D01*
X104204286Y-22320105D02*
X104191905Y-22344867D01*
X104191905Y-22344867D02*
X104179524Y-22357248D01*
X104179524Y-22357248D02*
X104154762Y-22369629D01*
X104154762Y-22369629D02*
X104105238Y-22369629D01*
X104105238Y-22369629D02*
X104080476Y-22382010D01*
X104080476Y-22382010D02*
X104068095Y-22394391D01*
X104068095Y-22394391D02*
X104055714Y-22419153D01*
X104055714Y-22419153D02*
X104055714Y-22468677D01*
X104055714Y-22468677D02*
X104068095Y-22493439D01*
X104068095Y-22493439D02*
X104080476Y-22505820D01*
X104080476Y-22505820D02*
X104105238Y-22518200D01*
X104105238Y-22518200D02*
X104154762Y-22518200D01*
X104154762Y-22518200D02*
X104179524Y-22505820D01*
X104179524Y-22505820D02*
X104191905Y-22493439D01*
X104191905Y-22493439D02*
X104204286Y-22468677D01*
X104204286Y-22468677D02*
X104204286Y-22419153D01*
X104204286Y-22419153D02*
X104191905Y-22394391D01*
X104191905Y-22394391D02*
X104179524Y-22382010D01*
X104179524Y-22382010D02*
X104154762Y-22369629D01*
D12*
X100395937Y-23068571D02*
X100361651Y-23137142D01*
X100361651Y-23137142D02*
X100293080Y-23205714D01*
X100293080Y-23205714D02*
X100190222Y-23308571D01*
X100190222Y-23308571D02*
X100155937Y-23377142D01*
X100155937Y-23377142D02*
X100155937Y-23445714D01*
X100327365Y-23411428D02*
X100293080Y-23480000D01*
X100293080Y-23480000D02*
X100224508Y-23548571D01*
X100224508Y-23548571D02*
X100087365Y-23582857D01*
X100087365Y-23582857D02*
X99847365Y-23582857D01*
X99847365Y-23582857D02*
X99710222Y-23548571D01*
X99710222Y-23548571D02*
X99641651Y-23480000D01*
X99641651Y-23480000D02*
X99607365Y-23411428D01*
X99607365Y-23411428D02*
X99607365Y-23274285D01*
X99607365Y-23274285D02*
X99641651Y-23205714D01*
X99641651Y-23205714D02*
X99710222Y-23137142D01*
X99710222Y-23137142D02*
X99847365Y-23102857D01*
X99847365Y-23102857D02*
X100087365Y-23102857D01*
X100087365Y-23102857D02*
X100224508Y-23137142D01*
X100224508Y-23137142D02*
X100293080Y-23205714D01*
X100293080Y-23205714D02*
X100327365Y-23274285D01*
X100327365Y-23274285D02*
X100327365Y-23411428D01*
X100327365Y-22417142D02*
X100327365Y-22828571D01*
X100327365Y-22622856D02*
X99607365Y-22622856D01*
X99607365Y-22622856D02*
X99710222Y-22691428D01*
X99710222Y-22691428D02*
X99778794Y-22759999D01*
X99778794Y-22759999D02*
X99813080Y-22828571D01*
D11*
X155095595Y-11914285D02*
X155095595Y-12295237D01*
X155095595Y-12295237D02*
X154295595Y-12295237D01*
X155095595Y-11647618D02*
X154295595Y-11647618D01*
X154295595Y-11647618D02*
X154295595Y-11457142D01*
X154295595Y-11457142D02*
X154333690Y-11342856D01*
X154333690Y-11342856D02*
X154409880Y-11266666D01*
X154409880Y-11266666D02*
X154486071Y-11228571D01*
X154486071Y-11228571D02*
X154638452Y-11190475D01*
X154638452Y-11190475D02*
X154752738Y-11190475D01*
X154752738Y-11190475D02*
X154905119Y-11228571D01*
X154905119Y-11228571D02*
X154981309Y-11266666D01*
X154981309Y-11266666D02*
X155057500Y-11342856D01*
X155057500Y-11342856D02*
X155095595Y-11457142D01*
X155095595Y-11457142D02*
X155095595Y-11647618D01*
X155095595Y-10428571D02*
X155095595Y-10885714D01*
X155095595Y-10657142D02*
X154295595Y-10657142D01*
X154295595Y-10657142D02*
X154409880Y-10733333D01*
X154409880Y-10733333D02*
X154486071Y-10809523D01*
X154486071Y-10809523D02*
X154524166Y-10885714D01*
X154562261Y-9742856D02*
X155095595Y-9742856D01*
X154257500Y-9933332D02*
X154828928Y-10123809D01*
X154828928Y-10123809D02*
X154828928Y-9628570D01*
X69238095Y-33954819D02*
X69238095Y-32954819D01*
X69238095Y-33431009D02*
X69809523Y-33431009D01*
X69809523Y-33954819D02*
X69809523Y-32954819D01*
X70238095Y-33050057D02*
X70285714Y-33002438D01*
X70285714Y-33002438D02*
X70380952Y-32954819D01*
X70380952Y-32954819D02*
X70619047Y-32954819D01*
X70619047Y-32954819D02*
X70714285Y-33002438D01*
X70714285Y-33002438D02*
X70761904Y-33050057D01*
X70761904Y-33050057D02*
X70809523Y-33145295D01*
X70809523Y-33145295D02*
X70809523Y-33240533D01*
X70809523Y-33240533D02*
X70761904Y-33383390D01*
X70761904Y-33383390D02*
X70190476Y-33954819D01*
X70190476Y-33954819D02*
X70809523Y-33954819D01*
X75738095Y-31004819D02*
X76309523Y-31004819D01*
X76023809Y-32004819D02*
X76023809Y-31004819D01*
X76642857Y-32004819D02*
X76642857Y-31004819D01*
X76642857Y-31004819D02*
X77023809Y-31004819D01*
X77023809Y-31004819D02*
X77119047Y-31052438D01*
X77119047Y-31052438D02*
X77166666Y-31100057D01*
X77166666Y-31100057D02*
X77214285Y-31195295D01*
X77214285Y-31195295D02*
X77214285Y-31338152D01*
X77214285Y-31338152D02*
X77166666Y-31433390D01*
X77166666Y-31433390D02*
X77119047Y-31481009D01*
X77119047Y-31481009D02*
X77023809Y-31528628D01*
X77023809Y-31528628D02*
X76642857Y-31528628D01*
X77595238Y-31100057D02*
X77642857Y-31052438D01*
X77642857Y-31052438D02*
X77738095Y-31004819D01*
X77738095Y-31004819D02*
X77976190Y-31004819D01*
X77976190Y-31004819D02*
X78071428Y-31052438D01*
X78071428Y-31052438D02*
X78119047Y-31100057D01*
X78119047Y-31100057D02*
X78166666Y-31195295D01*
X78166666Y-31195295D02*
X78166666Y-31290533D01*
X78166666Y-31290533D02*
X78119047Y-31433390D01*
X78119047Y-31433390D02*
X77547619Y-32004819D01*
X77547619Y-32004819D02*
X78166666Y-32004819D01*
D12*
X86107365Y-41548571D02*
X86690222Y-41548571D01*
X86690222Y-41548571D02*
X86758794Y-41514285D01*
X86758794Y-41514285D02*
X86793080Y-41480000D01*
X86793080Y-41480000D02*
X86827365Y-41411428D01*
X86827365Y-41411428D02*
X86827365Y-41274285D01*
X86827365Y-41274285D02*
X86793080Y-41205714D01*
X86793080Y-41205714D02*
X86758794Y-41171428D01*
X86758794Y-41171428D02*
X86690222Y-41137142D01*
X86690222Y-41137142D02*
X86107365Y-41137142D01*
X86347365Y-40485714D02*
X86827365Y-40485714D01*
X86073080Y-40657142D02*
X86587365Y-40828571D01*
X86587365Y-40828571D02*
X86587365Y-40382856D01*
D11*
X70666667Y-37907200D02*
X70809524Y-37954819D01*
X70809524Y-37954819D02*
X71047619Y-37954819D01*
X71047619Y-37954819D02*
X71142857Y-37907200D01*
X71142857Y-37907200D02*
X71190476Y-37859580D01*
X71190476Y-37859580D02*
X71238095Y-37764342D01*
X71238095Y-37764342D02*
X71238095Y-37669104D01*
X71238095Y-37669104D02*
X71190476Y-37573866D01*
X71190476Y-37573866D02*
X71142857Y-37526247D01*
X71142857Y-37526247D02*
X71047619Y-37478628D01*
X71047619Y-37478628D02*
X70857143Y-37431009D01*
X70857143Y-37431009D02*
X70761905Y-37383390D01*
X70761905Y-37383390D02*
X70714286Y-37335771D01*
X70714286Y-37335771D02*
X70666667Y-37240533D01*
X70666667Y-37240533D02*
X70666667Y-37145295D01*
X70666667Y-37145295D02*
X70714286Y-37050057D01*
X70714286Y-37050057D02*
X70761905Y-37002438D01*
X70761905Y-37002438D02*
X70857143Y-36954819D01*
X70857143Y-36954819D02*
X71095238Y-36954819D01*
X71095238Y-36954819D02*
X71238095Y-37002438D01*
X71571429Y-36954819D02*
X71809524Y-37954819D01*
X71809524Y-37954819D02*
X72000000Y-37240533D01*
X72000000Y-37240533D02*
X72190476Y-37954819D01*
X72190476Y-37954819D02*
X72428572Y-36954819D01*
X73333333Y-37954819D02*
X72761905Y-37954819D01*
X73047619Y-37954819D02*
X73047619Y-36954819D01*
X73047619Y-36954819D02*
X72952381Y-37097676D01*
X72952381Y-37097676D02*
X72857143Y-37192914D01*
X72857143Y-37192914D02*
X72761905Y-37240533D01*
X114261905Y-18804819D02*
X114833333Y-18804819D01*
X114547619Y-19804819D02*
X114547619Y-18804819D01*
X115119048Y-19757200D02*
X115261905Y-19804819D01*
X115261905Y-19804819D02*
X115500000Y-19804819D01*
X115500000Y-19804819D02*
X115595238Y-19757200D01*
X115595238Y-19757200D02*
X115642857Y-19709580D01*
X115642857Y-19709580D02*
X115690476Y-19614342D01*
X115690476Y-19614342D02*
X115690476Y-19519104D01*
X115690476Y-19519104D02*
X115642857Y-19423866D01*
X115642857Y-19423866D02*
X115595238Y-19376247D01*
X115595238Y-19376247D02*
X115500000Y-19328628D01*
X115500000Y-19328628D02*
X115309524Y-19281009D01*
X115309524Y-19281009D02*
X115214286Y-19233390D01*
X115214286Y-19233390D02*
X115166667Y-19185771D01*
X115166667Y-19185771D02*
X115119048Y-19090533D01*
X115119048Y-19090533D02*
X115119048Y-18995295D01*
X115119048Y-18995295D02*
X115166667Y-18900057D01*
X115166667Y-18900057D02*
X115214286Y-18852438D01*
X115214286Y-18852438D02*
X115309524Y-18804819D01*
X115309524Y-18804819D02*
X115547619Y-18804819D01*
X115547619Y-18804819D02*
X115690476Y-18852438D01*
X116071429Y-18900057D02*
X116119048Y-18852438D01*
X116119048Y-18852438D02*
X116214286Y-18804819D01*
X116214286Y-18804819D02*
X116452381Y-18804819D01*
X116452381Y-18804819D02*
X116547619Y-18852438D01*
X116547619Y-18852438D02*
X116595238Y-18900057D01*
X116595238Y-18900057D02*
X116642857Y-18995295D01*
X116642857Y-18995295D02*
X116642857Y-19090533D01*
X116642857Y-19090533D02*
X116595238Y-19233390D01*
X116595238Y-19233390D02*
X116023810Y-19804819D01*
X116023810Y-19804819D02*
X116642857Y-19804819D01*
X68238095Y-18904819D02*
X68809523Y-18904819D01*
X68523809Y-19904819D02*
X68523809Y-18904819D01*
X69142857Y-19904819D02*
X69142857Y-18904819D01*
X69142857Y-18904819D02*
X69523809Y-18904819D01*
X69523809Y-18904819D02*
X69619047Y-18952438D01*
X69619047Y-18952438D02*
X69666666Y-19000057D01*
X69666666Y-19000057D02*
X69714285Y-19095295D01*
X69714285Y-19095295D02*
X69714285Y-19238152D01*
X69714285Y-19238152D02*
X69666666Y-19333390D01*
X69666666Y-19333390D02*
X69619047Y-19381009D01*
X69619047Y-19381009D02*
X69523809Y-19428628D01*
X69523809Y-19428628D02*
X69142857Y-19428628D01*
X70619047Y-18904819D02*
X70142857Y-18904819D01*
X70142857Y-18904819D02*
X70095238Y-19381009D01*
X70095238Y-19381009D02*
X70142857Y-19333390D01*
X70142857Y-19333390D02*
X70238095Y-19285771D01*
X70238095Y-19285771D02*
X70476190Y-19285771D01*
X70476190Y-19285771D02*
X70571428Y-19333390D01*
X70571428Y-19333390D02*
X70619047Y-19381009D01*
X70619047Y-19381009D02*
X70666666Y-19476247D01*
X70666666Y-19476247D02*
X70666666Y-19714342D01*
X70666666Y-19714342D02*
X70619047Y-19809580D01*
X70619047Y-19809580D02*
X70571428Y-19857200D01*
X70571428Y-19857200D02*
X70476190Y-19904819D01*
X70476190Y-19904819D02*
X70238095Y-19904819D01*
X70238095Y-19904819D02*
X70142857Y-19857200D01*
X70142857Y-19857200D02*
X70095238Y-19809580D01*
D13*
X114416666Y-23179530D02*
X114392857Y-23203340D01*
X114392857Y-23203340D02*
X114321428Y-23227149D01*
X114321428Y-23227149D02*
X114273809Y-23227149D01*
X114273809Y-23227149D02*
X114202381Y-23203340D01*
X114202381Y-23203340D02*
X114154762Y-23155720D01*
X114154762Y-23155720D02*
X114130952Y-23108101D01*
X114130952Y-23108101D02*
X114107143Y-23012863D01*
X114107143Y-23012863D02*
X114107143Y-22941435D01*
X114107143Y-22941435D02*
X114130952Y-22846197D01*
X114130952Y-22846197D02*
X114154762Y-22798578D01*
X114154762Y-22798578D02*
X114202381Y-22750959D01*
X114202381Y-22750959D02*
X114273809Y-22727149D01*
X114273809Y-22727149D02*
X114321428Y-22727149D01*
X114321428Y-22727149D02*
X114392857Y-22750959D01*
X114392857Y-22750959D02*
X114416666Y-22774768D01*
X114607143Y-22774768D02*
X114630952Y-22750959D01*
X114630952Y-22750959D02*
X114678571Y-22727149D01*
X114678571Y-22727149D02*
X114797619Y-22727149D01*
X114797619Y-22727149D02*
X114845238Y-22750959D01*
X114845238Y-22750959D02*
X114869047Y-22774768D01*
X114869047Y-22774768D02*
X114892857Y-22822387D01*
X114892857Y-22822387D02*
X114892857Y-22870006D01*
X114892857Y-22870006D02*
X114869047Y-22941435D01*
X114869047Y-22941435D02*
X114583333Y-23227149D01*
X114583333Y-23227149D02*
X114892857Y-23227149D01*
D10*
X95458333Y-26589765D02*
X95446429Y-26601670D01*
X95446429Y-26601670D02*
X95410714Y-26613574D01*
X95410714Y-26613574D02*
X95386905Y-26613574D01*
X95386905Y-26613574D02*
X95351191Y-26601670D01*
X95351191Y-26601670D02*
X95327381Y-26577860D01*
X95327381Y-26577860D02*
X95315476Y-26554050D01*
X95315476Y-26554050D02*
X95303572Y-26506431D01*
X95303572Y-26506431D02*
X95303572Y-26470717D01*
X95303572Y-26470717D02*
X95315476Y-26423098D01*
X95315476Y-26423098D02*
X95327381Y-26399289D01*
X95327381Y-26399289D02*
X95351191Y-26375479D01*
X95351191Y-26375479D02*
X95386905Y-26363574D01*
X95386905Y-26363574D02*
X95410714Y-26363574D01*
X95410714Y-26363574D02*
X95446429Y-26375479D01*
X95446429Y-26375479D02*
X95458333Y-26387384D01*
X95601191Y-26470717D02*
X95577381Y-26458812D01*
X95577381Y-26458812D02*
X95565476Y-26446908D01*
X95565476Y-26446908D02*
X95553572Y-26423098D01*
X95553572Y-26423098D02*
X95553572Y-26411193D01*
X95553572Y-26411193D02*
X95565476Y-26387384D01*
X95565476Y-26387384D02*
X95577381Y-26375479D01*
X95577381Y-26375479D02*
X95601191Y-26363574D01*
X95601191Y-26363574D02*
X95648810Y-26363574D01*
X95648810Y-26363574D02*
X95672619Y-26375479D01*
X95672619Y-26375479D02*
X95684524Y-26387384D01*
X95684524Y-26387384D02*
X95696429Y-26411193D01*
X95696429Y-26411193D02*
X95696429Y-26423098D01*
X95696429Y-26423098D02*
X95684524Y-26446908D01*
X95684524Y-26446908D02*
X95672619Y-26458812D01*
X95672619Y-26458812D02*
X95648810Y-26470717D01*
X95648810Y-26470717D02*
X95601191Y-26470717D01*
X95601191Y-26470717D02*
X95577381Y-26482622D01*
X95577381Y-26482622D02*
X95565476Y-26494527D01*
X95565476Y-26494527D02*
X95553572Y-26518336D01*
X95553572Y-26518336D02*
X95553572Y-26565955D01*
X95553572Y-26565955D02*
X95565476Y-26589765D01*
X95565476Y-26589765D02*
X95577381Y-26601670D01*
X95577381Y-26601670D02*
X95601191Y-26613574D01*
X95601191Y-26613574D02*
X95648810Y-26613574D01*
X95648810Y-26613574D02*
X95672619Y-26601670D01*
X95672619Y-26601670D02*
X95684524Y-26589765D01*
X95684524Y-26589765D02*
X95696429Y-26565955D01*
X95696429Y-26565955D02*
X95696429Y-26518336D01*
X95696429Y-26518336D02*
X95684524Y-26494527D01*
X95684524Y-26494527D02*
X95672619Y-26482622D01*
X95672619Y-26482622D02*
X95648810Y-26470717D01*
D11*
X75738095Y-37004819D02*
X76309523Y-37004819D01*
X76023809Y-38004819D02*
X76023809Y-37004819D01*
X76642857Y-38004819D02*
X76642857Y-37004819D01*
X76642857Y-37004819D02*
X77023809Y-37004819D01*
X77023809Y-37004819D02*
X77119047Y-37052438D01*
X77119047Y-37052438D02*
X77166666Y-37100057D01*
X77166666Y-37100057D02*
X77214285Y-37195295D01*
X77214285Y-37195295D02*
X77214285Y-37338152D01*
X77214285Y-37338152D02*
X77166666Y-37433390D01*
X77166666Y-37433390D02*
X77119047Y-37481009D01*
X77119047Y-37481009D02*
X77023809Y-37528628D01*
X77023809Y-37528628D02*
X76642857Y-37528628D01*
X78071428Y-37338152D02*
X78071428Y-38004819D01*
X77833333Y-36957200D02*
X77595238Y-37671485D01*
X77595238Y-37671485D02*
X78214285Y-37671485D01*
D10*
X13239285Y-15189765D02*
X13227381Y-15201670D01*
X13227381Y-15201670D02*
X13191666Y-15213574D01*
X13191666Y-15213574D02*
X13167857Y-15213574D01*
X13167857Y-15213574D02*
X13132143Y-15201670D01*
X13132143Y-15201670D02*
X13108333Y-15177860D01*
X13108333Y-15177860D02*
X13096428Y-15154050D01*
X13096428Y-15154050D02*
X13084524Y-15106431D01*
X13084524Y-15106431D02*
X13084524Y-15070717D01*
X13084524Y-15070717D02*
X13096428Y-15023098D01*
X13096428Y-15023098D02*
X13108333Y-14999289D01*
X13108333Y-14999289D02*
X13132143Y-14975479D01*
X13132143Y-14975479D02*
X13167857Y-14963574D01*
X13167857Y-14963574D02*
X13191666Y-14963574D01*
X13191666Y-14963574D02*
X13227381Y-14975479D01*
X13227381Y-14975479D02*
X13239285Y-14987384D01*
X13477381Y-15213574D02*
X13334524Y-15213574D01*
X13405952Y-15213574D02*
X13405952Y-14963574D01*
X13405952Y-14963574D02*
X13382143Y-14999289D01*
X13382143Y-14999289D02*
X13358333Y-15023098D01*
X13358333Y-15023098D02*
X13334524Y-15035003D01*
X13632142Y-14963574D02*
X13655952Y-14963574D01*
X13655952Y-14963574D02*
X13679761Y-14975479D01*
X13679761Y-14975479D02*
X13691666Y-14987384D01*
X13691666Y-14987384D02*
X13703571Y-15011193D01*
X13703571Y-15011193D02*
X13715476Y-15058812D01*
X13715476Y-15058812D02*
X13715476Y-15118336D01*
X13715476Y-15118336D02*
X13703571Y-15165955D01*
X13703571Y-15165955D02*
X13691666Y-15189765D01*
X13691666Y-15189765D02*
X13679761Y-15201670D01*
X13679761Y-15201670D02*
X13655952Y-15213574D01*
X13655952Y-15213574D02*
X13632142Y-15213574D01*
X13632142Y-15213574D02*
X13608333Y-15201670D01*
X13608333Y-15201670D02*
X13596428Y-15189765D01*
X13596428Y-15189765D02*
X13584523Y-15165955D01*
X13584523Y-15165955D02*
X13572619Y-15118336D01*
X13572619Y-15118336D02*
X13572619Y-15058812D01*
X13572619Y-15058812D02*
X13584523Y-15011193D01*
X13584523Y-15011193D02*
X13596428Y-14987384D01*
X13596428Y-14987384D02*
X13608333Y-14975479D01*
X13608333Y-14975479D02*
X13632142Y-14963574D01*
X100956667Y-26618200D02*
X100870000Y-26494391D01*
X100808095Y-26618200D02*
X100808095Y-26358200D01*
X100808095Y-26358200D02*
X100907143Y-26358200D01*
X100907143Y-26358200D02*
X100931905Y-26370581D01*
X100931905Y-26370581D02*
X100944286Y-26382962D01*
X100944286Y-26382962D02*
X100956667Y-26407724D01*
X100956667Y-26407724D02*
X100956667Y-26444867D01*
X100956667Y-26444867D02*
X100944286Y-26469629D01*
X100944286Y-26469629D02*
X100931905Y-26482010D01*
X100931905Y-26482010D02*
X100907143Y-26494391D01*
X100907143Y-26494391D02*
X100808095Y-26494391D01*
X101043333Y-26358200D02*
X101216667Y-26358200D01*
X101216667Y-26358200D02*
X101105238Y-26618200D01*
D11*
X132738095Y-16504819D02*
X133309523Y-16504819D01*
X133023809Y-17504819D02*
X133023809Y-16504819D01*
X133642857Y-17504819D02*
X133642857Y-16504819D01*
X133642857Y-16504819D02*
X134023809Y-16504819D01*
X134023809Y-16504819D02*
X134119047Y-16552438D01*
X134119047Y-16552438D02*
X134166666Y-16600057D01*
X134166666Y-16600057D02*
X134214285Y-16695295D01*
X134214285Y-16695295D02*
X134214285Y-16838152D01*
X134214285Y-16838152D02*
X134166666Y-16933390D01*
X134166666Y-16933390D02*
X134119047Y-16981009D01*
X134119047Y-16981009D02*
X134023809Y-17028628D01*
X134023809Y-17028628D02*
X133642857Y-17028628D01*
X135166666Y-17504819D02*
X134595238Y-17504819D01*
X134880952Y-17504819D02*
X134880952Y-16504819D01*
X134880952Y-16504819D02*
X134785714Y-16647676D01*
X134785714Y-16647676D02*
X134690476Y-16742914D01*
X134690476Y-16742914D02*
X134595238Y-16790533D01*
D10*
X46639285Y-15189765D02*
X46627381Y-15201670D01*
X46627381Y-15201670D02*
X46591666Y-15213574D01*
X46591666Y-15213574D02*
X46567857Y-15213574D01*
X46567857Y-15213574D02*
X46532143Y-15201670D01*
X46532143Y-15201670D02*
X46508333Y-15177860D01*
X46508333Y-15177860D02*
X46496428Y-15154050D01*
X46496428Y-15154050D02*
X46484524Y-15106431D01*
X46484524Y-15106431D02*
X46484524Y-15070717D01*
X46484524Y-15070717D02*
X46496428Y-15023098D01*
X46496428Y-15023098D02*
X46508333Y-14999289D01*
X46508333Y-14999289D02*
X46532143Y-14975479D01*
X46532143Y-14975479D02*
X46567857Y-14963574D01*
X46567857Y-14963574D02*
X46591666Y-14963574D01*
X46591666Y-14963574D02*
X46627381Y-14975479D01*
X46627381Y-14975479D02*
X46639285Y-14987384D01*
X46877381Y-15213574D02*
X46734524Y-15213574D01*
X46805952Y-15213574D02*
X46805952Y-14963574D01*
X46805952Y-14963574D02*
X46782143Y-14999289D01*
X46782143Y-14999289D02*
X46758333Y-15023098D01*
X46758333Y-15023098D02*
X46734524Y-15035003D01*
X46960714Y-14963574D02*
X47115476Y-14963574D01*
X47115476Y-14963574D02*
X47032142Y-15058812D01*
X47032142Y-15058812D02*
X47067857Y-15058812D01*
X47067857Y-15058812D02*
X47091666Y-15070717D01*
X47091666Y-15070717D02*
X47103571Y-15082622D01*
X47103571Y-15082622D02*
X47115476Y-15106431D01*
X47115476Y-15106431D02*
X47115476Y-15165955D01*
X47115476Y-15165955D02*
X47103571Y-15189765D01*
X47103571Y-15189765D02*
X47091666Y-15201670D01*
X47091666Y-15201670D02*
X47067857Y-15213574D01*
X47067857Y-15213574D02*
X46996428Y-15213574D01*
X46996428Y-15213574D02*
X46972619Y-15201670D01*
X46972619Y-15201670D02*
X46960714Y-15189765D01*
D11*
X106738095Y-35004819D02*
X107309523Y-35004819D01*
X107023809Y-36004819D02*
X107023809Y-35004819D01*
X107642857Y-36004819D02*
X107642857Y-35004819D01*
X107642857Y-35004819D02*
X108023809Y-35004819D01*
X108023809Y-35004819D02*
X108119047Y-35052438D01*
X108119047Y-35052438D02*
X108166666Y-35100057D01*
X108166666Y-35100057D02*
X108214285Y-35195295D01*
X108214285Y-35195295D02*
X108214285Y-35338152D01*
X108214285Y-35338152D02*
X108166666Y-35433390D01*
X108166666Y-35433390D02*
X108119047Y-35481009D01*
X108119047Y-35481009D02*
X108023809Y-35528628D01*
X108023809Y-35528628D02*
X107642857Y-35528628D01*
X108785714Y-35433390D02*
X108690476Y-35385771D01*
X108690476Y-35385771D02*
X108642857Y-35338152D01*
X108642857Y-35338152D02*
X108595238Y-35242914D01*
X108595238Y-35242914D02*
X108595238Y-35195295D01*
X108595238Y-35195295D02*
X108642857Y-35100057D01*
X108642857Y-35100057D02*
X108690476Y-35052438D01*
X108690476Y-35052438D02*
X108785714Y-35004819D01*
X108785714Y-35004819D02*
X108976190Y-35004819D01*
X108976190Y-35004819D02*
X109071428Y-35052438D01*
X109071428Y-35052438D02*
X109119047Y-35100057D01*
X109119047Y-35100057D02*
X109166666Y-35195295D01*
X109166666Y-35195295D02*
X109166666Y-35242914D01*
X109166666Y-35242914D02*
X109119047Y-35338152D01*
X109119047Y-35338152D02*
X109071428Y-35385771D01*
X109071428Y-35385771D02*
X108976190Y-35433390D01*
X108976190Y-35433390D02*
X108785714Y-35433390D01*
X108785714Y-35433390D02*
X108690476Y-35481009D01*
X108690476Y-35481009D02*
X108642857Y-35528628D01*
X108642857Y-35528628D02*
X108595238Y-35623866D01*
X108595238Y-35623866D02*
X108595238Y-35814342D01*
X108595238Y-35814342D02*
X108642857Y-35909580D01*
X108642857Y-35909580D02*
X108690476Y-35957200D01*
X108690476Y-35957200D02*
X108785714Y-36004819D01*
X108785714Y-36004819D02*
X108976190Y-36004819D01*
X108976190Y-36004819D02*
X109071428Y-35957200D01*
X109071428Y-35957200D02*
X109119047Y-35909580D01*
X109119047Y-35909580D02*
X109166666Y-35814342D01*
X109166666Y-35814342D02*
X109166666Y-35623866D01*
X109166666Y-35623866D02*
X109119047Y-35528628D01*
X109119047Y-35528628D02*
X109071428Y-35481009D01*
X109071428Y-35481009D02*
X108976190Y-35433390D01*
D10*
X112956667Y-33118200D02*
X112870000Y-32994391D01*
X112808095Y-33118200D02*
X112808095Y-32858200D01*
X112808095Y-32858200D02*
X112907143Y-32858200D01*
X112907143Y-32858200D02*
X112931905Y-32870581D01*
X112931905Y-32870581D02*
X112944286Y-32882962D01*
X112944286Y-32882962D02*
X112956667Y-32907724D01*
X112956667Y-32907724D02*
X112956667Y-32944867D01*
X112956667Y-32944867D02*
X112944286Y-32969629D01*
X112944286Y-32969629D02*
X112931905Y-32982010D01*
X112931905Y-32982010D02*
X112907143Y-32994391D01*
X112907143Y-32994391D02*
X112808095Y-32994391D01*
X113179524Y-32858200D02*
X113130000Y-32858200D01*
X113130000Y-32858200D02*
X113105238Y-32870581D01*
X113105238Y-32870581D02*
X113092857Y-32882962D01*
X113092857Y-32882962D02*
X113068095Y-32920105D01*
X113068095Y-32920105D02*
X113055714Y-32969629D01*
X113055714Y-32969629D02*
X113055714Y-33068677D01*
X113055714Y-33068677D02*
X113068095Y-33093439D01*
X113068095Y-33093439D02*
X113080476Y-33105820D01*
X113080476Y-33105820D02*
X113105238Y-33118200D01*
X113105238Y-33118200D02*
X113154762Y-33118200D01*
X113154762Y-33118200D02*
X113179524Y-33105820D01*
X113179524Y-33105820D02*
X113191905Y-33093439D01*
X113191905Y-33093439D02*
X113204286Y-33068677D01*
X113204286Y-33068677D02*
X113204286Y-33006772D01*
X113204286Y-33006772D02*
X113191905Y-32982010D01*
X113191905Y-32982010D02*
X113179524Y-32969629D01*
X113179524Y-32969629D02*
X113154762Y-32957248D01*
X113154762Y-32957248D02*
X113105238Y-32957248D01*
X113105238Y-32957248D02*
X113080476Y-32969629D01*
X113080476Y-32969629D02*
X113068095Y-32982010D01*
X113068095Y-32982010D02*
X113055714Y-33006772D01*
X106458333Y-22489765D02*
X106446429Y-22501670D01*
X106446429Y-22501670D02*
X106410714Y-22513574D01*
X106410714Y-22513574D02*
X106386905Y-22513574D01*
X106386905Y-22513574D02*
X106351191Y-22501670D01*
X106351191Y-22501670D02*
X106327381Y-22477860D01*
X106327381Y-22477860D02*
X106315476Y-22454050D01*
X106315476Y-22454050D02*
X106303572Y-22406431D01*
X106303572Y-22406431D02*
X106303572Y-22370717D01*
X106303572Y-22370717D02*
X106315476Y-22323098D01*
X106315476Y-22323098D02*
X106327381Y-22299289D01*
X106327381Y-22299289D02*
X106351191Y-22275479D01*
X106351191Y-22275479D02*
X106386905Y-22263574D01*
X106386905Y-22263574D02*
X106410714Y-22263574D01*
X106410714Y-22263574D02*
X106446429Y-22275479D01*
X106446429Y-22275479D02*
X106458333Y-22287384D01*
X106541667Y-22263574D02*
X106708333Y-22263574D01*
X106708333Y-22263574D02*
X106601191Y-22513574D01*
D11*
X21495595Y-11533333D02*
X21495595Y-11914285D01*
X21495595Y-11914285D02*
X20695595Y-11914285D01*
X21495595Y-11266666D02*
X20695595Y-11266666D01*
X20695595Y-11266666D02*
X20695595Y-11076190D01*
X20695595Y-11076190D02*
X20733690Y-10961904D01*
X20733690Y-10961904D02*
X20809880Y-10885714D01*
X20809880Y-10885714D02*
X20886071Y-10847619D01*
X20886071Y-10847619D02*
X21038452Y-10809523D01*
X21038452Y-10809523D02*
X21152738Y-10809523D01*
X21152738Y-10809523D02*
X21305119Y-10847619D01*
X21305119Y-10847619D02*
X21381309Y-10885714D01*
X21381309Y-10885714D02*
X21457500Y-10961904D01*
X21457500Y-10961904D02*
X21495595Y-11076190D01*
X21495595Y-11076190D02*
X21495595Y-11266666D01*
X20771785Y-10504762D02*
X20733690Y-10466666D01*
X20733690Y-10466666D02*
X20695595Y-10390476D01*
X20695595Y-10390476D02*
X20695595Y-10200000D01*
X20695595Y-10200000D02*
X20733690Y-10123809D01*
X20733690Y-10123809D02*
X20771785Y-10085714D01*
X20771785Y-10085714D02*
X20847976Y-10047619D01*
X20847976Y-10047619D02*
X20924166Y-10047619D01*
X20924166Y-10047619D02*
X21038452Y-10085714D01*
X21038452Y-10085714D02*
X21495595Y-10542857D01*
X21495595Y-10542857D02*
X21495595Y-10047619D01*
X32628995Y-11533333D02*
X32628995Y-11914285D01*
X32628995Y-11914285D02*
X31828995Y-11914285D01*
X32628995Y-11266666D02*
X31828995Y-11266666D01*
X31828995Y-11266666D02*
X31828995Y-11076190D01*
X31828995Y-11076190D02*
X31867090Y-10961904D01*
X31867090Y-10961904D02*
X31943280Y-10885714D01*
X31943280Y-10885714D02*
X32019471Y-10847619D01*
X32019471Y-10847619D02*
X32171852Y-10809523D01*
X32171852Y-10809523D02*
X32286138Y-10809523D01*
X32286138Y-10809523D02*
X32438519Y-10847619D01*
X32438519Y-10847619D02*
X32514709Y-10885714D01*
X32514709Y-10885714D02*
X32590900Y-10961904D01*
X32590900Y-10961904D02*
X32628995Y-11076190D01*
X32628995Y-11076190D02*
X32628995Y-11266666D01*
X31828995Y-10542857D02*
X31828995Y-10047619D01*
X31828995Y-10047619D02*
X32133757Y-10314285D01*
X32133757Y-10314285D02*
X32133757Y-10200000D01*
X32133757Y-10200000D02*
X32171852Y-10123809D01*
X32171852Y-10123809D02*
X32209947Y-10085714D01*
X32209947Y-10085714D02*
X32286138Y-10047619D01*
X32286138Y-10047619D02*
X32476614Y-10047619D01*
X32476614Y-10047619D02*
X32552804Y-10085714D01*
X32552804Y-10085714D02*
X32590900Y-10123809D01*
X32590900Y-10123809D02*
X32628995Y-10200000D01*
X32628995Y-10200000D02*
X32628995Y-10428571D01*
X32628995Y-10428571D02*
X32590900Y-10504762D01*
X32590900Y-10504762D02*
X32552804Y-10542857D01*
D10*
X135705885Y-15189765D02*
X135693981Y-15201670D01*
X135693981Y-15201670D02*
X135658266Y-15213574D01*
X135658266Y-15213574D02*
X135634457Y-15213574D01*
X135634457Y-15213574D02*
X135598743Y-15201670D01*
X135598743Y-15201670D02*
X135574933Y-15177860D01*
X135574933Y-15177860D02*
X135563028Y-15154050D01*
X135563028Y-15154050D02*
X135551124Y-15106431D01*
X135551124Y-15106431D02*
X135551124Y-15070717D01*
X135551124Y-15070717D02*
X135563028Y-15023098D01*
X135563028Y-15023098D02*
X135574933Y-14999289D01*
X135574933Y-14999289D02*
X135598743Y-14975479D01*
X135598743Y-14975479D02*
X135634457Y-14963574D01*
X135634457Y-14963574D02*
X135658266Y-14963574D01*
X135658266Y-14963574D02*
X135693981Y-14975479D01*
X135693981Y-14975479D02*
X135705885Y-14987384D01*
X135801124Y-14987384D02*
X135813028Y-14975479D01*
X135813028Y-14975479D02*
X135836838Y-14963574D01*
X135836838Y-14963574D02*
X135896362Y-14963574D01*
X135896362Y-14963574D02*
X135920171Y-14975479D01*
X135920171Y-14975479D02*
X135932076Y-14987384D01*
X135932076Y-14987384D02*
X135943981Y-15011193D01*
X135943981Y-15011193D02*
X135943981Y-15035003D01*
X135943981Y-15035003D02*
X135932076Y-15070717D01*
X135932076Y-15070717D02*
X135789219Y-15213574D01*
X135789219Y-15213574D02*
X135943981Y-15213574D01*
X136182076Y-15213574D02*
X136039219Y-15213574D01*
X136110647Y-15213574D02*
X136110647Y-14963574D01*
X136110647Y-14963574D02*
X136086838Y-14999289D01*
X136086838Y-14999289D02*
X136063028Y-15023098D01*
X136063028Y-15023098D02*
X136039219Y-15035003D01*
D11*
X88295595Y-11533333D02*
X88295595Y-11914285D01*
X88295595Y-11914285D02*
X87495595Y-11914285D01*
X88295595Y-11266666D02*
X87495595Y-11266666D01*
X87495595Y-11266666D02*
X87495595Y-11076190D01*
X87495595Y-11076190D02*
X87533690Y-10961904D01*
X87533690Y-10961904D02*
X87609880Y-10885714D01*
X87609880Y-10885714D02*
X87686071Y-10847619D01*
X87686071Y-10847619D02*
X87838452Y-10809523D01*
X87838452Y-10809523D02*
X87952738Y-10809523D01*
X87952738Y-10809523D02*
X88105119Y-10847619D01*
X88105119Y-10847619D02*
X88181309Y-10885714D01*
X88181309Y-10885714D02*
X88257500Y-10961904D01*
X88257500Y-10961904D02*
X88295595Y-11076190D01*
X88295595Y-11076190D02*
X88295595Y-11266666D01*
X87838452Y-10352381D02*
X87800357Y-10428571D01*
X87800357Y-10428571D02*
X87762261Y-10466666D01*
X87762261Y-10466666D02*
X87686071Y-10504762D01*
X87686071Y-10504762D02*
X87647976Y-10504762D01*
X87647976Y-10504762D02*
X87571785Y-10466666D01*
X87571785Y-10466666D02*
X87533690Y-10428571D01*
X87533690Y-10428571D02*
X87495595Y-10352381D01*
X87495595Y-10352381D02*
X87495595Y-10200000D01*
X87495595Y-10200000D02*
X87533690Y-10123809D01*
X87533690Y-10123809D02*
X87571785Y-10085714D01*
X87571785Y-10085714D02*
X87647976Y-10047619D01*
X87647976Y-10047619D02*
X87686071Y-10047619D01*
X87686071Y-10047619D02*
X87762261Y-10085714D01*
X87762261Y-10085714D02*
X87800357Y-10123809D01*
X87800357Y-10123809D02*
X87838452Y-10200000D01*
X87838452Y-10200000D02*
X87838452Y-10352381D01*
X87838452Y-10352381D02*
X87876547Y-10428571D01*
X87876547Y-10428571D02*
X87914642Y-10466666D01*
X87914642Y-10466666D02*
X87990833Y-10504762D01*
X87990833Y-10504762D02*
X88143214Y-10504762D01*
X88143214Y-10504762D02*
X88219404Y-10466666D01*
X88219404Y-10466666D02*
X88257500Y-10428571D01*
X88257500Y-10428571D02*
X88295595Y-10352381D01*
X88295595Y-10352381D02*
X88295595Y-10200000D01*
X88295595Y-10200000D02*
X88257500Y-10123809D01*
X88257500Y-10123809D02*
X88219404Y-10085714D01*
X88219404Y-10085714D02*
X88143214Y-10047619D01*
X88143214Y-10047619D02*
X87990833Y-10047619D01*
X87990833Y-10047619D02*
X87914642Y-10085714D01*
X87914642Y-10085714D02*
X87876547Y-10123809D01*
X87876547Y-10123809D02*
X87838452Y-10200000D01*
X97761905Y-47204819D02*
X98333333Y-47204819D01*
X98047619Y-48204819D02*
X98047619Y-47204819D01*
X98619048Y-48157200D02*
X98761905Y-48204819D01*
X98761905Y-48204819D02*
X99000000Y-48204819D01*
X99000000Y-48204819D02*
X99095238Y-48157200D01*
X99095238Y-48157200D02*
X99142857Y-48109580D01*
X99142857Y-48109580D02*
X99190476Y-48014342D01*
X99190476Y-48014342D02*
X99190476Y-47919104D01*
X99190476Y-47919104D02*
X99142857Y-47823866D01*
X99142857Y-47823866D02*
X99095238Y-47776247D01*
X99095238Y-47776247D02*
X99000000Y-47728628D01*
X99000000Y-47728628D02*
X98809524Y-47681009D01*
X98809524Y-47681009D02*
X98714286Y-47633390D01*
X98714286Y-47633390D02*
X98666667Y-47585771D01*
X98666667Y-47585771D02*
X98619048Y-47490533D01*
X98619048Y-47490533D02*
X98619048Y-47395295D01*
X98619048Y-47395295D02*
X98666667Y-47300057D01*
X98666667Y-47300057D02*
X98714286Y-47252438D01*
X98714286Y-47252438D02*
X98809524Y-47204819D01*
X98809524Y-47204819D02*
X99047619Y-47204819D01*
X99047619Y-47204819D02*
X99190476Y-47252438D01*
X99523810Y-47204819D02*
X100142857Y-47204819D01*
X100142857Y-47204819D02*
X99809524Y-47585771D01*
X99809524Y-47585771D02*
X99952381Y-47585771D01*
X99952381Y-47585771D02*
X100047619Y-47633390D01*
X100047619Y-47633390D02*
X100095238Y-47681009D01*
X100095238Y-47681009D02*
X100142857Y-47776247D01*
X100142857Y-47776247D02*
X100142857Y-48014342D01*
X100142857Y-48014342D02*
X100095238Y-48109580D01*
X100095238Y-48109580D02*
X100047619Y-48157200D01*
X100047619Y-48157200D02*
X99952381Y-48204819D01*
X99952381Y-48204819D02*
X99666667Y-48204819D01*
X99666667Y-48204819D02*
X99571429Y-48157200D01*
X99571429Y-48157200D02*
X99523810Y-48109580D01*
D10*
X35505985Y-15189765D02*
X35494081Y-15201670D01*
X35494081Y-15201670D02*
X35458366Y-15213574D01*
X35458366Y-15213574D02*
X35434557Y-15213574D01*
X35434557Y-15213574D02*
X35398843Y-15201670D01*
X35398843Y-15201670D02*
X35375033Y-15177860D01*
X35375033Y-15177860D02*
X35363128Y-15154050D01*
X35363128Y-15154050D02*
X35351224Y-15106431D01*
X35351224Y-15106431D02*
X35351224Y-15070717D01*
X35351224Y-15070717D02*
X35363128Y-15023098D01*
X35363128Y-15023098D02*
X35375033Y-14999289D01*
X35375033Y-14999289D02*
X35398843Y-14975479D01*
X35398843Y-14975479D02*
X35434557Y-14963574D01*
X35434557Y-14963574D02*
X35458366Y-14963574D01*
X35458366Y-14963574D02*
X35494081Y-14975479D01*
X35494081Y-14975479D02*
X35505985Y-14987384D01*
X35744081Y-15213574D02*
X35601224Y-15213574D01*
X35672652Y-15213574D02*
X35672652Y-14963574D01*
X35672652Y-14963574D02*
X35648843Y-14999289D01*
X35648843Y-14999289D02*
X35625033Y-15023098D01*
X35625033Y-15023098D02*
X35601224Y-15035003D01*
X35839319Y-14987384D02*
X35851223Y-14975479D01*
X35851223Y-14975479D02*
X35875033Y-14963574D01*
X35875033Y-14963574D02*
X35934557Y-14963574D01*
X35934557Y-14963574D02*
X35958366Y-14975479D01*
X35958366Y-14975479D02*
X35970271Y-14987384D01*
X35970271Y-14987384D02*
X35982176Y-15011193D01*
X35982176Y-15011193D02*
X35982176Y-15035003D01*
X35982176Y-15035003D02*
X35970271Y-15070717D01*
X35970271Y-15070717D02*
X35827414Y-15213574D01*
X35827414Y-15213574D02*
X35982176Y-15213574D01*
D11*
X143962295Y-11914285D02*
X143962295Y-12295237D01*
X143962295Y-12295237D02*
X143162295Y-12295237D01*
X143962295Y-11647618D02*
X143162295Y-11647618D01*
X143162295Y-11647618D02*
X143162295Y-11457142D01*
X143162295Y-11457142D02*
X143200390Y-11342856D01*
X143200390Y-11342856D02*
X143276580Y-11266666D01*
X143276580Y-11266666D02*
X143352771Y-11228571D01*
X143352771Y-11228571D02*
X143505152Y-11190475D01*
X143505152Y-11190475D02*
X143619438Y-11190475D01*
X143619438Y-11190475D02*
X143771819Y-11228571D01*
X143771819Y-11228571D02*
X143848009Y-11266666D01*
X143848009Y-11266666D02*
X143924200Y-11342856D01*
X143924200Y-11342856D02*
X143962295Y-11457142D01*
X143962295Y-11457142D02*
X143962295Y-11647618D01*
X143962295Y-10428571D02*
X143962295Y-10885714D01*
X143962295Y-10657142D02*
X143162295Y-10657142D01*
X143162295Y-10657142D02*
X143276580Y-10733333D01*
X143276580Y-10733333D02*
X143352771Y-10809523D01*
X143352771Y-10809523D02*
X143390866Y-10885714D01*
X143162295Y-10161904D02*
X143162295Y-9666666D01*
X143162295Y-9666666D02*
X143467057Y-9933332D01*
X143467057Y-9933332D02*
X143467057Y-9819047D01*
X143467057Y-9819047D02*
X143505152Y-9742856D01*
X143505152Y-9742856D02*
X143543247Y-9704761D01*
X143543247Y-9704761D02*
X143619438Y-9666666D01*
X143619438Y-9666666D02*
X143809914Y-9666666D01*
X143809914Y-9666666D02*
X143886104Y-9704761D01*
X143886104Y-9704761D02*
X143924200Y-9742856D01*
X143924200Y-9742856D02*
X143962295Y-9819047D01*
X143962295Y-9819047D02*
X143962295Y-10047618D01*
X143962295Y-10047618D02*
X143924200Y-10123809D01*
X143924200Y-10123809D02*
X143886104Y-10161904D01*
X69238095Y-46454819D02*
X69238095Y-45454819D01*
X69238095Y-45931009D02*
X69809523Y-45931009D01*
X69809523Y-46454819D02*
X69809523Y-45454819D01*
X70809523Y-46454819D02*
X70238095Y-46454819D01*
X70523809Y-46454819D02*
X70523809Y-45454819D01*
X70523809Y-45454819D02*
X70428571Y-45597676D01*
X70428571Y-45597676D02*
X70333333Y-45692914D01*
X70333333Y-45692914D02*
X70238095Y-45740533D01*
D10*
X107956667Y-33118200D02*
X107870000Y-32994391D01*
X107808095Y-33118200D02*
X107808095Y-32858200D01*
X107808095Y-32858200D02*
X107907143Y-32858200D01*
X107907143Y-32858200D02*
X107931905Y-32870581D01*
X107931905Y-32870581D02*
X107944286Y-32882962D01*
X107944286Y-32882962D02*
X107956667Y-32907724D01*
X107956667Y-32907724D02*
X107956667Y-32944867D01*
X107956667Y-32944867D02*
X107944286Y-32969629D01*
X107944286Y-32969629D02*
X107931905Y-32982010D01*
X107931905Y-32982010D02*
X107907143Y-32994391D01*
X107907143Y-32994391D02*
X107808095Y-32994391D01*
X108179524Y-32944867D02*
X108179524Y-33118200D01*
X108117619Y-32845820D02*
X108055714Y-33031534D01*
X108055714Y-33031534D02*
X108216667Y-33031534D01*
D11*
X75738095Y-34004819D02*
X76309523Y-34004819D01*
X76023809Y-35004819D02*
X76023809Y-34004819D01*
X76642857Y-35004819D02*
X76642857Y-34004819D01*
X76642857Y-34004819D02*
X77023809Y-34004819D01*
X77023809Y-34004819D02*
X77119047Y-34052438D01*
X77119047Y-34052438D02*
X77166666Y-34100057D01*
X77166666Y-34100057D02*
X77214285Y-34195295D01*
X77214285Y-34195295D02*
X77214285Y-34338152D01*
X77214285Y-34338152D02*
X77166666Y-34433390D01*
X77166666Y-34433390D02*
X77119047Y-34481009D01*
X77119047Y-34481009D02*
X77023809Y-34528628D01*
X77023809Y-34528628D02*
X76642857Y-34528628D01*
X77547619Y-34004819D02*
X78166666Y-34004819D01*
X78166666Y-34004819D02*
X77833333Y-34385771D01*
X77833333Y-34385771D02*
X77976190Y-34385771D01*
X77976190Y-34385771D02*
X78071428Y-34433390D01*
X78071428Y-34433390D02*
X78119047Y-34481009D01*
X78119047Y-34481009D02*
X78166666Y-34576247D01*
X78166666Y-34576247D02*
X78166666Y-34814342D01*
X78166666Y-34814342D02*
X78119047Y-34909580D01*
X78119047Y-34909580D02*
X78071428Y-34957200D01*
X78071428Y-34957200D02*
X77976190Y-35004819D01*
X77976190Y-35004819D02*
X77690476Y-35004819D01*
X77690476Y-35004819D02*
X77595238Y-34957200D01*
X77595238Y-34957200D02*
X77547619Y-34909580D01*
D10*
X91172585Y-15189765D02*
X91160681Y-15201670D01*
X91160681Y-15201670D02*
X91124966Y-15213574D01*
X91124966Y-15213574D02*
X91101157Y-15213574D01*
X91101157Y-15213574D02*
X91065443Y-15201670D01*
X91065443Y-15201670D02*
X91041633Y-15177860D01*
X91041633Y-15177860D02*
X91029728Y-15154050D01*
X91029728Y-15154050D02*
X91017824Y-15106431D01*
X91017824Y-15106431D02*
X91017824Y-15070717D01*
X91017824Y-15070717D02*
X91029728Y-15023098D01*
X91029728Y-15023098D02*
X91041633Y-14999289D01*
X91041633Y-14999289D02*
X91065443Y-14975479D01*
X91065443Y-14975479D02*
X91101157Y-14963574D01*
X91101157Y-14963574D02*
X91124966Y-14963574D01*
X91124966Y-14963574D02*
X91160681Y-14975479D01*
X91160681Y-14975479D02*
X91172585Y-14987384D01*
X91410681Y-15213574D02*
X91267824Y-15213574D01*
X91339252Y-15213574D02*
X91339252Y-14963574D01*
X91339252Y-14963574D02*
X91315443Y-14999289D01*
X91315443Y-14999289D02*
X91291633Y-15023098D01*
X91291633Y-15023098D02*
X91267824Y-15035003D01*
X91494014Y-14963574D02*
X91660680Y-14963574D01*
X91660680Y-14963574D02*
X91553538Y-15213574D01*
D11*
X77833333Y-24859580D02*
X77785714Y-24907200D01*
X77785714Y-24907200D02*
X77642857Y-24954819D01*
X77642857Y-24954819D02*
X77547619Y-24954819D01*
X77547619Y-24954819D02*
X77404762Y-24907200D01*
X77404762Y-24907200D02*
X77309524Y-24811961D01*
X77309524Y-24811961D02*
X77261905Y-24716723D01*
X77261905Y-24716723D02*
X77214286Y-24526247D01*
X77214286Y-24526247D02*
X77214286Y-24383390D01*
X77214286Y-24383390D02*
X77261905Y-24192914D01*
X77261905Y-24192914D02*
X77309524Y-24097676D01*
X77309524Y-24097676D02*
X77404762Y-24002438D01*
X77404762Y-24002438D02*
X77547619Y-23954819D01*
X77547619Y-23954819D02*
X77642857Y-23954819D01*
X77642857Y-23954819D02*
X77785714Y-24002438D01*
X77785714Y-24002438D02*
X77833333Y-24050057D01*
X78785714Y-24954819D02*
X78214286Y-24954819D01*
X78500000Y-24954819D02*
X78500000Y-23954819D01*
X78500000Y-23954819D02*
X78404762Y-24097676D01*
X78404762Y-24097676D02*
X78309524Y-24192914D01*
X78309524Y-24192914D02*
X78214286Y-24240533D01*
X100261905Y-47204819D02*
X100833333Y-47204819D01*
X100547619Y-48204819D02*
X100547619Y-47204819D01*
X101119048Y-48157200D02*
X101261905Y-48204819D01*
X101261905Y-48204819D02*
X101500000Y-48204819D01*
X101500000Y-48204819D02*
X101595238Y-48157200D01*
X101595238Y-48157200D02*
X101642857Y-48109580D01*
X101642857Y-48109580D02*
X101690476Y-48014342D01*
X101690476Y-48014342D02*
X101690476Y-47919104D01*
X101690476Y-47919104D02*
X101642857Y-47823866D01*
X101642857Y-47823866D02*
X101595238Y-47776247D01*
X101595238Y-47776247D02*
X101500000Y-47728628D01*
X101500000Y-47728628D02*
X101309524Y-47681009D01*
X101309524Y-47681009D02*
X101214286Y-47633390D01*
X101214286Y-47633390D02*
X101166667Y-47585771D01*
X101166667Y-47585771D02*
X101119048Y-47490533D01*
X101119048Y-47490533D02*
X101119048Y-47395295D01*
X101119048Y-47395295D02*
X101166667Y-47300057D01*
X101166667Y-47300057D02*
X101214286Y-47252438D01*
X101214286Y-47252438D02*
X101309524Y-47204819D01*
X101309524Y-47204819D02*
X101547619Y-47204819D01*
X101547619Y-47204819D02*
X101690476Y-47252438D01*
X102547619Y-47538152D02*
X102547619Y-48204819D01*
X102309524Y-47157200D02*
X102071429Y-47871485D01*
X102071429Y-47871485D02*
X102690476Y-47871485D01*
X99428895Y-11533333D02*
X99428895Y-11914285D01*
X99428895Y-11914285D02*
X98628895Y-11914285D01*
X99428895Y-11266666D02*
X98628895Y-11266666D01*
X98628895Y-11266666D02*
X98628895Y-11076190D01*
X98628895Y-11076190D02*
X98666990Y-10961904D01*
X98666990Y-10961904D02*
X98743180Y-10885714D01*
X98743180Y-10885714D02*
X98819371Y-10847619D01*
X98819371Y-10847619D02*
X98971752Y-10809523D01*
X98971752Y-10809523D02*
X99086038Y-10809523D01*
X99086038Y-10809523D02*
X99238419Y-10847619D01*
X99238419Y-10847619D02*
X99314609Y-10885714D01*
X99314609Y-10885714D02*
X99390800Y-10961904D01*
X99390800Y-10961904D02*
X99428895Y-11076190D01*
X99428895Y-11076190D02*
X99428895Y-11266666D01*
X99428895Y-10428571D02*
X99428895Y-10276190D01*
X99428895Y-10276190D02*
X99390800Y-10200000D01*
X99390800Y-10200000D02*
X99352704Y-10161904D01*
X99352704Y-10161904D02*
X99238419Y-10085714D01*
X99238419Y-10085714D02*
X99086038Y-10047619D01*
X99086038Y-10047619D02*
X98781276Y-10047619D01*
X98781276Y-10047619D02*
X98705085Y-10085714D01*
X98705085Y-10085714D02*
X98666990Y-10123809D01*
X98666990Y-10123809D02*
X98628895Y-10200000D01*
X98628895Y-10200000D02*
X98628895Y-10352381D01*
X98628895Y-10352381D02*
X98666990Y-10428571D01*
X98666990Y-10428571D02*
X98705085Y-10466666D01*
X98705085Y-10466666D02*
X98781276Y-10504762D01*
X98781276Y-10504762D02*
X98971752Y-10504762D01*
X98971752Y-10504762D02*
X99047942Y-10466666D01*
X99047942Y-10466666D02*
X99086038Y-10428571D01*
X99086038Y-10428571D02*
X99124133Y-10352381D01*
X99124133Y-10352381D02*
X99124133Y-10200000D01*
X99124133Y-10200000D02*
X99086038Y-10123809D01*
X99086038Y-10123809D02*
X99047942Y-10085714D01*
X99047942Y-10085714D02*
X98971752Y-10047619D01*
X110562295Y-11914285D02*
X110562295Y-12295237D01*
X110562295Y-12295237D02*
X109762295Y-12295237D01*
X110562295Y-11647618D02*
X109762295Y-11647618D01*
X109762295Y-11647618D02*
X109762295Y-11457142D01*
X109762295Y-11457142D02*
X109800390Y-11342856D01*
X109800390Y-11342856D02*
X109876580Y-11266666D01*
X109876580Y-11266666D02*
X109952771Y-11228571D01*
X109952771Y-11228571D02*
X110105152Y-11190475D01*
X110105152Y-11190475D02*
X110219438Y-11190475D01*
X110219438Y-11190475D02*
X110371819Y-11228571D01*
X110371819Y-11228571D02*
X110448009Y-11266666D01*
X110448009Y-11266666D02*
X110524200Y-11342856D01*
X110524200Y-11342856D02*
X110562295Y-11457142D01*
X110562295Y-11457142D02*
X110562295Y-11647618D01*
X110562295Y-10428571D02*
X110562295Y-10885714D01*
X110562295Y-10657142D02*
X109762295Y-10657142D01*
X109762295Y-10657142D02*
X109876580Y-10733333D01*
X109876580Y-10733333D02*
X109952771Y-10809523D01*
X109952771Y-10809523D02*
X109990866Y-10885714D01*
X109762295Y-9933332D02*
X109762295Y-9857142D01*
X109762295Y-9857142D02*
X109800390Y-9780951D01*
X109800390Y-9780951D02*
X109838485Y-9742856D01*
X109838485Y-9742856D02*
X109914676Y-9704761D01*
X109914676Y-9704761D02*
X110067057Y-9666666D01*
X110067057Y-9666666D02*
X110257533Y-9666666D01*
X110257533Y-9666666D02*
X110409914Y-9704761D01*
X110409914Y-9704761D02*
X110486104Y-9742856D01*
X110486104Y-9742856D02*
X110524200Y-9780951D01*
X110524200Y-9780951D02*
X110562295Y-9857142D01*
X110562295Y-9857142D02*
X110562295Y-9933332D01*
X110562295Y-9933332D02*
X110524200Y-10009523D01*
X110524200Y-10009523D02*
X110486104Y-10047618D01*
X110486104Y-10047618D02*
X110409914Y-10085713D01*
X110409914Y-10085713D02*
X110257533Y-10123809D01*
X110257533Y-10123809D02*
X110067057Y-10123809D01*
X110067057Y-10123809D02*
X109914676Y-10085713D01*
X109914676Y-10085713D02*
X109838485Y-10047618D01*
X109838485Y-10047618D02*
X109800390Y-10009523D01*
X109800390Y-10009523D02*
X109762295Y-9933332D01*
X77162295Y-11533333D02*
X77162295Y-11914285D01*
X77162295Y-11914285D02*
X76362295Y-11914285D01*
X77162295Y-11266666D02*
X76362295Y-11266666D01*
X76362295Y-11266666D02*
X76362295Y-11076190D01*
X76362295Y-11076190D02*
X76400390Y-10961904D01*
X76400390Y-10961904D02*
X76476580Y-10885714D01*
X76476580Y-10885714D02*
X76552771Y-10847619D01*
X76552771Y-10847619D02*
X76705152Y-10809523D01*
X76705152Y-10809523D02*
X76819438Y-10809523D01*
X76819438Y-10809523D02*
X76971819Y-10847619D01*
X76971819Y-10847619D02*
X77048009Y-10885714D01*
X77048009Y-10885714D02*
X77124200Y-10961904D01*
X77124200Y-10961904D02*
X77162295Y-11076190D01*
X77162295Y-11076190D02*
X77162295Y-11266666D01*
X76362295Y-10542857D02*
X76362295Y-10009523D01*
X76362295Y-10009523D02*
X77162295Y-10352381D01*
D13*
X114416666Y-26679530D02*
X114392857Y-26703340D01*
X114392857Y-26703340D02*
X114321428Y-26727149D01*
X114321428Y-26727149D02*
X114273809Y-26727149D01*
X114273809Y-26727149D02*
X114202381Y-26703340D01*
X114202381Y-26703340D02*
X114154762Y-26655720D01*
X114154762Y-26655720D02*
X114130952Y-26608101D01*
X114130952Y-26608101D02*
X114107143Y-26512863D01*
X114107143Y-26512863D02*
X114107143Y-26441435D01*
X114107143Y-26441435D02*
X114130952Y-26346197D01*
X114130952Y-26346197D02*
X114154762Y-26298578D01*
X114154762Y-26298578D02*
X114202381Y-26250959D01*
X114202381Y-26250959D02*
X114273809Y-26227149D01*
X114273809Y-26227149D02*
X114321428Y-26227149D01*
X114321428Y-26227149D02*
X114392857Y-26250959D01*
X114392857Y-26250959D02*
X114416666Y-26274768D01*
X114583333Y-26227149D02*
X114892857Y-26227149D01*
X114892857Y-26227149D02*
X114726190Y-26417625D01*
X114726190Y-26417625D02*
X114797619Y-26417625D01*
X114797619Y-26417625D02*
X114845238Y-26441435D01*
X114845238Y-26441435D02*
X114869047Y-26465244D01*
X114869047Y-26465244D02*
X114892857Y-26512863D01*
X114892857Y-26512863D02*
X114892857Y-26631911D01*
X114892857Y-26631911D02*
X114869047Y-26679530D01*
X114869047Y-26679530D02*
X114845238Y-26703340D01*
X114845238Y-26703340D02*
X114797619Y-26727149D01*
X114797619Y-26727149D02*
X114654762Y-26727149D01*
X114654762Y-26727149D02*
X114607143Y-26703340D01*
X114607143Y-26703340D02*
X114583333Y-26679530D01*
D10*
X86456667Y-37118200D02*
X86370000Y-36994391D01*
X86308095Y-37118200D02*
X86308095Y-36858200D01*
X86308095Y-36858200D02*
X86407143Y-36858200D01*
X86407143Y-36858200D02*
X86431905Y-36870581D01*
X86431905Y-36870581D02*
X86444286Y-36882962D01*
X86444286Y-36882962D02*
X86456667Y-36907724D01*
X86456667Y-36907724D02*
X86456667Y-36944867D01*
X86456667Y-36944867D02*
X86444286Y-36969629D01*
X86444286Y-36969629D02*
X86431905Y-36982010D01*
X86431905Y-36982010D02*
X86407143Y-36994391D01*
X86407143Y-36994391D02*
X86308095Y-36994391D01*
X86555714Y-36882962D02*
X86568095Y-36870581D01*
X86568095Y-36870581D02*
X86592857Y-36858200D01*
X86592857Y-36858200D02*
X86654762Y-36858200D01*
X86654762Y-36858200D02*
X86679524Y-36870581D01*
X86679524Y-36870581D02*
X86691905Y-36882962D01*
X86691905Y-36882962D02*
X86704286Y-36907724D01*
X86704286Y-36907724D02*
X86704286Y-36932486D01*
X86704286Y-36932486D02*
X86691905Y-36969629D01*
X86691905Y-36969629D02*
X86543333Y-37118200D01*
X86543333Y-37118200D02*
X86704286Y-37118200D01*
D12*
X87607365Y-32048571D02*
X88190222Y-32048571D01*
X88190222Y-32048571D02*
X88258794Y-32014285D01*
X88258794Y-32014285D02*
X88293080Y-31980000D01*
X88293080Y-31980000D02*
X88327365Y-31911428D01*
X88327365Y-31911428D02*
X88327365Y-31774285D01*
X88327365Y-31774285D02*
X88293080Y-31705714D01*
X88293080Y-31705714D02*
X88258794Y-31671428D01*
X88258794Y-31671428D02*
X88190222Y-31637142D01*
X88190222Y-31637142D02*
X87607365Y-31637142D01*
X87675937Y-31328571D02*
X87641651Y-31294285D01*
X87641651Y-31294285D02*
X87607365Y-31225714D01*
X87607365Y-31225714D02*
X87607365Y-31054285D01*
X87607365Y-31054285D02*
X87641651Y-30985714D01*
X87641651Y-30985714D02*
X87675937Y-30951428D01*
X87675937Y-30951428D02*
X87744508Y-30917142D01*
X87744508Y-30917142D02*
X87813080Y-30917142D01*
X87813080Y-30917142D02*
X87915937Y-30951428D01*
X87915937Y-30951428D02*
X88327365Y-31362856D01*
X88327365Y-31362856D02*
X88327365Y-30917142D01*
D10*
X98332857Y-26618200D02*
X98246190Y-26494391D01*
X98184285Y-26618200D02*
X98184285Y-26358200D01*
X98184285Y-26358200D02*
X98283333Y-26358200D01*
X98283333Y-26358200D02*
X98308095Y-26370581D01*
X98308095Y-26370581D02*
X98320476Y-26382962D01*
X98320476Y-26382962D02*
X98332857Y-26407724D01*
X98332857Y-26407724D02*
X98332857Y-26444867D01*
X98332857Y-26444867D02*
X98320476Y-26469629D01*
X98320476Y-26469629D02*
X98308095Y-26482010D01*
X98308095Y-26482010D02*
X98283333Y-26494391D01*
X98283333Y-26494391D02*
X98184285Y-26494391D01*
X98580476Y-26618200D02*
X98431904Y-26618200D01*
X98506190Y-26618200D02*
X98506190Y-26358200D01*
X98506190Y-26358200D02*
X98481428Y-26395343D01*
X98481428Y-26395343D02*
X98456666Y-26420105D01*
X98456666Y-26420105D02*
X98431904Y-26432486D01*
X98741428Y-26358200D02*
X98766190Y-26358200D01*
X98766190Y-26358200D02*
X98790952Y-26370581D01*
X98790952Y-26370581D02*
X98803333Y-26382962D01*
X98803333Y-26382962D02*
X98815714Y-26407724D01*
X98815714Y-26407724D02*
X98828095Y-26457248D01*
X98828095Y-26457248D02*
X98828095Y-26519153D01*
X98828095Y-26519153D02*
X98815714Y-26568677D01*
X98815714Y-26568677D02*
X98803333Y-26593439D01*
X98803333Y-26593439D02*
X98790952Y-26605820D01*
X98790952Y-26605820D02*
X98766190Y-26618200D01*
X98766190Y-26618200D02*
X98741428Y-26618200D01*
X98741428Y-26618200D02*
X98716666Y-26605820D01*
X98716666Y-26605820D02*
X98704285Y-26593439D01*
X98704285Y-26593439D02*
X98691904Y-26568677D01*
X98691904Y-26568677D02*
X98679523Y-26519153D01*
X98679523Y-26519153D02*
X98679523Y-26457248D01*
X98679523Y-26457248D02*
X98691904Y-26407724D01*
X98691904Y-26407724D02*
X98704285Y-26382962D01*
X98704285Y-26382962D02*
X98716666Y-26370581D01*
X98716666Y-26370581D02*
X98741428Y-26358200D01*
X102305885Y-15189765D02*
X102293981Y-15201670D01*
X102293981Y-15201670D02*
X102258266Y-15213574D01*
X102258266Y-15213574D02*
X102234457Y-15213574D01*
X102234457Y-15213574D02*
X102198743Y-15201670D01*
X102198743Y-15201670D02*
X102174933Y-15177860D01*
X102174933Y-15177860D02*
X102163028Y-15154050D01*
X102163028Y-15154050D02*
X102151124Y-15106431D01*
X102151124Y-15106431D02*
X102151124Y-15070717D01*
X102151124Y-15070717D02*
X102163028Y-15023098D01*
X102163028Y-15023098D02*
X102174933Y-14999289D01*
X102174933Y-14999289D02*
X102198743Y-14975479D01*
X102198743Y-14975479D02*
X102234457Y-14963574D01*
X102234457Y-14963574D02*
X102258266Y-14963574D01*
X102258266Y-14963574D02*
X102293981Y-14975479D01*
X102293981Y-14975479D02*
X102305885Y-14987384D01*
X102543981Y-15213574D02*
X102401124Y-15213574D01*
X102472552Y-15213574D02*
X102472552Y-14963574D01*
X102472552Y-14963574D02*
X102448743Y-14999289D01*
X102448743Y-14999289D02*
X102424933Y-15023098D01*
X102424933Y-15023098D02*
X102401124Y-15035003D01*
X102686838Y-15070717D02*
X102663028Y-15058812D01*
X102663028Y-15058812D02*
X102651123Y-15046908D01*
X102651123Y-15046908D02*
X102639219Y-15023098D01*
X102639219Y-15023098D02*
X102639219Y-15011193D01*
X102639219Y-15011193D02*
X102651123Y-14987384D01*
X102651123Y-14987384D02*
X102663028Y-14975479D01*
X102663028Y-14975479D02*
X102686838Y-14963574D01*
X102686838Y-14963574D02*
X102734457Y-14963574D01*
X102734457Y-14963574D02*
X102758266Y-14975479D01*
X102758266Y-14975479D02*
X102770171Y-14987384D01*
X102770171Y-14987384D02*
X102782076Y-15011193D01*
X102782076Y-15011193D02*
X102782076Y-15023098D01*
X102782076Y-15023098D02*
X102770171Y-15046908D01*
X102770171Y-15046908D02*
X102758266Y-15058812D01*
X102758266Y-15058812D02*
X102734457Y-15070717D01*
X102734457Y-15070717D02*
X102686838Y-15070717D01*
X102686838Y-15070717D02*
X102663028Y-15082622D01*
X102663028Y-15082622D02*
X102651123Y-15094527D01*
X102651123Y-15094527D02*
X102639219Y-15118336D01*
X102639219Y-15118336D02*
X102639219Y-15165955D01*
X102639219Y-15165955D02*
X102651123Y-15189765D01*
X102651123Y-15189765D02*
X102663028Y-15201670D01*
X102663028Y-15201670D02*
X102686838Y-15213574D01*
X102686838Y-15213574D02*
X102734457Y-15213574D01*
X102734457Y-15213574D02*
X102758266Y-15201670D01*
X102758266Y-15201670D02*
X102770171Y-15189765D01*
X102770171Y-15189765D02*
X102782076Y-15165955D01*
X102782076Y-15165955D02*
X102782076Y-15118336D01*
X102782076Y-15118336D02*
X102770171Y-15094527D01*
X102770171Y-15094527D02*
X102758266Y-15082622D01*
X102758266Y-15082622D02*
X102734457Y-15070717D01*
D13*
X109916666Y-30179530D02*
X109892857Y-30203340D01*
X109892857Y-30203340D02*
X109821428Y-30227149D01*
X109821428Y-30227149D02*
X109773809Y-30227149D01*
X109773809Y-30227149D02*
X109702381Y-30203340D01*
X109702381Y-30203340D02*
X109654762Y-30155720D01*
X109654762Y-30155720D02*
X109630952Y-30108101D01*
X109630952Y-30108101D02*
X109607143Y-30012863D01*
X109607143Y-30012863D02*
X109607143Y-29941435D01*
X109607143Y-29941435D02*
X109630952Y-29846197D01*
X109630952Y-29846197D02*
X109654762Y-29798578D01*
X109654762Y-29798578D02*
X109702381Y-29750959D01*
X109702381Y-29750959D02*
X109773809Y-29727149D01*
X109773809Y-29727149D02*
X109821428Y-29727149D01*
X109821428Y-29727149D02*
X109892857Y-29750959D01*
X109892857Y-29750959D02*
X109916666Y-29774768D01*
X110345238Y-29893816D02*
X110345238Y-30227149D01*
X110226190Y-29703340D02*
X110107143Y-30060482D01*
X110107143Y-30060482D02*
X110416666Y-30060482D01*
D11*
X54895595Y-11533333D02*
X54895595Y-11914285D01*
X54895595Y-11914285D02*
X54095595Y-11914285D01*
X54895595Y-11266666D02*
X54095595Y-11266666D01*
X54095595Y-11266666D02*
X54095595Y-11076190D01*
X54095595Y-11076190D02*
X54133690Y-10961904D01*
X54133690Y-10961904D02*
X54209880Y-10885714D01*
X54209880Y-10885714D02*
X54286071Y-10847619D01*
X54286071Y-10847619D02*
X54438452Y-10809523D01*
X54438452Y-10809523D02*
X54552738Y-10809523D01*
X54552738Y-10809523D02*
X54705119Y-10847619D01*
X54705119Y-10847619D02*
X54781309Y-10885714D01*
X54781309Y-10885714D02*
X54857500Y-10961904D01*
X54857500Y-10961904D02*
X54895595Y-11076190D01*
X54895595Y-11076190D02*
X54895595Y-11266666D01*
X54095595Y-10085714D02*
X54095595Y-10466666D01*
X54095595Y-10466666D02*
X54476547Y-10504762D01*
X54476547Y-10504762D02*
X54438452Y-10466666D01*
X54438452Y-10466666D02*
X54400357Y-10390476D01*
X54400357Y-10390476D02*
X54400357Y-10200000D01*
X54400357Y-10200000D02*
X54438452Y-10123809D01*
X54438452Y-10123809D02*
X54476547Y-10085714D01*
X54476547Y-10085714D02*
X54552738Y-10047619D01*
X54552738Y-10047619D02*
X54743214Y-10047619D01*
X54743214Y-10047619D02*
X54819404Y-10085714D01*
X54819404Y-10085714D02*
X54857500Y-10123809D01*
X54857500Y-10123809D02*
X54895595Y-10200000D01*
X54895595Y-10200000D02*
X54895595Y-10390476D01*
X54895595Y-10390476D02*
X54857500Y-10466666D01*
X54857500Y-10466666D02*
X54819404Y-10504762D01*
X81666666Y-48454819D02*
X81666666Y-49169104D01*
X81666666Y-49169104D02*
X81619047Y-49311961D01*
X81619047Y-49311961D02*
X81523809Y-49407200D01*
X81523809Y-49407200D02*
X81380952Y-49454819D01*
X81380952Y-49454819D02*
X81285714Y-49454819D01*
X82666666Y-49454819D02*
X82095238Y-49454819D01*
X82380952Y-49454819D02*
X82380952Y-48454819D01*
X82380952Y-48454819D02*
X82285714Y-48597676D01*
X82285714Y-48597676D02*
X82190476Y-48692914D01*
X82190476Y-48692914D02*
X82095238Y-48740533D01*
D10*
X84458333Y-31589765D02*
X84446429Y-31601670D01*
X84446429Y-31601670D02*
X84410714Y-31613574D01*
X84410714Y-31613574D02*
X84386905Y-31613574D01*
X84386905Y-31613574D02*
X84351191Y-31601670D01*
X84351191Y-31601670D02*
X84327381Y-31577860D01*
X84327381Y-31577860D02*
X84315476Y-31554050D01*
X84315476Y-31554050D02*
X84303572Y-31506431D01*
X84303572Y-31506431D02*
X84303572Y-31470717D01*
X84303572Y-31470717D02*
X84315476Y-31423098D01*
X84315476Y-31423098D02*
X84327381Y-31399289D01*
X84327381Y-31399289D02*
X84351191Y-31375479D01*
X84351191Y-31375479D02*
X84386905Y-31363574D01*
X84386905Y-31363574D02*
X84410714Y-31363574D01*
X84410714Y-31363574D02*
X84446429Y-31375479D01*
X84446429Y-31375479D02*
X84458333Y-31387384D01*
X84672619Y-31363574D02*
X84625000Y-31363574D01*
X84625000Y-31363574D02*
X84601191Y-31375479D01*
X84601191Y-31375479D02*
X84589286Y-31387384D01*
X84589286Y-31387384D02*
X84565476Y-31423098D01*
X84565476Y-31423098D02*
X84553572Y-31470717D01*
X84553572Y-31470717D02*
X84553572Y-31565955D01*
X84553572Y-31565955D02*
X84565476Y-31589765D01*
X84565476Y-31589765D02*
X84577381Y-31601670D01*
X84577381Y-31601670D02*
X84601191Y-31613574D01*
X84601191Y-31613574D02*
X84648810Y-31613574D01*
X84648810Y-31613574D02*
X84672619Y-31601670D01*
X84672619Y-31601670D02*
X84684524Y-31589765D01*
X84684524Y-31589765D02*
X84696429Y-31565955D01*
X84696429Y-31565955D02*
X84696429Y-31506431D01*
X84696429Y-31506431D02*
X84684524Y-31482622D01*
X84684524Y-31482622D02*
X84672619Y-31470717D01*
X84672619Y-31470717D02*
X84648810Y-31458812D01*
X84648810Y-31458812D02*
X84601191Y-31458812D01*
X84601191Y-31458812D02*
X84577381Y-31470717D01*
X84577381Y-31470717D02*
X84565476Y-31482622D01*
X84565476Y-31482622D02*
X84553572Y-31506431D01*
D11*
X122166666Y-27454819D02*
X122166666Y-28169104D01*
X122166666Y-28169104D02*
X122119047Y-28311961D01*
X122119047Y-28311961D02*
X122023809Y-28407200D01*
X122023809Y-28407200D02*
X121880952Y-28454819D01*
X121880952Y-28454819D02*
X121785714Y-28454819D01*
X122595238Y-27550057D02*
X122642857Y-27502438D01*
X122642857Y-27502438D02*
X122738095Y-27454819D01*
X122738095Y-27454819D02*
X122976190Y-27454819D01*
X122976190Y-27454819D02*
X123071428Y-27502438D01*
X123071428Y-27502438D02*
X123119047Y-27550057D01*
X123119047Y-27550057D02*
X123166666Y-27645295D01*
X123166666Y-27645295D02*
X123166666Y-27740533D01*
X123166666Y-27740533D02*
X123119047Y-27883390D01*
X123119047Y-27883390D02*
X122547619Y-28454819D01*
X122547619Y-28454819D02*
X123166666Y-28454819D01*
D10*
X146839285Y-15189765D02*
X146827381Y-15201670D01*
X146827381Y-15201670D02*
X146791666Y-15213574D01*
X146791666Y-15213574D02*
X146767857Y-15213574D01*
X146767857Y-15213574D02*
X146732143Y-15201670D01*
X146732143Y-15201670D02*
X146708333Y-15177860D01*
X146708333Y-15177860D02*
X146696428Y-15154050D01*
X146696428Y-15154050D02*
X146684524Y-15106431D01*
X146684524Y-15106431D02*
X146684524Y-15070717D01*
X146684524Y-15070717D02*
X146696428Y-15023098D01*
X146696428Y-15023098D02*
X146708333Y-14999289D01*
X146708333Y-14999289D02*
X146732143Y-14975479D01*
X146732143Y-14975479D02*
X146767857Y-14963574D01*
X146767857Y-14963574D02*
X146791666Y-14963574D01*
X146791666Y-14963574D02*
X146827381Y-14975479D01*
X146827381Y-14975479D02*
X146839285Y-14987384D01*
X146934524Y-14987384D02*
X146946428Y-14975479D01*
X146946428Y-14975479D02*
X146970238Y-14963574D01*
X146970238Y-14963574D02*
X147029762Y-14963574D01*
X147029762Y-14963574D02*
X147053571Y-14975479D01*
X147053571Y-14975479D02*
X147065476Y-14987384D01*
X147065476Y-14987384D02*
X147077381Y-15011193D01*
X147077381Y-15011193D02*
X147077381Y-15035003D01*
X147077381Y-15035003D02*
X147065476Y-15070717D01*
X147065476Y-15070717D02*
X146922619Y-15213574D01*
X146922619Y-15213574D02*
X147077381Y-15213574D01*
X147172619Y-14987384D02*
X147184523Y-14975479D01*
X147184523Y-14975479D02*
X147208333Y-14963574D01*
X147208333Y-14963574D02*
X147267857Y-14963574D01*
X147267857Y-14963574D02*
X147291666Y-14975479D01*
X147291666Y-14975479D02*
X147303571Y-14987384D01*
X147303571Y-14987384D02*
X147315476Y-15011193D01*
X147315476Y-15011193D02*
X147315476Y-15035003D01*
X147315476Y-15035003D02*
X147303571Y-15070717D01*
X147303571Y-15070717D02*
X147160714Y-15213574D01*
X147160714Y-15213574D02*
X147315476Y-15213574D01*
D11*
X132828895Y-11914285D02*
X132828895Y-12295237D01*
X132828895Y-12295237D02*
X132028895Y-12295237D01*
X132828895Y-11647618D02*
X132028895Y-11647618D01*
X132028895Y-11647618D02*
X132028895Y-11457142D01*
X132028895Y-11457142D02*
X132066990Y-11342856D01*
X132066990Y-11342856D02*
X132143180Y-11266666D01*
X132143180Y-11266666D02*
X132219371Y-11228571D01*
X132219371Y-11228571D02*
X132371752Y-11190475D01*
X132371752Y-11190475D02*
X132486038Y-11190475D01*
X132486038Y-11190475D02*
X132638419Y-11228571D01*
X132638419Y-11228571D02*
X132714609Y-11266666D01*
X132714609Y-11266666D02*
X132790800Y-11342856D01*
X132790800Y-11342856D02*
X132828895Y-11457142D01*
X132828895Y-11457142D02*
X132828895Y-11647618D01*
X132828895Y-10428571D02*
X132828895Y-10885714D01*
X132828895Y-10657142D02*
X132028895Y-10657142D01*
X132028895Y-10657142D02*
X132143180Y-10733333D01*
X132143180Y-10733333D02*
X132219371Y-10809523D01*
X132219371Y-10809523D02*
X132257466Y-10885714D01*
X132105085Y-10123809D02*
X132066990Y-10085713D01*
X132066990Y-10085713D02*
X132028895Y-10009523D01*
X132028895Y-10009523D02*
X132028895Y-9819047D01*
X132028895Y-9819047D02*
X132066990Y-9742856D01*
X132066990Y-9742856D02*
X132105085Y-9704761D01*
X132105085Y-9704761D02*
X132181276Y-9666666D01*
X132181276Y-9666666D02*
X132257466Y-9666666D01*
X132257466Y-9666666D02*
X132371752Y-9704761D01*
X132371752Y-9704761D02*
X132828895Y-10161904D01*
X132828895Y-10161904D02*
X132828895Y-9666666D01*
X116761905Y-18804819D02*
X117333333Y-18804819D01*
X117047619Y-19804819D02*
X117047619Y-18804819D01*
X117619048Y-19757200D02*
X117761905Y-19804819D01*
X117761905Y-19804819D02*
X118000000Y-19804819D01*
X118000000Y-19804819D02*
X118095238Y-19757200D01*
X118095238Y-19757200D02*
X118142857Y-19709580D01*
X118142857Y-19709580D02*
X118190476Y-19614342D01*
X118190476Y-19614342D02*
X118190476Y-19519104D01*
X118190476Y-19519104D02*
X118142857Y-19423866D01*
X118142857Y-19423866D02*
X118095238Y-19376247D01*
X118095238Y-19376247D02*
X118000000Y-19328628D01*
X118000000Y-19328628D02*
X117809524Y-19281009D01*
X117809524Y-19281009D02*
X117714286Y-19233390D01*
X117714286Y-19233390D02*
X117666667Y-19185771D01*
X117666667Y-19185771D02*
X117619048Y-19090533D01*
X117619048Y-19090533D02*
X117619048Y-18995295D01*
X117619048Y-18995295D02*
X117666667Y-18900057D01*
X117666667Y-18900057D02*
X117714286Y-18852438D01*
X117714286Y-18852438D02*
X117809524Y-18804819D01*
X117809524Y-18804819D02*
X118047619Y-18804819D01*
X118047619Y-18804819D02*
X118190476Y-18852438D01*
X119142857Y-19804819D02*
X118571429Y-19804819D01*
X118857143Y-19804819D02*
X118857143Y-18804819D01*
X118857143Y-18804819D02*
X118761905Y-18947676D01*
X118761905Y-18947676D02*
X118666667Y-19042914D01*
X118666667Y-19042914D02*
X118571429Y-19090533D01*
D10*
X124572585Y-15189765D02*
X124560681Y-15201670D01*
X124560681Y-15201670D02*
X124524966Y-15213574D01*
X124524966Y-15213574D02*
X124501157Y-15213574D01*
X124501157Y-15213574D02*
X124465443Y-15201670D01*
X124465443Y-15201670D02*
X124441633Y-15177860D01*
X124441633Y-15177860D02*
X124429728Y-15154050D01*
X124429728Y-15154050D02*
X124417824Y-15106431D01*
X124417824Y-15106431D02*
X124417824Y-15070717D01*
X124417824Y-15070717D02*
X124429728Y-15023098D01*
X124429728Y-15023098D02*
X124441633Y-14999289D01*
X124441633Y-14999289D02*
X124465443Y-14975479D01*
X124465443Y-14975479D02*
X124501157Y-14963574D01*
X124501157Y-14963574D02*
X124524966Y-14963574D01*
X124524966Y-14963574D02*
X124560681Y-14975479D01*
X124560681Y-14975479D02*
X124572585Y-14987384D01*
X124667824Y-14987384D02*
X124679728Y-14975479D01*
X124679728Y-14975479D02*
X124703538Y-14963574D01*
X124703538Y-14963574D02*
X124763062Y-14963574D01*
X124763062Y-14963574D02*
X124786871Y-14975479D01*
X124786871Y-14975479D02*
X124798776Y-14987384D01*
X124798776Y-14987384D02*
X124810681Y-15011193D01*
X124810681Y-15011193D02*
X124810681Y-15035003D01*
X124810681Y-15035003D02*
X124798776Y-15070717D01*
X124798776Y-15070717D02*
X124655919Y-15213574D01*
X124655919Y-15213574D02*
X124810681Y-15213574D01*
X124965442Y-14963574D02*
X124989252Y-14963574D01*
X124989252Y-14963574D02*
X125013061Y-14975479D01*
X125013061Y-14975479D02*
X125024966Y-14987384D01*
X125024966Y-14987384D02*
X125036871Y-15011193D01*
X125036871Y-15011193D02*
X125048776Y-15058812D01*
X125048776Y-15058812D02*
X125048776Y-15118336D01*
X125048776Y-15118336D02*
X125036871Y-15165955D01*
X125036871Y-15165955D02*
X125024966Y-15189765D01*
X125024966Y-15189765D02*
X125013061Y-15201670D01*
X125013061Y-15201670D02*
X124989252Y-15213574D01*
X124989252Y-15213574D02*
X124965442Y-15213574D01*
X124965442Y-15213574D02*
X124941633Y-15201670D01*
X124941633Y-15201670D02*
X124929728Y-15189765D01*
X124929728Y-15189765D02*
X124917823Y-15165955D01*
X124917823Y-15165955D02*
X124905919Y-15118336D01*
X124905919Y-15118336D02*
X124905919Y-15058812D01*
X124905919Y-15058812D02*
X124917823Y-15011193D01*
X124917823Y-15011193D02*
X124929728Y-14987384D01*
X124929728Y-14987384D02*
X124941633Y-14975479D01*
X124941633Y-14975479D02*
X124965442Y-14963574D01*
D11*
X10362295Y-11533333D02*
X10362295Y-11914285D01*
X10362295Y-11914285D02*
X9562295Y-11914285D01*
X10362295Y-11266666D02*
X9562295Y-11266666D01*
X9562295Y-11266666D02*
X9562295Y-11076190D01*
X9562295Y-11076190D02*
X9600390Y-10961904D01*
X9600390Y-10961904D02*
X9676580Y-10885714D01*
X9676580Y-10885714D02*
X9752771Y-10847619D01*
X9752771Y-10847619D02*
X9905152Y-10809523D01*
X9905152Y-10809523D02*
X10019438Y-10809523D01*
X10019438Y-10809523D02*
X10171819Y-10847619D01*
X10171819Y-10847619D02*
X10248009Y-10885714D01*
X10248009Y-10885714D02*
X10324200Y-10961904D01*
X10324200Y-10961904D02*
X10362295Y-11076190D01*
X10362295Y-11076190D02*
X10362295Y-11266666D01*
X10362295Y-10047619D02*
X10362295Y-10504762D01*
X10362295Y-10276190D02*
X9562295Y-10276190D01*
X9562295Y-10276190D02*
X9676580Y-10352381D01*
X9676580Y-10352381D02*
X9752771Y-10428571D01*
X9752771Y-10428571D02*
X9790866Y-10504762D01*
X86261905Y-18904819D02*
X86833333Y-18904819D01*
X86547619Y-19904819D02*
X86547619Y-18904819D01*
X87166667Y-19904819D02*
X87166667Y-18904819D01*
X87166667Y-18904819D02*
X87547619Y-18904819D01*
X87547619Y-18904819D02*
X87642857Y-18952438D01*
X87642857Y-18952438D02*
X87690476Y-19000057D01*
X87690476Y-19000057D02*
X87738095Y-19095295D01*
X87738095Y-19095295D02*
X87738095Y-19238152D01*
X87738095Y-19238152D02*
X87690476Y-19333390D01*
X87690476Y-19333390D02*
X87642857Y-19381009D01*
X87642857Y-19381009D02*
X87547619Y-19428628D01*
X87547619Y-19428628D02*
X87166667Y-19428628D01*
X88690476Y-19904819D02*
X88119048Y-19904819D01*
X88404762Y-19904819D02*
X88404762Y-18904819D01*
X88404762Y-18904819D02*
X88309524Y-19047676D01*
X88309524Y-19047676D02*
X88214286Y-19142914D01*
X88214286Y-19142914D02*
X88119048Y-19190533D01*
X89642857Y-19904819D02*
X89071429Y-19904819D01*
X89357143Y-19904819D02*
X89357143Y-18904819D01*
X89357143Y-18904819D02*
X89261905Y-19047676D01*
X89261905Y-19047676D02*
X89166667Y-19142914D01*
X89166667Y-19142914D02*
X89071429Y-19190533D01*
D10*
X113439285Y-15189765D02*
X113427381Y-15201670D01*
X113427381Y-15201670D02*
X113391666Y-15213574D01*
X113391666Y-15213574D02*
X113367857Y-15213574D01*
X113367857Y-15213574D02*
X113332143Y-15201670D01*
X113332143Y-15201670D02*
X113308333Y-15177860D01*
X113308333Y-15177860D02*
X113296428Y-15154050D01*
X113296428Y-15154050D02*
X113284524Y-15106431D01*
X113284524Y-15106431D02*
X113284524Y-15070717D01*
X113284524Y-15070717D02*
X113296428Y-15023098D01*
X113296428Y-15023098D02*
X113308333Y-14999289D01*
X113308333Y-14999289D02*
X113332143Y-14975479D01*
X113332143Y-14975479D02*
X113367857Y-14963574D01*
X113367857Y-14963574D02*
X113391666Y-14963574D01*
X113391666Y-14963574D02*
X113427381Y-14975479D01*
X113427381Y-14975479D02*
X113439285Y-14987384D01*
X113677381Y-15213574D02*
X113534524Y-15213574D01*
X113605952Y-15213574D02*
X113605952Y-14963574D01*
X113605952Y-14963574D02*
X113582143Y-14999289D01*
X113582143Y-14999289D02*
X113558333Y-15023098D01*
X113558333Y-15023098D02*
X113534524Y-15035003D01*
X113796428Y-15213574D02*
X113844047Y-15213574D01*
X113844047Y-15213574D02*
X113867857Y-15201670D01*
X113867857Y-15201670D02*
X113879761Y-15189765D01*
X113879761Y-15189765D02*
X113903571Y-15154050D01*
X113903571Y-15154050D02*
X113915476Y-15106431D01*
X113915476Y-15106431D02*
X113915476Y-15011193D01*
X113915476Y-15011193D02*
X113903571Y-14987384D01*
X113903571Y-14987384D02*
X113891666Y-14975479D01*
X113891666Y-14975479D02*
X113867857Y-14963574D01*
X113867857Y-14963574D02*
X113820238Y-14963574D01*
X113820238Y-14963574D02*
X113796428Y-14975479D01*
X113796428Y-14975479D02*
X113784523Y-14987384D01*
X113784523Y-14987384D02*
X113772619Y-15011193D01*
X113772619Y-15011193D02*
X113772619Y-15070717D01*
X113772619Y-15070717D02*
X113784523Y-15094527D01*
X113784523Y-15094527D02*
X113796428Y-15106431D01*
X113796428Y-15106431D02*
X113820238Y-15118336D01*
X113820238Y-15118336D02*
X113867857Y-15118336D01*
X113867857Y-15118336D02*
X113891666Y-15106431D01*
X113891666Y-15106431D02*
X113903571Y-15094527D01*
X113903571Y-15094527D02*
X113915476Y-15070717D01*
D11*
X43762295Y-11533333D02*
X43762295Y-11914285D01*
X43762295Y-11914285D02*
X42962295Y-11914285D01*
X43762295Y-11266666D02*
X42962295Y-11266666D01*
X42962295Y-11266666D02*
X42962295Y-11076190D01*
X42962295Y-11076190D02*
X43000390Y-10961904D01*
X43000390Y-10961904D02*
X43076580Y-10885714D01*
X43076580Y-10885714D02*
X43152771Y-10847619D01*
X43152771Y-10847619D02*
X43305152Y-10809523D01*
X43305152Y-10809523D02*
X43419438Y-10809523D01*
X43419438Y-10809523D02*
X43571819Y-10847619D01*
X43571819Y-10847619D02*
X43648009Y-10885714D01*
X43648009Y-10885714D02*
X43724200Y-10961904D01*
X43724200Y-10961904D02*
X43762295Y-11076190D01*
X43762295Y-11076190D02*
X43762295Y-11266666D01*
X43228961Y-10123809D02*
X43762295Y-10123809D01*
X42924200Y-10314285D02*
X43495628Y-10504762D01*
X43495628Y-10504762D02*
X43495628Y-10009523D01*
D10*
X169105885Y-15189765D02*
X169093981Y-15201670D01*
X169093981Y-15201670D02*
X169058266Y-15213574D01*
X169058266Y-15213574D02*
X169034457Y-15213574D01*
X169034457Y-15213574D02*
X168998743Y-15201670D01*
X168998743Y-15201670D02*
X168974933Y-15177860D01*
X168974933Y-15177860D02*
X168963028Y-15154050D01*
X168963028Y-15154050D02*
X168951124Y-15106431D01*
X168951124Y-15106431D02*
X168951124Y-15070717D01*
X168951124Y-15070717D02*
X168963028Y-15023098D01*
X168963028Y-15023098D02*
X168974933Y-14999289D01*
X168974933Y-14999289D02*
X168998743Y-14975479D01*
X168998743Y-14975479D02*
X169034457Y-14963574D01*
X169034457Y-14963574D02*
X169058266Y-14963574D01*
X169058266Y-14963574D02*
X169093981Y-14975479D01*
X169093981Y-14975479D02*
X169105885Y-14987384D01*
X169201124Y-14987384D02*
X169213028Y-14975479D01*
X169213028Y-14975479D02*
X169236838Y-14963574D01*
X169236838Y-14963574D02*
X169296362Y-14963574D01*
X169296362Y-14963574D02*
X169320171Y-14975479D01*
X169320171Y-14975479D02*
X169332076Y-14987384D01*
X169332076Y-14987384D02*
X169343981Y-15011193D01*
X169343981Y-15011193D02*
X169343981Y-15035003D01*
X169343981Y-15035003D02*
X169332076Y-15070717D01*
X169332076Y-15070717D02*
X169189219Y-15213574D01*
X169189219Y-15213574D02*
X169343981Y-15213574D01*
X169558266Y-15046908D02*
X169558266Y-15213574D01*
X169498742Y-14951670D02*
X169439219Y-15130241D01*
X169439219Y-15130241D02*
X169593980Y-15130241D01*
D11*
X109738095Y-35004819D02*
X110309523Y-35004819D01*
X110023809Y-36004819D02*
X110023809Y-35004819D01*
X110642857Y-36004819D02*
X110642857Y-35004819D01*
X110642857Y-35004819D02*
X111023809Y-35004819D01*
X111023809Y-35004819D02*
X111119047Y-35052438D01*
X111119047Y-35052438D02*
X111166666Y-35100057D01*
X111166666Y-35100057D02*
X111214285Y-35195295D01*
X111214285Y-35195295D02*
X111214285Y-35338152D01*
X111214285Y-35338152D02*
X111166666Y-35433390D01*
X111166666Y-35433390D02*
X111119047Y-35481009D01*
X111119047Y-35481009D02*
X111023809Y-35528628D01*
X111023809Y-35528628D02*
X110642857Y-35528628D01*
X111690476Y-36004819D02*
X111880952Y-36004819D01*
X111880952Y-36004819D02*
X111976190Y-35957200D01*
X111976190Y-35957200D02*
X112023809Y-35909580D01*
X112023809Y-35909580D02*
X112119047Y-35766723D01*
X112119047Y-35766723D02*
X112166666Y-35576247D01*
X112166666Y-35576247D02*
X112166666Y-35195295D01*
X112166666Y-35195295D02*
X112119047Y-35100057D01*
X112119047Y-35100057D02*
X112071428Y-35052438D01*
X112071428Y-35052438D02*
X111976190Y-35004819D01*
X111976190Y-35004819D02*
X111785714Y-35004819D01*
X111785714Y-35004819D02*
X111690476Y-35052438D01*
X111690476Y-35052438D02*
X111642857Y-35100057D01*
X111642857Y-35100057D02*
X111595238Y-35195295D01*
X111595238Y-35195295D02*
X111595238Y-35433390D01*
X111595238Y-35433390D02*
X111642857Y-35528628D01*
X111642857Y-35528628D02*
X111690476Y-35576247D01*
X111690476Y-35576247D02*
X111785714Y-35623866D01*
X111785714Y-35623866D02*
X111976190Y-35623866D01*
X111976190Y-35623866D02*
X112071428Y-35576247D01*
X112071428Y-35576247D02*
X112119047Y-35528628D01*
X112119047Y-35528628D02*
X112166666Y-35433390D01*
D10*
X24372585Y-15189765D02*
X24360681Y-15201670D01*
X24360681Y-15201670D02*
X24324966Y-15213574D01*
X24324966Y-15213574D02*
X24301157Y-15213574D01*
X24301157Y-15213574D02*
X24265443Y-15201670D01*
X24265443Y-15201670D02*
X24241633Y-15177860D01*
X24241633Y-15177860D02*
X24229728Y-15154050D01*
X24229728Y-15154050D02*
X24217824Y-15106431D01*
X24217824Y-15106431D02*
X24217824Y-15070717D01*
X24217824Y-15070717D02*
X24229728Y-15023098D01*
X24229728Y-15023098D02*
X24241633Y-14999289D01*
X24241633Y-14999289D02*
X24265443Y-14975479D01*
X24265443Y-14975479D02*
X24301157Y-14963574D01*
X24301157Y-14963574D02*
X24324966Y-14963574D01*
X24324966Y-14963574D02*
X24360681Y-14975479D01*
X24360681Y-14975479D02*
X24372585Y-14987384D01*
X24610681Y-15213574D02*
X24467824Y-15213574D01*
X24539252Y-15213574D02*
X24539252Y-14963574D01*
X24539252Y-14963574D02*
X24515443Y-14999289D01*
X24515443Y-14999289D02*
X24491633Y-15023098D01*
X24491633Y-15023098D02*
X24467824Y-15035003D01*
X24848776Y-15213574D02*
X24705919Y-15213574D01*
X24777347Y-15213574D02*
X24777347Y-14963574D01*
X24777347Y-14963574D02*
X24753538Y-14999289D01*
X24753538Y-14999289D02*
X24729728Y-15023098D01*
X24729728Y-15023098D02*
X24705919Y-15035003D01*
D12*
X110107365Y-23548571D02*
X110690222Y-23548571D01*
X110690222Y-23548571D02*
X110758794Y-23514285D01*
X110758794Y-23514285D02*
X110793080Y-23480000D01*
X110793080Y-23480000D02*
X110827365Y-23411428D01*
X110827365Y-23411428D02*
X110827365Y-23274285D01*
X110827365Y-23274285D02*
X110793080Y-23205714D01*
X110793080Y-23205714D02*
X110758794Y-23171428D01*
X110758794Y-23171428D02*
X110690222Y-23137142D01*
X110690222Y-23137142D02*
X110107365Y-23137142D01*
X110107365Y-22862856D02*
X110107365Y-22417142D01*
X110107365Y-22417142D02*
X110381651Y-22657142D01*
X110381651Y-22657142D02*
X110381651Y-22554285D01*
X110381651Y-22554285D02*
X110415937Y-22485714D01*
X110415937Y-22485714D02*
X110450222Y-22451428D01*
X110450222Y-22451428D02*
X110518794Y-22417142D01*
X110518794Y-22417142D02*
X110690222Y-22417142D01*
X110690222Y-22417142D02*
X110758794Y-22451428D01*
X110758794Y-22451428D02*
X110793080Y-22485714D01*
X110793080Y-22485714D02*
X110827365Y-22554285D01*
X110827365Y-22554285D02*
X110827365Y-22759999D01*
X110827365Y-22759999D02*
X110793080Y-22828571D01*
X110793080Y-22828571D02*
X110758794Y-22862856D01*
D11*
X110666666Y-45954819D02*
X110666666Y-46669104D01*
X110666666Y-46669104D02*
X110619047Y-46811961D01*
X110619047Y-46811961D02*
X110523809Y-46907200D01*
X110523809Y-46907200D02*
X110380952Y-46954819D01*
X110380952Y-46954819D02*
X110285714Y-46954819D01*
X111571428Y-46288152D02*
X111571428Y-46954819D01*
X111333333Y-45907200D02*
X111095238Y-46621485D01*
X111095238Y-46621485D02*
X111714285Y-46621485D01*
D10*
X110456667Y-33118200D02*
X110370000Y-32994391D01*
X110308095Y-33118200D02*
X110308095Y-32858200D01*
X110308095Y-32858200D02*
X110407143Y-32858200D01*
X110407143Y-32858200D02*
X110431905Y-32870581D01*
X110431905Y-32870581D02*
X110444286Y-32882962D01*
X110444286Y-32882962D02*
X110456667Y-32907724D01*
X110456667Y-32907724D02*
X110456667Y-32944867D01*
X110456667Y-32944867D02*
X110444286Y-32969629D01*
X110444286Y-32969629D02*
X110431905Y-32982010D01*
X110431905Y-32982010D02*
X110407143Y-32994391D01*
X110407143Y-32994391D02*
X110308095Y-32994391D01*
X110691905Y-32858200D02*
X110568095Y-32858200D01*
X110568095Y-32858200D02*
X110555714Y-32982010D01*
X110555714Y-32982010D02*
X110568095Y-32969629D01*
X110568095Y-32969629D02*
X110592857Y-32957248D01*
X110592857Y-32957248D02*
X110654762Y-32957248D01*
X110654762Y-32957248D02*
X110679524Y-32969629D01*
X110679524Y-32969629D02*
X110691905Y-32982010D01*
X110691905Y-32982010D02*
X110704286Y-33006772D01*
X110704286Y-33006772D02*
X110704286Y-33068677D01*
X110704286Y-33068677D02*
X110691905Y-33093439D01*
X110691905Y-33093439D02*
X110679524Y-33105820D01*
X110679524Y-33105820D02*
X110654762Y-33118200D01*
X110654762Y-33118200D02*
X110592857Y-33118200D01*
X110592857Y-33118200D02*
X110568095Y-33105820D01*
X110568095Y-33105820D02*
X110555714Y-33093439D01*
D11*
X98261905Y-16504819D02*
X98833333Y-16504819D01*
X98547619Y-17504819D02*
X98547619Y-16504819D01*
X99166667Y-17504819D02*
X99166667Y-16504819D01*
X99166667Y-16504819D02*
X99547619Y-16504819D01*
X99547619Y-16504819D02*
X99642857Y-16552438D01*
X99642857Y-16552438D02*
X99690476Y-16600057D01*
X99690476Y-16600057D02*
X99738095Y-16695295D01*
X99738095Y-16695295D02*
X99738095Y-16838152D01*
X99738095Y-16838152D02*
X99690476Y-16933390D01*
X99690476Y-16933390D02*
X99642857Y-16981009D01*
X99642857Y-16981009D02*
X99547619Y-17028628D01*
X99547619Y-17028628D02*
X99166667Y-17028628D01*
X100690476Y-17504819D02*
X100119048Y-17504819D01*
X100404762Y-17504819D02*
X100404762Y-16504819D01*
X100404762Y-16504819D02*
X100309524Y-16647676D01*
X100309524Y-16647676D02*
X100214286Y-16742914D01*
X100214286Y-16742914D02*
X100119048Y-16790533D01*
X101309524Y-16504819D02*
X101404762Y-16504819D01*
X101404762Y-16504819D02*
X101500000Y-16552438D01*
X101500000Y-16552438D02*
X101547619Y-16600057D01*
X101547619Y-16600057D02*
X101595238Y-16695295D01*
X101595238Y-16695295D02*
X101642857Y-16885771D01*
X101642857Y-16885771D02*
X101642857Y-17123866D01*
X101642857Y-17123866D02*
X101595238Y-17314342D01*
X101595238Y-17314342D02*
X101547619Y-17409580D01*
X101547619Y-17409580D02*
X101500000Y-17457200D01*
X101500000Y-17457200D02*
X101404762Y-17504819D01*
X101404762Y-17504819D02*
X101309524Y-17504819D01*
X101309524Y-17504819D02*
X101214286Y-17457200D01*
X101214286Y-17457200D02*
X101166667Y-17409580D01*
X101166667Y-17409580D02*
X101119048Y-17314342D01*
X101119048Y-17314342D02*
X101071429Y-17123866D01*
X101071429Y-17123866D02*
X101071429Y-16885771D01*
X101071429Y-16885771D02*
X101119048Y-16695295D01*
X101119048Y-16695295D02*
X101166667Y-16600057D01*
X101166667Y-16600057D02*
X101214286Y-16552438D01*
X101214286Y-16552438D02*
X101309524Y-16504819D01*
X66028995Y-11533333D02*
X66028995Y-11914285D01*
X66028995Y-11914285D02*
X65228995Y-11914285D01*
X66028995Y-11266666D02*
X65228995Y-11266666D01*
X65228995Y-11266666D02*
X65228995Y-11076190D01*
X65228995Y-11076190D02*
X65267090Y-10961904D01*
X65267090Y-10961904D02*
X65343280Y-10885714D01*
X65343280Y-10885714D02*
X65419471Y-10847619D01*
X65419471Y-10847619D02*
X65571852Y-10809523D01*
X65571852Y-10809523D02*
X65686138Y-10809523D01*
X65686138Y-10809523D02*
X65838519Y-10847619D01*
X65838519Y-10847619D02*
X65914709Y-10885714D01*
X65914709Y-10885714D02*
X65990900Y-10961904D01*
X65990900Y-10961904D02*
X66028995Y-11076190D01*
X66028995Y-11076190D02*
X66028995Y-11266666D01*
X65228995Y-10123809D02*
X65228995Y-10276190D01*
X65228995Y-10276190D02*
X65267090Y-10352381D01*
X65267090Y-10352381D02*
X65305185Y-10390476D01*
X65305185Y-10390476D02*
X65419471Y-10466666D01*
X65419471Y-10466666D02*
X65571852Y-10504762D01*
X65571852Y-10504762D02*
X65876614Y-10504762D01*
X65876614Y-10504762D02*
X65952804Y-10466666D01*
X65952804Y-10466666D02*
X65990900Y-10428571D01*
X65990900Y-10428571D02*
X66028995Y-10352381D01*
X66028995Y-10352381D02*
X66028995Y-10200000D01*
X66028995Y-10200000D02*
X65990900Y-10123809D01*
X65990900Y-10123809D02*
X65952804Y-10085714D01*
X65952804Y-10085714D02*
X65876614Y-10047619D01*
X65876614Y-10047619D02*
X65686138Y-10047619D01*
X65686138Y-10047619D02*
X65609947Y-10085714D01*
X65609947Y-10085714D02*
X65571852Y-10123809D01*
X65571852Y-10123809D02*
X65533757Y-10200000D01*
X65533757Y-10200000D02*
X65533757Y-10352381D01*
X65533757Y-10352381D02*
X65571852Y-10428571D01*
X65571852Y-10428571D02*
X65609947Y-10466666D01*
X65609947Y-10466666D02*
X65686138Y-10504762D01*
X121695595Y-11914285D02*
X121695595Y-12295237D01*
X121695595Y-12295237D02*
X120895595Y-12295237D01*
X121695595Y-11647618D02*
X120895595Y-11647618D01*
X120895595Y-11647618D02*
X120895595Y-11457142D01*
X120895595Y-11457142D02*
X120933690Y-11342856D01*
X120933690Y-11342856D02*
X121009880Y-11266666D01*
X121009880Y-11266666D02*
X121086071Y-11228571D01*
X121086071Y-11228571D02*
X121238452Y-11190475D01*
X121238452Y-11190475D02*
X121352738Y-11190475D01*
X121352738Y-11190475D02*
X121505119Y-11228571D01*
X121505119Y-11228571D02*
X121581309Y-11266666D01*
X121581309Y-11266666D02*
X121657500Y-11342856D01*
X121657500Y-11342856D02*
X121695595Y-11457142D01*
X121695595Y-11457142D02*
X121695595Y-11647618D01*
X121695595Y-10428571D02*
X121695595Y-10885714D01*
X121695595Y-10657142D02*
X120895595Y-10657142D01*
X120895595Y-10657142D02*
X121009880Y-10733333D01*
X121009880Y-10733333D02*
X121086071Y-10809523D01*
X121086071Y-10809523D02*
X121124166Y-10885714D01*
X121695595Y-9666666D02*
X121695595Y-10123809D01*
X121695595Y-9895237D02*
X120895595Y-9895237D01*
X120895595Y-9895237D02*
X121009880Y-9971428D01*
X121009880Y-9971428D02*
X121086071Y-10047618D01*
X121086071Y-10047618D02*
X121124166Y-10123809D01*
D13*
X83416666Y-34679530D02*
X83392857Y-34703340D01*
X83392857Y-34703340D02*
X83321428Y-34727149D01*
X83321428Y-34727149D02*
X83273809Y-34727149D01*
X83273809Y-34727149D02*
X83202381Y-34703340D01*
X83202381Y-34703340D02*
X83154762Y-34655720D01*
X83154762Y-34655720D02*
X83130952Y-34608101D01*
X83130952Y-34608101D02*
X83107143Y-34512863D01*
X83107143Y-34512863D02*
X83107143Y-34441435D01*
X83107143Y-34441435D02*
X83130952Y-34346197D01*
X83130952Y-34346197D02*
X83154762Y-34298578D01*
X83154762Y-34298578D02*
X83202381Y-34250959D01*
X83202381Y-34250959D02*
X83273809Y-34227149D01*
X83273809Y-34227149D02*
X83321428Y-34227149D01*
X83321428Y-34227149D02*
X83392857Y-34250959D01*
X83392857Y-34250959D02*
X83416666Y-34274768D01*
X83869047Y-34227149D02*
X83630952Y-34227149D01*
X83630952Y-34227149D02*
X83607143Y-34465244D01*
X83607143Y-34465244D02*
X83630952Y-34441435D01*
X83630952Y-34441435D02*
X83678571Y-34417625D01*
X83678571Y-34417625D02*
X83797619Y-34417625D01*
X83797619Y-34417625D02*
X83845238Y-34441435D01*
X83845238Y-34441435D02*
X83869047Y-34465244D01*
X83869047Y-34465244D02*
X83892857Y-34512863D01*
X83892857Y-34512863D02*
X83892857Y-34631911D01*
X83892857Y-34631911D02*
X83869047Y-34679530D01*
X83869047Y-34679530D02*
X83845238Y-34703340D01*
X83845238Y-34703340D02*
X83797619Y-34727149D01*
X83797619Y-34727149D02*
X83678571Y-34727149D01*
X83678571Y-34727149D02*
X83630952Y-34703340D01*
X83630952Y-34703340D02*
X83607143Y-34679530D01*
D11*
X166228895Y-11914285D02*
X166228895Y-12295237D01*
X166228895Y-12295237D02*
X165428895Y-12295237D01*
X166228895Y-11647618D02*
X165428895Y-11647618D01*
X165428895Y-11647618D02*
X165428895Y-11457142D01*
X165428895Y-11457142D02*
X165466990Y-11342856D01*
X165466990Y-11342856D02*
X165543180Y-11266666D01*
X165543180Y-11266666D02*
X165619371Y-11228571D01*
X165619371Y-11228571D02*
X165771752Y-11190475D01*
X165771752Y-11190475D02*
X165886038Y-11190475D01*
X165886038Y-11190475D02*
X166038419Y-11228571D01*
X166038419Y-11228571D02*
X166114609Y-11266666D01*
X166114609Y-11266666D02*
X166190800Y-11342856D01*
X166190800Y-11342856D02*
X166228895Y-11457142D01*
X166228895Y-11457142D02*
X166228895Y-11647618D01*
X166228895Y-10428571D02*
X166228895Y-10885714D01*
X166228895Y-10657142D02*
X165428895Y-10657142D01*
X165428895Y-10657142D02*
X165543180Y-10733333D01*
X165543180Y-10733333D02*
X165619371Y-10809523D01*
X165619371Y-10809523D02*
X165657466Y-10885714D01*
X165428895Y-9704761D02*
X165428895Y-10085713D01*
X165428895Y-10085713D02*
X165809847Y-10123809D01*
X165809847Y-10123809D02*
X165771752Y-10085713D01*
X165771752Y-10085713D02*
X165733657Y-10009523D01*
X165733657Y-10009523D02*
X165733657Y-9819047D01*
X165733657Y-9819047D02*
X165771752Y-9742856D01*
X165771752Y-9742856D02*
X165809847Y-9704761D01*
X165809847Y-9704761D02*
X165886038Y-9666666D01*
X165886038Y-9666666D02*
X166076514Y-9666666D01*
X166076514Y-9666666D02*
X166152704Y-9704761D01*
X166152704Y-9704761D02*
X166190800Y-9742856D01*
X166190800Y-9742856D02*
X166228895Y-9819047D01*
X166228895Y-9819047D02*
X166228895Y-10009523D01*
X166228895Y-10009523D02*
X166190800Y-10085713D01*
X166190800Y-10085713D02*
X166152704Y-10123809D01*
D10*
X80039285Y-15189765D02*
X80027381Y-15201670D01*
X80027381Y-15201670D02*
X79991666Y-15213574D01*
X79991666Y-15213574D02*
X79967857Y-15213574D01*
X79967857Y-15213574D02*
X79932143Y-15201670D01*
X79932143Y-15201670D02*
X79908333Y-15177860D01*
X79908333Y-15177860D02*
X79896428Y-15154050D01*
X79896428Y-15154050D02*
X79884524Y-15106431D01*
X79884524Y-15106431D02*
X79884524Y-15070717D01*
X79884524Y-15070717D02*
X79896428Y-15023098D01*
X79896428Y-15023098D02*
X79908333Y-14999289D01*
X79908333Y-14999289D02*
X79932143Y-14975479D01*
X79932143Y-14975479D02*
X79967857Y-14963574D01*
X79967857Y-14963574D02*
X79991666Y-14963574D01*
X79991666Y-14963574D02*
X80027381Y-14975479D01*
X80027381Y-14975479D02*
X80039285Y-14987384D01*
X80277381Y-15213574D02*
X80134524Y-15213574D01*
X80205952Y-15213574D02*
X80205952Y-14963574D01*
X80205952Y-14963574D02*
X80182143Y-14999289D01*
X80182143Y-14999289D02*
X80158333Y-15023098D01*
X80158333Y-15023098D02*
X80134524Y-15035003D01*
X80491666Y-14963574D02*
X80444047Y-14963574D01*
X80444047Y-14963574D02*
X80420238Y-14975479D01*
X80420238Y-14975479D02*
X80408333Y-14987384D01*
X80408333Y-14987384D02*
X80384523Y-15023098D01*
X80384523Y-15023098D02*
X80372619Y-15070717D01*
X80372619Y-15070717D02*
X80372619Y-15165955D01*
X80372619Y-15165955D02*
X80384523Y-15189765D01*
X80384523Y-15189765D02*
X80396428Y-15201670D01*
X80396428Y-15201670D02*
X80420238Y-15213574D01*
X80420238Y-15213574D02*
X80467857Y-15213574D01*
X80467857Y-15213574D02*
X80491666Y-15201670D01*
X80491666Y-15201670D02*
X80503571Y-15189765D01*
X80503571Y-15189765D02*
X80515476Y-15165955D01*
X80515476Y-15165955D02*
X80515476Y-15106431D01*
X80515476Y-15106431D02*
X80503571Y-15082622D01*
X80503571Y-15082622D02*
X80491666Y-15070717D01*
X80491666Y-15070717D02*
X80467857Y-15058812D01*
X80467857Y-15058812D02*
X80420238Y-15058812D01*
X80420238Y-15058812D02*
X80396428Y-15070717D01*
X80396428Y-15070717D02*
X80384523Y-15082622D01*
X80384523Y-15082622D02*
X80372619Y-15106431D01*
X68905985Y-15189765D02*
X68894081Y-15201670D01*
X68894081Y-15201670D02*
X68858366Y-15213574D01*
X68858366Y-15213574D02*
X68834557Y-15213574D01*
X68834557Y-15213574D02*
X68798843Y-15201670D01*
X68798843Y-15201670D02*
X68775033Y-15177860D01*
X68775033Y-15177860D02*
X68763128Y-15154050D01*
X68763128Y-15154050D02*
X68751224Y-15106431D01*
X68751224Y-15106431D02*
X68751224Y-15070717D01*
X68751224Y-15070717D02*
X68763128Y-15023098D01*
X68763128Y-15023098D02*
X68775033Y-14999289D01*
X68775033Y-14999289D02*
X68798843Y-14975479D01*
X68798843Y-14975479D02*
X68834557Y-14963574D01*
X68834557Y-14963574D02*
X68858366Y-14963574D01*
X68858366Y-14963574D02*
X68894081Y-14975479D01*
X68894081Y-14975479D02*
X68905985Y-14987384D01*
X69144081Y-15213574D02*
X69001224Y-15213574D01*
X69072652Y-15213574D02*
X69072652Y-14963574D01*
X69072652Y-14963574D02*
X69048843Y-14999289D01*
X69048843Y-14999289D02*
X69025033Y-15023098D01*
X69025033Y-15023098D02*
X69001224Y-15035003D01*
X69370271Y-14963574D02*
X69251223Y-14963574D01*
X69251223Y-14963574D02*
X69239319Y-15082622D01*
X69239319Y-15082622D02*
X69251223Y-15070717D01*
X69251223Y-15070717D02*
X69275033Y-15058812D01*
X69275033Y-15058812D02*
X69334557Y-15058812D01*
X69334557Y-15058812D02*
X69358366Y-15070717D01*
X69358366Y-15070717D02*
X69370271Y-15082622D01*
X69370271Y-15082622D02*
X69382176Y-15106431D01*
X69382176Y-15106431D02*
X69382176Y-15165955D01*
X69382176Y-15165955D02*
X69370271Y-15189765D01*
X69370271Y-15189765D02*
X69358366Y-15201670D01*
X69358366Y-15201670D02*
X69334557Y-15213574D01*
X69334557Y-15213574D02*
X69275033Y-15213574D01*
X69275033Y-15213574D02*
X69251223Y-15201670D01*
X69251223Y-15201670D02*
X69239319Y-15189765D01*
%TO.C,R3*%
D14*
X87475000Y-34230000D02*
X88525000Y-34230000D01*
X88525000Y-34770000D01*
X87475000Y-34770000D01*
X87475000Y-34230000D01*
%TO.C,R11*%
X87975000Y-27730000D02*
X89025000Y-27730000D01*
X89025000Y-28270000D01*
X87975000Y-28270000D01*
X87975000Y-27730000D01*
%TO.C,C23*%
X157633300Y-14850000D02*
X158633300Y-14850000D01*
X158633300Y-15350000D01*
X157633300Y-15350000D01*
X157633300Y-14850000D01*
%TO.C,U1*%
X91400000Y-29700000D02*
X91400000Y-46300000D01*
X91400000Y-40900000D02*
X104600000Y-40900000D01*
X91400000Y-46300000D02*
X104600000Y-46300000D01*
X103800000Y-40900000D02*
X104600000Y-40100000D01*
X104600000Y-29700000D02*
X91400000Y-29700000D01*
X104600000Y-29700000D02*
X104600000Y-46300000D01*
%TO.C,F1*%
X90750000Y-21400000D02*
X95250000Y-21400000D01*
X95250000Y-24600000D01*
X90750000Y-24600000D01*
X90750000Y-21400000D01*
%TO.C,C14*%
X57433300Y-14850000D02*
X58433300Y-14850000D01*
X58433300Y-15350000D01*
X57433300Y-15350000D01*
X57433300Y-14850000D01*
%TO.C,R1*%
X83475000Y-36730000D02*
X84525000Y-36730000D01*
X84525000Y-37270000D01*
X83475000Y-37270000D01*
X83475000Y-36730000D01*
%TO.C,C9*%
X113000000Y-29750000D02*
X114000000Y-29750000D01*
X114000000Y-30250000D01*
X113000000Y-30250000D01*
X113000000Y-29750000D01*
%TO.C,R9*%
X92475000Y-26230000D02*
X93525000Y-26230000D01*
X93525000Y-26770000D01*
X92475000Y-26770000D01*
X92475000Y-26230000D01*
%TO.C,R8*%
X103475000Y-22130000D02*
X104525000Y-22130000D01*
X104525000Y-22670000D01*
X103475000Y-22670000D01*
X103475000Y-22130000D01*
%TO.C,Q1*%
X99675000Y-21550000D02*
X100650000Y-21550000D01*
X100650000Y-24450000D01*
X99350000Y-24450000D01*
X99350000Y-21875000D01*
X99675000Y-21550000D01*
%TO.C,LD14*%
X152233300Y-8500000D02*
X152233300Y-13500000D01*
X152233300Y-13500000D02*
X157233300Y-13500000D01*
X156233300Y-8500000D02*
X157233300Y-9500000D01*
X157233300Y-8500000D02*
X152233300Y-8500000D01*
X157233300Y-13500000D02*
X157233300Y-8500000D01*
X156733300Y-11000000D02*
G75*
G02*
X152733300Y-11000000I-2000000J0D01*
G01*
X152733300Y-11000000D02*
G75*
G02*
X156733300Y-11000000I2000000J0D01*
G01*
%TO.C,U4*%
X86100000Y-39550000D02*
X87300000Y-39550000D01*
X87300000Y-42450000D01*
X85700000Y-42450000D01*
X85700000Y-39950000D01*
X86100000Y-39550000D01*
%TO.C,SW1*%
X70250000Y-38550000D02*
X73750000Y-38550000D01*
X70250000Y-41450000D02*
X70250000Y-38550000D01*
X71150000Y-42100000D02*
X71150000Y-41450000D01*
X71150000Y-42100000D02*
X72850000Y-42100000D01*
X72850000Y-42100000D02*
X72850000Y-41450000D01*
X73750000Y-38550000D02*
X73750000Y-41450000D01*
X73750000Y-41450000D02*
X70250000Y-41450000D01*
%TO.C,C2*%
X113500000Y-22375000D02*
X115500000Y-22375000D01*
X115500000Y-23625000D01*
X113500000Y-23625000D01*
X113500000Y-22375000D01*
%TO.C,C8*%
X95000000Y-26250000D02*
X96000000Y-26250000D01*
X96000000Y-26750000D01*
X95000000Y-26750000D01*
X95000000Y-26250000D01*
%TO.C,C10*%
X12900000Y-14850000D02*
X13900000Y-14850000D01*
X13900000Y-15350000D01*
X12900000Y-15350000D01*
X12900000Y-14850000D01*
%TO.C,R7*%
X100475000Y-26230000D02*
X101525000Y-26230000D01*
X101525000Y-26770000D01*
X100475000Y-26770000D01*
X100475000Y-26230000D01*
%TO.C,C13*%
X46300000Y-14850000D02*
X47300000Y-14850000D01*
X47300000Y-15350000D01*
X46300000Y-15350000D01*
X46300000Y-14850000D01*
%TO.C,R6*%
X112475000Y-32730000D02*
X113525000Y-32730000D01*
X113525000Y-33270000D01*
X112475000Y-33270000D01*
X112475000Y-32730000D01*
%TO.C,C7*%
X106000000Y-22150000D02*
X107000000Y-22150000D01*
X107000000Y-22650000D01*
X106000000Y-22650000D01*
X106000000Y-22150000D01*
%TO.C,LD2*%
X18633300Y-8500000D02*
X18633300Y-13500000D01*
X18633300Y-13500000D02*
X23633300Y-13500000D01*
X22633300Y-8500000D02*
X23633300Y-9500000D01*
X23633300Y-8500000D02*
X18633300Y-8500000D01*
X23633300Y-13500000D02*
X23633300Y-8500000D01*
X23133300Y-11000000D02*
G75*
G02*
X19133300Y-11000000I-2000000J0D01*
G01*
X19133300Y-11000000D02*
G75*
G02*
X23133300Y-11000000I2000000J0D01*
G01*
%TO.C,LD3*%
X29766700Y-8500000D02*
X29766700Y-13500000D01*
X29766700Y-13500000D02*
X34766700Y-13500000D01*
X33766700Y-8500000D02*
X34766700Y-9500000D01*
X34766700Y-8500000D02*
X29766700Y-8500000D01*
X34766700Y-13500000D02*
X34766700Y-8500000D01*
X34266700Y-11000000D02*
G75*
G02*
X30266700Y-11000000I-2000000J0D01*
G01*
X30266700Y-11000000D02*
G75*
G02*
X34266700Y-11000000I2000000J0D01*
G01*
%TO.C,C21*%
X135366600Y-14850000D02*
X136366600Y-14850000D01*
X136366600Y-15350000D01*
X135366600Y-15350000D01*
X135366600Y-14850000D01*
%TO.C,LD8*%
X85433300Y-8500000D02*
X85433300Y-13500000D01*
X85433300Y-13500000D02*
X90433300Y-13500000D01*
X89433300Y-8500000D02*
X90433300Y-9500000D01*
X90433300Y-8500000D02*
X85433300Y-8500000D01*
X90433300Y-13500000D02*
X90433300Y-8500000D01*
X89933300Y-11000000D02*
G75*
G02*
X85933300Y-11000000I-2000000J0D01*
G01*
X85933300Y-11000000D02*
G75*
G02*
X89933300Y-11000000I2000000J0D01*
G01*
%TO.C,C12*%
X35166700Y-14850000D02*
X36166700Y-14850000D01*
X36166700Y-15350000D01*
X35166700Y-15350000D01*
X35166700Y-14850000D01*
%TO.C,LD13*%
X141100000Y-8500000D02*
X141100000Y-13500000D01*
X141100000Y-13500000D02*
X146100000Y-13500000D01*
X145100000Y-8500000D02*
X146100000Y-9500000D01*
X146100000Y-8500000D02*
X141100000Y-8500000D01*
X146100000Y-13500000D02*
X146100000Y-8500000D01*
X145600000Y-11000000D02*
G75*
G02*
X141600000Y-11000000I-2000000J0D01*
G01*
X141600000Y-11000000D02*
G75*
G02*
X145600000Y-11000000I2000000J0D01*
G01*
%TO.C,R4*%
X107475000Y-32730000D02*
X108525000Y-32730000D01*
X108525000Y-33270000D01*
X107475000Y-33270000D01*
X107475000Y-32730000D01*
%TO.C,C17*%
X90833300Y-14850000D02*
X91833300Y-14850000D01*
X91833300Y-15350000D01*
X90833300Y-15350000D01*
X90833300Y-14850000D01*
%TO.C,C1*%
X73850000Y-21350000D02*
X73850000Y-27650000D01*
X73850000Y-21350000D02*
X74850000Y-20350000D01*
X73850000Y-27650000D02*
X74850000Y-28650000D01*
X74437722Y-23000000D02*
X75237722Y-23000000D01*
X74837722Y-22600000D02*
X74837722Y-23400000D01*
X74850000Y-20350000D02*
X82150000Y-20350000D01*
X74850000Y-28650000D02*
X82150000Y-28650000D01*
X82150000Y-20350000D02*
X82150000Y-28650000D01*
X82000000Y-24500000D02*
G75*
G02*
X74000000Y-24500000I-4000000J0D01*
G01*
X74000000Y-24500000D02*
G75*
G02*
X82000000Y-24500000I4000000J0D01*
G01*
%TO.C,LD9*%
X96566600Y-8500000D02*
X96566600Y-13500000D01*
X96566600Y-13500000D02*
X101566600Y-13500000D01*
X100566600Y-8500000D02*
X101566600Y-9500000D01*
X101566600Y-8500000D02*
X96566600Y-8500000D01*
X101566600Y-13500000D02*
X101566600Y-8500000D01*
X101066600Y-11000000D02*
G75*
G02*
X97066600Y-11000000I-2000000J0D01*
G01*
X97066600Y-11000000D02*
G75*
G02*
X101066600Y-11000000I2000000J0D01*
G01*
%TO.C,LD10*%
X107700000Y-8500000D02*
X107700000Y-13500000D01*
X107700000Y-13500000D02*
X112700000Y-13500000D01*
X111700000Y-8500000D02*
X112700000Y-9500000D01*
X112700000Y-8500000D02*
X107700000Y-8500000D01*
X112700000Y-13500000D02*
X112700000Y-8500000D01*
X112200000Y-11000000D02*
G75*
G02*
X108200000Y-11000000I-2000000J0D01*
G01*
X108200000Y-11000000D02*
G75*
G02*
X112200000Y-11000000I2000000J0D01*
G01*
%TO.C,LD7*%
X74300000Y-8500000D02*
X74300000Y-13500000D01*
X74300000Y-13500000D02*
X79300000Y-13500000D01*
X78300000Y-8500000D02*
X79300000Y-9500000D01*
X79300000Y-8500000D02*
X74300000Y-8500000D01*
X79300000Y-13500000D02*
X79300000Y-8500000D01*
X78800000Y-11000000D02*
G75*
G02*
X74800000Y-11000000I-2000000J0D01*
G01*
X74800000Y-11000000D02*
G75*
G02*
X78800000Y-11000000I2000000J0D01*
G01*
%TO.C,C3*%
X113500000Y-25875000D02*
X115500000Y-25875000D01*
X115500000Y-27125000D01*
X113500000Y-27125000D01*
X113500000Y-25875000D01*
%TO.C,R2*%
X85975000Y-36730000D02*
X87025000Y-36730000D01*
X87025000Y-37270000D01*
X85975000Y-37270000D01*
X85975000Y-36730000D01*
%TO.C,U2*%
X87600000Y-30050000D02*
X88800000Y-30050000D01*
X88800000Y-32950000D01*
X87200000Y-32950000D01*
X87200000Y-30450000D01*
X87600000Y-30050000D01*
%TO.C,R10*%
X97975000Y-26230000D02*
X99025000Y-26230000D01*
X99025000Y-26770000D01*
X97975000Y-26770000D01*
X97975000Y-26230000D01*
%TO.C,C18*%
X101966600Y-14850000D02*
X102966600Y-14850000D01*
X102966600Y-15350000D01*
X101966600Y-15350000D01*
X101966600Y-14850000D01*
%TO.C,C4*%
X109000000Y-29375000D02*
X111000000Y-29375000D01*
X111000000Y-30625000D01*
X109000000Y-30625000D01*
X109000000Y-29375000D01*
%TO.C,LD5*%
X52033300Y-8500000D02*
X52033300Y-13500000D01*
X52033300Y-13500000D02*
X57033300Y-13500000D01*
X56033300Y-8500000D02*
X57033300Y-9500000D01*
X57033300Y-8500000D02*
X52033300Y-8500000D01*
X57033300Y-13500000D02*
X57033300Y-8500000D01*
X56533300Y-11000000D02*
G75*
G02*
X52533300Y-11000000I-2000000J0D01*
G01*
X52533300Y-11000000D02*
G75*
G02*
X56533300Y-11000000I2000000J0D01*
G01*
%TO.C,J1*%
X77530000Y-45350000D02*
X77530000Y-52650000D01*
X77530000Y-45350000D02*
X86470000Y-45350000D01*
X77530000Y-52650000D02*
X86470000Y-52650000D01*
X86470000Y-45350000D02*
X86470000Y-52650000D01*
%TO.C,C6*%
X84000000Y-31250000D02*
X85000000Y-31250000D01*
X85000000Y-31750000D01*
X84000000Y-31750000D01*
X84000000Y-31250000D01*
%TO.C,J2*%
X118550000Y-23300000D02*
X118550000Y-30900000D01*
X118550000Y-23300000D02*
X119350000Y-23300000D01*
X118550000Y-30900000D02*
X126450000Y-30900000D01*
X119350000Y-23300000D02*
X119350000Y-24900000D01*
X119350000Y-24900000D02*
X125650000Y-24900000D01*
X121000000Y-24900000D02*
X121500000Y-25607107D01*
X121500000Y-25607107D02*
X122000000Y-24900000D01*
X125650000Y-23300000D02*
X126450000Y-23300000D01*
X125650000Y-24900000D02*
X125650000Y-23300000D01*
X126450000Y-23300000D02*
X126450000Y-30900000D01*
%TO.C,C22*%
X146500000Y-14850000D02*
X147500000Y-14850000D01*
X147500000Y-15350000D01*
X146500000Y-15350000D01*
X146500000Y-14850000D01*
%TO.C,LD12*%
X129966600Y-8500000D02*
X129966600Y-13500000D01*
X129966600Y-13500000D02*
X134966600Y-13500000D01*
X133966600Y-8500000D02*
X134966600Y-9500000D01*
X134966600Y-8500000D02*
X129966600Y-8500000D01*
X134966600Y-13500000D02*
X134966600Y-8500000D01*
X134466600Y-11000000D02*
G75*
G02*
X130466600Y-11000000I-2000000J0D01*
G01*
X130466600Y-11000000D02*
G75*
G02*
X134466600Y-11000000I2000000J0D01*
G01*
%TO.C,C20*%
X124233300Y-14850000D02*
X125233300Y-14850000D01*
X125233300Y-15350000D01*
X124233300Y-15350000D01*
X124233300Y-14850000D01*
%TO.C,LD1*%
X7500000Y-8500000D02*
X7500000Y-13500000D01*
X7500000Y-13500000D02*
X12500000Y-13500000D01*
X11500000Y-8500000D02*
X12500000Y-9500000D01*
X12500000Y-8500000D02*
X7500000Y-8500000D01*
X12500000Y-13500000D02*
X12500000Y-8500000D01*
X12000000Y-11000000D02*
G75*
G02*
X8000000Y-11000000I-2000000J0D01*
G01*
X8000000Y-11000000D02*
G75*
G02*
X12000000Y-11000000I2000000J0D01*
G01*
%TO.C,C19*%
X113100000Y-14850000D02*
X114100000Y-14850000D01*
X114100000Y-15350000D01*
X113100000Y-15350000D01*
X113100000Y-14850000D01*
%TO.C,LD4*%
X40900000Y-8500000D02*
X40900000Y-13500000D01*
X40900000Y-13500000D02*
X45900000Y-13500000D01*
X44900000Y-8500000D02*
X45900000Y-9500000D01*
X45900000Y-8500000D02*
X40900000Y-8500000D01*
X45900000Y-13500000D02*
X45900000Y-8500000D01*
X45400000Y-11000000D02*
G75*
G02*
X41400000Y-11000000I-2000000J0D01*
G01*
X41400000Y-11000000D02*
G75*
G02*
X45400000Y-11000000I2000000J0D01*
G01*
%TO.C,C24*%
X168766600Y-14850000D02*
X169766600Y-14850000D01*
X169766600Y-15350000D01*
X168766600Y-15350000D01*
X168766600Y-14850000D01*
%TO.C,C11*%
X24033300Y-14850000D02*
X25033300Y-14850000D01*
X25033300Y-15350000D01*
X24033300Y-15350000D01*
X24033300Y-14850000D01*
%TO.C,U3*%
X110100000Y-21550000D02*
X111300000Y-21550000D01*
X111300000Y-24450000D01*
X109700000Y-24450000D01*
X109700000Y-21950000D01*
X110100000Y-21550000D01*
%TO.C,J4*%
X106050000Y-41800000D02*
X106050000Y-49400000D01*
X106050000Y-41800000D02*
X106850000Y-41800000D01*
X106050000Y-49400000D02*
X115950000Y-49400000D01*
X106850000Y-41800000D02*
X106850000Y-43400000D01*
X106850000Y-43400000D02*
X115150000Y-43400000D01*
X108500000Y-43400000D02*
X109000000Y-44107107D01*
X109000000Y-44107107D02*
X109500000Y-43400000D01*
X115150000Y-41800000D02*
X115950000Y-41800000D01*
X115150000Y-43400000D02*
X115150000Y-41800000D01*
X115950000Y-41800000D02*
X115950000Y-49400000D01*
%TO.C,R5*%
X109975000Y-32730000D02*
X111025000Y-32730000D01*
X111025000Y-33270000D01*
X109975000Y-33270000D01*
X109975000Y-32730000D01*
%TO.C,LD6*%
X63166700Y-8500000D02*
X63166700Y-13500000D01*
X63166700Y-13500000D02*
X68166700Y-13500000D01*
X67166700Y-8500000D02*
X68166700Y-9500000D01*
X68166700Y-8500000D02*
X63166700Y-8500000D01*
X68166700Y-13500000D02*
X68166700Y-8500000D01*
X67666700Y-11000000D02*
G75*
G02*
X63666700Y-11000000I-2000000J0D01*
G01*
X63666700Y-11000000D02*
G75*
G02*
X67666700Y-11000000I2000000J0D01*
G01*
%TO.C,LD11*%
X118833300Y-8500000D02*
X118833300Y-13500000D01*
X118833300Y-13500000D02*
X123833300Y-13500000D01*
X122833300Y-8500000D02*
X123833300Y-9500000D01*
X123833300Y-8500000D02*
X118833300Y-8500000D01*
X123833300Y-13500000D02*
X123833300Y-8500000D01*
X123333300Y-11000000D02*
G75*
G02*
X119333300Y-11000000I-2000000J0D01*
G01*
X119333300Y-11000000D02*
G75*
G02*
X123333300Y-11000000I2000000J0D01*
G01*
%TO.C,C5*%
X82500000Y-33875000D02*
X84500000Y-33875000D01*
X84500000Y-35125000D01*
X82500000Y-35125000D01*
X82500000Y-33875000D01*
%TO.C,LD15*%
X163366600Y-8500000D02*
X163366600Y-13500000D01*
X163366600Y-13500000D02*
X168366600Y-13500000D01*
X167366600Y-8500000D02*
X168366600Y-9500000D01*
X168366600Y-8500000D02*
X163366600Y-8500000D01*
X168366600Y-13500000D02*
X168366600Y-8500000D01*
X167866600Y-11000000D02*
G75*
G02*
X163866600Y-11000000I-2000000J0D01*
G01*
X163866600Y-11000000D02*
G75*
G02*
X167866600Y-11000000I2000000J0D01*
G01*
%TO.C,C16*%
X79700000Y-14850000D02*
X80700000Y-14850000D01*
X80700000Y-15350000D01*
X79700000Y-15350000D01*
X79700000Y-14850000D01*
%TO.C,C15*%
X68566700Y-14850000D02*
X69566700Y-14850000D01*
X69566700Y-15350000D01*
X68566700Y-15350000D01*
X68566700Y-14850000D01*
%TD*%
M02*
