%TF.GenerationSoftware,KiCad,Pcbnew,10.0.5*%
%TF.CreationDate,2026-08-20T14:17:49+02:00*%
%TF.ProjectId,fl11,666c3131-2e6b-4696-9361-645f70636258,rev?*%
%TF.SameCoordinates,Original*%
%TF.FileFunction,Profile,NP*%
%FSLAX46Y46*%
G04 Gerber Fmt 4.6, Leading zero omitted, Abs format (unit mm)*
G04 Created by KiCad (PCBNEW 10.0.5) date 2026-08-20 14:17:49*
%MOMM*%
%LPD*%
G01*
G04 APERTURE LIST*
%TA.AperFunction,Profile*%
%ADD10C,0.100000*%
%TD*%
G04 APERTURE END LIST*
D10*
X0Y0D02*
X187000000Y0D01*
X0Y-20000000D02*
X0Y0D01*
X72000000Y-20000000D02*
X0Y-20000000D01*
X72000000Y-48000000D02*
X72000000Y-20000000D01*
X119600000Y-22400000D02*
X119600000Y-27350000D01*
X119600000Y-22400000D02*
X120400000Y-22400000D01*
X119600000Y-27350000D02*
X120400000Y-27350000D01*
X119600000Y-28650000D02*
X119600000Y-45350000D01*
X119600000Y-28650000D02*
X120400000Y-28650000D01*
X119600000Y-45350000D02*
X120400000Y-45350000D01*
X119600000Y-46650000D02*
X119600000Y-47600000D01*
X119600000Y-46650000D02*
X120400000Y-46650000D01*
X119600000Y-47600000D02*
X120400000Y-47600000D01*
X120000000Y-20000000D02*
X120000000Y-22000000D01*
X120000000Y-22000000D02*
X145000000Y-22000000D01*
X120400000Y-22400000D02*
X120400000Y-27350000D01*
X120400000Y-28650000D02*
X120400000Y-45350000D01*
X120400000Y-46650000D02*
X120400000Y-47600000D01*
X145000000Y-22000000D02*
X145000000Y-48000000D01*
X145000000Y-48000000D02*
X72000000Y-48000000D01*
X187000000Y0D02*
X187000000Y-20000000D01*
X187000000Y-20000000D02*
X120000000Y-20000000D01*
M02*
