%TF.GenerationSoftware,KiCad,Pcbnew,10.0.5*%
%TF.CreationDate,2026-08-20T15:23:36+02:00*%
%TF.ProjectId,fl11,666c3131-2e6b-4696-9361-645f70636258,rev?*%
%TF.SameCoordinates,Original*%
%TF.FileFunction,Paste,Top*%
%TF.FilePolarity,Positive*%
%FSLAX46Y46*%
G04 Gerber Fmt 4.6, Leading zero omitted, Abs format (unit mm)*
G04 Created by KiCad (PCBNEW 10.0.5) date 2026-08-20 15:23:36*
%MOMM*%
%LPD*%
G01*
G04 APERTURE LIST*
G04 Aperture macros list*
%AMRoundRect*
0 Rectangle with rounded corners*
0 $1 Rounding radius*
0 $2 $3 $4 $5 $6 $7 $8 $9 X,Y pos of 4 corners*
0 Add a 4 corners polygon primitive as box body*
4,1,4,$2,$3,$4,$5,$6,$7,$8,$9,$2,$3,0*
0 Add four circle primitives for the rounded corners*
1,1,$1+$1,$2,$3*
1,1,$1+$1,$4,$5*
1,1,$1+$1,$6,$7*
1,1,$1+$1,$8,$9*
0 Add four rect primitives between the rounded corners*
20,1,$1+$1,$2,$3,$4,$5,0*
20,1,$1+$1,$4,$5,$6,$7,0*
20,1,$1+$1,$6,$7,$8,$9,0*
20,1,$1+$1,$8,$9,$2,$3,0*%
%AMFreePoly0*
4,1,6,0.725000,-0.725000,-0.725000,-0.725000,-0.725000,0.125000,-0.125000,0.725000,0.725000,0.725000,0.725000,-0.725000,0.725000,-0.725000,$1*%
G04 Aperture macros list end*
%ADD10RoundRect,0.135000X-0.135000X-0.185000X0.135000X-0.185000X0.135000X0.185000X-0.135000X0.185000X0*%
%ADD11RoundRect,0.140000X-0.140000X-0.170000X0.140000X-0.170000X0.140000X0.170000X-0.140000X0.170000X0*%
%ADD12R,0.800000X0.400000*%
%ADD13R,0.400000X0.800000*%
%ADD14FreePoly0,180.000000*%
%ADD15R,1.450000X1.450000*%
%ADD16R,0.700000X0.700000*%
%ADD17RoundRect,0.250000X-0.312500X-1.450000X0.312500X-1.450000X0.312500X1.450000X-0.312500X1.450000X0*%
%ADD18RoundRect,0.150000X-0.587500X-0.150000X0.587500X-0.150000X0.587500X0.150000X-0.587500X0.150000X0*%
%ADD19RoundRect,0.090000X0.360000X-0.660000X0.360000X0.660000X-0.360000X0.660000X-0.360000X-0.660000X0*%
%ADD20RoundRect,0.150000X-0.512500X-0.150000X0.512500X-0.150000X0.512500X0.150000X-0.512500X0.150000X0*%
%ADD21RoundRect,0.250000X-0.450000X-0.275000X0.450000X-0.275000X0.450000X0.275000X-0.450000X0.275000X0*%
%ADD22RoundRect,0.250000X-0.250000X-0.475000X0.250000X-0.475000X0.250000X0.475000X-0.250000X0.475000X0*%
%ADD23RoundRect,0.250000X-1.500000X-1.000000X1.500000X-1.000000X1.500000X1.000000X-1.500000X1.000000X0*%
%ADD24RoundRect,0.150000X-0.150000X-0.575000X0.150000X-0.575000X0.150000X0.575000X-0.150000X0.575000X0*%
%ADD25RoundRect,0.075000X-0.075000X-0.650000X0.075000X-0.650000X0.075000X0.650000X-0.075000X0.650000X0*%
%ADD26RoundRect,0.250000X-0.250000X-1.500000X0.250000X-1.500000X0.250000X1.500000X-0.250000X1.500000X0*%
%ADD27RoundRect,0.250001X-0.499999X-1.449999X0.499999X-1.449999X0.499999X1.449999X-0.499999X1.449999X0*%
G04 APERTURE END LIST*
D10*
%TO.C,R3*%
X87490000Y-34500000D03*
X88510000Y-34500000D03*
%TD*%
%TO.C,R11*%
X87990000Y-28000000D03*
X89010000Y-28000000D03*
%TD*%
D11*
%TO.C,C23*%
X157653300Y-15100000D03*
X158613300Y-15100000D03*
%TD*%
D12*
%TO.C,U1*%
X103900000Y-39300000D03*
X103900000Y-38500000D03*
X103900000Y-37700000D03*
X103900000Y-36900000D03*
X103900000Y-36100000D03*
X103900000Y-35300000D03*
X103900000Y-34500000D03*
X103900000Y-33700000D03*
X103900000Y-32900000D03*
X103900000Y-32100000D03*
X103900000Y-31300000D03*
D13*
X102800000Y-30400000D03*
X102000000Y-30400000D03*
X101200000Y-30400000D03*
X100400000Y-30400000D03*
X99600000Y-30400000D03*
X98800000Y-30400000D03*
X98000000Y-30400000D03*
X97200000Y-30400000D03*
X96400000Y-30400000D03*
X95600000Y-30400000D03*
X94800000Y-30400000D03*
X94000000Y-30400000D03*
X93200000Y-30400000D03*
D12*
X92100000Y-31300000D03*
X92100000Y-32100000D03*
X92100000Y-32900000D03*
X92100000Y-33700000D03*
X92100000Y-34500000D03*
X92100000Y-35300000D03*
X92100000Y-36100000D03*
X92100000Y-36900000D03*
X92100000Y-37700000D03*
X92100000Y-38500000D03*
X92100000Y-39300000D03*
D13*
X93200000Y-40200000D03*
X94000000Y-40200000D03*
X94800000Y-40200000D03*
X95600000Y-40200000D03*
X96400000Y-40200000D03*
X97200000Y-40200000D03*
X98000000Y-40200000D03*
X98800000Y-40200000D03*
X99600000Y-40200000D03*
X100400000Y-40200000D03*
X101200000Y-40200000D03*
X102000000Y-40200000D03*
X102800000Y-40200000D03*
D14*
X99975000Y-37275000D03*
D15*
X99975000Y-35300000D03*
X99975000Y-33325000D03*
X98000000Y-37275000D03*
X98000000Y-35300000D03*
X98000000Y-33325000D03*
X96025000Y-37275000D03*
X96025000Y-35300000D03*
X96025000Y-33325000D03*
D16*
X92050000Y-40250000D03*
X92050000Y-30350000D03*
X103950000Y-30350000D03*
X103950000Y-40250000D03*
%TD*%
D17*
%TO.C,F1*%
X90862500Y-23000000D03*
X95137500Y-23000000D03*
%TD*%
D11*
%TO.C,C14*%
X57453300Y-15100000D03*
X58413300Y-15100000D03*
%TD*%
D10*
%TO.C,R1*%
X83490000Y-37000000D03*
X84510000Y-37000000D03*
%TD*%
D11*
%TO.C,C9*%
X113020000Y-30000000D03*
X113980000Y-30000000D03*
%TD*%
D10*
%TO.C,R9*%
X92490000Y-26500000D03*
X93510000Y-26500000D03*
%TD*%
%TO.C,R8*%
X103490000Y-22400000D03*
X104510000Y-22400000D03*
%TD*%
D18*
%TO.C,Q1*%
X99062500Y-22050000D03*
X99062500Y-23950000D03*
X100937500Y-23000000D03*
%TD*%
D19*
%TO.C,LD14*%
X153083300Y-13450000D03*
X156383300Y-13450000D03*
X156383300Y-8550000D03*
X153083300Y-8550000D03*
%TD*%
D20*
%TO.C,U4*%
X85362500Y-40050000D03*
X85362500Y-41000000D03*
X85362500Y-41950000D03*
X87637500Y-41950000D03*
X87637500Y-41000000D03*
X87637500Y-40050000D03*
%TD*%
D21*
%TO.C,SW1*%
X70200000Y-39280000D03*
X73800000Y-39280000D03*
X70200000Y-40720000D03*
X73800000Y-40720000D03*
%TD*%
D22*
%TO.C,C2*%
X113550000Y-23000000D03*
X115450000Y-23000000D03*
%TD*%
D11*
%TO.C,C8*%
X95020000Y-26500000D03*
X95980000Y-26500000D03*
%TD*%
%TO.C,C10*%
X12920000Y-15100000D03*
X13880000Y-15100000D03*
%TD*%
D10*
%TO.C,R7*%
X100490000Y-26500000D03*
X101510000Y-26500000D03*
%TD*%
D11*
%TO.C,C13*%
X46320000Y-15100000D03*
X47280000Y-15100000D03*
%TD*%
D10*
%TO.C,R6*%
X112490000Y-33000000D03*
X113510000Y-33000000D03*
%TD*%
D11*
%TO.C,C7*%
X106020000Y-22400000D03*
X106980000Y-22400000D03*
%TD*%
D19*
%TO.C,LD2*%
X19483300Y-13450000D03*
X22783300Y-13450000D03*
X22783300Y-8550000D03*
X19483300Y-8550000D03*
%TD*%
%TO.C,LD3*%
X30616700Y-13450000D03*
X33916700Y-13450000D03*
X33916700Y-8550000D03*
X30616700Y-8550000D03*
%TD*%
D11*
%TO.C,C21*%
X135386600Y-15100000D03*
X136346600Y-15100000D03*
%TD*%
D19*
%TO.C,LD8*%
X86283300Y-13450000D03*
X89583300Y-13450000D03*
X89583300Y-8550000D03*
X86283300Y-8550000D03*
%TD*%
D11*
%TO.C,C12*%
X35186700Y-15100000D03*
X36146700Y-15100000D03*
%TD*%
D19*
%TO.C,LD13*%
X141950000Y-13450000D03*
X145250000Y-13450000D03*
X145250000Y-8550000D03*
X141950000Y-8550000D03*
%TD*%
D10*
%TO.C,R4*%
X107490000Y-33000000D03*
X108510000Y-33000000D03*
%TD*%
D11*
%TO.C,C17*%
X90853300Y-15100000D03*
X91813300Y-15100000D03*
%TD*%
D23*
%TO.C,C1*%
X74750000Y-24500000D03*
X81250000Y-24500000D03*
%TD*%
D19*
%TO.C,LD9*%
X97416600Y-13450000D03*
X100716600Y-13450000D03*
X100716600Y-8550000D03*
X97416600Y-8550000D03*
%TD*%
%TO.C,LD10*%
X108550000Y-13450000D03*
X111850000Y-13450000D03*
X111850000Y-8550000D03*
X108550000Y-8550000D03*
%TD*%
%TO.C,LD7*%
X75150000Y-13450000D03*
X78450000Y-13450000D03*
X78450000Y-8550000D03*
X75150000Y-8550000D03*
%TD*%
D22*
%TO.C,C3*%
X113550000Y-26500000D03*
X115450000Y-26500000D03*
%TD*%
D10*
%TO.C,R2*%
X85990000Y-37000000D03*
X87010000Y-37000000D03*
%TD*%
D20*
%TO.C,U2*%
X86862500Y-30550000D03*
X86862500Y-31500000D03*
X86862500Y-32450000D03*
X89137500Y-32450000D03*
X89137500Y-30550000D03*
%TD*%
D10*
%TO.C,R10*%
X97990000Y-26500000D03*
X99010000Y-26500000D03*
%TD*%
D11*
%TO.C,C18*%
X101986600Y-15100000D03*
X102946600Y-15100000D03*
%TD*%
D22*
%TO.C,C4*%
X109050000Y-30000000D03*
X110950000Y-30000000D03*
%TD*%
D19*
%TO.C,LD5*%
X52883300Y-13450000D03*
X56183300Y-13450000D03*
X56183300Y-8550000D03*
X52883300Y-8550000D03*
%TD*%
D24*
%TO.C,J1*%
X78750000Y-44955000D03*
X79550000Y-44955000D03*
D25*
X80750000Y-44955000D03*
X81750000Y-44955000D03*
X82250000Y-44955000D03*
X83250000Y-44955000D03*
D24*
X84450000Y-44955000D03*
X85250000Y-44955000D03*
X85250000Y-44955000D03*
X84450000Y-44955000D03*
D25*
X83750000Y-44955000D03*
X82750000Y-44955000D03*
X81250000Y-44955000D03*
X80250000Y-44955000D03*
D24*
X79550000Y-44955000D03*
X78750000Y-44955000D03*
%TD*%
D11*
%TO.C,C6*%
X84020000Y-31500000D03*
X84980000Y-31500000D03*
%TD*%
D26*
%TO.C,J2*%
X121500000Y-23650000D03*
X123500000Y-23650000D03*
D27*
X119150000Y-29400000D03*
X125850000Y-29400000D03*
%TD*%
D11*
%TO.C,C22*%
X146520000Y-15100000D03*
X147480000Y-15100000D03*
%TD*%
D19*
%TO.C,LD12*%
X130816600Y-13450000D03*
X134116600Y-13450000D03*
X134116600Y-8550000D03*
X130816600Y-8550000D03*
%TD*%
D11*
%TO.C,C20*%
X124253300Y-15100000D03*
X125213300Y-15100000D03*
%TD*%
D19*
%TO.C,LD1*%
X8350000Y-13450000D03*
X11650000Y-13450000D03*
X11650000Y-8550000D03*
X8350000Y-8550000D03*
%TD*%
D11*
%TO.C,C19*%
X113120000Y-15100000D03*
X114080000Y-15100000D03*
%TD*%
D19*
%TO.C,LD4*%
X41750000Y-13450000D03*
X45050000Y-13450000D03*
X45050000Y-8550000D03*
X41750000Y-8550000D03*
%TD*%
D11*
%TO.C,C24*%
X168786600Y-15100000D03*
X169746600Y-15100000D03*
%TD*%
%TO.C,C11*%
X24053300Y-15100000D03*
X25013300Y-15100000D03*
%TD*%
D20*
%TO.C,U3*%
X109362500Y-22050000D03*
X109362500Y-23000000D03*
X109362500Y-23950000D03*
X111637500Y-23950000D03*
X111637500Y-22050000D03*
%TD*%
D26*
%TO.C,J4*%
X109000000Y-42150000D03*
X111000000Y-42150000D03*
X113000000Y-42150000D03*
D27*
X106650000Y-47900000D03*
X115350000Y-47900000D03*
%TD*%
D10*
%TO.C,R5*%
X109990000Y-33000000D03*
X111010000Y-33000000D03*
%TD*%
D19*
%TO.C,LD6*%
X64016700Y-13450000D03*
X67316700Y-13450000D03*
X67316700Y-8550000D03*
X64016700Y-8550000D03*
%TD*%
%TO.C,LD11*%
X119683300Y-13450000D03*
X122983300Y-13450000D03*
X122983300Y-8550000D03*
X119683300Y-8550000D03*
%TD*%
D22*
%TO.C,C5*%
X82550000Y-34500000D03*
X84450000Y-34500000D03*
%TD*%
D19*
%TO.C,LD15*%
X164216600Y-13450000D03*
X167516600Y-13450000D03*
X167516600Y-8550000D03*
X164216600Y-8550000D03*
%TD*%
D11*
%TO.C,C16*%
X79720000Y-15100000D03*
X80680000Y-15100000D03*
%TD*%
%TO.C,C15*%
X68586700Y-15100000D03*
X69546700Y-15100000D03*
%TD*%
M02*
