%TF.GenerationSoftware,KiCad,Pcbnew,10.0.5*%
%TF.CreationDate,2026-08-20T12:21:45+02:00*%
%TF.ProjectId,fl11,666c3131-2e6b-4696-9361-645f70636258,rev?*%
%TF.SameCoordinates,Original*%
%TF.FileFunction,Other,User*%
%FSLAX46Y46*%
G04 Gerber Fmt 4.6, Leading zero omitted, Abs format (unit mm)*
G04 Created by KiCad (PCBNEW 10.0.5) date 2026-08-20 12:21:45*
%MOMM*%
%LPD*%
G01*
G04 APERTURE LIST*
%ADD10C,0.050000*%
G04 APERTURE END LIST*
%TO.C,C15*%
D10*
X150273000Y-14590000D02*
X151193000Y-14590000D01*
X151193000Y-16410000D01*
X150273000Y-16410000D01*
X150273000Y-14590000D01*
%TO.C,TP11*%
X17000000Y-7500000D02*
G75*
G02*
X15000000Y-7500000I-1000000J0D01*
G01*
X15000000Y-7500000D02*
G75*
G02*
X17000000Y-7500000I1000000J0D01*
G01*
%TO.C,C8*%
X30090000Y-17140000D02*
X31910000Y-17140000D01*
X31910000Y-18060000D01*
X30090000Y-18060000D01*
X30090000Y-17140000D01*
%TO.C,TP6*%
X59600000Y-3600000D02*
G75*
G02*
X57600000Y-3600000I-1000000J0D01*
G01*
X57600000Y-3600000D02*
G75*
G02*
X59600000Y-3600000I1000000J0D01*
G01*
%TO.C,U3*%
X30950000Y-7500000D02*
X31950000Y-7500000D01*
X30950000Y-10500000D02*
X30950000Y-7500000D01*
X31950000Y-7300000D02*
X34050000Y-7300000D01*
X31950000Y-7500000D02*
X31950000Y-7300000D01*
X31950000Y-10500000D02*
X30950000Y-10500000D01*
X31950000Y-10700000D02*
X31950000Y-10500000D01*
X34050000Y-7300000D02*
X34050000Y-7500000D01*
X34050000Y-7500000D02*
X35050000Y-7500000D01*
X34050000Y-8610000D02*
X34050000Y-9390000D01*
X34050000Y-9390000D02*
X35050000Y-9390000D01*
X34050000Y-10500000D02*
X34050000Y-10700000D01*
X34050000Y-10700000D02*
X31950000Y-10700000D01*
X35050000Y-7500000D02*
X35050000Y-8610000D01*
X35050000Y-8610000D02*
X34050000Y-8610000D01*
X35050000Y-9390000D02*
X35050000Y-10500000D01*
X35050000Y-10500000D02*
X34050000Y-10500000D01*
%TO.C,C19*%
X216940000Y-14590000D02*
X217860000Y-14590000D01*
X217860000Y-16410000D01*
X216940000Y-16410000D01*
X216940000Y-14590000D01*
%TO.C,J3_2*%
X255000000Y-11270000D02*
G75*
G02*
X253000000Y-11270000I-1000000J0D01*
G01*
X253000000Y-11270000D02*
G75*
G02*
X255000000Y-11270000I1000000J0D01*
G01*
%TO.C,F1*%
X17050000Y-650000D02*
X22950000Y-650000D01*
X22950000Y-4550000D01*
X17050000Y-4550000D01*
X17050000Y-650000D01*
%TO.C,R4*%
X40570000Y-18230000D02*
X42430000Y-18230000D01*
X42430000Y-19170000D01*
X40570000Y-19170000D01*
X40570000Y-18230000D01*
%TO.C,C17*%
X183607000Y-14590000D02*
X184527000Y-14590000D01*
X184527000Y-16410000D01*
X183607000Y-16410000D01*
X183607000Y-14590000D01*
%TO.C,LD7*%
X161250000Y-7550000D02*
X161250000Y-14450000D01*
X161250000Y-14450000D02*
X166750000Y-14450000D01*
X166750000Y-7550000D02*
X161250000Y-7550000D01*
X166750000Y-14450000D02*
X166750000Y-7550000D01*
%TO.C,C13*%
X116940000Y-14590000D02*
X117860000Y-14590000D01*
X117860000Y-16410000D01*
X116940000Y-16410000D01*
X116940000Y-14590000D01*
%TO.C,C3*%
X31300000Y-4820000D02*
X34700000Y-4820000D01*
X34700000Y-6780000D01*
X31300000Y-6780000D01*
X31300000Y-4820000D01*
%TO.C,C12*%
X100273000Y-14590000D02*
X101193000Y-14590000D01*
X101193000Y-16410000D01*
X100273000Y-16410000D01*
X100273000Y-14590000D01*
%TO.C,C11*%
X83607000Y-14590000D02*
X84527000Y-14590000D01*
X84527000Y-16410000D01*
X83607000Y-16410000D01*
X83607000Y-14590000D01*
%TO.C,R11*%
X57570000Y-13030000D02*
X59430000Y-13030000D01*
X59430000Y-13970000D01*
X57570000Y-13970000D01*
X57570000Y-13030000D01*
%TO.C,C6*%
X50990000Y-13040000D02*
X52810000Y-13040000D01*
X52810000Y-13960000D01*
X50990000Y-13960000D01*
X50990000Y-13040000D01*
%TO.C,Q1*%
X28570000Y-1300000D02*
X29600000Y-1300000D01*
X28570000Y-2410000D02*
X28570000Y-1300000D01*
X28570000Y-3190000D02*
X29600000Y-3190000D01*
X28570000Y-4300000D02*
X28570000Y-3190000D01*
X29600000Y-1100000D02*
X31400000Y-1100000D01*
X29600000Y-1300000D02*
X29600000Y-1100000D01*
X29600000Y-2410000D02*
X28570000Y-2410000D01*
X29600000Y-3190000D02*
X29600000Y-2410000D01*
X29600000Y-4300000D02*
X28570000Y-4300000D01*
X29600000Y-4500000D02*
X29600000Y-4300000D01*
X31400000Y-1100000D02*
X31400000Y-2250000D01*
X31400000Y-2250000D02*
X32430000Y-2250000D01*
X31400000Y-3350000D02*
X31400000Y-4500000D01*
X31400000Y-4500000D02*
X29600000Y-4500000D01*
X32430000Y-2250000D02*
X32430000Y-3350000D01*
X32430000Y-3350000D02*
X31400000Y-3350000D01*
%TO.C,R5*%
X43070000Y-18230000D02*
X44930000Y-18230000D01*
X44930000Y-19170000D01*
X43070000Y-19170000D01*
X43070000Y-18230000D01*
%TO.C,LD11*%
X227917000Y-7550000D02*
X227917000Y-14450000D01*
X227917000Y-14450000D02*
X233417000Y-14450000D01*
X233417000Y-7550000D02*
X227917000Y-7550000D01*
X233417000Y-14450000D02*
X233417000Y-7550000D01*
%TO.C,U2*%
X53450000Y-12000000D02*
X54450000Y-12000000D01*
X53450000Y-15000000D02*
X53450000Y-12000000D01*
X54450000Y-11800000D02*
X56550000Y-11800000D01*
X54450000Y-12000000D02*
X54450000Y-11800000D01*
X54450000Y-15000000D02*
X53450000Y-15000000D01*
X54450000Y-15200000D02*
X54450000Y-15000000D01*
X56550000Y-11800000D02*
X56550000Y-12000000D01*
X56550000Y-12000000D02*
X57550000Y-12000000D01*
X56550000Y-13110000D02*
X56550000Y-13890000D01*
X56550000Y-13890000D02*
X57550000Y-13890000D01*
X56550000Y-15000000D02*
X56550000Y-15200000D01*
X56550000Y-15200000D02*
X54450000Y-15200000D01*
X57550000Y-12000000D02*
X57550000Y-13110000D01*
X57550000Y-13110000D02*
X56550000Y-13110000D01*
X57550000Y-13890000D02*
X57550000Y-15000000D01*
X57550000Y-15000000D02*
X56550000Y-15000000D01*
%TO.C,C18*%
X200273000Y-14590000D02*
X201193000Y-14590000D01*
X201193000Y-16410000D01*
X200273000Y-16410000D01*
X200273000Y-14590000D01*
%TO.C,LD8*%
X177917000Y-7550000D02*
X177917000Y-14450000D01*
X177917000Y-14450000D02*
X183417000Y-14450000D01*
X183417000Y-7550000D02*
X177917000Y-7550000D01*
X183417000Y-14450000D02*
X183417000Y-7550000D01*
%TO.C,LD4*%
X111250000Y-7550000D02*
X111250000Y-14450000D01*
X111250000Y-14450000D02*
X116750000Y-14450000D01*
X116750000Y-7550000D02*
X111250000Y-7550000D01*
X116750000Y-14450000D02*
X116750000Y-7550000D01*
%TO.C,C7*%
X34590000Y-3540000D02*
X36410000Y-3540000D01*
X36410000Y-4460000D01*
X34590000Y-4460000D01*
X34590000Y-3540000D01*
%TO.C,LD5*%
X127917000Y-7550000D02*
X127917000Y-14450000D01*
X127917000Y-14450000D02*
X133417000Y-14450000D01*
X133417000Y-7550000D02*
X127917000Y-7550000D01*
X133417000Y-14450000D02*
X133417000Y-7550000D01*
%TO.C,TP9*%
X36200000Y-15000000D02*
G75*
G02*
X34200000Y-15000000I-1000000J0D01*
G01*
X34200000Y-15000000D02*
G75*
G02*
X36200000Y-15000000I1000000J0D01*
G01*
%TO.C,C9*%
X51590000Y-9740000D02*
X53410000Y-9740000D01*
X53410000Y-10660000D01*
X51590000Y-10660000D01*
X51590000Y-9740000D01*
%TO.C,J3_1*%
X255000000Y-8730000D02*
G75*
G02*
X253000000Y-8730000I-1000000J0D01*
G01*
X253000000Y-8730000D02*
G75*
G02*
X255000000Y-8730000I1000000J0D01*
G01*
%TO.C,TP1*%
X60000000Y-15500000D02*
G75*
G02*
X58000000Y-15500000I-1000000J0D01*
G01*
X58000000Y-15500000D02*
G75*
G02*
X60000000Y-15500000I1000000J0D01*
G01*
%TO.C,R1*%
X2570000Y-18130000D02*
X4430000Y-18130000D01*
X4430000Y-19070000D01*
X2570000Y-19070000D01*
X2570000Y-18130000D01*
%TO.C,U4*%
X16950000Y-16000000D02*
X17950000Y-16000000D01*
X16950000Y-19000000D02*
X16950000Y-16000000D01*
X17950000Y-15800000D02*
X20050000Y-15800000D01*
X17950000Y-16000000D02*
X17950000Y-15800000D01*
X17950000Y-19000000D02*
X16950000Y-19000000D01*
X17950000Y-19200000D02*
X17950000Y-19000000D01*
X20050000Y-15800000D02*
X20050000Y-16000000D01*
X20050000Y-16000000D02*
X21050000Y-16000000D01*
X20050000Y-19000000D02*
X20050000Y-19200000D01*
X20050000Y-19200000D02*
X17950000Y-19200000D01*
X21050000Y-16000000D02*
X21050000Y-19000000D01*
X21050000Y-19000000D02*
X20050000Y-19000000D01*
%TO.C,H2*%
X16450000Y-17900000D02*
G75*
G02*
X10550000Y-17900000I-2950000J0D01*
G01*
X10550000Y-17900000D02*
G75*
G02*
X16450000Y-17900000I2950000J0D01*
G01*
%TO.C,TP7*%
X241000000Y-13000000D02*
G75*
G02*
X239000000Y-13000000I-1000000J0D01*
G01*
X239000000Y-13000000D02*
G75*
G02*
X241000000Y-13000000I1000000J0D01*
G01*
%TO.C,C20*%
X233607000Y-14590000D02*
X234527000Y-14590000D01*
X234527000Y-16410000D01*
X233607000Y-16410000D01*
X233607000Y-14590000D01*
%TO.C,C5*%
X52200000Y-16020000D02*
X55600000Y-16020000D01*
X55600000Y-17980000D01*
X52200000Y-17980000D01*
X52200000Y-16020000D01*
%TO.C,C10*%
X66940000Y-14590000D02*
X67860000Y-14590000D01*
X67860000Y-16410000D01*
X66940000Y-16410000D01*
X66940000Y-14590000D01*
%TO.C,J1*%
X730000Y-4680000D02*
X10150000Y-4680000D01*
X730000Y-15320000D02*
X730000Y-4680000D01*
X730000Y-15320000D02*
X10150000Y-15320000D01*
X10150000Y-15320000D02*
X10150000Y-4680000D01*
%TO.C,LD2*%
X77917000Y-7550000D02*
X77917000Y-14450000D01*
X77917000Y-14450000D02*
X83417000Y-14450000D01*
X83417000Y-7550000D02*
X77917000Y-7550000D01*
X83417000Y-14450000D02*
X83417000Y-7550000D01*
%TO.C,R6*%
X45570000Y-18230000D02*
X47430000Y-18230000D01*
X47430000Y-19170000D01*
X45570000Y-19170000D01*
X45570000Y-18230000D01*
%TO.C,C4*%
X51300000Y-7020000D02*
X54700000Y-7020000D01*
X54700000Y-8980000D01*
X51300000Y-8980000D01*
X51300000Y-7020000D01*
%TO.C,R7*%
X55070000Y-3130000D02*
X56930000Y-3130000D01*
X56930000Y-4070000D01*
X55070000Y-4070000D01*
X55070000Y-3130000D01*
%TO.C,R10*%
X52570000Y-3130000D02*
X54430000Y-3130000D01*
X54430000Y-4070000D01*
X52570000Y-4070000D01*
X52570000Y-3130000D01*
%TO.C,U1*%
X37200000Y-400000D02*
X50800000Y-400000D01*
X37200000Y-17400000D02*
X37200000Y-400000D01*
X50800000Y-400000D02*
X50800000Y-17400000D01*
X50800000Y-17400000D02*
X37200000Y-17400000D01*
%TO.C,LD10*%
X211250000Y-7550000D02*
X211250000Y-14450000D01*
X211250000Y-14450000D02*
X216750000Y-14450000D01*
X216750000Y-7550000D02*
X211250000Y-7550000D01*
X216750000Y-14450000D02*
X216750000Y-7550000D01*
%TO.C,SW1*%
X21750000Y-15900000D02*
X27250000Y-15900000D01*
X21750000Y-19300000D02*
X21750000Y-15900000D01*
X23400000Y-19300000D02*
X21750000Y-19300000D01*
X23400000Y-19950000D02*
X23400000Y-19300000D01*
X25600000Y-19300000D02*
X25600000Y-19950000D01*
X25600000Y-19950000D02*
X23400000Y-19950000D01*
X27250000Y-15900000D02*
X27250000Y-19300000D01*
X27250000Y-19300000D02*
X25600000Y-19300000D01*
%TO.C,J2_1*%
X246000000Y-8730000D02*
G75*
G02*
X244000000Y-8730000I-1000000J0D01*
G01*
X244000000Y-8730000D02*
G75*
G02*
X246000000Y-8730000I1000000J0D01*
G01*
%TO.C,TP3*%
X52300000Y-18700000D02*
G75*
G02*
X50300000Y-18700000I-1000000J0D01*
G01*
X50300000Y-18700000D02*
G75*
G02*
X52300000Y-18700000I1000000J0D01*
G01*
%TO.C,R9*%
X27770000Y-17130000D02*
X29630000Y-17130000D01*
X29630000Y-18070000D01*
X27770000Y-18070000D01*
X27770000Y-17130000D01*
%TO.C,TP10*%
X30500000Y-12500000D02*
G75*
G02*
X28500000Y-12500000I-1000000J0D01*
G01*
X28500000Y-12500000D02*
G75*
G02*
X30500000Y-12500000I1000000J0D01*
G01*
%TO.C,TP2*%
X50000000Y-18700000D02*
G75*
G02*
X48000000Y-18700000I-1000000J0D01*
G01*
X48000000Y-18700000D02*
G75*
G02*
X50000000Y-18700000I1000000J0D01*
G01*
%TO.C,LD3*%
X94583000Y-7550000D02*
X94583000Y-14450000D01*
X94583000Y-14450000D02*
X100083000Y-14450000D01*
X100083000Y-7550000D02*
X94583000Y-7550000D01*
X100083000Y-14450000D02*
X100083000Y-7550000D01*
%TO.C,J2_2*%
X246000000Y-11270000D02*
G75*
G02*
X244000000Y-11270000I-1000000J0D01*
G01*
X244000000Y-11270000D02*
G75*
G02*
X246000000Y-11270000I1000000J0D01*
G01*
%TO.C,TP5*%
X60000000Y-7000000D02*
G75*
G02*
X58000000Y-7000000I-1000000J0D01*
G01*
X58000000Y-7000000D02*
G75*
G02*
X60000000Y-7000000I1000000J0D01*
G01*
%TO.C,TP4*%
X247000000Y-17500000D02*
G75*
G02*
X245000000Y-17500000I-1000000J0D01*
G01*
X245000000Y-17500000D02*
G75*
G02*
X247000000Y-17500000I1000000J0D01*
G01*
%TO.C,LD9*%
X194583000Y-7550000D02*
X194583000Y-14450000D01*
X194583000Y-14450000D02*
X200083000Y-14450000D01*
X200083000Y-7550000D02*
X194583000Y-7550000D01*
X200083000Y-14450000D02*
X200083000Y-7550000D01*
%TO.C,R3*%
X56570000Y-16330000D02*
X58430000Y-16330000D01*
X58430000Y-17270000D01*
X56570000Y-17270000D01*
X56570000Y-16330000D01*
%TO.C,C2*%
X31300000Y-11520000D02*
X34700000Y-11520000D01*
X34700000Y-13480000D01*
X31300000Y-13480000D01*
X31300000Y-11520000D01*
%TO.C,R2*%
X4870000Y-18130000D02*
X6730000Y-18130000D01*
X6730000Y-19070000D01*
X4870000Y-19070000D01*
X4870000Y-18130000D01*
%TO.C,C1*%
X19600000Y-5800000D02*
X22500000Y-5800000D01*
X19600000Y-13450000D02*
X19600000Y-5800000D01*
X20750000Y-14600000D02*
X19600000Y-13450000D01*
X20750000Y-14600000D02*
X22500000Y-14600000D01*
X22500000Y-4950000D02*
X25500000Y-4950000D01*
X22500000Y-5800000D02*
X22500000Y-4950000D01*
X22500000Y-14600000D02*
X22500000Y-15450000D01*
X22500000Y-15450000D02*
X25500000Y-15450000D01*
X25500000Y-4950000D02*
X25500000Y-5800000D01*
X25500000Y-5800000D02*
X28400000Y-5800000D01*
X25500000Y-14600000D02*
X27250000Y-14600000D01*
X25500000Y-15450000D02*
X25500000Y-14600000D01*
X27250000Y-14600000D02*
X28400000Y-13450000D01*
X28400000Y-13450000D02*
X28400000Y-5800000D01*
%TO.C,R8*%
X34570000Y-1730000D02*
X36430000Y-1730000D01*
X36430000Y-2670000D01*
X34570000Y-2670000D01*
X34570000Y-1730000D01*
%TO.C,TP8*%
X36800000Y-12500000D02*
G75*
G02*
X34800000Y-12500000I-1000000J0D01*
G01*
X34800000Y-12500000D02*
G75*
G02*
X36800000Y-12500000I1000000J0D01*
G01*
%TO.C,LD6*%
X144583000Y-7550000D02*
X144583000Y-14450000D01*
X144583000Y-14450000D02*
X150083000Y-14450000D01*
X150083000Y-7550000D02*
X144583000Y-7550000D01*
X150083000Y-14450000D02*
X150083000Y-7550000D01*
%TO.C,C14*%
X133607000Y-14590000D02*
X134527000Y-14590000D01*
X134527000Y-16410000D01*
X133607000Y-16410000D01*
X133607000Y-14590000D01*
%TO.C,H1*%
X16450000Y-2100000D02*
G75*
G02*
X10550000Y-2100000I-2950000J0D01*
G01*
X10550000Y-2100000D02*
G75*
G02*
X16450000Y-2100000I2950000J0D01*
G01*
%TO.C,C16*%
X166940000Y-14590000D02*
X167860000Y-14590000D01*
X167860000Y-16410000D01*
X166940000Y-16410000D01*
X166940000Y-14590000D01*
%TO.C,LD1*%
X61250000Y-7550000D02*
X61250000Y-14450000D01*
X61250000Y-14450000D02*
X66750000Y-14450000D01*
X66750000Y-7550000D02*
X61250000Y-7550000D01*
X66750000Y-14450000D02*
X66750000Y-7550000D01*
%TD*%
M02*
