M48
; DRILL file KiCad 10.0.5 date 2026-08-20T16:31:47
; FORMAT={-:-/ absolute / metric / decimal}
; #@! TF.CreationDate,2026-08-20T16:31:47+02:00
; #@! TF.GenerationSoftware,Kicad,Pcbnew,10.0.5
; #@! TF.FileFunction,Plated,1,2,PTH
FMAT,2
METRIC
; #@! TA.AperFunction,Plated,PTH,ViaDrill
T1C0.300
; #@! TA.AperFunction,Plated,PTH,ComponentDrill
T2C0.600
%
G90
G05
T1
X6.0Y-2.0
X11.0Y-2.0
X11.0Y-4.0
X11.0Y-6.0
X14.384Y-6.7
X16.0Y-2.0
X16.0Y-4.0
X16.0Y-6.0
X19.447Y-15.1
X21.0Y-2.0
X21.0Y-4.0
X21.0Y-6.0
X26.0Y-2.0
X26.0Y-4.0
X26.0Y-6.0
X30.58Y-15.1
X31.0Y-2.0
X31.0Y-4.0
X31.0Y-6.0
X36.0Y-2.0
X36.0Y-4.0
X36.0Y-6.0
X41.0Y-2.0
X41.0Y-4.0
X41.0Y-6.0
X41.713Y-15.1
X46.0Y-2.0
X46.0Y-4.0
X46.0Y-6.0
X51.0Y-2.0
X51.0Y-4.0
X51.0Y-6.0
X52.847Y-15.1
X56.0Y-2.0
X56.0Y-4.0
X56.0Y-6.0
X61.0Y-2.0
X61.0Y-4.0
X61.0Y-6.0
X63.98Y-15.1
X66.0Y-2.0
X66.0Y-4.0
X66.0Y-6.0
X71.0Y-2.0
X71.0Y-4.0
X71.0Y-6.0
X72.494Y-15.85
X72.702Y-27.45
X73.862Y-32.85
X74.0Y-43.0
X74.0Y-46.5
X74.2Y-38.6
X75.113Y-15.1
X75.51Y-35.4
X76.0Y-2.0
X76.0Y-4.0
X76.0Y-6.0
X76.25Y-24.5
X78.0Y-35.0
X78.0Y-46.5
X81.0Y-2.0
X81.0Y-4.0
X81.0Y-6.0
X81.616Y-39.05
X81.852Y-41.95
X82.0Y-46.5
X82.2Y-24.22
X84.95Y-31.0
X85.763Y-42.0
X86.0Y-2.0
X86.0Y-4.0
X86.0Y-6.0
X86.0Y-38.6
X86.247Y-15.1
X87.559Y-29.745
X87.823Y-24.55
X90.022Y-25.337
X90.532Y-44.739
X90.532Y-33.261
X91.0Y-2.0
X91.0Y-4.0
X91.0Y-6.0
X91.271Y-24.55
X91.969Y-41.311
X92.188Y-28.873
X92.559Y-42.292
X92.745Y-21.5
X93.417Y-48.092
X93.502Y-41.95
X94.354Y-42.797
X94.907Y-29.057
X96.0Y-2.0
X96.0Y-4.0
X96.0Y-6.0
X96.327Y-46.646
X96.432Y-35.225
X96.474Y-18.75
X96.474Y-36.15
X97.38Y-15.1
X98.59Y-32.413
X99.18Y-30.348
X101.0Y-2.0
X101.0Y-4.0
X101.0Y-6.0
X102.0Y-39.0
X103.822Y-32.832
X105.5Y-39.0
X105.618Y-34.175
X106.0Y-2.0
X106.0Y-4.0
X106.0Y-6.0
X106.0Y-43.0
X106.0Y-46.5
X106.331Y-32.954
X108.513Y-15.1
X109.004Y-26.006
X110.262Y-23.0
X110.957Y-34.132
X111.0Y-2.0
X111.0Y-4.0
X111.0Y-6.0
X111.33Y-33.248
X113.16Y-27.3
X114.25Y-31.35
X115.7Y-27.3
X116.0Y-2.0
X116.0Y-4.0
X116.0Y-6.0
X118.0Y-21.0
X118.278Y-36.861
X118.62Y-35.598
X119.445Y-27.003
X119.538Y-36.511
X119.647Y-15.1
X120.827Y-16.352
X121.0Y-2.0
X121.0Y-4.0
X121.0Y-6.0
X123.109Y-27.357
X126.0Y-2.0
X126.0Y-4.0
X126.0Y-6.0
X126.189Y-33.25
X130.78Y-15.1
X131.0Y-2.0
X131.0Y-4.0
X131.0Y-6.0
X136.0Y-2.0
X136.0Y-4.0
X136.0Y-6.0
X141.0Y-2.0
X141.0Y-4.0
X141.0Y-6.0
X141.913Y-15.1
X146.0Y-2.0
X146.0Y-4.0
X146.0Y-6.0
X151.0Y-2.0
X151.0Y-4.0
X151.0Y-6.0
X153.047Y-15.1
X156.0Y-2.0
X156.0Y-4.0
X156.0Y-6.0
X161.0Y-2.0
X161.0Y-4.0
X161.0Y-6.0
X164.18Y-15.1
X166.0Y-2.0
X166.0Y-4.0
X166.0Y-6.0
X171.0Y-2.0
X171.0Y-4.0
X171.0Y-6.0
X175.313Y-15.1
X176.0Y-2.0
X176.0Y-4.0
X176.0Y-6.0
X181.0Y-2.0
T2
X93.68Y-45.32G85X93.68Y-46.42
G05
X93.68Y-49.75G85X93.68Y-50.35
G05
X102.32Y-45.32G85X102.32Y-46.42
G05
X102.32Y-49.75G85X102.32Y-50.35
G05
M30
