%TF.GenerationSoftware,KiCad,Pcbnew,10.0.5*%
%TF.CreationDate,2026-08-20T15:59:02+02:00*%
%TF.ProjectId,ember,656d6265-722e-46b6-9963-61645f706362,rev?*%
%TF.SameCoordinates,Original*%
%TF.FileFunction,Copper,L2,Bot*%
%TF.FilePolarity,Positive*%
%FSLAX46Y46*%
G04 Gerber Fmt 4.6, Leading zero omitted, Abs format (unit mm)*
G04 Created by KiCad (PCBNEW 10.0.5) date 2026-08-20 15:59:02*
%MOMM*%
%LPD*%
G01*
G04 APERTURE LIST*
%TA.AperFunction,ComponentPad*%
%ADD10O,1.000000X2.100000*%
%TD*%
%TA.AperFunction,ComponentPad*%
%ADD11O,1.000000X1.600000*%
%TD*%
%TA.AperFunction,ViaPad*%
%ADD12C,0.600000*%
%TD*%
%TA.AperFunction,Conductor*%
%ADD13C,0.200000*%
%TD*%
G04 APERTURE END LIST*
D10*
%TO.P,J1,SH*%
%TO.N,GND*%
X93680000Y-45870000D03*
D11*
X93680000Y-50050000D03*
D10*
X102320000Y-45870000D03*
D11*
X102320000Y-50050000D03*
%TD*%
D12*
%TO.N,CC2*%
X99582500Y-46210200D03*
X90530800Y-45030900D03*
%TO.N,GND*%
X101000000Y-2000000D03*
X26000000Y-4000000D03*
X131000000Y-4000000D03*
X119647000Y-15100000D03*
X161000000Y-2000000D03*
X116000000Y-27900000D03*
X51000000Y-2000000D03*
X131000000Y-6000000D03*
X118000000Y-39000000D03*
X31000000Y-4000000D03*
X86000000Y-2000000D03*
X76000000Y-6000000D03*
X71000000Y-2000000D03*
X176000000Y-4000000D03*
X176000000Y-6000000D03*
X56000000Y-2000000D03*
X116000000Y-4000000D03*
X111000000Y-2000000D03*
X36000000Y-6000000D03*
X126000000Y-6000000D03*
X97380000Y-15100000D03*
X11000000Y-4000000D03*
X146000000Y-4000000D03*
X136000000Y-2000000D03*
X106000000Y-46500000D03*
X81000000Y-4000000D03*
X21000000Y-6000000D03*
X51000000Y-6000000D03*
X121000000Y-2000000D03*
X26000000Y-2000000D03*
X31000000Y-6000000D03*
X126000000Y-2000000D03*
X171000000Y-2000000D03*
X41000000Y-2000000D03*
X156000000Y-4000000D03*
X106000000Y-6000000D03*
X41000000Y-4000000D03*
X175313000Y-15100000D03*
X111000000Y-6000000D03*
X74000000Y-43000000D03*
X81616300Y-6699800D03*
X46000000Y-4000000D03*
X176000000Y-2000000D03*
X96000000Y-2000000D03*
X61000000Y-2000000D03*
X87980000Y-30100000D03*
X151000000Y-6000000D03*
X166000000Y-6000000D03*
X74000000Y-21000000D03*
X166000000Y-2000000D03*
X36000000Y-4000000D03*
X11000000Y-6000000D03*
X108513000Y-15100000D03*
X61000000Y-6000000D03*
X41000000Y-6000000D03*
X130780000Y-15100000D03*
X136000000Y-4000000D03*
X106000000Y-43000000D03*
X106000000Y-4000000D03*
X116000000Y-6000000D03*
X96000000Y-4000000D03*
X146000000Y-2000000D03*
X71000000Y-4000000D03*
X114000000Y-39000000D03*
X6000000Y-2000000D03*
X76250000Y-24500000D03*
X105500000Y-39000000D03*
X16000000Y-6000000D03*
X52846700Y-15100000D03*
X31000000Y-2000000D03*
X36000000Y-2000000D03*
X66000000Y-6000000D03*
X161000000Y-6000000D03*
X111000000Y-4000000D03*
X81000000Y-6000000D03*
X66000000Y-4000000D03*
X171000000Y-4000000D03*
X84950000Y-31000000D03*
X26000000Y-6000000D03*
X101000000Y-4000000D03*
X46000000Y-2000000D03*
X115950000Y-23000000D03*
X161000000Y-4000000D03*
X151000000Y-4000000D03*
X74000000Y-46500000D03*
X78000000Y-46500000D03*
X19446700Y-15100000D03*
X71000000Y-6000000D03*
X51000000Y-4000000D03*
X75510000Y-35400000D03*
X86246700Y-15100000D03*
X86000000Y-6000000D03*
X82200000Y-24220000D03*
X56000000Y-6000000D03*
X75113300Y-15100000D03*
X126000000Y-4000000D03*
X141000000Y-6000000D03*
X91000000Y-6000000D03*
X121000000Y-4000000D03*
X41713300Y-15100000D03*
X102000000Y-39000000D03*
X156000000Y-2000000D03*
X181000000Y-2000000D03*
X136000000Y-6000000D03*
X73862500Y-32850000D03*
X141000000Y-4000000D03*
X121000000Y-6000000D03*
X114000000Y-35000000D03*
X82000000Y-27000000D03*
X91000000Y-4000000D03*
X166000000Y-4000000D03*
X56000000Y-4000000D03*
X98000000Y-39000000D03*
X63980000Y-15100000D03*
X66000000Y-2000000D03*
X141000000Y-2000000D03*
X74200000Y-38600000D03*
X11000000Y-2000000D03*
X74000000Y-24000000D03*
X16000000Y-2000000D03*
X116000000Y-2000000D03*
X141913000Y-15100000D03*
X21000000Y-2000000D03*
X76000000Y-2000000D03*
X30580000Y-15100000D03*
X81000000Y-2000000D03*
X61000000Y-4000000D03*
X91000000Y-2000000D03*
X82000000Y-46500000D03*
X102000000Y-43000000D03*
X16000000Y-4000000D03*
X86000000Y-4000000D03*
X89510000Y-45600000D03*
X146000000Y-6000000D03*
X164180000Y-15100000D03*
X96000000Y-6000000D03*
X153047000Y-15100000D03*
X46000000Y-6000000D03*
X151000000Y-2000000D03*
X106000000Y-2000000D03*
X131000000Y-2000000D03*
X101000000Y-6000000D03*
X156000000Y-6000000D03*
X171000000Y-6000000D03*
X85762500Y-42000000D03*
X21000000Y-4000000D03*
X76000000Y-4000000D03*
%TO.N,LED_5V*%
X66758800Y-15850000D03*
X67154600Y-24550000D03*
%TO.N,+3V3*%
X87096500Y-27250200D03*
X81457900Y-31258000D03*
X110500000Y-21237000D03*
X78922900Y-40976600D03*
%TO.N,STRAP2*%
X119730000Y-35041400D03*
X92368600Y-29526000D03*
%TO.N,EN*%
X98978400Y-18322700D03*
X119686600Y-33414100D03*
X90959900Y-27365900D03*
%TO.N,LED_DATA_3V3*%
X110405600Y-31512900D03*
X98131700Y-33632800D03*
%TO.N,STRAP8*%
X111804300Y-29453900D03*
X98077700Y-32587000D03*
%TO.N,USB_DM*%
X105096600Y-32321100D03*
X88658900Y-40954500D03*
%TO.N,USB_DP*%
X105493300Y-33543400D03*
X90537700Y-42726800D03*
%TO.N,UART_RX*%
X107543000Y-35418100D03*
X102321800Y-32932200D03*
%TO.N,VBUS_RAW*%
X88472800Y-41891800D03*
X90732100Y-25124200D03*
%TO.N,CC1*%
X94397200Y-48124300D03*
X87698900Y-45302100D03*
%TO.N,USB_DP_CONN*%
X94403300Y-43179600D03*
X97273900Y-46939100D03*
%TO.N,TOUCH_SENSE*%
X96579400Y-29199100D03*
X95426200Y-34376500D03*
%TD*%
%TO.N,CC2*%
D13*
X98218600Y-47574100D02*
X95046500Y-47574100D01*
X94968700Y-47496300D02*
X92996200Y-47496300D01*
X92996200Y-47496300D02*
X90530800Y-45030900D01*
X95046500Y-47574100D02*
X94968700Y-47496300D01*
X99582500Y-46210200D02*
X98218600Y-47574100D01*
%TO.N,LED_5V*%
X67154600Y-16245800D02*
X67154600Y-24550000D01*
X66758800Y-15850000D02*
X67154600Y-16245800D01*
%TO.N,+3V3*%
X91362300Y-24836100D02*
X91022600Y-24496400D01*
X81457900Y-38441600D02*
X78922900Y-40976600D01*
X81457900Y-31258000D02*
X81457900Y-38441600D01*
X110500000Y-21237000D02*
X103747600Y-27989400D01*
X87096500Y-27250200D02*
X90044200Y-27250200D01*
X88219500Y-24496400D02*
X81457900Y-31258000D01*
X91362300Y-25932100D02*
X91362300Y-24836100D01*
X90044200Y-27370900D02*
X90044200Y-27250200D01*
X91022600Y-24496400D02*
X88219500Y-24496400D01*
X103747600Y-27989400D02*
X90662700Y-27989400D01*
X90662700Y-27989400D02*
X90044200Y-27370900D01*
X90044200Y-27250200D02*
X91362300Y-25932100D01*
%TO.N,STRAP2*%
X113278500Y-28589900D02*
X93304700Y-28589900D01*
X119730000Y-35041400D02*
X113278500Y-28589900D01*
X93304700Y-28589900D02*
X92368600Y-29526000D01*
%TO.N,EN*%
X119686600Y-33414100D02*
X119686600Y-29540200D01*
X119686600Y-29540200D02*
X108469100Y-18322700D01*
X98978400Y-18322700D02*
X98978400Y-19347400D01*
X108469100Y-18322700D02*
X98978400Y-18322700D01*
X98978400Y-19347400D02*
X90959900Y-27365900D01*
%TO.N,LED_DATA_3V3*%
X98131700Y-33632800D02*
X100251600Y-31512900D01*
X100251600Y-31512900D02*
X110405600Y-31512900D01*
%TO.N,STRAP8*%
X98077700Y-32587000D02*
X101210800Y-29453900D01*
X101210800Y-29453900D02*
X111804300Y-29453900D01*
%TO.N,USB_DM*%
X88658900Y-40954500D02*
X91660900Y-40954500D01*
X100294300Y-32321100D02*
X105096600Y-32321100D01*
X91660900Y-40954500D02*
X100294300Y-32321100D01*
%TO.N,USB_DP*%
X99721100Y-33543400D02*
X90537700Y-42726800D01*
X105493300Y-33543400D02*
X99721100Y-33543400D01*
%TO.N,UART_RX*%
X105739600Y-32932200D02*
X102321800Y-32932200D01*
X107543000Y-35418100D02*
X107543000Y-34735600D01*
X107543000Y-34735600D02*
X105739600Y-32932200D01*
%TO.N,VBUS_RAW*%
X88346600Y-25124200D02*
X86446100Y-27024700D01*
X90732100Y-25124200D02*
X88346600Y-25124200D01*
X86446100Y-39865100D02*
X88472800Y-41891800D01*
X86446100Y-27024700D02*
X86446100Y-39865100D01*
%TO.N,CC1*%
X90521100Y-48124300D02*
X87698900Y-45302100D01*
X94397200Y-48124300D02*
X90521100Y-48124300D01*
%TO.N,USB_DP_CONN*%
X97273900Y-46939100D02*
X97273900Y-46050200D01*
X97273900Y-46050200D02*
X94403300Y-43179600D01*
%TO.N,TOUCH_SENSE*%
X95426200Y-30352300D02*
X96579400Y-29199100D01*
X95426200Y-34376500D02*
X95426200Y-30352300D01*
%TD*%
%TA.AperFunction,Conductor*%
%TO.N,GND*%
G36*
X89793995Y-27620385D02*
G01*
X89814637Y-27637019D01*
X90447488Y-28269870D01*
X90516008Y-28309430D01*
X90527412Y-28316014D01*
X90616556Y-28339900D01*
X92759657Y-28339900D01*
X92826696Y-28359585D01*
X92872451Y-28412389D01*
X92882395Y-28481547D01*
X92853370Y-28545103D01*
X92847338Y-28551581D01*
X92459737Y-28939181D01*
X92398414Y-28972666D01*
X92372056Y-28975500D01*
X92296125Y-28975500D01*
X92167593Y-29009940D01*
X92156111Y-29013017D01*
X92030588Y-29085488D01*
X92030582Y-29085493D01*
X91928093Y-29187982D01*
X91928088Y-29187988D01*
X91855617Y-29313511D01*
X91855616Y-29313515D01*
X91818100Y-29453525D01*
X91818100Y-29598475D01*
X91855616Y-29738485D01*
X91855617Y-29738488D01*
X91928088Y-29864011D01*
X91928090Y-29864013D01*
X91928091Y-29864015D01*
X92030585Y-29966509D01*
X92030586Y-29966510D01*
X92030588Y-29966511D01*
X92156111Y-30038982D01*
X92156112Y-30038982D01*
X92156115Y-30038984D01*
X92296125Y-30076500D01*
X92296128Y-30076500D01*
X92441072Y-30076500D01*
X92441075Y-30076500D01*
X92581085Y-30038984D01*
X92706615Y-29966509D01*
X92809109Y-29864015D01*
X92881584Y-29738485D01*
X92919100Y-29598475D01*
X92919100Y-29522543D01*
X92938785Y-29455504D01*
X92955419Y-29434862D01*
X93413562Y-28976719D01*
X93474885Y-28943234D01*
X93501243Y-28940400D01*
X95917199Y-28940400D01*
X95984238Y-28960085D01*
X96029993Y-29012889D01*
X96039937Y-29082047D01*
X96036974Y-29096493D01*
X96028900Y-29126625D01*
X96028900Y-29202556D01*
X96009215Y-29269595D01*
X95992581Y-29290237D01*
X95145731Y-30137086D01*
X95145727Y-30137091D01*
X95099587Y-30217009D01*
X95099586Y-30217012D01*
X95075700Y-30306156D01*
X95075700Y-33897114D01*
X95056015Y-33964153D01*
X95039381Y-33984795D01*
X94985693Y-34038482D01*
X94985688Y-34038488D01*
X94913217Y-34164011D01*
X94913216Y-34164015D01*
X94875700Y-34304025D01*
X94875700Y-34448975D01*
X94913216Y-34588985D01*
X94913217Y-34588988D01*
X94985688Y-34714511D01*
X94985690Y-34714513D01*
X94985691Y-34714515D01*
X95088185Y-34817009D01*
X95088186Y-34817010D01*
X95088188Y-34817011D01*
X95213711Y-34889482D01*
X95213712Y-34889482D01*
X95213715Y-34889484D01*
X95353725Y-34927000D01*
X95353728Y-34927000D01*
X95498672Y-34927000D01*
X95498675Y-34927000D01*
X95638685Y-34889484D01*
X95764215Y-34817009D01*
X95866709Y-34714515D01*
X95939184Y-34588985D01*
X95976700Y-34448975D01*
X95976700Y-34304025D01*
X95939184Y-34164015D01*
X95935334Y-34157347D01*
X95866711Y-34038488D01*
X95866706Y-34038482D01*
X95813019Y-33984795D01*
X95779534Y-33923472D01*
X95776700Y-33897114D01*
X95776700Y-30548844D01*
X95796385Y-30481805D01*
X95813019Y-30461163D01*
X96488263Y-29785919D01*
X96549586Y-29752434D01*
X96575944Y-29749600D01*
X96651872Y-29749600D01*
X96651875Y-29749600D01*
X96791885Y-29712084D01*
X96917415Y-29639609D01*
X97019909Y-29537115D01*
X97092384Y-29411585D01*
X97129900Y-29271575D01*
X97129900Y-29126625D01*
X97121826Y-29096492D01*
X97123489Y-29026643D01*
X97162652Y-28968781D01*
X97226881Y-28941277D01*
X97241601Y-28940400D01*
X100936433Y-28940400D01*
X101003472Y-28960085D01*
X101049227Y-29012889D01*
X101059171Y-29082047D01*
X101030146Y-29145603D01*
X100998433Y-29171787D01*
X100995591Y-29173427D01*
X100995586Y-29173431D01*
X98168837Y-32000181D01*
X98107514Y-32033666D01*
X98081156Y-32036500D01*
X98005225Y-32036500D01*
X97876693Y-32070940D01*
X97865211Y-32074017D01*
X97739688Y-32146488D01*
X97739682Y-32146493D01*
X97637193Y-32248982D01*
X97637188Y-32248988D01*
X97564717Y-32374511D01*
X97564716Y-32374515D01*
X97527200Y-32514525D01*
X97527200Y-32659475D01*
X97549873Y-32744089D01*
X97564717Y-32799488D01*
X97637188Y-32925011D01*
X97637190Y-32925013D01*
X97637191Y-32925015D01*
X97739685Y-33027509D01*
X97739688Y-33027511D01*
X97746134Y-33032457D01*
X97745113Y-33033787D01*
X97786657Y-33077364D01*
X97799875Y-33145972D01*
X97773902Y-33210835D01*
X97764119Y-33221857D01*
X97691188Y-33294788D01*
X97618717Y-33420311D01*
X97618716Y-33420315D01*
X97581200Y-33560325D01*
X97581200Y-33705275D01*
X97614963Y-33831278D01*
X97618717Y-33845288D01*
X97691188Y-33970811D01*
X97691190Y-33970813D01*
X97691191Y-33970815D01*
X97793685Y-34073309D01*
X97813956Y-34085013D01*
X97862171Y-34135578D01*
X97875395Y-34204184D01*
X97849428Y-34269050D01*
X97839637Y-34280080D01*
X91552037Y-40567681D01*
X91490714Y-40601166D01*
X91464356Y-40604000D01*
X89138286Y-40604000D01*
X89071247Y-40584315D01*
X89050605Y-40567681D01*
X88996917Y-40513993D01*
X88996911Y-40513988D01*
X88871388Y-40441517D01*
X88871389Y-40441517D01*
X88859906Y-40438440D01*
X88731375Y-40404000D01*
X88586425Y-40404000D01*
X88457893Y-40438440D01*
X88446411Y-40441517D01*
X88320888Y-40513988D01*
X88320882Y-40513993D01*
X88218393Y-40616482D01*
X88218388Y-40616488D01*
X88145917Y-40742011D01*
X88145915Y-40742015D01*
X88132353Y-40792630D01*
X88095988Y-40852290D01*
X88033141Y-40882818D01*
X87963765Y-40874523D01*
X87924898Y-40848216D01*
X86832919Y-39756237D01*
X86799434Y-39694914D01*
X86796600Y-39668556D01*
X86796600Y-27901361D01*
X86816285Y-27834322D01*
X86869089Y-27788567D01*
X86938247Y-27778623D01*
X86952682Y-27781583D01*
X87024025Y-27800700D01*
X87024028Y-27800700D01*
X87168972Y-27800700D01*
X87168975Y-27800700D01*
X87308985Y-27763184D01*
X87434515Y-27690709D01*
X87488205Y-27637019D01*
X87549528Y-27603534D01*
X87575886Y-27600700D01*
X89726956Y-27600700D01*
X89793995Y-27620385D01*
G37*
%TD.AperFunction*%
%TA.AperFunction,Conductor*%
G36*
X111148146Y-21498668D02*
G01*
X111159176Y-21508458D01*
X119299781Y-29649063D01*
X119333266Y-29710386D01*
X119336100Y-29736744D01*
X119336100Y-32934714D01*
X119316415Y-33001753D01*
X119299781Y-33022395D01*
X119246093Y-33076082D01*
X119246088Y-33076088D01*
X119173617Y-33201611D01*
X119173616Y-33201615D01*
X119136100Y-33341625D01*
X119136100Y-33486575D01*
X119173616Y-33626585D01*
X119173617Y-33626588D01*
X119198203Y-33669172D01*
X119214676Y-33737072D01*
X119191823Y-33803099D01*
X119136902Y-33846290D01*
X119067349Y-33852931D01*
X119005246Y-33820915D01*
X119003135Y-33818853D01*
X113493712Y-28309430D01*
X113493708Y-28309427D01*
X113413790Y-28263287D01*
X113413789Y-28263286D01*
X113413788Y-28263286D01*
X113324644Y-28239400D01*
X113324643Y-28239400D01*
X104292644Y-28239400D01*
X104225605Y-28219715D01*
X104179850Y-28166911D01*
X104169906Y-28097753D01*
X104198931Y-28034197D01*
X104204963Y-28027719D01*
X110408863Y-21823819D01*
X110470186Y-21790334D01*
X110496544Y-21787500D01*
X110572472Y-21787500D01*
X110572475Y-21787500D01*
X110712485Y-21749984D01*
X110838015Y-21677509D01*
X110940509Y-21575015D01*
X110964109Y-21534137D01*
X111014674Y-21485924D01*
X111083281Y-21472700D01*
X111148146Y-21498668D01*
G37*
%TD.AperFunction*%
%TA.AperFunction,Conductor*%
G36*
X186442539Y-520185D02*
G01*
X186488294Y-572989D01*
X186499500Y-624500D01*
X186499500Y-19375500D01*
X186479815Y-19442539D01*
X186427011Y-19488294D01*
X186375500Y-19499500D01*
X130065892Y-19499500D01*
X129934108Y-19499500D01*
X129806814Y-19533608D01*
X129806813Y-19533608D01*
X129806811Y-19533609D01*
X129806810Y-19533609D01*
X129720594Y-19583387D01*
X129658594Y-19600000D01*
X129600000Y-19600000D01*
X129600000Y-19658594D01*
X129583387Y-19720594D01*
X129533609Y-19806810D01*
X129533609Y-19806811D01*
X129499500Y-19934108D01*
X129499500Y-51375500D01*
X129479815Y-51442539D01*
X129427011Y-51488294D01*
X129375500Y-51499500D01*
X66624500Y-51499500D01*
X66557461Y-51479815D01*
X66511706Y-51427011D01*
X66500500Y-51375500D01*
X66500500Y-45229625D01*
X87148400Y-45229625D01*
X87148400Y-45374575D01*
X87185916Y-45514585D01*
X87185917Y-45514588D01*
X87258388Y-45640111D01*
X87258390Y-45640113D01*
X87258391Y-45640115D01*
X87360885Y-45742609D01*
X87360886Y-45742610D01*
X87360888Y-45742611D01*
X87486411Y-45815082D01*
X87486412Y-45815082D01*
X87486415Y-45815084D01*
X87626425Y-45852600D01*
X87702356Y-45852600D01*
X87769395Y-45872285D01*
X87790037Y-45888919D01*
X90305888Y-48404770D01*
X90375185Y-48444778D01*
X90375187Y-48444780D01*
X90382442Y-48448968D01*
X90385812Y-48450914D01*
X90474956Y-48474800D01*
X90474957Y-48474800D01*
X90567244Y-48474800D01*
X93917814Y-48474800D01*
X93984853Y-48494485D01*
X94005495Y-48511119D01*
X94059185Y-48564809D01*
X94059186Y-48564810D01*
X94059188Y-48564811D01*
X94184711Y-48637282D01*
X94184712Y-48637282D01*
X94184715Y-48637284D01*
X94324725Y-48674800D01*
X94324728Y-48674800D01*
X94469672Y-48674800D01*
X94469675Y-48674800D01*
X94609685Y-48637284D01*
X94735215Y-48564809D01*
X94837709Y-48462315D01*
X94910184Y-48336785D01*
X94947700Y-48196775D01*
X94947700Y-48051825D01*
X94947700Y-48048600D01*
X94967385Y-47981561D01*
X95020189Y-47935806D01*
X95071700Y-47924600D01*
X98264742Y-47924600D01*
X98264744Y-47924600D01*
X98353888Y-47900714D01*
X98400092Y-47874038D01*
X124399500Y-47874038D01*
X124399500Y-48125961D01*
X124438910Y-48374785D01*
X124516760Y-48614383D01*
X124631132Y-48838848D01*
X124779201Y-49042649D01*
X124779205Y-49042654D01*
X124957345Y-49220794D01*
X124957350Y-49220798D01*
X125135117Y-49349952D01*
X125161155Y-49368870D01*
X125304184Y-49441747D01*
X125385616Y-49483239D01*
X125385618Y-49483239D01*
X125385621Y-49483241D01*
X125625215Y-49561090D01*
X125874038Y-49600500D01*
X125874039Y-49600500D01*
X126125961Y-49600500D01*
X126125962Y-49600500D01*
X126374785Y-49561090D01*
X126614379Y-49483241D01*
X126838845Y-49368870D01*
X127042656Y-49220793D01*
X127220793Y-49042656D01*
X127368870Y-48838845D01*
X127483241Y-48614379D01*
X127561090Y-48374785D01*
X127600500Y-48125962D01*
X127600500Y-47874038D01*
X127561090Y-47625215D01*
X127483241Y-47385621D01*
X127483239Y-47385618D01*
X127483239Y-47385616D01*
X127396728Y-47215830D01*
X127368870Y-47161155D01*
X127300831Y-47067507D01*
X127220798Y-46957350D01*
X127220794Y-46957345D01*
X127042654Y-46779205D01*
X127042649Y-46779201D01*
X126838848Y-46631132D01*
X126838847Y-46631131D01*
X126838845Y-46631130D01*
X126768747Y-46595413D01*
X126614383Y-46516760D01*
X126374785Y-46438910D01*
X126272345Y-46422685D01*
X126125962Y-46399500D01*
X125874038Y-46399500D01*
X125749626Y-46419205D01*
X125625214Y-46438910D01*
X125385616Y-46516760D01*
X125161151Y-46631132D01*
X124957350Y-46779201D01*
X124957345Y-46779205D01*
X124779205Y-46957345D01*
X124779201Y-46957350D01*
X124631132Y-47161151D01*
X124516760Y-47385616D01*
X124438910Y-47625214D01*
X124399500Y-47874038D01*
X98400092Y-47874038D01*
X98433812Y-47854570D01*
X99491363Y-46797019D01*
X99552686Y-46763534D01*
X99579044Y-46760700D01*
X99654972Y-46760700D01*
X99654975Y-46760700D01*
X99794985Y-46723184D01*
X99920515Y-46650709D01*
X100023009Y-46548215D01*
X100085679Y-46439666D01*
X100136246Y-46391451D01*
X100204853Y-46378228D01*
X100269718Y-46404196D01*
X100310246Y-46461110D01*
X100312841Y-46469574D01*
X100314500Y-46475764D01*
X100314500Y-46475766D01*
X100323961Y-46511076D01*
X100353719Y-46622136D01*
X100370216Y-46650709D01*
X100429485Y-46753365D01*
X100536635Y-46860515D01*
X100667865Y-46936281D01*
X100814234Y-46975500D01*
X100814236Y-46975500D01*
X100965764Y-46975500D01*
X100965766Y-46975500D01*
X101112135Y-46936281D01*
X101243365Y-46860515D01*
X101350515Y-46753365D01*
X101426281Y-46622135D01*
X101465500Y-46475766D01*
X101465500Y-46324234D01*
X101459007Y-46300000D01*
X108400000Y-46300000D01*
X121600000Y-46300000D01*
X121600000Y-40900000D01*
X108400000Y-40900000D01*
X108400000Y-46300000D01*
X101459007Y-46300000D01*
X101426281Y-46177865D01*
X101350515Y-46046635D01*
X101243365Y-45939485D01*
X101177750Y-45901602D01*
X101112136Y-45863719D01*
X101038950Y-45844109D01*
X100965766Y-45824500D01*
X100814234Y-45824500D01*
X100667863Y-45863719D01*
X100536635Y-45939485D01*
X100536632Y-45939487D01*
X100429487Y-46046632D01*
X100429481Y-46046641D01*
X100359990Y-46167000D01*
X100309423Y-46215215D01*
X100240816Y-46228437D01*
X100175951Y-46202469D01*
X100135423Y-46145554D01*
X100132840Y-46137127D01*
X100095484Y-45997715D01*
X100032670Y-45888919D01*
X100023011Y-45872188D01*
X100023006Y-45872182D01*
X99920517Y-45769693D01*
X99920511Y-45769688D01*
X99794988Y-45697217D01*
X99794989Y-45697217D01*
X99783506Y-45694140D01*
X99654975Y-45659700D01*
X99510025Y-45659700D01*
X99381493Y-45694140D01*
X99370011Y-45697217D01*
X99244488Y-45769688D01*
X99244482Y-45769693D01*
X99141993Y-45872182D01*
X99141988Y-45872188D01*
X99069517Y-45997711D01*
X99069516Y-45997715D01*
X99032000Y-46137725D01*
X99032000Y-46137727D01*
X99032000Y-46213656D01*
X99012315Y-46280695D01*
X98995681Y-46301337D01*
X98109737Y-47187281D01*
X98048414Y-47220766D01*
X98022056Y-47223600D01*
X97929188Y-47223600D01*
X97862149Y-47203915D01*
X97816394Y-47151111D01*
X97806450Y-47081953D01*
X97809413Y-47067507D01*
X97810583Y-47063137D01*
X97824400Y-47011575D01*
X97824400Y-46866625D01*
X97786884Y-46726615D01*
X97726562Y-46622135D01*
X97714411Y-46601088D01*
X97714406Y-46601082D01*
X97660719Y-46547395D01*
X97627234Y-46486072D01*
X97624400Y-46459714D01*
X97624400Y-46004058D01*
X97624400Y-46004056D01*
X97600514Y-45914912D01*
X97575845Y-45872185D01*
X97554369Y-45834987D01*
X94990119Y-43270737D01*
X94956634Y-43209414D01*
X94953800Y-43183056D01*
X94953800Y-43107127D01*
X94953800Y-43107125D01*
X94916284Y-42967115D01*
X94900216Y-42939285D01*
X94843811Y-42841588D01*
X94843806Y-42841582D01*
X94741317Y-42739093D01*
X94741311Y-42739088D01*
X94615788Y-42666617D01*
X94615789Y-42666617D01*
X94569922Y-42654327D01*
X94475775Y-42629100D01*
X94330825Y-42629100D01*
X94236678Y-42654327D01*
X94190811Y-42666617D01*
X94065288Y-42739088D01*
X94065282Y-42739093D01*
X93962793Y-42841582D01*
X93962788Y-42841588D01*
X93890317Y-42967111D01*
X93890316Y-42967115D01*
X93852800Y-43107125D01*
X93852800Y-43252075D01*
X93890316Y-43392085D01*
X93890317Y-43392088D01*
X93962788Y-43517611D01*
X93962790Y-43517613D01*
X93962791Y-43517615D01*
X94065285Y-43620109D01*
X94065286Y-43620110D01*
X94065288Y-43620111D01*
X94190811Y-43692582D01*
X94190812Y-43692582D01*
X94190815Y-43692584D01*
X94330825Y-43730100D01*
X94406756Y-43730100D01*
X94473795Y-43749785D01*
X94494437Y-43766419D01*
X96887081Y-46159063D01*
X96920566Y-46220386D01*
X96923400Y-46246744D01*
X96923400Y-46459714D01*
X96903715Y-46526753D01*
X96887081Y-46547395D01*
X96833393Y-46601082D01*
X96833388Y-46601088D01*
X96760917Y-46726611D01*
X96760916Y-46726615D01*
X96723400Y-46866625D01*
X96723400Y-47011575D01*
X96734097Y-47051499D01*
X96738387Y-47067507D01*
X96736724Y-47137357D01*
X96697561Y-47195219D01*
X96633333Y-47222723D01*
X96618612Y-47223600D01*
X95230596Y-47223600D01*
X95168593Y-47206985D01*
X95159438Y-47201699D01*
X95111224Y-47151131D01*
X95098003Y-47082523D01*
X95123973Y-47017659D01*
X95180888Y-46977133D01*
X95189316Y-46974548D01*
X95332135Y-46936281D01*
X95463365Y-46860515D01*
X95570515Y-46753365D01*
X95646281Y-46622135D01*
X95685500Y-46475766D01*
X95685500Y-46324234D01*
X95646281Y-46177865D01*
X95570515Y-46046635D01*
X95463365Y-45939485D01*
X95397750Y-45901602D01*
X95332136Y-45863719D01*
X95258950Y-45844109D01*
X95185766Y-45824500D01*
X95034234Y-45824500D01*
X94887863Y-45863719D01*
X94756635Y-45939485D01*
X94756632Y-45939487D01*
X94649487Y-46046632D01*
X94649485Y-46046635D01*
X94573719Y-46177863D01*
X94540993Y-46300000D01*
X94534500Y-46324234D01*
X94534500Y-46475766D01*
X94543961Y-46511076D01*
X94573719Y-46622136D01*
X94590216Y-46650709D01*
X94649485Y-46753365D01*
X94756635Y-46860515D01*
X94849989Y-46914413D01*
X94898204Y-46964980D01*
X94911426Y-47033588D01*
X94885458Y-47098452D01*
X94828544Y-47138980D01*
X94787988Y-47145800D01*
X93192744Y-47145800D01*
X93125705Y-47126115D01*
X93105063Y-47109481D01*
X91117619Y-45122037D01*
X91084134Y-45060714D01*
X91081300Y-45034356D01*
X91081300Y-44958427D01*
X91081300Y-44958425D01*
X91043784Y-44818415D01*
X91005208Y-44751600D01*
X90971311Y-44692888D01*
X90971306Y-44692882D01*
X90868817Y-44590393D01*
X90868811Y-44590388D01*
X90743288Y-44517917D01*
X90743289Y-44517917D01*
X90731806Y-44514840D01*
X90603275Y-44480400D01*
X90458325Y-44480400D01*
X90329793Y-44514840D01*
X90318311Y-44517917D01*
X90192788Y-44590388D01*
X90192782Y-44590393D01*
X90090293Y-44692882D01*
X90090288Y-44692888D01*
X90017817Y-44818411D01*
X90017816Y-44818415D01*
X89980300Y-44958425D01*
X89980300Y-45103375D01*
X89985301Y-45122037D01*
X90017817Y-45243388D01*
X90090288Y-45368911D01*
X90090290Y-45368913D01*
X90090291Y-45368915D01*
X90192785Y-45471409D01*
X90192786Y-45471410D01*
X90192788Y-45471411D01*
X90318311Y-45543882D01*
X90318312Y-45543882D01*
X90318315Y-45543884D01*
X90458325Y-45581400D01*
X90534256Y-45581400D01*
X90601295Y-45601085D01*
X90621937Y-45617719D01*
X92566337Y-47562119D01*
X92599822Y-47623442D01*
X92594838Y-47693134D01*
X92552966Y-47749067D01*
X92487502Y-47773484D01*
X92478656Y-47773800D01*
X90717644Y-47773800D01*
X90650605Y-47754115D01*
X90629963Y-47737481D01*
X88285719Y-45393237D01*
X88252234Y-45331914D01*
X88249400Y-45305556D01*
X88249400Y-45229627D01*
X88249400Y-45229625D01*
X88211884Y-45089615D01*
X88139409Y-44964085D01*
X88036915Y-44861591D01*
X88036913Y-44861590D01*
X88036911Y-44861588D01*
X87911388Y-44789117D01*
X87911389Y-44789117D01*
X87899906Y-44786040D01*
X87771375Y-44751600D01*
X87626425Y-44751600D01*
X87497893Y-44786040D01*
X87486411Y-44789117D01*
X87360888Y-44861588D01*
X87360882Y-44861593D01*
X87258393Y-44964082D01*
X87258388Y-44964088D01*
X87185917Y-45089611D01*
X87185916Y-45089615D01*
X87148400Y-45229625D01*
X66500500Y-45229625D01*
X66500500Y-40904125D01*
X78372400Y-40904125D01*
X78372400Y-41049075D01*
X78409916Y-41189085D01*
X78409917Y-41189088D01*
X78482388Y-41314611D01*
X78482390Y-41314613D01*
X78482391Y-41314615D01*
X78584885Y-41417109D01*
X78584886Y-41417110D01*
X78584888Y-41417111D01*
X78710411Y-41489582D01*
X78710412Y-41489582D01*
X78710415Y-41489584D01*
X78850425Y-41527100D01*
X78850428Y-41527100D01*
X78995372Y-41527100D01*
X78995375Y-41527100D01*
X79135385Y-41489584D01*
X79260915Y-41417109D01*
X79363409Y-41314615D01*
X79435884Y-41189085D01*
X79473400Y-41049075D01*
X79473400Y-40973143D01*
X79493085Y-40906104D01*
X79509719Y-40885462D01*
X80483938Y-39911243D01*
X81738369Y-38656812D01*
X81784514Y-38576888D01*
X81808400Y-38487744D01*
X81808400Y-31737386D01*
X81828085Y-31670347D01*
X81844719Y-31649705D01*
X81898409Y-31596015D01*
X81970884Y-31470485D01*
X82008400Y-31330475D01*
X82008400Y-31254543D01*
X82028085Y-31187504D01*
X82044719Y-31166862D01*
X85883919Y-27327662D01*
X85945242Y-27294177D01*
X86014934Y-27299161D01*
X86070867Y-27341033D01*
X86095284Y-27406497D01*
X86095600Y-27415343D01*
X86095600Y-39911243D01*
X86119486Y-40000387D01*
X86119487Y-40000390D01*
X86165627Y-40080308D01*
X86165631Y-40080313D01*
X87885981Y-41800663D01*
X87919466Y-41861986D01*
X87922300Y-41888344D01*
X87922300Y-41964275D01*
X87959816Y-42104285D01*
X87959817Y-42104288D01*
X88032288Y-42229811D01*
X88032290Y-42229813D01*
X88032291Y-42229815D01*
X88134785Y-42332309D01*
X88134786Y-42332310D01*
X88134788Y-42332311D01*
X88260311Y-42404782D01*
X88260312Y-42404782D01*
X88260315Y-42404784D01*
X88400325Y-42442300D01*
X88400328Y-42442300D01*
X88545272Y-42442300D01*
X88545275Y-42442300D01*
X88685285Y-42404784D01*
X88810815Y-42332309D01*
X88913309Y-42229815D01*
X88985784Y-42104285D01*
X89023300Y-41964275D01*
X89023300Y-41819325D01*
X88985784Y-41679315D01*
X88927457Y-41578290D01*
X88910985Y-41510393D01*
X88933837Y-41444366D01*
X88972844Y-41408905D01*
X88996915Y-41395009D01*
X89050605Y-41341319D01*
X89111928Y-41307834D01*
X89138286Y-41305000D01*
X91164456Y-41305000D01*
X91231495Y-41324685D01*
X91277250Y-41377489D01*
X91287194Y-41446647D01*
X91258169Y-41510203D01*
X91252137Y-41516681D01*
X90628837Y-42139981D01*
X90567514Y-42173466D01*
X90541156Y-42176300D01*
X90465225Y-42176300D01*
X90336693Y-42210740D01*
X90325211Y-42213817D01*
X90199688Y-42286288D01*
X90199682Y-42286293D01*
X90097193Y-42388782D01*
X90097188Y-42388788D01*
X90024717Y-42514311D01*
X90024716Y-42514315D01*
X89987200Y-42654325D01*
X89987200Y-42799275D01*
X89998538Y-42841588D01*
X90024717Y-42939288D01*
X90097188Y-43064811D01*
X90097190Y-43064813D01*
X90097191Y-43064815D01*
X90199685Y-43167309D01*
X90199686Y-43167310D01*
X90199688Y-43167311D01*
X90325211Y-43239782D01*
X90325212Y-43239782D01*
X90325215Y-43239784D01*
X90465225Y-43277300D01*
X90465228Y-43277300D01*
X90610172Y-43277300D01*
X90610175Y-43277300D01*
X90750185Y-43239784D01*
X90875715Y-43167309D01*
X90978209Y-43064815D01*
X91050684Y-42939285D01*
X91088200Y-42799275D01*
X91088200Y-42723344D01*
X91107885Y-42656305D01*
X91124519Y-42635663D01*
X99829963Y-33930219D01*
X99891286Y-33896734D01*
X99917644Y-33893900D01*
X105013914Y-33893900D01*
X105080953Y-33913585D01*
X105101595Y-33930219D01*
X105155285Y-33983909D01*
X105155286Y-33983910D01*
X105155288Y-33983911D01*
X105280811Y-34056382D01*
X105280812Y-34056382D01*
X105280815Y-34056384D01*
X105420825Y-34093900D01*
X105420828Y-34093900D01*
X105565772Y-34093900D01*
X105565775Y-34093900D01*
X105705785Y-34056384D01*
X105831315Y-33983909D01*
X105933809Y-33881415D01*
X105947928Y-33856959D01*
X105998493Y-33808744D01*
X106067100Y-33795520D01*
X106131965Y-33821487D01*
X106142996Y-33831278D01*
X107156181Y-34844463D01*
X107189666Y-34905786D01*
X107192500Y-34932144D01*
X107192500Y-34938714D01*
X107172815Y-35005753D01*
X107156181Y-35026395D01*
X107102493Y-35080082D01*
X107102488Y-35080088D01*
X107030017Y-35205611D01*
X107030016Y-35205615D01*
X106992500Y-35345625D01*
X106992500Y-35490575D01*
X107030016Y-35630585D01*
X107030017Y-35630588D01*
X107102488Y-35756111D01*
X107102490Y-35756113D01*
X107102491Y-35756115D01*
X107204985Y-35858609D01*
X107204986Y-35858610D01*
X107204988Y-35858611D01*
X107330511Y-35931082D01*
X107330512Y-35931082D01*
X107330515Y-35931084D01*
X107470525Y-35968600D01*
X107470528Y-35968600D01*
X107615472Y-35968600D01*
X107615475Y-35968600D01*
X107755485Y-35931084D01*
X107881015Y-35858609D01*
X107983509Y-35756115D01*
X108055984Y-35630585D01*
X108093500Y-35490575D01*
X108093500Y-35345625D01*
X108055984Y-35205615D01*
X107983509Y-35080085D01*
X107929819Y-35026395D01*
X107896334Y-34965072D01*
X107893500Y-34938714D01*
X107893500Y-34689458D01*
X107893500Y-34689456D01*
X107869614Y-34600312D01*
X107863074Y-34588985D01*
X107823470Y-34520388D01*
X105954812Y-32651730D01*
X105954811Y-32651729D01*
X105954808Y-32651727D01*
X105874890Y-32605587D01*
X105874889Y-32605586D01*
X105874888Y-32605586D01*
X105866230Y-32603266D01*
X105859893Y-32601568D01*
X105859892Y-32601567D01*
X105802353Y-32586150D01*
X105785744Y-32581700D01*
X105785743Y-32581700D01*
X105758292Y-32581700D01*
X105691253Y-32562015D01*
X105645498Y-32509211D01*
X105635554Y-32440053D01*
X105638517Y-32425607D01*
X105638828Y-32424445D01*
X105647100Y-32393575D01*
X105647100Y-32248625D01*
X105609584Y-32108615D01*
X105575395Y-32049398D01*
X105558923Y-31981501D01*
X105581775Y-31915474D01*
X105636696Y-31872283D01*
X105682783Y-31863400D01*
X109926214Y-31863400D01*
X109993253Y-31883085D01*
X110013895Y-31899719D01*
X110067585Y-31953409D01*
X110067586Y-31953410D01*
X110067588Y-31953411D01*
X110193111Y-32025882D01*
X110193112Y-32025882D01*
X110193115Y-32025884D01*
X110333125Y-32063400D01*
X110333128Y-32063400D01*
X110478072Y-32063400D01*
X110478075Y-32063400D01*
X110618085Y-32025884D01*
X110743615Y-31953409D01*
X110846109Y-31850915D01*
X110918584Y-31725385D01*
X110956100Y-31585375D01*
X110956100Y-31440425D01*
X110918584Y-31300415D01*
X110879333Y-31232431D01*
X110846111Y-31174888D01*
X110846106Y-31174882D01*
X110743617Y-31072393D01*
X110743611Y-31072388D01*
X110618088Y-30999917D01*
X110618089Y-30999917D01*
X110606606Y-30996840D01*
X110478075Y-30962400D01*
X110333125Y-30962400D01*
X110204593Y-30996840D01*
X110193111Y-30999917D01*
X110067588Y-31072388D01*
X110067582Y-31072393D01*
X110013895Y-31126081D01*
X109952572Y-31159566D01*
X109926214Y-31162400D01*
X100297344Y-31162400D01*
X100230305Y-31142715D01*
X100184550Y-31089911D01*
X100174606Y-31020753D01*
X100203631Y-30957197D01*
X100209663Y-30950719D01*
X101319663Y-29840719D01*
X101380986Y-29807234D01*
X101407344Y-29804400D01*
X111324914Y-29804400D01*
X111391953Y-29824085D01*
X111412595Y-29840719D01*
X111466285Y-29894409D01*
X111466286Y-29894410D01*
X111466288Y-29894411D01*
X111591811Y-29966882D01*
X111591812Y-29966882D01*
X111591815Y-29966884D01*
X111731825Y-30004400D01*
X111731828Y-30004400D01*
X111876772Y-30004400D01*
X111876775Y-30004400D01*
X112016785Y-29966884D01*
X112142315Y-29894409D01*
X112244809Y-29791915D01*
X112317284Y-29666385D01*
X112354800Y-29526375D01*
X112354800Y-29381425D01*
X112317284Y-29241415D01*
X112286434Y-29187982D01*
X112250880Y-29126400D01*
X112234407Y-29058500D01*
X112257259Y-28992473D01*
X112312180Y-28949283D01*
X112358267Y-28940400D01*
X113081956Y-28940400D01*
X113148995Y-28960085D01*
X113169637Y-28976719D01*
X119143181Y-34950263D01*
X119176666Y-35011586D01*
X119179500Y-35037944D01*
X119179500Y-35113875D01*
X119204081Y-35205611D01*
X119217017Y-35253888D01*
X119289488Y-35379411D01*
X119289490Y-35379413D01*
X119289491Y-35379415D01*
X119391985Y-35481909D01*
X119391986Y-35481910D01*
X119391988Y-35481911D01*
X119517511Y-35554382D01*
X119517512Y-35554382D01*
X119517515Y-35554384D01*
X119657525Y-35591900D01*
X119657528Y-35591900D01*
X119802472Y-35591900D01*
X119802475Y-35591900D01*
X119942485Y-35554384D01*
X120068015Y-35481909D01*
X120170509Y-35379415D01*
X120242984Y-35253885D01*
X120280500Y-35113875D01*
X120280500Y-34968925D01*
X120242984Y-34828915D01*
X120236111Y-34817011D01*
X120170511Y-34703388D01*
X120170506Y-34703382D01*
X120068017Y-34600893D01*
X120068011Y-34600888D01*
X119942488Y-34528417D01*
X119942489Y-34528417D01*
X119912524Y-34520388D01*
X119802475Y-34490900D01*
X119802472Y-34490900D01*
X119726544Y-34490900D01*
X119659505Y-34471215D01*
X119638863Y-34454581D01*
X119281846Y-34097564D01*
X119248361Y-34036241D01*
X119253345Y-33966549D01*
X119295217Y-33910616D01*
X119360681Y-33886199D01*
X119428954Y-33901051D01*
X119431508Y-33902485D01*
X119474115Y-33927084D01*
X119614125Y-33964600D01*
X119614128Y-33964600D01*
X119759072Y-33964600D01*
X119759075Y-33964600D01*
X119899085Y-33927084D01*
X120024615Y-33854609D01*
X120127109Y-33752115D01*
X120199584Y-33626585D01*
X120237100Y-33486575D01*
X120237100Y-33341625D01*
X120199584Y-33201615D01*
X120194552Y-33192900D01*
X120127111Y-33076088D01*
X120127106Y-33076082D01*
X120073419Y-33022395D01*
X120039934Y-32961072D01*
X120037100Y-32934714D01*
X120037100Y-29494058D01*
X120037100Y-29494056D01*
X120013214Y-29404912D01*
X120011055Y-29401173D01*
X119967070Y-29324988D01*
X117016120Y-26374038D01*
X124399500Y-26374038D01*
X124399500Y-26625962D01*
X124414453Y-26720369D01*
X124438910Y-26874785D01*
X124516760Y-27114383D01*
X124631132Y-27338848D01*
X124779201Y-27542649D01*
X124779205Y-27542654D01*
X124957345Y-27720794D01*
X124957350Y-27720798D01*
X125113604Y-27834322D01*
X125161155Y-27868870D01*
X125304184Y-27941747D01*
X125385616Y-27983239D01*
X125385618Y-27983239D01*
X125385621Y-27983241D01*
X125625215Y-28061090D01*
X125874038Y-28100500D01*
X125874039Y-28100500D01*
X126125961Y-28100500D01*
X126125962Y-28100500D01*
X126374785Y-28061090D01*
X126614379Y-27983241D01*
X126838845Y-27868870D01*
X127042656Y-27720793D01*
X127220793Y-27542656D01*
X127368870Y-27338845D01*
X127483241Y-27114379D01*
X127561090Y-26874785D01*
X127600500Y-26625962D01*
X127600500Y-26374038D01*
X127561090Y-26125215D01*
X127483241Y-25885621D01*
X127483239Y-25885618D01*
X127483239Y-25885616D01*
X127380872Y-25684711D01*
X127368870Y-25661155D01*
X127298796Y-25564706D01*
X127220798Y-25457350D01*
X127220794Y-25457345D01*
X127042654Y-25279205D01*
X127042649Y-25279201D01*
X126838848Y-25131132D01*
X126838847Y-25131131D01*
X126838845Y-25131130D01*
X126768747Y-25095413D01*
X126614383Y-25016760D01*
X126374785Y-24938910D01*
X126171717Y-24906747D01*
X126125962Y-24899500D01*
X125874038Y-24899500D01*
X125828283Y-24906747D01*
X125625214Y-24938910D01*
X125385616Y-25016760D01*
X125161151Y-25131132D01*
X124957350Y-25279201D01*
X124957345Y-25279205D01*
X124779205Y-25457345D01*
X124779201Y-25457350D01*
X124631132Y-25661151D01*
X124516760Y-25885616D01*
X124457699Y-26067388D01*
X124438910Y-26125215D01*
X124399500Y-26374038D01*
X117016120Y-26374038D01*
X108684312Y-18042230D01*
X108684311Y-18042229D01*
X108684308Y-18042227D01*
X108604390Y-17996087D01*
X108604389Y-17996086D01*
X108604388Y-17996086D01*
X108515244Y-17972200D01*
X108515243Y-17972200D01*
X99457786Y-17972200D01*
X99390747Y-17952515D01*
X99370105Y-17935881D01*
X99316417Y-17882193D01*
X99316411Y-17882188D01*
X99190888Y-17809717D01*
X99190889Y-17809717D01*
X99179406Y-17806640D01*
X99050875Y-17772200D01*
X98905925Y-17772200D01*
X98777393Y-17806640D01*
X98765911Y-17809717D01*
X98640388Y-17882188D01*
X98640382Y-17882193D01*
X98537893Y-17984682D01*
X98537888Y-17984688D01*
X98465417Y-18110211D01*
X98465416Y-18110215D01*
X98427900Y-18250225D01*
X98427900Y-18395175D01*
X98465416Y-18535185D01*
X98465417Y-18535188D01*
X98537888Y-18660711D01*
X98537893Y-18660717D01*
X98591581Y-18714405D01*
X98625066Y-18775728D01*
X98627900Y-18802086D01*
X98627900Y-19150856D01*
X98608215Y-19217895D01*
X98591581Y-19238537D01*
X91924481Y-25905637D01*
X91863158Y-25939122D01*
X91793466Y-25934138D01*
X91737533Y-25892266D01*
X91713116Y-25826802D01*
X91712800Y-25817956D01*
X91712800Y-24789958D01*
X91712800Y-24789956D01*
X91688914Y-24700812D01*
X91688911Y-24700806D01*
X91642773Y-24620894D01*
X91642770Y-24620891D01*
X91642769Y-24620888D01*
X91577512Y-24555631D01*
X91237812Y-24215930D01*
X91237811Y-24215929D01*
X91237808Y-24215927D01*
X91157890Y-24169787D01*
X91157889Y-24169786D01*
X91157888Y-24169786D01*
X91068744Y-24145900D01*
X88173356Y-24145900D01*
X88084212Y-24169786D01*
X88084211Y-24169786D01*
X88084209Y-24169787D01*
X88084206Y-24169788D01*
X88004294Y-24215926D01*
X88004285Y-24215933D01*
X81549037Y-30671181D01*
X81487714Y-30704666D01*
X81461356Y-30707500D01*
X81385425Y-30707500D01*
X81256893Y-30741940D01*
X81245411Y-30745017D01*
X81119888Y-30817488D01*
X81119882Y-30817493D01*
X81017393Y-30919982D01*
X81017388Y-30919988D01*
X80944917Y-31045511D01*
X80944916Y-31045515D01*
X80907400Y-31185525D01*
X80907400Y-31330475D01*
X80936862Y-31440427D01*
X80944917Y-31470488D01*
X81017388Y-31596011D01*
X81017393Y-31596017D01*
X81071081Y-31649705D01*
X81104566Y-31711028D01*
X81107400Y-31737386D01*
X81107400Y-38245056D01*
X81087715Y-38312095D01*
X81071081Y-38332737D01*
X79014037Y-40389781D01*
X78952714Y-40423266D01*
X78926356Y-40426100D01*
X78850425Y-40426100D01*
X78721893Y-40460540D01*
X78710411Y-40463617D01*
X78584888Y-40536088D01*
X78584882Y-40536093D01*
X78482393Y-40638582D01*
X78482388Y-40638588D01*
X78409917Y-40764111D01*
X78409916Y-40764115D01*
X78372400Y-40904125D01*
X66500500Y-40904125D01*
X66500500Y-24973786D01*
X66520185Y-24906747D01*
X66572989Y-24860992D01*
X66642147Y-24851048D01*
X66705703Y-24880073D01*
X66712181Y-24886105D01*
X66714091Y-24888015D01*
X66816585Y-24990509D01*
X66816586Y-24990510D01*
X66816588Y-24990511D01*
X66942111Y-25062982D01*
X66942112Y-25062982D01*
X66942115Y-25062984D01*
X67082125Y-25100500D01*
X67082128Y-25100500D01*
X67227072Y-25100500D01*
X67227075Y-25100500D01*
X67367085Y-25062984D01*
X67492615Y-24990509D01*
X67595109Y-24888015D01*
X67667584Y-24762485D01*
X67705100Y-24622475D01*
X67705100Y-24477525D01*
X67667584Y-24337515D01*
X67658017Y-24320945D01*
X67658016Y-24320943D01*
X83399500Y-24320943D01*
X83399500Y-24479057D01*
X83437504Y-24620888D01*
X83440423Y-24631783D01*
X83440426Y-24631790D01*
X83519475Y-24768709D01*
X83519479Y-24768714D01*
X83519480Y-24768716D01*
X83631284Y-24880520D01*
X83631286Y-24880521D01*
X83631290Y-24880524D01*
X83732419Y-24938910D01*
X83768216Y-24959577D01*
X83920943Y-25000500D01*
X83920945Y-25000500D01*
X84079055Y-25000500D01*
X84079057Y-25000500D01*
X84231784Y-24959577D01*
X84368716Y-24880520D01*
X84480520Y-24768716D01*
X84559577Y-24631784D01*
X84600500Y-24479057D01*
X84600500Y-24320943D01*
X84559577Y-24168216D01*
X84540435Y-24135060D01*
X84480524Y-24031290D01*
X84480518Y-24031282D01*
X84368717Y-23919481D01*
X84368709Y-23919475D01*
X84231790Y-23840426D01*
X84231786Y-23840424D01*
X84231784Y-23840423D01*
X84079057Y-23799500D01*
X83920943Y-23799500D01*
X83768216Y-23840423D01*
X83768209Y-23840426D01*
X83631290Y-23919475D01*
X83631282Y-23919481D01*
X83519481Y-24031282D01*
X83519475Y-24031290D01*
X83440426Y-24168209D01*
X83440423Y-24168216D01*
X83399500Y-24320943D01*
X67658016Y-24320943D01*
X67595111Y-24211988D01*
X67595106Y-24211982D01*
X67541419Y-24158295D01*
X67507934Y-24096972D01*
X67505100Y-24070614D01*
X67505100Y-22520943D01*
X83399500Y-22520943D01*
X83399500Y-22679056D01*
X83440423Y-22831783D01*
X83440426Y-22831790D01*
X83519475Y-22968709D01*
X83519479Y-22968714D01*
X83519480Y-22968716D01*
X83631284Y-23080520D01*
X83631286Y-23080521D01*
X83631290Y-23080524D01*
X83768209Y-23159573D01*
X83768216Y-23159577D01*
X83920943Y-23200500D01*
X83920945Y-23200500D01*
X84079055Y-23200500D01*
X84079057Y-23200500D01*
X84231784Y-23159577D01*
X84368716Y-23080520D01*
X84480520Y-22968716D01*
X84559577Y-22831784D01*
X84600500Y-22679057D01*
X84600500Y-22520943D01*
X84559577Y-22368216D01*
X84559573Y-22368209D01*
X84480524Y-22231290D01*
X84480518Y-22231282D01*
X84368717Y-22119481D01*
X84368709Y-22119475D01*
X84231790Y-22040426D01*
X84231786Y-22040424D01*
X84231784Y-22040423D01*
X84079057Y-21999500D01*
X83920943Y-21999500D01*
X83768216Y-22040423D01*
X83768209Y-22040426D01*
X83631290Y-22119475D01*
X83631282Y-22119481D01*
X83519481Y-22231282D01*
X83519475Y-22231290D01*
X83440426Y-22368209D01*
X83440423Y-22368216D01*
X83399500Y-22520943D01*
X67505100Y-22520943D01*
X67505100Y-16199658D01*
X67505100Y-16199656D01*
X67481214Y-16110512D01*
X67455060Y-16065212D01*
X67435070Y-16030588D01*
X67345619Y-15941137D01*
X67312134Y-15879814D01*
X67309300Y-15853456D01*
X67309300Y-15777527D01*
X67309300Y-15777525D01*
X67271784Y-15637515D01*
X67199309Y-15511985D01*
X67096815Y-15409491D01*
X67096813Y-15409490D01*
X67096811Y-15409488D01*
X66971288Y-15337017D01*
X66971289Y-15337017D01*
X66959806Y-15333940D01*
X66831275Y-15299500D01*
X66686325Y-15299500D01*
X66557793Y-15333940D01*
X66546311Y-15337017D01*
X66420788Y-15409488D01*
X66420782Y-15409493D01*
X66318293Y-15511982D01*
X66318288Y-15511988D01*
X66245817Y-15637511D01*
X66245816Y-15637515D01*
X66208300Y-15777525D01*
X66208300Y-15922475D01*
X66213301Y-15941137D01*
X66245817Y-16062488D01*
X66318288Y-16188011D01*
X66318290Y-16188013D01*
X66318291Y-16188015D01*
X66420785Y-16290509D01*
X66420786Y-16290510D01*
X66420788Y-16290511D01*
X66546311Y-16362982D01*
X66546312Y-16362982D01*
X66546315Y-16362984D01*
X66686325Y-16400500D01*
X66686328Y-16400500D01*
X66694385Y-16401561D01*
X66693987Y-16404577D01*
X66747139Y-16420185D01*
X66792894Y-16472989D01*
X66804100Y-16524500D01*
X66804100Y-24070614D01*
X66784415Y-24137653D01*
X66767781Y-24158295D01*
X66712181Y-24213895D01*
X66650858Y-24247380D01*
X66581166Y-24242396D01*
X66525233Y-24200524D01*
X66500816Y-24135060D01*
X66500500Y-24126214D01*
X66500500Y-19934110D01*
X66500500Y-19934108D01*
X66466392Y-19806814D01*
X66416613Y-19720594D01*
X66400000Y-19658594D01*
X66400000Y-19600000D01*
X66341406Y-19600000D01*
X66279406Y-19583387D01*
X66193188Y-19533609D01*
X66193187Y-19533608D01*
X66193186Y-19533608D01*
X66065892Y-19499500D01*
X66065891Y-19499500D01*
X624500Y-19499500D01*
X557461Y-19479815D01*
X511706Y-19427011D01*
X500500Y-19375500D01*
X500500Y-4374038D01*
X4399500Y-4374038D01*
X4399500Y-4625961D01*
X4438910Y-4874785D01*
X4516760Y-5114383D01*
X4631132Y-5338848D01*
X4779201Y-5542649D01*
X4779205Y-5542654D01*
X4957345Y-5720794D01*
X4957350Y-5720798D01*
X5135117Y-5849952D01*
X5161155Y-5868870D01*
X5304184Y-5941747D01*
X5385616Y-5983239D01*
X5385618Y-5983239D01*
X5385621Y-5983241D01*
X5625215Y-6061090D01*
X5874038Y-6100500D01*
X5874039Y-6100500D01*
X6125961Y-6100500D01*
X6125962Y-6100500D01*
X6374785Y-6061090D01*
X6614379Y-5983241D01*
X6838845Y-5868870D01*
X7042656Y-5720793D01*
X7220793Y-5542656D01*
X7368870Y-5338845D01*
X7483241Y-5114379D01*
X7561090Y-4874785D01*
X7600500Y-4625962D01*
X7600500Y-4374038D01*
X179399500Y-4374038D01*
X179399500Y-4625961D01*
X179438910Y-4874785D01*
X179516760Y-5114383D01*
X179631132Y-5338848D01*
X179779201Y-5542649D01*
X179779205Y-5542654D01*
X179957345Y-5720794D01*
X179957350Y-5720798D01*
X180135117Y-5849952D01*
X180161155Y-5868870D01*
X180304184Y-5941747D01*
X180385616Y-5983239D01*
X180385618Y-5983239D01*
X180385621Y-5983241D01*
X180625215Y-6061090D01*
X180874038Y-6100500D01*
X180874039Y-6100500D01*
X181125961Y-6100500D01*
X181125962Y-6100500D01*
X181374785Y-6061090D01*
X181614379Y-5983241D01*
X181838845Y-5868870D01*
X182042656Y-5720793D01*
X182220793Y-5542656D01*
X182368870Y-5338845D01*
X182483241Y-5114379D01*
X182561090Y-4874785D01*
X182600500Y-4625962D01*
X182600500Y-4374038D01*
X182561090Y-4125215D01*
X182483241Y-3885621D01*
X182483239Y-3885618D01*
X182483239Y-3885616D01*
X182441747Y-3804184D01*
X182368870Y-3661155D01*
X182349952Y-3635117D01*
X182220798Y-3457350D01*
X182220794Y-3457345D01*
X182042654Y-3279205D01*
X182042649Y-3279201D01*
X181838848Y-3131132D01*
X181838847Y-3131131D01*
X181838845Y-3131130D01*
X181768747Y-3095413D01*
X181614383Y-3016760D01*
X181374785Y-2938910D01*
X181125962Y-2899500D01*
X180874038Y-2899500D01*
X180749626Y-2919205D01*
X180625214Y-2938910D01*
X180385616Y-3016760D01*
X180161151Y-3131132D01*
X179957350Y-3279201D01*
X179957345Y-3279205D01*
X179779205Y-3457345D01*
X179779201Y-3457350D01*
X179631132Y-3661151D01*
X179516760Y-3885616D01*
X179438910Y-4125214D01*
X179399500Y-4374038D01*
X7600500Y-4374038D01*
X7561090Y-4125215D01*
X7483241Y-3885621D01*
X7483239Y-3885618D01*
X7483239Y-3885616D01*
X7441747Y-3804184D01*
X7368870Y-3661155D01*
X7349952Y-3635117D01*
X7220798Y-3457350D01*
X7220794Y-3457345D01*
X7042654Y-3279205D01*
X7042649Y-3279201D01*
X6838848Y-3131132D01*
X6838847Y-3131131D01*
X6838845Y-3131130D01*
X6768747Y-3095413D01*
X6614383Y-3016760D01*
X6374785Y-2938910D01*
X6125962Y-2899500D01*
X5874038Y-2899500D01*
X5749626Y-2919205D01*
X5625214Y-2938910D01*
X5385616Y-3016760D01*
X5161151Y-3131132D01*
X4957350Y-3279201D01*
X4957345Y-3279205D01*
X4779205Y-3457345D01*
X4779201Y-3457350D01*
X4631132Y-3661151D01*
X4516760Y-3885616D01*
X4438910Y-4125214D01*
X4399500Y-4374038D01*
X500500Y-4374038D01*
X500500Y-624500D01*
X520185Y-557461D01*
X572989Y-511706D01*
X624500Y-500500D01*
X186375500Y-500500D01*
X186442539Y-520185D01*
G37*
%TD.AperFunction*%
%TD*%
M02*
