%TF.GenerationSoftware,KiCad,Pcbnew,10.0.5*%
%TF.CreationDate,2026-08-20T16:31:47+02:00*%
%TF.ProjectId,ember,656d6265-722e-46b6-9963-61645f706362,rev?*%
%TF.SameCoordinates,Original*%
%TF.FileFunction,Legend,Top*%
%TF.FilePolarity,Positive*%
%FSLAX46Y46*%
G04 Gerber Fmt 4.6, Leading zero omitted, Abs format (unit mm)*
G04 Created by KiCad (PCBNEW 10.0.5) date 2026-08-20 16:31:47*
%MOMM*%
%LPD*%
G01*
G04 APERTURE LIST*
%ADD10C,0.150000*%
%ADD11C,0.160000*%
%ADD12C,0.360000*%
%ADD13C,0.120000*%
G04 APERTURE END LIST*
D10*
X94209523Y-50943247D02*
X94476189Y-50943247D01*
X94590475Y-51362295D02*
X94209523Y-51362295D01*
X94209523Y-51362295D02*
X94209523Y-50562295D01*
X94209523Y-50562295D02*
X94590475Y-50562295D01*
X94933333Y-51362295D02*
X94933333Y-50562295D01*
X94933333Y-50562295D02*
X95199999Y-51133723D01*
X95199999Y-51133723D02*
X95466666Y-50562295D01*
X95466666Y-50562295D02*
X95466666Y-51362295D01*
X96114285Y-50943247D02*
X96228571Y-50981342D01*
X96228571Y-50981342D02*
X96266666Y-51019438D01*
X96266666Y-51019438D02*
X96304762Y-51095628D01*
X96304762Y-51095628D02*
X96304762Y-51209914D01*
X96304762Y-51209914D02*
X96266666Y-51286104D01*
X96266666Y-51286104D02*
X96228571Y-51324200D01*
X96228571Y-51324200D02*
X96152381Y-51362295D01*
X96152381Y-51362295D02*
X95847619Y-51362295D01*
X95847619Y-51362295D02*
X95847619Y-50562295D01*
X95847619Y-50562295D02*
X96114285Y-50562295D01*
X96114285Y-50562295D02*
X96190476Y-50600390D01*
X96190476Y-50600390D02*
X96228571Y-50638485D01*
X96228571Y-50638485D02*
X96266666Y-50714676D01*
X96266666Y-50714676D02*
X96266666Y-50790866D01*
X96266666Y-50790866D02*
X96228571Y-50867057D01*
X96228571Y-50867057D02*
X96190476Y-50905152D01*
X96190476Y-50905152D02*
X96114285Y-50943247D01*
X96114285Y-50943247D02*
X95847619Y-50943247D01*
X96647619Y-50943247D02*
X96914285Y-50943247D01*
X97028571Y-51362295D02*
X96647619Y-51362295D01*
X96647619Y-51362295D02*
X96647619Y-50562295D01*
X96647619Y-50562295D02*
X97028571Y-50562295D01*
X97828572Y-51362295D02*
X97561905Y-50981342D01*
X97371429Y-51362295D02*
X97371429Y-50562295D01*
X97371429Y-50562295D02*
X97676191Y-50562295D01*
X97676191Y-50562295D02*
X97752381Y-50600390D01*
X97752381Y-50600390D02*
X97790476Y-50638485D01*
X97790476Y-50638485D02*
X97828572Y-50714676D01*
X97828572Y-50714676D02*
X97828572Y-50828961D01*
X97828572Y-50828961D02*
X97790476Y-50905152D01*
X97790476Y-50905152D02*
X97752381Y-50943247D01*
X97752381Y-50943247D02*
X97676191Y-50981342D01*
X97676191Y-50981342D02*
X97371429Y-50981342D01*
D11*
X79121428Y-5936608D02*
X79421428Y-5936608D01*
X79550000Y-6408037D02*
X79121428Y-6408037D01*
X79121428Y-6408037D02*
X79121428Y-5508037D01*
X79121428Y-5508037D02*
X79550000Y-5508037D01*
X79935714Y-6408037D02*
X79935714Y-5508037D01*
X79935714Y-5508037D02*
X80235714Y-6150894D01*
X80235714Y-6150894D02*
X80535714Y-5508037D01*
X80535714Y-5508037D02*
X80535714Y-6408037D01*
X80964285Y-6065180D02*
X81650000Y-6065180D01*
X82550000Y-6408037D02*
X82035714Y-6408037D01*
X82292857Y-6408037D02*
X82292857Y-5508037D01*
X82292857Y-5508037D02*
X82207143Y-5636608D01*
X82207143Y-5636608D02*
X82121428Y-5722322D01*
X82121428Y-5722322D02*
X82035714Y-5765180D01*
X83364286Y-5508037D02*
X82935714Y-5508037D01*
X82935714Y-5508037D02*
X82892857Y-5936608D01*
X82892857Y-5936608D02*
X82935714Y-5893751D01*
X82935714Y-5893751D02*
X83021429Y-5850894D01*
X83021429Y-5850894D02*
X83235714Y-5850894D01*
X83235714Y-5850894D02*
X83321429Y-5893751D01*
X83321429Y-5893751D02*
X83364286Y-5936608D01*
X83364286Y-5936608D02*
X83407143Y-6022322D01*
X83407143Y-6022322D02*
X83407143Y-6236608D01*
X83407143Y-6236608D02*
X83364286Y-6322322D01*
X83364286Y-6322322D02*
X83321429Y-6365180D01*
X83321429Y-6365180D02*
X83235714Y-6408037D01*
X83235714Y-6408037D02*
X83021429Y-6408037D01*
X83021429Y-6408037D02*
X82935714Y-6365180D01*
X82935714Y-6365180D02*
X82892857Y-6322322D01*
X84478571Y-6408037D02*
X84478571Y-5808037D01*
X84478571Y-5979465D02*
X84521428Y-5893751D01*
X84521428Y-5893751D02*
X84564286Y-5850894D01*
X84564286Y-5850894D02*
X84650000Y-5808037D01*
X84650000Y-5808037D02*
X84735714Y-5808037D01*
X85378571Y-6365180D02*
X85292857Y-6408037D01*
X85292857Y-6408037D02*
X85121429Y-6408037D01*
X85121429Y-6408037D02*
X85035714Y-6365180D01*
X85035714Y-6365180D02*
X84992857Y-6279465D01*
X84992857Y-6279465D02*
X84992857Y-5936608D01*
X84992857Y-5936608D02*
X85035714Y-5850894D01*
X85035714Y-5850894D02*
X85121429Y-5808037D01*
X85121429Y-5808037D02*
X85292857Y-5808037D01*
X85292857Y-5808037D02*
X85378571Y-5850894D01*
X85378571Y-5850894D02*
X85421429Y-5936608D01*
X85421429Y-5936608D02*
X85421429Y-6022322D01*
X85421429Y-6022322D02*
X84992857Y-6108037D01*
X85721429Y-5808037D02*
X85935715Y-6408037D01*
X85935715Y-6408037D02*
X86150000Y-5808037D01*
X87178571Y-6408037D02*
X87178571Y-5508037D01*
X89792856Y-6022322D02*
X89749999Y-6065180D01*
X89749999Y-6065180D02*
X89792856Y-6108037D01*
X89792856Y-6108037D02*
X89835713Y-6065180D01*
X89835713Y-6065180D02*
X89792856Y-6022322D01*
X89792856Y-6022322D02*
X89792856Y-6108037D01*
X93135712Y-5722322D02*
X93049997Y-5679465D01*
X93049997Y-5679465D02*
X92878569Y-5679465D01*
X92878569Y-5679465D02*
X92792855Y-5722322D01*
X92792855Y-5722322D02*
X92707140Y-5808037D01*
X92707140Y-5808037D02*
X92664283Y-5893751D01*
X92664283Y-5893751D02*
X92664283Y-6065180D01*
X92664283Y-6065180D02*
X92707140Y-6150894D01*
X92707140Y-6150894D02*
X92792855Y-6236608D01*
X92792855Y-6236608D02*
X92878569Y-6279465D01*
X92878569Y-6279465D02*
X93049997Y-6279465D01*
X93049997Y-6279465D02*
X93135712Y-6236608D01*
X92964283Y-5379465D02*
X92749997Y-5422322D01*
X92749997Y-5422322D02*
X92535712Y-5550894D01*
X92535712Y-5550894D02*
X92407140Y-5765180D01*
X92407140Y-5765180D02*
X92364283Y-5979465D01*
X92364283Y-5979465D02*
X92407140Y-6193751D01*
X92407140Y-6193751D02*
X92535712Y-6408037D01*
X92535712Y-6408037D02*
X92749997Y-6536608D01*
X92749997Y-6536608D02*
X92964283Y-6579465D01*
X92964283Y-6579465D02*
X93178569Y-6536608D01*
X93178569Y-6536608D02*
X93392855Y-6408037D01*
X93392855Y-6408037D02*
X93521426Y-6193751D01*
X93521426Y-6193751D02*
X93564283Y-5979465D01*
X93564283Y-5979465D02*
X93521426Y-5765180D01*
X93521426Y-5765180D02*
X93392855Y-5550894D01*
X93392855Y-5550894D02*
X93178569Y-5422322D01*
X93178569Y-5422322D02*
X92964283Y-5379465D01*
X94592854Y-5593751D02*
X94635711Y-5550894D01*
X94635711Y-5550894D02*
X94721426Y-5508037D01*
X94721426Y-5508037D02*
X94935711Y-5508037D01*
X94935711Y-5508037D02*
X95021426Y-5550894D01*
X95021426Y-5550894D02*
X95064283Y-5593751D01*
X95064283Y-5593751D02*
X95107140Y-5679465D01*
X95107140Y-5679465D02*
X95107140Y-5765180D01*
X95107140Y-5765180D02*
X95064283Y-5893751D01*
X95064283Y-5893751D02*
X94549997Y-6408037D01*
X94549997Y-6408037D02*
X95107140Y-6408037D01*
X95664283Y-5508037D02*
X95749997Y-5508037D01*
X95749997Y-5508037D02*
X95835711Y-5550894D01*
X95835711Y-5550894D02*
X95878569Y-5593751D01*
X95878569Y-5593751D02*
X95921426Y-5679465D01*
X95921426Y-5679465D02*
X95964283Y-5850894D01*
X95964283Y-5850894D02*
X95964283Y-6065180D01*
X95964283Y-6065180D02*
X95921426Y-6236608D01*
X95921426Y-6236608D02*
X95878569Y-6322322D01*
X95878569Y-6322322D02*
X95835711Y-6365180D01*
X95835711Y-6365180D02*
X95749997Y-6408037D01*
X95749997Y-6408037D02*
X95664283Y-6408037D01*
X95664283Y-6408037D02*
X95578569Y-6365180D01*
X95578569Y-6365180D02*
X95535711Y-6322322D01*
X95535711Y-6322322D02*
X95492854Y-6236608D01*
X95492854Y-6236608D02*
X95449997Y-6065180D01*
X95449997Y-6065180D02*
X95449997Y-5850894D01*
X95449997Y-5850894D02*
X95492854Y-5679465D01*
X95492854Y-5679465D02*
X95535711Y-5593751D01*
X95535711Y-5593751D02*
X95578569Y-5550894D01*
X95578569Y-5550894D02*
X95664283Y-5508037D01*
X96307140Y-5593751D02*
X96349997Y-5550894D01*
X96349997Y-5550894D02*
X96435712Y-5508037D01*
X96435712Y-5508037D02*
X96649997Y-5508037D01*
X96649997Y-5508037D02*
X96735712Y-5550894D01*
X96735712Y-5550894D02*
X96778569Y-5593751D01*
X96778569Y-5593751D02*
X96821426Y-5679465D01*
X96821426Y-5679465D02*
X96821426Y-5765180D01*
X96821426Y-5765180D02*
X96778569Y-5893751D01*
X96778569Y-5893751D02*
X96264283Y-6408037D01*
X96264283Y-6408037D02*
X96821426Y-6408037D01*
X97592855Y-5508037D02*
X97421426Y-5508037D01*
X97421426Y-5508037D02*
X97335712Y-5550894D01*
X97335712Y-5550894D02*
X97292855Y-5593751D01*
X97292855Y-5593751D02*
X97207140Y-5722322D01*
X97207140Y-5722322D02*
X97164283Y-5893751D01*
X97164283Y-5893751D02*
X97164283Y-6236608D01*
X97164283Y-6236608D02*
X97207140Y-6322322D01*
X97207140Y-6322322D02*
X97249997Y-6365180D01*
X97249997Y-6365180D02*
X97335712Y-6408037D01*
X97335712Y-6408037D02*
X97507140Y-6408037D01*
X97507140Y-6408037D02*
X97592855Y-6365180D01*
X97592855Y-6365180D02*
X97635712Y-6322322D01*
X97635712Y-6322322D02*
X97678569Y-6236608D01*
X97678569Y-6236608D02*
X97678569Y-6022322D01*
X97678569Y-6022322D02*
X97635712Y-5936608D01*
X97635712Y-5936608D02*
X97592855Y-5893751D01*
X97592855Y-5893751D02*
X97507140Y-5850894D01*
X97507140Y-5850894D02*
X97335712Y-5850894D01*
X97335712Y-5850894D02*
X97249997Y-5893751D01*
X97249997Y-5893751D02*
X97207140Y-5936608D01*
X97207140Y-5936608D02*
X97164283Y-6022322D01*
X99049997Y-5936608D02*
X98749997Y-5936608D01*
X98749997Y-6408037D02*
X98749997Y-5508037D01*
X98749997Y-5508037D02*
X99178569Y-5508037D01*
X99521426Y-6408037D02*
X99521426Y-5808037D01*
X99521426Y-5508037D02*
X99478569Y-5550894D01*
X99478569Y-5550894D02*
X99521426Y-5593751D01*
X99521426Y-5593751D02*
X99564283Y-5550894D01*
X99564283Y-5550894D02*
X99521426Y-5508037D01*
X99521426Y-5508037D02*
X99521426Y-5593751D01*
X100078569Y-6408037D02*
X99992854Y-6365180D01*
X99992854Y-6365180D02*
X99949997Y-6322322D01*
X99949997Y-6322322D02*
X99907140Y-6236608D01*
X99907140Y-6236608D02*
X99907140Y-5979465D01*
X99907140Y-5979465D02*
X99949997Y-5893751D01*
X99949997Y-5893751D02*
X99992854Y-5850894D01*
X99992854Y-5850894D02*
X100078569Y-5808037D01*
X100078569Y-5808037D02*
X100207140Y-5808037D01*
X100207140Y-5808037D02*
X100292854Y-5850894D01*
X100292854Y-5850894D02*
X100335712Y-5893751D01*
X100335712Y-5893751D02*
X100378569Y-5979465D01*
X100378569Y-5979465D02*
X100378569Y-6236608D01*
X100378569Y-6236608D02*
X100335712Y-6322322D01*
X100335712Y-6322322D02*
X100292854Y-6365180D01*
X100292854Y-6365180D02*
X100207140Y-6408037D01*
X100207140Y-6408037D02*
X100078569Y-6408037D01*
X100764283Y-5808037D02*
X100764283Y-6408037D01*
X100764283Y-5893751D02*
X100807140Y-5850894D01*
X100807140Y-5850894D02*
X100892855Y-5808037D01*
X100892855Y-5808037D02*
X101021426Y-5808037D01*
X101021426Y-5808037D02*
X101107140Y-5850894D01*
X101107140Y-5850894D02*
X101149998Y-5936608D01*
X101149998Y-5936608D02*
X101149998Y-6408037D01*
X101578569Y-5808037D02*
X101578569Y-6408037D01*
X101578569Y-5893751D02*
X101621426Y-5850894D01*
X101621426Y-5850894D02*
X101707141Y-5808037D01*
X101707141Y-5808037D02*
X101835712Y-5808037D01*
X101835712Y-5808037D02*
X101921426Y-5850894D01*
X101921426Y-5850894D02*
X101964284Y-5936608D01*
X101964284Y-5936608D02*
X101964284Y-6408037D01*
X103378569Y-5936608D02*
X103078569Y-5936608D01*
X103078569Y-6408037D02*
X103078569Y-5508037D01*
X103078569Y-5508037D02*
X103507141Y-5508037D01*
X104192855Y-6365180D02*
X104107141Y-6408037D01*
X104107141Y-6408037D02*
X103935713Y-6408037D01*
X103935713Y-6408037D02*
X103849998Y-6365180D01*
X103849998Y-6365180D02*
X103807141Y-6279465D01*
X103807141Y-6279465D02*
X103807141Y-5936608D01*
X103807141Y-5936608D02*
X103849998Y-5850894D01*
X103849998Y-5850894D02*
X103935713Y-5808037D01*
X103935713Y-5808037D02*
X104107141Y-5808037D01*
X104107141Y-5808037D02*
X104192855Y-5850894D01*
X104192855Y-5850894D02*
X104235713Y-5936608D01*
X104235713Y-5936608D02*
X104235713Y-6022322D01*
X104235713Y-6022322D02*
X103807141Y-6108037D01*
X104621427Y-6408037D02*
X104621427Y-5808037D01*
X104621427Y-5979465D02*
X104664284Y-5893751D01*
X104664284Y-5893751D02*
X104707142Y-5850894D01*
X104707142Y-5850894D02*
X104792856Y-5808037D01*
X104792856Y-5808037D02*
X104878570Y-5808037D01*
X105178570Y-6408037D02*
X105178570Y-5808037D01*
X105178570Y-5979465D02*
X105221427Y-5893751D01*
X105221427Y-5893751D02*
X105264285Y-5850894D01*
X105264285Y-5850894D02*
X105349999Y-5808037D01*
X105349999Y-5808037D02*
X105435713Y-5808037D01*
X106078570Y-6365180D02*
X105992856Y-6408037D01*
X105992856Y-6408037D02*
X105821428Y-6408037D01*
X105821428Y-6408037D02*
X105735713Y-6365180D01*
X105735713Y-6365180D02*
X105692856Y-6279465D01*
X105692856Y-6279465D02*
X105692856Y-5936608D01*
X105692856Y-5936608D02*
X105735713Y-5850894D01*
X105735713Y-5850894D02*
X105821428Y-5808037D01*
X105821428Y-5808037D02*
X105992856Y-5808037D01*
X105992856Y-5808037D02*
X106078570Y-5850894D01*
X106078570Y-5850894D02*
X106121428Y-5936608D01*
X106121428Y-5936608D02*
X106121428Y-6022322D01*
X106121428Y-6022322D02*
X105692856Y-6108037D01*
X106507142Y-6408037D02*
X106507142Y-5808037D01*
X106507142Y-5508037D02*
X106464285Y-5550894D01*
X106464285Y-5550894D02*
X106507142Y-5593751D01*
X106507142Y-5593751D02*
X106549999Y-5550894D01*
X106549999Y-5550894D02*
X106507142Y-5508037D01*
X106507142Y-5508037D02*
X106507142Y-5593751D01*
X106935713Y-6408037D02*
X106935713Y-5808037D01*
X106935713Y-5979465D02*
X106978570Y-5893751D01*
X106978570Y-5893751D02*
X107021428Y-5850894D01*
X107021428Y-5850894D02*
X107107142Y-5808037D01*
X107107142Y-5808037D02*
X107192856Y-5808037D01*
X107878571Y-6408037D02*
X107878571Y-5936608D01*
X107878571Y-5936608D02*
X107835713Y-5850894D01*
X107835713Y-5850894D02*
X107749999Y-5808037D01*
X107749999Y-5808037D02*
X107578571Y-5808037D01*
X107578571Y-5808037D02*
X107492856Y-5850894D01*
X107878571Y-6365180D02*
X107792856Y-6408037D01*
X107792856Y-6408037D02*
X107578571Y-6408037D01*
X107578571Y-6408037D02*
X107492856Y-6365180D01*
X107492856Y-6365180D02*
X107449999Y-6279465D01*
X107449999Y-6279465D02*
X107449999Y-6193751D01*
X107449999Y-6193751D02*
X107492856Y-6108037D01*
X107492856Y-6108037D02*
X107578571Y-6065180D01*
X107578571Y-6065180D02*
X107792856Y-6065180D01*
X107792856Y-6065180D02*
X107878571Y-6022322D01*
X93264286Y-35308037D02*
X93778572Y-35308037D01*
X93521429Y-36208037D02*
X93521429Y-35308037D01*
X93950000Y-35308037D02*
X94464286Y-35308037D01*
X94207143Y-36208037D02*
X94207143Y-35308037D01*
X94764285Y-36208037D02*
X94764285Y-35308037D01*
X94764285Y-35308037D02*
X95107142Y-35308037D01*
X95107142Y-35308037D02*
X95192857Y-35350894D01*
X95192857Y-35350894D02*
X95235714Y-35393751D01*
X95235714Y-35393751D02*
X95278571Y-35479465D01*
X95278571Y-35479465D02*
X95278571Y-35608037D01*
X95278571Y-35608037D02*
X95235714Y-35693751D01*
X95235714Y-35693751D02*
X95192857Y-35736608D01*
X95192857Y-35736608D02*
X95107142Y-35779465D01*
X95107142Y-35779465D02*
X94764285Y-35779465D01*
X95621428Y-35393751D02*
X95664285Y-35350894D01*
X95664285Y-35350894D02*
X95750000Y-35308037D01*
X95750000Y-35308037D02*
X95964285Y-35308037D01*
X95964285Y-35308037D02*
X96050000Y-35350894D01*
X96050000Y-35350894D02*
X96092857Y-35393751D01*
X96092857Y-35393751D02*
X96135714Y-35479465D01*
X96135714Y-35479465D02*
X96135714Y-35565180D01*
X96135714Y-35565180D02*
X96092857Y-35693751D01*
X96092857Y-35693751D02*
X95578571Y-36208037D01*
X95578571Y-36208037D02*
X96135714Y-36208037D01*
X96478571Y-35393751D02*
X96521428Y-35350894D01*
X96521428Y-35350894D02*
X96607143Y-35308037D01*
X96607143Y-35308037D02*
X96821428Y-35308037D01*
X96821428Y-35308037D02*
X96907143Y-35350894D01*
X96907143Y-35350894D02*
X96950000Y-35393751D01*
X96950000Y-35393751D02*
X96992857Y-35479465D01*
X96992857Y-35479465D02*
X96992857Y-35565180D01*
X96992857Y-35565180D02*
X96950000Y-35693751D01*
X96950000Y-35693751D02*
X96435714Y-36208037D01*
X96435714Y-36208037D02*
X96992857Y-36208037D01*
X97292857Y-35308037D02*
X97850000Y-35308037D01*
X97850000Y-35308037D02*
X97550000Y-35650894D01*
X97550000Y-35650894D02*
X97678571Y-35650894D01*
X97678571Y-35650894D02*
X97764286Y-35693751D01*
X97764286Y-35693751D02*
X97807143Y-35736608D01*
X97807143Y-35736608D02*
X97850000Y-35822322D01*
X97850000Y-35822322D02*
X97850000Y-36036608D01*
X97850000Y-36036608D02*
X97807143Y-36122322D01*
X97807143Y-36122322D02*
X97764286Y-36165180D01*
X97764286Y-36165180D02*
X97678571Y-36208037D01*
X97678571Y-36208037D02*
X97421428Y-36208037D01*
X97421428Y-36208037D02*
X97335714Y-36165180D01*
X97335714Y-36165180D02*
X97292857Y-36122322D01*
X99121428Y-28008037D02*
X99121428Y-27108037D01*
X99507142Y-27193751D02*
X99549999Y-27150894D01*
X99549999Y-27150894D02*
X99635714Y-27108037D01*
X99635714Y-27108037D02*
X99849999Y-27108037D01*
X99849999Y-27108037D02*
X99935714Y-27150894D01*
X99935714Y-27150894D02*
X99978571Y-27193751D01*
X99978571Y-27193751D02*
X100021428Y-27279465D01*
X100021428Y-27279465D02*
X100021428Y-27365180D01*
X100021428Y-27365180D02*
X99978571Y-27493751D01*
X99978571Y-27493751D02*
X99464285Y-28008037D01*
X99464285Y-28008037D02*
X100021428Y-28008037D01*
X100921428Y-27922322D02*
X100878571Y-27965180D01*
X100878571Y-27965180D02*
X100749999Y-28008037D01*
X100749999Y-28008037D02*
X100664285Y-28008037D01*
X100664285Y-28008037D02*
X100535714Y-27965180D01*
X100535714Y-27965180D02*
X100449999Y-27879465D01*
X100449999Y-27879465D02*
X100407142Y-27793751D01*
X100407142Y-27793751D02*
X100364285Y-27622322D01*
X100364285Y-27622322D02*
X100364285Y-27493751D01*
X100364285Y-27493751D02*
X100407142Y-27322322D01*
X100407142Y-27322322D02*
X100449999Y-27236608D01*
X100449999Y-27236608D02*
X100535714Y-27150894D01*
X100535714Y-27150894D02*
X100664285Y-27108037D01*
X100664285Y-27108037D02*
X100749999Y-27108037D01*
X100749999Y-27108037D02*
X100878571Y-27150894D01*
X100878571Y-27150894D02*
X100921428Y-27193751D01*
D12*
X88128571Y-3034422D02*
X88928571Y-3034422D01*
X89271428Y-4291565D02*
X88128571Y-4291565D01*
X88128571Y-4291565D02*
X88128571Y-1891565D01*
X88128571Y-1891565D02*
X89271428Y-1891565D01*
X90300000Y-4291565D02*
X90300000Y-1891565D01*
X90300000Y-1891565D02*
X91100000Y-3605851D01*
X91100000Y-3605851D02*
X91900000Y-1891565D01*
X91900000Y-1891565D02*
X91900000Y-4291565D01*
X93842857Y-3034422D02*
X94185714Y-3148708D01*
X94185714Y-3148708D02*
X94300000Y-3262994D01*
X94300000Y-3262994D02*
X94414286Y-3491565D01*
X94414286Y-3491565D02*
X94414286Y-3834422D01*
X94414286Y-3834422D02*
X94300000Y-4062994D01*
X94300000Y-4062994D02*
X94185714Y-4177280D01*
X94185714Y-4177280D02*
X93957143Y-4291565D01*
X93957143Y-4291565D02*
X93042857Y-4291565D01*
X93042857Y-4291565D02*
X93042857Y-1891565D01*
X93042857Y-1891565D02*
X93842857Y-1891565D01*
X93842857Y-1891565D02*
X94071429Y-2005851D01*
X94071429Y-2005851D02*
X94185714Y-2120137D01*
X94185714Y-2120137D02*
X94300000Y-2348708D01*
X94300000Y-2348708D02*
X94300000Y-2577280D01*
X94300000Y-2577280D02*
X94185714Y-2805851D01*
X94185714Y-2805851D02*
X94071429Y-2920137D01*
X94071429Y-2920137D02*
X93842857Y-3034422D01*
X93842857Y-3034422D02*
X93042857Y-3034422D01*
X95442857Y-3034422D02*
X96242857Y-3034422D01*
X96585714Y-4291565D02*
X95442857Y-4291565D01*
X95442857Y-4291565D02*
X95442857Y-1891565D01*
X95442857Y-1891565D02*
X96585714Y-1891565D01*
X98985715Y-4291565D02*
X98185715Y-3148708D01*
X97614286Y-4291565D02*
X97614286Y-1891565D01*
X97614286Y-1891565D02*
X98528572Y-1891565D01*
X98528572Y-1891565D02*
X98757143Y-2005851D01*
X98757143Y-2005851D02*
X98871429Y-2120137D01*
X98871429Y-2120137D02*
X98985715Y-2348708D01*
X98985715Y-2348708D02*
X98985715Y-2691565D01*
X98985715Y-2691565D02*
X98871429Y-2920137D01*
X98871429Y-2920137D02*
X98757143Y-3034422D01*
X98757143Y-3034422D02*
X98528572Y-3148708D01*
X98528572Y-3148708D02*
X97614286Y-3148708D01*
D10*
X70866667Y-30126104D02*
X70828571Y-30164200D01*
X70828571Y-30164200D02*
X70714286Y-30202295D01*
X70714286Y-30202295D02*
X70638095Y-30202295D01*
X70638095Y-30202295D02*
X70523809Y-30164200D01*
X70523809Y-30164200D02*
X70447619Y-30088009D01*
X70447619Y-30088009D02*
X70409524Y-30011819D01*
X70409524Y-30011819D02*
X70371428Y-29859438D01*
X70371428Y-29859438D02*
X70371428Y-29745152D01*
X70371428Y-29745152D02*
X70409524Y-29592771D01*
X70409524Y-29592771D02*
X70447619Y-29516580D01*
X70447619Y-29516580D02*
X70523809Y-29440390D01*
X70523809Y-29440390D02*
X70638095Y-29402295D01*
X70638095Y-29402295D02*
X70714286Y-29402295D01*
X70714286Y-29402295D02*
X70828571Y-29440390D01*
X70828571Y-29440390D02*
X70866667Y-29478485D01*
X71552381Y-29402295D02*
X71400000Y-29402295D01*
X71400000Y-29402295D02*
X71323809Y-29440390D01*
X71323809Y-29440390D02*
X71285714Y-29478485D01*
X71285714Y-29478485D02*
X71209524Y-29592771D01*
X71209524Y-29592771D02*
X71171428Y-29745152D01*
X71171428Y-29745152D02*
X71171428Y-30049914D01*
X71171428Y-30049914D02*
X71209524Y-30126104D01*
X71209524Y-30126104D02*
X71247619Y-30164200D01*
X71247619Y-30164200D02*
X71323809Y-30202295D01*
X71323809Y-30202295D02*
X71476190Y-30202295D01*
X71476190Y-30202295D02*
X71552381Y-30164200D01*
X71552381Y-30164200D02*
X71590476Y-30126104D01*
X71590476Y-30126104D02*
X71628571Y-30049914D01*
X71628571Y-30049914D02*
X71628571Y-29859438D01*
X71628571Y-29859438D02*
X71590476Y-29783247D01*
X71590476Y-29783247D02*
X71552381Y-29745152D01*
X71552381Y-29745152D02*
X71476190Y-29707057D01*
X71476190Y-29707057D02*
X71323809Y-29707057D01*
X71323809Y-29707057D02*
X71247619Y-29745152D01*
X71247619Y-29745152D02*
X71209524Y-29783247D01*
X71209524Y-29783247D02*
X71171428Y-29859438D01*
X88866667Y-45692295D02*
X88600000Y-45311342D01*
X88409524Y-45692295D02*
X88409524Y-44892295D01*
X88409524Y-44892295D02*
X88714286Y-44892295D01*
X88714286Y-44892295D02*
X88790476Y-44930390D01*
X88790476Y-44930390D02*
X88828571Y-44968485D01*
X88828571Y-44968485D02*
X88866667Y-45044676D01*
X88866667Y-45044676D02*
X88866667Y-45158961D01*
X88866667Y-45158961D02*
X88828571Y-45235152D01*
X88828571Y-45235152D02*
X88790476Y-45273247D01*
X88790476Y-45273247D02*
X88714286Y-45311342D01*
X88714286Y-45311342D02*
X88409524Y-45311342D01*
X89628571Y-45692295D02*
X89171428Y-45692295D01*
X89400000Y-45692295D02*
X89400000Y-44892295D01*
X89400000Y-44892295D02*
X89323809Y-45006580D01*
X89323809Y-45006580D02*
X89247619Y-45082771D01*
X89247619Y-45082771D02*
X89171428Y-45120866D01*
X100549523Y-33614295D02*
X101006666Y-33614295D01*
X100778094Y-34414295D02*
X100778094Y-33614295D01*
X101235237Y-34376200D02*
X101349523Y-34414295D01*
X101349523Y-34414295D02*
X101539999Y-34414295D01*
X101539999Y-34414295D02*
X101616190Y-34376200D01*
X101616190Y-34376200D02*
X101654285Y-34338104D01*
X101654285Y-34338104D02*
X101692380Y-34261914D01*
X101692380Y-34261914D02*
X101692380Y-34185723D01*
X101692380Y-34185723D02*
X101654285Y-34109533D01*
X101654285Y-34109533D02*
X101616190Y-34071438D01*
X101616190Y-34071438D02*
X101539999Y-34033342D01*
X101539999Y-34033342D02*
X101387618Y-33995247D01*
X101387618Y-33995247D02*
X101311428Y-33957152D01*
X101311428Y-33957152D02*
X101273333Y-33919057D01*
X101273333Y-33919057D02*
X101235237Y-33842866D01*
X101235237Y-33842866D02*
X101235237Y-33766676D01*
X101235237Y-33766676D02*
X101273333Y-33690485D01*
X101273333Y-33690485D02*
X101311428Y-33652390D01*
X101311428Y-33652390D02*
X101387618Y-33614295D01*
X101387618Y-33614295D02*
X101578095Y-33614295D01*
X101578095Y-33614295D02*
X101692380Y-33652390D01*
X102378095Y-33880961D02*
X102378095Y-34414295D01*
X102187619Y-33576200D02*
X101997142Y-34147628D01*
X101997142Y-34147628D02*
X102492381Y-34147628D01*
X87366667Y-30126104D02*
X87328571Y-30164200D01*
X87328571Y-30164200D02*
X87214286Y-30202295D01*
X87214286Y-30202295D02*
X87138095Y-30202295D01*
X87138095Y-30202295D02*
X87023809Y-30164200D01*
X87023809Y-30164200D02*
X86947619Y-30088009D01*
X86947619Y-30088009D02*
X86909524Y-30011819D01*
X86909524Y-30011819D02*
X86871428Y-29859438D01*
X86871428Y-29859438D02*
X86871428Y-29745152D01*
X86871428Y-29745152D02*
X86909524Y-29592771D01*
X86909524Y-29592771D02*
X86947619Y-29516580D01*
X86947619Y-29516580D02*
X87023809Y-29440390D01*
X87023809Y-29440390D02*
X87138095Y-29402295D01*
X87138095Y-29402295D02*
X87214286Y-29402295D01*
X87214286Y-29402295D02*
X87328571Y-29440390D01*
X87328571Y-29440390D02*
X87366667Y-29478485D01*
X87747619Y-30202295D02*
X87900000Y-30202295D01*
X87900000Y-30202295D02*
X87976190Y-30164200D01*
X87976190Y-30164200D02*
X88014286Y-30126104D01*
X88014286Y-30126104D02*
X88090476Y-30011819D01*
X88090476Y-30011819D02*
X88128571Y-29859438D01*
X88128571Y-29859438D02*
X88128571Y-29554676D01*
X88128571Y-29554676D02*
X88090476Y-29478485D01*
X88090476Y-29478485D02*
X88052381Y-29440390D01*
X88052381Y-29440390D02*
X87976190Y-29402295D01*
X87976190Y-29402295D02*
X87823809Y-29402295D01*
X87823809Y-29402295D02*
X87747619Y-29440390D01*
X87747619Y-29440390D02*
X87709524Y-29478485D01*
X87709524Y-29478485D02*
X87671428Y-29554676D01*
X87671428Y-29554676D02*
X87671428Y-29745152D01*
X87671428Y-29745152D02*
X87709524Y-29821342D01*
X87709524Y-29821342D02*
X87747619Y-29859438D01*
X87747619Y-29859438D02*
X87823809Y-29897533D01*
X87823809Y-29897533D02*
X87976190Y-29897533D01*
X87976190Y-29897533D02*
X88052381Y-29859438D01*
X88052381Y-29859438D02*
X88090476Y-29821342D01*
X88090476Y-29821342D02*
X88128571Y-29745152D01*
X77733333Y-39762295D02*
X77733333Y-40333723D01*
X77733333Y-40333723D02*
X77695238Y-40448009D01*
X77695238Y-40448009D02*
X77619047Y-40524200D01*
X77619047Y-40524200D02*
X77504762Y-40562295D01*
X77504762Y-40562295D02*
X77428571Y-40562295D01*
X78457143Y-40028961D02*
X78457143Y-40562295D01*
X78266667Y-39724200D02*
X78076190Y-40295628D01*
X78076190Y-40295628D02*
X78571429Y-40295628D01*
X103089523Y-33614295D02*
X103546666Y-33614295D01*
X103318094Y-34414295D02*
X103318094Y-33614295D01*
X103775237Y-34376200D02*
X103889523Y-34414295D01*
X103889523Y-34414295D02*
X104079999Y-34414295D01*
X104079999Y-34414295D02*
X104156190Y-34376200D01*
X104156190Y-34376200D02*
X104194285Y-34338104D01*
X104194285Y-34338104D02*
X104232380Y-34261914D01*
X104232380Y-34261914D02*
X104232380Y-34185723D01*
X104232380Y-34185723D02*
X104194285Y-34109533D01*
X104194285Y-34109533D02*
X104156190Y-34071438D01*
X104156190Y-34071438D02*
X104079999Y-34033342D01*
X104079999Y-34033342D02*
X103927618Y-33995247D01*
X103927618Y-33995247D02*
X103851428Y-33957152D01*
X103851428Y-33957152D02*
X103813333Y-33919057D01*
X103813333Y-33919057D02*
X103775237Y-33842866D01*
X103775237Y-33842866D02*
X103775237Y-33766676D01*
X103775237Y-33766676D02*
X103813333Y-33690485D01*
X103813333Y-33690485D02*
X103851428Y-33652390D01*
X103851428Y-33652390D02*
X103927618Y-33614295D01*
X103927618Y-33614295D02*
X104118095Y-33614295D01*
X104118095Y-33614295D02*
X104232380Y-33652390D01*
X104956190Y-33614295D02*
X104575238Y-33614295D01*
X104575238Y-33614295D02*
X104537142Y-33995247D01*
X104537142Y-33995247D02*
X104575238Y-33957152D01*
X104575238Y-33957152D02*
X104651428Y-33919057D01*
X104651428Y-33919057D02*
X104841904Y-33919057D01*
X104841904Y-33919057D02*
X104918095Y-33957152D01*
X104918095Y-33957152D02*
X104956190Y-33995247D01*
X104956190Y-33995247D02*
X104994285Y-34071438D01*
X104994285Y-34071438D02*
X104994285Y-34261914D01*
X104994285Y-34261914D02*
X104956190Y-34338104D01*
X104956190Y-34338104D02*
X104918095Y-34376200D01*
X104918095Y-34376200D02*
X104841904Y-34414295D01*
X104841904Y-34414295D02*
X104651428Y-34414295D01*
X104651428Y-34414295D02*
X104575238Y-34376200D01*
X104575238Y-34376200D02*
X104537142Y-34338104D01*
X98923809Y-21038485D02*
X98847619Y-21000390D01*
X98847619Y-21000390D02*
X98771428Y-20924200D01*
X98771428Y-20924200D02*
X98657142Y-20809914D01*
X98657142Y-20809914D02*
X98580952Y-20771819D01*
X98580952Y-20771819D02*
X98504761Y-20771819D01*
X98542857Y-20962295D02*
X98466666Y-20924200D01*
X98466666Y-20924200D02*
X98390476Y-20848009D01*
X98390476Y-20848009D02*
X98352380Y-20695628D01*
X98352380Y-20695628D02*
X98352380Y-20428961D01*
X98352380Y-20428961D02*
X98390476Y-20276580D01*
X98390476Y-20276580D02*
X98466666Y-20200390D01*
X98466666Y-20200390D02*
X98542857Y-20162295D01*
X98542857Y-20162295D02*
X98695238Y-20162295D01*
X98695238Y-20162295D02*
X98771428Y-20200390D01*
X98771428Y-20200390D02*
X98847619Y-20276580D01*
X98847619Y-20276580D02*
X98885714Y-20428961D01*
X98885714Y-20428961D02*
X98885714Y-20695628D01*
X98885714Y-20695628D02*
X98847619Y-20848009D01*
X98847619Y-20848009D02*
X98771428Y-20924200D01*
X98771428Y-20924200D02*
X98695238Y-20962295D01*
X98695238Y-20962295D02*
X98542857Y-20962295D01*
X99647618Y-20962295D02*
X99190475Y-20962295D01*
X99419047Y-20962295D02*
X99419047Y-20162295D01*
X99419047Y-20162295D02*
X99342856Y-20276580D01*
X99342856Y-20276580D02*
X99266666Y-20352771D01*
X99266666Y-20352771D02*
X99190475Y-20390866D01*
X97733333Y-42917295D02*
X97733333Y-43488723D01*
X97733333Y-43488723D02*
X97695238Y-43603009D01*
X97695238Y-43603009D02*
X97619047Y-43679200D01*
X97619047Y-43679200D02*
X97504762Y-43717295D01*
X97504762Y-43717295D02*
X97428571Y-43717295D01*
X98533333Y-43717295D02*
X98076190Y-43717295D01*
X98304762Y-43717295D02*
X98304762Y-42917295D01*
X98304762Y-42917295D02*
X98228571Y-43031580D01*
X98228571Y-43031580D02*
X98152381Y-43107771D01*
X98152381Y-43107771D02*
X98076190Y-43145866D01*
X114390476Y-47062295D02*
X114390476Y-47709914D01*
X114390476Y-47709914D02*
X114428571Y-47786104D01*
X114428571Y-47786104D02*
X114466666Y-47824200D01*
X114466666Y-47824200D02*
X114542857Y-47862295D01*
X114542857Y-47862295D02*
X114695238Y-47862295D01*
X114695238Y-47862295D02*
X114771428Y-47824200D01*
X114771428Y-47824200D02*
X114809523Y-47786104D01*
X114809523Y-47786104D02*
X114847619Y-47709914D01*
X114847619Y-47709914D02*
X114847619Y-47062295D01*
X115647618Y-47862295D02*
X115190475Y-47862295D01*
X115419047Y-47862295D02*
X115419047Y-47062295D01*
X115419047Y-47062295D02*
X115342856Y-47176580D01*
X115342856Y-47176580D02*
X115266666Y-47252771D01*
X115266666Y-47252771D02*
X115190475Y-47290866D01*
X110238094Y-44019104D02*
X110714284Y-44019104D01*
X110142856Y-44304819D02*
X110476189Y-43304819D01*
X110476189Y-43304819D02*
X110809522Y-44304819D01*
X111142856Y-43638152D02*
X111142856Y-44304819D01*
X111142856Y-43733390D02*
X111190475Y-43685771D01*
X111190475Y-43685771D02*
X111285713Y-43638152D01*
X111285713Y-43638152D02*
X111428570Y-43638152D01*
X111428570Y-43638152D02*
X111523808Y-43685771D01*
X111523808Y-43685771D02*
X111571427Y-43781009D01*
X111571427Y-43781009D02*
X111571427Y-44304819D01*
X111904761Y-43638152D02*
X112285713Y-43638152D01*
X112047618Y-43304819D02*
X112047618Y-44161961D01*
X112047618Y-44161961D02*
X112095237Y-44257200D01*
X112095237Y-44257200D02*
X112190475Y-44304819D01*
X112190475Y-44304819D02*
X112285713Y-44304819D01*
X112999999Y-44257200D02*
X112904761Y-44304819D01*
X112904761Y-44304819D02*
X112714285Y-44304819D01*
X112714285Y-44304819D02*
X112619047Y-44257200D01*
X112619047Y-44257200D02*
X112571428Y-44161961D01*
X112571428Y-44161961D02*
X112571428Y-43781009D01*
X112571428Y-43781009D02*
X112619047Y-43685771D01*
X112619047Y-43685771D02*
X112714285Y-43638152D01*
X112714285Y-43638152D02*
X112904761Y-43638152D01*
X112904761Y-43638152D02*
X112999999Y-43685771D01*
X112999999Y-43685771D02*
X113047618Y-43781009D01*
X113047618Y-43781009D02*
X113047618Y-43876247D01*
X113047618Y-43876247D02*
X112571428Y-43971485D01*
X113476190Y-43638152D02*
X113476190Y-44304819D01*
X113476190Y-43733390D02*
X113523809Y-43685771D01*
X113523809Y-43685771D02*
X113619047Y-43638152D01*
X113619047Y-43638152D02*
X113761904Y-43638152D01*
X113761904Y-43638152D02*
X113857142Y-43685771D01*
X113857142Y-43685771D02*
X113904761Y-43781009D01*
X113904761Y-43781009D02*
X113904761Y-44304819D01*
X114380952Y-43638152D02*
X114380952Y-44304819D01*
X114380952Y-43733390D02*
X114428571Y-43685771D01*
X114428571Y-43685771D02*
X114523809Y-43638152D01*
X114523809Y-43638152D02*
X114666666Y-43638152D01*
X114666666Y-43638152D02*
X114761904Y-43685771D01*
X114761904Y-43685771D02*
X114809523Y-43781009D01*
X114809523Y-43781009D02*
X114809523Y-44304819D01*
X115714285Y-44304819D02*
X115714285Y-43781009D01*
X115714285Y-43781009D02*
X115666666Y-43685771D01*
X115666666Y-43685771D02*
X115571428Y-43638152D01*
X115571428Y-43638152D02*
X115380952Y-43638152D01*
X115380952Y-43638152D02*
X115285714Y-43685771D01*
X115714285Y-44257200D02*
X115619047Y-44304819D01*
X115619047Y-44304819D02*
X115380952Y-44304819D01*
X115380952Y-44304819D02*
X115285714Y-44257200D01*
X115285714Y-44257200D02*
X115238095Y-44161961D01*
X115238095Y-44161961D02*
X115238095Y-44066723D01*
X115238095Y-44066723D02*
X115285714Y-43971485D01*
X115285714Y-43971485D02*
X115380952Y-43923866D01*
X115380952Y-43923866D02*
X115619047Y-43923866D01*
X115619047Y-43923866D02*
X115714285Y-43876247D01*
X116904762Y-44019104D02*
X117380952Y-44019104D01*
X116809524Y-44304819D02*
X117142857Y-43304819D01*
X117142857Y-43304819D02*
X117476190Y-44304819D01*
X117809524Y-44304819D02*
X117809524Y-43638152D01*
X117809524Y-43828628D02*
X117857143Y-43733390D01*
X117857143Y-43733390D02*
X117904762Y-43685771D01*
X117904762Y-43685771D02*
X118000000Y-43638152D01*
X118000000Y-43638152D02*
X118095238Y-43638152D01*
X118809524Y-44257200D02*
X118714286Y-44304819D01*
X118714286Y-44304819D02*
X118523810Y-44304819D01*
X118523810Y-44304819D02*
X118428572Y-44257200D01*
X118428572Y-44257200D02*
X118380953Y-44161961D01*
X118380953Y-44161961D02*
X118380953Y-43781009D01*
X118380953Y-43781009D02*
X118428572Y-43685771D01*
X118428572Y-43685771D02*
X118523810Y-43638152D01*
X118523810Y-43638152D02*
X118714286Y-43638152D01*
X118714286Y-43638152D02*
X118809524Y-43685771D01*
X118809524Y-43685771D02*
X118857143Y-43781009D01*
X118857143Y-43781009D02*
X118857143Y-43876247D01*
X118857143Y-43876247D02*
X118380953Y-43971485D01*
X119714286Y-44304819D02*
X119714286Y-43781009D01*
X119714286Y-43781009D02*
X119666667Y-43685771D01*
X119666667Y-43685771D02*
X119571429Y-43638152D01*
X119571429Y-43638152D02*
X119380953Y-43638152D01*
X119380953Y-43638152D02*
X119285715Y-43685771D01*
X119714286Y-44257200D02*
X119619048Y-44304819D01*
X119619048Y-44304819D02*
X119380953Y-44304819D01*
X119380953Y-44304819D02*
X119285715Y-44257200D01*
X119285715Y-44257200D02*
X119238096Y-44161961D01*
X119238096Y-44161961D02*
X119238096Y-44066723D01*
X119238096Y-44066723D02*
X119285715Y-43971485D01*
X119285715Y-43971485D02*
X119380953Y-43923866D01*
X119380953Y-43923866D02*
X119619048Y-43923866D01*
X119619048Y-43923866D02*
X119714286Y-43876247D01*
X12428995Y-11533333D02*
X12428995Y-11914285D01*
X12428995Y-11914285D02*
X11628995Y-11914285D01*
X12428995Y-11266666D02*
X11628995Y-11266666D01*
X11628995Y-11266666D02*
X11628995Y-11076190D01*
X11628995Y-11076190D02*
X11667090Y-10961904D01*
X11667090Y-10961904D02*
X11743280Y-10885714D01*
X11743280Y-10885714D02*
X11819471Y-10847619D01*
X11819471Y-10847619D02*
X11971852Y-10809523D01*
X11971852Y-10809523D02*
X12086138Y-10809523D01*
X12086138Y-10809523D02*
X12238519Y-10847619D01*
X12238519Y-10847619D02*
X12314709Y-10885714D01*
X12314709Y-10885714D02*
X12390900Y-10961904D01*
X12390900Y-10961904D02*
X12428995Y-11076190D01*
X12428995Y-11076190D02*
X12428995Y-11266666D01*
X12428995Y-10047619D02*
X12428995Y-10504762D01*
X12428995Y-10276190D02*
X11628995Y-10276190D01*
X11628995Y-10276190D02*
X11743280Y-10352381D01*
X11743280Y-10352381D02*
X11819471Y-10428571D01*
X11819471Y-10428571D02*
X11857566Y-10504762D01*
X14328995Y-14771428D02*
X14328995Y-15228571D01*
X14328995Y-14999999D02*
X13528995Y-14999999D01*
X13528995Y-14999999D02*
X13643280Y-15076190D01*
X13643280Y-15076190D02*
X13719471Y-15152380D01*
X13719471Y-15152380D02*
X13757566Y-15228571D01*
X82933332Y-21324200D02*
X83047618Y-21362295D01*
X83047618Y-21362295D02*
X83238094Y-21362295D01*
X83238094Y-21362295D02*
X83314285Y-21324200D01*
X83314285Y-21324200D02*
X83352380Y-21286104D01*
X83352380Y-21286104D02*
X83390475Y-21209914D01*
X83390475Y-21209914D02*
X83390475Y-21133723D01*
X83390475Y-21133723D02*
X83352380Y-21057533D01*
X83352380Y-21057533D02*
X83314285Y-21019438D01*
X83314285Y-21019438D02*
X83238094Y-20981342D01*
X83238094Y-20981342D02*
X83085713Y-20943247D01*
X83085713Y-20943247D02*
X83009523Y-20905152D01*
X83009523Y-20905152D02*
X82971428Y-20867057D01*
X82971428Y-20867057D02*
X82933332Y-20790866D01*
X82933332Y-20790866D02*
X82933332Y-20714676D01*
X82933332Y-20714676D02*
X82971428Y-20638485D01*
X82971428Y-20638485D02*
X83009523Y-20600390D01*
X83009523Y-20600390D02*
X83085713Y-20562295D01*
X83085713Y-20562295D02*
X83276190Y-20562295D01*
X83276190Y-20562295D02*
X83390475Y-20600390D01*
X83657142Y-20562295D02*
X83847618Y-21362295D01*
X83847618Y-21362295D02*
X83999999Y-20790866D01*
X83999999Y-20790866D02*
X84152380Y-21362295D01*
X84152380Y-21362295D02*
X84342857Y-20562295D01*
X85066666Y-21362295D02*
X84609523Y-21362295D01*
X84838095Y-21362295D02*
X84838095Y-20562295D01*
X84838095Y-20562295D02*
X84761904Y-20676580D01*
X84761904Y-20676580D02*
X84685714Y-20752771D01*
X84685714Y-20752771D02*
X84609523Y-20790866D01*
X92366667Y-30192295D02*
X92100000Y-29811342D01*
X91909524Y-30192295D02*
X91909524Y-29392295D01*
X91909524Y-29392295D02*
X92214286Y-29392295D01*
X92214286Y-29392295D02*
X92290476Y-29430390D01*
X92290476Y-29430390D02*
X92328571Y-29468485D01*
X92328571Y-29468485D02*
X92366667Y-29544676D01*
X92366667Y-29544676D02*
X92366667Y-29658961D01*
X92366667Y-29658961D02*
X92328571Y-29735152D01*
X92328571Y-29735152D02*
X92290476Y-29773247D01*
X92290476Y-29773247D02*
X92214286Y-29811342D01*
X92214286Y-29811342D02*
X91909524Y-29811342D01*
X93090476Y-29392295D02*
X92709524Y-29392295D01*
X92709524Y-29392295D02*
X92671428Y-29773247D01*
X92671428Y-29773247D02*
X92709524Y-29735152D01*
X92709524Y-29735152D02*
X92785714Y-29697057D01*
X92785714Y-29697057D02*
X92976190Y-29697057D01*
X92976190Y-29697057D02*
X93052381Y-29735152D01*
X93052381Y-29735152D02*
X93090476Y-29773247D01*
X93090476Y-29773247D02*
X93128571Y-29849438D01*
X93128571Y-29849438D02*
X93128571Y-30039914D01*
X93128571Y-30039914D02*
X93090476Y-30116104D01*
X93090476Y-30116104D02*
X93052381Y-30154200D01*
X93052381Y-30154200D02*
X92976190Y-30192295D01*
X92976190Y-30192295D02*
X92785714Y-30192295D01*
X92785714Y-30192295D02*
X92709524Y-30154200D01*
X92709524Y-30154200D02*
X92671428Y-30116104D01*
X94866667Y-30192295D02*
X94600000Y-29811342D01*
X94409524Y-30192295D02*
X94409524Y-29392295D01*
X94409524Y-29392295D02*
X94714286Y-29392295D01*
X94714286Y-29392295D02*
X94790476Y-29430390D01*
X94790476Y-29430390D02*
X94828571Y-29468485D01*
X94828571Y-29468485D02*
X94866667Y-29544676D01*
X94866667Y-29544676D02*
X94866667Y-29658961D01*
X94866667Y-29658961D02*
X94828571Y-29735152D01*
X94828571Y-29735152D02*
X94790476Y-29773247D01*
X94790476Y-29773247D02*
X94714286Y-29811342D01*
X94714286Y-29811342D02*
X94409524Y-29811342D01*
X95552381Y-29392295D02*
X95400000Y-29392295D01*
X95400000Y-29392295D02*
X95323809Y-29430390D01*
X95323809Y-29430390D02*
X95285714Y-29468485D01*
X95285714Y-29468485D02*
X95209524Y-29582771D01*
X95209524Y-29582771D02*
X95171428Y-29735152D01*
X95171428Y-29735152D02*
X95171428Y-30039914D01*
X95171428Y-30039914D02*
X95209524Y-30116104D01*
X95209524Y-30116104D02*
X95247619Y-30154200D01*
X95247619Y-30154200D02*
X95323809Y-30192295D01*
X95323809Y-30192295D02*
X95476190Y-30192295D01*
X95476190Y-30192295D02*
X95552381Y-30154200D01*
X95552381Y-30154200D02*
X95590476Y-30116104D01*
X95590476Y-30116104D02*
X95628571Y-30039914D01*
X95628571Y-30039914D02*
X95628571Y-29849438D01*
X95628571Y-29849438D02*
X95590476Y-29773247D01*
X95590476Y-29773247D02*
X95552381Y-29735152D01*
X95552381Y-29735152D02*
X95476190Y-29697057D01*
X95476190Y-29697057D02*
X95323809Y-29697057D01*
X95323809Y-29697057D02*
X95247619Y-29735152D01*
X95247619Y-29735152D02*
X95209524Y-29773247D01*
X95209524Y-29773247D02*
X95171428Y-29849438D01*
X105159048Y-26214295D02*
X105159048Y-25414295D01*
X105463809Y-25414295D02*
X105959047Y-25414295D01*
X105959047Y-25414295D02*
X105692381Y-25719057D01*
X105692381Y-25719057D02*
X105806666Y-25719057D01*
X105806666Y-25719057D02*
X105882857Y-25757152D01*
X105882857Y-25757152D02*
X105920952Y-25795247D01*
X105920952Y-25795247D02*
X105959047Y-25871438D01*
X105959047Y-25871438D02*
X105959047Y-26061914D01*
X105959047Y-26061914D02*
X105920952Y-26138104D01*
X105920952Y-26138104D02*
X105882857Y-26176200D01*
X105882857Y-26176200D02*
X105806666Y-26214295D01*
X105806666Y-26214295D02*
X105578095Y-26214295D01*
X105578095Y-26214295D02*
X105501904Y-26176200D01*
X105501904Y-26176200D02*
X105463809Y-26138104D01*
X23562295Y-11533333D02*
X23562295Y-11914285D01*
X23562295Y-11914285D02*
X22762295Y-11914285D01*
X23562295Y-11266666D02*
X22762295Y-11266666D01*
X22762295Y-11266666D02*
X22762295Y-11076190D01*
X22762295Y-11076190D02*
X22800390Y-10961904D01*
X22800390Y-10961904D02*
X22876580Y-10885714D01*
X22876580Y-10885714D02*
X22952771Y-10847619D01*
X22952771Y-10847619D02*
X23105152Y-10809523D01*
X23105152Y-10809523D02*
X23219438Y-10809523D01*
X23219438Y-10809523D02*
X23371819Y-10847619D01*
X23371819Y-10847619D02*
X23448009Y-10885714D01*
X23448009Y-10885714D02*
X23524200Y-10961904D01*
X23524200Y-10961904D02*
X23562295Y-11076190D01*
X23562295Y-11076190D02*
X23562295Y-11266666D01*
X22838485Y-10504762D02*
X22800390Y-10466666D01*
X22800390Y-10466666D02*
X22762295Y-10390476D01*
X22762295Y-10390476D02*
X22762295Y-10200000D01*
X22762295Y-10200000D02*
X22800390Y-10123809D01*
X22800390Y-10123809D02*
X22838485Y-10085714D01*
X22838485Y-10085714D02*
X22914676Y-10047619D01*
X22914676Y-10047619D02*
X22990866Y-10047619D01*
X22990866Y-10047619D02*
X23105152Y-10085714D01*
X23105152Y-10085714D02*
X23562295Y-10542857D01*
X23562295Y-10542857D02*
X23562295Y-10047619D01*
X25462295Y-14771428D02*
X25462295Y-15228571D01*
X25462295Y-14999999D02*
X24662295Y-14999999D01*
X24662295Y-14999999D02*
X24776580Y-15076190D01*
X24776580Y-15076190D02*
X24852771Y-15152380D01*
X24852771Y-15152380D02*
X24890866Y-15228571D01*
X107699048Y-26214295D02*
X107699048Y-25414295D01*
X108499047Y-26214295D02*
X108041904Y-26214295D01*
X108270476Y-26214295D02*
X108270476Y-25414295D01*
X108270476Y-25414295D02*
X108194285Y-25528580D01*
X108194285Y-25528580D02*
X108118095Y-25604771D01*
X108118095Y-25604771D02*
X108041904Y-25642866D01*
X110239048Y-26214295D02*
X110239048Y-25414295D01*
X110581904Y-25490485D02*
X110620000Y-25452390D01*
X110620000Y-25452390D02*
X110696190Y-25414295D01*
X110696190Y-25414295D02*
X110886666Y-25414295D01*
X110886666Y-25414295D02*
X110962857Y-25452390D01*
X110962857Y-25452390D02*
X111000952Y-25490485D01*
X111000952Y-25490485D02*
X111039047Y-25566676D01*
X111039047Y-25566676D02*
X111039047Y-25642866D01*
X111039047Y-25642866D02*
X111000952Y-25757152D01*
X111000952Y-25757152D02*
X110543809Y-26214295D01*
X110543809Y-26214295D02*
X111039047Y-26214295D01*
X123762295Y-11914285D02*
X123762295Y-12295237D01*
X123762295Y-12295237D02*
X122962295Y-12295237D01*
X123762295Y-11647618D02*
X122962295Y-11647618D01*
X122962295Y-11647618D02*
X122962295Y-11457142D01*
X122962295Y-11457142D02*
X123000390Y-11342856D01*
X123000390Y-11342856D02*
X123076580Y-11266666D01*
X123076580Y-11266666D02*
X123152771Y-11228571D01*
X123152771Y-11228571D02*
X123305152Y-11190475D01*
X123305152Y-11190475D02*
X123419438Y-11190475D01*
X123419438Y-11190475D02*
X123571819Y-11228571D01*
X123571819Y-11228571D02*
X123648009Y-11266666D01*
X123648009Y-11266666D02*
X123724200Y-11342856D01*
X123724200Y-11342856D02*
X123762295Y-11457142D01*
X123762295Y-11457142D02*
X123762295Y-11647618D01*
X123762295Y-10428571D02*
X123762295Y-10885714D01*
X123762295Y-10657142D02*
X122962295Y-10657142D01*
X122962295Y-10657142D02*
X123076580Y-10733333D01*
X123076580Y-10733333D02*
X123152771Y-10809523D01*
X123152771Y-10809523D02*
X123190866Y-10885714D01*
X123762295Y-9666666D02*
X123762295Y-10123809D01*
X123762295Y-9895237D02*
X122962295Y-9895237D01*
X122962295Y-9895237D02*
X123076580Y-9971428D01*
X123076580Y-9971428D02*
X123152771Y-10047618D01*
X123152771Y-10047618D02*
X123190866Y-10123809D01*
X125662295Y-14771428D02*
X125662295Y-15228571D01*
X125662295Y-14999999D02*
X124862295Y-14999999D01*
X124862295Y-14999999D02*
X124976580Y-15076190D01*
X124976580Y-15076190D02*
X125052771Y-15152380D01*
X125052771Y-15152380D02*
X125090866Y-15228571D01*
X101495595Y-11533333D02*
X101495595Y-11914285D01*
X101495595Y-11914285D02*
X100695595Y-11914285D01*
X101495595Y-11266666D02*
X100695595Y-11266666D01*
X100695595Y-11266666D02*
X100695595Y-11076190D01*
X100695595Y-11076190D02*
X100733690Y-10961904D01*
X100733690Y-10961904D02*
X100809880Y-10885714D01*
X100809880Y-10885714D02*
X100886071Y-10847619D01*
X100886071Y-10847619D02*
X101038452Y-10809523D01*
X101038452Y-10809523D02*
X101152738Y-10809523D01*
X101152738Y-10809523D02*
X101305119Y-10847619D01*
X101305119Y-10847619D02*
X101381309Y-10885714D01*
X101381309Y-10885714D02*
X101457500Y-10961904D01*
X101457500Y-10961904D02*
X101495595Y-11076190D01*
X101495595Y-11076190D02*
X101495595Y-11266666D01*
X101495595Y-10428571D02*
X101495595Y-10276190D01*
X101495595Y-10276190D02*
X101457500Y-10200000D01*
X101457500Y-10200000D02*
X101419404Y-10161904D01*
X101419404Y-10161904D02*
X101305119Y-10085714D01*
X101305119Y-10085714D02*
X101152738Y-10047619D01*
X101152738Y-10047619D02*
X100847976Y-10047619D01*
X100847976Y-10047619D02*
X100771785Y-10085714D01*
X100771785Y-10085714D02*
X100733690Y-10123809D01*
X100733690Y-10123809D02*
X100695595Y-10200000D01*
X100695595Y-10200000D02*
X100695595Y-10352381D01*
X100695595Y-10352381D02*
X100733690Y-10428571D01*
X100733690Y-10428571D02*
X100771785Y-10466666D01*
X100771785Y-10466666D02*
X100847976Y-10504762D01*
X100847976Y-10504762D02*
X101038452Y-10504762D01*
X101038452Y-10504762D02*
X101114642Y-10466666D01*
X101114642Y-10466666D02*
X101152738Y-10428571D01*
X101152738Y-10428571D02*
X101190833Y-10352381D01*
X101190833Y-10352381D02*
X101190833Y-10200000D01*
X101190833Y-10200000D02*
X101152738Y-10123809D01*
X101152738Y-10123809D02*
X101114642Y-10085714D01*
X101114642Y-10085714D02*
X101038452Y-10047619D01*
X103395595Y-14771428D02*
X103395595Y-15228571D01*
X103395595Y-14999999D02*
X102595595Y-14999999D01*
X102595595Y-14999999D02*
X102709880Y-15076190D01*
X102709880Y-15076190D02*
X102786071Y-15152380D01*
X102786071Y-15152380D02*
X102824166Y-15228571D01*
X109890476Y-20162295D02*
X109890476Y-20809914D01*
X109890476Y-20809914D02*
X109928571Y-20886104D01*
X109928571Y-20886104D02*
X109966666Y-20924200D01*
X109966666Y-20924200D02*
X110042857Y-20962295D01*
X110042857Y-20962295D02*
X110195238Y-20962295D01*
X110195238Y-20962295D02*
X110271428Y-20924200D01*
X110271428Y-20924200D02*
X110309523Y-20886104D01*
X110309523Y-20886104D02*
X110347619Y-20809914D01*
X110347619Y-20809914D02*
X110347619Y-20162295D01*
X110652380Y-20162295D02*
X111147618Y-20162295D01*
X111147618Y-20162295D02*
X110880952Y-20467057D01*
X110880952Y-20467057D02*
X110995237Y-20467057D01*
X110995237Y-20467057D02*
X111071428Y-20505152D01*
X111071428Y-20505152D02*
X111109523Y-20543247D01*
X111109523Y-20543247D02*
X111147618Y-20619438D01*
X111147618Y-20619438D02*
X111147618Y-20809914D01*
X111147618Y-20809914D02*
X111109523Y-20886104D01*
X111109523Y-20886104D02*
X111071428Y-20924200D01*
X111071428Y-20924200D02*
X110995237Y-20962295D01*
X110995237Y-20962295D02*
X110766666Y-20962295D01*
X110766666Y-20962295D02*
X110690475Y-20924200D01*
X110690475Y-20924200D02*
X110652380Y-20886104D01*
X102619048Y-26214295D02*
X102619048Y-25414295D01*
X103342857Y-25680961D02*
X103342857Y-26214295D01*
X103152381Y-25376200D02*
X102961904Y-25947628D01*
X102961904Y-25947628D02*
X103457143Y-25947628D01*
X74866667Y-33692295D02*
X74600000Y-33311342D01*
X74409524Y-33692295D02*
X74409524Y-32892295D01*
X74409524Y-32892295D02*
X74714286Y-32892295D01*
X74714286Y-32892295D02*
X74790476Y-32930390D01*
X74790476Y-32930390D02*
X74828571Y-32968485D01*
X74828571Y-32968485D02*
X74866667Y-33044676D01*
X74866667Y-33044676D02*
X74866667Y-33158961D01*
X74866667Y-33158961D02*
X74828571Y-33235152D01*
X74828571Y-33235152D02*
X74790476Y-33273247D01*
X74790476Y-33273247D02*
X74714286Y-33311342D01*
X74714286Y-33311342D02*
X74409524Y-33311342D01*
X75133333Y-32892295D02*
X75628571Y-32892295D01*
X75628571Y-32892295D02*
X75361905Y-33197057D01*
X75361905Y-33197057D02*
X75476190Y-33197057D01*
X75476190Y-33197057D02*
X75552381Y-33235152D01*
X75552381Y-33235152D02*
X75590476Y-33273247D01*
X75590476Y-33273247D02*
X75628571Y-33349438D01*
X75628571Y-33349438D02*
X75628571Y-33539914D01*
X75628571Y-33539914D02*
X75590476Y-33616104D01*
X75590476Y-33616104D02*
X75552381Y-33654200D01*
X75552381Y-33654200D02*
X75476190Y-33692295D01*
X75476190Y-33692295D02*
X75247619Y-33692295D01*
X75247619Y-33692295D02*
X75171428Y-33654200D01*
X75171428Y-33654200D02*
X75133333Y-33616104D01*
X45828995Y-11533333D02*
X45828995Y-11914285D01*
X45828995Y-11914285D02*
X45028995Y-11914285D01*
X45828995Y-11266666D02*
X45028995Y-11266666D01*
X45028995Y-11266666D02*
X45028995Y-11076190D01*
X45028995Y-11076190D02*
X45067090Y-10961904D01*
X45067090Y-10961904D02*
X45143280Y-10885714D01*
X45143280Y-10885714D02*
X45219471Y-10847619D01*
X45219471Y-10847619D02*
X45371852Y-10809523D01*
X45371852Y-10809523D02*
X45486138Y-10809523D01*
X45486138Y-10809523D02*
X45638519Y-10847619D01*
X45638519Y-10847619D02*
X45714709Y-10885714D01*
X45714709Y-10885714D02*
X45790900Y-10961904D01*
X45790900Y-10961904D02*
X45828995Y-11076190D01*
X45828995Y-11076190D02*
X45828995Y-11266666D01*
X45295661Y-10123809D02*
X45828995Y-10123809D01*
X44990900Y-10314285D02*
X45562328Y-10504762D01*
X45562328Y-10504762D02*
X45562328Y-10009523D01*
X47728995Y-14771428D02*
X47728995Y-15228571D01*
X47728995Y-14999999D02*
X46928995Y-14999999D01*
X46928995Y-14999999D02*
X47043280Y-15076190D01*
X47043280Y-15076190D02*
X47119471Y-15152380D01*
X47119471Y-15152380D02*
X47157566Y-15228571D01*
X103366667Y-21592295D02*
X103100000Y-21211342D01*
X102909524Y-21592295D02*
X102909524Y-20792295D01*
X102909524Y-20792295D02*
X103214286Y-20792295D01*
X103214286Y-20792295D02*
X103290476Y-20830390D01*
X103290476Y-20830390D02*
X103328571Y-20868485D01*
X103328571Y-20868485D02*
X103366667Y-20944676D01*
X103366667Y-20944676D02*
X103366667Y-21058961D01*
X103366667Y-21058961D02*
X103328571Y-21135152D01*
X103328571Y-21135152D02*
X103290476Y-21173247D01*
X103290476Y-21173247D02*
X103214286Y-21211342D01*
X103214286Y-21211342D02*
X102909524Y-21211342D01*
X103823809Y-21135152D02*
X103747619Y-21097057D01*
X103747619Y-21097057D02*
X103709524Y-21058961D01*
X103709524Y-21058961D02*
X103671428Y-20982771D01*
X103671428Y-20982771D02*
X103671428Y-20944676D01*
X103671428Y-20944676D02*
X103709524Y-20868485D01*
X103709524Y-20868485D02*
X103747619Y-20830390D01*
X103747619Y-20830390D02*
X103823809Y-20792295D01*
X103823809Y-20792295D02*
X103976190Y-20792295D01*
X103976190Y-20792295D02*
X104052381Y-20830390D01*
X104052381Y-20830390D02*
X104090476Y-20868485D01*
X104090476Y-20868485D02*
X104128571Y-20944676D01*
X104128571Y-20944676D02*
X104128571Y-20982771D01*
X104128571Y-20982771D02*
X104090476Y-21058961D01*
X104090476Y-21058961D02*
X104052381Y-21097057D01*
X104052381Y-21097057D02*
X103976190Y-21135152D01*
X103976190Y-21135152D02*
X103823809Y-21135152D01*
X103823809Y-21135152D02*
X103747619Y-21173247D01*
X103747619Y-21173247D02*
X103709524Y-21211342D01*
X103709524Y-21211342D02*
X103671428Y-21287533D01*
X103671428Y-21287533D02*
X103671428Y-21439914D01*
X103671428Y-21439914D02*
X103709524Y-21516104D01*
X103709524Y-21516104D02*
X103747619Y-21554200D01*
X103747619Y-21554200D02*
X103823809Y-21592295D01*
X103823809Y-21592295D02*
X103976190Y-21592295D01*
X103976190Y-21592295D02*
X104052381Y-21554200D01*
X104052381Y-21554200D02*
X104090476Y-21516104D01*
X104090476Y-21516104D02*
X104128571Y-21439914D01*
X104128571Y-21439914D02*
X104128571Y-21287533D01*
X104128571Y-21287533D02*
X104090476Y-21211342D01*
X104090476Y-21211342D02*
X104052381Y-21173247D01*
X104052381Y-21173247D02*
X103976190Y-21135152D01*
X98009523Y-33614295D02*
X98466666Y-33614295D01*
X98238094Y-34414295D02*
X98238094Y-33614295D01*
X98695237Y-34376200D02*
X98809523Y-34414295D01*
X98809523Y-34414295D02*
X98999999Y-34414295D01*
X98999999Y-34414295D02*
X99076190Y-34376200D01*
X99076190Y-34376200D02*
X99114285Y-34338104D01*
X99114285Y-34338104D02*
X99152380Y-34261914D01*
X99152380Y-34261914D02*
X99152380Y-34185723D01*
X99152380Y-34185723D02*
X99114285Y-34109533D01*
X99114285Y-34109533D02*
X99076190Y-34071438D01*
X99076190Y-34071438D02*
X98999999Y-34033342D01*
X98999999Y-34033342D02*
X98847618Y-33995247D01*
X98847618Y-33995247D02*
X98771428Y-33957152D01*
X98771428Y-33957152D02*
X98733333Y-33919057D01*
X98733333Y-33919057D02*
X98695237Y-33842866D01*
X98695237Y-33842866D02*
X98695237Y-33766676D01*
X98695237Y-33766676D02*
X98733333Y-33690485D01*
X98733333Y-33690485D02*
X98771428Y-33652390D01*
X98771428Y-33652390D02*
X98847618Y-33614295D01*
X98847618Y-33614295D02*
X99038095Y-33614295D01*
X99038095Y-33614295D02*
X99152380Y-33652390D01*
X99419047Y-33614295D02*
X99914285Y-33614295D01*
X99914285Y-33614295D02*
X99647619Y-33919057D01*
X99647619Y-33919057D02*
X99761904Y-33919057D01*
X99761904Y-33919057D02*
X99838095Y-33957152D01*
X99838095Y-33957152D02*
X99876190Y-33995247D01*
X99876190Y-33995247D02*
X99914285Y-34071438D01*
X99914285Y-34071438D02*
X99914285Y-34261914D01*
X99914285Y-34261914D02*
X99876190Y-34338104D01*
X99876190Y-34338104D02*
X99838095Y-34376200D01*
X99838095Y-34376200D02*
X99761904Y-34414295D01*
X99761904Y-34414295D02*
X99533333Y-34414295D01*
X99533333Y-34414295D02*
X99457142Y-34376200D01*
X99457142Y-34376200D02*
X99419047Y-34338104D01*
X77985714Y-30192295D02*
X77719047Y-29811342D01*
X77528571Y-30192295D02*
X77528571Y-29392295D01*
X77528571Y-29392295D02*
X77833333Y-29392295D01*
X77833333Y-29392295D02*
X77909523Y-29430390D01*
X77909523Y-29430390D02*
X77947618Y-29468485D01*
X77947618Y-29468485D02*
X77985714Y-29544676D01*
X77985714Y-29544676D02*
X77985714Y-29658961D01*
X77985714Y-29658961D02*
X77947618Y-29735152D01*
X77947618Y-29735152D02*
X77909523Y-29773247D01*
X77909523Y-29773247D02*
X77833333Y-29811342D01*
X77833333Y-29811342D02*
X77528571Y-29811342D01*
X78747618Y-30192295D02*
X78290475Y-30192295D01*
X78519047Y-30192295D02*
X78519047Y-29392295D01*
X78519047Y-29392295D02*
X78442856Y-29506580D01*
X78442856Y-29506580D02*
X78366666Y-29582771D01*
X78366666Y-29582771D02*
X78290475Y-29620866D01*
X79509523Y-30192295D02*
X79052380Y-30192295D01*
X79280952Y-30192295D02*
X79280952Y-29392295D01*
X79280952Y-29392295D02*
X79204761Y-29506580D01*
X79204761Y-29506580D02*
X79128571Y-29582771D01*
X79128571Y-29582771D02*
X79052380Y-29620866D01*
X157162295Y-11914285D02*
X157162295Y-12295237D01*
X157162295Y-12295237D02*
X156362295Y-12295237D01*
X157162295Y-11647618D02*
X156362295Y-11647618D01*
X156362295Y-11647618D02*
X156362295Y-11457142D01*
X156362295Y-11457142D02*
X156400390Y-11342856D01*
X156400390Y-11342856D02*
X156476580Y-11266666D01*
X156476580Y-11266666D02*
X156552771Y-11228571D01*
X156552771Y-11228571D02*
X156705152Y-11190475D01*
X156705152Y-11190475D02*
X156819438Y-11190475D01*
X156819438Y-11190475D02*
X156971819Y-11228571D01*
X156971819Y-11228571D02*
X157048009Y-11266666D01*
X157048009Y-11266666D02*
X157124200Y-11342856D01*
X157124200Y-11342856D02*
X157162295Y-11457142D01*
X157162295Y-11457142D02*
X157162295Y-11647618D01*
X157162295Y-10428571D02*
X157162295Y-10885714D01*
X157162295Y-10657142D02*
X156362295Y-10657142D01*
X156362295Y-10657142D02*
X156476580Y-10733333D01*
X156476580Y-10733333D02*
X156552771Y-10809523D01*
X156552771Y-10809523D02*
X156590866Y-10885714D01*
X156628961Y-9742856D02*
X157162295Y-9742856D01*
X156324200Y-9933332D02*
X156895628Y-10123809D01*
X156895628Y-10123809D02*
X156895628Y-9628570D01*
X159062295Y-14771428D02*
X159062295Y-15228571D01*
X159062295Y-14999999D02*
X158262295Y-14999999D01*
X158262295Y-14999999D02*
X158376580Y-15076190D01*
X158376580Y-15076190D02*
X158452771Y-15152380D01*
X158452771Y-15152380D02*
X158490866Y-15228571D01*
X90362295Y-11533333D02*
X90362295Y-11914285D01*
X90362295Y-11914285D02*
X89562295Y-11914285D01*
X90362295Y-11266666D02*
X89562295Y-11266666D01*
X89562295Y-11266666D02*
X89562295Y-11076190D01*
X89562295Y-11076190D02*
X89600390Y-10961904D01*
X89600390Y-10961904D02*
X89676580Y-10885714D01*
X89676580Y-10885714D02*
X89752771Y-10847619D01*
X89752771Y-10847619D02*
X89905152Y-10809523D01*
X89905152Y-10809523D02*
X90019438Y-10809523D01*
X90019438Y-10809523D02*
X90171819Y-10847619D01*
X90171819Y-10847619D02*
X90248009Y-10885714D01*
X90248009Y-10885714D02*
X90324200Y-10961904D01*
X90324200Y-10961904D02*
X90362295Y-11076190D01*
X90362295Y-11076190D02*
X90362295Y-11266666D01*
X89905152Y-10352381D02*
X89867057Y-10428571D01*
X89867057Y-10428571D02*
X89828961Y-10466666D01*
X89828961Y-10466666D02*
X89752771Y-10504762D01*
X89752771Y-10504762D02*
X89714676Y-10504762D01*
X89714676Y-10504762D02*
X89638485Y-10466666D01*
X89638485Y-10466666D02*
X89600390Y-10428571D01*
X89600390Y-10428571D02*
X89562295Y-10352381D01*
X89562295Y-10352381D02*
X89562295Y-10200000D01*
X89562295Y-10200000D02*
X89600390Y-10123809D01*
X89600390Y-10123809D02*
X89638485Y-10085714D01*
X89638485Y-10085714D02*
X89714676Y-10047619D01*
X89714676Y-10047619D02*
X89752771Y-10047619D01*
X89752771Y-10047619D02*
X89828961Y-10085714D01*
X89828961Y-10085714D02*
X89867057Y-10123809D01*
X89867057Y-10123809D02*
X89905152Y-10200000D01*
X89905152Y-10200000D02*
X89905152Y-10352381D01*
X89905152Y-10352381D02*
X89943247Y-10428571D01*
X89943247Y-10428571D02*
X89981342Y-10466666D01*
X89981342Y-10466666D02*
X90057533Y-10504762D01*
X90057533Y-10504762D02*
X90209914Y-10504762D01*
X90209914Y-10504762D02*
X90286104Y-10466666D01*
X90286104Y-10466666D02*
X90324200Y-10428571D01*
X90324200Y-10428571D02*
X90362295Y-10352381D01*
X90362295Y-10352381D02*
X90362295Y-10200000D01*
X90362295Y-10200000D02*
X90324200Y-10123809D01*
X90324200Y-10123809D02*
X90286104Y-10085714D01*
X90286104Y-10085714D02*
X90209914Y-10047619D01*
X90209914Y-10047619D02*
X90057533Y-10047619D01*
X90057533Y-10047619D02*
X89981342Y-10085714D01*
X89981342Y-10085714D02*
X89943247Y-10123809D01*
X89943247Y-10123809D02*
X89905152Y-10200000D01*
X92262295Y-14771428D02*
X92262295Y-15228571D01*
X92262295Y-14999999D02*
X91462295Y-14999999D01*
X91462295Y-14999999D02*
X91576580Y-15076190D01*
X91576580Y-15076190D02*
X91652771Y-15152380D01*
X91652771Y-15152380D02*
X91690866Y-15228571D01*
X74390476Y-28162295D02*
X74390476Y-28809914D01*
X74390476Y-28809914D02*
X74428571Y-28886104D01*
X74428571Y-28886104D02*
X74466666Y-28924200D01*
X74466666Y-28924200D02*
X74542857Y-28962295D01*
X74542857Y-28962295D02*
X74695238Y-28962295D01*
X74695238Y-28962295D02*
X74771428Y-28924200D01*
X74771428Y-28924200D02*
X74809523Y-28886104D01*
X74809523Y-28886104D02*
X74847619Y-28809914D01*
X74847619Y-28809914D02*
X74847619Y-28162295D01*
X75190475Y-28238485D02*
X75228571Y-28200390D01*
X75228571Y-28200390D02*
X75304761Y-28162295D01*
X75304761Y-28162295D02*
X75495237Y-28162295D01*
X75495237Y-28162295D02*
X75571428Y-28200390D01*
X75571428Y-28200390D02*
X75609523Y-28238485D01*
X75609523Y-28238485D02*
X75647618Y-28314676D01*
X75647618Y-28314676D02*
X75647618Y-28390866D01*
X75647618Y-28390866D02*
X75609523Y-28505152D01*
X75609523Y-28505152D02*
X75152380Y-28962295D01*
X75152380Y-28962295D02*
X75647618Y-28962295D01*
X146028995Y-11914285D02*
X146028995Y-12295237D01*
X146028995Y-12295237D02*
X145228995Y-12295237D01*
X146028995Y-11647618D02*
X145228995Y-11647618D01*
X145228995Y-11647618D02*
X145228995Y-11457142D01*
X145228995Y-11457142D02*
X145267090Y-11342856D01*
X145267090Y-11342856D02*
X145343280Y-11266666D01*
X145343280Y-11266666D02*
X145419471Y-11228571D01*
X145419471Y-11228571D02*
X145571852Y-11190475D01*
X145571852Y-11190475D02*
X145686138Y-11190475D01*
X145686138Y-11190475D02*
X145838519Y-11228571D01*
X145838519Y-11228571D02*
X145914709Y-11266666D01*
X145914709Y-11266666D02*
X145990900Y-11342856D01*
X145990900Y-11342856D02*
X146028995Y-11457142D01*
X146028995Y-11457142D02*
X146028995Y-11647618D01*
X146028995Y-10428571D02*
X146028995Y-10885714D01*
X146028995Y-10657142D02*
X145228995Y-10657142D01*
X145228995Y-10657142D02*
X145343280Y-10733333D01*
X145343280Y-10733333D02*
X145419471Y-10809523D01*
X145419471Y-10809523D02*
X145457566Y-10885714D01*
X145228995Y-10161904D02*
X145228995Y-9666666D01*
X145228995Y-9666666D02*
X145533757Y-9933332D01*
X145533757Y-9933332D02*
X145533757Y-9819047D01*
X145533757Y-9819047D02*
X145571852Y-9742856D01*
X145571852Y-9742856D02*
X145609947Y-9704761D01*
X145609947Y-9704761D02*
X145686138Y-9666666D01*
X145686138Y-9666666D02*
X145876614Y-9666666D01*
X145876614Y-9666666D02*
X145952804Y-9704761D01*
X145952804Y-9704761D02*
X145990900Y-9742856D01*
X145990900Y-9742856D02*
X146028995Y-9819047D01*
X146028995Y-9819047D02*
X146028995Y-10047618D01*
X146028995Y-10047618D02*
X145990900Y-10123809D01*
X145990900Y-10123809D02*
X145952804Y-10161904D01*
X147928995Y-14771428D02*
X147928995Y-15228571D01*
X147928995Y-14999999D02*
X147128995Y-14999999D01*
X147128995Y-14999999D02*
X147243280Y-15076190D01*
X147243280Y-15076190D02*
X147319471Y-15152380D01*
X147319471Y-15152380D02*
X147357566Y-15228571D01*
X105866667Y-21526104D02*
X105828571Y-21564200D01*
X105828571Y-21564200D02*
X105714286Y-21602295D01*
X105714286Y-21602295D02*
X105638095Y-21602295D01*
X105638095Y-21602295D02*
X105523809Y-21564200D01*
X105523809Y-21564200D02*
X105447619Y-21488009D01*
X105447619Y-21488009D02*
X105409524Y-21411819D01*
X105409524Y-21411819D02*
X105371428Y-21259438D01*
X105371428Y-21259438D02*
X105371428Y-21145152D01*
X105371428Y-21145152D02*
X105409524Y-20992771D01*
X105409524Y-20992771D02*
X105447619Y-20916580D01*
X105447619Y-20916580D02*
X105523809Y-20840390D01*
X105523809Y-20840390D02*
X105638095Y-20802295D01*
X105638095Y-20802295D02*
X105714286Y-20802295D01*
X105714286Y-20802295D02*
X105828571Y-20840390D01*
X105828571Y-20840390D02*
X105866667Y-20878485D01*
X106133333Y-20802295D02*
X106666667Y-20802295D01*
X106666667Y-20802295D02*
X106323809Y-21602295D01*
X56962295Y-11533333D02*
X56962295Y-11914285D01*
X56962295Y-11914285D02*
X56162295Y-11914285D01*
X56962295Y-11266666D02*
X56162295Y-11266666D01*
X56162295Y-11266666D02*
X56162295Y-11076190D01*
X56162295Y-11076190D02*
X56200390Y-10961904D01*
X56200390Y-10961904D02*
X56276580Y-10885714D01*
X56276580Y-10885714D02*
X56352771Y-10847619D01*
X56352771Y-10847619D02*
X56505152Y-10809523D01*
X56505152Y-10809523D02*
X56619438Y-10809523D01*
X56619438Y-10809523D02*
X56771819Y-10847619D01*
X56771819Y-10847619D02*
X56848009Y-10885714D01*
X56848009Y-10885714D02*
X56924200Y-10961904D01*
X56924200Y-10961904D02*
X56962295Y-11076190D01*
X56962295Y-11076190D02*
X56962295Y-11266666D01*
X56162295Y-10085714D02*
X56162295Y-10466666D01*
X56162295Y-10466666D02*
X56543247Y-10504762D01*
X56543247Y-10504762D02*
X56505152Y-10466666D01*
X56505152Y-10466666D02*
X56467057Y-10390476D01*
X56467057Y-10390476D02*
X56467057Y-10200000D01*
X56467057Y-10200000D02*
X56505152Y-10123809D01*
X56505152Y-10123809D02*
X56543247Y-10085714D01*
X56543247Y-10085714D02*
X56619438Y-10047619D01*
X56619438Y-10047619D02*
X56809914Y-10047619D01*
X56809914Y-10047619D02*
X56886104Y-10085714D01*
X56886104Y-10085714D02*
X56924200Y-10123809D01*
X56924200Y-10123809D02*
X56962295Y-10200000D01*
X56962295Y-10200000D02*
X56962295Y-10390476D01*
X56962295Y-10390476D02*
X56924200Y-10466666D01*
X56924200Y-10466666D02*
X56886104Y-10504762D01*
X58862295Y-14771428D02*
X58862295Y-15228571D01*
X58862295Y-14999999D02*
X58062295Y-14999999D01*
X58062295Y-14999999D02*
X58176580Y-15076190D01*
X58176580Y-15076190D02*
X58252771Y-15152380D01*
X58252771Y-15152380D02*
X58290866Y-15228571D01*
X72866667Y-19586104D02*
X72828571Y-19624200D01*
X72828571Y-19624200D02*
X72714286Y-19662295D01*
X72714286Y-19662295D02*
X72638095Y-19662295D01*
X72638095Y-19662295D02*
X72523809Y-19624200D01*
X72523809Y-19624200D02*
X72447619Y-19548009D01*
X72447619Y-19548009D02*
X72409524Y-19471819D01*
X72409524Y-19471819D02*
X72371428Y-19319438D01*
X72371428Y-19319438D02*
X72371428Y-19205152D01*
X72371428Y-19205152D02*
X72409524Y-19052771D01*
X72409524Y-19052771D02*
X72447619Y-18976580D01*
X72447619Y-18976580D02*
X72523809Y-18900390D01*
X72523809Y-18900390D02*
X72638095Y-18862295D01*
X72638095Y-18862295D02*
X72714286Y-18862295D01*
X72714286Y-18862295D02*
X72828571Y-18900390D01*
X72828571Y-18900390D02*
X72866667Y-18938485D01*
X73628571Y-19662295D02*
X73171428Y-19662295D01*
X73400000Y-19662295D02*
X73400000Y-18862295D01*
X73400000Y-18862295D02*
X73323809Y-18976580D01*
X73323809Y-18976580D02*
X73247619Y-19052771D01*
X73247619Y-19052771D02*
X73171428Y-19090866D01*
X34695595Y-11533333D02*
X34695595Y-11914285D01*
X34695595Y-11914285D02*
X33895595Y-11914285D01*
X34695595Y-11266666D02*
X33895595Y-11266666D01*
X33895595Y-11266666D02*
X33895595Y-11076190D01*
X33895595Y-11076190D02*
X33933690Y-10961904D01*
X33933690Y-10961904D02*
X34009880Y-10885714D01*
X34009880Y-10885714D02*
X34086071Y-10847619D01*
X34086071Y-10847619D02*
X34238452Y-10809523D01*
X34238452Y-10809523D02*
X34352738Y-10809523D01*
X34352738Y-10809523D02*
X34505119Y-10847619D01*
X34505119Y-10847619D02*
X34581309Y-10885714D01*
X34581309Y-10885714D02*
X34657500Y-10961904D01*
X34657500Y-10961904D02*
X34695595Y-11076190D01*
X34695595Y-11076190D02*
X34695595Y-11266666D01*
X33895595Y-10542857D02*
X33895595Y-10047619D01*
X33895595Y-10047619D02*
X34200357Y-10314285D01*
X34200357Y-10314285D02*
X34200357Y-10200000D01*
X34200357Y-10200000D02*
X34238452Y-10123809D01*
X34238452Y-10123809D02*
X34276547Y-10085714D01*
X34276547Y-10085714D02*
X34352738Y-10047619D01*
X34352738Y-10047619D02*
X34543214Y-10047619D01*
X34543214Y-10047619D02*
X34619404Y-10085714D01*
X34619404Y-10085714D02*
X34657500Y-10123809D01*
X34657500Y-10123809D02*
X34695595Y-10200000D01*
X34695595Y-10200000D02*
X34695595Y-10428571D01*
X34695595Y-10428571D02*
X34657500Y-10504762D01*
X34657500Y-10504762D02*
X34619404Y-10542857D01*
X36595595Y-14771428D02*
X36595595Y-15228571D01*
X36595595Y-14999999D02*
X35795595Y-14999999D01*
X35795595Y-14999999D02*
X35909880Y-15076190D01*
X35909880Y-15076190D02*
X35986071Y-15152380D01*
X35986071Y-15152380D02*
X36024166Y-15228571D01*
X93485714Y-25692295D02*
X93219047Y-25311342D01*
X93028571Y-25692295D02*
X93028571Y-24892295D01*
X93028571Y-24892295D02*
X93333333Y-24892295D01*
X93333333Y-24892295D02*
X93409523Y-24930390D01*
X93409523Y-24930390D02*
X93447618Y-24968485D01*
X93447618Y-24968485D02*
X93485714Y-25044676D01*
X93485714Y-25044676D02*
X93485714Y-25158961D01*
X93485714Y-25158961D02*
X93447618Y-25235152D01*
X93447618Y-25235152D02*
X93409523Y-25273247D01*
X93409523Y-25273247D02*
X93333333Y-25311342D01*
X93333333Y-25311342D02*
X93028571Y-25311342D01*
X94247618Y-25692295D02*
X93790475Y-25692295D01*
X94019047Y-25692295D02*
X94019047Y-24892295D01*
X94019047Y-24892295D02*
X93942856Y-25006580D01*
X93942856Y-25006580D02*
X93866666Y-25082771D01*
X93866666Y-25082771D02*
X93790475Y-25120866D01*
X94742857Y-24892295D02*
X94819047Y-24892295D01*
X94819047Y-24892295D02*
X94895238Y-24930390D01*
X94895238Y-24930390D02*
X94933333Y-24968485D01*
X94933333Y-24968485D02*
X94971428Y-25044676D01*
X94971428Y-25044676D02*
X95009523Y-25197057D01*
X95009523Y-25197057D02*
X95009523Y-25387533D01*
X95009523Y-25387533D02*
X94971428Y-25539914D01*
X94971428Y-25539914D02*
X94933333Y-25616104D01*
X94933333Y-25616104D02*
X94895238Y-25654200D01*
X94895238Y-25654200D02*
X94819047Y-25692295D01*
X94819047Y-25692295D02*
X94742857Y-25692295D01*
X94742857Y-25692295D02*
X94666666Y-25654200D01*
X94666666Y-25654200D02*
X94628571Y-25616104D01*
X94628571Y-25616104D02*
X94590476Y-25539914D01*
X94590476Y-25539914D02*
X94552380Y-25387533D01*
X94552380Y-25387533D02*
X94552380Y-25197057D01*
X94552380Y-25197057D02*
X94590476Y-25044676D01*
X94590476Y-25044676D02*
X94628571Y-24968485D01*
X94628571Y-24968485D02*
X94666666Y-24930390D01*
X94666666Y-24930390D02*
X94742857Y-24892295D01*
X89866667Y-30192295D02*
X89600000Y-29811342D01*
X89409524Y-30192295D02*
X89409524Y-29392295D01*
X89409524Y-29392295D02*
X89714286Y-29392295D01*
X89714286Y-29392295D02*
X89790476Y-29430390D01*
X89790476Y-29430390D02*
X89828571Y-29468485D01*
X89828571Y-29468485D02*
X89866667Y-29544676D01*
X89866667Y-29544676D02*
X89866667Y-29658961D01*
X89866667Y-29658961D02*
X89828571Y-29735152D01*
X89828571Y-29735152D02*
X89790476Y-29773247D01*
X89790476Y-29773247D02*
X89714286Y-29811342D01*
X89714286Y-29811342D02*
X89409524Y-29811342D01*
X90552381Y-29658961D02*
X90552381Y-30192295D01*
X90361905Y-29354200D02*
X90171428Y-29925628D01*
X90171428Y-29925628D02*
X90666667Y-29925628D01*
X134895595Y-11914285D02*
X134895595Y-12295237D01*
X134895595Y-12295237D02*
X134095595Y-12295237D01*
X134895595Y-11647618D02*
X134095595Y-11647618D01*
X134095595Y-11647618D02*
X134095595Y-11457142D01*
X134095595Y-11457142D02*
X134133690Y-11342856D01*
X134133690Y-11342856D02*
X134209880Y-11266666D01*
X134209880Y-11266666D02*
X134286071Y-11228571D01*
X134286071Y-11228571D02*
X134438452Y-11190475D01*
X134438452Y-11190475D02*
X134552738Y-11190475D01*
X134552738Y-11190475D02*
X134705119Y-11228571D01*
X134705119Y-11228571D02*
X134781309Y-11266666D01*
X134781309Y-11266666D02*
X134857500Y-11342856D01*
X134857500Y-11342856D02*
X134895595Y-11457142D01*
X134895595Y-11457142D02*
X134895595Y-11647618D01*
X134895595Y-10428571D02*
X134895595Y-10885714D01*
X134895595Y-10657142D02*
X134095595Y-10657142D01*
X134095595Y-10657142D02*
X134209880Y-10733333D01*
X134209880Y-10733333D02*
X134286071Y-10809523D01*
X134286071Y-10809523D02*
X134324166Y-10885714D01*
X134171785Y-10123809D02*
X134133690Y-10085713D01*
X134133690Y-10085713D02*
X134095595Y-10009523D01*
X134095595Y-10009523D02*
X134095595Y-9819047D01*
X134095595Y-9819047D02*
X134133690Y-9742856D01*
X134133690Y-9742856D02*
X134171785Y-9704761D01*
X134171785Y-9704761D02*
X134247976Y-9666666D01*
X134247976Y-9666666D02*
X134324166Y-9666666D01*
X134324166Y-9666666D02*
X134438452Y-9704761D01*
X134438452Y-9704761D02*
X134895595Y-10161904D01*
X134895595Y-10161904D02*
X134895595Y-9666666D01*
X136795595Y-14771428D02*
X136795595Y-15228571D01*
X136795595Y-14999999D02*
X135995595Y-14999999D01*
X135995595Y-14999999D02*
X136109880Y-15076190D01*
X136109880Y-15076190D02*
X136186071Y-15152380D01*
X136186071Y-15152380D02*
X136224166Y-15228571D01*
X91366667Y-25626104D02*
X91328571Y-25664200D01*
X91328571Y-25664200D02*
X91214286Y-25702295D01*
X91214286Y-25702295D02*
X91138095Y-25702295D01*
X91138095Y-25702295D02*
X91023809Y-25664200D01*
X91023809Y-25664200D02*
X90947619Y-25588009D01*
X90947619Y-25588009D02*
X90909524Y-25511819D01*
X90909524Y-25511819D02*
X90871428Y-25359438D01*
X90871428Y-25359438D02*
X90871428Y-25245152D01*
X90871428Y-25245152D02*
X90909524Y-25092771D01*
X90909524Y-25092771D02*
X90947619Y-25016580D01*
X90947619Y-25016580D02*
X91023809Y-24940390D01*
X91023809Y-24940390D02*
X91138095Y-24902295D01*
X91138095Y-24902295D02*
X91214286Y-24902295D01*
X91214286Y-24902295D02*
X91328571Y-24940390D01*
X91328571Y-24940390D02*
X91366667Y-24978485D01*
X91823809Y-25245152D02*
X91747619Y-25207057D01*
X91747619Y-25207057D02*
X91709524Y-25168961D01*
X91709524Y-25168961D02*
X91671428Y-25092771D01*
X91671428Y-25092771D02*
X91671428Y-25054676D01*
X91671428Y-25054676D02*
X91709524Y-24978485D01*
X91709524Y-24978485D02*
X91747619Y-24940390D01*
X91747619Y-24940390D02*
X91823809Y-24902295D01*
X91823809Y-24902295D02*
X91976190Y-24902295D01*
X91976190Y-24902295D02*
X92052381Y-24940390D01*
X92052381Y-24940390D02*
X92090476Y-24978485D01*
X92090476Y-24978485D02*
X92128571Y-25054676D01*
X92128571Y-25054676D02*
X92128571Y-25092771D01*
X92128571Y-25092771D02*
X92090476Y-25168961D01*
X92090476Y-25168961D02*
X92052381Y-25207057D01*
X92052381Y-25207057D02*
X91976190Y-25245152D01*
X91976190Y-25245152D02*
X91823809Y-25245152D01*
X91823809Y-25245152D02*
X91747619Y-25283247D01*
X91747619Y-25283247D02*
X91709524Y-25321342D01*
X91709524Y-25321342D02*
X91671428Y-25397533D01*
X91671428Y-25397533D02*
X91671428Y-25549914D01*
X91671428Y-25549914D02*
X91709524Y-25626104D01*
X91709524Y-25626104D02*
X91747619Y-25664200D01*
X91747619Y-25664200D02*
X91823809Y-25702295D01*
X91823809Y-25702295D02*
X91976190Y-25702295D01*
X91976190Y-25702295D02*
X92052381Y-25664200D01*
X92052381Y-25664200D02*
X92090476Y-25626104D01*
X92090476Y-25626104D02*
X92128571Y-25549914D01*
X92128571Y-25549914D02*
X92128571Y-25397533D01*
X92128571Y-25397533D02*
X92090476Y-25321342D01*
X92090476Y-25321342D02*
X92052381Y-25283247D01*
X92052381Y-25283247D02*
X91976190Y-25245152D01*
X114866667Y-21606104D02*
X114828571Y-21644200D01*
X114828571Y-21644200D02*
X114714286Y-21682295D01*
X114714286Y-21682295D02*
X114638095Y-21682295D01*
X114638095Y-21682295D02*
X114523809Y-21644200D01*
X114523809Y-21644200D02*
X114447619Y-21568009D01*
X114447619Y-21568009D02*
X114409524Y-21491819D01*
X114409524Y-21491819D02*
X114371428Y-21339438D01*
X114371428Y-21339438D02*
X114371428Y-21225152D01*
X114371428Y-21225152D02*
X114409524Y-21072771D01*
X114409524Y-21072771D02*
X114447619Y-20996580D01*
X114447619Y-20996580D02*
X114523809Y-20920390D01*
X114523809Y-20920390D02*
X114638095Y-20882295D01*
X114638095Y-20882295D02*
X114714286Y-20882295D01*
X114714286Y-20882295D02*
X114828571Y-20920390D01*
X114828571Y-20920390D02*
X114866667Y-20958485D01*
X115171428Y-20958485D02*
X115209524Y-20920390D01*
X115209524Y-20920390D02*
X115285714Y-20882295D01*
X115285714Y-20882295D02*
X115476190Y-20882295D01*
X115476190Y-20882295D02*
X115552381Y-20920390D01*
X115552381Y-20920390D02*
X115590476Y-20958485D01*
X115590476Y-20958485D02*
X115628571Y-21034676D01*
X115628571Y-21034676D02*
X115628571Y-21110866D01*
X115628571Y-21110866D02*
X115590476Y-21225152D01*
X115590476Y-21225152D02*
X115133333Y-21682295D01*
X115133333Y-21682295D02*
X115628571Y-21682295D01*
X85390476Y-39162295D02*
X85390476Y-39809914D01*
X85390476Y-39809914D02*
X85428571Y-39886104D01*
X85428571Y-39886104D02*
X85466666Y-39924200D01*
X85466666Y-39924200D02*
X85542857Y-39962295D01*
X85542857Y-39962295D02*
X85695238Y-39962295D01*
X85695238Y-39962295D02*
X85771428Y-39924200D01*
X85771428Y-39924200D02*
X85809523Y-39886104D01*
X85809523Y-39886104D02*
X85847619Y-39809914D01*
X85847619Y-39809914D02*
X85847619Y-39162295D01*
X86571428Y-39428961D02*
X86571428Y-39962295D01*
X86380952Y-39124200D02*
X86190475Y-39695628D01*
X86190475Y-39695628D02*
X86685714Y-39695628D01*
X91733333Y-20293247D02*
X91466667Y-20293247D01*
X91466667Y-20712295D02*
X91466667Y-19912295D01*
X91466667Y-19912295D02*
X91847619Y-19912295D01*
X92571428Y-20712295D02*
X92114285Y-20712295D01*
X92342857Y-20712295D02*
X92342857Y-19912295D01*
X92342857Y-19912295D02*
X92266666Y-20026580D01*
X92266666Y-20026580D02*
X92190476Y-20102771D01*
X92190476Y-20102771D02*
X92114285Y-20140866D01*
X119366667Y-21606104D02*
X119328571Y-21644200D01*
X119328571Y-21644200D02*
X119214286Y-21682295D01*
X119214286Y-21682295D02*
X119138095Y-21682295D01*
X119138095Y-21682295D02*
X119023809Y-21644200D01*
X119023809Y-21644200D02*
X118947619Y-21568009D01*
X118947619Y-21568009D02*
X118909524Y-21491819D01*
X118909524Y-21491819D02*
X118871428Y-21339438D01*
X118871428Y-21339438D02*
X118871428Y-21225152D01*
X118871428Y-21225152D02*
X118909524Y-21072771D01*
X118909524Y-21072771D02*
X118947619Y-20996580D01*
X118947619Y-20996580D02*
X119023809Y-20920390D01*
X119023809Y-20920390D02*
X119138095Y-20882295D01*
X119138095Y-20882295D02*
X119214286Y-20882295D01*
X119214286Y-20882295D02*
X119328571Y-20920390D01*
X119328571Y-20920390D02*
X119366667Y-20958485D01*
X119633333Y-20882295D02*
X120128571Y-20882295D01*
X120128571Y-20882295D02*
X119861905Y-21187057D01*
X119861905Y-21187057D02*
X119976190Y-21187057D01*
X119976190Y-21187057D02*
X120052381Y-21225152D01*
X120052381Y-21225152D02*
X120090476Y-21263247D01*
X120090476Y-21263247D02*
X120128571Y-21339438D01*
X120128571Y-21339438D02*
X120128571Y-21529914D01*
X120128571Y-21529914D02*
X120090476Y-21606104D01*
X120090476Y-21606104D02*
X120052381Y-21644200D01*
X120052381Y-21644200D02*
X119976190Y-21682295D01*
X119976190Y-21682295D02*
X119747619Y-21682295D01*
X119747619Y-21682295D02*
X119671428Y-21644200D01*
X119671428Y-21644200D02*
X119633333Y-21606104D01*
X96366667Y-25692295D02*
X96100000Y-25311342D01*
X95909524Y-25692295D02*
X95909524Y-24892295D01*
X95909524Y-24892295D02*
X96214286Y-24892295D01*
X96214286Y-24892295D02*
X96290476Y-24930390D01*
X96290476Y-24930390D02*
X96328571Y-24968485D01*
X96328571Y-24968485D02*
X96366667Y-25044676D01*
X96366667Y-25044676D02*
X96366667Y-25158961D01*
X96366667Y-25158961D02*
X96328571Y-25235152D01*
X96328571Y-25235152D02*
X96290476Y-25273247D01*
X96290476Y-25273247D02*
X96214286Y-25311342D01*
X96214286Y-25311342D02*
X95909524Y-25311342D01*
X96633333Y-24892295D02*
X97166667Y-24892295D01*
X97166667Y-24892295D02*
X96823809Y-25692295D01*
X90866667Y-45692295D02*
X90600000Y-45311342D01*
X90409524Y-45692295D02*
X90409524Y-44892295D01*
X90409524Y-44892295D02*
X90714286Y-44892295D01*
X90714286Y-44892295D02*
X90790476Y-44930390D01*
X90790476Y-44930390D02*
X90828571Y-44968485D01*
X90828571Y-44968485D02*
X90866667Y-45044676D01*
X90866667Y-45044676D02*
X90866667Y-45158961D01*
X90866667Y-45158961D02*
X90828571Y-45235152D01*
X90828571Y-45235152D02*
X90790476Y-45273247D01*
X90790476Y-45273247D02*
X90714286Y-45311342D01*
X90714286Y-45311342D02*
X90409524Y-45311342D01*
X91171428Y-44968485D02*
X91209524Y-44930390D01*
X91209524Y-44930390D02*
X91285714Y-44892295D01*
X91285714Y-44892295D02*
X91476190Y-44892295D01*
X91476190Y-44892295D02*
X91552381Y-44930390D01*
X91552381Y-44930390D02*
X91590476Y-44968485D01*
X91590476Y-44968485D02*
X91628571Y-45044676D01*
X91628571Y-45044676D02*
X91628571Y-45120866D01*
X91628571Y-45120866D02*
X91590476Y-45235152D01*
X91590476Y-45235152D02*
X91133333Y-45692295D01*
X91133333Y-45692295D02*
X91628571Y-45692295D01*
X68095595Y-11533333D02*
X68095595Y-11914285D01*
X68095595Y-11914285D02*
X67295595Y-11914285D01*
X68095595Y-11266666D02*
X67295595Y-11266666D01*
X67295595Y-11266666D02*
X67295595Y-11076190D01*
X67295595Y-11076190D02*
X67333690Y-10961904D01*
X67333690Y-10961904D02*
X67409880Y-10885714D01*
X67409880Y-10885714D02*
X67486071Y-10847619D01*
X67486071Y-10847619D02*
X67638452Y-10809523D01*
X67638452Y-10809523D02*
X67752738Y-10809523D01*
X67752738Y-10809523D02*
X67905119Y-10847619D01*
X67905119Y-10847619D02*
X67981309Y-10885714D01*
X67981309Y-10885714D02*
X68057500Y-10961904D01*
X68057500Y-10961904D02*
X68095595Y-11076190D01*
X68095595Y-11076190D02*
X68095595Y-11266666D01*
X67295595Y-10123809D02*
X67295595Y-10276190D01*
X67295595Y-10276190D02*
X67333690Y-10352381D01*
X67333690Y-10352381D02*
X67371785Y-10390476D01*
X67371785Y-10390476D02*
X67486071Y-10466666D01*
X67486071Y-10466666D02*
X67638452Y-10504762D01*
X67638452Y-10504762D02*
X67943214Y-10504762D01*
X67943214Y-10504762D02*
X68019404Y-10466666D01*
X68019404Y-10466666D02*
X68057500Y-10428571D01*
X68057500Y-10428571D02*
X68095595Y-10352381D01*
X68095595Y-10352381D02*
X68095595Y-10200000D01*
X68095595Y-10200000D02*
X68057500Y-10123809D01*
X68057500Y-10123809D02*
X68019404Y-10085714D01*
X68019404Y-10085714D02*
X67943214Y-10047619D01*
X67943214Y-10047619D02*
X67752738Y-10047619D01*
X67752738Y-10047619D02*
X67676547Y-10085714D01*
X67676547Y-10085714D02*
X67638452Y-10123809D01*
X67638452Y-10123809D02*
X67600357Y-10200000D01*
X67600357Y-10200000D02*
X67600357Y-10352381D01*
X67600357Y-10352381D02*
X67638452Y-10428571D01*
X67638452Y-10428571D02*
X67676547Y-10466666D01*
X67676547Y-10466666D02*
X67752738Y-10504762D01*
X69995595Y-14771428D02*
X69995595Y-15228571D01*
X69995595Y-14999999D02*
X69195595Y-14999999D01*
X69195595Y-14999999D02*
X69309880Y-15076190D01*
X69309880Y-15076190D02*
X69386071Y-15152380D01*
X69386071Y-15152380D02*
X69424166Y-15228571D01*
X168295595Y-11914285D02*
X168295595Y-12295237D01*
X168295595Y-12295237D02*
X167495595Y-12295237D01*
X168295595Y-11647618D02*
X167495595Y-11647618D01*
X167495595Y-11647618D02*
X167495595Y-11457142D01*
X167495595Y-11457142D02*
X167533690Y-11342856D01*
X167533690Y-11342856D02*
X167609880Y-11266666D01*
X167609880Y-11266666D02*
X167686071Y-11228571D01*
X167686071Y-11228571D02*
X167838452Y-11190475D01*
X167838452Y-11190475D02*
X167952738Y-11190475D01*
X167952738Y-11190475D02*
X168105119Y-11228571D01*
X168105119Y-11228571D02*
X168181309Y-11266666D01*
X168181309Y-11266666D02*
X168257500Y-11342856D01*
X168257500Y-11342856D02*
X168295595Y-11457142D01*
X168295595Y-11457142D02*
X168295595Y-11647618D01*
X168295595Y-10428571D02*
X168295595Y-10885714D01*
X168295595Y-10657142D02*
X167495595Y-10657142D01*
X167495595Y-10657142D02*
X167609880Y-10733333D01*
X167609880Y-10733333D02*
X167686071Y-10809523D01*
X167686071Y-10809523D02*
X167724166Y-10885714D01*
X167495595Y-9704761D02*
X167495595Y-10085713D01*
X167495595Y-10085713D02*
X167876547Y-10123809D01*
X167876547Y-10123809D02*
X167838452Y-10085713D01*
X167838452Y-10085713D02*
X167800357Y-10009523D01*
X167800357Y-10009523D02*
X167800357Y-9819047D01*
X167800357Y-9819047D02*
X167838452Y-9742856D01*
X167838452Y-9742856D02*
X167876547Y-9704761D01*
X167876547Y-9704761D02*
X167952738Y-9666666D01*
X167952738Y-9666666D02*
X168143214Y-9666666D01*
X168143214Y-9666666D02*
X168219404Y-9704761D01*
X168219404Y-9704761D02*
X168257500Y-9742856D01*
X168257500Y-9742856D02*
X168295595Y-9819047D01*
X168295595Y-9819047D02*
X168295595Y-10009523D01*
X168295595Y-10009523D02*
X168257500Y-10085713D01*
X168257500Y-10085713D02*
X168219404Y-10123809D01*
X170195595Y-14771428D02*
X170195595Y-15228571D01*
X170195595Y-14999999D02*
X169395595Y-14999999D01*
X169395595Y-14999999D02*
X169509880Y-15076190D01*
X169509880Y-15076190D02*
X169586071Y-15152380D01*
X169586071Y-15152380D02*
X169624166Y-15228571D01*
X88866667Y-25692295D02*
X88600000Y-25311342D01*
X88409524Y-25692295D02*
X88409524Y-24892295D01*
X88409524Y-24892295D02*
X88714286Y-24892295D01*
X88714286Y-24892295D02*
X88790476Y-24930390D01*
X88790476Y-24930390D02*
X88828571Y-24968485D01*
X88828571Y-24968485D02*
X88866667Y-25044676D01*
X88866667Y-25044676D02*
X88866667Y-25158961D01*
X88866667Y-25158961D02*
X88828571Y-25235152D01*
X88828571Y-25235152D02*
X88790476Y-25273247D01*
X88790476Y-25273247D02*
X88714286Y-25311342D01*
X88714286Y-25311342D02*
X88409524Y-25311342D01*
X89247619Y-25692295D02*
X89400000Y-25692295D01*
X89400000Y-25692295D02*
X89476190Y-25654200D01*
X89476190Y-25654200D02*
X89514286Y-25616104D01*
X89514286Y-25616104D02*
X89590476Y-25501819D01*
X89590476Y-25501819D02*
X89628571Y-25349438D01*
X89628571Y-25349438D02*
X89628571Y-25044676D01*
X89628571Y-25044676D02*
X89590476Y-24968485D01*
X89590476Y-24968485D02*
X89552381Y-24930390D01*
X89552381Y-24930390D02*
X89476190Y-24892295D01*
X89476190Y-24892295D02*
X89323809Y-24892295D01*
X89323809Y-24892295D02*
X89247619Y-24930390D01*
X89247619Y-24930390D02*
X89209524Y-24968485D01*
X89209524Y-24968485D02*
X89171428Y-25044676D01*
X89171428Y-25044676D02*
X89171428Y-25235152D01*
X89171428Y-25235152D02*
X89209524Y-25311342D01*
X89209524Y-25311342D02*
X89247619Y-25349438D01*
X89247619Y-25349438D02*
X89323809Y-25387533D01*
X89323809Y-25387533D02*
X89476190Y-25387533D01*
X89476190Y-25387533D02*
X89552381Y-25349438D01*
X89552381Y-25349438D02*
X89590476Y-25311342D01*
X89590476Y-25311342D02*
X89628571Y-25235152D01*
X83866667Y-29606104D02*
X83828571Y-29644200D01*
X83828571Y-29644200D02*
X83714286Y-29682295D01*
X83714286Y-29682295D02*
X83638095Y-29682295D01*
X83638095Y-29682295D02*
X83523809Y-29644200D01*
X83523809Y-29644200D02*
X83447619Y-29568009D01*
X83447619Y-29568009D02*
X83409524Y-29491819D01*
X83409524Y-29491819D02*
X83371428Y-29339438D01*
X83371428Y-29339438D02*
X83371428Y-29225152D01*
X83371428Y-29225152D02*
X83409524Y-29072771D01*
X83409524Y-29072771D02*
X83447619Y-28996580D01*
X83447619Y-28996580D02*
X83523809Y-28920390D01*
X83523809Y-28920390D02*
X83638095Y-28882295D01*
X83638095Y-28882295D02*
X83714286Y-28882295D01*
X83714286Y-28882295D02*
X83828571Y-28920390D01*
X83828571Y-28920390D02*
X83866667Y-28958485D01*
X84552381Y-29148961D02*
X84552381Y-29682295D01*
X84361905Y-28844200D02*
X84171428Y-29415628D01*
X84171428Y-29415628D02*
X84666667Y-29415628D01*
X112628995Y-11914285D02*
X112628995Y-12295237D01*
X112628995Y-12295237D02*
X111828995Y-12295237D01*
X112628995Y-11647618D02*
X111828995Y-11647618D01*
X111828995Y-11647618D02*
X111828995Y-11457142D01*
X111828995Y-11457142D02*
X111867090Y-11342856D01*
X111867090Y-11342856D02*
X111943280Y-11266666D01*
X111943280Y-11266666D02*
X112019471Y-11228571D01*
X112019471Y-11228571D02*
X112171852Y-11190475D01*
X112171852Y-11190475D02*
X112286138Y-11190475D01*
X112286138Y-11190475D02*
X112438519Y-11228571D01*
X112438519Y-11228571D02*
X112514709Y-11266666D01*
X112514709Y-11266666D02*
X112590900Y-11342856D01*
X112590900Y-11342856D02*
X112628995Y-11457142D01*
X112628995Y-11457142D02*
X112628995Y-11647618D01*
X112628995Y-10428571D02*
X112628995Y-10885714D01*
X112628995Y-10657142D02*
X111828995Y-10657142D01*
X111828995Y-10657142D02*
X111943280Y-10733333D01*
X111943280Y-10733333D02*
X112019471Y-10809523D01*
X112019471Y-10809523D02*
X112057566Y-10885714D01*
X111828995Y-9933332D02*
X111828995Y-9857142D01*
X111828995Y-9857142D02*
X111867090Y-9780951D01*
X111867090Y-9780951D02*
X111905185Y-9742856D01*
X111905185Y-9742856D02*
X111981376Y-9704761D01*
X111981376Y-9704761D02*
X112133757Y-9666666D01*
X112133757Y-9666666D02*
X112324233Y-9666666D01*
X112324233Y-9666666D02*
X112476614Y-9704761D01*
X112476614Y-9704761D02*
X112552804Y-9742856D01*
X112552804Y-9742856D02*
X112590900Y-9780951D01*
X112590900Y-9780951D02*
X112628995Y-9857142D01*
X112628995Y-9857142D02*
X112628995Y-9933332D01*
X112628995Y-9933332D02*
X112590900Y-10009523D01*
X112590900Y-10009523D02*
X112552804Y-10047618D01*
X112552804Y-10047618D02*
X112476614Y-10085713D01*
X112476614Y-10085713D02*
X112324233Y-10123809D01*
X112324233Y-10123809D02*
X112133757Y-10123809D01*
X112133757Y-10123809D02*
X111981376Y-10085713D01*
X111981376Y-10085713D02*
X111905185Y-10047618D01*
X111905185Y-10047618D02*
X111867090Y-10009523D01*
X111867090Y-10009523D02*
X111828995Y-9933332D01*
X114528995Y-14771428D02*
X114528995Y-15228571D01*
X114528995Y-14999999D02*
X113728995Y-14999999D01*
X113728995Y-14999999D02*
X113843280Y-15076190D01*
X113843280Y-15076190D02*
X113919471Y-15152380D01*
X113919471Y-15152380D02*
X113957566Y-15228571D01*
X79228995Y-11533333D02*
X79228995Y-11914285D01*
X79228995Y-11914285D02*
X78428995Y-11914285D01*
X79228995Y-11266666D02*
X78428995Y-11266666D01*
X78428995Y-11266666D02*
X78428995Y-11076190D01*
X78428995Y-11076190D02*
X78467090Y-10961904D01*
X78467090Y-10961904D02*
X78543280Y-10885714D01*
X78543280Y-10885714D02*
X78619471Y-10847619D01*
X78619471Y-10847619D02*
X78771852Y-10809523D01*
X78771852Y-10809523D02*
X78886138Y-10809523D01*
X78886138Y-10809523D02*
X79038519Y-10847619D01*
X79038519Y-10847619D02*
X79114709Y-10885714D01*
X79114709Y-10885714D02*
X79190900Y-10961904D01*
X79190900Y-10961904D02*
X79228995Y-11076190D01*
X79228995Y-11076190D02*
X79228995Y-11266666D01*
X78428995Y-10542857D02*
X78428995Y-10009523D01*
X78428995Y-10009523D02*
X79228995Y-10352381D01*
X81128995Y-14771428D02*
X81128995Y-15228571D01*
X81128995Y-14999999D02*
X80328995Y-14999999D01*
X80328995Y-14999999D02*
X80443280Y-15076190D01*
X80443280Y-15076190D02*
X80519471Y-15152380D01*
X80519471Y-15152380D02*
X80557566Y-15228571D01*
X70366667Y-33106104D02*
X70328571Y-33144200D01*
X70328571Y-33144200D02*
X70214286Y-33182295D01*
X70214286Y-33182295D02*
X70138095Y-33182295D01*
X70138095Y-33182295D02*
X70023809Y-33144200D01*
X70023809Y-33144200D02*
X69947619Y-33068009D01*
X69947619Y-33068009D02*
X69909524Y-32991819D01*
X69909524Y-32991819D02*
X69871428Y-32839438D01*
X69871428Y-32839438D02*
X69871428Y-32725152D01*
X69871428Y-32725152D02*
X69909524Y-32572771D01*
X69909524Y-32572771D02*
X69947619Y-32496580D01*
X69947619Y-32496580D02*
X70023809Y-32420390D01*
X70023809Y-32420390D02*
X70138095Y-32382295D01*
X70138095Y-32382295D02*
X70214286Y-32382295D01*
X70214286Y-32382295D02*
X70328571Y-32420390D01*
X70328571Y-32420390D02*
X70366667Y-32458485D01*
X71090476Y-32382295D02*
X70709524Y-32382295D01*
X70709524Y-32382295D02*
X70671428Y-32763247D01*
X70671428Y-32763247D02*
X70709524Y-32725152D01*
X70709524Y-32725152D02*
X70785714Y-32687057D01*
X70785714Y-32687057D02*
X70976190Y-32687057D01*
X70976190Y-32687057D02*
X71052381Y-32725152D01*
X71052381Y-32725152D02*
X71090476Y-32763247D01*
X71090476Y-32763247D02*
X71128571Y-32839438D01*
X71128571Y-32839438D02*
X71128571Y-33029914D01*
X71128571Y-33029914D02*
X71090476Y-33106104D01*
X71090476Y-33106104D02*
X71052381Y-33144200D01*
X71052381Y-33144200D02*
X70976190Y-33182295D01*
X70976190Y-33182295D02*
X70785714Y-33182295D01*
X70785714Y-33182295D02*
X70709524Y-33144200D01*
X70709524Y-33144200D02*
X70671428Y-33106104D01*
%TO.C,C6*%
D13*
X70892164Y-30640000D02*
X71107836Y-30640000D01*
X70892164Y-31360000D02*
X71107836Y-31360000D01*
%TO.C,R1*%
X88846359Y-46120000D02*
X89153641Y-46120000D01*
X88846359Y-46880000D02*
X89153641Y-46880000D01*
%TO.C,TS4*%
X102240000Y-35500000D02*
G75*
G02*
X100840000Y-35500000I-700000J0D01*
G01*
X100840000Y-35500000D02*
G75*
G02*
X102240000Y-35500000I700000J0D01*
G01*
%TO.C,C9*%
X87392164Y-30640000D02*
X87607836Y-30640000D01*
X87392164Y-31360000D02*
X87607836Y-31360000D01*
%TO.C,J4*%
X72940000Y-42690000D02*
X73960000Y-42690000D01*
X72940000Y-46940000D02*
X72940000Y-42690000D01*
X73960000Y-42690000D02*
X73960000Y-44290000D01*
X73960000Y-44290000D02*
X75240000Y-44290000D01*
X74660000Y-50510000D02*
X81340000Y-50510000D01*
X75240000Y-44290000D02*
X75240000Y-41400000D01*
X82040000Y-42690000D02*
X82040000Y-44290000D01*
X82040000Y-44290000D02*
X80760000Y-44290000D01*
X83060000Y-42690000D02*
X82040000Y-42690000D01*
X83060000Y-46940000D02*
X83060000Y-42690000D01*
%TO.C,TS5*%
X104780000Y-35500000D02*
G75*
G02*
X103380000Y-35500000I-700000J0D01*
G01*
X103380000Y-35500000D02*
G75*
G02*
X104780000Y-35500000I700000J0D01*
G01*
%TO.C,C15*%
X74525464Y-14740000D02*
X74741136Y-14740000D01*
X74525464Y-15460000D02*
X74741136Y-15460000D01*
%TO.C,Q1*%
X98240000Y-21440000D02*
X99760000Y-21440000D01*
X98240000Y-21490000D02*
X98240000Y-21440000D01*
X98240000Y-23390000D02*
X98240000Y-22610000D01*
X98240000Y-24560000D02*
X98240000Y-24510000D01*
X99760000Y-21440000D02*
X99760000Y-22440000D01*
X99760000Y-23560000D02*
X99760000Y-24560000D01*
X99760000Y-24560000D02*
X98240000Y-24560000D01*
X97700000Y-22620000D02*
X97940000Y-22950000D01*
X97460000Y-22950000D01*
X97700000Y-22620000D01*
G36*
X97940000Y-22950000D02*
G01*
X97460000Y-22950000D01*
X97700000Y-22620000D01*
X97940000Y-22950000D01*
G37*
%TO.C,TP10*%
X100700000Y-18500000D02*
G75*
G02*
X99300000Y-18500000I-700000J0D01*
G01*
X99300000Y-18500000D02*
G75*
G02*
X100700000Y-18500000I700000J0D01*
G01*
%TO.C,J1*%
X93300000Y-47100000D02*
X93300000Y-49100000D01*
X93300000Y-51000000D02*
X93300000Y-52900000D01*
X93300000Y-52900000D02*
X102700000Y-52900000D01*
X102700000Y-47100000D02*
X102700000Y-49100000D01*
X102700000Y-51000000D02*
X102700000Y-52900000D01*
%TO.C,U1*%
X108200000Y-29500000D02*
X109000000Y-29500000D01*
X108200000Y-30300000D02*
X108200000Y-29500000D01*
X108200000Y-46500000D02*
X108200000Y-45900000D01*
X108400000Y-29700000D02*
X121600000Y-29700000D01*
X108400000Y-46300000D02*
X108400000Y-29700000D01*
X108950000Y-46500000D02*
X108200000Y-46500000D01*
X120925000Y-46500000D02*
X121775000Y-46500000D01*
X121600000Y-29700000D02*
X121600000Y-46300000D01*
X121600000Y-40900000D02*
X108400000Y-40900000D01*
X121600000Y-46300000D02*
X108400000Y-46300000D01*
X121800000Y-29500000D02*
X121000000Y-29500000D01*
X121800000Y-30300000D02*
X121800000Y-29500000D01*
%TO.C,LD1*%
X12816700Y-14500000D02*
X12816700Y-7500000D01*
X12816700Y-14500000D02*
X18316700Y-14500000D01*
X16466700Y-8300000D02*
X14666700Y-8300000D01*
X16466700Y-13700000D02*
X14666700Y-13700000D01*
X17866700Y-7500000D02*
X12816700Y-7500000D01*
X18316700Y-7950000D02*
X17866700Y-7500000D01*
X18316700Y-14500000D02*
X18316700Y-7950000D01*
%TO.C,SW1*%
X81450000Y-21990000D02*
X82250000Y-21990000D01*
X82250000Y-21950000D02*
X82250000Y-21990000D01*
X82250000Y-21950000D02*
X85750000Y-21950000D01*
%TO.C,TP3*%
X116400000Y-27300000D02*
G75*
G02*
X115000000Y-27300000I-700000J0D01*
G01*
X115000000Y-27300000D02*
G75*
G02*
X116400000Y-27300000I700000J0D01*
G01*
%TO.C,R5*%
X92346359Y-30620000D02*
X92653641Y-30620000D01*
X92346359Y-31380000D02*
X92653641Y-31380000D01*
%TO.C,R6*%
X94846359Y-30620000D02*
X95153641Y-30620000D01*
X94846359Y-31380000D02*
X95153641Y-31380000D01*
%TO.C,I3*%
X106240000Y-27300000D02*
G75*
G02*
X104840000Y-27300000I-700000J0D01*
G01*
X104840000Y-27300000D02*
G75*
G02*
X106240000Y-27300000I700000J0D01*
G01*
%TO.C,TP2*%
X118940000Y-27300000D02*
G75*
G02*
X117540000Y-27300000I-700000J0D01*
G01*
X117540000Y-27300000D02*
G75*
G02*
X118940000Y-27300000I700000J0D01*
G01*
%TO.C,LD2*%
X23950000Y-14500000D02*
X23950000Y-7500000D01*
X23950000Y-14500000D02*
X29450000Y-14500000D01*
X27600000Y-8300000D02*
X25800000Y-8300000D01*
X27600000Y-13700000D02*
X25800000Y-13700000D01*
X29000000Y-7500000D02*
X23950000Y-7500000D01*
X29450000Y-7950000D02*
X29000000Y-7500000D01*
X29450000Y-14500000D02*
X29450000Y-7950000D01*
%TO.C,TP4*%
X113860000Y-27300000D02*
G75*
G02*
X112460000Y-27300000I-700000J0D01*
G01*
X112460000Y-27300000D02*
G75*
G02*
X113860000Y-27300000I700000J0D01*
G01*
%TO.C,I1*%
X108780000Y-27300000D02*
G75*
G02*
X107380000Y-27300000I-700000J0D01*
G01*
X107380000Y-27300000D02*
G75*
G02*
X108780000Y-27300000I700000J0D01*
G01*
%TO.C,I2*%
X111320000Y-27300000D02*
G75*
G02*
X109920000Y-27300000I-700000J0D01*
G01*
X109920000Y-27300000D02*
G75*
G02*
X111320000Y-27300000I700000J0D01*
G01*
%TO.C,C19*%
X119058864Y-14740000D02*
X119274536Y-14740000D01*
X119058864Y-15460000D02*
X119274536Y-15460000D01*
%TO.C,LD11*%
X124150000Y-14500000D02*
X124150000Y-7500000D01*
X124150000Y-14500000D02*
X129650000Y-14500000D01*
X127800000Y-8300000D02*
X126000000Y-8300000D01*
X127800000Y-13700000D02*
X126000000Y-13700000D01*
X129200000Y-7500000D02*
X124150000Y-7500000D01*
X129650000Y-7950000D02*
X129200000Y-7500000D01*
X129650000Y-14500000D02*
X129650000Y-7950000D01*
%TO.C,LD9*%
X101883300Y-14500000D02*
X101883300Y-7500000D01*
X101883300Y-14500000D02*
X107383300Y-14500000D01*
X105533300Y-8300000D02*
X103733300Y-8300000D01*
X105533300Y-13700000D02*
X103733300Y-13700000D01*
X106933300Y-7500000D02*
X101883300Y-7500000D01*
X107383300Y-7950000D02*
X106933300Y-7500000D01*
X107383300Y-14500000D02*
X107383300Y-7950000D01*
%TO.C,U3*%
X109590000Y-21440000D02*
X111410000Y-21440000D01*
X109590000Y-21490000D02*
X109590000Y-21440000D01*
X109590000Y-24560000D02*
X109590000Y-24510000D01*
X111410000Y-21440000D02*
X111410000Y-21490000D01*
X111410000Y-22610000D02*
X111410000Y-23390000D01*
X111410000Y-24510000D02*
X111410000Y-24560000D01*
X111410000Y-24560000D02*
X109590000Y-24560000D01*
X109050000Y-21490000D02*
X108810000Y-21160000D01*
X109290000Y-21160000D01*
X109050000Y-21490000D01*
G36*
X109050000Y-21490000D02*
G01*
X108810000Y-21160000D01*
X109290000Y-21160000D01*
X109050000Y-21490000D01*
G37*
%TO.C,C11*%
X29992164Y-14740000D02*
X30207836Y-14740000D01*
X29992164Y-15460000D02*
X30207836Y-15460000D01*
%TO.C,C20*%
X130192164Y-14740000D02*
X130407836Y-14740000D01*
X130192164Y-15460000D02*
X130407836Y-15460000D01*
%TO.C,TP8*%
X104700000Y-31000000D02*
G75*
G02*
X103300000Y-31000000I-700000J0D01*
G01*
X103300000Y-31000000D02*
G75*
G02*
X104700000Y-31000000I700000J0D01*
G01*
%TO.C,I4*%
X103700000Y-27300000D02*
G75*
G02*
X102300000Y-27300000I-700000J0D01*
G01*
X102300000Y-27300000D02*
G75*
G02*
X103700000Y-27300000I700000J0D01*
G01*
%TO.C,C23*%
X163592164Y-14740000D02*
X163807836Y-14740000D01*
X163592164Y-15460000D02*
X163807836Y-15460000D01*
%TO.C,R3*%
X74846359Y-34120000D02*
X75153641Y-34120000D01*
X74846359Y-34880000D02*
X75153641Y-34880000D01*
%TO.C,LD4*%
X46216700Y-14500000D02*
X46216700Y-7500000D01*
X46216700Y-14500000D02*
X51716700Y-14500000D01*
X49866700Y-8300000D02*
X48066700Y-8300000D01*
X49866700Y-13700000D02*
X48066700Y-13700000D01*
X51266700Y-7500000D02*
X46216700Y-7500000D01*
X51716700Y-7950000D02*
X51266700Y-7500000D01*
X51716700Y-14500000D02*
X51716700Y-7950000D01*
%TO.C,TP6*%
X100200000Y-26500000D02*
G75*
G02*
X98800000Y-26500000I-700000J0D01*
G01*
X98800000Y-26500000D02*
G75*
G02*
X100200000Y-26500000I700000J0D01*
G01*
%TO.C,R8*%
X103346359Y-22020000D02*
X103653641Y-22020000D01*
X103346359Y-22780000D02*
X103653641Y-22780000D01*
%TO.C,TS3*%
X99700000Y-35500000D02*
G75*
G02*
X98300000Y-35500000I-700000J0D01*
G01*
X98300000Y-35500000D02*
G75*
G02*
X99700000Y-35500000I700000J0D01*
G01*
%TO.C,TP5*%
X80200000Y-20900000D02*
G75*
G02*
X78800000Y-20900000I-700000J0D01*
G01*
X78800000Y-20900000D02*
G75*
G02*
X80200000Y-20900000I700000J0D01*
G01*
%TO.C,R11*%
X78346359Y-30620000D02*
X78653641Y-30620000D01*
X78346359Y-31380000D02*
X78653641Y-31380000D01*
%TO.C,LD14*%
X157550000Y-14500000D02*
X157550000Y-7500000D01*
X157550000Y-14500000D02*
X163050000Y-14500000D01*
X161200000Y-8300000D02*
X159400000Y-8300000D01*
X161200000Y-13700000D02*
X159400000Y-13700000D01*
X162600000Y-7500000D02*
X157550000Y-7500000D01*
X163050000Y-7950000D02*
X162600000Y-7500000D01*
X163050000Y-14500000D02*
X163050000Y-7950000D01*
%TO.C,LD8*%
X90750000Y-14500000D02*
X90750000Y-7500000D01*
X90750000Y-14500000D02*
X96250000Y-14500000D01*
X94400000Y-8300000D02*
X92600000Y-8300000D01*
X94400000Y-13700000D02*
X92600000Y-13700000D01*
X95800000Y-7500000D02*
X90750000Y-7500000D01*
X96250000Y-7950000D02*
X95800000Y-7500000D01*
X96250000Y-14500000D02*
X96250000Y-7950000D01*
%TO.C,U2*%
X74090000Y-29440000D02*
X75910000Y-29440000D01*
X74090000Y-29490000D02*
X74090000Y-29440000D01*
X74090000Y-32560000D02*
X74090000Y-32510000D01*
X75910000Y-29440000D02*
X75910000Y-29490000D01*
X75910000Y-30610000D02*
X75910000Y-31390000D01*
X75910000Y-32510000D02*
X75910000Y-32560000D01*
X75910000Y-32560000D02*
X74090000Y-32560000D01*
X73550000Y-29490000D02*
X73310000Y-29160000D01*
X73790000Y-29160000D01*
X73550000Y-29490000D01*
G36*
X73550000Y-29490000D02*
G01*
X73310000Y-29160000D01*
X73790000Y-29160000D01*
X73550000Y-29490000D01*
G37*
%TO.C,LD13*%
X146416700Y-14500000D02*
X146416700Y-7500000D01*
X146416700Y-14500000D02*
X151916700Y-14500000D01*
X150066700Y-8300000D02*
X148266700Y-8300000D01*
X150066700Y-13700000D02*
X148266700Y-13700000D01*
X151466700Y-7500000D02*
X146416700Y-7500000D01*
X151916700Y-7950000D02*
X151466700Y-7500000D01*
X151916700Y-14500000D02*
X151916700Y-7950000D01*
%TO.C,C24*%
X174725464Y-14740000D02*
X174941136Y-14740000D01*
X174725464Y-15460000D02*
X174941136Y-15460000D01*
%TO.C,C7*%
X105892164Y-22040000D02*
X106107836Y-22040000D01*
X105892164Y-22760000D02*
X106107836Y-22760000D01*
%TO.C,LD5*%
X57350000Y-14500000D02*
X57350000Y-7500000D01*
X57350000Y-14500000D02*
X62850000Y-14500000D01*
X61000000Y-8300000D02*
X59200000Y-8300000D01*
X61000000Y-13700000D02*
X59200000Y-13700000D01*
X62400000Y-7500000D02*
X57350000Y-7500000D01*
X62850000Y-7950000D02*
X62400000Y-7500000D01*
X62850000Y-14500000D02*
X62850000Y-7950000D01*
%TO.C,C10*%
X18858864Y-14740000D02*
X19074536Y-14740000D01*
X18858864Y-15460000D02*
X19074536Y-15460000D01*
%TO.C,C1*%
X67500000Y-21990000D02*
X68500000Y-21990000D01*
X68000000Y-21490000D02*
X68000000Y-22490000D01*
X68740000Y-21304437D02*
X68740000Y-22990000D01*
X68740000Y-21304437D02*
X69804437Y-20240000D01*
X68740000Y-27695563D02*
X68740000Y-26010000D01*
X68740000Y-27695563D02*
X69804437Y-28760000D01*
X69804437Y-20240000D02*
X77260000Y-20240000D01*
X69804437Y-28760000D02*
X77260000Y-28760000D01*
X77260000Y-20240000D02*
X77260000Y-22990000D01*
X77260000Y-28760000D02*
X77260000Y-26010000D01*
%TO.C,LD3*%
X35083300Y-14500000D02*
X35083300Y-7500000D01*
X35083300Y-14500000D02*
X40583300Y-14500000D01*
X38733300Y-8300000D02*
X36933300Y-8300000D01*
X38733300Y-13700000D02*
X36933300Y-13700000D01*
X40133300Y-7500000D02*
X35083300Y-7500000D01*
X40583300Y-7950000D02*
X40133300Y-7500000D01*
X40583300Y-14500000D02*
X40583300Y-7950000D01*
%TO.C,R10*%
X93846359Y-26120000D02*
X94153641Y-26120000D01*
X93846359Y-26880000D02*
X94153641Y-26880000D01*
%TO.C,C18*%
X107925464Y-14740000D02*
X108141136Y-14740000D01*
X107925464Y-15460000D02*
X108141136Y-15460000D01*
%TO.C,TP7*%
X178700000Y-18600000D02*
G75*
G02*
X177300000Y-18600000I-700000J0D01*
G01*
X177300000Y-18600000D02*
G75*
G02*
X178700000Y-18600000I700000J0D01*
G01*
%TO.C,C21*%
X141325464Y-14740000D02*
X141541136Y-14740000D01*
X141325464Y-15460000D02*
X141541136Y-15460000D01*
%TO.C,R4*%
X89846359Y-30620000D02*
X90153641Y-30620000D01*
X89846359Y-31380000D02*
X90153641Y-31380000D01*
%TO.C,LD12*%
X135283300Y-14500000D02*
X135283300Y-7500000D01*
X135283300Y-14500000D02*
X140783300Y-14500000D01*
X138933300Y-8300000D02*
X137133300Y-8300000D01*
X138933300Y-13700000D02*
X137133300Y-13700000D01*
X140333300Y-7500000D02*
X135283300Y-7500000D01*
X140783300Y-7950000D02*
X140333300Y-7500000D01*
X140783300Y-14500000D02*
X140783300Y-7950000D01*
%TO.C,C8*%
X91392164Y-26140000D02*
X91607836Y-26140000D01*
X91392164Y-26860000D02*
X91607836Y-26860000D01*
%TO.C,C2*%
X114738748Y-22265000D02*
X115261252Y-22265000D01*
X114738748Y-23735000D02*
X115261252Y-23735000D01*
%TO.C,C13*%
X52258864Y-14740000D02*
X52474536Y-14740000D01*
X52258864Y-15460000D02*
X52474536Y-15460000D01*
%TO.C,TP9*%
X101700000Y-31000000D02*
G75*
G02*
X100300000Y-31000000I-700000J0D01*
G01*
X100300000Y-31000000D02*
G75*
G02*
X101700000Y-31000000I700000J0D01*
G01*
%TO.C,C12*%
X41125464Y-14740000D02*
X41341136Y-14740000D01*
X41125464Y-15460000D02*
X41341136Y-15460000D01*
%TO.C,U4*%
X85090000Y-40440000D02*
X86910000Y-40440000D01*
X85090000Y-40490000D02*
X85090000Y-40440000D01*
X85090000Y-43560000D02*
X85090000Y-43510000D01*
X86910000Y-40440000D02*
X86910000Y-40490000D01*
X86910000Y-43510000D02*
X86910000Y-43560000D01*
X86910000Y-43560000D02*
X85090000Y-43560000D01*
X84550000Y-40490000D02*
X84310000Y-40160000D01*
X84790000Y-40160000D01*
X84550000Y-40490000D01*
G36*
X84550000Y-40490000D02*
G01*
X84310000Y-40160000D01*
X84790000Y-40160000D01*
X84550000Y-40490000D01*
G37*
%TO.C,C16*%
X85658864Y-14740000D02*
X85874536Y-14740000D01*
X85658864Y-15460000D02*
X85874536Y-15460000D01*
%TO.C,TP11*%
X88200000Y-18800000D02*
G75*
G02*
X86800000Y-18800000I-700000J0D01*
G01*
X86800000Y-18800000D02*
G75*
G02*
X88200000Y-18800000I700000J0D01*
G01*
%TO.C,F1*%
X90613748Y-21290000D02*
X93386252Y-21290000D01*
X90613748Y-24710000D02*
X93386252Y-24710000D01*
%TO.C,C3*%
X119238748Y-22265000D02*
X119761252Y-22265000D01*
X119238748Y-23735000D02*
X119761252Y-23735000D01*
%TO.C,R7*%
X96346359Y-26120000D02*
X96653641Y-26120000D01*
X96346359Y-26880000D02*
X96653641Y-26880000D01*
%TO.C,C14*%
X63392164Y-14740000D02*
X63607836Y-14740000D01*
X63392164Y-15460000D02*
X63607836Y-15460000D01*
%TO.C,R2*%
X90846359Y-46120000D02*
X91153641Y-46120000D01*
X90846359Y-46880000D02*
X91153641Y-46880000D01*
%TO.C,LD6*%
X68483300Y-14500000D02*
X68483300Y-7500000D01*
X68483300Y-14500000D02*
X73983300Y-14500000D01*
X72133300Y-8300000D02*
X70333300Y-8300000D01*
X72133300Y-13700000D02*
X70333300Y-13700000D01*
X73533300Y-7500000D02*
X68483300Y-7500000D01*
X73983300Y-7950000D02*
X73533300Y-7500000D01*
X73983300Y-14500000D02*
X73983300Y-7950000D01*
%TO.C,LD15*%
X168683300Y-14500000D02*
X168683300Y-7500000D01*
X168683300Y-14500000D02*
X174183300Y-14500000D01*
X172333300Y-8300000D02*
X170533300Y-8300000D01*
X172333300Y-13700000D02*
X170533300Y-13700000D01*
X173733300Y-7500000D02*
X168683300Y-7500000D01*
X174183300Y-7950000D02*
X173733300Y-7500000D01*
X174183300Y-14500000D02*
X174183300Y-7950000D01*
%TO.C,R9*%
X88846359Y-26120000D02*
X89153641Y-26120000D01*
X88846359Y-26880000D02*
X89153641Y-26880000D01*
%TO.C,C17*%
X96792164Y-14740000D02*
X97007836Y-14740000D01*
X96792164Y-15460000D02*
X97007836Y-15460000D01*
%TO.C,C4*%
X83738748Y-30265000D02*
X84261252Y-30265000D01*
X83738748Y-31735000D02*
X84261252Y-31735000D01*
%TO.C,LD10*%
X113016700Y-14500000D02*
X113016700Y-7500000D01*
X113016700Y-14500000D02*
X118516700Y-14500000D01*
X116666700Y-8300000D02*
X114866700Y-8300000D01*
X116666700Y-13700000D02*
X114866700Y-13700000D01*
X118066700Y-7500000D02*
X113016700Y-7500000D01*
X118516700Y-7950000D02*
X118066700Y-7500000D01*
X118516700Y-14500000D02*
X118516700Y-7950000D01*
%TO.C,C22*%
X152458864Y-14740000D02*
X152674536Y-14740000D01*
X152458864Y-15460000D02*
X152674536Y-15460000D01*
%TO.C,TP1*%
X121480000Y-27300000D02*
G75*
G02*
X120080000Y-27300000I-700000J0D01*
G01*
X120080000Y-27300000D02*
G75*
G02*
X121480000Y-27300000I700000J0D01*
G01*
%TO.C,LD7*%
X79616700Y-14500000D02*
X79616700Y-7500000D01*
X79616700Y-14500000D02*
X85116700Y-14500000D01*
X83266700Y-8300000D02*
X81466700Y-8300000D01*
X83266700Y-13700000D02*
X81466700Y-13700000D01*
X84666700Y-7500000D02*
X79616700Y-7500000D01*
X85116700Y-7950000D02*
X84666700Y-7500000D01*
X85116700Y-14500000D02*
X85116700Y-7950000D01*
%TO.C,C5*%
X70238748Y-33765000D02*
X70761252Y-33765000D01*
X70238748Y-35235000D02*
X70761252Y-35235000D01*
%TD*%
M02*
