M48
; DRILL file KiCad 10.0.5 date 2026-08-20T16:15:27
; FORMAT={-:-/ absolute / metric / decimal}
; #@! TF.CreationDate,2026-08-20T16:15:27+02:00
; #@! TF.GenerationSoftware,Kicad,Pcbnew,10.0.5
; #@! TF.FileFunction,Plated,1,2,PTH
FMAT,2
METRIC
; #@! TA.AperFunction,Plated,PTH,ViaDrill
T1C0.300
; #@! TA.AperFunction,Plated,PTH,ComponentDrill
T2C0.600
%
G90
G05
T1
X6.0Y-2.0
X11.0Y-2.0
X11.0Y-4.0
X11.0Y-6.0
X16.0Y-2.0
X16.0Y-4.0
X16.0Y-6.0
X19.447Y-15.1
X21.0Y-2.0
X21.0Y-4.0
X21.0Y-6.0
X26.0Y-2.0
X26.0Y-4.0
X26.0Y-6.0
X30.58Y-15.1
X31.0Y-2.0
X31.0Y-4.0
X31.0Y-6.0
X36.0Y-2.0
X36.0Y-4.0
X36.0Y-6.0
X41.0Y-2.0
X41.0Y-4.0
X41.0Y-6.0
X41.713Y-15.1
X46.0Y-2.0
X46.0Y-4.0
X46.0Y-6.0
X51.0Y-2.0
X51.0Y-4.0
X51.0Y-6.0
X52.847Y-15.1
X56.0Y-2.0
X56.0Y-4.0
X56.0Y-6.0
X61.0Y-2.0
X61.0Y-4.0
X61.0Y-6.0
X63.98Y-15.1
X66.0Y-2.0
X66.0Y-4.0
X66.0Y-6.0
X71.0Y-2.0
X71.0Y-4.0
X71.0Y-6.0
X72.702Y-41.95
X72.894Y-24.55
X73.862Y-32.85
X74.0Y-46.5
X74.2Y-38.6
X74.733Y-16.405
X75.073Y-31.0
X75.113Y-15.1
X75.51Y-35.4
X76.0Y-2.0
X76.0Y-4.0
X76.0Y-6.0
X76.25Y-24.5
X78.0Y-35.0
X78.0Y-39.0
X81.0Y-2.0
X81.0Y-4.0
X81.0Y-6.0
X81.616Y-39.05
X82.0Y-35.0
X82.2Y-24.22
X84.862Y-42.0
X84.95Y-31.0
X86.0Y-2.0
X86.0Y-4.0
X86.0Y-6.0
X86.0Y-38.6
X86.247Y-15.1
X87.89Y-43.97
X88.651Y-27.91
X90.0Y-35.0
X90.265Y-25.66
X90.507Y-41.463
X90.879Y-44.74
X91.0Y-2.0
X91.0Y-4.0
X91.0Y-6.0
X91.271Y-21.5
X91.475Y-37.237
X92.745Y-23.009
X93.126Y-43.183
X94.115Y-29.74
X94.353Y-42.798
X96.0Y-2.0
X96.0Y-4.0
X96.0Y-6.0
X96.432Y-35.225
X96.474Y-18.75
X96.474Y-36.15
X96.474Y-33.251
X97.16Y-29.525
X97.38Y-15.1
X99.18Y-30.348
X101.0Y-2.0
X101.0Y-4.0
X101.0Y-6.0
X102.0Y-43.0
X102.417Y-33.25
X102.417Y-39.05
X102.706Y-36.563
X102.736Y-23.814
X103.272Y-34.087
X104.01Y-21.5
X104.591Y-36.69
X104.644Y-28.157
X105.388Y-24.55
X105.388Y-33.25
X105.618Y-34.173
X106.0Y-2.0
X106.0Y-4.0
X106.0Y-6.0
X106.0Y-43.0
X106.0Y-46.5
X106.331Y-33.013
X108.123Y-25.211
X108.513Y-15.1
X110.445Y-24.608
X111.0Y-2.0
X111.0Y-4.0
X111.0Y-6.0
X111.331Y-33.25
X111.632Y-28.72
X111.777Y-25.175
X114.0Y-39.0
X115.95Y-23.0
X116.0Y-2.0
X116.0Y-4.0
X116.0Y-6.0
X118.0Y-39.0
X118.1Y-26.1
X118.28Y-34.85
X119.006Y-36.05
X119.647Y-15.1
X121.0Y-2.0
X121.0Y-4.0
X121.0Y-6.0
X123.217Y-15.85
X123.217Y-21.65
X123.217Y-33.25
X123.217Y-39.05
X126.0Y-2.0
X126.0Y-4.0
X126.0Y-6.0
X130.78Y-15.1
X131.0Y-2.0
X131.0Y-4.0
X131.0Y-6.0
X136.0Y-2.0
X136.0Y-4.0
X136.0Y-6.0
X141.0Y-2.0
X141.0Y-4.0
X141.0Y-6.0
X141.913Y-15.1
X146.0Y-2.0
X146.0Y-4.0
X146.0Y-6.0
X146.989Y-6.7
X151.0Y-2.0
X151.0Y-4.0
X151.0Y-6.0
X153.047Y-15.1
X156.0Y-2.0
X156.0Y-4.0
X156.0Y-6.0
X161.0Y-2.0
X161.0Y-4.0
X161.0Y-6.0
X164.18Y-15.1
X166.0Y-2.0
X166.0Y-4.0
X166.0Y-6.0
X171.0Y-2.0
X171.0Y-4.0
X171.0Y-6.0
X175.313Y-15.1
X176.0Y-2.0
X176.0Y-4.0
X176.0Y-6.0
X181.0Y-2.0
T2
X93.68Y-45.32G85X93.68Y-46.42
G05
X93.68Y-49.75G85X93.68Y-50.35
G05
X102.32Y-45.32G85X102.32Y-46.42
G05
X102.32Y-49.75G85X102.32Y-50.35
G05
M30
