%TF.GenerationSoftware,KiCad,Pcbnew,10.0.5*%
%TF.CreationDate,2026-08-20T16:28:56+02:00*%
%TF.ProjectId,ember,656d6265-722e-46b6-9963-61645f706362,rev?*%
%TF.SameCoordinates,Original*%
%TF.FileFunction,Paste,Top*%
%TF.FilePolarity,Positive*%
%FSLAX46Y46*%
G04 Gerber Fmt 4.6, Leading zero omitted, Abs format (unit mm)*
G04 Created by KiCad (PCBNEW 10.0.5) date 2026-08-20 16:28:56*
%MOMM*%
%LPD*%
G01*
G04 APERTURE LIST*
G04 Aperture macros list*
%AMRoundRect*
0 Rectangle with rounded corners*
0 $1 Rounding radius*
0 $2 $3 $4 $5 $6 $7 $8 $9 X,Y pos of 4 corners*
0 Add a 4 corners polygon primitive as box body*
4,1,4,$2,$3,$4,$5,$6,$7,$8,$9,$2,$3,0*
0 Add four circle primitives for the rounded corners*
1,1,$1+$1,$2,$3*
1,1,$1+$1,$4,$5*
1,1,$1+$1,$6,$7*
1,1,$1+$1,$8,$9*
0 Add four rect primitives between the rounded corners*
20,1,$1+$1,$2,$3,$4,$5,0*
20,1,$1+$1,$4,$5,$6,$7,0*
20,1,$1+$1,$6,$7,$8,$9,0*
20,1,$1+$1,$8,$9,$2,$3,0*%
%AMFreePoly0*
4,1,6,0.725000,-0.725000,-0.725000,-0.725000,-0.725000,0.125000,-0.125000,0.725000,0.725000,0.725000,0.725000,-0.725000,0.725000,-0.725000,$1*%
G04 Aperture macros list end*
%ADD10RoundRect,0.140000X-0.140000X-0.170000X0.140000X-0.170000X0.140000X0.170000X-0.140000X0.170000X0*%
%ADD11RoundRect,0.135000X-0.135000X-0.185000X0.135000X-0.185000X0.135000X0.185000X-0.135000X0.185000X0*%
%ADD12RoundRect,0.250000X-0.250000X-1.500000X0.250000X-1.500000X0.250000X1.500000X-0.250000X1.500000X0*%
%ADD13RoundRect,0.250001X-0.499999X-1.449999X0.499999X-1.449999X0.499999X1.449999X-0.499999X1.449999X0*%
%ADD14RoundRect,0.150000X-0.587500X-0.150000X0.587500X-0.150000X0.587500X0.150000X-0.587500X0.150000X0*%
%ADD15RoundRect,0.150000X-0.150000X-0.575000X0.150000X-0.575000X0.150000X0.575000X-0.150000X0.575000X0*%
%ADD16RoundRect,0.075000X-0.075000X-0.650000X0.075000X-0.650000X0.075000X0.650000X-0.075000X0.650000X0*%
%ADD17R,0.800000X0.400000*%
%ADD18R,0.400000X0.800000*%
%ADD19FreePoly0,180.000000*%
%ADD20R,1.450000X1.450000*%
%ADD21R,0.700000X0.700000*%
%ADD22RoundRect,0.090000X0.360000X-0.660000X0.360000X0.660000X-0.360000X0.660000X-0.360000X-0.660000X0*%
%ADD23RoundRect,0.250000X-0.450000X-0.275000X0.450000X-0.275000X0.450000X0.275000X-0.450000X0.275000X0*%
%ADD24RoundRect,0.150000X-0.512500X-0.150000X0.512500X-0.150000X0.512500X0.150000X-0.512500X0.150000X0*%
%ADD25RoundRect,0.250000X-1.500000X-1.000000X1.500000X-1.000000X1.500000X1.000000X-1.500000X1.000000X0*%
%ADD26RoundRect,0.250000X-0.250000X-0.475000X0.250000X-0.475000X0.250000X0.475000X-0.250000X0.475000X0*%
%ADD27RoundRect,0.250000X-0.312500X-1.450000X0.312500X-1.450000X0.312500X1.450000X-0.312500X1.450000X0*%
G04 APERTURE END LIST*
D10*
%TO.C,C6*%
X70520000Y-31000000D03*
X71480000Y-31000000D03*
%TD*%
D11*
%TO.C,R1*%
X88490000Y-46500000D03*
X89510000Y-46500000D03*
%TD*%
D10*
%TO.C,C9*%
X87020000Y-31000000D03*
X87980000Y-31000000D03*
%TD*%
D12*
%TO.C,J4*%
X76000000Y-43150000D03*
X78000000Y-43150000D03*
X80000000Y-43150000D03*
D13*
X73650000Y-48900000D03*
X82350000Y-48900000D03*
%TD*%
D10*
%TO.C,C15*%
X74153300Y-15100000D03*
X75113300Y-15100000D03*
%TD*%
D14*
%TO.C,Q1*%
X98062500Y-22050000D03*
X98062500Y-23950000D03*
X99937500Y-23000000D03*
%TD*%
D15*
%TO.C,J1*%
X94750000Y-44955000D03*
X95550000Y-44955000D03*
D16*
X96750000Y-44955000D03*
X97750000Y-44955000D03*
X98250000Y-44955000D03*
X99250000Y-44955000D03*
D15*
X100450000Y-44955000D03*
X101250000Y-44955000D03*
X101250000Y-44955000D03*
X100450000Y-44955000D03*
D16*
X99750000Y-44955000D03*
X98750000Y-44955000D03*
X97250000Y-44955000D03*
X96250000Y-44955000D03*
D15*
X95550000Y-44955000D03*
X94750000Y-44955000D03*
%TD*%
D17*
%TO.C,U1*%
X120900000Y-39300000D03*
X120900000Y-38500000D03*
X120900000Y-37700000D03*
X120900000Y-36900000D03*
X120900000Y-36100000D03*
X120900000Y-35300000D03*
X120900000Y-34500000D03*
X120900000Y-33700000D03*
X120900000Y-32900000D03*
X120900000Y-32100000D03*
X120900000Y-31300000D03*
D18*
X119800000Y-30400000D03*
X119000000Y-30400000D03*
X118200000Y-30400000D03*
X117400000Y-30400000D03*
X116600000Y-30400000D03*
X115800000Y-30400000D03*
X115000000Y-30400000D03*
X114200000Y-30400000D03*
X113400000Y-30400000D03*
X112600000Y-30400000D03*
X111800000Y-30400000D03*
X111000000Y-30400000D03*
X110200000Y-30400000D03*
D17*
X109100000Y-31300000D03*
X109100000Y-32100000D03*
X109100000Y-32900000D03*
X109100000Y-33700000D03*
X109100000Y-34500000D03*
X109100000Y-35300000D03*
X109100000Y-36100000D03*
X109100000Y-36900000D03*
X109100000Y-37700000D03*
X109100000Y-38500000D03*
X109100000Y-39300000D03*
D18*
X110200000Y-40200000D03*
X111000000Y-40200000D03*
X111800000Y-40200000D03*
X112600000Y-40200000D03*
X113400000Y-40200000D03*
X114200000Y-40200000D03*
X115000000Y-40200000D03*
X115800000Y-40200000D03*
X116600000Y-40200000D03*
X117400000Y-40200000D03*
X118200000Y-40200000D03*
X119000000Y-40200000D03*
X119800000Y-40200000D03*
D19*
X116975000Y-37275000D03*
D20*
X116975000Y-35300000D03*
X116975000Y-33325000D03*
X115000000Y-37275000D03*
X115000000Y-35300000D03*
X115000000Y-33325000D03*
X113025000Y-37275000D03*
X113025000Y-35300000D03*
X113025000Y-33325000D03*
D21*
X109050000Y-40250000D03*
X109050000Y-30350000D03*
X120950000Y-30350000D03*
X120950000Y-40250000D03*
%TD*%
D22*
%TO.C,LD1*%
X13916700Y-13450000D03*
X17216700Y-13450000D03*
X17216700Y-8550000D03*
X13916700Y-8550000D03*
%TD*%
D23*
%TO.C,SW1*%
X82200000Y-22780000D03*
X85800000Y-22780000D03*
X82200000Y-24220000D03*
X85800000Y-24220000D03*
%TD*%
D11*
%TO.C,R5*%
X91990000Y-31000000D03*
X93010000Y-31000000D03*
%TD*%
%TO.C,R6*%
X94490000Y-31000000D03*
X95510000Y-31000000D03*
%TD*%
D22*
%TO.C,LD2*%
X25050000Y-13450000D03*
X28350000Y-13450000D03*
X28350000Y-8550000D03*
X25050000Y-8550000D03*
%TD*%
D10*
%TO.C,C19*%
X118686700Y-15100000D03*
X119646700Y-15100000D03*
%TD*%
D22*
%TO.C,LD11*%
X125250000Y-13450000D03*
X128550000Y-13450000D03*
X128550000Y-8550000D03*
X125250000Y-8550000D03*
%TD*%
%TO.C,LD9*%
X102983300Y-13450000D03*
X106283300Y-13450000D03*
X106283300Y-8550000D03*
X102983300Y-8550000D03*
%TD*%
D24*
%TO.C,U3*%
X109362500Y-22050000D03*
X109362500Y-23000000D03*
X109362500Y-23950000D03*
X111637500Y-23950000D03*
X111637500Y-22050000D03*
%TD*%
D10*
%TO.C,C11*%
X29620000Y-15100000D03*
X30580000Y-15100000D03*
%TD*%
%TO.C,C20*%
X129820000Y-15100000D03*
X130780000Y-15100000D03*
%TD*%
%TO.C,C23*%
X163220000Y-15100000D03*
X164180000Y-15100000D03*
%TD*%
D11*
%TO.C,R3*%
X74490000Y-34500000D03*
X75510000Y-34500000D03*
%TD*%
D22*
%TO.C,LD4*%
X47316700Y-13450000D03*
X50616700Y-13450000D03*
X50616700Y-8550000D03*
X47316700Y-8550000D03*
%TD*%
D11*
%TO.C,R8*%
X102990000Y-22400000D03*
X104010000Y-22400000D03*
%TD*%
%TO.C,R11*%
X77990000Y-31000000D03*
X79010000Y-31000000D03*
%TD*%
D22*
%TO.C,LD14*%
X158650000Y-13450000D03*
X161950000Y-13450000D03*
X161950000Y-8550000D03*
X158650000Y-8550000D03*
%TD*%
%TO.C,LD8*%
X91850000Y-13450000D03*
X95150000Y-13450000D03*
X95150000Y-8550000D03*
X91850000Y-8550000D03*
%TD*%
D24*
%TO.C,U2*%
X73862500Y-30050000D03*
X73862500Y-31000000D03*
X73862500Y-31950000D03*
X76137500Y-31950000D03*
X76137500Y-30050000D03*
%TD*%
D22*
%TO.C,LD13*%
X147516700Y-13450000D03*
X150816700Y-13450000D03*
X150816700Y-8550000D03*
X147516700Y-8550000D03*
%TD*%
D10*
%TO.C,C24*%
X174353300Y-15100000D03*
X175313300Y-15100000D03*
%TD*%
%TO.C,C7*%
X105520000Y-22400000D03*
X106480000Y-22400000D03*
%TD*%
D22*
%TO.C,LD5*%
X58450000Y-13450000D03*
X61750000Y-13450000D03*
X61750000Y-8550000D03*
X58450000Y-8550000D03*
%TD*%
D10*
%TO.C,C10*%
X18486700Y-15100000D03*
X19446700Y-15100000D03*
%TD*%
D25*
%TO.C,C1*%
X69750000Y-24500000D03*
X76250000Y-24500000D03*
%TD*%
D22*
%TO.C,LD3*%
X36183300Y-13450000D03*
X39483300Y-13450000D03*
X39483300Y-8550000D03*
X36183300Y-8550000D03*
%TD*%
D11*
%TO.C,R10*%
X93490000Y-26500000D03*
X94510000Y-26500000D03*
%TD*%
D10*
%TO.C,C18*%
X107553300Y-15100000D03*
X108513300Y-15100000D03*
%TD*%
%TO.C,C21*%
X140953300Y-15100000D03*
X141913300Y-15100000D03*
%TD*%
D11*
%TO.C,R4*%
X89490000Y-31000000D03*
X90510000Y-31000000D03*
%TD*%
D22*
%TO.C,LD12*%
X136383300Y-13450000D03*
X139683300Y-13450000D03*
X139683300Y-8550000D03*
X136383300Y-8550000D03*
%TD*%
D10*
%TO.C,C8*%
X91020000Y-26500000D03*
X91980000Y-26500000D03*
%TD*%
D26*
%TO.C,C2*%
X114050000Y-23000000D03*
X115950000Y-23000000D03*
%TD*%
D10*
%TO.C,C13*%
X51886700Y-15100000D03*
X52846700Y-15100000D03*
%TD*%
%TO.C,C12*%
X40753300Y-15100000D03*
X41713300Y-15100000D03*
%TD*%
D24*
%TO.C,U4*%
X84862500Y-41050000D03*
X84862500Y-42000000D03*
X84862500Y-42950000D03*
X87137500Y-42950000D03*
X87137500Y-42000000D03*
X87137500Y-41050000D03*
%TD*%
D10*
%TO.C,C16*%
X85286700Y-15100000D03*
X86246700Y-15100000D03*
%TD*%
D27*
%TO.C,F1*%
X89862500Y-23000000D03*
X94137500Y-23000000D03*
%TD*%
D26*
%TO.C,C3*%
X118550000Y-23000000D03*
X120450000Y-23000000D03*
%TD*%
D11*
%TO.C,R7*%
X95990000Y-26500000D03*
X97010000Y-26500000D03*
%TD*%
D10*
%TO.C,C14*%
X63020000Y-15100000D03*
X63980000Y-15100000D03*
%TD*%
D11*
%TO.C,R2*%
X90490000Y-46500000D03*
X91510000Y-46500000D03*
%TD*%
D22*
%TO.C,LD6*%
X69583300Y-13450000D03*
X72883300Y-13450000D03*
X72883300Y-8550000D03*
X69583300Y-8550000D03*
%TD*%
%TO.C,LD15*%
X169783300Y-13450000D03*
X173083300Y-13450000D03*
X173083300Y-8550000D03*
X169783300Y-8550000D03*
%TD*%
D11*
%TO.C,R9*%
X88490000Y-26500000D03*
X89510000Y-26500000D03*
%TD*%
D10*
%TO.C,C17*%
X96420000Y-15100000D03*
X97380000Y-15100000D03*
%TD*%
D26*
%TO.C,C4*%
X83050000Y-31000000D03*
X84950000Y-31000000D03*
%TD*%
D22*
%TO.C,LD10*%
X114116700Y-13450000D03*
X117416700Y-13450000D03*
X117416700Y-8550000D03*
X114116700Y-8550000D03*
%TD*%
D10*
%TO.C,C22*%
X152086700Y-15100000D03*
X153046700Y-15100000D03*
%TD*%
D22*
%TO.C,LD7*%
X80716700Y-13450000D03*
X84016700Y-13450000D03*
X84016700Y-8550000D03*
X80716700Y-8550000D03*
%TD*%
D26*
%TO.C,C5*%
X69550000Y-34500000D03*
X71450000Y-34500000D03*
%TD*%
M02*
